<svg width="30" height="30" fill="none" xmlns="http://www.w3.org/2000/svg"><g clip-path="url(#clip0_5158_3533)"><rect width="30" height="30" rx="5" fill="#181A3C"/><rect x=".5" y=".5" width="29" height="29" rx="4.5" stroke="url(#paint0_linear_5158_3533)" stroke-opacity=".7"/><path d="M20.698 10.912a12.71 12.71 0 00-3.053-.91.047.047 0 00-.05.022 8.26 8.26 0 00-.38.751 11.87 11.87 0 00-3.429 0 7.498 7.498 0 00-.385-.751.048.048 0 00-.05-.023 12.694 12.694 0 00-3.053.91.043.043 0 00-.02.017C8.333 13.724 7.8 16.45 8.062 19.143a.048.048 0 00.02.033 12.633 12.633 0 003.745 1.821.05.05 0 00.053-.015c.289-.379.545-.78.766-1.2a.045.045 0 00.002-.038.045.045 0 00-.028-.026 8.323 8.323 0 01-1.17-.536.046.046 0 01-.023-.037.045.045 0 01.018-.04 6.82 6.82 0 00.233-.175.047.047 0 01.049-.006c2.454 1.078 5.112 1.078 7.537 0a.048.048 0 01.05.006c.075.06.153.119.232.175a.045.045 0 01.013.061.046.046 0 01-.017.016c-.373.21-.762.388-1.17.536a.047.047 0 00-.028.026.045.045 0 00.002.038c.225.42.483.82.766 1.199a.048.048 0 00.023.017.05.05 0 00.03 0 12.59 12.59 0 003.75-1.822.047.047 0 00.02-.033c.313-3.112-.523-5.817-2.218-8.214a.037.037 0 00-.019-.017zm-7.685 6.591c-.74 0-1.348-.653-1.348-1.454 0-.802.597-1.454 1.348-1.454.756 0 1.36.658 1.348 1.454 0 .802-.598 1.454-1.348 1.454zm4.984 0c-.74 0-1.348-.653-1.348-1.454 0-.802.597-1.454 1.348-1.454.756 0 1.36.658 1.348 1.454 0 .802-.591 1.454-1.348 1.454z" fill="#6988FF"/></g><defs><linearGradient id="paint0_linear_5158_3533" x1="0" y1="-.356" x2="24.883" y2="33.735" gradientUnits="userSpaceOnUse"><stop stop-color="#384263" stop-opacity=".25"/><stop offset="1" stop-color="#384263" stop-opacity=".15"/></linearGradient><clipPath id="clip0_5158_3533"><rect width="30" height="30" rx="3" fill="#fff"/></clipPath></defs></svg>