<svg width="26" height="25" viewBox="0 0 26 25" fill="none" xmlns="http://www.w3.org/2000/svg">
<path d="M4.5 8.54334V17.4567C4.5 18.0239 4.79545 18.5493 5.27727 18.8329L12.8227 23.2873C13.3045 23.5709 13.8955 23.5709 14.3773 23.2873L21.9227 18.8329C22.4045 18.5493 22.7 18.0239 22.7 17.4567V8.54334C22.7 7.97609 22.4045 7.45068 21.9227 7.16705L14.3773 2.71272C13.8955 2.42909 13.3045 2.42909 12.8227 2.71272L5.27727 7.16705C4.8 7.45068 4.5 7.97609 4.5 8.54334Z" fill="#213147"/>
<path d="M15.1047 14.8607L14.189 17.5225C14.162 17.5963 14.162 17.6783 14.189 17.7522L15.7615 22.3333L17.5812 21.2178L15.3983 14.8607C15.3481 14.7131 15.1549 14.7131 15.1047 14.8607Z" fill="#12AAFF"/>
<path d="M17.1416 9.61685C17.0899 9.46105 16.8909 9.46105 16.8391 9.61685L15.8959 12.4255C15.868 12.5034 15.868 12.59 15.8959 12.6679L18.5505 20.5833L20.425 19.4062L17.1416 9.61685Z" fill="#12AAFF"/>
<path d="M13.6 3.80149C13.6504 3.80149 13.6966 3.81438 13.7428 3.84015L21.2884 8.29444C21.3766 8.34598 21.4312 8.44048 21.4312 8.54357V17.4521C21.4312 17.5552 21.3766 17.6497 21.2884 17.7013L13.7428 22.1598C13.7008 22.1856 13.6504 22.1985 13.6 22.1985C13.5496 22.1985 13.5034 22.1856 13.4572 22.1598L5.91584 17.7056C5.82761 17.654 5.77299 17.5595 5.77299 17.4564V8.54357C5.77299 8.44048 5.82761 8.34598 5.91584 8.29444L13.4614 3.84015C13.5034 3.81438 13.5538 3.80149 13.6 3.80149ZM13.6 2.5C13.3311 2.5 13.0622 2.57302 12.8228 2.71477L5.27724 7.16905C4.79829 7.45255 4.5 7.97635 4.5 8.54334V17.4521C4.5 18.0191 4.79829 18.5475 5.27724 18.8309L12.8228 23.2852C13.0622 23.427 13.3311 23.5 13.6 23.5C13.8689 23.5 14.1378 23.427 14.3772 23.2852L21.9228 18.8309C22.4059 18.5475 22.7 18.0234 22.7 17.4521V8.54334C22.7 7.97635 22.4017 7.44825 21.9228 7.16476L14.3814 2.71477C14.1378 2.57302 13.8689 2.5 13.6 2.5Z" fill="#9DCCED"/>
<path d="M8.48125 20.7167L9.23653 18.8333L10.7562 19.9833L9.33724 21.1667L8.48125 20.7167Z" fill="#213147"/>
<path d="M12.8646 7.75H11.026C10.8886 7.75 10.7633 7.8398 10.7189 7.97665L6.775 19.4202L8.67824 20.5833L13.0222 7.98092C13.0585 7.86974 12.9817 7.75 12.8646 7.75Z" fill="white"/>
<path d="M16.2794 7.75H14.4382C14.3006 7.75 14.1752 7.84058 14.1307 7.97861L9.61875 21.1601L11.5247 22.3333L16.4332 7.98723C16.4736 7.87077 16.3927 7.75 16.2794 7.75Z" fill="white"/>
</svg>
