<svg width="14" height="14" viewBox="0 0 14 14" fill="none" xmlns="http://www.w3.org/2000/svg">
<path d="M0 4.02889V9.9711C0 10.3493 0.212121 10.6995 0.558042 10.8886L5.97529 13.8582C6.32121 14.0473 6.74545 14.0473 7.09138 13.8582L12.5086 10.8886C12.8545 10.6995 13.0667 10.3493 13.0667 9.9711V4.02889C13.0667 3.65072 12.8545 3.30045 12.5086 3.11137L7.09138 0.141813C6.74545 -0.0472711 6.32121 -0.0472711 5.97529 0.141813L0.558042 3.11137C0.215385 3.30045 0 3.65072 0 4.02889Z" fill="#213147"/>
<path d="M7.61363 8.24049L6.95623 10.015C6.93681 10.0642 6.93681 10.1189 6.95623 10.1681L8.08518 13.2222L9.39167 12.4785L7.82444 8.24049C7.78838 8.14206 7.64969 8.14206 7.61363 8.24049Z" fill="#12AAFF"/>
<path d="M9.07602 4.74457C9.03887 4.6407 8.896 4.6407 8.85886 4.74457L8.18167 6.61703C8.16167 6.66897 8.16167 6.72667 8.18167 6.7786L10.0875 12.0556L11.4333 11.2708L9.07602 4.74457Z" fill="#12AAFF"/>
<path d="M6.53333 0.867662C6.56953 0.867662 6.60271 0.876253 6.63589 0.893434L12.0532 3.86296C12.1165 3.89732 12.1557 3.96032 12.1557 4.02904V9.96809C12.1557 10.0368 12.1165 10.0998 12.0532 10.1342L6.63589 13.1066C6.60573 13.1237 6.56953 13.1323 6.53333 13.1323C6.49714 13.1323 6.46396 13.1237 6.43078 13.1066L1.0165 10.137C0.953155 10.1027 0.913943 10.0397 0.913943 9.97095V4.02904C0.913943 3.96032 0.953155 3.89732 1.0165 3.86296L6.43379 0.893434C6.46396 0.876253 6.50015 0.867662 6.53333 0.867662ZM6.53333 0C6.34029 0 6.14725 0.0486807 5.97532 0.143179L0.558018 3.1127C0.214158 3.3017 0 3.6509 0 4.02889V9.96809C0 10.3461 0.214158 10.6983 0.558018 10.8873L5.97532 13.8568C6.14725 13.9513 6.34029 14 6.53333 14C6.72638 14 6.91942 13.9513 7.09135 13.8568L12.5087 10.8873C12.8555 10.6983 13.0667 10.3489 13.0667 9.96809V4.02889C13.0667 3.6509 12.8525 3.29883 12.5087 3.10984L7.09437 0.143179C6.91942 0.0486807 6.72638 0 6.53333 0Z" fill="#9DCCED"/>
<path d="M2.85833 12.1444L3.40059 10.8889L4.49167 11.6556L3.47289 12.4444L2.85833 12.1444Z" fill="#213147"/>
<path d="M6.00533 3.5H4.68532C4.58668 3.5 4.49674 3.55987 4.46483 3.6511L1.63333 11.2801L2.99976 12.0556L6.11847 3.65395C6.14458 3.57983 6.08946 3.5 6.00533 3.5Z" fill="white"/>
<path d="M8.45701 3.5H7.13513C7.03635 3.5 6.94629 3.56039 6.91433 3.6524L3.675 12.4401L5.04336 13.2222L8.56741 3.65815C8.59646 3.58051 8.53836 3.5 8.45701 3.5Z" fill="white"/>
</svg>
