<svg width="10" height="11" viewBox="0 0 10 11" fill="none" xmlns="http://www.w3.org/2000/svg">
<path d="M0.611091 8.61109C0.396303 8.82588 0.396303 9.17412 0.611091 9.38891C0.82588 9.6037 1.17412 9.6037 1.38891 9.38891L0.611091 8.61109ZM8.62107 1.92893C8.62107 1.62518 8.37482 1.37893 8.07107 1.37893L3.12107 1.37893C2.81731 1.37893 2.57107 1.62518 2.57107 1.92893C2.57107 2.23269 2.81731 2.47893 3.12107 2.47893L7.52107 2.47893L7.52107 6.87893C7.52107 7.18269 7.76731 7.42893 8.07107 7.42893C8.37482 7.42893 8.62107 7.18269 8.62107 6.87893L8.62107 1.92893ZM1.38891 9.38891L8.45998 2.31784L7.68216 1.54002L0.611091 8.61109L1.38891 9.38891Z" fill="#46956A"/>
</svg>
