<svg width="10" height="11" viewBox="0 0 10 11" fill="none" xmlns="http://www.w3.org/2000/svg">
<path d="M1.38891 1.54005C1.17412 1.32526 0.82588 1.32526 0.611091 1.54005C0.396303 1.75483 0.396303 2.10308 0.611091 2.31786L1.38891 1.54005ZM8.07107 9.55002C8.37482 9.55002 8.62107 9.30378 8.62107 9.00002L8.62107 4.05002C8.62107 3.74627 8.37482 3.50002 8.07107 3.50002C7.76731 3.50002 7.52107 3.74627 7.52107 4.05002L7.52107 8.45002L3.12107 8.45002C2.81731 8.45002 2.57107 8.69627 2.57107 9.00002C2.57107 9.30378 2.81731 9.55002 3.12107 9.55002L8.07107 9.55002ZM0.611091 2.31786L7.68216 9.38893L8.45998 8.61111L1.38891 1.54005L0.611091 2.31786Z" fill="#C75E4B"/>
</svg>
