<svg width="15" height="16" viewBox="0 0 15 16" fill="none" xmlns="http://www.w3.org/2000/svg">
<g clip-path="url(#clip0_1_3471)">
<path d="M14.7756 9.81429C13.7738 13.8322 9.70387 16.2774 5.68504 15.2755C1.6679 14.2738 -0.777593 10.204 0.224639 6.18648C1.22599 2.16814 5.29593 -0.277254 9.31351 0.724426C13.332 1.7261 15.7774 5.79628 14.7755 9.81436L14.7756 9.81429H14.7756Z" fill="#F7931A"/>
<path d="M10.9791 6.52009C11.1455 5.46933 10.2984 4.9045 9.13994 4.5277L9.51574 3.10435L8.5982 2.88845L8.23237 4.27433C7.99116 4.21752 7.74344 4.16399 7.49724 4.11092L7.86573 2.7159L6.94876 2.5L6.57276 3.92289C6.37314 3.87998 6.17709 3.83756 5.98688 3.79287L5.98794 3.78839L4.72264 3.49002L4.47856 4.41543C4.47856 4.41543 5.1593 4.56278 5.14495 4.57185C5.5165 4.65942 5.58369 4.89169 5.57254 5.07578L5.14446 6.69732C5.17005 6.70345 5.20323 6.71233 5.23985 6.72622C5.20924 6.71905 5.17667 6.71121 5.14287 6.70357L4.54285 8.97511C4.49745 9.08171 4.38219 9.24168 4.12242 9.18093C4.13162 9.19352 3.45554 9.02378 3.45554 9.02378L3 10.0156L4.19402 10.2967C4.41615 10.3493 4.63383 10.4043 4.84819 10.456L4.46851 11.8957L5.38498 12.1116L5.76099 10.6872C6.01136 10.7514 6.25434 10.8106 6.4922 10.8664L6.11746 12.2841L7.03504 12.5L7.41468 11.063C8.97928 11.3426 10.1557 11.2299 10.6509 9.89354C11.0499 8.81761 10.631 8.19701 9.80792 7.79231C10.4074 7.66175 10.859 7.28939 10.9794 6.52021L10.9791 6.52001L10.9791 6.52009ZM8.88274 9.29602C8.59918 10.372 6.68082 9.79034 6.05885 9.64449L6.5627 7.73716C7.18462 7.88378 9.17909 8.17393 8.88278 9.29602H8.88274ZM9.1665 6.5045C8.90784 7.48317 7.31116 6.98596 6.79321 6.86404L7.25002 5.13421C7.76796 5.25613 9.43596 5.48368 9.16659 6.5045H9.1665Z" fill="white"/>
</g>
<defs>
<clipPath id="clip0_1_3471">
<rect width="15" height="15" fill="white" transform="translate(0 0.5)"/>
</clipPath>
</defs>
</svg>
