<svg width="20" height="20" viewBox="0 0 20 20" fill="none" xmlns="http://www.w3.org/2000/svg">
<circle cx="10" cy="10" r="9.5" fill="#20224E" stroke="url(#paint0_linear_7722_10767)"/>
<path d="M6.57574 12.5757C6.34142 12.8101 6.34142 13.1899 6.57574 13.4243C6.81005 13.6586 7.18995 13.6586 7.42426 13.4243L6.57574 12.5757ZM13.2569 7.34315C13.2569 7.01178 12.9882 6.74315 12.6569 6.74315L7.25685 6.74315C6.92548 6.74315 6.65685 7.01178 6.65685 7.34315C6.65685 7.67452 6.92548 7.94315 7.25685 7.94315H12.0569V12.7431C12.0569 13.0745 12.3255 13.3431 12.6569 13.3431C12.9882 13.3431 13.2569 13.0745 13.2569 12.7431L13.2569 7.34315ZM7.42426 13.4243L13.0811 7.76741L12.2326 6.91888L6.57574 12.5757L7.42426 13.4243Z" fill="#46956A"/>
<defs>
<linearGradient id="paint0_linear_7722_10767" x1="-4.63686e-08" y1="-0.237624" x2="16.5889" y2="22.4898" gradientUnits="userSpaceOnUse">
<stop stop-color="#384263" stop-opacity="0.25"/>
<stop offset="1" stop-color="#384263" stop-opacity="0.15"/>
</linearGradient>
</defs>
</svg>
