<svg width="25" height="25" viewBox="0 0 25 25" fill="none" xmlns="http://www.w3.org/2000/svg">
<circle cx="12.5" cy="12.5" r="12" fill="#20224E" stroke="url(#paint0_linear_7721_10018)"/>
<path d="M8.50703 9.6016C8.22006 9.43592 7.8531 9.53424 7.68742 9.82122C7.52173 10.1082 7.62006 10.4751 7.90703 10.6408L8.50703 9.6016ZM17.0226 15.7008C17.3427 15.615 17.5326 15.286 17.4468 14.9659L16.0492 9.74992C15.9635 9.42984 15.6345 9.2399 15.3144 9.32566C14.9943 9.41143 14.8043 9.74043 14.8901 10.0605L16.1324 14.697L11.496 15.9393C11.1759 16.025 10.986 16.3541 11.0717 16.6741C11.1575 16.9942 11.4865 17.1842 11.8066 17.0984L17.0226 15.7008ZM7.90703 10.6408L16.5673 15.6408L17.1673 14.6016L8.50703 9.6016L7.90703 10.6408Z" fill="#C75E4B"/>
<defs>
<linearGradient id="paint0_linear_7721_10018" x1="-5.79608e-08" y1="-0.29703" x2="20.7361" y2="28.1122" gradientUnits="userSpaceOnUse">
<stop stop-color="#384263" stop-opacity="0.25"/>
<stop offset="1" stop-color="#384263" stop-opacity="0.15"/>
</linearGradient>
</defs>
</svg>
