<svg width="15" height="16" viewBox="0 0 16 15" fill="none" xmlns="http://www.w3.org/2000/svg">
<path d="M8 15C12.1421 15 15.5 11.6421 15.5 7.5C15.5 3.35786 12.1421 0 8 0C3.85786 0 0.5 3.35786 0.5 7.5C0.5 11.6421 3.85786 15 8 15Z" fill="#627EEA"/>
<path d="M8.23438 1.875V6.03281L11.7486 7.60312L8.23438 1.875Z" fill="white" fill-opacity="0.602"/>
<path d="M8.23344 1.875L4.71875 7.60312L8.23344 6.03281V1.875Z" fill="white"/>
<path d="M8.23438 10.2976V13.1227L11.7509 8.25757L8.23438 10.2976Z" fill="white" fill-opacity="0.602"/>
<path d="M8.23344 13.1227V10.2971L4.71875 8.25757L8.23344 13.1227Z" fill="white"/>
<path d="M8.23438 9.64354L11.7486 7.60307L8.23438 6.03369V9.64354Z" fill="white" fill-opacity="0.2"/>
<path d="M4.71875 7.60307L8.23344 9.64354V6.03369L4.71875 7.60307Z" fill="white" fill-opacity="0.602"/>
</svg>
