<svg width="240" height="103" viewBox="0 0 240 103" fill="none" xmlns="http://www.w3.org/2000/svg">
<rect width="115" height="103" rx="5" fill="#181A3C"/>
<rect x="0.5" y="0.5" width="114" height="102" rx="4.5" stroke="url(#paint0_linear_3311_5897)" stroke-opacity="0.7"/>
<path d="M28 12.5L110 12.5" stroke="url(#paint1_linear_3311_5897)" stroke-linecap="round" stroke-dasharray="3 5"/>
<path d="M28 37.5L110 37.5" stroke="url(#paint2_linear_3311_5897)" stroke-linecap="round" stroke-dasharray="3 5"/>
<path d="M28 62.5L110 62.5" stroke="url(#paint3_linear_3311_5897)" stroke-linecap="round" stroke-dasharray="3 5"/>
<path d="M12.8649 63.08C12.3955 63.08 11.9982 62.9627 11.6729 62.728C11.3475 62.488 11.1022 62.1627 10.9369 61.752C10.7715 61.336 10.6889 60.8613 10.6889 60.328C10.6889 59.7947 10.7715 59.3227 10.9369 58.912C11.1022 58.496 11.3475 58.1707 11.6729 57.936C11.9982 57.696 12.3955 57.576 12.8649 57.576C13.3395 57.576 13.7369 57.696 14.0569 57.936C14.3822 58.1707 14.6275 58.496 14.7929 58.912C14.9635 59.3227 15.0489 59.7947 15.0489 60.328C15.0489 60.8613 14.9635 61.336 14.7929 61.752C14.6275 62.1627 14.3822 62.488 14.0569 62.728C13.7369 62.9627 13.3395 63.08 12.8649 63.08ZM12.8649 62.416C13.1315 62.416 13.3662 62.3413 13.5689 62.192C13.7769 62.0373 13.9369 61.8053 14.0489 61.496C14.1662 61.1867 14.2249 60.7973 14.2249 60.328C14.2249 59.8533 14.1662 59.4613 14.0489 59.152C13.9369 58.8427 13.7769 58.6133 13.5689 58.464C13.3662 58.3093 13.1315 58.232 12.8649 58.232C12.6035 58.232 12.3689 58.3093 12.1609 58.464C11.9582 58.6187 11.7982 58.8507 11.6809 59.16C11.5635 59.464 11.5049 59.8533 11.5049 60.328C11.5049 60.7973 11.5635 61.1867 11.6809 61.496C11.7982 61.8053 11.9582 62.0373 12.1609 62.192C12.3689 62.3413 12.6035 62.416 12.8649 62.416ZM17.4937 63L20.3337 57.656H20.9337L18.1017 63H17.4937ZM17.1097 60.856C16.8324 60.856 16.5977 60.7867 16.4057 60.648C16.2137 60.5093 16.067 60.3173 15.9657 60.072C15.8697 59.8267 15.8217 59.5467 15.8217 59.232C15.8217 58.9173 15.8697 58.6373 15.9657 58.392C16.067 58.1467 16.2137 57.9547 16.4057 57.816C16.5977 57.6773 16.8324 57.608 17.1097 57.608C17.387 57.608 17.619 57.6773 17.8057 57.816C17.9977 57.9547 18.1417 58.1467 18.2377 58.392C18.339 58.6373 18.3897 58.9173 18.3897 59.232C18.3897 59.5467 18.339 59.8267 18.2377 60.072C18.1417 60.3173 17.9977 60.5093 17.8057 60.648C17.619 60.7867 17.387 60.856 17.1097 60.856ZM17.1017 60.352C17.299 60.352 17.459 60.264 17.5817 60.088C17.7097 59.9067 17.7737 59.6213 17.7737 59.232C17.7737 58.8427 17.7097 58.5573 17.5817 58.376C17.459 58.1947 17.299 58.104 17.1017 58.104C16.9044 58.104 16.7444 58.1947 16.6217 58.376C16.499 58.5573 16.4377 58.8427 16.4377 59.232C16.4377 59.6213 16.499 59.9067 16.6217 60.088C16.7444 60.264 16.9044 60.352 17.1017 60.352ZM21.3257 63.048C21.0484 63.048 20.8137 62.9787 20.6217 62.84C20.4297 62.7013 20.283 62.5093 20.1817 62.264C20.0857 62.0187 20.0377 61.7387 20.0377 61.424C20.0377 61.1093 20.0857 60.8293 20.1817 60.584C20.283 60.3387 20.4297 60.1467 20.6217 60.008C20.8137 59.8693 21.0484 59.8 21.3257 59.8C21.6084 59.8 21.843 59.8693 22.0297 60.008C22.2217 60.1467 22.3657 60.3387 22.4617 60.584C22.563 60.8293 22.6137 61.1093 22.6137 61.424C22.6137 61.7387 22.563 62.0187 22.4617 62.264C22.3657 62.5093 22.2217 62.7013 22.0297 62.84C21.843 62.9787 21.6084 63.048 21.3257 63.048ZM21.3257 62.544C21.523 62.544 21.683 62.456 21.8057 62.28C21.9337 62.0987 21.9977 61.8133 21.9977 61.424C21.9977 61.0347 21.9337 60.7493 21.8057 60.568C21.683 60.3867 21.523 60.296 21.3257 60.296C21.1284 60.296 20.9684 60.3867 20.8457 60.568C20.723 60.7493 20.6617 61.0347 20.6617 61.424C20.6617 61.8133 20.723 62.0987 20.8457 62.28C20.9684 62.456 21.1284 62.544 21.3257 62.544Z" fill="#747FA6"/>
<path d="M6.25919 38V37.336L8.53919 35.2C8.70452 35.04 8.82452 34.8827 8.89919 34.728C8.97385 34.5733 9.01119 34.424 9.01119 34.28C9.01119 34.0667 8.96585 33.8827 8.87519 33.728C8.78452 33.5733 8.65919 33.4533 8.49919 33.368C8.34452 33.2773 8.15785 33.232 7.93919 33.232C7.72052 33.232 7.50452 33.2853 7.29119 33.392C7.08319 33.4987 6.84052 33.6587 6.56319 33.872L6.25919 33.296C6.53652 33.0453 6.81385 32.864 7.09119 32.752C7.36852 32.6347 7.66185 32.576 7.97119 32.576C8.33385 32.576 8.65385 32.6453 8.93119 32.784C9.21385 32.9173 9.43519 33.112 9.59519 33.368C9.75519 33.624 9.83519 33.928 9.83519 34.28C9.83519 34.504 9.77385 34.7307 9.65119 34.96C9.52852 35.184 9.31785 35.432 9.01919 35.704L7.28319 37.336H9.91519V38H6.25919ZM12.8649 38.08C12.3955 38.08 11.9982 37.9627 11.6729 37.728C11.3475 37.488 11.1022 37.1627 10.9369 36.752C10.7715 36.336 10.6889 35.8613 10.6889 35.328C10.6889 34.7947 10.7715 34.3227 10.9369 33.912C11.1022 33.496 11.3475 33.1707 11.6729 32.936C11.9982 32.696 12.3955 32.576 12.8649 32.576C13.3395 32.576 13.7369 32.696 14.0569 32.936C14.3822 33.1707 14.6275 33.496 14.7929 33.912C14.9635 34.3227 15.0489 34.7947 15.0489 35.328C15.0489 35.8613 14.9635 36.336 14.7929 36.752C14.6275 37.1627 14.3822 37.488 14.0569 37.728C13.7369 37.9627 13.3395 38.08 12.8649 38.08ZM12.8649 37.416C13.1315 37.416 13.3662 37.3413 13.5689 37.192C13.7769 37.0373 13.9369 36.8053 14.0489 36.496C14.1662 36.1867 14.2249 35.7973 14.2249 35.328C14.2249 34.8533 14.1662 34.4613 14.0489 34.152C13.9369 33.8427 13.7769 33.6133 13.5689 33.464C13.3662 33.3093 13.1315 33.232 12.8649 33.232C12.6035 33.232 12.3689 33.3093 12.1609 33.464C11.9582 33.6187 11.7982 33.8507 11.6809 34.16C11.5635 34.464 11.5049 34.8533 11.5049 35.328C11.5049 35.7973 11.5635 36.1867 11.6809 36.496C11.7982 36.8053 11.9582 37.0373 12.1609 37.192C12.3689 37.3413 12.6035 37.416 12.8649 37.416ZM17.4937 38L20.3337 32.656H20.9337L18.1017 38H17.4937ZM17.1097 35.856C16.8324 35.856 16.5977 35.7867 16.4057 35.648C16.2137 35.5093 16.067 35.3173 15.9657 35.072C15.8697 34.8267 15.8217 34.5467 15.8217 34.232C15.8217 33.9173 15.8697 33.6373 15.9657 33.392C16.067 33.1467 16.2137 32.9547 16.4057 32.816C16.5977 32.6773 16.8324 32.608 17.1097 32.608C17.387 32.608 17.619 32.6773 17.8057 32.816C17.9977 32.9547 18.1417 33.1467 18.2377 33.392C18.339 33.6373 18.3897 33.9173 18.3897 34.232C18.3897 34.5467 18.339 34.8267 18.2377 35.072C18.1417 35.3173 17.9977 35.5093 17.8057 35.648C17.619 35.7867 17.387 35.856 17.1097 35.856ZM17.1017 35.352C17.299 35.352 17.459 35.264 17.5817 35.088C17.7097 34.9067 17.7737 34.6213 17.7737 34.232C17.7737 33.8427 17.7097 33.5573 17.5817 33.376C17.459 33.1947 17.299 33.104 17.1017 33.104C16.9044 33.104 16.7444 33.1947 16.6217 33.376C16.499 33.5573 16.4377 33.8427 16.4377 34.232C16.4377 34.6213 16.499 34.9067 16.6217 35.088C16.7444 35.264 16.9044 35.352 17.1017 35.352ZM21.3257 38.048C21.0484 38.048 20.8137 37.9787 20.6217 37.84C20.4297 37.7013 20.283 37.5093 20.1817 37.264C20.0857 37.0187 20.0377 36.7387 20.0377 36.424C20.0377 36.1093 20.0857 35.8293 20.1817 35.584C20.283 35.3387 20.4297 35.1467 20.6217 35.008C20.8137 34.8693 21.0484 34.8 21.3257 34.8C21.6084 34.8 21.843 34.8693 22.0297 35.008C22.2217 35.1467 22.3657 35.3387 22.4617 35.584C22.563 35.8293 22.6137 36.1093 22.6137 36.424C22.6137 36.7387 22.563 37.0187 22.4617 37.264C22.3657 37.5093 22.2217 37.7013 22.0297 37.84C21.843 37.9787 21.6084 38.048 21.3257 38.048ZM21.3257 37.544C21.523 37.544 21.683 37.456 21.8057 37.28C21.9337 37.0987 21.9977 36.8133 21.9977 36.424C21.9977 36.0347 21.9337 35.7493 21.8057 35.568C21.683 35.3867 21.523 35.296 21.3257 35.296C21.1284 35.296 20.9684 35.3867 20.8457 35.568C20.723 35.7493 20.6617 36.0347 20.6617 36.424C20.6617 36.8133 20.723 37.0987 20.8457 37.28C20.9684 37.456 21.1284 37.544 21.3257 37.544Z" fill="#747FA6"/>
<path d="M8.43231 13V11.744H5.71231V10.952L8.35231 7.656H9.20831V11.096H9.91231V11.744H9.20831V13H8.43231ZM6.40031 11.096H8.43231V8.512L6.40031 11.096ZM12.8649 13.08C12.3955 13.08 11.9982 12.9627 11.6729 12.728C11.3475 12.488 11.1022 12.1627 10.9369 11.752C10.7715 11.336 10.6889 10.8613 10.6889 10.328C10.6889 9.79467 10.7715 9.32267 10.9369 8.912C11.1022 8.496 11.3475 8.17067 11.6729 7.936C11.9982 7.696 12.3955 7.576 12.8649 7.576C13.3395 7.576 13.7369 7.696 14.0569 7.936C14.3822 8.17067 14.6275 8.496 14.7929 8.912C14.9635 9.32267 15.0489 9.79467 15.0489 10.328C15.0489 10.8613 14.9635 11.336 14.7929 11.752C14.6275 12.1627 14.3822 12.488 14.0569 12.728C13.7369 12.9627 13.3395 13.08 12.8649 13.08ZM12.8649 12.416C13.1315 12.416 13.3662 12.3413 13.5689 12.192C13.7769 12.0373 13.9369 11.8053 14.0489 11.496C14.1662 11.1867 14.2249 10.7973 14.2249 10.328C14.2249 9.85333 14.1662 9.46133 14.0489 9.152C13.9369 8.84267 13.7769 8.61333 13.5689 8.464C13.3662 8.30933 13.1315 8.232 12.8649 8.232C12.6035 8.232 12.3689 8.30933 12.1609 8.464C11.9582 8.61867 11.7982 8.85067 11.6809 9.16C11.5635 9.464 11.5049 9.85333 11.5049 10.328C11.5049 10.7973 11.5635 11.1867 11.6809 11.496C11.7982 11.8053 11.9582 12.0373 12.1609 12.192C12.3689 12.3413 12.6035 12.416 12.8649 12.416ZM17.4937 13L20.3337 7.656H20.9337L18.1017 13H17.4937ZM17.1097 10.856C16.8324 10.856 16.5977 10.7867 16.4057 10.648C16.2137 10.5093 16.067 10.3173 15.9657 10.072C15.8697 9.82667 15.8217 9.54667 15.8217 9.232C15.8217 8.91733 15.8697 8.63733 15.9657 8.392C16.067 8.14667 16.2137 7.95467 16.4057 7.816C16.5977 7.67733 16.8324 7.608 17.1097 7.608C17.387 7.608 17.619 7.67733 17.8057 7.816C17.9977 7.95467 18.1417 8.14667 18.2377 8.392C18.339 8.63733 18.3897 8.91733 18.3897 9.232C18.3897 9.54667 18.339 9.82667 18.2377 10.072C18.1417 10.3173 17.9977 10.5093 17.8057 10.648C17.619 10.7867 17.387 10.856 17.1097 10.856ZM17.1017 10.352C17.299 10.352 17.459 10.264 17.5817 10.088C17.7097 9.90667 17.7737 9.62133 17.7737 9.232C17.7737 8.84267 17.7097 8.55733 17.5817 8.376C17.459 8.19467 17.299 8.104 17.1017 8.104C16.9044 8.104 16.7444 8.19467 16.6217 8.376C16.499 8.55733 16.4377 8.84267 16.4377 9.232C16.4377 9.62133 16.499 9.90667 16.6217 10.088C16.7444 10.264 16.9044 10.352 17.1017 10.352ZM21.3257 13.048C21.0484 13.048 20.8137 12.9787 20.6217 12.84C20.4297 12.7013 20.283 12.5093 20.1817 12.264C20.0857 12.0187 20.0377 11.7387 20.0377 11.424C20.0377 11.1093 20.0857 10.8293 20.1817 10.584C20.283 10.3387 20.4297 10.1467 20.6217 10.008C20.8137 9.86933 21.0484 9.8 21.3257 9.8C21.6084 9.8 21.843 9.86933 22.0297 10.008C22.2217 10.1467 22.3657 10.3387 22.4617 10.584C22.563 10.8293 22.6137 11.1093 22.6137 11.424C22.6137 11.7387 22.563 12.0187 22.4617 12.264C22.3657 12.5093 22.2217 12.7013 22.0297 12.84C21.843 12.9787 21.6084 13.048 21.3257 13.048ZM21.3257 12.544C21.523 12.544 21.683 12.456 21.8057 12.28C21.9337 12.0987 21.9977 11.8133 21.9977 11.424C21.9977 11.0347 21.9337 10.7493 21.8057 10.568C21.683 10.3867 21.523 10.296 21.3257 10.296C21.1284 10.296 20.9684 10.3867 20.8457 10.568C20.723 10.7493 20.6617 11.0347 20.6617 11.424C20.6617 11.8133 20.723 12.0987 20.8457 12.28C20.9684 12.456 21.1284 12.544 21.3257 12.544Z" fill="#747FA6"/>
<path opacity="0.05" d="M28.5 13.25V72H106.5V31L93.5 42.5L81 56.5L67.5 33.5L54.5 21.5L41.5 56.5L28.5 13.25Z" fill="#C75E4B"/>
<rect x="25" y="20" width="7" height="42" rx="2" fill="#344786"/>
<rect x="38" y="63" width="7" height="9" rx="2" fill="#344786"/>
<rect x="51" y="28" width="7" height="34" rx="2" fill="#344786"/>
<rect x="64" y="40" width="7" height="22" rx="2" fill="#344786"/>
<rect x="77" y="63" width="7" height="9" rx="2" fill="#344786"/>
<rect x="103" y="38" width="7" height="24" rx="2" fill="#344786"/>
<rect x="90" y="49" width="7" height="12" rx="2" fill="#344786"/>
<path d="M106.5 31.5L93.5 42.5L80.5 56.5L67.5 33.5C64 30 55 23 54.5 21.5L41.5 56.5L28.5 13.5" stroke="#C75E4B" stroke-width="0.8" stroke-linecap="round"/>
<g filter="url(#filter0_d_3311_5897)">
<circle cx="28.5" cy="13.5" r="2.5" fill="white"/>
<circle cx="28.5" cy="13.5" r="1.75" stroke="#C75E4B" stroke-width="1.5"/>
</g>
<g filter="url(#filter1_d_3311_5897)">
<circle cx="41.5" cy="56.5" r="2.5" fill="white"/>
<circle cx="41.5" cy="56.5" r="1.75" stroke="#C75E4B" stroke-width="1.5"/>
</g>
<g filter="url(#filter2_d_3311_5897)">
<circle cx="54.5" cy="21.5" r="2.5" fill="white"/>
<circle cx="54.5" cy="21.5" r="1.75" stroke="#C75E4B" stroke-width="1.5"/>
</g>
<g filter="url(#filter3_d_3311_5897)">
<circle cx="67.5" cy="33.5" r="2.5" fill="white"/>
<circle cx="67.5" cy="33.5" r="1.75" stroke="#C75E4B" stroke-width="1.5"/>
</g>
<g filter="url(#filter4_d_3311_5897)">
<circle cx="80.5" cy="56.5" r="2.5" fill="white"/>
<circle cx="80.5" cy="56.5" r="1.75" stroke="#C75E4B" stroke-width="1.5"/>
</g>
<g filter="url(#filter5_d_3311_5897)">
<circle cx="93.5" cy="42.5" r="2.5" fill="white"/>
<circle cx="93.5" cy="42.5" r="1.75" stroke="#C75E4B" stroke-width="1.5"/>
</g>
<g filter="url(#filter6_d_3311_5897)">
<circle cx="106.5" cy="31.5" r="2.5" fill="white"/>
<circle cx="106.5" cy="31.5" r="1.75" stroke="#C75E4B" stroke-width="1.5"/>
</g>
<rect x="78" y="81" width="32" height="17" rx="5" fill="#261D39"/>
<rect x="78.5" y="81.5" width="31" height="16" rx="4.5" stroke="#C75E4B" stroke-opacity="0.1"/>
<path d="M83 93L90.8896 85.1104C90.9545 85.0455 91.0552 85.0331 91.1339 85.0803L95.9242 87.9545C95.9725 87.9835 96.0307 87.9908 96.0846 87.9746L100.894 86.5318C100.96 86.512 101.031 86.5275 101.083 86.5728L105 90" stroke="#C75E4B" stroke-linecap="round"/>
<rect x="5" y="81" width="69" height="17" rx="5" fill="#261D39"/>
<rect x="5.5" y="81.5" width="68" height="16" rx="4.5" stroke="#C75E4B" stroke-opacity="0.1"/>
<path d="M9.79 93V86.32H14.41V87.18H10.79V89.15H14.11V89.97H10.79V93H9.79ZM17.3196 93.1C16.7796 93.1 16.3563 92.9467 16.0496 92.64C15.7496 92.3333 15.5996 91.8533 15.5996 91.2V88.3H16.5396V91.08C16.5396 91.5 16.6229 91.8067 16.7896 92C16.9629 92.1867 17.2229 92.28 17.5696 92.28C17.9829 92.28 18.2996 92.14 18.5196 91.86C18.7463 91.58 18.8596 91.1967 18.8596 90.71V88.3H19.7996V93H18.8996V92.3C18.7596 92.5467 18.5563 92.7433 18.2896 92.89C18.0229 93.03 17.6996 93.1 17.3196 93.1ZM21.3027 93V88.3H22.2027V89C22.3427 88.7533 22.5461 88.56 22.8127 88.42C23.0794 88.2733 23.4027 88.2 23.7827 88.2C24.3227 88.2 24.7427 88.3533 25.0427 88.66C25.3494 88.9667 25.5027 89.4467 25.5027 90.1V93H24.5627V90.22C24.5627 89.8 24.4761 89.4967 24.3027 89.31C24.1361 89.1167 23.8794 89.02 23.5327 89.02C23.1194 89.02 22.7994 89.16 22.5727 89.44C22.3527 89.72 22.2427 90.1033 22.2427 90.59V93H21.3027ZM28.9959 93.1C28.5692 93.1 28.1859 93 27.8459 92.8C27.5059 92.6 27.2359 92.3167 27.0359 91.95C26.8425 91.5833 26.7459 91.15 26.7459 90.65C26.7459 90.1433 26.8425 89.71 27.0359 89.35C27.2359 88.9833 27.5059 88.7 27.8459 88.5C28.1859 88.3 28.5692 88.2 28.9959 88.2C29.3692 88.2 29.6959 88.2733 29.9759 88.42C30.2559 88.56 30.4725 88.75 30.6259 88.99V86.32H31.5659V93H30.6659V92.25C30.5192 92.5033 30.3025 92.71 30.0159 92.87C29.7292 93.0233 29.3892 93.1 28.9959 93.1ZM29.1859 92.28C29.4792 92.28 29.7359 92.2133 29.9559 92.08C30.1759 91.9467 30.3492 91.76 30.4759 91.52C30.6025 91.2733 30.6659 90.9833 30.6659 90.65C30.6659 90.3167 30.6025 90.03 30.4759 89.79C30.3492 89.5433 30.1759 89.3533 29.9559 89.22C29.7359 89.0867 29.4825 89.02 29.1959 89.02C28.9025 89.02 28.6425 89.0867 28.4159 89.22C28.1959 89.3533 28.0225 89.5433 27.8959 89.79C27.7759 90.03 27.7159 90.3167 27.7159 90.65C27.7159 90.9833 27.7792 91.2733 27.9059 91.52C28.0325 91.76 28.2059 91.9467 28.4259 92.08C28.6459 92.2133 28.8992 92.28 29.1859 92.28ZM33.0703 93V88.3H34.0103V93H33.0703ZM33.5303 87.33C33.3636 87.33 33.227 87.28 33.1203 87.18C33.0203 87.08 32.9703 86.95 32.9703 86.79C32.9703 86.63 33.0203 86.5033 33.1203 86.41C33.227 86.31 33.3636 86.26 33.5303 86.26C33.7036 86.26 33.8436 86.31 33.9503 86.41C34.057 86.5033 34.1103 86.63 34.1103 86.79C34.1103 86.95 34.057 87.08 33.9503 87.18C33.8436 87.28 33.7036 87.33 33.5303 87.33ZM35.502 93V88.3H36.402V89C36.542 88.7533 36.7453 88.56 37.012 88.42C37.2786 88.2733 37.602 88.2 37.982 88.2C38.522 88.2 38.942 88.3533 39.242 88.66C39.5486 88.9667 39.702 89.4467 39.702 90.1V93H38.762V90.22C38.762 89.8 38.6753 89.4967 38.502 89.31C38.3353 89.1167 38.0786 89.02 37.732 89.02C37.3186 89.02 36.9986 89.16 36.772 89.44C36.552 89.72 36.442 90.1033 36.442 90.59V93H35.502ZM43.2551 94.92C42.8684 94.92 42.5017 94.86 42.1551 94.74C41.8151 94.62 41.4917 94.4267 41.1851 94.16L41.5251 93.47C41.8251 93.7033 42.1117 93.8667 42.3851 93.96C42.6651 94.0533 42.9384 94.1 43.2051 94.1C43.7117 94.1 44.1084 93.9633 44.3951 93.69C44.6817 93.4167 44.8251 93.0133 44.8251 92.48V92.06C44.6717 92.2733 44.4551 92.45 44.1751 92.59C43.9017 92.73 43.5751 92.8 43.1951 92.8C42.7951 92.8 42.4217 92.71 42.0751 92.53C41.7351 92.35 41.4617 92.09 41.2551 91.75C41.0484 91.4033 40.9451 90.9867 40.9451 90.5C40.9451 90.0133 41.0484 89.6 41.2551 89.26C41.4617 88.9133 41.7351 88.65 42.0751 88.47C42.4217 88.29 42.7951 88.2 43.1951 88.2C43.5951 88.2 43.9351 88.28 44.2151 88.44C44.5017 88.5933 44.7184 88.78 44.8651 89V88.3H45.7651V92.34C45.7651 92.8933 45.6651 93.36 45.4651 93.74C45.2651 94.1267 44.9784 94.42 44.6051 94.62C44.2317 94.82 43.7817 94.92 43.2551 94.92ZM43.3851 91.99C43.6584 91.99 43.9051 91.9333 44.1251 91.82C44.3451 91.7067 44.5217 91.54 44.6551 91.32C44.7884 91.1 44.8551 90.8267 44.8551 90.5C44.8551 90.1733 44.7884 89.9 44.6551 89.68C44.5217 89.46 44.3451 89.2933 44.1251 89.18C43.9051 89.0667 43.6584 89.01 43.3851 89.01C43.1184 89.01 42.8717 89.0667 42.6451 89.18C42.4251 89.2933 42.2484 89.46 42.1151 89.68C41.9817 89.9 41.9151 90.1733 41.9151 90.5C41.9151 90.8267 41.9817 91.1 42.1151 91.32C42.2484 91.54 42.4251 91.7067 42.6451 91.82C42.8717 91.9333 43.1184 91.99 43.3851 91.99ZM49.7216 93V86.32H52.3816C53.175 86.32 53.7816 86.4833 54.2016 86.81C54.6283 87.1367 54.8416 87.6367 54.8416 88.31C54.8416 88.8767 54.6916 89.3133 54.3916 89.62C54.0983 89.9267 53.675 90.1267 53.1216 90.22L55.1816 93H54.0116L52.0716 90.29H50.7216V93H49.7216ZM50.7216 89.47H52.1916C52.745 89.47 53.155 89.3833 53.4216 89.21C53.695 89.03 53.8316 88.7333 53.8316 88.32C53.8316 87.8933 53.7016 87.5933 53.4416 87.42C53.1883 87.2467 52.7716 87.16 52.1916 87.16H50.7216V89.47ZM57.5779 93.1C57.2312 93.1 56.9246 93.0467 56.6579 92.94C56.3979 92.8267 56.1946 92.6667 56.0479 92.46C55.9012 92.2467 55.8279 91.9933 55.8279 91.7C55.8279 91.4 55.9012 91.15 56.0479 90.95C56.1946 90.75 56.4012 90.5933 56.6679 90.48C56.9346 90.3667 57.2379 90.29 57.5779 90.25L59.2379 90.04C59.1979 89.6867 59.0646 89.4267 58.8379 89.26C58.6112 89.0933 58.3312 89.01 57.9979 89.01C57.7712 89.01 57.5346 89.0567 57.2879 89.15C57.0479 89.2367 56.7912 89.3767 56.5179 89.57L56.1679 88.86C56.4279 88.6533 56.7146 88.4933 57.0279 88.38C57.3412 88.26 57.6679 88.2 58.0079 88.2C58.7279 88.2 59.2712 88.3633 59.6379 88.69C60.0046 89.0167 60.1879 89.5 60.1879 90.14V93H59.2879V92.32C59.1146 92.58 58.8812 92.7767 58.5879 92.91C58.3012 93.0367 57.9646 93.1 57.5779 93.1ZM57.7979 92.31C58.1112 92.31 58.3746 92.2467 58.5879 92.12C58.8079 91.9933 58.9712 91.8267 59.0779 91.62C59.1912 91.4133 59.2479 91.1967 59.2479 90.97V90.76L57.8479 90.94C57.5012 90.9867 57.2379 91.0633 57.0579 91.17C56.8779 91.27 56.7879 91.4333 56.7879 91.66C56.7879 91.8667 56.8746 92.0267 57.0479 92.14C57.2279 92.2533 57.4779 92.31 57.7979 92.31ZM63.1846 93.06C62.6979 93.06 62.3346 92.9467 62.0946 92.72C61.8613 92.4867 61.7446 92.1267 61.7446 91.64V89.1H60.7146V88.3H61.7446V86.96H62.6846V88.3H63.9046V89.1H62.6846V91.56C62.6846 91.7933 62.7413 91.97 62.8546 92.09C62.9679 92.2033 63.1413 92.26 63.3746 92.26C63.4546 92.26 63.5479 92.2567 63.6546 92.25C63.7613 92.2433 63.8446 92.2333 63.9046 92.22V92.98C63.8179 93.0067 63.7079 93.0267 63.5746 93.04C63.4479 93.0533 63.3179 93.06 63.1846 93.06ZM67.283 93.1C66.8096 93.1 66.383 93.0067 66.003 92.82C65.6296 92.6267 65.333 92.35 65.113 91.99C64.893 91.6233 64.783 91.1767 64.783 90.65C64.783 90.15 64.8863 89.7167 65.093 89.35C65.3063 88.9833 65.5896 88.7 65.943 88.5C66.303 88.3 66.703 88.2 67.143 88.2C67.603 88.2 68.003 88.29 68.343 88.47C68.683 88.65 68.943 88.8933 69.123 89.2C69.3096 89.5 69.403 89.8433 69.403 90.23C69.403 90.3433 69.3863 90.4667 69.353 90.6C69.3263 90.7333 69.2896 90.84 69.243 90.92H65.743C65.7763 91.22 65.8596 91.4733 65.993 91.68C66.133 91.88 66.3196 92.0333 66.553 92.14C66.7863 92.24 67.0563 92.29 67.363 92.29C67.6696 92.29 67.9396 92.2433 68.173 92.15C68.413 92.0567 68.643 91.9267 68.863 91.76L69.203 92.45C68.943 92.6633 68.6496 92.8267 68.323 92.94C68.003 93.0467 67.6563 93.1 67.283 93.1ZM65.743 90.2H68.433C68.4396 90.18 68.443 90.1633 68.443 90.15C68.443 90.1367 68.443 90.12 68.443 90.1C68.443 89.8733 68.3963 89.68 68.303 89.52C68.2096 89.3533 68.0696 89.2233 67.883 89.13C67.6963 89.0367 67.4596 88.99 67.173 88.99C66.9396 88.99 66.723 89.04 66.523 89.14C66.3296 89.2333 66.163 89.37 66.023 89.55C65.8896 89.7233 65.7963 89.94 65.743 90.2Z" fill="#C75E4B"/>
<rect x="125" width="115" height="103" rx="5" fill="#181A3C"/>
<rect x="125.5" y="0.5" width="114" height="102" rx="4.5" stroke="url(#paint4_linear_3311_5897)" stroke-opacity="0.7"/>
<path d="M152.5 12.5L234.5 12.5" stroke="url(#paint5_linear_3311_5897)" stroke-linecap="round" stroke-dasharray="3 5"/>
<path d="M152 37.5L234 37.5" stroke="url(#paint6_linear_3311_5897)" stroke-linecap="round" stroke-dasharray="3 5"/>
<path d="M152 62.5L234 62.5" stroke="url(#paint7_linear_3311_5897)" stroke-linecap="round" stroke-dasharray="3 5"/>
<path d="M137.865 63.08C137.396 63.08 136.998 62.9627 136.673 62.728C136.348 62.488 136.102 62.1627 135.937 61.752C135.772 61.336 135.689 60.8613 135.689 60.328C135.689 59.7947 135.772 59.3227 135.937 58.912C136.102 58.496 136.348 58.1707 136.673 57.936C136.998 57.696 137.396 57.576 137.865 57.576C138.34 57.576 138.737 57.696 139.057 57.936C139.382 58.1707 139.628 58.496 139.793 58.912C139.964 59.3227 140.049 59.7947 140.049 60.328C140.049 60.8613 139.964 61.336 139.793 61.752C139.628 62.1627 139.382 62.488 139.057 62.728C138.737 62.9627 138.34 63.08 137.865 63.08ZM137.865 62.416C138.132 62.416 138.366 62.3413 138.569 62.192C138.777 62.0373 138.937 61.8053 139.049 61.496C139.166 61.1867 139.225 60.7973 139.225 60.328C139.225 59.8533 139.166 59.4613 139.049 59.152C138.937 58.8427 138.777 58.6133 138.569 58.464C138.366 58.3093 138.132 58.232 137.865 58.232C137.604 58.232 137.369 58.3093 137.161 58.464C136.958 58.6187 136.798 58.8507 136.681 59.16C136.564 59.464 136.505 59.8533 136.505 60.328C136.505 60.7973 136.564 61.1867 136.681 61.496C136.798 61.8053 136.958 62.0373 137.161 62.192C137.369 62.3413 137.604 62.416 137.865 62.416ZM142.494 63L145.334 57.656H145.934L143.102 63H142.494ZM142.11 60.856C141.832 60.856 141.598 60.7867 141.406 60.648C141.214 60.5093 141.067 60.3173 140.966 60.072C140.87 59.8267 140.822 59.5467 140.822 59.232C140.822 58.9173 140.87 58.6373 140.966 58.392C141.067 58.1467 141.214 57.9547 141.406 57.816C141.598 57.6773 141.832 57.608 142.11 57.608C142.387 57.608 142.619 57.6773 142.806 57.816C142.998 57.9547 143.142 58.1467 143.238 58.392C143.339 58.6373 143.39 58.9173 143.39 59.232C143.39 59.5467 143.339 59.8267 143.238 60.072C143.142 60.3173 142.998 60.5093 142.806 60.648C142.619 60.7867 142.387 60.856 142.11 60.856ZM142.102 60.352C142.299 60.352 142.459 60.264 142.582 60.088C142.71 59.9067 142.774 59.6213 142.774 59.232C142.774 58.8427 142.71 58.5573 142.582 58.376C142.459 58.1947 142.299 58.104 142.102 58.104C141.904 58.104 141.744 58.1947 141.622 58.376C141.499 58.5573 141.438 58.8427 141.438 59.232C141.438 59.6213 141.499 59.9067 141.622 60.088C141.744 60.264 141.904 60.352 142.102 60.352ZM146.326 63.048C146.048 63.048 145.814 62.9787 145.622 62.84C145.43 62.7013 145.283 62.5093 145.182 62.264C145.086 62.0187 145.038 61.7387 145.038 61.424C145.038 61.1093 145.086 60.8293 145.182 60.584C145.283 60.3387 145.43 60.1467 145.622 60.008C145.814 59.8693 146.048 59.8 146.326 59.8C146.608 59.8 146.843 59.8693 147.03 60.008C147.222 60.1467 147.366 60.3387 147.462 60.584C147.563 60.8293 147.614 61.1093 147.614 61.424C147.614 61.7387 147.563 62.0187 147.462 62.264C147.366 62.5093 147.222 62.7013 147.03 62.84C146.843 62.9787 146.608 63.048 146.326 63.048ZM146.326 62.544C146.523 62.544 146.683 62.456 146.806 62.28C146.934 62.0987 146.998 61.8133 146.998 61.424C146.998 61.0347 146.934 60.7493 146.806 60.568C146.683 60.3867 146.523 60.296 146.326 60.296C146.128 60.296 145.968 60.3867 145.846 60.568C145.723 60.7493 145.662 61.0347 145.662 61.424C145.662 61.8133 145.723 62.0987 145.846 62.28C145.968 62.456 146.128 62.544 146.326 62.544Z" fill="#747FA6"/>
<path d="M131.259 38V37.336L133.539 35.2C133.705 35.04 133.825 34.8827 133.899 34.728C133.974 34.5733 134.011 34.424 134.011 34.28C134.011 34.0667 133.966 33.8827 133.875 33.728C133.785 33.5733 133.659 33.4533 133.499 33.368C133.345 33.2773 133.158 33.232 132.939 33.232C132.721 33.232 132.505 33.2853 132.291 33.392C132.083 33.4987 131.841 33.6587 131.563 33.872L131.259 33.296C131.537 33.0453 131.814 32.864 132.091 32.752C132.369 32.6347 132.662 32.576 132.971 32.576C133.334 32.576 133.654 32.6453 133.931 32.784C134.214 32.9173 134.435 33.112 134.595 33.368C134.755 33.624 134.835 33.928 134.835 34.28C134.835 34.504 134.774 34.7307 134.651 34.96C134.529 35.184 134.318 35.432 134.019 35.704L132.283 37.336H134.915V38H131.259ZM137.865 38.08C137.396 38.08 136.998 37.9627 136.673 37.728C136.348 37.488 136.102 37.1627 135.937 36.752C135.772 36.336 135.689 35.8613 135.689 35.328C135.689 34.7947 135.772 34.3227 135.937 33.912C136.102 33.496 136.348 33.1707 136.673 32.936C136.998 32.696 137.396 32.576 137.865 32.576C138.34 32.576 138.737 32.696 139.057 32.936C139.382 33.1707 139.628 33.496 139.793 33.912C139.964 34.3227 140.049 34.7947 140.049 35.328C140.049 35.8613 139.964 36.336 139.793 36.752C139.628 37.1627 139.382 37.488 139.057 37.728C138.737 37.9627 138.34 38.08 137.865 38.08ZM137.865 37.416C138.132 37.416 138.366 37.3413 138.569 37.192C138.777 37.0373 138.937 36.8053 139.049 36.496C139.166 36.1867 139.225 35.7973 139.225 35.328C139.225 34.8533 139.166 34.4613 139.049 34.152C138.937 33.8427 138.777 33.6133 138.569 33.464C138.366 33.3093 138.132 33.232 137.865 33.232C137.604 33.232 137.369 33.3093 137.161 33.464C136.958 33.6187 136.798 33.8507 136.681 34.16C136.564 34.464 136.505 34.8533 136.505 35.328C136.505 35.7973 136.564 36.1867 136.681 36.496C136.798 36.8053 136.958 37.0373 137.161 37.192C137.369 37.3413 137.604 37.416 137.865 37.416ZM142.494 38L145.334 32.656H145.934L143.102 38H142.494ZM142.11 35.856C141.832 35.856 141.598 35.7867 141.406 35.648C141.214 35.5093 141.067 35.3173 140.966 35.072C140.87 34.8267 140.822 34.5467 140.822 34.232C140.822 33.9173 140.87 33.6373 140.966 33.392C141.067 33.1467 141.214 32.9547 141.406 32.816C141.598 32.6773 141.832 32.608 142.11 32.608C142.387 32.608 142.619 32.6773 142.806 32.816C142.998 32.9547 143.142 33.1467 143.238 33.392C143.339 33.6373 143.39 33.9173 143.39 34.232C143.39 34.5467 143.339 34.8267 143.238 35.072C143.142 35.3173 142.998 35.5093 142.806 35.648C142.619 35.7867 142.387 35.856 142.11 35.856ZM142.102 35.352C142.299 35.352 142.459 35.264 142.582 35.088C142.71 34.9067 142.774 34.6213 142.774 34.232C142.774 33.8427 142.71 33.5573 142.582 33.376C142.459 33.1947 142.299 33.104 142.102 33.104C141.904 33.104 141.744 33.1947 141.622 33.376C141.499 33.5573 141.438 33.8427 141.438 34.232C141.438 34.6213 141.499 34.9067 141.622 35.088C141.744 35.264 141.904 35.352 142.102 35.352ZM146.326 38.048C146.048 38.048 145.814 37.9787 145.622 37.84C145.43 37.7013 145.283 37.5093 145.182 37.264C145.086 37.0187 145.038 36.7387 145.038 36.424C145.038 36.1093 145.086 35.8293 145.182 35.584C145.283 35.3387 145.43 35.1467 145.622 35.008C145.814 34.8693 146.048 34.8 146.326 34.8C146.608 34.8 146.843 34.8693 147.03 35.008C147.222 35.1467 147.366 35.3387 147.462 35.584C147.563 35.8293 147.614 36.1093 147.614 36.424C147.614 36.7387 147.563 37.0187 147.462 37.264C147.366 37.5093 147.222 37.7013 147.03 37.84C146.843 37.9787 146.608 38.048 146.326 38.048ZM146.326 37.544C146.523 37.544 146.683 37.456 146.806 37.28C146.934 37.0987 146.998 36.8133 146.998 36.424C146.998 36.0347 146.934 35.7493 146.806 35.568C146.683 35.3867 146.523 35.296 146.326 35.296C146.128 35.296 145.968 35.3867 145.846 35.568C145.723 35.7493 145.662 36.0347 145.662 36.424C145.662 36.8133 145.723 37.0987 145.846 37.28C145.968 37.456 146.128 37.544 146.326 37.544Z" fill="#747FA6"/>
<path d="M133.432 13V11.744H130.712V10.952L133.352 7.656H134.208V11.096H134.912V11.744H134.208V13H133.432ZM131.4 11.096H133.432V8.512L131.4 11.096ZM137.865 13.08C137.396 13.08 136.998 12.9627 136.673 12.728C136.348 12.488 136.102 12.1627 135.937 11.752C135.772 11.336 135.689 10.8613 135.689 10.328C135.689 9.79467 135.772 9.32267 135.937 8.912C136.102 8.496 136.348 8.17067 136.673 7.936C136.998 7.696 137.396 7.576 137.865 7.576C138.34 7.576 138.737 7.696 139.057 7.936C139.382 8.17067 139.628 8.496 139.793 8.912C139.964 9.32267 140.049 9.79467 140.049 10.328C140.049 10.8613 139.964 11.336 139.793 11.752C139.628 12.1627 139.382 12.488 139.057 12.728C138.737 12.9627 138.34 13.08 137.865 13.08ZM137.865 12.416C138.132 12.416 138.366 12.3413 138.569 12.192C138.777 12.0373 138.937 11.8053 139.049 11.496C139.166 11.1867 139.225 10.7973 139.225 10.328C139.225 9.85333 139.166 9.46133 139.049 9.152C138.937 8.84267 138.777 8.61333 138.569 8.464C138.366 8.30933 138.132 8.232 137.865 8.232C137.604 8.232 137.369 8.30933 137.161 8.464C136.958 8.61867 136.798 8.85067 136.681 9.16C136.564 9.464 136.505 9.85333 136.505 10.328C136.505 10.7973 136.564 11.1867 136.681 11.496C136.798 11.8053 136.958 12.0373 137.161 12.192C137.369 12.3413 137.604 12.416 137.865 12.416ZM142.494 13L145.334 7.656H145.934L143.102 13H142.494ZM142.11 10.856C141.832 10.856 141.598 10.7867 141.406 10.648C141.214 10.5093 141.067 10.3173 140.966 10.072C140.87 9.82667 140.822 9.54667 140.822 9.232C140.822 8.91733 140.87 8.63733 140.966 8.392C141.067 8.14667 141.214 7.95467 141.406 7.816C141.598 7.67733 141.832 7.608 142.11 7.608C142.387 7.608 142.619 7.67733 142.806 7.816C142.998 7.95467 143.142 8.14667 143.238 8.392C143.339 8.63733 143.39 8.91733 143.39 9.232C143.39 9.54667 143.339 9.82667 143.238 10.072C143.142 10.3173 142.998 10.5093 142.806 10.648C142.619 10.7867 142.387 10.856 142.11 10.856ZM142.102 10.352C142.299 10.352 142.459 10.264 142.582 10.088C142.71 9.90667 142.774 9.62133 142.774 9.232C142.774 8.84267 142.71 8.55733 142.582 8.376C142.459 8.19467 142.299 8.104 142.102 8.104C141.904 8.104 141.744 8.19467 141.622 8.376C141.499 8.55733 141.438 8.84267 141.438 9.232C141.438 9.62133 141.499 9.90667 141.622 10.088C141.744 10.264 141.904 10.352 142.102 10.352ZM146.326 13.048C146.048 13.048 145.814 12.9787 145.622 12.84C145.43 12.7013 145.283 12.5093 145.182 12.264C145.086 12.0187 145.038 11.7387 145.038 11.424C145.038 11.1093 145.086 10.8293 145.182 10.584C145.283 10.3387 145.43 10.1467 145.622 10.008C145.814 9.86933 146.048 9.8 146.326 9.8C146.608 9.8 146.843 9.86933 147.03 10.008C147.222 10.1467 147.366 10.3387 147.462 10.584C147.563 10.8293 147.614 11.1093 147.614 11.424C147.614 11.7387 147.563 12.0187 147.462 12.264C147.366 12.5093 147.222 12.7013 147.03 12.84C146.843 12.9787 146.608 13.048 146.326 13.048ZM146.326 12.544C146.523 12.544 146.683 12.456 146.806 12.28C146.934 12.0987 146.998 11.8133 146.998 11.424C146.998 11.0347 146.934 10.7493 146.806 10.568C146.683 10.3867 146.523 10.296 146.326 10.296C146.128 10.296 145.968 10.3867 145.846 10.568C145.723 10.7493 145.662 11.0347 145.662 11.424C145.662 11.8133 145.723 12.0987 145.846 12.28C145.968 12.456 146.128 12.544 146.326 12.544Z" fill="#747FA6"/>
<rect x="199" y="81" width="32" height="17" rx="5" fill="#19233C"/>
<rect x="199.5" y="81.5" width="31" height="16" rx="4.5" stroke="#46956A" stroke-opacity="0.05"/>
<path d="M204 89.0952L211.816 87.5321C211.843 87.5266 211.871 87.5269 211.898 87.533L216.521 88.5601C216.554 88.5675 216.589 88.5663 216.621 88.5564L221.745 87.0194C221.787 87.0068 221.832 87.0083 221.873 87.0237L226 88.5714" stroke="#46956A" stroke-linecap="round"/>
<rect x="130" y="81" width="65" height="17" rx="5" fill="#19233C"/>
<rect x="130.5" y="81.5" width="64" height="16" rx="4.5" stroke="#46956A" stroke-opacity="0.05"/>
<path d="M134.79 93V86.32H137.88C138.4 86.32 138.833 86.38 139.18 86.5C139.533 86.6133 139.8 86.8 139.98 87.06C140.16 87.3133 140.25 87.6467 140.25 88.06C140.25 88.4467 140.167 88.7667 140 89.02C139.84 89.2667 139.57 89.4433 139.19 89.55C139.643 89.6567 139.967 89.8433 140.16 90.11C140.353 90.3767 140.45 90.7267 140.45 91.16C140.45 91.82 140.24 92.2933 139.82 92.58C139.4 92.86 138.753 93 137.88 93H134.79ZM135.79 92.16H137.74C138.16 92.16 138.493 92.1233 138.74 92.05C138.987 91.9767 139.163 91.86 139.27 91.7C139.377 91.54 139.43 91.3267 139.43 91.06C139.43 90.8 139.377 90.59 139.27 90.43C139.163 90.2633 138.987 90.1433 138.74 90.07C138.493 89.9967 138.16 89.96 137.74 89.96H135.79V92.16ZM135.79 89.16H137.74C138.293 89.16 138.68 89.0867 138.9 88.94C139.12 88.7933 139.23 88.5333 139.23 88.16C139.23 87.7867 139.12 87.5267 138.9 87.38C138.68 87.2333 138.293 87.16 137.74 87.16H135.79V89.16ZM143.893 93.1C143.413 93.1 142.987 93 142.613 92.8C142.24 92.5933 141.95 92.3067 141.743 91.94C141.537 91.5733 141.433 91.1433 141.433 90.65C141.433 90.1567 141.537 89.7267 141.743 89.36C141.95 88.9933 142.24 88.71 142.613 88.51C142.987 88.3033 143.413 88.2 143.893 88.2C144.38 88.2 144.807 88.3033 145.173 88.51C145.547 88.71 145.837 88.9933 146.043 89.36C146.25 89.7267 146.353 90.1567 146.353 90.65C146.353 91.1433 146.25 91.5733 146.043 91.94C145.837 92.3067 145.547 92.5933 145.173 92.8C144.807 93 144.38 93.1 143.893 93.1ZM143.893 92.28C144.193 92.28 144.457 92.2133 144.683 92.08C144.91 91.9467 145.083 91.76 145.203 91.52C145.33 91.2733 145.393 90.9833 145.393 90.65C145.393 90.3167 145.33 90.03 145.203 89.79C145.083 89.5433 144.91 89.3533 144.683 89.22C144.457 89.0867 144.193 89.02 143.893 89.02C143.593 89.02 143.33 89.0867 143.103 89.22C142.877 89.3533 142.7 89.5433 142.573 89.79C142.453 90.03 142.393 90.3167 142.393 90.65C142.393 90.9833 142.453 91.2733 142.573 91.52C142.7 91.76 142.877 91.9467 143.103 92.08C143.33 92.2133 143.593 92.28 143.893 92.28ZM147.592 93V88.3H148.492V89.13C148.618 88.8367 148.795 88.6167 149.022 88.47C149.255 88.3167 149.515 88.24 149.802 88.24C149.895 88.24 149.978 88.2467 150.052 88.26C150.132 88.2667 150.192 88.28 150.232 88.3V89.19C150.145 89.17 150.055 89.1567 149.962 89.15C149.875 89.1367 149.788 89.13 149.702 89.13C149.368 89.13 149.088 89.27 148.862 89.55C148.642 89.8233 148.532 90.2167 148.532 90.73V93H147.592ZM151.303 93V88.3H152.203V89.13C152.329 88.8367 152.506 88.6167 152.733 88.47C152.966 88.3167 153.226 88.24 153.513 88.24C153.606 88.24 153.689 88.2467 153.763 88.26C153.843 88.2667 153.903 88.28 153.943 88.3V89.19C153.856 89.17 153.766 89.1567 153.673 89.15C153.586 89.1367 153.499 89.13 153.413 89.13C153.079 89.13 152.799 89.27 152.573 89.55C152.353 89.8233 152.243 90.2167 152.243 90.73V93H151.303ZM156.901 93.1C156.421 93.1 155.995 93 155.621 92.8C155.248 92.5933 154.958 92.3067 154.751 91.94C154.545 91.5733 154.441 91.1433 154.441 90.65C154.441 90.1567 154.545 89.7267 154.751 89.36C154.958 88.9933 155.248 88.71 155.621 88.51C155.995 88.3033 156.421 88.2 156.901 88.2C157.388 88.2 157.815 88.3033 158.181 88.51C158.555 88.71 158.845 88.9933 159.051 89.36C159.258 89.7267 159.361 90.1567 159.361 90.65C159.361 91.1433 159.258 91.5733 159.051 91.94C158.845 92.3067 158.555 92.5933 158.181 92.8C157.815 93 157.388 93.1 156.901 93.1ZM156.901 92.28C157.201 92.28 157.465 92.2133 157.691 92.08C157.918 91.9467 158.091 91.76 158.211 91.52C158.338 91.2733 158.401 90.9833 158.401 90.65C158.401 90.3167 158.338 90.03 158.211 89.79C158.091 89.5433 157.918 89.3533 157.691 89.22C157.465 89.0867 157.201 89.02 156.901 89.02C156.601 89.02 156.338 89.0867 156.111 89.22C155.885 89.3533 155.708 89.5433 155.581 89.79C155.461 90.03 155.401 90.3167 155.401 90.65C155.401 90.9833 155.461 91.2733 155.581 91.52C155.708 91.76 155.885 91.9467 156.111 92.08C156.338 92.2133 156.601 92.28 156.901 92.28ZM161.33 93L159.68 88.3H160.69L161.81 91.82L162.99 88.3H163.87L165.04 91.82L166.17 88.3H167.18L165.52 93H164.6L163.43 89.5L162.26 93H161.33ZM170.64 93V86.32H173.3C174.093 86.32 174.7 86.4833 175.12 86.81C175.546 87.1367 175.76 87.6367 175.76 88.31C175.76 88.8767 175.61 89.3133 175.31 89.62C175.016 89.9267 174.593 90.1267 174.04 90.22L176.1 93H174.93L172.99 90.29H171.64V93H170.64ZM171.64 89.47H173.11C173.663 89.47 174.073 89.3833 174.34 89.21C174.613 89.03 174.75 88.7333 174.75 88.32C174.75 87.8933 174.62 87.5933 174.36 87.42C174.106 87.2467 173.69 87.16 173.11 87.16H171.64V89.47ZM178.496 93.1C178.149 93.1 177.843 93.0467 177.576 92.94C177.316 92.8267 177.113 92.6667 176.966 92.46C176.819 92.2467 176.746 91.9933 176.746 91.7C176.746 91.4 176.819 91.15 176.966 90.95C177.113 90.75 177.319 90.5933 177.586 90.48C177.853 90.3667 178.156 90.29 178.496 90.25L180.156 90.04C180.116 89.6867 179.983 89.4267 179.756 89.26C179.529 89.0933 179.249 89.01 178.916 89.01C178.689 89.01 178.453 89.0567 178.206 89.15C177.966 89.2367 177.709 89.3767 177.436 89.57L177.086 88.86C177.346 88.6533 177.633 88.4933 177.946 88.38C178.259 88.26 178.586 88.2 178.926 88.2C179.646 88.2 180.189 88.3633 180.556 88.69C180.923 89.0167 181.106 89.5 181.106 90.14V93H180.206V92.32C180.033 92.58 179.799 92.7767 179.506 92.91C179.219 93.0367 178.883 93.1 178.496 93.1ZM178.716 92.31C179.029 92.31 179.293 92.2467 179.506 92.12C179.726 91.9933 179.889 91.8267 179.996 91.62C180.109 91.4133 180.166 91.1967 180.166 90.97V90.76L178.766 90.94C178.419 90.9867 178.156 91.0633 177.976 91.17C177.796 91.27 177.706 91.4333 177.706 91.66C177.706 91.8667 177.793 92.0267 177.966 92.14C178.146 92.2533 178.396 92.31 178.716 92.31ZM184.103 93.06C183.616 93.06 183.253 92.9467 183.013 92.72C182.779 92.4867 182.663 92.1267 182.663 91.64V89.1H181.633V88.3H182.663V86.96H183.603V88.3H184.823V89.1H183.603V91.56C183.603 91.7933 183.659 91.97 183.773 92.09C183.886 92.2033 184.059 92.26 184.293 92.26C184.373 92.26 184.466 92.2567 184.573 92.25C184.679 92.2433 184.763 92.2333 184.823 92.22V92.98C184.736 93.0067 184.626 93.0267 184.493 93.04C184.366 93.0533 184.236 93.06 184.103 93.06ZM188.201 93.1C187.728 93.1 187.301 93.0067 186.921 92.82C186.548 92.6267 186.251 92.35 186.031 91.99C185.811 91.6233 185.701 91.1767 185.701 90.65C185.701 90.15 185.804 89.7167 186.011 89.35C186.224 88.9833 186.508 88.7 186.861 88.5C187.221 88.3 187.621 88.2 188.061 88.2C188.521 88.2 188.921 88.29 189.261 88.47C189.601 88.65 189.861 88.8933 190.041 89.2C190.228 89.5 190.321 89.8433 190.321 90.23C190.321 90.3433 190.304 90.4667 190.271 90.6C190.244 90.7333 190.208 90.84 190.161 90.92H186.661C186.694 91.22 186.778 91.4733 186.911 91.68C187.051 91.88 187.238 92.0333 187.471 92.14C187.704 92.24 187.974 92.29 188.281 92.29C188.588 92.29 188.858 92.2433 189.091 92.15C189.331 92.0567 189.561 91.9267 189.781 91.76L190.121 92.45C189.861 92.6633 189.568 92.8267 189.241 92.94C188.921 93.0467 188.574 93.1 188.201 93.1ZM186.661 90.2H189.351C189.358 90.18 189.361 90.1633 189.361 90.15C189.361 90.1367 189.361 90.12 189.361 90.1C189.361 89.8733 189.314 89.68 189.221 89.52C189.128 89.3533 188.988 89.2233 188.801 89.13C188.614 89.0367 188.378 88.99 188.091 88.99C187.858 88.99 187.641 89.04 187.441 89.14C187.248 89.2333 187.081 89.37 186.941 89.55C186.808 89.7233 186.714 89.94 186.661 90.2Z" fill="#46956A"/>
<path opacity="0.05" d="M159.5 12.5L160 62H231.5V26.5L219.5 22.5L207.5 21.5L195.5 22.5L183.5 21.5L171.5 17.5L159.5 12.5Z" fill="#46956A"/>
<rect x="156" y="19" width="7" height="43" rx="2" fill="#344786"/>
<rect x="168" y="24" width="7" height="38" rx="2" fill="#344786"/>
<rect x="180" y="28" width="7" height="34" rx="2" fill="#344786"/>
<rect x="192" y="29" width="7" height="33" rx="2" fill="#344786"/>
<rect x="204" y="28" width="7" height="34" rx="2" fill="#344786"/>
<rect x="228" y="33" width="7" height="29" rx="2" fill="#344786"/>
<rect x="216" y="29" width="7" height="33" rx="2" fill="#344786"/>
<path d="M231.5 26.5L219.5 22.5L207.5 21.5L195.5 22.5L183.5 21.5L171.5 17.5L159.5 12.5" stroke="#46956A" stroke-width="0.8" stroke-linecap="round"/>
<g filter="url(#filter7_d_3311_5897)">
<circle cx="159.5" cy="12.5" r="2.5" fill="white"/>
<circle cx="159.5" cy="12.5" r="1.75" stroke="#46956A" stroke-width="1.5"/>
</g>
<g filter="url(#filter8_d_3311_5897)">
<circle cx="171.5" cy="17.5" r="2.5" fill="white"/>
<circle cx="171.5" cy="17.5" r="1.75" stroke="#46956A" stroke-width="1.5"/>
</g>
<g filter="url(#filter9_d_3311_5897)">
<circle cx="183.5" cy="21.5" r="2.5" fill="white"/>
<circle cx="183.5" cy="21.5" r="1.75" stroke="#46956A" stroke-width="1.5"/>
</g>
<g filter="url(#filter10_d_3311_5897)">
<circle cx="195.5" cy="22.5" r="2.5" fill="white"/>
<circle cx="195.5" cy="22.5" r="1.75" stroke="#46956A" stroke-width="1.5"/>
</g>
<g filter="url(#filter11_d_3311_5897)">
<circle cx="207.5" cy="21.5" r="2.5" fill="white"/>
<circle cx="207.5" cy="21.5" r="1.75" stroke="#46956A" stroke-width="1.5"/>
</g>
<g filter="url(#filter12_d_3311_5897)">
<circle cx="219.5" cy="22.5" r="2.5" fill="white"/>
<circle cx="219.5" cy="22.5" r="1.75" stroke="#46956A" stroke-width="1.5"/>
</g>
<g filter="url(#filter13_d_3311_5897)">
<circle cx="231.5" cy="26.5" r="2.5" fill="white"/>
<circle cx="231.5" cy="26.5" r="1.75" stroke="#46956A" stroke-width="1.5"/>
</g>
<defs>
<filter id="filter0_d_3311_5897" x="22" y="7" width="15" height="15" filterUnits="userSpaceOnUse" color-interpolation-filters="sRGB">
<feFlood flood-opacity="0" result="BackgroundImageFix"/>
<feColorMatrix in="SourceAlpha" type="matrix" values="0 0 0 0 0 0 0 0 0 0 0 0 0 0 0 0 0 0 127 0" result="hardAlpha"/>
<feOffset dx="1" dy="1"/>
<feGaussianBlur stdDeviation="2.5"/>
<feComposite in2="hardAlpha" operator="out"/>
<feColorMatrix type="matrix" values="0 0 0 0 0.0933333 0 0 0 0 0.100702 0 0 0 0 0.233333 0 0 0 0.7 0"/>
<feBlend mode="normal" in2="BackgroundImageFix" result="effect1_dropShadow_3311_5897"/>
<feBlend mode="normal" in="SourceGraphic" in2="effect1_dropShadow_3311_5897" result="shape"/>
</filter>
<filter id="filter1_d_3311_5897" x="35" y="50" width="15" height="15" filterUnits="userSpaceOnUse" color-interpolation-filters="sRGB">
<feFlood flood-opacity="0" result="BackgroundImageFix"/>
<feColorMatrix in="SourceAlpha" type="matrix" values="0 0 0 0 0 0 0 0 0 0 0 0 0 0 0 0 0 0 127 0" result="hardAlpha"/>
<feOffset dx="1" dy="1"/>
<feGaussianBlur stdDeviation="2.5"/>
<feComposite in2="hardAlpha" operator="out"/>
<feColorMatrix type="matrix" values="0 0 0 0 0.0933333 0 0 0 0 0.100702 0 0 0 0 0.233333 0 0 0 0.7 0"/>
<feBlend mode="normal" in2="BackgroundImageFix" result="effect1_dropShadow_3311_5897"/>
<feBlend mode="normal" in="SourceGraphic" in2="effect1_dropShadow_3311_5897" result="shape"/>
</filter>
<filter id="filter2_d_3311_5897" x="48" y="15" width="15" height="15" filterUnits="userSpaceOnUse" color-interpolation-filters="sRGB">
<feFlood flood-opacity="0" result="BackgroundImageFix"/>
<feColorMatrix in="SourceAlpha" type="matrix" values="0 0 0 0 0 0 0 0 0 0 0 0 0 0 0 0 0 0 127 0" result="hardAlpha"/>
<feOffset dx="1" dy="1"/>
<feGaussianBlur stdDeviation="2.5"/>
<feComposite in2="hardAlpha" operator="out"/>
<feColorMatrix type="matrix" values="0 0 0 0 0.0933333 0 0 0 0 0.100702 0 0 0 0 0.233333 0 0 0 0.7 0"/>
<feBlend mode="normal" in2="BackgroundImageFix" result="effect1_dropShadow_3311_5897"/>
<feBlend mode="normal" in="SourceGraphic" in2="effect1_dropShadow_3311_5897" result="shape"/>
</filter>
<filter id="filter3_d_3311_5897" x="61" y="27" width="15" height="15" filterUnits="userSpaceOnUse" color-interpolation-filters="sRGB">
<feFlood flood-opacity="0" result="BackgroundImageFix"/>
<feColorMatrix in="SourceAlpha" type="matrix" values="0 0 0 0 0 0 0 0 0 0 0 0 0 0 0 0 0 0 127 0" result="hardAlpha"/>
<feOffset dx="1" dy="1"/>
<feGaussianBlur stdDeviation="2.5"/>
<feComposite in2="hardAlpha" operator="out"/>
<feColorMatrix type="matrix" values="0 0 0 0 0.0933333 0 0 0 0 0.100702 0 0 0 0 0.233333 0 0 0 0.7 0"/>
<feBlend mode="normal" in2="BackgroundImageFix" result="effect1_dropShadow_3311_5897"/>
<feBlend mode="normal" in="SourceGraphic" in2="effect1_dropShadow_3311_5897" result="shape"/>
</filter>
<filter id="filter4_d_3311_5897" x="74" y="50" width="15" height="15" filterUnits="userSpaceOnUse" color-interpolation-filters="sRGB">
<feFlood flood-opacity="0" result="BackgroundImageFix"/>
<feColorMatrix in="SourceAlpha" type="matrix" values="0 0 0 0 0 0 0 0 0 0 0 0 0 0 0 0 0 0 127 0" result="hardAlpha"/>
<feOffset dx="1" dy="1"/>
<feGaussianBlur stdDeviation="2.5"/>
<feComposite in2="hardAlpha" operator="out"/>
<feColorMatrix type="matrix" values="0 0 0 0 0.0933333 0 0 0 0 0.100702 0 0 0 0 0.233333 0 0 0 0.7 0"/>
<feBlend mode="normal" in2="BackgroundImageFix" result="effect1_dropShadow_3311_5897"/>
<feBlend mode="normal" in="SourceGraphic" in2="effect1_dropShadow_3311_5897" result="shape"/>
</filter>
<filter id="filter5_d_3311_5897" x="87" y="36" width="15" height="15" filterUnits="userSpaceOnUse" color-interpolation-filters="sRGB">
<feFlood flood-opacity="0" result="BackgroundImageFix"/>
<feColorMatrix in="SourceAlpha" type="matrix" values="0 0 0 0 0 0 0 0 0 0 0 0 0 0 0 0 0 0 127 0" result="hardAlpha"/>
<feOffset dx="1" dy="1"/>
<feGaussianBlur stdDeviation="2.5"/>
<feComposite in2="hardAlpha" operator="out"/>
<feColorMatrix type="matrix" values="0 0 0 0 0.0933333 0 0 0 0 0.100702 0 0 0 0 0.233333 0 0 0 0.7 0"/>
<feBlend mode="normal" in2="BackgroundImageFix" result="effect1_dropShadow_3311_5897"/>
<feBlend mode="normal" in="SourceGraphic" in2="effect1_dropShadow_3311_5897" result="shape"/>
</filter>
<filter id="filter6_d_3311_5897" x="100" y="25" width="15" height="15" filterUnits="userSpaceOnUse" color-interpolation-filters="sRGB">
<feFlood flood-opacity="0" result="BackgroundImageFix"/>
<feColorMatrix in="SourceAlpha" type="matrix" values="0 0 0 0 0 0 0 0 0 0 0 0 0 0 0 0 0 0 127 0" result="hardAlpha"/>
<feOffset dx="1" dy="1"/>
<feGaussianBlur stdDeviation="2.5"/>
<feComposite in2="hardAlpha" operator="out"/>
<feColorMatrix type="matrix" values="0 0 0 0 0.0933333 0 0 0 0 0.100702 0 0 0 0 0.233333 0 0 0 0.7 0"/>
<feBlend mode="normal" in2="BackgroundImageFix" result="effect1_dropShadow_3311_5897"/>
<feBlend mode="normal" in="SourceGraphic" in2="effect1_dropShadow_3311_5897" result="shape"/>
</filter>
<filter id="filter7_d_3311_5897" x="153" y="6" width="15" height="15" filterUnits="userSpaceOnUse" color-interpolation-filters="sRGB">
<feFlood flood-opacity="0" result="BackgroundImageFix"/>
<feColorMatrix in="SourceAlpha" type="matrix" values="0 0 0 0 0 0 0 0 0 0 0 0 0 0 0 0 0 0 127 0" result="hardAlpha"/>
<feOffset dx="1" dy="1"/>
<feGaussianBlur stdDeviation="2.5"/>
<feComposite in2="hardAlpha" operator="out"/>
<feColorMatrix type="matrix" values="0 0 0 0 0.0933333 0 0 0 0 0.100702 0 0 0 0 0.233333 0 0 0 0.7 0"/>
<feBlend mode="normal" in2="BackgroundImageFix" result="effect1_dropShadow_3311_5897"/>
<feBlend mode="normal" in="SourceGraphic" in2="effect1_dropShadow_3311_5897" result="shape"/>
</filter>
<filter id="filter8_d_3311_5897" x="165" y="11" width="15" height="15" filterUnits="userSpaceOnUse" color-interpolation-filters="sRGB">
<feFlood flood-opacity="0" result="BackgroundImageFix"/>
<feColorMatrix in="SourceAlpha" type="matrix" values="0 0 0 0 0 0 0 0 0 0 0 0 0 0 0 0 0 0 127 0" result="hardAlpha"/>
<feOffset dx="1" dy="1"/>
<feGaussianBlur stdDeviation="2.5"/>
<feComposite in2="hardAlpha" operator="out"/>
<feColorMatrix type="matrix" values="0 0 0 0 0.0933333 0 0 0 0 0.100702 0 0 0 0 0.233333 0 0 0 0.7 0"/>
<feBlend mode="normal" in2="BackgroundImageFix" result="effect1_dropShadow_3311_5897"/>
<feBlend mode="normal" in="SourceGraphic" in2="effect1_dropShadow_3311_5897" result="shape"/>
</filter>
<filter id="filter9_d_3311_5897" x="177" y="15" width="15" height="15" filterUnits="userSpaceOnUse" color-interpolation-filters="sRGB">
<feFlood flood-opacity="0" result="BackgroundImageFix"/>
<feColorMatrix in="SourceAlpha" type="matrix" values="0 0 0 0 0 0 0 0 0 0 0 0 0 0 0 0 0 0 127 0" result="hardAlpha"/>
<feOffset dx="1" dy="1"/>
<feGaussianBlur stdDeviation="2.5"/>
<feComposite in2="hardAlpha" operator="out"/>
<feColorMatrix type="matrix" values="0 0 0 0 0.0933333 0 0 0 0 0.100702 0 0 0 0 0.233333 0 0 0 0.7 0"/>
<feBlend mode="normal" in2="BackgroundImageFix" result="effect1_dropShadow_3311_5897"/>
<feBlend mode="normal" in="SourceGraphic" in2="effect1_dropShadow_3311_5897" result="shape"/>
</filter>
<filter id="filter10_d_3311_5897" x="189" y="16" width="15" height="15" filterUnits="userSpaceOnUse" color-interpolation-filters="sRGB">
<feFlood flood-opacity="0" result="BackgroundImageFix"/>
<feColorMatrix in="SourceAlpha" type="matrix" values="0 0 0 0 0 0 0 0 0 0 0 0 0 0 0 0 0 0 127 0" result="hardAlpha"/>
<feOffset dx="1" dy="1"/>
<feGaussianBlur stdDeviation="2.5"/>
<feComposite in2="hardAlpha" operator="out"/>
<feColorMatrix type="matrix" values="0 0 0 0 0.0933333 0 0 0 0 0.100702 0 0 0 0 0.233333 0 0 0 0.7 0"/>
<feBlend mode="normal" in2="BackgroundImageFix" result="effect1_dropShadow_3311_5897"/>
<feBlend mode="normal" in="SourceGraphic" in2="effect1_dropShadow_3311_5897" result="shape"/>
</filter>
<filter id="filter11_d_3311_5897" x="201" y="15" width="15" height="15" filterUnits="userSpaceOnUse" color-interpolation-filters="sRGB">
<feFlood flood-opacity="0" result="BackgroundImageFix"/>
<feColorMatrix in="SourceAlpha" type="matrix" values="0 0 0 0 0 0 0 0 0 0 0 0 0 0 0 0 0 0 127 0" result="hardAlpha"/>
<feOffset dx="1" dy="1"/>
<feGaussianBlur stdDeviation="2.5"/>
<feComposite in2="hardAlpha" operator="out"/>
<feColorMatrix type="matrix" values="0 0 0 0 0.0933333 0 0 0 0 0.100702 0 0 0 0 0.233333 0 0 0 0.7 0"/>
<feBlend mode="normal" in2="BackgroundImageFix" result="effect1_dropShadow_3311_5897"/>
<feBlend mode="normal" in="SourceGraphic" in2="effect1_dropShadow_3311_5897" result="shape"/>
</filter>
<filter id="filter12_d_3311_5897" x="213" y="16" width="15" height="15" filterUnits="userSpaceOnUse" color-interpolation-filters="sRGB">
<feFlood flood-opacity="0" result="BackgroundImageFix"/>
<feColorMatrix in="SourceAlpha" type="matrix" values="0 0 0 0 0 0 0 0 0 0 0 0 0 0 0 0 0 0 127 0" result="hardAlpha"/>
<feOffset dx="1" dy="1"/>
<feGaussianBlur stdDeviation="2.5"/>
<feComposite in2="hardAlpha" operator="out"/>
<feColorMatrix type="matrix" values="0 0 0 0 0.0933333 0 0 0 0 0.100702 0 0 0 0 0.233333 0 0 0 0.7 0"/>
<feBlend mode="normal" in2="BackgroundImageFix" result="effect1_dropShadow_3311_5897"/>
<feBlend mode="normal" in="SourceGraphic" in2="effect1_dropShadow_3311_5897" result="shape"/>
</filter>
<filter id="filter13_d_3311_5897" x="225" y="20" width="15" height="15" filterUnits="userSpaceOnUse" color-interpolation-filters="sRGB">
<feFlood flood-opacity="0" result="BackgroundImageFix"/>
<feColorMatrix in="SourceAlpha" type="matrix" values="0 0 0 0 0 0 0 0 0 0 0 0 0 0 0 0 0 0 127 0" result="hardAlpha"/>
<feOffset dx="1" dy="1"/>
<feGaussianBlur stdDeviation="2.5"/>
<feComposite in2="hardAlpha" operator="out"/>
<feColorMatrix type="matrix" values="0 0 0 0 0.0933333 0 0 0 0 0.100702 0 0 0 0 0.233333 0 0 0 0.7 0"/>
<feBlend mode="normal" in2="BackgroundImageFix" result="effect1_dropShadow_3311_5897"/>
<feBlend mode="normal" in="SourceGraphic" in2="effect1_dropShadow_3311_5897" result="shape"/>
</filter>
<linearGradient id="paint0_linear_3311_5897" x1="-2.6662e-07" y1="-1.22376" x2="82.1674" y2="124.464" gradientUnits="userSpaceOnUse">
<stop stop-color="#384263" stop-opacity="0.25"/>
<stop offset="1" stop-color="#384263" stop-opacity="0.15"/>
</linearGradient>
<linearGradient id="paint1_linear_3311_5897" x1="27.5572" y1="12" x2="27.5572" y2="12.0003" gradientUnits="userSpaceOnUse">
<stop stop-color="#384263" stop-opacity="0.5"/>
<stop offset="0.0643559" stop-color="#384263" stop-opacity="0.490347"/>
<stop offset="1" stop-color="#384263" stop-opacity="0.35"/>
</linearGradient>
<linearGradient id="paint2_linear_3311_5897" x1="28" y1="37.2292" x2="28.0043" y2="38.1506" gradientUnits="userSpaceOnUse">
<stop stop-color="#384263" stop-opacity="0.5"/>
<stop offset="0.0643559" stop-color="#384263" stop-opacity="0.490347"/>
<stop offset="1" stop-color="#384263" stop-opacity="0.35"/>
</linearGradient>
<linearGradient id="paint3_linear_3311_5897" x1="28" y1="62.2292" x2="28.0043" y2="63.1506" gradientUnits="userSpaceOnUse">
<stop stop-color="#384263" stop-opacity="0.5"/>
<stop offset="0.0643559" stop-color="#384263" stop-opacity="0.490347"/>
<stop offset="1" stop-color="#384263" stop-opacity="0.35"/>
</linearGradient>
<linearGradient id="paint4_linear_3311_5897" x1="125" y1="-1.22376" x2="207.167" y2="124.464" gradientUnits="userSpaceOnUse">
<stop stop-color="#384263" stop-opacity="0.25"/>
<stop offset="1" stop-color="#384263" stop-opacity="0.15"/>
</linearGradient>
<linearGradient id="paint5_linear_3311_5897" x1="152.057" y1="12" x2="152.057" y2="12.0003" gradientUnits="userSpaceOnUse">
<stop stop-color="#384263" stop-opacity="0.5"/>
<stop offset="0.0643559" stop-color="#384263" stop-opacity="0.490347"/>
<stop offset="1" stop-color="#384263" stop-opacity="0.35"/>
</linearGradient>
<linearGradient id="paint6_linear_3311_5897" x1="152" y1="37.2292" x2="152.004" y2="38.1506" gradientUnits="userSpaceOnUse">
<stop stop-color="#384263" stop-opacity="0.5"/>
<stop offset="0.0643559" stop-color="#384263" stop-opacity="0.490347"/>
<stop offset="1" stop-color="#384263" stop-opacity="0.35"/>
</linearGradient>
<linearGradient id="paint7_linear_3311_5897" x1="152" y1="62.2292" x2="152.004" y2="63.1506" gradientUnits="userSpaceOnUse">
<stop stop-color="#384263" stop-opacity="0.5"/>
<stop offset="0.0643559" stop-color="#384263" stop-opacity="0.490347"/>
<stop offset="1" stop-color="#384263" stop-opacity="0.35"/>
</linearGradient>
</defs>
</svg>
