<svg width="15" height="15" viewBox="0 0 16 15" fill="none" xmlns="http://www.w3.org/2000/svg">
<circle cx="8" cy="7.5" r="7.5" fill="black"/>
<path fill-rule="evenodd" clip-rule="evenodd" d="M4.5849 4.89912C4.58683 4.89526 4.77784 4.69074 5.00938 4.44763L5.42806 4L5.51296 4.08297C5.55926 4.12927 5.75414 4.3145 5.94515 4.49587C6.03689 4.58389 6.12907 4.67148 6.20481 4.74344C6.28678 4.82132 6.3495 4.88091 6.37156 4.90298L6.45067 4.98015L6.52012 4.93771C6.55871 4.91455 6.65712 4.86053 6.74201 4.82001C7.03528 4.67337 7.32277 4.58655 7.67393 4.53638C7.82057 4.51516 8.29521 4.51902 8.45342 4.54217C8.75827 4.58655 9.02068 4.66566 9.30237 4.79493C9.39499 4.83738 9.56092 4.92806 9.62652 4.97244C9.64967 4.9898 9.67476 5.00138 9.67862 4.99945C9.6844 4.99752 9.9005 4.7737 10.161 4.50165C10.4214 4.22767 10.6395 4.00579 10.6472 4.00579C10.6588 4.00579 11.527 4.8258 11.5347 4.84509C11.5367 4.85088 11.3148 5.0882 11.0427 5.37183L10.5469 5.89085L10.5835 5.95452C10.6588 6.08186 10.788 6.3597 10.8305 6.48319C11.1238 7.32635 11.0292 8.2409 10.5758 8.99531L10.5218 9.08407L10.6395 9.19598C10.9945 9.52977 11.5753 10.0874 11.5772 10.0932C11.5791 10.1047 10.7321 10.9904 10.7244 10.9865C10.7167 10.9826 9.94488 10.2494 9.73843 10.0488L9.64388 9.95617L9.55513 10.0102C9.21362 10.2166 8.79686 10.3575 8.37624 10.4057C8.15822 10.4327 7.76847 10.4231 7.56395 10.3864C7.15684 10.3131 6.78832 10.1742 6.47382 9.97354L6.41208 9.93495L6.34648 10.0006C6.31175 10.0372 6.08214 10.2784 5.8371 10.535L5.3914 11L5.36246 10.9749C5.28721 10.9132 4.49807 10.151 4.5 10.1453C4.50065 10.1446 4.50765 10.1372 4.52018 10.1239C4.58236 10.0578 4.78072 9.84717 5.01516 9.60309C5.29686 9.30788 5.53032 9.06091 5.53418 9.0532C5.53804 9.04548 5.52068 9.00303 5.48209 8.93743C5.40298 8.8043 5.31037 8.60171 5.25634 8.44349C4.96886 7.60612 5.0634 6.69542 5.52068 5.93908L5.57277 5.85226L5.54383 5.82525C5.53186 5.81477 5.39458 5.68363 5.21387 5.511C5.16155 5.46102 5.10558 5.40755 5.04796 5.35254C4.79135 5.10943 4.58297 4.90491 4.5849 4.89912ZM9.08424 6.024C8.83148 5.84649 8.5575 5.7423 8.25072 5.70564C7.50982 5.61688 6.79014 6.00663 6.45828 6.67422C6.37531 6.84401 6.33093 6.96556 6.29813 7.13535C6.2634 7.30707 6.2634 7.63122 6.29813 7.80487C6.40811 8.3509 6.75155 8.80624 7.23777 9.05514C7.91114 9.39858 8.71186 9.28281 9.26561 8.76573C9.9139 8.15795 10.0123 7.16622 9.49714 6.4369C9.40646 6.30762 9.21351 6.11468 9.08424 6.024Z" fill="white"/>
</svg>
