<svg width="26" height="25" viewBox="0 0 26 25" fill="none" xmlns="http://www.w3.org/2000/svg">
<circle cx="13.5" cy="12" r="10.5" fill="black"/>
<path fill-rule="evenodd" clip-rule="evenodd" d="M7.15767 7.16979C7.16125 7.16262 7.51599 6.7828 7.94598 6.33131L8.72355 5.5L8.88121 5.65408C8.96721 5.74008 9.32911 6.08407 9.68385 6.42089C9.85422 6.58437 10.0254 6.74702 10.1661 6.88067C10.3183 7.02531 10.4348 7.13598 10.4758 7.17696L10.6227 7.32029L10.7517 7.24146C10.8233 7.19846 11.0061 7.09813 11.1637 7.02288C11.7084 6.75055 12.2423 6.58931 12.8944 6.49614C13.1668 6.45673 14.0482 6.46389 14.3421 6.50689C14.9082 6.58931 15.3955 6.73622 15.9187 6.9763C16.0907 7.05513 16.3988 7.22354 16.5207 7.30595C16.5637 7.3382 16.6103 7.3597 16.6174 7.35612C16.6282 7.35254 17.0295 6.93688 17.5132 6.43164C17.997 5.92282 18.4019 5.51075 18.4162 5.51075C18.4377 5.51075 20.0502 7.03363 20.0645 7.06946C20.0681 7.08021 19.656 7.52095 19.1508 8.04768L18.2299 9.01158L18.298 9.12982C18.4377 9.36632 18.6778 9.8823 18.7566 10.1116C19.3013 11.6775 19.1257 13.376 18.2836 14.777L18.1833 14.9418L18.4019 15.1497C19.0612 15.7696 20.1398 16.8051 20.1433 16.8159C20.1469 16.8374 18.5739 18.4821 18.5595 18.4749C18.5452 18.4678 17.1119 17.1061 16.7285 16.7335L16.5529 16.5615L16.3881 16.6618C15.7539 17.0452 14.9799 17.3068 14.1987 17.3964C13.7938 17.4465 13.07 17.4286 12.6902 17.3605C11.9341 17.2244 11.2497 16.9664 10.6657 16.5937L10.551 16.522L10.4292 16.6439C10.3647 16.712 9.93826 17.1599 9.48319 17.6364L8.65546 18.5L8.60172 18.4534C8.46197 18.3388 6.99642 16.9234 7.00001 16.9126C7.00121 16.9114 7.01418 16.8976 7.03741 16.873C7.1528 16.7504 7.52125 16.3591 7.95673 15.9057C8.47989 15.3575 8.91346 14.8988 8.92062 14.8845C8.92779 14.8702 8.89554 14.7913 8.82388 14.6695C8.67696 14.4223 8.50497 14.046 8.40464 13.7522C7.87073 12.1971 8.04631 10.5058 8.89554 9.10116L8.99229 8.93991L8.93854 8.88975C8.91631 8.8703 8.66141 8.62679 8.32585 8.30623C8.22865 8.21338 8.12468 8.11406 8.01765 8.01185C7.54108 7.56036 7.15409 7.18054 7.15767 7.16979ZM15.5114 9.25879C15.042 8.92913 14.5332 8.73564 13.9634 8.66756C12.5875 8.50273 11.2509 9.22654 10.6346 10.4663C10.4805 10.7817 10.3981 11.0074 10.3372 11.3227C10.2727 11.6416 10.2727 12.2436 10.3372 12.5661C10.5414 13.5802 11.1793 14.4258 12.0822 14.8881C13.3328 15.5259 14.8198 15.3109 15.8482 14.3506C17.0522 13.2219 17.2349 11.3801 16.2782 10.0256C16.1098 9.78553 15.7515 9.4272 15.5114 9.25879Z" fill="white"/>
</svg>
