<svg width="240" height="103" viewBox="0 0 240 103" fill="none" xmlns="http://www.w3.org/2000/svg">
<rect width="115" height="103" rx="5" fill="#181A3C"/>
<rect x="0.5" y="0.5" width="114" height="102" rx="4.5" stroke="url(#paint0_linear_4301_5975)" stroke-opacity="0.7"/>
<path d="M28 12.5L110 12.5" stroke="url(#paint1_linear_4301_5975)" stroke-linecap="round" stroke-dasharray="3 5"/>
<path d="M28 37.5L110 37.5" stroke="url(#paint2_linear_4301_5975)" stroke-linecap="round" stroke-dasharray="3 5"/>
<path d="M28 62.5L110 62.5" stroke="url(#paint3_linear_4301_5975)" stroke-linecap="round" stroke-dasharray="3 5"/>
<path d="M12.8649 63.08C12.3955 63.08 11.9982 62.9627 11.6729 62.728C11.3475 62.488 11.1022 62.1627 10.9369 61.752C10.7715 61.336 10.6889 60.8613 10.6889 60.328C10.6889 59.7947 10.7715 59.3227 10.9369 58.912C11.1022 58.496 11.3475 58.1707 11.6729 57.936C11.9982 57.696 12.3955 57.576 12.8649 57.576C13.3395 57.576 13.7369 57.696 14.0569 57.936C14.3822 58.1707 14.6275 58.496 14.7929 58.912C14.9635 59.3227 15.0489 59.7947 15.0489 60.328C15.0489 60.8613 14.9635 61.336 14.7929 61.752C14.6275 62.1627 14.3822 62.488 14.0569 62.728C13.7369 62.9627 13.3395 63.08 12.8649 63.08ZM12.8649 62.416C13.1315 62.416 13.3662 62.3413 13.5689 62.192C13.7769 62.0373 13.9369 61.8053 14.0489 61.496C14.1662 61.1867 14.2249 60.7973 14.2249 60.328C14.2249 59.8533 14.1662 59.4613 14.0489 59.152C13.9369 58.8427 13.7769 58.6133 13.5689 58.464C13.3662 58.3093 13.1315 58.232 12.8649 58.232C12.6035 58.232 12.3689 58.3093 12.1609 58.464C11.9582 58.6187 11.7982 58.8507 11.6809 59.16C11.5635 59.464 11.5049 59.8533 11.5049 60.328C11.5049 60.7973 11.5635 61.1867 11.6809 61.496C11.7982 61.8053 11.9582 62.0373 12.1609 62.192C12.3689 62.3413 12.6035 62.416 12.8649 62.416ZM17.4937 63L20.3337 57.656H20.9337L18.1017 63H17.4937ZM17.1097 60.856C16.8324 60.856 16.5977 60.7867 16.4057 60.648C16.2137 60.5093 16.067 60.3173 15.9657 60.072C15.8697 59.8267 15.8217 59.5467 15.8217 59.232C15.8217 58.9173 15.8697 58.6373 15.9657 58.392C16.067 58.1467 16.2137 57.9547 16.4057 57.816C16.5977 57.6773 16.8324 57.608 17.1097 57.608C17.387 57.608 17.619 57.6773 17.8057 57.816C17.9977 57.9547 18.1417 58.1467 18.2377 58.392C18.339 58.6373 18.3897 58.9173 18.3897 59.232C18.3897 59.5467 18.339 59.8267 18.2377 60.072C18.1417 60.3173 17.9977 60.5093 17.8057 60.648C17.619 60.7867 17.387 60.856 17.1097 60.856ZM17.1017 60.352C17.299 60.352 17.459 60.264 17.5817 60.088C17.7097 59.9067 17.7737 59.6213 17.7737 59.232C17.7737 58.8427 17.7097 58.5573 17.5817 58.376C17.459 58.1947 17.299 58.104 17.1017 58.104C16.9044 58.104 16.7444 58.1947 16.6217 58.376C16.499 58.5573 16.4377 58.8427 16.4377 59.232C16.4377 59.6213 16.499 59.9067 16.6217 60.088C16.7444 60.264 16.9044 60.352 17.1017 60.352ZM21.3257 63.048C21.0484 63.048 20.8137 62.9787 20.6217 62.84C20.4297 62.7013 20.283 62.5093 20.1817 62.264C20.0857 62.0187 20.0377 61.7387 20.0377 61.424C20.0377 61.1093 20.0857 60.8293 20.1817 60.584C20.283 60.3387 20.4297 60.1467 20.6217 60.008C20.8137 59.8693 21.0484 59.8 21.3257 59.8C21.6084 59.8 21.843 59.8693 22.0297 60.008C22.2217 60.1467 22.3657 60.3387 22.4617 60.584C22.563 60.8293 22.6137 61.1093 22.6137 61.424C22.6137 61.7387 22.563 62.0187 22.4617 62.264C22.3657 62.5093 22.2217 62.7013 22.0297 62.84C21.843 62.9787 21.6084 63.048 21.3257 63.048ZM21.3257 62.544C21.523 62.544 21.683 62.456 21.8057 62.28C21.9337 62.0987 21.9977 61.8133 21.9977 61.424C21.9977 61.0347 21.9337 60.7493 21.8057 60.568C21.683 60.3867 21.523 60.296 21.3257 60.296C21.1284 60.296 20.9684 60.3867 20.8457 60.568C20.723 60.7493 20.6617 61.0347 20.6617 61.424C20.6617 61.8133 20.723 62.0987 20.8457 62.28C20.9684 62.456 21.1284 62.544 21.3257 62.544Z" fill="#747FA6"/>
<path d="M6.25919 38V37.336L8.53919 35.2C8.70452 35.04 8.82452 34.8827 8.89919 34.728C8.97385 34.5733 9.01119 34.424 9.01119 34.28C9.01119 34.0667 8.96585 33.8827 8.87519 33.728C8.78452 33.5733 8.65919 33.4533 8.49919 33.368C8.34452 33.2773 8.15785 33.232 7.93919 33.232C7.72052 33.232 7.50452 33.2853 7.29119 33.392C7.08319 33.4987 6.84052 33.6587 6.56319 33.872L6.25919 33.296C6.53652 33.0453 6.81385 32.864 7.09119 32.752C7.36852 32.6347 7.66185 32.576 7.97119 32.576C8.33385 32.576 8.65385 32.6453 8.93119 32.784C9.21385 32.9173 9.43519 33.112 9.59519 33.368C9.75519 33.624 9.83519 33.928 9.83519 34.28C9.83519 34.504 9.77385 34.7307 9.65119 34.96C9.52852 35.184 9.31785 35.432 9.01919 35.704L7.28319 37.336H9.91519V38H6.25919ZM12.8649 38.08C12.3955 38.08 11.9982 37.9627 11.6729 37.728C11.3475 37.488 11.1022 37.1627 10.9369 36.752C10.7715 36.336 10.6889 35.8613 10.6889 35.328C10.6889 34.7947 10.7715 34.3227 10.9369 33.912C11.1022 33.496 11.3475 33.1707 11.6729 32.936C11.9982 32.696 12.3955 32.576 12.8649 32.576C13.3395 32.576 13.7369 32.696 14.0569 32.936C14.3822 33.1707 14.6275 33.496 14.7929 33.912C14.9635 34.3227 15.0489 34.7947 15.0489 35.328C15.0489 35.8613 14.9635 36.336 14.7929 36.752C14.6275 37.1627 14.3822 37.488 14.0569 37.728C13.7369 37.9627 13.3395 38.08 12.8649 38.08ZM12.8649 37.416C13.1315 37.416 13.3662 37.3413 13.5689 37.192C13.7769 37.0373 13.9369 36.8053 14.0489 36.496C14.1662 36.1867 14.2249 35.7973 14.2249 35.328C14.2249 34.8533 14.1662 34.4613 14.0489 34.152C13.9369 33.8427 13.7769 33.6133 13.5689 33.464C13.3662 33.3093 13.1315 33.232 12.8649 33.232C12.6035 33.232 12.3689 33.3093 12.1609 33.464C11.9582 33.6187 11.7982 33.8507 11.6809 34.16C11.5635 34.464 11.5049 34.8533 11.5049 35.328C11.5049 35.7973 11.5635 36.1867 11.6809 36.496C11.7982 36.8053 11.9582 37.0373 12.1609 37.192C12.3689 37.3413 12.6035 37.416 12.8649 37.416ZM17.4937 38L20.3337 32.656H20.9337L18.1017 38H17.4937ZM17.1097 35.856C16.8324 35.856 16.5977 35.7867 16.4057 35.648C16.2137 35.5093 16.067 35.3173 15.9657 35.072C15.8697 34.8267 15.8217 34.5467 15.8217 34.232C15.8217 33.9173 15.8697 33.6373 15.9657 33.392C16.067 33.1467 16.2137 32.9547 16.4057 32.816C16.5977 32.6773 16.8324 32.608 17.1097 32.608C17.387 32.608 17.619 32.6773 17.8057 32.816C17.9977 32.9547 18.1417 33.1467 18.2377 33.392C18.339 33.6373 18.3897 33.9173 18.3897 34.232C18.3897 34.5467 18.339 34.8267 18.2377 35.072C18.1417 35.3173 17.9977 35.5093 17.8057 35.648C17.619 35.7867 17.387 35.856 17.1097 35.856ZM17.1017 35.352C17.299 35.352 17.459 35.264 17.5817 35.088C17.7097 34.9067 17.7737 34.6213 17.7737 34.232C17.7737 33.8427 17.7097 33.5573 17.5817 33.376C17.459 33.1947 17.299 33.104 17.1017 33.104C16.9044 33.104 16.7444 33.1947 16.6217 33.376C16.499 33.5573 16.4377 33.8427 16.4377 34.232C16.4377 34.6213 16.499 34.9067 16.6217 35.088C16.7444 35.264 16.9044 35.352 17.1017 35.352ZM21.3257 38.048C21.0484 38.048 20.8137 37.9787 20.6217 37.84C20.4297 37.7013 20.283 37.5093 20.1817 37.264C20.0857 37.0187 20.0377 36.7387 20.0377 36.424C20.0377 36.1093 20.0857 35.8293 20.1817 35.584C20.283 35.3387 20.4297 35.1467 20.6217 35.008C20.8137 34.8693 21.0484 34.8 21.3257 34.8C21.6084 34.8 21.843 34.8693 22.0297 35.008C22.2217 35.1467 22.3657 35.3387 22.4617 35.584C22.563 35.8293 22.6137 36.1093 22.6137 36.424C22.6137 36.7387 22.563 37.0187 22.4617 37.264C22.3657 37.5093 22.2217 37.7013 22.0297 37.84C21.843 37.9787 21.6084 38.048 21.3257 38.048ZM21.3257 37.544C21.523 37.544 21.683 37.456 21.8057 37.28C21.9337 37.0987 21.9977 36.8133 21.9977 36.424C21.9977 36.0347 21.9337 35.7493 21.8057 35.568C21.683 35.3867 21.523 35.296 21.3257 35.296C21.1284 35.296 20.9684 35.3867 20.8457 35.568C20.723 35.7493 20.6617 36.0347 20.6617 36.424C20.6617 36.8133 20.723 37.0987 20.8457 37.28C20.9684 37.456 21.1284 37.544 21.3257 37.544Z" fill="#747FA6"/>
<path d="M8.43231 13V11.744H5.71231V10.952L8.35231 7.656H9.20831V11.096H9.91231V11.744H9.20831V13H8.43231ZM6.40031 11.096H8.43231V8.512L6.40031 11.096ZM12.8649 13.08C12.3955 13.08 11.9982 12.9627 11.6729 12.728C11.3475 12.488 11.1022 12.1627 10.9369 11.752C10.7715 11.336 10.6889 10.8613 10.6889 10.328C10.6889 9.79467 10.7715 9.32267 10.9369 8.912C11.1022 8.496 11.3475 8.17067 11.6729 7.936C11.9982 7.696 12.3955 7.576 12.8649 7.576C13.3395 7.576 13.7369 7.696 14.0569 7.936C14.3822 8.17067 14.6275 8.496 14.7929 8.912C14.9635 9.32267 15.0489 9.79467 15.0489 10.328C15.0489 10.8613 14.9635 11.336 14.7929 11.752C14.6275 12.1627 14.3822 12.488 14.0569 12.728C13.7369 12.9627 13.3395 13.08 12.8649 13.08ZM12.8649 12.416C13.1315 12.416 13.3662 12.3413 13.5689 12.192C13.7769 12.0373 13.9369 11.8053 14.0489 11.496C14.1662 11.1867 14.2249 10.7973 14.2249 10.328C14.2249 9.85333 14.1662 9.46133 14.0489 9.152C13.9369 8.84267 13.7769 8.61333 13.5689 8.464C13.3662 8.30933 13.1315 8.232 12.8649 8.232C12.6035 8.232 12.3689 8.30933 12.1609 8.464C11.9582 8.61867 11.7982 8.85067 11.6809 9.16C11.5635 9.464 11.5049 9.85333 11.5049 10.328C11.5049 10.7973 11.5635 11.1867 11.6809 11.496C11.7982 11.8053 11.9582 12.0373 12.1609 12.192C12.3689 12.3413 12.6035 12.416 12.8649 12.416ZM17.4937 13L20.3337 7.656H20.9337L18.1017 13H17.4937ZM17.1097 10.856C16.8324 10.856 16.5977 10.7867 16.4057 10.648C16.2137 10.5093 16.067 10.3173 15.9657 10.072C15.8697 9.82667 15.8217 9.54667 15.8217 9.232C15.8217 8.91733 15.8697 8.63733 15.9657 8.392C16.067 8.14667 16.2137 7.95467 16.4057 7.816C16.5977 7.67733 16.8324 7.608 17.1097 7.608C17.387 7.608 17.619 7.67733 17.8057 7.816C17.9977 7.95467 18.1417 8.14667 18.2377 8.392C18.339 8.63733 18.3897 8.91733 18.3897 9.232C18.3897 9.54667 18.339 9.82667 18.2377 10.072C18.1417 10.3173 17.9977 10.5093 17.8057 10.648C17.619 10.7867 17.387 10.856 17.1097 10.856ZM17.1017 10.352C17.299 10.352 17.459 10.264 17.5817 10.088C17.7097 9.90667 17.7737 9.62133 17.7737 9.232C17.7737 8.84267 17.7097 8.55733 17.5817 8.376C17.459 8.19467 17.299 8.104 17.1017 8.104C16.9044 8.104 16.7444 8.19467 16.6217 8.376C16.499 8.55733 16.4377 8.84267 16.4377 9.232C16.4377 9.62133 16.499 9.90667 16.6217 10.088C16.7444 10.264 16.9044 10.352 17.1017 10.352ZM21.3257 13.048C21.0484 13.048 20.8137 12.9787 20.6217 12.84C20.4297 12.7013 20.283 12.5093 20.1817 12.264C20.0857 12.0187 20.0377 11.7387 20.0377 11.424C20.0377 11.1093 20.0857 10.8293 20.1817 10.584C20.283 10.3387 20.4297 10.1467 20.6217 10.008C20.8137 9.86933 21.0484 9.8 21.3257 9.8C21.6084 9.8 21.843 9.86933 22.0297 10.008C22.2217 10.1467 22.3657 10.3387 22.4617 10.584C22.563 10.8293 22.6137 11.1093 22.6137 11.424C22.6137 11.7387 22.563 12.0187 22.4617 12.264C22.3657 12.5093 22.2217 12.7013 22.0297 12.84C21.843 12.9787 21.6084 13.048 21.3257 13.048ZM21.3257 12.544C21.523 12.544 21.683 12.456 21.8057 12.28C21.9337 12.0987 21.9977 11.8133 21.9977 11.424C21.9977 11.0347 21.9337 10.7493 21.8057 10.568C21.683 10.3867 21.523 10.296 21.3257 10.296C21.1284 10.296 20.9684 10.3867 20.8457 10.568C20.723 10.7493 20.6617 11.0347 20.6617 11.424C20.6617 11.8133 20.723 12.0987 20.8457 12.28C20.9684 12.456 21.1284 12.544 21.3257 12.544Z" fill="#747FA6"/>
<path opacity="0.05" d="M28.5 13.25V72H106.5V31L93.5 42.5L81 56.5L67.5 33.5L54.5 21.5L41.5 56.5L28.5 13.25Z" fill="#C75E4B"/>
<rect x="25" y="20" width="7" height="42" rx="2" fill="#344786"/>
<rect x="38" y="63" width="7" height="9" rx="2" fill="#344786"/>
<rect x="51" y="28" width="7" height="34" rx="2" fill="#344786"/>
<rect x="64" y="40" width="7" height="22" rx="2" fill="#344786"/>
<rect x="77" y="63" width="7" height="9" rx="2" fill="#344786"/>
<rect x="103" y="38" width="7" height="24" rx="2" fill="#344786"/>
<rect x="90" y="49" width="7" height="12" rx="2" fill="#344786"/>
<path d="M106.5 31.5L93.5 42.5L80.5 56.5L67.5 33.5C64 30 55 23 54.5 21.5L41.5 56.5L28.5 13.5" stroke="#C75E4B" stroke-width="0.8" stroke-linecap="round"/>
<g filter="url(#filter0_d_4301_5975)">
<circle cx="28.5" cy="13.5" r="2.5" fill="white"/>
<circle cx="28.5" cy="13.5" r="1.75" stroke="#C75E4B" stroke-width="1.5"/>
</g>
<g filter="url(#filter1_d_4301_5975)">
<circle cx="41.5" cy="56.5" r="2.5" fill="white"/>
<circle cx="41.5" cy="56.5" r="1.75" stroke="#C75E4B" stroke-width="1.5"/>
</g>
<g filter="url(#filter2_d_4301_5975)">
<circle cx="54.5" cy="21.5" r="2.5" fill="white"/>
<circle cx="54.5" cy="21.5" r="1.75" stroke="#C75E4B" stroke-width="1.5"/>
</g>
<g filter="url(#filter3_d_4301_5975)">
<circle cx="67.5" cy="33.5" r="2.5" fill="white"/>
<circle cx="67.5" cy="33.5" r="1.75" stroke="#C75E4B" stroke-width="1.5"/>
</g>
<g filter="url(#filter4_d_4301_5975)">
<circle cx="80.5" cy="56.5" r="2.5" fill="white"/>
<circle cx="80.5" cy="56.5" r="1.75" stroke="#C75E4B" stroke-width="1.5"/>
</g>
<g filter="url(#filter5_d_4301_5975)">
<circle cx="93.5" cy="42.5" r="2.5" fill="white"/>
<circle cx="93.5" cy="42.5" r="1.75" stroke="#C75E4B" stroke-width="1.5"/>
</g>
<g filter="url(#filter6_d_4301_5975)">
<circle cx="106.5" cy="31.5" r="2.5" fill="white"/>
<circle cx="106.5" cy="31.5" r="1.75" stroke="#C75E4B" stroke-width="1.5"/>
</g>
<rect x="78" y="81" width="32" height="17" rx="5" fill="#261D39"/>
<rect x="78.5" y="81.5" width="31" height="16" rx="4.5" stroke="#C75E4B" stroke-opacity="0.1"/>
<path d="M83 93L90.8896 85.1104C90.9545 85.0455 91.0552 85.0331 91.1339 85.0803L95.9242 87.9545C95.9725 87.9835 96.0307 87.9908 96.0846 87.9746L100.894 86.5318C100.96 86.512 101.031 86.5275 101.083 86.5728L105 90" stroke="#C75E4B" stroke-linecap="round"/>
<rect x="5" y="81" width="69" height="17" rx="5" fill="#261D39"/>
<rect x="5.5" y="81.5" width="68" height="16" rx="4.5" stroke="#C75E4B" stroke-opacity="0.1"/>
<path d="M9.79 93V86.32H14.41V87.18H10.79V89.15H14.11V89.97H10.79V93H9.79ZM17.3196 93.1C16.7796 93.1 16.3563 92.9467 16.0496 92.64C15.7496 92.3333 15.5996 91.8533 15.5996 91.2V88.3H16.5396V91.08C16.5396 91.5 16.6229 91.8067 16.7896 92C16.9629 92.1867 17.2229 92.28 17.5696 92.28C17.9829 92.28 18.2996 92.14 18.5196 91.86C18.7463 91.58 18.8596 91.1967 18.8596 90.71V88.3H19.7996V93H18.8996V92.3C18.7596 92.5467 18.5563 92.7433 18.2896 92.89C18.0229 93.03 17.6996 93.1 17.3196 93.1ZM21.3027 93V88.3H22.2027V89C22.3427 88.7533 22.5461 88.56 22.8127 88.42C23.0794 88.2733 23.4027 88.2 23.7827 88.2C24.3227 88.2 24.7427 88.3533 25.0427 88.66C25.3494 88.9667 25.5027 89.4467 25.5027 90.1V93H24.5627V90.22C24.5627 89.8 24.4761 89.4967 24.3027 89.31C24.1361 89.1167 23.8794 89.02 23.5327 89.02C23.1194 89.02 22.7994 89.16 22.5727 89.44C22.3527 89.72 22.2427 90.1033 22.2427 90.59V93H21.3027ZM28.9959 93.1C28.5692 93.1 28.1859 93 27.8459 92.8C27.5059 92.6 27.2359 92.3167 27.0359 91.95C26.8425 91.5833 26.7459 91.15 26.7459 90.65C26.7459 90.1433 26.8425 89.71 27.0359 89.35C27.2359 88.9833 27.5059 88.7 27.8459 88.5C28.1859 88.3 28.5692 88.2 28.9959 88.2C29.3692 88.2 29.6959 88.2733 29.9759 88.42C30.2559 88.56 30.4725 88.75 30.6259 88.99V86.32H31.5659V93H30.6659V92.25C30.5192 92.5033 30.3025 92.71 30.0159 92.87C29.7292 93.0233 29.3892 93.1 28.9959 93.1ZM29.1859 92.28C29.4792 92.28 29.7359 92.2133 29.9559 92.08C30.1759 91.9467 30.3492 91.76 30.4759 91.52C30.6025 91.2733 30.6659 90.9833 30.6659 90.65C30.6659 90.3167 30.6025 90.03 30.4759 89.79C30.3492 89.5433 30.1759 89.3533 29.9559 89.22C29.7359 89.0867 29.4825 89.02 29.1959 89.02C28.9025 89.02 28.6425 89.0867 28.4159 89.22C28.1959 89.3533 28.0225 89.5433 27.8959 89.79C27.7759 90.03 27.7159 90.3167 27.7159 90.65C27.7159 90.9833 27.7792 91.2733 27.9059 91.52C28.0325 91.76 28.2059 91.9467 28.4259 92.08C28.6459 92.2133 28.8992 92.28 29.1859 92.28ZM33.0703 93V88.3H34.0103V93H33.0703ZM33.5303 87.33C33.3636 87.33 33.227 87.28 33.1203 87.18C33.0203 87.08 32.9703 86.95 32.9703 86.79C32.9703 86.63 33.0203 86.5033 33.1203 86.41C33.227 86.31 33.3636 86.26 33.5303 86.26C33.7036 86.26 33.8436 86.31 33.9503 86.41C34.057 86.5033 34.1103 86.63 34.1103 86.79C34.1103 86.95 34.057 87.08 33.9503 87.18C33.8436 87.28 33.7036 87.33 33.5303 87.33ZM35.502 93V88.3H36.402V89C36.542 88.7533 36.7453 88.56 37.012 88.42C37.2786 88.2733 37.602 88.2 37.982 88.2C38.522 88.2 38.942 88.3533 39.242 88.66C39.5486 88.9667 39.702 89.4467 39.702 90.1V93H38.762V90.22C38.762 89.8 38.6753 89.4967 38.502 89.31C38.3353 89.1167 38.0786 89.02 37.732 89.02C37.3186 89.02 36.9986 89.16 36.772 89.44C36.552 89.72 36.442 90.1033 36.442 90.59V93H35.502ZM43.2551 94.92C42.8684 94.92 42.5017 94.86 42.1551 94.74C41.8151 94.62 41.4917 94.4267 41.1851 94.16L41.5251 93.47C41.8251 93.7033 42.1117 93.8667 42.3851 93.96C42.6651 94.0533 42.9384 94.1 43.2051 94.1C43.7117 94.1 44.1084 93.9633 44.3951 93.69C44.6817 93.4167 44.8251 93.0133 44.8251 92.48V92.06C44.6717 92.2733 44.4551 92.45 44.1751 92.59C43.9017 92.73 43.5751 92.8 43.1951 92.8C42.7951 92.8 42.4217 92.71 42.0751 92.53C41.7351 92.35 41.4617 92.09 41.2551 91.75C41.0484 91.4033 40.9451 90.9867 40.9451 90.5C40.9451 90.0133 41.0484 89.6 41.2551 89.26C41.4617 88.9133 41.7351 88.65 42.0751 88.47C42.4217 88.29 42.7951 88.2 43.1951 88.2C43.5951 88.2 43.9351 88.28 44.2151 88.44C44.5017 88.5933 44.7184 88.78 44.8651 89V88.3H45.7651V92.34C45.7651 92.8933 45.6651 93.36 45.4651 93.74C45.2651 94.1267 44.9784 94.42 44.6051 94.62C44.2317 94.82 43.7817 94.92 43.2551 94.92ZM43.3851 91.99C43.6584 91.99 43.9051 91.9333 44.1251 91.82C44.3451 91.7067 44.5217 91.54 44.6551 91.32C44.7884 91.1 44.8551 90.8267 44.8551 90.5C44.8551 90.1733 44.7884 89.9 44.6551 89.68C44.5217 89.46 44.3451 89.2933 44.1251 89.18C43.9051 89.0667 43.6584 89.01 43.3851 89.01C43.1184 89.01 42.8717 89.0667 42.6451 89.18C42.4251 89.2933 42.2484 89.46 42.1151 89.68C41.9817 89.9 41.9151 90.1733 41.9151 90.5C41.9151 90.8267 41.9817 91.1 42.1151 91.32C42.2484 91.54 42.4251 91.7067 42.6451 91.82C42.8717 91.9333 43.1184 91.99 43.3851 91.99ZM49.7216 93V86.32H52.3816C53.175 86.32 53.7816 86.4833 54.2016 86.81C54.6283 87.1367 54.8416 87.6367 54.8416 88.31C54.8416 88.8767 54.6916 89.3133 54.3916 89.62C54.0983 89.9267 53.675 90.1267 53.1216 90.22L55.1816 93H54.0116L52.0716 90.29H50.7216V93H49.7216ZM50.7216 89.47H52.1916C52.745 89.47 53.155 89.3833 53.4216 89.21C53.695 89.03 53.8316 88.7333 53.8316 88.32C53.8316 87.8933 53.7016 87.5933 53.4416 87.42C53.1883 87.2467 52.7716 87.16 52.1916 87.16H50.7216V89.47ZM57.5779 93.1C57.2312 93.1 56.9246 93.0467 56.6579 92.94C56.3979 92.8267 56.1946 92.6667 56.0479 92.46C55.9012 92.2467 55.8279 91.9933 55.8279 91.7C55.8279 91.4 55.9012 91.15 56.0479 90.95C56.1946 90.75 56.4012 90.5933 56.6679 90.48C56.9346 90.3667 57.2379 90.29 57.5779 90.25L59.2379 90.04C59.1979 89.6867 59.0646 89.4267 58.8379 89.26C58.6112 89.0933 58.3312 89.01 57.9979 89.01C57.7712 89.01 57.5346 89.0567 57.2879 89.15C57.0479 89.2367 56.7912 89.3767 56.5179 89.57L56.1679 88.86C56.4279 88.6533 56.7146 88.4933 57.0279 88.38C57.3412 88.26 57.6679 88.2 58.0079 88.2C58.7279 88.2 59.2712 88.3633 59.6379 88.69C60.0046 89.0167 60.1879 89.5 60.1879 90.14V93H59.2879V92.32C59.1146 92.58 58.8812 92.7767 58.5879 92.91C58.3012 93.0367 57.9646 93.1 57.5779 93.1ZM57.7979 92.31C58.1112 92.31 58.3746 92.2467 58.5879 92.12C58.8079 91.9933 58.9712 91.8267 59.0779 91.62C59.1912 91.4133 59.2479 91.1967 59.2479 90.97V90.76L57.8479 90.94C57.5012 90.9867 57.2379 91.0633 57.0579 91.17C56.8779 91.27 56.7879 91.4333 56.7879 91.66C56.7879 91.8667 56.8746 92.0267 57.0479 92.14C57.2279 92.2533 57.4779 92.31 57.7979 92.31ZM63.1846 93.06C62.6979 93.06 62.3346 92.9467 62.0946 92.72C61.8613 92.4867 61.7446 92.1267 61.7446 91.64V89.1H60.7146V88.3H61.7446V86.96H62.6846V88.3H63.9046V89.1H62.6846V91.56C62.6846 91.7933 62.7413 91.97 62.8546 92.09C62.9679 92.2033 63.1413 92.26 63.3746 92.26C63.4546 92.26 63.5479 92.2567 63.6546 92.25C63.7613 92.2433 63.8446 92.2333 63.9046 92.22V92.98C63.8179 93.0067 63.7079 93.0267 63.5746 93.04C63.4479 93.0533 63.3179 93.06 63.1846 93.06ZM67.283 93.1C66.8096 93.1 66.383 93.0067 66.003 92.82C65.6296 92.6267 65.333 92.35 65.113 91.99C64.893 91.6233 64.783 91.1767 64.783 90.65C64.783 90.15 64.8863 89.7167 65.093 89.35C65.3063 88.9833 65.5896 88.7 65.943 88.5C66.303 88.3 66.703 88.2 67.143 88.2C67.603 88.2 68.003 88.29 68.343 88.47C68.683 88.65 68.943 88.8933 69.123 89.2C69.3096 89.5 69.403 89.8433 69.403 90.23C69.403 90.3433 69.3863 90.4667 69.353 90.6C69.3263 90.7333 69.2896 90.84 69.243 90.92H65.743C65.7763 91.22 65.8596 91.4733 65.993 91.68C66.133 91.88 66.3196 92.0333 66.553 92.14C66.7863 92.24 67.0563 92.29 67.363 92.29C67.6696 92.29 67.9396 92.2433 68.173 92.15C68.413 92.0567 68.643 91.9267 68.863 91.76L69.203 92.45C68.943 92.6633 68.6496 92.8267 68.323 92.94C68.003 93.0467 67.6563 93.1 67.283 93.1ZM65.743 90.2H68.433C68.4396 90.18 68.443 90.1633 68.443 90.15C68.443 90.1367 68.443 90.12 68.443 90.1C68.443 89.8733 68.3963 89.68 68.303 89.52C68.2096 89.3533 68.0696 89.2233 67.883 89.13C67.6963 89.0367 67.4596 88.99 67.173 88.99C66.9396 88.99 66.723 89.04 66.523 89.14C66.3296 89.2333 66.163 89.37 66.023 89.55C65.8896 89.7233 65.7963 89.94 65.743 90.2Z" fill="#C75E4B"/>
<rect x="125" width="115" height="103" rx="5" fill="#181A3C"/>
<rect x="125.5" y="0.5" width="114" height="102" rx="4.5" stroke="url(#paint4_linear_4301_5975)" stroke-opacity="0.7"/>
<path d="M152.5 12.5L234.5 12.5" stroke="url(#paint5_linear_4301_5975)" stroke-linecap="round" stroke-dasharray="3 5"/>
<path d="M152 37.5L234 37.5" stroke="url(#paint6_linear_4301_5975)" stroke-linecap="round" stroke-dasharray="3 5"/>
<path d="M152 62.5L234 62.5" stroke="url(#paint7_linear_4301_5975)" stroke-linecap="round" stroke-dasharray="3 5"/>
<path d="M137.865 63.08C137.396 63.08 136.998 62.9627 136.673 62.728C136.348 62.488 136.102 62.1627 135.937 61.752C135.772 61.336 135.689 60.8613 135.689 60.328C135.689 59.7947 135.772 59.3227 135.937 58.912C136.102 58.496 136.348 58.1707 136.673 57.936C136.998 57.696 137.396 57.576 137.865 57.576C138.34 57.576 138.737 57.696 139.057 57.936C139.382 58.1707 139.628 58.496 139.793 58.912C139.964 59.3227 140.049 59.7947 140.049 60.328C140.049 60.8613 139.964 61.336 139.793 61.752C139.628 62.1627 139.382 62.488 139.057 62.728C138.737 62.9627 138.34 63.08 137.865 63.08ZM137.865 62.416C138.132 62.416 138.366 62.3413 138.569 62.192C138.777 62.0373 138.937 61.8053 139.049 61.496C139.166 61.1867 139.225 60.7973 139.225 60.328C139.225 59.8533 139.166 59.4613 139.049 59.152C138.937 58.8427 138.777 58.6133 138.569 58.464C138.366 58.3093 138.132 58.232 137.865 58.232C137.604 58.232 137.369 58.3093 137.161 58.464C136.958 58.6187 136.798 58.8507 136.681 59.16C136.564 59.464 136.505 59.8533 136.505 60.328C136.505 60.7973 136.564 61.1867 136.681 61.496C136.798 61.8053 136.958 62.0373 137.161 62.192C137.369 62.3413 137.604 62.416 137.865 62.416ZM142.494 63L145.334 57.656H145.934L143.102 63H142.494ZM142.11 60.856C141.832 60.856 141.598 60.7867 141.406 60.648C141.214 60.5093 141.067 60.3173 140.966 60.072C140.87 59.8267 140.822 59.5467 140.822 59.232C140.822 58.9173 140.87 58.6373 140.966 58.392C141.067 58.1467 141.214 57.9547 141.406 57.816C141.598 57.6773 141.832 57.608 142.11 57.608C142.387 57.608 142.619 57.6773 142.806 57.816C142.998 57.9547 143.142 58.1467 143.238 58.392C143.339 58.6373 143.39 58.9173 143.39 59.232C143.39 59.5467 143.339 59.8267 143.238 60.072C143.142 60.3173 142.998 60.5093 142.806 60.648C142.619 60.7867 142.387 60.856 142.11 60.856ZM142.102 60.352C142.299 60.352 142.459 60.264 142.582 60.088C142.71 59.9067 142.774 59.6213 142.774 59.232C142.774 58.8427 142.71 58.5573 142.582 58.376C142.459 58.1947 142.299 58.104 142.102 58.104C141.904 58.104 141.744 58.1947 141.622 58.376C141.499 58.5573 141.438 58.8427 141.438 59.232C141.438 59.6213 141.499 59.9067 141.622 60.088C141.744 60.264 141.904 60.352 142.102 60.352ZM146.326 63.048C146.048 63.048 145.814 62.9787 145.622 62.84C145.43 62.7013 145.283 62.5093 145.182 62.264C145.086 62.0187 145.038 61.7387 145.038 61.424C145.038 61.1093 145.086 60.8293 145.182 60.584C145.283 60.3387 145.43 60.1467 145.622 60.008C145.814 59.8693 146.048 59.8 146.326 59.8C146.608 59.8 146.843 59.8693 147.03 60.008C147.222 60.1467 147.366 60.3387 147.462 60.584C147.563 60.8293 147.614 61.1093 147.614 61.424C147.614 61.7387 147.563 62.0187 147.462 62.264C147.366 62.5093 147.222 62.7013 147.03 62.84C146.843 62.9787 146.608 63.048 146.326 63.048ZM146.326 62.544C146.523 62.544 146.683 62.456 146.806 62.28C146.934 62.0987 146.998 61.8133 146.998 61.424C146.998 61.0347 146.934 60.7493 146.806 60.568C146.683 60.3867 146.523 60.296 146.326 60.296C146.128 60.296 145.968 60.3867 145.846 60.568C145.723 60.7493 145.662 61.0347 145.662 61.424C145.662 61.8133 145.723 62.0987 145.846 62.28C145.968 62.456 146.128 62.544 146.326 62.544Z" fill="#747FA6"/>
<path d="M131.259 38V37.336L133.539 35.2C133.705 35.04 133.825 34.8827 133.899 34.728C133.974 34.5733 134.011 34.424 134.011 34.28C134.011 34.0667 133.966 33.8827 133.875 33.728C133.785 33.5733 133.659 33.4533 133.499 33.368C133.345 33.2773 133.158 33.232 132.939 33.232C132.721 33.232 132.505 33.2853 132.291 33.392C132.083 33.4987 131.841 33.6587 131.563 33.872L131.259 33.296C131.537 33.0453 131.814 32.864 132.091 32.752C132.369 32.6347 132.662 32.576 132.971 32.576C133.334 32.576 133.654 32.6453 133.931 32.784C134.214 32.9173 134.435 33.112 134.595 33.368C134.755 33.624 134.835 33.928 134.835 34.28C134.835 34.504 134.774 34.7307 134.651 34.96C134.529 35.184 134.318 35.432 134.019 35.704L132.283 37.336H134.915V38H131.259ZM137.865 38.08C137.396 38.08 136.998 37.9627 136.673 37.728C136.348 37.488 136.102 37.1627 135.937 36.752C135.772 36.336 135.689 35.8613 135.689 35.328C135.689 34.7947 135.772 34.3227 135.937 33.912C136.102 33.496 136.348 33.1707 136.673 32.936C136.998 32.696 137.396 32.576 137.865 32.576C138.34 32.576 138.737 32.696 139.057 32.936C139.382 33.1707 139.628 33.496 139.793 33.912C139.964 34.3227 140.049 34.7947 140.049 35.328C140.049 35.8613 139.964 36.336 139.793 36.752C139.628 37.1627 139.382 37.488 139.057 37.728C138.737 37.9627 138.34 38.08 137.865 38.08ZM137.865 37.416C138.132 37.416 138.366 37.3413 138.569 37.192C138.777 37.0373 138.937 36.8053 139.049 36.496C139.166 36.1867 139.225 35.7973 139.225 35.328C139.225 34.8533 139.166 34.4613 139.049 34.152C138.937 33.8427 138.777 33.6133 138.569 33.464C138.366 33.3093 138.132 33.232 137.865 33.232C137.604 33.232 137.369 33.3093 137.161 33.464C136.958 33.6187 136.798 33.8507 136.681 34.16C136.564 34.464 136.505 34.8533 136.505 35.328C136.505 35.7973 136.564 36.1867 136.681 36.496C136.798 36.8053 136.958 37.0373 137.161 37.192C137.369 37.3413 137.604 37.416 137.865 37.416ZM142.494 38L145.334 32.656H145.934L143.102 38H142.494ZM142.11 35.856C141.832 35.856 141.598 35.7867 141.406 35.648C141.214 35.5093 141.067 35.3173 140.966 35.072C140.87 34.8267 140.822 34.5467 140.822 34.232C140.822 33.9173 140.87 33.6373 140.966 33.392C141.067 33.1467 141.214 32.9547 141.406 32.816C141.598 32.6773 141.832 32.608 142.11 32.608C142.387 32.608 142.619 32.6773 142.806 32.816C142.998 32.9547 143.142 33.1467 143.238 33.392C143.339 33.6373 143.39 33.9173 143.39 34.232C143.39 34.5467 143.339 34.8267 143.238 35.072C143.142 35.3173 142.998 35.5093 142.806 35.648C142.619 35.7867 142.387 35.856 142.11 35.856ZM142.102 35.352C142.299 35.352 142.459 35.264 142.582 35.088C142.71 34.9067 142.774 34.6213 142.774 34.232C142.774 33.8427 142.71 33.5573 142.582 33.376C142.459 33.1947 142.299 33.104 142.102 33.104C141.904 33.104 141.744 33.1947 141.622 33.376C141.499 33.5573 141.438 33.8427 141.438 34.232C141.438 34.6213 141.499 34.9067 141.622 35.088C141.744 35.264 141.904 35.352 142.102 35.352ZM146.326 38.048C146.048 38.048 145.814 37.9787 145.622 37.84C145.43 37.7013 145.283 37.5093 145.182 37.264C145.086 37.0187 145.038 36.7387 145.038 36.424C145.038 36.1093 145.086 35.8293 145.182 35.584C145.283 35.3387 145.43 35.1467 145.622 35.008C145.814 34.8693 146.048 34.8 146.326 34.8C146.608 34.8 146.843 34.8693 147.03 35.008C147.222 35.1467 147.366 35.3387 147.462 35.584C147.563 35.8293 147.614 36.1093 147.614 36.424C147.614 36.7387 147.563 37.0187 147.462 37.264C147.366 37.5093 147.222 37.7013 147.03 37.84C146.843 37.9787 146.608 38.048 146.326 38.048ZM146.326 37.544C146.523 37.544 146.683 37.456 146.806 37.28C146.934 37.0987 146.998 36.8133 146.998 36.424C146.998 36.0347 146.934 35.7493 146.806 35.568C146.683 35.3867 146.523 35.296 146.326 35.296C146.128 35.296 145.968 35.3867 145.846 35.568C145.723 35.7493 145.662 36.0347 145.662 36.424C145.662 36.8133 145.723 37.0987 145.846 37.28C145.968 37.456 146.128 37.544 146.326 37.544Z" fill="#747FA6"/>
<path d="M133.432 13V11.744H130.712V10.952L133.352 7.656H134.208V11.096H134.912V11.744H134.208V13H133.432ZM131.4 11.096H133.432V8.512L131.4 11.096ZM137.865 13.08C137.396 13.08 136.998 12.9627 136.673 12.728C136.348 12.488 136.102 12.1627 135.937 11.752C135.772 11.336 135.689 10.8613 135.689 10.328C135.689 9.79467 135.772 9.32267 135.937 8.912C136.102 8.496 136.348 8.17067 136.673 7.936C136.998 7.696 137.396 7.576 137.865 7.576C138.34 7.576 138.737 7.696 139.057 7.936C139.382 8.17067 139.628 8.496 139.793 8.912C139.964 9.32267 140.049 9.79467 140.049 10.328C140.049 10.8613 139.964 11.336 139.793 11.752C139.628 12.1627 139.382 12.488 139.057 12.728C138.737 12.9627 138.34 13.08 137.865 13.08ZM137.865 12.416C138.132 12.416 138.366 12.3413 138.569 12.192C138.777 12.0373 138.937 11.8053 139.049 11.496C139.166 11.1867 139.225 10.7973 139.225 10.328C139.225 9.85333 139.166 9.46133 139.049 9.152C138.937 8.84267 138.777 8.61333 138.569 8.464C138.366 8.30933 138.132 8.232 137.865 8.232C137.604 8.232 137.369 8.30933 137.161 8.464C136.958 8.61867 136.798 8.85067 136.681 9.16C136.564 9.464 136.505 9.85333 136.505 10.328C136.505 10.7973 136.564 11.1867 136.681 11.496C136.798 11.8053 136.958 12.0373 137.161 12.192C137.369 12.3413 137.604 12.416 137.865 12.416ZM142.494 13L145.334 7.656H145.934L143.102 13H142.494ZM142.11 10.856C141.832 10.856 141.598 10.7867 141.406 10.648C141.214 10.5093 141.067 10.3173 140.966 10.072C140.87 9.82667 140.822 9.54667 140.822 9.232C140.822 8.91733 140.87 8.63733 140.966 8.392C141.067 8.14667 141.214 7.95467 141.406 7.816C141.598 7.67733 141.832 7.608 142.11 7.608C142.387 7.608 142.619 7.67733 142.806 7.816C142.998 7.95467 143.142 8.14667 143.238 8.392C143.339 8.63733 143.39 8.91733 143.39 9.232C143.39 9.54667 143.339 9.82667 143.238 10.072C143.142 10.3173 142.998 10.5093 142.806 10.648C142.619 10.7867 142.387 10.856 142.11 10.856ZM142.102 10.352C142.299 10.352 142.459 10.264 142.582 10.088C142.71 9.90667 142.774 9.62133 142.774 9.232C142.774 8.84267 142.71 8.55733 142.582 8.376C142.459 8.19467 142.299 8.104 142.102 8.104C141.904 8.104 141.744 8.19467 141.622 8.376C141.499 8.55733 141.438 8.84267 141.438 9.232C141.438 9.62133 141.499 9.90667 141.622 10.088C141.744 10.264 141.904 10.352 142.102 10.352ZM146.326 13.048C146.048 13.048 145.814 12.9787 145.622 12.84C145.43 12.7013 145.283 12.5093 145.182 12.264C145.086 12.0187 145.038 11.7387 145.038 11.424C145.038 11.1093 145.086 10.8293 145.182 10.584C145.283 10.3387 145.43 10.1467 145.622 10.008C145.814 9.86933 146.048 9.8 146.326 9.8C146.608 9.8 146.843 9.86933 147.03 10.008C147.222 10.1467 147.366 10.3387 147.462 10.584C147.563 10.8293 147.614 11.1093 147.614 11.424C147.614 11.7387 147.563 12.0187 147.462 12.264C147.366 12.5093 147.222 12.7013 147.03 12.84C146.843 12.9787 146.608 13.048 146.326 13.048ZM146.326 12.544C146.523 12.544 146.683 12.456 146.806 12.28C146.934 12.0987 146.998 11.8133 146.998 11.424C146.998 11.0347 146.934 10.7493 146.806 10.568C146.683 10.3867 146.523 10.296 146.326 10.296C146.128 10.296 145.968 10.3867 145.846 10.568C145.723 10.7493 145.662 11.0347 145.662 11.424C145.662 11.8133 145.723 12.0987 145.846 12.28C145.968 12.456 146.128 12.544 146.326 12.544Z" fill="#747FA6"/>
<rect x="201" y="81" width="32" height="17" rx="5" fill="#19233C"/>
<rect x="201.5" y="81.5" width="31" height="16" rx="4.5" stroke="#46956A" stroke-opacity="0.05"/>
<path d="M206 89.0952L213.816 87.5321C213.843 87.5266 213.871 87.5269 213.898 87.533L218.521 88.5601C218.554 88.5675 218.589 88.5663 218.621 88.5564L223.745 87.0194C223.787 87.0068 223.832 87.0083 223.873 87.0237L228 88.5714" stroke="#46956A" stroke-linecap="round"/>
<rect x="130" y="81" width="67" height="17" rx="5" fill="#19233C"/>
<rect x="130.5" y="81.5" width="66" height="16" rx="4.5" stroke="#46956A" stroke-opacity="0.05"/>
<path d="M134.79 93V86.32H135.79V93H134.79ZM137.328 93V88.3H138.228V89C138.368 88.7533 138.571 88.56 138.838 88.42C139.105 88.2733 139.428 88.2 139.808 88.2C140.348 88.2 140.768 88.3533 141.068 88.66C141.375 88.9667 141.528 89.4467 141.528 90.1V93H140.588V90.22C140.588 89.8 140.501 89.4967 140.328 89.31C140.161 89.1167 139.905 89.02 139.558 89.02C139.145 89.02 138.825 89.16 138.598 89.44C138.378 89.72 138.268 90.1033 138.268 90.59V93H137.328ZM144.737 93.06C144.251 93.06 143.887 92.9467 143.647 92.72C143.414 92.4867 143.297 92.1267 143.297 91.64V89.1H142.267V88.3H143.297V86.96H144.237V88.3H145.457V89.1H144.237V91.56C144.237 91.7933 144.294 91.97 144.407 92.09C144.521 92.2033 144.694 92.26 144.927 92.26C145.007 92.26 145.101 92.2567 145.207 92.25C145.314 92.2433 145.397 92.2333 145.457 92.22V92.98C145.371 93.0067 145.261 93.0267 145.127 93.04C145.001 93.0533 144.871 93.06 144.737 93.06ZM148.836 93.1C148.362 93.1 147.936 93.0067 147.556 92.82C147.182 92.6267 146.886 92.35 146.666 91.99C146.446 91.6233 146.336 91.1767 146.336 90.65C146.336 90.15 146.439 89.7167 146.646 89.35C146.859 88.9833 147.142 88.7 147.496 88.5C147.856 88.3 148.256 88.2 148.696 88.2C149.156 88.2 149.556 88.29 149.896 88.47C150.236 88.65 150.496 88.8933 150.676 89.2C150.862 89.5 150.956 89.8433 150.956 90.23C150.956 90.3433 150.939 90.4667 150.906 90.6C150.879 90.7333 150.842 90.84 150.796 90.92H147.296C147.329 91.22 147.412 91.4733 147.546 91.68C147.686 91.88 147.872 92.0333 148.106 92.14C148.339 92.24 148.609 92.29 148.916 92.29C149.222 92.29 149.492 92.2433 149.726 92.15C149.966 92.0567 150.196 91.9267 150.416 91.76L150.756 92.45C150.496 92.6633 150.202 92.8267 149.876 92.94C149.556 93.0467 149.209 93.1 148.836 93.1ZM147.296 90.2H149.986C149.992 90.18 149.996 90.1633 149.996 90.15C149.996 90.1367 149.996 90.12 149.996 90.1C149.996 89.8733 149.949 89.68 149.856 89.52C149.762 89.3533 149.622 89.2233 149.436 89.13C149.249 89.0367 149.012 88.99 148.726 88.99C148.492 88.99 148.276 89.04 148.076 89.14C147.882 89.2333 147.716 89.37 147.576 89.55C147.442 89.7233 147.349 89.94 147.296 90.2ZM152.191 93V88.3H153.091V89.13C153.218 88.8367 153.395 88.6167 153.621 88.47C153.855 88.3167 154.115 88.24 154.401 88.24C154.495 88.24 154.578 88.2467 154.651 88.26C154.731 88.2667 154.791 88.28 154.831 88.3V89.19C154.745 89.17 154.655 89.1567 154.561 89.15C154.475 89.1367 154.388 89.13 154.301 89.13C153.968 89.13 153.688 89.27 153.461 89.55C153.241 89.8233 153.131 90.2167 153.131 90.73V93H152.191ZM157.83 93.1C157.357 93.1 156.93 93.0067 156.55 92.82C156.177 92.6267 155.88 92.35 155.66 91.99C155.44 91.6233 155.33 91.1767 155.33 90.65C155.33 90.15 155.433 89.7167 155.64 89.35C155.853 88.9833 156.137 88.7 156.49 88.5C156.85 88.3 157.25 88.2 157.69 88.2C158.15 88.2 158.55 88.29 158.89 88.47C159.23 88.65 159.49 88.8933 159.67 89.2C159.857 89.5 159.95 89.8433 159.95 90.23C159.95 90.3433 159.933 90.4667 159.9 90.6C159.873 90.7333 159.837 90.84 159.79 90.92H156.29C156.323 91.22 156.407 91.4733 156.54 91.68C156.68 91.88 156.867 92.0333 157.1 92.14C157.333 92.24 157.603 92.29 157.91 92.29C158.217 92.29 158.487 92.2433 158.72 92.15C158.96 92.0567 159.19 91.9267 159.41 91.76L159.75 92.45C159.49 92.6633 159.197 92.8267 158.87 92.94C158.55 93.0467 158.203 93.1 157.83 93.1ZM156.29 90.2H158.98C158.987 90.18 158.99 90.1633 158.99 90.15C158.99 90.1367 158.99 90.12 158.99 90.1C158.99 89.8733 158.943 89.68 158.85 89.52C158.757 89.3533 158.617 89.2233 158.43 89.13C158.243 89.0367 158.007 88.99 157.72 88.99C157.487 88.99 157.27 89.04 157.07 89.14C156.877 89.2333 156.71 89.37 156.57 89.55C156.437 89.7233 156.343 89.94 156.29 90.2ZM162.846 93.1C162.486 93.1 162.149 93.0467 161.836 92.94C161.522 92.8267 161.219 92.6667 160.926 92.46L161.316 91.72C161.609 91.92 161.879 92.07 162.126 92.17C162.372 92.2633 162.619 92.31 162.866 92.31C163.206 92.31 163.459 92.26 163.626 92.16C163.799 92.0533 163.886 91.8967 163.886 91.69C163.886 91.5167 163.832 91.39 163.726 91.31C163.626 91.2233 163.446 91.1567 163.186 91.11L162.386 90.96C161.952 90.88 161.626 90.7367 161.406 90.53C161.186 90.3167 161.076 90.0433 161.076 89.71C161.076 89.4367 161.142 89.1867 161.276 88.96C161.416 88.7267 161.622 88.5433 161.896 88.41C162.169 88.27 162.512 88.2 162.926 88.2C163.266 88.2 163.586 88.25 163.886 88.35C164.186 88.45 164.456 88.5867 164.696 88.76L164.316 89.47C164.109 89.33 163.892 89.2167 163.666 89.13C163.439 89.0367 163.202 88.99 162.956 88.99C162.669 88.99 162.442 89.04 162.276 89.14C162.116 89.2333 162.036 89.3867 162.036 89.6C162.036 89.74 162.086 89.85 162.186 89.93C162.286 90.0033 162.452 90.0633 162.686 90.11L163.486 90.26C163.926 90.34 164.262 90.4833 164.496 90.69C164.729 90.8967 164.846 91.1967 164.846 91.59C164.846 92.03 164.676 92.3933 164.336 92.68C163.996 92.96 163.499 93.1 162.846 93.1ZM168.048 93.06C167.561 93.06 167.198 92.9467 166.958 92.72C166.725 92.4867 166.608 92.1267 166.608 91.64V89.1H165.578V88.3H166.608V86.96H167.548V88.3H168.768V89.1H167.548V91.56C167.548 91.7933 167.605 91.97 167.718 92.09C167.831 92.2033 168.005 92.26 168.238 92.26C168.318 92.26 168.411 92.2567 168.518 92.25C168.625 92.2433 168.708 92.2333 168.768 92.22V92.98C168.681 93.0067 168.571 93.0267 168.438 93.04C168.311 93.0533 168.181 93.06 168.048 93.06ZM172.358 93V86.32H175.018C175.812 86.32 176.418 86.4833 176.838 86.81C177.265 87.1367 177.478 87.6367 177.478 88.31C177.478 88.8767 177.328 89.3133 177.028 89.62C176.735 89.9267 176.312 90.1267 175.758 90.22L177.818 93H176.648L174.708 90.29H173.358V93H172.358ZM173.358 89.47H174.828C175.382 89.47 175.792 89.3833 176.058 89.21C176.332 89.03 176.468 88.7333 176.468 88.32C176.468 87.8933 176.338 87.5933 176.078 87.42C175.825 87.2467 175.408 87.16 174.828 87.16H173.358V89.47ZM180.215 93.1C179.868 93.1 179.561 93.0467 179.295 92.94C179.035 92.8267 178.831 92.6667 178.685 92.46C178.538 92.2467 178.465 91.9933 178.465 91.7C178.465 91.4 178.538 91.15 178.685 90.95C178.831 90.75 179.038 90.5933 179.305 90.48C179.571 90.3667 179.875 90.29 180.215 90.25L181.875 90.04C181.835 89.6867 181.701 89.4267 181.475 89.26C181.248 89.0933 180.968 89.01 180.635 89.01C180.408 89.01 180.171 89.0567 179.925 89.15C179.685 89.2367 179.428 89.3767 179.155 89.57L178.805 88.86C179.065 88.6533 179.351 88.4933 179.665 88.38C179.978 88.26 180.305 88.2 180.645 88.2C181.365 88.2 181.908 88.3633 182.275 88.69C182.641 89.0167 182.825 89.5 182.825 90.14V93H181.925V92.32C181.751 92.58 181.518 92.7767 181.225 92.91C180.938 93.0367 180.601 93.1 180.215 93.1ZM180.435 92.31C180.748 92.31 181.011 92.2467 181.225 92.12C181.445 91.9933 181.608 91.8267 181.715 91.62C181.828 91.4133 181.885 91.1967 181.885 90.97V90.76L180.485 90.94C180.138 90.9867 179.875 91.0633 179.695 91.17C179.515 91.27 179.425 91.4333 179.425 91.66C179.425 91.8667 179.511 92.0267 179.685 92.14C179.865 92.2533 180.115 92.31 180.435 92.31ZM185.821 93.06C185.335 93.06 184.971 92.9467 184.731 92.72C184.498 92.4867 184.381 92.1267 184.381 91.64V89.1H183.351V88.3H184.381V86.96H185.321V88.3H186.541V89.1H185.321V91.56C185.321 91.7933 185.378 91.97 185.491 92.09C185.605 92.2033 185.778 92.26 186.011 92.26C186.091 92.26 186.185 92.2567 186.291 92.25C186.398 92.2433 186.481 92.2333 186.541 92.22V92.98C186.455 93.0067 186.345 93.0267 186.211 93.04C186.085 93.0533 185.955 93.06 185.821 93.06ZM189.92 93.1C189.446 93.1 189.02 93.0067 188.64 92.82C188.266 92.6267 187.97 92.35 187.75 91.99C187.53 91.6233 187.42 91.1767 187.42 90.65C187.42 90.15 187.523 89.7167 187.73 89.35C187.943 88.9833 188.226 88.7 188.58 88.5C188.94 88.3 189.34 88.2 189.78 88.2C190.24 88.2 190.64 88.29 190.98 88.47C191.32 88.65 191.58 88.8933 191.76 89.2C191.946 89.5 192.04 89.8433 192.04 90.23C192.04 90.3433 192.023 90.4667 191.99 90.6C191.963 90.7333 191.926 90.84 191.88 90.92H188.38C188.413 91.22 188.496 91.4733 188.63 91.68C188.77 91.88 188.956 92.0333 189.19 92.14C189.423 92.24 189.693 92.29 190 92.29C190.306 92.29 190.576 92.2433 190.81 92.15C191.05 92.0567 191.28 91.9267 191.5 91.76L191.84 92.45C191.58 92.6633 191.286 92.8267 190.96 92.94C190.64 93.0467 190.293 93.1 189.92 93.1ZM188.38 90.2H191.07C191.076 90.18 191.08 90.1633 191.08 90.15C191.08 90.1367 191.08 90.12 191.08 90.1C191.08 89.8733 191.033 89.68 190.94 89.52C190.846 89.3533 190.706 89.2233 190.52 89.13C190.333 89.0367 190.096 88.99 189.81 88.99C189.576 88.99 189.36 89.04 189.16 89.14C188.966 89.2333 188.8 89.37 188.66 89.55C188.526 89.7233 188.433 89.94 188.38 90.2Z" fill="#46956A"/>
<path opacity="0.05" d="M159.5 12.5L160 62H231.5V26.5L219.5 22.5L207.5 21.5L195.5 22.5L183.5 21.5L171.5 17.5L159.5 12.5Z" fill="#46956A"/>
<rect x="156" y="19" width="7" height="43" rx="2" fill="#344786"/>
<rect x="168" y="24" width="7" height="38" rx="2" fill="#344786"/>
<rect x="180" y="28" width="7" height="34" rx="2" fill="#344786"/>
<rect x="192" y="29" width="7" height="33" rx="2" fill="#344786"/>
<rect x="204" y="28" width="7" height="34" rx="2" fill="#344786"/>
<rect x="228" y="33" width="7" height="29" rx="2" fill="#344786"/>
<rect x="216" y="29" width="7" height="33" rx="2" fill="#344786"/>
<path d="M231.5 26.5L219.5 22.5L207.5 21.5L195.5 22.5L183.5 21.5L171.5 17.5L159.5 12.5" stroke="#46956A" stroke-width="0.8" stroke-linecap="round"/>
<g filter="url(#filter7_d_4301_5975)">
<circle cx="159.5" cy="12.5" r="2.5" fill="white"/>
<circle cx="159.5" cy="12.5" r="1.75" stroke="#46956A" stroke-width="1.5"/>
</g>
<g filter="url(#filter8_d_4301_5975)">
<circle cx="171.5" cy="17.5" r="2.5" fill="white"/>
<circle cx="171.5" cy="17.5" r="1.75" stroke="#46956A" stroke-width="1.5"/>
</g>
<g filter="url(#filter9_d_4301_5975)">
<circle cx="183.5" cy="21.5" r="2.5" fill="white"/>
<circle cx="183.5" cy="21.5" r="1.75" stroke="#46956A" stroke-width="1.5"/>
</g>
<g filter="url(#filter10_d_4301_5975)">
<circle cx="195.5" cy="22.5" r="2.5" fill="white"/>
<circle cx="195.5" cy="22.5" r="1.75" stroke="#46956A" stroke-width="1.5"/>
</g>
<g filter="url(#filter11_d_4301_5975)">
<circle cx="207.5" cy="21.5" r="2.5" fill="white"/>
<circle cx="207.5" cy="21.5" r="1.75" stroke="#46956A" stroke-width="1.5"/>
</g>
<g filter="url(#filter12_d_4301_5975)">
<circle cx="219.5" cy="22.5" r="2.5" fill="white"/>
<circle cx="219.5" cy="22.5" r="1.75" stroke="#46956A" stroke-width="1.5"/>
</g>
<g filter="url(#filter13_d_4301_5975)">
<circle cx="231.5" cy="26.5" r="2.5" fill="white"/>
<circle cx="231.5" cy="26.5" r="1.75" stroke="#46956A" stroke-width="1.5"/>
</g>
<defs>
<filter id="filter0_d_4301_5975" x="22" y="7" width="15" height="15" filterUnits="userSpaceOnUse" color-interpolation-filters="sRGB">
<feFlood flood-opacity="0" result="BackgroundImageFix"/>
<feColorMatrix in="SourceAlpha" type="matrix" values="0 0 0 0 0 0 0 0 0 0 0 0 0 0 0 0 0 0 127 0" result="hardAlpha"/>
<feOffset dx="1" dy="1"/>
<feGaussianBlur stdDeviation="2.5"/>
<feComposite in2="hardAlpha" operator="out"/>
<feColorMatrix type="matrix" values="0 0 0 0 0.0933333 0 0 0 0 0.100702 0 0 0 0 0.233333 0 0 0 0.7 0"/>
<feBlend mode="normal" in2="BackgroundImageFix" result="effect1_dropShadow_4301_5975"/>
<feBlend mode="normal" in="SourceGraphic" in2="effect1_dropShadow_4301_5975" result="shape"/>
</filter>
<filter id="filter1_d_4301_5975" x="35" y="50" width="15" height="15" filterUnits="userSpaceOnUse" color-interpolation-filters="sRGB">
<feFlood flood-opacity="0" result="BackgroundImageFix"/>
<feColorMatrix in="SourceAlpha" type="matrix" values="0 0 0 0 0 0 0 0 0 0 0 0 0 0 0 0 0 0 127 0" result="hardAlpha"/>
<feOffset dx="1" dy="1"/>
<feGaussianBlur stdDeviation="2.5"/>
<feComposite in2="hardAlpha" operator="out"/>
<feColorMatrix type="matrix" values="0 0 0 0 0.0933333 0 0 0 0 0.100702 0 0 0 0 0.233333 0 0 0 0.7 0"/>
<feBlend mode="normal" in2="BackgroundImageFix" result="effect1_dropShadow_4301_5975"/>
<feBlend mode="normal" in="SourceGraphic" in2="effect1_dropShadow_4301_5975" result="shape"/>
</filter>
<filter id="filter2_d_4301_5975" x="48" y="15" width="15" height="15" filterUnits="userSpaceOnUse" color-interpolation-filters="sRGB">
<feFlood flood-opacity="0" result="BackgroundImageFix"/>
<feColorMatrix in="SourceAlpha" type="matrix" values="0 0 0 0 0 0 0 0 0 0 0 0 0 0 0 0 0 0 127 0" result="hardAlpha"/>
<feOffset dx="1" dy="1"/>
<feGaussianBlur stdDeviation="2.5"/>
<feComposite in2="hardAlpha" operator="out"/>
<feColorMatrix type="matrix" values="0 0 0 0 0.0933333 0 0 0 0 0.100702 0 0 0 0 0.233333 0 0 0 0.7 0"/>
<feBlend mode="normal" in2="BackgroundImageFix" result="effect1_dropShadow_4301_5975"/>
<feBlend mode="normal" in="SourceGraphic" in2="effect1_dropShadow_4301_5975" result="shape"/>
</filter>
<filter id="filter3_d_4301_5975" x="61" y="27" width="15" height="15" filterUnits="userSpaceOnUse" color-interpolation-filters="sRGB">
<feFlood flood-opacity="0" result="BackgroundImageFix"/>
<feColorMatrix in="SourceAlpha" type="matrix" values="0 0 0 0 0 0 0 0 0 0 0 0 0 0 0 0 0 0 127 0" result="hardAlpha"/>
<feOffset dx="1" dy="1"/>
<feGaussianBlur stdDeviation="2.5"/>
<feComposite in2="hardAlpha" operator="out"/>
<feColorMatrix type="matrix" values="0 0 0 0 0.0933333 0 0 0 0 0.100702 0 0 0 0 0.233333 0 0 0 0.7 0"/>
<feBlend mode="normal" in2="BackgroundImageFix" result="effect1_dropShadow_4301_5975"/>
<feBlend mode="normal" in="SourceGraphic" in2="effect1_dropShadow_4301_5975" result="shape"/>
</filter>
<filter id="filter4_d_4301_5975" x="74" y="50" width="15" height="15" filterUnits="userSpaceOnUse" color-interpolation-filters="sRGB">
<feFlood flood-opacity="0" result="BackgroundImageFix"/>
<feColorMatrix in="SourceAlpha" type="matrix" values="0 0 0 0 0 0 0 0 0 0 0 0 0 0 0 0 0 0 127 0" result="hardAlpha"/>
<feOffset dx="1" dy="1"/>
<feGaussianBlur stdDeviation="2.5"/>
<feComposite in2="hardAlpha" operator="out"/>
<feColorMatrix type="matrix" values="0 0 0 0 0.0933333 0 0 0 0 0.100702 0 0 0 0 0.233333 0 0 0 0.7 0"/>
<feBlend mode="normal" in2="BackgroundImageFix" result="effect1_dropShadow_4301_5975"/>
<feBlend mode="normal" in="SourceGraphic" in2="effect1_dropShadow_4301_5975" result="shape"/>
</filter>
<filter id="filter5_d_4301_5975" x="87" y="36" width="15" height="15" filterUnits="userSpaceOnUse" color-interpolation-filters="sRGB">
<feFlood flood-opacity="0" result="BackgroundImageFix"/>
<feColorMatrix in="SourceAlpha" type="matrix" values="0 0 0 0 0 0 0 0 0 0 0 0 0 0 0 0 0 0 127 0" result="hardAlpha"/>
<feOffset dx="1" dy="1"/>
<feGaussianBlur stdDeviation="2.5"/>
<feComposite in2="hardAlpha" operator="out"/>
<feColorMatrix type="matrix" values="0 0 0 0 0.0933333 0 0 0 0 0.100702 0 0 0 0 0.233333 0 0 0 0.7 0"/>
<feBlend mode="normal" in2="BackgroundImageFix" result="effect1_dropShadow_4301_5975"/>
<feBlend mode="normal" in="SourceGraphic" in2="effect1_dropShadow_4301_5975" result="shape"/>
</filter>
<filter id="filter6_d_4301_5975" x="100" y="25" width="15" height="15" filterUnits="userSpaceOnUse" color-interpolation-filters="sRGB">
<feFlood flood-opacity="0" result="BackgroundImageFix"/>
<feColorMatrix in="SourceAlpha" type="matrix" values="0 0 0 0 0 0 0 0 0 0 0 0 0 0 0 0 0 0 127 0" result="hardAlpha"/>
<feOffset dx="1" dy="1"/>
<feGaussianBlur stdDeviation="2.5"/>
<feComposite in2="hardAlpha" operator="out"/>
<feColorMatrix type="matrix" values="0 0 0 0 0.0933333 0 0 0 0 0.100702 0 0 0 0 0.233333 0 0 0 0.7 0"/>
<feBlend mode="normal" in2="BackgroundImageFix" result="effect1_dropShadow_4301_5975"/>
<feBlend mode="normal" in="SourceGraphic" in2="effect1_dropShadow_4301_5975" result="shape"/>
</filter>
<filter id="filter7_d_4301_5975" x="153" y="6" width="15" height="15" filterUnits="userSpaceOnUse" color-interpolation-filters="sRGB">
<feFlood flood-opacity="0" result="BackgroundImageFix"/>
<feColorMatrix in="SourceAlpha" type="matrix" values="0 0 0 0 0 0 0 0 0 0 0 0 0 0 0 0 0 0 127 0" result="hardAlpha"/>
<feOffset dx="1" dy="1"/>
<feGaussianBlur stdDeviation="2.5"/>
<feComposite in2="hardAlpha" operator="out"/>
<feColorMatrix type="matrix" values="0 0 0 0 0.0933333 0 0 0 0 0.100702 0 0 0 0 0.233333 0 0 0 0.7 0"/>
<feBlend mode="normal" in2="BackgroundImageFix" result="effect1_dropShadow_4301_5975"/>
<feBlend mode="normal" in="SourceGraphic" in2="effect1_dropShadow_4301_5975" result="shape"/>
</filter>
<filter id="filter8_d_4301_5975" x="165" y="11" width="15" height="15" filterUnits="userSpaceOnUse" color-interpolation-filters="sRGB">
<feFlood flood-opacity="0" result="BackgroundImageFix"/>
<feColorMatrix in="SourceAlpha" type="matrix" values="0 0 0 0 0 0 0 0 0 0 0 0 0 0 0 0 0 0 127 0" result="hardAlpha"/>
<feOffset dx="1" dy="1"/>
<feGaussianBlur stdDeviation="2.5"/>
<feComposite in2="hardAlpha" operator="out"/>
<feColorMatrix type="matrix" values="0 0 0 0 0.0933333 0 0 0 0 0.100702 0 0 0 0 0.233333 0 0 0 0.7 0"/>
<feBlend mode="normal" in2="BackgroundImageFix" result="effect1_dropShadow_4301_5975"/>
<feBlend mode="normal" in="SourceGraphic" in2="effect1_dropShadow_4301_5975" result="shape"/>
</filter>
<filter id="filter9_d_4301_5975" x="177" y="15" width="15" height="15" filterUnits="userSpaceOnUse" color-interpolation-filters="sRGB">
<feFlood flood-opacity="0" result="BackgroundImageFix"/>
<feColorMatrix in="SourceAlpha" type="matrix" values="0 0 0 0 0 0 0 0 0 0 0 0 0 0 0 0 0 0 127 0" result="hardAlpha"/>
<feOffset dx="1" dy="1"/>
<feGaussianBlur stdDeviation="2.5"/>
<feComposite in2="hardAlpha" operator="out"/>
<feColorMatrix type="matrix" values="0 0 0 0 0.0933333 0 0 0 0 0.100702 0 0 0 0 0.233333 0 0 0 0.7 0"/>
<feBlend mode="normal" in2="BackgroundImageFix" result="effect1_dropShadow_4301_5975"/>
<feBlend mode="normal" in="SourceGraphic" in2="effect1_dropShadow_4301_5975" result="shape"/>
</filter>
<filter id="filter10_d_4301_5975" x="189" y="16" width="15" height="15" filterUnits="userSpaceOnUse" color-interpolation-filters="sRGB">
<feFlood flood-opacity="0" result="BackgroundImageFix"/>
<feColorMatrix in="SourceAlpha" type="matrix" values="0 0 0 0 0 0 0 0 0 0 0 0 0 0 0 0 0 0 127 0" result="hardAlpha"/>
<feOffset dx="1" dy="1"/>
<feGaussianBlur stdDeviation="2.5"/>
<feComposite in2="hardAlpha" operator="out"/>
<feColorMatrix type="matrix" values="0 0 0 0 0.0933333 0 0 0 0 0.100702 0 0 0 0 0.233333 0 0 0 0.7 0"/>
<feBlend mode="normal" in2="BackgroundImageFix" result="effect1_dropShadow_4301_5975"/>
<feBlend mode="normal" in="SourceGraphic" in2="effect1_dropShadow_4301_5975" result="shape"/>
</filter>
<filter id="filter11_d_4301_5975" x="201" y="15" width="15" height="15" filterUnits="userSpaceOnUse" color-interpolation-filters="sRGB">
<feFlood flood-opacity="0" result="BackgroundImageFix"/>
<feColorMatrix in="SourceAlpha" type="matrix" values="0 0 0 0 0 0 0 0 0 0 0 0 0 0 0 0 0 0 127 0" result="hardAlpha"/>
<feOffset dx="1" dy="1"/>
<feGaussianBlur stdDeviation="2.5"/>
<feComposite in2="hardAlpha" operator="out"/>
<feColorMatrix type="matrix" values="0 0 0 0 0.0933333 0 0 0 0 0.100702 0 0 0 0 0.233333 0 0 0 0.7 0"/>
<feBlend mode="normal" in2="BackgroundImageFix" result="effect1_dropShadow_4301_5975"/>
<feBlend mode="normal" in="SourceGraphic" in2="effect1_dropShadow_4301_5975" result="shape"/>
</filter>
<filter id="filter12_d_4301_5975" x="213" y="16" width="15" height="15" filterUnits="userSpaceOnUse" color-interpolation-filters="sRGB">
<feFlood flood-opacity="0" result="BackgroundImageFix"/>
<feColorMatrix in="SourceAlpha" type="matrix" values="0 0 0 0 0 0 0 0 0 0 0 0 0 0 0 0 0 0 127 0" result="hardAlpha"/>
<feOffset dx="1" dy="1"/>
<feGaussianBlur stdDeviation="2.5"/>
<feComposite in2="hardAlpha" operator="out"/>
<feColorMatrix type="matrix" values="0 0 0 0 0.0933333 0 0 0 0 0.100702 0 0 0 0 0.233333 0 0 0 0.7 0"/>
<feBlend mode="normal" in2="BackgroundImageFix" result="effect1_dropShadow_4301_5975"/>
<feBlend mode="normal" in="SourceGraphic" in2="effect1_dropShadow_4301_5975" result="shape"/>
</filter>
<filter id="filter13_d_4301_5975" x="225" y="20" width="15" height="15" filterUnits="userSpaceOnUse" color-interpolation-filters="sRGB">
<feFlood flood-opacity="0" result="BackgroundImageFix"/>
<feColorMatrix in="SourceAlpha" type="matrix" values="0 0 0 0 0 0 0 0 0 0 0 0 0 0 0 0 0 0 127 0" result="hardAlpha"/>
<feOffset dx="1" dy="1"/>
<feGaussianBlur stdDeviation="2.5"/>
<feComposite in2="hardAlpha" operator="out"/>
<feColorMatrix type="matrix" values="0 0 0 0 0.0933333 0 0 0 0 0.100702 0 0 0 0 0.233333 0 0 0 0.7 0"/>
<feBlend mode="normal" in2="BackgroundImageFix" result="effect1_dropShadow_4301_5975"/>
<feBlend mode="normal" in="SourceGraphic" in2="effect1_dropShadow_4301_5975" result="shape"/>
</filter>
<linearGradient id="paint0_linear_4301_5975" x1="-2.6662e-07" y1="-1.22376" x2="82.1674" y2="124.464" gradientUnits="userSpaceOnUse">
<stop stop-color="#384263" stop-opacity="0.25"/>
<stop offset="1" stop-color="#384263" stop-opacity="0.15"/>
</linearGradient>
<linearGradient id="paint1_linear_4301_5975" x1="27.5572" y1="12" x2="27.5572" y2="12.0003" gradientUnits="userSpaceOnUse">
<stop stop-color="#384263" stop-opacity="0.5"/>
<stop offset="0.0643559" stop-color="#384263" stop-opacity="0.490347"/>
<stop offset="1" stop-color="#384263" stop-opacity="0.35"/>
</linearGradient>
<linearGradient id="paint2_linear_4301_5975" x1="28" y1="37.2292" x2="28.0043" y2="38.1506" gradientUnits="userSpaceOnUse">
<stop stop-color="#384263" stop-opacity="0.5"/>
<stop offset="0.0643559" stop-color="#384263" stop-opacity="0.490347"/>
<stop offset="1" stop-color="#384263" stop-opacity="0.35"/>
</linearGradient>
<linearGradient id="paint3_linear_4301_5975" x1="28" y1="62.2292" x2="28.0043" y2="63.1506" gradientUnits="userSpaceOnUse">
<stop stop-color="#384263" stop-opacity="0.5"/>
<stop offset="0.0643559" stop-color="#384263" stop-opacity="0.490347"/>
<stop offset="1" stop-color="#384263" stop-opacity="0.35"/>
</linearGradient>
<linearGradient id="paint4_linear_4301_5975" x1="125" y1="-1.22376" x2="207.167" y2="124.464" gradientUnits="userSpaceOnUse">
<stop stop-color="#384263" stop-opacity="0.25"/>
<stop offset="1" stop-color="#384263" stop-opacity="0.15"/>
</linearGradient>
<linearGradient id="paint5_linear_4301_5975" x1="152.057" y1="12" x2="152.057" y2="12.0003" gradientUnits="userSpaceOnUse">
<stop stop-color="#384263" stop-opacity="0.5"/>
<stop offset="0.0643559" stop-color="#384263" stop-opacity="0.490347"/>
<stop offset="1" stop-color="#384263" stop-opacity="0.35"/>
</linearGradient>
<linearGradient id="paint6_linear_4301_5975" x1="152" y1="37.2292" x2="152.004" y2="38.1506" gradientUnits="userSpaceOnUse">
<stop stop-color="#384263" stop-opacity="0.5"/>
<stop offset="0.0643559" stop-color="#384263" stop-opacity="0.490347"/>
<stop offset="1" stop-color="#384263" stop-opacity="0.35"/>
</linearGradient>
<linearGradient id="paint7_linear_4301_5975" x1="152" y1="62.2292" x2="152.004" y2="63.1506" gradientUnits="userSpaceOnUse">
<stop stop-color="#384263" stop-opacity="0.5"/>
<stop offset="0.0643559" stop-color="#384263" stop-opacity="0.490347"/>
<stop offset="1" stop-color="#384263" stop-opacity="0.35"/>
</linearGradient>
</defs>
</svg>
