<svg width="15" height="15" viewBox="0 0 16 15" fill="none" xmlns="http://www.w3.org/2000/svg">
<circle cx="8" cy="7.5" r="7.5" fill="#DC2626"/>
<path d="M12.8892 6.84343L11.458 6.35107C10.9317 6.17091 10.542 5.71722 10.4312 5.16544L9.82733 2.13205C9.81071 2.05659 9.74423 2 9.66667 2C9.5891 2 9.52262 2.05659 9.506 2.13205L8.90305 5.16544C8.79224 5.71722 8.40166 6.17091 7.87535 6.35107L6.44414 6.84343C6.37765 6.86606 6.33333 6.93115 6.33333 7.00094C6.33333 7.07168 6.37765 7.13677 6.44414 7.1594L7.87535 7.65176C8.40166 7.83192 8.79224 8.28561 8.90305 8.83739L9.506 11.868C9.52262 11.9434 9.5891 12 9.66667 12C9.74423 12 9.81071 11.9434 9.82733 11.868L10.4312 8.83739C10.542 8.28561 10.9317 7.83192 11.458 7.65176L12.8892 7.1594C12.9557 7.13677 13 7.07168 13 7.00094C13 6.93115 12.9557 6.86606 12.8892 6.84343Z" fill="white"/>
<path d="M5.04406 4.06293L5.61684 4.26133C5.82665 4.33387 5.984 4.512 6.02806 4.73493L6.27039 5.9456C6.27668 5.9776 6.30186 6 6.33333 6C6.3648 6 6.38998 5.9776 6.39628 5.9456L6.6386 4.73493C6.68266 4.5152 6.84002 4.33387 7.05088 4.26133L7.62366 4.06293C7.64778 4.0544 7.66667 4.0288 7.66667 4C7.66667 3.9712 7.64778 3.9456 7.62366 3.936L7.05088 3.73867C6.84002 3.66507 6.68266 3.48693 6.6386 3.264L6.39628 2.0544C6.38998 2.0224 6.3648 2 6.33333 2C6.30186 2 6.27668 2.0224 6.27039 2.0544L6.02806 3.264C5.984 3.48373 5.82665 3.66507 5.61684 3.73867L5.04406 3.936C5.01888 3.9456 5 3.9712 5 4C5 4.0288 5.01888 4.0544 5.04406 4.06293Z" fill="white"/>
<path d="M6.27755 9.59494L5.56215 9.36394C5.29791 9.28011 5.10119 9.06866 5.04835 8.81065L4.74594 7.39481C4.73713 7.35848 4.70483 7.33333 4.66667 7.33333C4.6285 7.33333 4.59327 7.35848 4.58739 7.39481L4.28499 8.81065C4.2292 9.06866 4.03249 9.28011 3.77217 9.36394L3.05578 9.59494C3.02349 9.60612 3 9.63313 3 9.66667C3 9.7002 3.02349 9.73094 3.05578 9.73932L3.77217 9.97033C4.03543 10.0532 4.23214 10.2647 4.28499 10.5236L4.58739 11.9395C4.5962 11.9749 4.6285 12 4.66667 12C4.70483 12 4.74007 11.9749 4.74594 11.9395L5.04835 10.5236C5.10413 10.2647 5.30084 10.0532 5.56215 9.97033L6.27755 9.73932C6.30985 9.72814 6.33333 9.7002 6.33333 9.66667C6.33333 9.63313 6.30985 9.60333 6.27755 9.59494Z" fill="white"/>
</svg>
