<svg width="26" height="25" viewBox="0 0 26 25" fill="none" xmlns="http://www.w3.org/2000/svg">
<circle cx="13" cy="12" r="10.5" fill="#DC2626"/>
<path d="M19.356 11.7965L17.4954 11.1564C16.8112 10.9222 16.3046 10.3324 16.1606 9.61507L15.3755 5.67167C15.3539 5.57357 15.2675 5.5 15.1667 5.5C15.0658 5.5 14.9794 5.57357 14.9578 5.67167L14.174 9.61507C14.0299 10.3324 13.5222 10.9222 12.838 11.1564L10.9774 11.7965C10.891 11.8259 10.8333 11.9105 10.8333 12.0012C10.8333 12.0932 10.891 12.1778 10.9774 12.2072L12.838 12.8473C13.5222 13.0815 14.0299 13.6713 14.174 14.3886L14.9578 18.3283C14.9794 18.4264 15.0658 18.5 15.1667 18.5C15.2675 18.5 15.3539 18.4264 15.3755 18.3283L16.1606 14.3886C16.3046 13.6713 16.8112 13.0815 17.4954 12.8473L19.356 12.2072C19.4424 12.1778 19.5 12.0932 19.5 12.0012C19.5 11.9105 19.4424 11.8259 19.356 11.7965Z" fill="white"/>
<path d="M9.15728 8.18181L9.90189 8.43973C10.1746 8.53403 10.3792 8.7656 10.4365 9.05541L10.7515 10.6293C10.7597 10.6709 10.7924 10.7 10.8333 10.7C10.8742 10.7 10.907 10.6709 10.9152 10.6293L11.2302 9.05541C11.2875 8.76976 11.492 8.53403 11.7661 8.43973L12.5108 8.18181C12.5421 8.17072 12.5667 8.13744 12.5667 8.1C12.5667 8.06256 12.5421 8.02928 12.5108 8.0168L11.7661 7.76027C11.492 7.66459 11.2875 7.43301 11.2302 7.1432L10.9152 5.57072C10.907 5.52912 10.8742 5.5 10.8333 5.5C10.7924 5.5 10.7597 5.52912 10.7515 5.57072L10.4365 7.1432C10.3792 7.42885 10.1746 7.66459 9.90189 7.76027L9.15728 8.0168C9.12455 8.02928 9.1 8.06256 9.1 8.1C9.1 8.13744 9.12455 8.17072 9.15728 8.18181Z" fill="white"/>
<path d="M10.7608 15.3734L9.83079 15.0731C9.48728 14.9641 9.23155 14.6893 9.16285 14.3538L8.76972 12.5133C8.75827 12.466 8.71628 12.4333 8.66667 12.4333C8.61705 12.4333 8.57125 12.466 8.56361 12.5133L8.17048 14.3538C8.09796 14.6893 7.84224 14.9641 7.50382 15.0731L6.57252 15.3734C6.53053 15.388 6.5 15.4231 6.5 15.4667C6.5 15.5103 6.53053 15.5502 6.57252 15.5611L7.50382 15.8614C7.84606 15.9692 8.10178 16.2441 8.17048 16.5807L8.56361 18.4213C8.57506 18.4673 8.61705 18.5 8.66667 18.5C8.71628 18.5 8.76209 18.4673 8.76972 18.4213L9.16285 16.5807C9.23537 16.2441 9.49109 15.9692 9.83079 15.8614L10.7608 15.5611C10.8028 15.5466 10.8333 15.5103 10.8333 15.4667C10.8333 15.4231 10.8028 15.3843 10.7608 15.3734Z" fill="white"/>
</svg>
