<svg width="240" height="227" viewBox="0 0 240 227" fill="none" xmlns="http://www.w3.org/2000/svg">
<rect width="240" height="35" rx="5" transform="matrix(-1 0 0 1 240 0)" fill="#181A3C"/>
<rect x="-0.5" y="0.5" width="239" height="34" rx="4.5" transform="matrix(-1 0 0 1 239 0)" stroke="url(#paint0_linear_1233_811)" stroke-opacity="0.7"/>
<circle cx="218" cy="18" r="9.5" fill="#20224E" stroke="url(#paint1_linear_1233_811)"/>
<g clip-path="url(#clip0_1233_811)">
<circle cx="218" cy="18" r="5" fill="white"/>
<path d="M221.154 15.0987L220.88 15.3733C221.535 16.0898 221.898 17.0255 221.898 17.9964C221.898 18.9672 221.535 19.903 220.88 20.6195L221.154 20.894C221.883 20.1037 222.287 19.0681 222.287 17.9932C222.287 16.9182 221.883 15.8826 221.154 15.0923V15.0987Z" fill="#5A5564"/>
<path d="M215.38 15.1225C216.096 14.4673 217.032 14.1039 218.003 14.1039C218.974 14.1039 219.91 14.4673 220.626 15.1225L220.901 14.8479C220.11 14.1192 219.075 13.7147 218 13.7147C216.925 13.7147 215.889 14.1192 215.099 14.8479L215.38 15.1225Z" fill="#5A5564"/>
<path d="M215.123 20.6222C214.468 19.9058 214.105 18.9707 214.105 18.0004C214.105 17.0302 214.468 16.095 215.123 15.3787L214.848 15.1041C214.119 15.8945 213.715 16.93 213.715 18.005C213.715 19.08 214.119 20.1155 214.848 20.9059L215.123 20.6222Z" fill="#5A5564"/>
<path d="M220.622 20.8757C219.906 21.5309 218.97 21.8942 217.999 21.8942C217.028 21.8942 216.093 21.5309 215.376 20.8757L215.102 21.1503C215.892 21.8789 216.928 22.2835 218.002 22.2835C219.077 22.2835 220.113 21.8789 220.903 21.1503L220.622 20.8757Z" fill="#5A5564"/>
<path d="M219.734 17.0839C219.679 16.5109 219.185 16.3187 218.559 16.2601V15.4712H218.076V16.2455C217.949 16.2455 217.819 16.2455 217.69 16.2455V15.4712H217.21V16.2656H216.23V16.7827C216.23 16.7827 216.587 16.7763 216.582 16.7827C216.646 16.7757 216.711 16.7938 216.762 16.8335C216.813 16.8731 216.847 16.931 216.856 16.9951V19.1697C216.855 19.1923 216.849 19.2144 216.839 19.2347C216.829 19.255 216.815 19.273 216.798 19.2878C216.781 19.3028 216.761 19.3143 216.74 19.3215C216.718 19.3288 216.696 19.3316 216.673 19.3299C216.679 19.3354 216.322 19.3299 216.322 19.3299L216.23 19.9074H217.201V20.7146H217.684V19.9193H218.071V20.711H218.555V19.9129C219.371 19.8635 219.941 19.6621 220.012 18.8979C220.07 18.2828 219.78 18.0083 219.318 17.8975C219.599 17.7593 219.773 17.503 219.734 17.0839ZM219.056 18.8027C219.056 19.4031 218.028 19.3345 217.7 19.3345V18.2691C218.028 18.27 219.056 18.1757 219.056 18.8027ZM218.832 17.3017C218.832 17.8508 217.974 17.784 217.701 17.784V16.8157C217.974 16.8157 218.832 16.7297 218.832 17.3017Z" fill="#F7931A"/>
<path d="M217.999 23C217.01 22.9998 216.044 22.7064 215.222 22.157C214.4 21.6075 213.759 20.8266 213.381 19.913C213.002 18.9994 212.903 17.9941 213.096 17.0243C213.289 16.0545 213.765 15.1637 214.465 14.4645C215.164 13.7653 216.055 13.2891 217.025 13.0961C217.994 12.9032 219 13.0021 219.913 13.3804C220.827 13.7588 221.608 14.3995 222.157 15.2216C222.707 16.0437 223 17.0103 223 17.9991C223 18.6559 222.871 19.3062 222.62 19.913C222.368 20.5198 222 21.0711 221.536 21.5355C221.071 21.9999 220.52 22.3683 219.913 22.6196C219.306 22.8709 218.656 23.0001 217.999 23ZM217.999 13.3899C217.088 13.3906 216.198 13.6614 215.441 14.168C214.684 14.6747 214.094 15.3944 213.745 16.2362C213.397 17.0781 213.306 18.0042 213.484 18.8977C213.662 19.7911 214.101 20.6117 214.746 21.2558C215.39 21.8999 216.211 22.3384 217.104 22.5161C217.998 22.6938 218.924 22.6026 219.766 22.2541C220.607 21.9055 221.327 21.3153 221.833 20.5579C222.339 19.8006 222.61 18.9101 222.61 17.9991C222.611 17.3936 222.491 16.794 222.26 16.2345C222.028 15.6751 221.688 15.1668 221.26 14.7387C220.832 14.3106 220.324 13.9712 219.764 13.7397C219.204 13.5083 218.605 13.3894 217.999 13.3899Z" fill="#282138"/>
</g>
<circle cx="204" cy="18" r="9.5" fill="#20224E" stroke="url(#paint2_linear_1233_811)"/>
<g clip-path="url(#clip1_1233_811)">
<path d="M204 23C206.762 23 209 20.7614 209 18C209 15.2386 206.762 13 204 13C201.239 13 199 15.2386 199 18C199 20.7614 201.239 23 204 23Z" fill="#627EEA"/>
<path d="M204.156 14.25V17.0219L206.499 18.0687L204.156 14.25Z" fill="white" fill-opacity="0.602"/>
<path d="M204.156 14.25L201.813 18.0687L204.156 17.0219V14.25Z" fill="white"/>
<path d="M204.156 19.865V21.7484L206.5 18.505L204.156 19.865Z" fill="white" fill-opacity="0.602"/>
<path d="M204.156 21.7484V19.8647L201.813 18.505L204.156 21.7484Z" fill="white"/>
<path d="M204.156 19.429L206.499 18.0687L204.156 17.0225V19.429Z" fill="white" fill-opacity="0.2"/>
<path d="M201.813 18.0687L204.156 19.429V17.0225L201.813 18.0687Z" fill="white" fill-opacity="0.602"/>
</g>
<circle cx="190" cy="18" r="9.5" fill="#20224E" stroke="url(#paint3_linear_1233_811)"/>
<g clip-path="url(#clip2_1233_811)">
<path fill-rule="evenodd" clip-rule="evenodd" d="M190 13C192.762 13 195 15.2385 195 18C195 20.7613 192.762 23 190 23C187.239 23 185 20.7613 185 18C185 15.2385 187.239 13 190 13Z" fill="#2775CA"/>
<path fill-rule="evenodd" clip-rule="evenodd" d="M189.063 21.4764C189.063 21.594 188.971 21.6608 188.857 21.6253C187.345 21.143 186.249 19.7255 186.249 18.0528C186.249 16.3803 187.345 14.9627 188.857 14.4804C188.971 14.4451 189.063 14.5117 189.063 14.6293V14.9197C189.063 14.998 189.002 15.0901 188.928 15.1156C187.732 15.5548 186.875 16.7039 186.875 18.0508C186.875 19.3978 187.732 20.5471 188.928 20.9861C189.002 21.0136 189.063 21.1037 189.063 21.1823V21.4764Z" fill="white"/>
<path fill-rule="evenodd" clip-rule="evenodd" d="M190.312 20.3959C190.312 20.4823 190.241 20.5529 190.155 20.5529H189.843C189.757 20.5529 189.686 20.4823 189.686 20.3959V19.9019C189.004 19.8098 188.671 19.4274 188.581 18.9078C188.565 18.8195 188.635 18.7391 188.726 18.7391H189.083C189.157 18.7391 189.22 18.7921 189.236 18.8665C189.302 19.1763 189.481 19.4136 190.028 19.4136C190.432 19.4136 190.718 19.1881 190.718 18.851C190.718 18.5136 190.549 18.3862 189.957 18.2881C189.083 18.1705 188.669 17.9057 188.669 17.2195C188.669 16.6901 189.069 16.2784 189.688 16.1901V15.7058C189.688 15.6195 189.759 15.5488 189.845 15.5488H190.157C190.243 15.5488 190.314 15.6195 190.314 15.7058V16.2038C190.818 16.2942 191.137 16.5802 191.241 17.0547C191.261 17.1451 191.19 17.2292 191.098 17.2292H190.769C190.698 17.2292 190.639 17.1821 190.618 17.1135C190.53 16.8117 190.314 16.6824 189.939 16.6824C189.526 16.6824 189.312 16.8823 189.312 17.1626C189.312 17.4587 189.434 17.6076 190.069 17.7C190.928 17.8176 191.371 18.0626 191.371 18.7942C191.371 19.349 190.959 19.798 190.314 19.9019V20.3959H190.312Z" fill="white"/>
<path fill-rule="evenodd" clip-rule="evenodd" d="M191.143 21.6253C191.03 21.6608 190.937 21.594 190.937 21.4764V21.1863C190.937 21.1 190.99 21.0196 191.073 20.9901C192.269 20.5509 193.126 19.4019 193.126 18.0549C193.126 16.7079 192.269 15.5589 191.073 15.1196C190.998 15.0921 190.937 15.002 190.937 14.9235V14.6333C190.937 14.5157 191.03 14.4471 191.143 14.4842C192.655 14.9668 193.751 16.3843 193.751 18.0569C193.749 19.7254 192.655 21.1411 191.143 21.6253Z" fill="white"/>
</g>
<path d="M12.948 22V13.984H14.832L17.424 20.524L20.016 13.984H21.9V22H20.7V15.172L17.952 22H16.896L14.148 15.172V22H12.948ZM25.5513 22.12C25.1353 22.12 24.7673 22.056 24.4473 21.928C24.1353 21.792 23.8913 21.6 23.7153 21.352C23.5393 21.096 23.4513 20.792 23.4513 20.44C23.4513 20.08 23.5393 19.78 23.7153 19.54C23.8913 19.3 24.1393 19.112 24.4593 18.976C24.7793 18.84 25.1433 18.748 25.5513 18.7L27.5433 18.448C27.4953 18.024 27.3353 17.712 27.0633 17.512C26.7913 17.312 26.4553 17.212 26.0553 17.212C25.7833 17.212 25.4993 17.268 25.2033 17.38C24.9153 17.484 24.6073 17.652 24.2793 17.884L23.8593 17.032C24.1713 16.784 24.5153 16.592 24.8913 16.456C25.2673 16.312 25.6593 16.24 26.0673 16.24C26.9313 16.24 27.5833 16.436 28.0233 16.828C28.4633 17.22 28.6833 17.8 28.6833 18.568V22H27.6033V21.184C27.3953 21.496 27.1153 21.732 26.7633 21.892C26.4193 22.044 26.0153 22.12 25.5513 22.12ZM25.8153 21.172C26.1913 21.172 26.5073 21.096 26.7633 20.944C27.0273 20.792 27.2233 20.592 27.3513 20.344C27.4873 20.096 27.5553 19.836 27.5553 19.564V19.312L25.8753 19.528C25.4593 19.584 25.1433 19.676 24.9273 19.804C24.7113 19.924 24.6033 20.12 24.6033 20.392C24.6033 20.64 24.7073 20.832 24.9153 20.968C25.1313 21.104 25.4313 21.172 25.8153 21.172ZM30.4781 22V16.36H31.5581V17.356C31.7101 17.004 31.9221 16.74 32.1941 16.564C32.4741 16.38 32.7861 16.288 33.1301 16.288C33.2421 16.288 33.3421 16.296 33.4301 16.312C33.5261 16.32 33.5981 16.336 33.6461 16.36V17.428C33.5421 17.404 33.4341 17.388 33.3221 17.38C33.2181 17.364 33.1141 17.356 33.0101 17.356C32.6101 17.356 32.2741 17.524 32.0021 17.86C31.7381 18.188 31.6061 18.66 31.6061 19.276V22H30.4781ZM37.0163 24.304C36.5523 24.304 36.1123 24.232 35.6963 24.088C35.2883 23.944 34.9003 23.712 34.5323 23.392L34.9403 22.564C35.3003 22.844 35.6443 23.04 35.9723 23.152C36.3083 23.264 36.6363 23.32 36.9563 23.32C37.5643 23.32 38.0403 23.156 38.3843 22.828C38.7283 22.5 38.9003 22.016 38.9003 21.376V20.872C38.7163 21.128 38.4563 21.34 38.1203 21.508C37.7923 21.676 37.4003 21.76 36.9443 21.76C36.4643 21.76 36.0163 21.652 35.6003 21.436C35.1923 21.22 34.8643 20.908 34.6163 20.5C34.3683 20.084 34.2443 19.584 34.2443 19C34.2443 18.416 34.3683 17.92 34.6163 17.512C34.8643 17.096 35.1923 16.78 35.6003 16.564C36.0163 16.348 36.4643 16.24 36.9443 16.24C37.4243 16.24 37.8323 16.336 38.1683 16.528C38.5123 16.712 38.7723 16.936 38.9483 17.2V16.36H40.0283V21.208C40.0283 21.872 39.9083 22.432 39.6683 22.888C39.4283 23.352 39.0843 23.704 38.6363 23.944C38.1883 24.184 37.6483 24.304 37.0163 24.304ZM37.1723 20.788C37.5003 20.788 37.7963 20.72 38.0603 20.584C38.3243 20.448 38.5363 20.248 38.6963 19.984C38.8563 19.72 38.9363 19.392 38.9363 19C38.9363 18.608 38.8563 18.28 38.6963 18.016C38.5363 17.752 38.3243 17.552 38.0603 17.416C37.7963 17.28 37.5003 17.212 37.1723 17.212C36.8523 17.212 36.5563 17.28 36.2843 17.416C36.0203 17.552 35.8083 17.752 35.6483 18.016C35.4883 18.28 35.4083 18.608 35.4083 19C35.4083 19.392 35.4883 19.72 35.6483 19.984C35.8083 20.248 36.0203 20.448 36.2843 20.584C36.5563 20.72 36.8523 20.788 37.1723 20.788ZM41.8336 22V16.36H42.9616V22H41.8336ZM42.3856 15.196C42.1856 15.196 42.0216 15.136 41.8936 15.016C41.7736 14.896 41.7136 14.74 41.7136 14.548C41.7136 14.356 41.7736 14.204 41.8936 14.092C42.0216 13.972 42.1856 13.912 42.3856 13.912C42.5936 13.912 42.7616 13.972 42.8896 14.092C43.0176 14.204 43.0816 14.356 43.0816 14.548C43.0816 14.74 43.0176 14.896 42.8896 15.016C42.7616 15.136 42.5936 15.196 42.3856 15.196ZM44.7516 22V16.36H45.8316V17.2C45.9996 16.904 46.2436 16.672 46.5636 16.504C46.8836 16.328 47.2716 16.24 47.7276 16.24C48.3756 16.24 48.8796 16.424 49.2396 16.792C49.6076 17.16 49.7916 17.736 49.7916 18.52V22H48.6636V18.664C48.6636 18.16 48.5596 17.796 48.3516 17.572C48.1516 17.34 47.8436 17.224 47.4276 17.224C46.9316 17.224 46.5476 17.392 46.2756 17.728C46.0116 18.064 45.8796 18.524 45.8796 19.108V22H44.7516Z" fill="white"/>
<rect y="146" width="115" height="55" rx="5" fill="#181A3C"/>
<rect x="0.5" y="146.5" width="114" height="54" rx="4.5" stroke="url(#paint4_linear_1233_811)" stroke-opacity="0.7"/>
<path d="M11.492 192.2L11.768 190.976C11.472 190.888 11.184 190.768 10.904 190.616C10.632 190.464 10.36 190.272 10.088 190.04L10.568 189.092C10.824 189.3 11.072 189.472 11.312 189.608C11.552 189.736 11.788 189.84 12.02 189.92L12.596 187.376L12.344 187.328C11.632 187.192 11.116 186.948 10.796 186.596C10.484 186.244 10.328 185.816 10.328 185.312C10.328 184.864 10.428 184.456 10.628 184.088C10.828 183.72 11.136 183.424 11.552 183.2C11.968 182.976 12.492 182.864 13.124 182.864C13.212 182.864 13.296 182.868 13.376 182.876C13.464 182.876 13.552 182.88 13.64 182.888L13.892 181.784H14.612L14.324 183.02C14.58 183.084 14.828 183.18 15.068 183.308C15.316 183.436 15.556 183.592 15.788 183.776L15.296 184.712C15.088 184.568 14.884 184.444 14.684 184.34C14.492 184.228 14.292 184.136 14.084 184.064L13.556 186.38L14 186.464C14.704 186.592 15.216 186.86 15.536 187.268C15.864 187.668 16.028 188.116 16.028 188.612C16.028 189.364 15.764 189.972 15.236 190.436C14.716 190.892 13.964 191.12 12.98 191.12C12.884 191.12 12.792 191.116 12.704 191.108C12.624 191.1 12.544 191.092 12.464 191.084L12.212 192.2H11.492ZM12.704 190.064C12.752 190.072 12.796 190.076 12.836 190.076C12.884 190.076 12.932 190.076 12.98 190.076C13.564 190.076 14.012 189.96 14.324 189.728C14.636 189.488 14.792 189.156 14.792 188.732C14.792 188.436 14.696 188.188 14.504 187.988C14.312 187.78 14.032 187.644 13.664 187.58L13.292 187.508L12.704 190.064ZM12.86 186.248L13.4 183.92C13.36 183.912 13.32 183.908 13.28 183.908C13.24 183.908 13.196 183.908 13.148 183.908C12.62 183.908 12.22 184.02 11.948 184.244C11.684 184.468 11.552 184.772 11.552 185.156C11.552 185.452 11.644 185.684 11.828 185.852C12.02 186.012 12.296 186.128 12.656 186.2L12.86 186.248ZM20.4536 191.12C19.7496 191.12 19.1536 190.944 18.6656 190.592C18.1776 190.232 17.8096 189.744 17.5616 189.128C17.3136 188.504 17.1896 187.792 17.1896 186.992C17.1896 186.192 17.3136 185.484 17.5616 184.868C17.8096 184.244 18.1776 183.756 18.6656 183.404C19.1536 183.044 19.7496 182.864 20.4536 182.864C21.1656 182.864 21.7616 183.044 22.2416 183.404C22.7296 183.756 23.0976 184.244 23.3456 184.868C23.6016 185.484 23.7296 186.192 23.7296 186.992C23.7296 187.792 23.6016 188.504 23.3456 189.128C23.0976 189.744 22.7296 190.232 22.2416 190.592C21.7616 190.944 21.1656 191.12 20.4536 191.12ZM20.4536 190.124C20.8536 190.124 21.2056 190.012 21.5096 189.788C21.8216 189.556 22.0616 189.208 22.2296 188.744C22.4056 188.28 22.4936 187.696 22.4936 186.992C22.4936 186.28 22.4056 185.692 22.2296 185.228C22.0616 184.764 21.8216 184.42 21.5096 184.196C21.2056 183.964 20.8536 183.848 20.4536 183.848C20.0616 183.848 19.7096 183.964 19.3976 184.196C19.0936 184.428 18.8536 184.776 18.6776 185.24C18.5016 185.696 18.4136 186.28 18.4136 186.992C18.4136 187.696 18.5016 188.28 18.6776 188.744C18.8536 189.208 19.0936 189.556 19.3976 189.788C19.7096 190.012 20.0616 190.124 20.4536 190.124Z" fill="white"/>
<path d="M32.5 186.5C32.2239 186.5 32 186.724 32 187C32 187.276 32.2239 187.5 32.5 187.5V186.5ZM42.8536 187.354C43.0488 187.158 43.0488 186.842 42.8536 186.646L39.6716 183.464C39.4763 183.269 39.1597 183.269 38.9645 183.464C38.7692 183.66 38.7692 183.976 38.9645 184.172L41.7929 187L38.9645 189.828C38.7692 190.024 38.7692 190.34 38.9645 190.536C39.1597 190.731 39.4763 190.731 39.6716 190.536L42.8536 187.354ZM32.5 187.5H42.5V186.5H32.5V187.5Z" fill="#747FA6"/>
<path d="M53.476 189.584V187.46H51.4V186.512H53.476V184.388H54.508V186.512H56.596V187.46H54.508V189.584H53.476ZM59.4764 192.2L59.7524 190.976C59.4564 190.888 59.1684 190.768 58.8884 190.616C58.6164 190.464 58.3444 190.272 58.0724 190.04L58.5524 189.092C58.8084 189.3 59.0564 189.472 59.2964 189.608C59.5364 189.736 59.7724 189.84 60.0044 189.92L60.5804 187.376L60.3284 187.328C59.6164 187.192 59.1004 186.948 58.7804 186.596C58.4684 186.244 58.3124 185.816 58.3124 185.312C58.3124 184.864 58.4124 184.456 58.6124 184.088C58.8124 183.72 59.1204 183.424 59.5364 183.2C59.9524 182.976 60.4764 182.864 61.1084 182.864C61.1964 182.864 61.2804 182.868 61.3604 182.876C61.4484 182.876 61.5364 182.88 61.6244 182.888L61.8764 181.784H62.5964L62.3084 183.02C62.5644 183.084 62.8124 183.18 63.0524 183.308C63.3004 183.436 63.5404 183.592 63.7724 183.776L63.2804 184.712C63.0724 184.568 62.8684 184.444 62.6684 184.34C62.4764 184.228 62.2764 184.136 62.0684 184.064L61.5404 186.38L61.9844 186.464C62.6884 186.592 63.2004 186.86 63.5204 187.268C63.8484 187.668 64.0124 188.116 64.0124 188.612C64.0124 189.364 63.7484 189.972 63.2204 190.436C62.7004 190.892 61.9484 191.12 60.9644 191.12C60.8684 191.12 60.7764 191.116 60.6884 191.108C60.6084 191.1 60.5284 191.092 60.4484 191.084L60.1964 192.2H59.4764ZM60.6884 190.064C60.7364 190.072 60.7804 190.076 60.8204 190.076C60.8684 190.076 60.9164 190.076 60.9644 190.076C61.5484 190.076 61.9964 189.96 62.3084 189.728C62.6204 189.488 62.7764 189.156 62.7764 188.732C62.7764 188.436 62.6804 188.188 62.4884 187.988C62.2964 187.78 62.0164 187.644 61.6484 187.58L61.2764 187.508L60.6884 190.064ZM60.8444 186.248L61.3844 183.92C61.3444 183.912 61.3044 183.908 61.2644 183.908C61.2244 183.908 61.1804 183.908 61.1324 183.908C60.6044 183.908 60.2044 184.02 59.9324 184.244C59.6684 184.468 59.5364 184.772 59.5364 185.156C59.5364 185.452 59.6284 185.684 59.8124 185.852C60.0044 186.012 60.2804 186.128 60.6404 186.2L60.8444 186.248ZM67.1299 191V184.28L65.4019 185.228L64.9339 184.304L67.4419 182.984H68.3299V191H67.1299ZM73.1254 191.12C72.4214 191.12 71.8254 190.944 71.3374 190.592C70.8494 190.232 70.4814 189.744 70.2334 189.128C69.9854 188.504 69.8614 187.792 69.8614 186.992C69.8614 186.192 69.9854 185.484 70.2334 184.868C70.4814 184.244 70.8494 183.756 71.3374 183.404C71.8254 183.044 72.4214 182.864 73.1254 182.864C73.8374 182.864 74.4334 183.044 74.9134 183.404C75.4014 183.756 75.7694 184.244 76.0174 184.868C76.2734 185.484 76.4014 186.192 76.4014 186.992C76.4014 187.792 76.2734 188.504 76.0174 189.128C75.7694 189.744 75.4014 190.232 74.9134 190.592C74.4334 190.944 73.8374 191.12 73.1254 191.12ZM73.1254 190.124C73.5254 190.124 73.8774 190.012 74.1814 189.788C74.4934 189.556 74.7334 189.208 74.9014 188.744C75.0774 188.28 75.1654 187.696 75.1654 186.992C75.1654 186.28 75.0774 185.692 74.9014 185.228C74.7334 184.764 74.4934 184.42 74.1814 184.196C73.8774 183.964 73.5254 183.848 73.1254 183.848C72.7334 183.848 72.3814 183.964 72.0694 184.196C71.7654 184.428 71.5254 184.776 71.3494 185.24C71.1734 185.696 71.0854 186.28 71.0854 186.992C71.0854 187.696 71.1734 188.28 71.3494 188.744C71.5254 189.208 71.7654 189.556 72.0694 189.788C72.3814 190.012 72.7334 190.124 73.1254 190.124ZM80.8247 191.12C80.1207 191.12 79.5247 190.944 79.0367 190.592C78.5487 190.232 78.1807 189.744 77.9327 189.128C77.6847 188.504 77.5607 187.792 77.5607 186.992C77.5607 186.192 77.6847 185.484 77.9327 184.868C78.1807 184.244 78.5487 183.756 79.0367 183.404C79.5247 183.044 80.1207 182.864 80.8247 182.864C81.5367 182.864 82.1327 183.044 82.6127 183.404C83.1007 183.756 83.4687 184.244 83.7167 184.868C83.9727 185.484 84.1007 186.192 84.1007 186.992C84.1007 187.792 83.9727 188.504 83.7167 189.128C83.4687 189.744 83.1007 190.232 82.6127 190.592C82.1327 190.944 81.5367 191.12 80.8247 191.12ZM80.8247 190.124C81.2247 190.124 81.5767 190.012 81.8807 189.788C82.1927 189.556 82.4327 189.208 82.6007 188.744C82.7767 188.28 82.8647 187.696 82.8647 186.992C82.8647 186.28 82.7767 185.692 82.6007 185.228C82.4327 184.764 82.1927 184.42 81.8807 184.196C81.5767 183.964 81.2247 183.848 80.8247 183.848C80.4327 183.848 80.0807 183.964 79.7687 184.196C79.4647 184.428 79.2247 184.776 79.0487 185.24C78.8727 185.696 78.7847 186.28 78.7847 186.992C78.7847 187.696 78.8727 188.28 79.0487 188.744C79.2247 189.208 79.4647 189.556 79.7687 189.788C80.0807 190.012 80.4327 190.124 80.8247 190.124Z" fill="#46956A"/>
<path d="M10.948 164V155.984H14.14C15.124 155.984 15.86 156.192 16.348 156.608C16.844 157.024 17.092 157.656 17.092 158.504C17.092 159.352 16.844 159.984 16.348 160.4C15.86 160.808 15.124 161.012 14.14 161.012H12.148V164H10.948ZM12.148 160.004H13.912C14.552 160.004 15.04 159.896 15.376 159.68C15.712 159.456 15.88 159.064 15.88 158.504C15.88 157.944 15.716 157.552 15.388 157.328C15.068 157.104 14.576 156.992 13.912 156.992H12.148V160.004ZM18.5875 164V158.36H19.6675V159.2C19.8355 158.904 20.0795 158.672 20.3995 158.504C20.7195 158.328 21.1075 158.24 21.5635 158.24C22.2115 158.24 22.7155 158.424 23.0755 158.792C23.4435 159.16 23.6275 159.736 23.6275 160.52V164H22.4995V160.664C22.4995 160.16 22.3955 159.796 22.1875 159.572C21.9875 159.34 21.6795 159.224 21.2635 159.224C20.7675 159.224 20.3835 159.392 20.1115 159.728C19.8475 160.064 19.7155 160.524 19.7155 161.108V164H18.5875ZM25.4793 164V155.984H26.6793V162.944H30.4233V164H25.4793Z" fill="#747FA6"/>
<rect x="125" y="146" width="115" height="55" rx="5" fill="#181A3C"/>
<rect x="125.5" y="146.5" width="114" height="54" rx="4.5" stroke="url(#paint5_linear_1233_811)" stroke-opacity="0.7"/>
<path d="M136.992 192.2L137.268 190.976C136.972 190.888 136.684 190.768 136.404 190.616C136.132 190.464 135.86 190.272 135.588 190.04L136.068 189.092C136.324 189.3 136.572 189.472 136.812 189.608C137.052 189.736 137.288 189.84 137.52 189.92L138.096 187.376L137.844 187.328C137.132 187.192 136.616 186.948 136.296 186.596C135.984 186.244 135.828 185.816 135.828 185.312C135.828 184.864 135.928 184.456 136.128 184.088C136.328 183.72 136.636 183.424 137.052 183.2C137.468 182.976 137.992 182.864 138.624 182.864C138.712 182.864 138.796 182.868 138.876 182.876C138.964 182.876 139.052 182.88 139.14 182.888L139.392 181.784H140.112L139.824 183.02C140.08 183.084 140.328 183.18 140.568 183.308C140.816 183.436 141.056 183.592 141.288 183.776L140.796 184.712C140.588 184.568 140.384 184.444 140.184 184.34C139.992 184.228 139.792 184.136 139.584 184.064L139.056 186.38L139.5 186.464C140.204 186.592 140.716 186.86 141.036 187.268C141.364 187.668 141.528 188.116 141.528 188.612C141.528 189.364 141.264 189.972 140.736 190.436C140.216 190.892 139.464 191.12 138.48 191.12C138.384 191.12 138.292 191.116 138.204 191.108C138.124 191.1 138.044 191.092 137.964 191.084L137.712 192.2H136.992ZM138.204 190.064C138.252 190.072 138.296 190.076 138.336 190.076C138.384 190.076 138.432 190.076 138.48 190.076C139.064 190.076 139.512 189.96 139.824 189.728C140.136 189.488 140.292 189.156 140.292 188.732C140.292 188.436 140.196 188.188 140.004 187.988C139.812 187.78 139.532 187.644 139.164 187.58L138.792 187.508L138.204 190.064ZM138.36 186.248L138.9 183.92C138.86 183.912 138.82 183.908 138.78 183.908C138.74 183.908 138.696 183.908 138.648 183.908C138.12 183.908 137.72 184.02 137.448 184.244C137.184 184.468 137.052 184.772 137.052 185.156C137.052 185.452 137.144 185.684 137.328 185.852C137.52 186.012 137.796 186.128 138.156 186.2L138.36 186.248ZM145.954 191.12C145.25 191.12 144.654 190.944 144.166 190.592C143.678 190.232 143.31 189.744 143.062 189.128C142.814 188.504 142.69 187.792 142.69 186.992C142.69 186.192 142.814 185.484 143.062 184.868C143.31 184.244 143.678 183.756 144.166 183.404C144.654 183.044 145.25 182.864 145.954 182.864C146.666 182.864 147.262 183.044 147.742 183.404C148.23 183.756 148.598 184.244 148.846 184.868C149.102 185.484 149.23 186.192 149.23 186.992C149.23 187.792 149.102 188.504 148.846 189.128C148.598 189.744 148.23 190.232 147.742 190.592C147.262 190.944 146.666 191.12 145.954 191.12ZM145.954 190.124C146.354 190.124 146.706 190.012 147.01 189.788C147.322 189.556 147.562 189.208 147.73 188.744C147.906 188.28 147.994 187.696 147.994 186.992C147.994 186.28 147.906 185.692 147.73 185.228C147.562 184.764 147.322 184.42 147.01 184.196C146.706 183.964 146.354 183.848 145.954 183.848C145.562 183.848 145.21 183.964 144.898 184.196C144.594 184.428 144.354 184.776 144.178 185.24C144.002 185.696 143.914 186.28 143.914 186.992C143.914 187.696 144.002 188.28 144.178 188.744C144.354 189.208 144.594 189.556 144.898 189.788C145.21 190.012 145.562 190.124 145.954 190.124Z" fill="white"/>
<path d="M158 186.5C157.724 186.5 157.5 186.724 157.5 187C157.5 187.276 157.724 187.5 158 187.5V186.5ZM168.354 187.354C168.549 187.158 168.549 186.842 168.354 186.646L165.172 183.464C164.976 183.269 164.66 183.269 164.464 183.464C164.269 183.66 164.269 183.976 164.464 184.172L167.293 187L164.464 189.828C164.269 190.024 164.269 190.34 164.464 190.536C164.66 190.731 164.976 190.731 165.172 190.536L168.354 187.354ZM158 187.5H168V186.5H158V187.5Z" fill="#747FA6"/>
<path d="M176.588 188.024V187.112H179.84V188.024H176.588ZM182.41 192.2L182.686 190.976C182.39 190.888 182.102 190.768 181.822 190.616C181.55 190.464 181.278 190.272 181.006 190.04L181.486 189.092C181.742 189.3 181.99 189.472 182.23 189.608C182.47 189.736 182.706 189.84 182.938 189.92L183.514 187.376L183.262 187.328C182.55 187.192 182.034 186.948 181.714 186.596C181.402 186.244 181.246 185.816 181.246 185.312C181.246 184.864 181.346 184.456 181.546 184.088C181.746 183.72 182.054 183.424 182.47 183.2C182.886 182.976 183.41 182.864 184.042 182.864C184.13 182.864 184.214 182.868 184.294 182.876C184.382 182.876 184.47 182.88 184.558 182.888L184.81 181.784H185.53L185.242 183.02C185.498 183.084 185.746 183.18 185.986 183.308C186.234 183.436 186.474 183.592 186.706 183.776L186.214 184.712C186.006 184.568 185.802 184.444 185.602 184.34C185.41 184.228 185.21 184.136 185.002 184.064L184.474 186.38L184.918 186.464C185.622 186.592 186.134 186.86 186.454 187.268C186.782 187.668 186.946 188.116 186.946 188.612C186.946 189.364 186.682 189.972 186.154 190.436C185.634 190.892 184.882 191.12 183.898 191.12C183.802 191.12 183.71 191.116 183.622 191.108C183.542 191.1 183.462 191.092 183.382 191.084L183.13 192.2H182.41ZM183.622 190.064C183.67 190.072 183.714 190.076 183.754 190.076C183.802 190.076 183.85 190.076 183.898 190.076C184.482 190.076 184.93 189.96 185.242 189.728C185.554 189.488 185.71 189.156 185.71 188.732C185.71 188.436 185.614 188.188 185.422 187.988C185.23 187.78 184.95 187.644 184.582 187.58L184.21 187.508L183.622 190.064ZM183.778 186.248L184.318 183.92C184.278 183.912 184.238 183.908 184.198 183.908C184.158 183.908 184.114 183.908 184.066 183.908C183.538 183.908 183.138 184.02 182.866 184.244C182.602 184.468 182.47 184.772 182.47 185.156C182.47 185.452 182.562 185.684 182.746 185.852C182.938 186.012 183.214 186.128 183.574 186.2L183.778 186.248ZM190.064 191V184.28L188.336 185.228L187.868 184.304L190.376 182.984H191.264V191H190.064ZM196.059 191.12C195.355 191.12 194.759 190.944 194.271 190.592C193.783 190.232 193.415 189.744 193.167 189.128C192.919 188.504 192.795 187.792 192.795 186.992C192.795 186.192 192.919 185.484 193.167 184.868C193.415 184.244 193.783 183.756 194.271 183.404C194.759 183.044 195.355 182.864 196.059 182.864C196.771 182.864 197.367 183.044 197.847 183.404C198.335 183.756 198.703 184.244 198.951 184.868C199.207 185.484 199.335 186.192 199.335 186.992C199.335 187.792 199.207 188.504 198.951 189.128C198.703 189.744 198.335 190.232 197.847 190.592C197.367 190.944 196.771 191.12 196.059 191.12ZM196.059 190.124C196.459 190.124 196.811 190.012 197.115 189.788C197.427 189.556 197.667 189.208 197.835 188.744C198.011 188.28 198.099 187.696 198.099 186.992C198.099 186.28 198.011 185.692 197.835 185.228C197.667 184.764 197.427 184.42 197.115 184.196C196.811 183.964 196.459 183.848 196.059 183.848C195.667 183.848 195.315 183.964 195.003 184.196C194.699 184.428 194.459 184.776 194.283 185.24C194.107 185.696 194.019 186.28 194.019 186.992C194.019 187.696 194.107 188.28 194.283 188.744C194.459 189.208 194.699 189.556 195.003 189.788C195.315 190.012 195.667 190.124 196.059 190.124ZM203.758 191.12C203.054 191.12 202.458 190.944 201.97 190.592C201.482 190.232 201.114 189.744 200.866 189.128C200.618 188.504 200.494 187.792 200.494 186.992C200.494 186.192 200.618 185.484 200.866 184.868C201.114 184.244 201.482 183.756 201.97 183.404C202.458 183.044 203.054 182.864 203.758 182.864C204.47 182.864 205.066 183.044 205.546 183.404C206.034 183.756 206.402 184.244 206.65 184.868C206.906 185.484 207.034 186.192 207.034 186.992C207.034 187.792 206.906 188.504 206.65 189.128C206.402 189.744 206.034 190.232 205.546 190.592C205.066 190.944 204.47 191.12 203.758 191.12ZM203.758 190.124C204.158 190.124 204.51 190.012 204.814 189.788C205.126 189.556 205.366 189.208 205.534 188.744C205.71 188.28 205.798 187.696 205.798 186.992C205.798 186.28 205.71 185.692 205.534 185.228C205.366 184.764 205.126 184.42 204.814 184.196C204.51 183.964 204.158 183.848 203.758 183.848C203.366 183.848 203.014 183.964 202.702 184.196C202.398 184.428 202.158 184.776 201.982 185.24C201.806 185.696 201.718 186.28 201.718 186.992C201.718 187.696 201.806 188.28 201.982 188.744C202.158 189.208 202.398 189.556 202.702 189.788C203.014 190.012 203.366 190.124 203.758 190.124Z" fill="#C75E4B"/>
<path d="M135.948 164V155.984H139.14C140.124 155.984 140.86 156.192 141.348 156.608C141.844 157.024 142.092 157.656 142.092 158.504C142.092 159.352 141.844 159.984 141.348 160.4C140.86 160.808 140.124 161.012 139.14 161.012H137.148V164H135.948ZM137.148 160.004H138.912C139.552 160.004 140.04 159.896 140.376 159.68C140.712 159.456 140.88 159.064 140.88 158.504C140.88 157.944 140.716 157.552 140.388 157.328C140.068 157.104 139.576 156.992 138.912 156.992H137.148V160.004ZM143.588 164V158.36H144.668V159.2C144.836 158.904 145.08 158.672 145.4 158.504C145.72 158.328 146.108 158.24 146.564 158.24C147.212 158.24 147.716 158.424 148.076 158.792C148.444 159.16 148.628 159.736 148.628 160.52V164H147.5V160.664C147.5 160.16 147.396 159.796 147.188 159.572C146.988 159.34 146.68 159.224 146.264 159.224C145.768 159.224 145.384 159.392 145.112 159.728C144.848 160.064 144.716 160.524 144.716 161.108V164H143.588ZM150.479 164V155.984H151.679V162.944H155.423V164H150.479Z" fill="#747FA6"/>
<rect y="61" width="115" height="55" rx="5" fill="#181A3C"/>
<rect x="0.5" y="61.5" width="114" height="54" rx="4.5" stroke="url(#paint6_linear_1233_811)" stroke-opacity="0.7"/>
<rect x="68" y="94" width="37" height="15" rx="5" fill="#6988FF" fill-opacity="0.1"/>
<rect x="68.5" y="94.5" width="36" height="14" rx="4.5" stroke="#6988FF" stroke-opacity="0.1"/>
<path d="M71.79 105V98.32H72.79V101.12H76.41V98.32H77.41V105H76.41V102H72.79V105H71.79ZM81.1873 105.1C80.7139 105.1 80.2873 105.007 79.9073 104.82C79.5339 104.627 79.2373 104.35 79.0173 103.99C78.7973 103.623 78.6873 103.177 78.6873 102.65C78.6873 102.15 78.7906 101.717 78.9973 101.35C79.2106 100.983 79.4939 100.7 79.8473 100.5C80.2073 100.3 80.6073 100.2 81.0473 100.2C81.5073 100.2 81.9073 100.29 82.2473 100.47C82.5873 100.65 82.8473 100.893 83.0273 101.2C83.2139 101.5 83.3073 101.843 83.3073 102.23C83.3073 102.343 83.2906 102.467 83.2573 102.6C83.2306 102.733 83.1939 102.84 83.1473 102.92H79.6473C79.6806 103.22 79.7639 103.473 79.8973 103.68C80.0373 103.88 80.2239 104.033 80.4573 104.14C80.6906 104.24 80.9606 104.29 81.2673 104.29C81.5739 104.29 81.8439 104.243 82.0773 104.15C82.3173 104.057 82.5473 103.927 82.7673 103.76L83.1073 104.45C82.8473 104.663 82.5539 104.827 82.2273 104.94C81.9073 105.047 81.5606 105.1 81.1873 105.1ZM79.6473 102.2H82.3373C82.3439 102.18 82.3473 102.163 82.3473 102.15C82.3473 102.137 82.3473 102.12 82.3473 102.1C82.3473 101.873 82.3006 101.68 82.2073 101.52C82.1139 101.353 81.9739 101.223 81.7873 101.13C81.6006 101.037 81.3639 100.99 81.0773 100.99C80.8439 100.99 80.6273 101.04 80.4273 101.14C80.2339 101.233 80.0673 101.37 79.9273 101.55C79.7939 101.723 79.7006 101.94 79.6473 102.2ZM86.533 105.1C86.1063 105.1 85.723 105 85.383 104.8C85.043 104.6 84.773 104.317 84.573 103.95C84.3796 103.583 84.283 103.15 84.283 102.65C84.283 102.143 84.3796 101.71 84.573 101.35C84.773 100.983 85.043 100.7 85.383 100.5C85.723 100.3 86.1063 100.2 86.533 100.2C86.9063 100.2 87.233 100.273 87.513 100.42C87.793 100.56 88.0096 100.75 88.163 100.99V98.32H89.103V105H88.203V104.25C88.0563 104.503 87.8396 104.71 87.553 104.87C87.2663 105.023 86.9263 105.1 86.533 105.1ZM86.723 104.28C87.0163 104.28 87.273 104.213 87.493 104.08C87.713 103.947 87.8863 103.76 88.013 103.52C88.1396 103.273 88.203 102.983 88.203 102.65C88.203 102.317 88.1396 102.03 88.013 101.79C87.8863 101.543 87.713 101.353 87.493 101.22C87.273 101.087 87.0196 101.02 86.733 101.02C86.4396 101.02 86.1796 101.087 85.953 101.22C85.733 101.353 85.5596 101.543 85.433 101.79C85.313 102.03 85.253 102.317 85.253 102.65C85.253 102.983 85.3163 103.273 85.443 103.52C85.5696 103.76 85.743 103.947 85.963 104.08C86.183 104.213 86.4363 104.28 86.723 104.28ZM92.6574 106.92C92.2708 106.92 91.9041 106.86 91.5574 106.74C91.2174 106.62 90.8941 106.427 90.5874 106.16L90.9274 105.47C91.2274 105.703 91.5141 105.867 91.7874 105.96C92.0674 106.053 92.3408 106.1 92.6074 106.1C93.1141 106.1 93.5108 105.963 93.7974 105.69C94.0841 105.417 94.2274 105.013 94.2274 104.48V104.06C94.0741 104.273 93.8574 104.45 93.5774 104.59C93.3041 104.73 92.9774 104.8 92.5974 104.8C92.1974 104.8 91.8241 104.71 91.4774 104.53C91.1374 104.35 90.8641 104.09 90.6574 103.75C90.4508 103.403 90.3474 102.987 90.3474 102.5C90.3474 102.013 90.4508 101.6 90.6574 101.26C90.8641 100.913 91.1374 100.65 91.4774 100.47C91.8241 100.29 92.1974 100.2 92.5974 100.2C92.9974 100.2 93.3374 100.28 93.6174 100.44C93.9041 100.593 94.1208 100.78 94.2674 101V100.3H95.1674V104.34C95.1674 104.893 95.0674 105.36 94.8674 105.74C94.6674 106.127 94.3808 106.42 94.0074 106.62C93.6341 106.82 93.1841 106.92 92.6574 106.92ZM92.7874 103.99C93.0608 103.99 93.3074 103.933 93.5274 103.82C93.7474 103.707 93.9241 103.54 94.0574 103.32C94.1908 103.1 94.2574 102.827 94.2574 102.5C94.2574 102.173 94.1908 101.9 94.0574 101.68C93.9241 101.46 93.7474 101.293 93.5274 101.18C93.3074 101.067 93.0608 101.01 92.7874 101.01C92.5208 101.01 92.2741 101.067 92.0474 101.18C91.8274 101.293 91.6508 101.46 91.5174 101.68C91.3841 101.9 91.3174 102.173 91.3174 102.5C91.3174 102.827 91.3841 103.1 91.5174 103.32C91.6508 103.54 91.8274 103.707 92.0474 103.82C92.2741 103.933 92.5208 103.99 92.7874 103.99ZM98.9119 105.1C98.4385 105.1 98.0119 105.007 97.6319 104.82C97.2585 104.627 96.9619 104.35 96.7419 103.99C96.5219 103.623 96.4119 103.177 96.4119 102.65C96.4119 102.15 96.5152 101.717 96.7219 101.35C96.9352 100.983 97.2185 100.7 97.5719 100.5C97.9319 100.3 98.3319 100.2 98.7719 100.2C99.2319 100.2 99.6319 100.29 99.9719 100.47C100.312 100.65 100.572 100.893 100.752 101.2C100.939 101.5 101.032 101.843 101.032 102.23C101.032 102.343 101.015 102.467 100.982 102.6C100.955 102.733 100.919 102.84 100.872 102.92H97.3719C97.4052 103.22 97.4885 103.473 97.6219 103.68C97.7619 103.88 97.9485 104.033 98.1819 104.14C98.4152 104.24 98.6852 104.29 98.9919 104.29C99.2985 104.29 99.5685 104.243 99.8019 104.15C100.042 104.057 100.272 103.927 100.492 103.76L100.832 104.45C100.572 104.663 100.279 104.827 99.9519 104.94C99.6319 105.047 99.2852 105.1 98.9119 105.1ZM97.3719 102.2H100.062C100.069 102.18 100.072 102.163 100.072 102.15C100.072 102.137 100.072 102.12 100.072 102.1C100.072 101.873 100.025 101.68 99.9319 101.52C99.8385 101.353 99.6985 101.223 99.5119 101.13C99.3252 101.037 99.0885 100.99 98.8019 100.99C98.5685 100.99 98.3519 101.04 98.1519 101.14C97.9585 101.233 97.7919 101.37 97.6519 101.55C97.5185 101.723 97.4252 101.94 97.3719 102.2Z" fill="#6988FF"/>
<g clip-path="url(#clip3_1233_811)">
<path d="M16 108C19.3137 108 22 105.314 22 102C22 98.6863 19.3137 96 16 96C12.6863 96 10 98.6863 10 102C10 105.314 12.6863 108 16 108Z" fill="#627EEA"/>
<path d="M16.1867 97.5V100.826L18.9981 102.082L16.1867 97.5Z" fill="white" fill-opacity="0.602"/>
<path d="M16.1867 97.5L13.375 102.082L16.1867 100.826V97.5Z" fill="white"/>
<path d="M16.1867 104.238V106.498L19 102.606L16.1867 104.238Z" fill="white" fill-opacity="0.602"/>
<path d="M16.1867 106.498V104.238L13.375 102.606L16.1867 106.498Z" fill="white"/>
<path d="M16.1867 103.715L18.9981 102.083L16.1867 100.827V103.715Z" fill="white" fill-opacity="0.2"/>
<path d="M13.375 102.083L16.1867 103.715V100.827L13.375 102.083Z" fill="white" fill-opacity="0.602"/>
</g>
<path d="M28.8565 106V99.28L27.1285 100.228L26.6605 99.304L29.1685 97.984H30.0565V106H28.8565Z" fill="white"/>
<path d="M10.948 79V70.984H12.148V77.932H15.904V79H10.948ZM19.7275 79.12C19.1515 79.12 18.6395 79 18.1915 78.76C17.7435 78.512 17.3955 78.168 17.1475 77.728C16.8995 77.288 16.7755 76.772 16.7755 76.18C16.7755 75.588 16.8995 75.072 17.1475 74.632C17.3955 74.192 17.7435 73.852 18.1915 73.612C18.6395 73.364 19.1515 73.24 19.7275 73.24C20.3115 73.24 20.8235 73.364 21.2635 73.612C21.7115 73.852 22.0595 74.192 22.3075 74.632C22.5635 75.072 22.6915 75.588 22.6915 76.18C22.6915 76.772 22.5635 77.288 22.3075 77.728C22.0595 78.168 21.7115 78.512 21.2635 78.76C20.8235 79 20.3115 79.12 19.7275 79.12ZM19.7275 78.124C20.0875 78.124 20.4035 78.048 20.6755 77.896C20.9475 77.736 21.1555 77.512 21.2995 77.224C21.4515 76.928 21.5275 76.58 21.5275 76.18C21.5275 75.78 21.4515 75.436 21.2995 75.148C21.1555 74.852 20.9475 74.624 20.6755 74.464C20.4035 74.304 20.0875 74.224 19.7275 74.224C19.3675 74.224 19.0515 74.304 18.7795 74.464C18.5155 74.624 18.3075 74.852 18.1555 75.148C18.0035 75.436 17.9275 75.78 17.9275 76.18C17.9275 76.58 18.0035 76.928 18.1555 77.224C18.3075 77.512 18.5155 77.736 18.7795 77.896C19.0515 78.048 19.3675 78.124 19.7275 78.124ZM24.1656 79V73.36H25.2576V74.2C25.4256 73.904 25.6656 73.672 25.9776 73.504C26.2976 73.328 26.6856 73.24 27.1416 73.24C27.7896 73.24 28.2976 73.424 28.6656 73.792C29.0336 74.16 29.2176 74.736 29.2176 75.52V79H28.0776V75.664C28.0776 75.16 27.9736 74.796 27.7656 74.572C27.5656 74.34 27.2576 74.224 26.8416 74.224C26.3536 74.224 25.9736 74.392 25.7016 74.728C25.4296 75.064 25.2936 75.524 25.2936 76.108V79H24.1656ZM33.4694 81.304C33.0054 81.304 32.5654 81.232 32.1494 81.088C31.7414 80.944 31.3534 80.712 30.9854 80.392L31.3934 79.552C31.7534 79.84 32.0974 80.04 32.4254 80.152C32.7614 80.264 33.0894 80.32 33.4094 80.32C34.0174 80.32 34.4934 80.156 34.8374 79.828C35.1814 79.5 35.3534 79.016 35.3534 78.376V77.872C35.1694 78.128 34.9094 78.34 34.5734 78.508C34.2454 78.676 33.8534 78.76 33.3974 78.76C32.9174 78.76 32.4694 78.652 32.0534 78.436C31.6454 78.22 31.3174 77.908 31.0694 77.5C30.8214 77.084 30.6974 76.584 30.6974 76C30.6974 75.408 30.8214 74.908 31.0694 74.5C31.3174 74.092 31.6454 73.78 32.0534 73.564C32.4694 73.348 32.9174 73.24 33.3974 73.24C33.8774 73.24 34.2854 73.332 34.6214 73.516C34.9654 73.7 35.2254 73.928 35.4014 74.2V73.36H36.4934V78.208C36.4934 78.864 36.3694 79.424 36.1214 79.888C35.8814 80.352 35.5374 80.704 35.0894 80.944C34.6414 81.184 34.1014 81.304 33.4694 81.304ZM33.6374 77.788C33.9574 77.788 34.2494 77.72 34.5134 77.584C34.7774 77.448 34.9894 77.248 35.1494 76.984C35.3094 76.712 35.3894 76.384 35.3894 76C35.3894 75.608 35.3094 75.28 35.1494 75.016C34.9894 74.752 34.7774 74.552 34.5134 74.416C34.2494 74.28 33.9574 74.212 33.6374 74.212C33.3174 74.212 33.0214 74.28 32.7494 74.416C32.4854 74.552 32.2694 74.752 32.1014 75.016C31.9414 75.28 31.8614 75.608 31.8614 76C31.8614 76.384 31.9414 76.712 32.1014 76.984C32.2694 77.248 32.4854 77.448 32.7494 77.584C33.0214 77.72 33.3174 77.788 33.6374 77.788ZM41.2293 79V70.984H44.4213C45.4053 70.984 46.1453 71.192 46.6413 71.608C47.1373 72.024 47.3853 72.656 47.3853 73.504C47.3853 74.352 47.1373 74.984 46.6413 75.4C46.1453 75.808 45.4053 76.012 44.4213 76.012H42.4293V79H41.2293ZM42.4293 75.004H44.1933C44.8333 75.004 45.3213 74.892 45.6573 74.668C45.9933 74.444 46.1613 74.056 46.1613 73.504C46.1613 72.944 45.9973 72.552 45.6693 72.328C45.3493 72.104 44.8573 71.992 44.1933 71.992H42.4293V75.004ZM50.9328 79.12C50.2848 79.12 49.7768 78.936 49.4088 78.568C49.0488 78.2 48.8688 77.624 48.8688 76.84V73.36H49.9968V76.696C49.9968 77.192 50.0968 77.556 50.2968 77.788C50.5048 78.012 50.8208 78.124 51.2448 78.124C51.7328 78.124 52.1088 77.96 52.3728 77.632C52.6448 77.296 52.7808 76.836 52.7808 76.252V73.36H53.9208V79H52.8288V78.16C52.6608 78.456 52.4168 78.692 52.0968 78.868C51.7768 79.036 51.3888 79.12 50.9328 79.12ZM58.0765 79.072C57.4845 79.072 57.0445 78.936 56.7565 78.664C56.4765 78.384 56.3365 77.952 56.3365 77.368V74.32H55.1005V73.36H56.3365V71.752H57.4645V73.36H58.9285V74.32H57.4645V77.272C57.4645 77.552 57.5325 77.76 57.6685 77.896C57.8045 78.032 58.0165 78.1 58.3045 78.1C58.4005 78.1 58.5085 78.096 58.6285 78.088C58.7565 78.08 58.8565 78.068 58.9285 78.052V78.964C58.8325 78.996 58.7045 79.02 58.5445 79.036C58.3845 79.06 58.2285 79.072 58.0765 79.072Z" fill="#C75E4B"/>
<path d="M65.3889 71.7471C65.1741 71.5323 64.8259 71.5323 64.6111 71.7471C64.3963 71.9619 64.3963 72.3101 64.6111 72.5249L65.3889 71.7471ZM71.364 79.0499C71.6677 79.0499 71.914 78.8037 71.914 78.4999L71.914 73.5499C71.914 73.2462 71.6677 72.9999 71.364 72.9999C71.0602 72.9999 70.814 73.2462 70.814 73.5499L70.814 77.9499L66.414 77.9499C66.1102 77.9499 65.864 78.1962 65.864 78.4999C65.864 78.8037 66.1102 79.0499 66.414 79.0499L71.364 79.0499ZM64.6111 72.5249L70.9751 78.8889L71.7529 78.111L65.3889 71.7471L64.6111 72.5249Z" fill="#C75E4B"/>
<rect x="125" y="61" width="115" height="55" rx="5" fill="#181A3C"/>
<rect x="125.5" y="61.5" width="114" height="54" rx="4.5" stroke="url(#paint7_linear_1233_811)" stroke-opacity="0.7"/>
<g clip-path="url(#clip4_1233_811)">
<path d="M141 108C144.314 108 147 105.314 147 102C147 98.6863 144.314 96 141 96C137.686 96 135 98.6863 135 102C135 105.314 137.686 108 141 108Z" fill="#627EEA"/>
<path d="M141.187 97.5V100.826L143.998 102.082L141.187 97.5Z" fill="white" fill-opacity="0.602"/>
<path d="M141.187 97.5L138.375 102.082L141.187 100.826V97.5Z" fill="white"/>
<path d="M141.187 104.238V106.498L144 102.606L141.187 104.238Z" fill="white" fill-opacity="0.602"/>
<path d="M141.187 106.498V104.238L138.375 102.606L141.187 106.498Z" fill="white"/>
<path d="M141.187 103.715L143.998 102.083L141.187 100.827V103.715Z" fill="white" fill-opacity="0.2"/>
<path d="M138.375 102.083L141.187 103.715V100.827L138.375 102.083Z" fill="white" fill-opacity="0.602"/>
</g>
<path d="M155.059 106.12C154.355 106.12 153.759 105.944 153.271 105.592C152.783 105.232 152.415 104.744 152.167 104.128C151.919 103.504 151.795 102.792 151.795 101.992C151.795 101.192 151.919 100.484 152.167 99.868C152.415 99.244 152.783 98.756 153.271 98.404C153.759 98.044 154.355 97.864 155.059 97.864C155.771 97.864 156.367 98.044 156.847 98.404C157.335 98.756 157.703 99.244 157.951 99.868C158.207 100.484 158.335 101.192 158.335 101.992C158.335 102.792 158.207 103.504 157.951 104.128C157.703 104.744 157.335 105.232 156.847 105.592C156.367 105.944 155.771 106.12 155.059 106.12ZM155.059 105.124C155.459 105.124 155.811 105.012 156.115 104.788C156.427 104.556 156.667 104.208 156.835 103.744C157.011 103.28 157.099 102.696 157.099 101.992C157.099 101.28 157.011 100.692 156.835 100.228C156.667 99.764 156.427 99.42 156.115 99.196C155.811 98.964 155.459 98.848 155.059 98.848C154.667 98.848 154.315 98.964 154.003 99.196C153.699 99.428 153.459 99.776 153.283 100.24C153.107 100.696 153.019 101.28 153.019 101.992C153.019 102.696 153.107 103.28 153.283 103.744C153.459 104.208 153.699 104.556 154.003 104.788C154.315 105.012 154.667 105.124 155.059 105.124ZM160.454 106.072C160.246 106.072 160.078 106.012 159.95 105.892C159.822 105.764 159.758 105.608 159.758 105.424C159.758 105.232 159.822 105.076 159.95 104.956C160.078 104.828 160.246 104.764 160.454 104.764C160.662 104.764 160.83 104.828 160.958 104.956C161.086 105.076 161.15 105.232 161.15 105.424C161.15 105.608 161.086 105.764 160.958 105.892C160.83 106.012 160.662 106.072 160.454 106.072ZM162.857 106V99.28L161.129 100.228L160.661 99.304L163.169 97.984H164.057V106H162.857Z" fill="white"/>
<path d="M173 101.5C172.724 101.5 172.5 101.724 172.5 102C172.5 102.276 172.724 102.5 173 102.5V101.5ZM183.354 102.354C183.549 102.158 183.549 101.842 183.354 101.646L180.172 98.4645C179.976 98.2692 179.66 98.2692 179.464 98.4645C179.269 98.6597 179.269 98.9763 179.464 99.1716L182.293 102L179.464 104.828C179.269 105.024 179.269 105.34 179.464 105.536C179.66 105.731 179.976 105.731 180.172 105.536L183.354 102.354ZM173 102.5H183V101.5H173V102.5Z" fill="#747FA6"/>
<g clip-path="url(#clip5_1233_811)">
<path d="M197 108C200.314 108 203 105.314 203 102C203 98.6863 200.314 96 197 96C193.686 96 191 98.6863 191 102C191 105.314 193.686 108 197 108Z" fill="#627EEA"/>
<path d="M197.187 97.5V100.826L199.998 102.082L197.187 97.5Z" fill="white" fill-opacity="0.602"/>
<path d="M197.187 97.5L194.375 102.082L197.187 100.826V97.5Z" fill="white"/>
<path d="M197.187 104.238V106.498L200 102.606L197.187 104.238Z" fill="white" fill-opacity="0.602"/>
<path d="M197.187 106.498V104.238L194.375 102.606L197.187 106.498Z" fill="white"/>
<path d="M197.187 103.715L199.998 102.083L197.187 100.827V103.715Z" fill="white" fill-opacity="0.2"/>
<path d="M194.375 102.083L197.187 103.715V100.827L194.375 102.083Z" fill="white" fill-opacity="0.602"/>
</g>
<path d="M209.857 106V99.28L208.129 100.228L207.661 99.304L210.169 97.984H211.057V106H209.857Z" fill="white"/>
<path d="M135.3 79L137.46 76.084L135.42 73.36H136.728L138.18 75.388L139.644 73.36H140.952L138.912 76.084L141.072 79H139.764L138.18 76.852L136.608 79H135.3ZM143.919 79V72.28L142.191 73.228L141.723 72.304L144.231 70.984H145.119V79H143.919ZM149.915 79.12C149.211 79.12 148.615 78.944 148.127 78.592C147.639 78.232 147.271 77.744 147.023 77.128C146.775 76.504 146.651 75.792 146.651 74.992C146.651 74.192 146.775 73.484 147.023 72.868C147.271 72.244 147.639 71.756 148.127 71.404C148.615 71.044 149.211 70.864 149.915 70.864C150.627 70.864 151.223 71.044 151.703 71.404C152.191 71.756 152.559 72.244 152.807 72.868C153.063 73.484 153.191 74.192 153.191 74.992C153.191 75.792 153.063 76.504 152.807 77.128C152.559 77.744 152.191 78.232 151.703 78.592C151.223 78.944 150.627 79.12 149.915 79.12ZM149.915 78.124C150.315 78.124 150.667 78.012 150.971 77.788C151.283 77.556 151.523 77.208 151.691 76.744C151.867 76.28 151.955 75.696 151.955 74.992C151.955 74.28 151.867 73.692 151.691 73.228C151.523 72.764 151.283 72.42 150.971 72.196C150.667 71.964 150.315 71.848 149.915 71.848C149.523 71.848 149.171 71.964 148.859 72.196C148.555 72.428 148.315 72.776 148.139 73.24C147.963 73.696 147.875 74.28 147.875 74.992C147.875 75.696 147.963 76.28 148.139 76.744C148.315 77.208 148.555 77.556 148.859 77.788C149.171 78.012 149.523 78.124 149.915 78.124Z" fill="#46956A"/>
<path d="M157.948 79V70.984H159.148V77.932H162.904V79H157.948ZM166.728 79.12C166.152 79.12 165.64 79 165.192 78.76C164.744 78.512 164.396 78.168 164.148 77.728C163.9 77.288 163.776 76.772 163.776 76.18C163.776 75.588 163.9 75.072 164.148 74.632C164.396 74.192 164.744 73.852 165.192 73.612C165.64 73.364 166.152 73.24 166.728 73.24C167.312 73.24 167.824 73.364 168.264 73.612C168.712 73.852 169.06 74.192 169.308 74.632C169.564 75.072 169.692 75.588 169.692 76.18C169.692 76.772 169.564 77.288 169.308 77.728C169.06 78.168 168.712 78.512 168.264 78.76C167.824 79 167.312 79.12 166.728 79.12ZM166.728 78.124C167.088 78.124 167.404 78.048 167.676 77.896C167.948 77.736 168.156 77.512 168.3 77.224C168.452 76.928 168.528 76.58 168.528 76.18C168.528 75.78 168.452 75.436 168.3 75.148C168.156 74.852 167.948 74.624 167.676 74.464C167.404 74.304 167.088 74.224 166.728 74.224C166.368 74.224 166.052 74.304 165.78 74.464C165.516 74.624 165.308 74.852 165.156 75.148C165.004 75.436 164.928 75.78 164.928 76.18C164.928 76.58 165.004 76.928 165.156 77.224C165.308 77.512 165.516 77.736 165.78 77.896C166.052 78.048 166.368 78.124 166.728 78.124ZM171.166 79V73.36H172.258V74.2C172.426 73.904 172.666 73.672 172.978 73.504C173.298 73.328 173.686 73.24 174.142 73.24C174.79 73.24 175.298 73.424 175.666 73.792C176.034 74.16 176.218 74.736 176.218 75.52V79H175.078V75.664C175.078 75.16 174.974 74.796 174.766 74.572C174.566 74.34 174.258 74.224 173.842 74.224C173.354 74.224 172.974 74.392 172.702 74.728C172.43 75.064 172.294 75.524 172.294 76.108V79H171.166ZM180.469 81.304C180.005 81.304 179.565 81.232 179.149 81.088C178.741 80.944 178.353 80.712 177.985 80.392L178.393 79.552C178.753 79.84 179.097 80.04 179.425 80.152C179.761 80.264 180.089 80.32 180.409 80.32C181.017 80.32 181.493 80.156 181.837 79.828C182.181 79.5 182.353 79.016 182.353 78.376V77.872C182.169 78.128 181.909 78.34 181.573 78.508C181.245 78.676 180.853 78.76 180.397 78.76C179.917 78.76 179.469 78.652 179.053 78.436C178.645 78.22 178.317 77.908 178.069 77.5C177.821 77.084 177.697 76.584 177.697 76C177.697 75.408 177.821 74.908 178.069 74.5C178.317 74.092 178.645 73.78 179.053 73.564C179.469 73.348 179.917 73.24 180.397 73.24C180.877 73.24 181.285 73.332 181.621 73.516C181.965 73.7 182.225 73.928 182.401 74.2V73.36H183.493V78.208C183.493 78.864 183.369 79.424 183.121 79.888C182.881 80.352 182.537 80.704 182.089 80.944C181.641 81.184 181.101 81.304 180.469 81.304ZM180.637 77.788C180.957 77.788 181.249 77.72 181.513 77.584C181.777 77.448 181.989 77.248 182.149 76.984C182.309 76.712 182.389 76.384 182.389 76C182.389 75.608 182.309 75.28 182.149 75.016C181.989 74.752 181.777 74.552 181.513 74.416C181.249 74.28 180.957 74.212 180.637 74.212C180.317 74.212 180.021 74.28 179.749 74.416C179.485 74.552 179.269 74.752 179.101 75.016C178.941 75.28 178.861 75.608 178.861 76C178.861 76.384 178.941 76.712 179.101 76.984C179.269 77.248 179.485 77.448 179.749 77.584C180.021 77.72 180.317 77.788 180.637 77.788Z" fill="#46956A"/>
<path d="M189.611 78.1111C189.396 78.3259 189.396 78.6741 189.611 78.8889C189.826 79.1037 190.174 79.1037 190.389 78.8889L189.611 78.1111ZM196.914 72.136C196.914 71.8323 196.668 71.586 196.364 71.586L191.414 71.586C191.11 71.586 190.864 71.8323 190.864 72.136C190.864 72.4398 191.11 72.686 191.414 72.686L195.814 72.686L195.814 77.086C195.814 77.3898 196.06 77.636 196.364 77.636C196.668 77.636 196.914 77.3898 196.914 77.086L196.914 72.136ZM190.389 78.8889L196.753 72.5249L195.975 71.7471L189.611 78.1111L190.389 78.8889Z" fill="#46956A"/>
<rect x="57" y="116" width="2" height="30" fill="#20224E"/>
<rect x="181" y="116" width="2" height="30" fill="#20224E"/>
<rect x="63" y="122" width="109" height="17" rx="8.5" fill="#C75E4B" fill-opacity="0.1"/>
<rect x="63.5" y="122.5" width="108" height="16" rx="8" stroke="#C75E4B" stroke-opacity="0.1"/>
<g clip-path="url(#clip6_1233_811)">
<path d="M73 135.5C75.7614 135.5 78 133.261 78 130.5C78 127.739 75.7614 125.5 73 125.5C70.2386 125.5 68 127.739 68 130.5C68 133.261 70.2386 135.5 73 135.5Z" fill="#627EEA"/>
<path d="M73.1556 126.75V129.522L75.4984 130.569L73.1556 126.75Z" fill="white" fill-opacity="0.602"/>
<path d="M73.1556 126.75L70.8125 130.569L73.1556 129.522V126.75Z" fill="white"/>
<path d="M73.1556 132.365V134.248L75.5 131.005L73.1556 132.365Z" fill="white" fill-opacity="0.602"/>
<path d="M73.1556 134.248V132.365L70.8125 131.005L73.1556 134.248Z" fill="white"/>
<path d="M73.1556 131.929L75.4984 130.569L73.1556 129.522V131.929Z" fill="white" fill-opacity="0.2"/>
<path d="M70.8125 130.569L73.1556 131.929V129.522L70.8125 130.569Z" fill="white" fill-opacity="0.602"/>
</g>
<path d="M85.1609 134.1C84.7075 134.1 84.2942 134.03 83.9209 133.89C83.5542 133.743 83.2042 133.513 82.8709 133.2L83.2509 132.47C83.5842 132.75 83.9109 132.953 84.2309 133.08C84.5575 133.207 84.8675 133.27 85.1609 133.27C85.5942 133.27 85.9442 133.167 86.2109 132.96C86.4775 132.747 86.6109 132.463 86.6109 132.11C86.6109 131.75 86.4775 131.467 86.2109 131.26C85.9442 131.053 85.5942 130.95 85.1609 130.95H84.3409V130.16H85.1609C85.5542 130.16 85.8775 130.073 86.1309 129.9C86.3842 129.72 86.5109 129.457 86.5109 129.11C86.5109 128.763 86.3842 128.5 86.1309 128.32C85.8775 128.133 85.5542 128.04 85.1609 128.04C84.8742 128.04 84.5842 128.103 84.2909 128.23C83.9975 128.357 83.6842 128.56 83.3509 128.84L82.9709 128.12C83.3042 127.807 83.6475 127.58 84.0009 127.44C84.3542 127.293 84.7409 127.22 85.1609 127.22C85.6342 127.22 86.0475 127.3 86.4009 127.46C86.7609 127.613 87.0409 127.827 87.2409 128.1C87.4409 128.373 87.5409 128.687 87.5409 129.04C87.5409 129.4 87.4275 129.713 87.2009 129.98C86.9742 130.24 86.6642 130.433 86.2709 130.56C86.7042 130.687 87.0409 130.89 87.2809 131.17C87.5209 131.45 87.6409 131.787 87.6409 132.18C87.6409 132.547 87.5375 132.877 87.3309 133.17C87.1309 133.457 86.8442 133.683 86.4709 133.85C86.1042 134.017 85.6675 134.1 85.1609 134.1ZM89.083 135.54L88.583 135.3C88.7097 135.073 88.8064 134.84 88.873 134.6C88.9464 134.367 88.983 134.12 88.983 133.86V133.05H89.853V133.86C89.853 134.26 89.7897 134.59 89.663 134.85C89.543 135.11 89.3497 135.34 89.083 135.54ZM93.4812 134.1C93.0278 134.1 92.6145 134.03 92.2412 133.89C91.8745 133.743 91.5245 133.513 91.1912 133.2L91.5712 132.47C91.9045 132.75 92.2312 132.953 92.5512 133.08C92.8778 133.207 93.1878 133.27 93.4812 133.27C93.9145 133.27 94.2645 133.167 94.5312 132.96C94.7978 132.747 94.9312 132.463 94.9312 132.11C94.9312 131.75 94.7978 131.467 94.5312 131.26C94.2645 131.053 93.9145 130.95 93.4812 130.95H92.6612V130.16H93.4812C93.8745 130.16 94.1978 130.073 94.4512 129.9C94.7045 129.72 94.8312 129.457 94.8312 129.11C94.8312 128.763 94.7045 128.5 94.4512 128.32C94.1978 128.133 93.8745 128.04 93.4812 128.04C93.1945 128.04 92.9045 128.103 92.6112 128.23C92.3178 128.357 92.0045 128.56 91.6712 128.84L91.2912 128.12C91.6245 127.807 91.9678 127.58 92.3212 127.44C92.6745 127.293 93.0612 127.22 93.4812 127.22C93.9545 127.22 94.3678 127.3 94.7212 127.46C95.0812 127.613 95.3612 127.827 95.5612 128.1C95.7612 128.373 95.8612 128.687 95.8612 129.04C95.8612 129.4 95.7478 129.713 95.5212 129.98C95.2945 130.24 94.9845 130.433 94.5912 130.56C95.0245 130.687 95.3612 130.89 95.6012 131.17C95.8412 131.45 95.9612 131.787 95.9612 132.18C95.9612 132.547 95.8578 132.877 95.6512 133.17C95.4512 133.457 95.1645 133.683 94.7912 133.85C94.4245 134.017 93.9878 134.1 93.4812 134.1ZM97.6234 134L100.323 128.14H96.7334V127.32H101.303V128.04L98.5934 134H97.6234ZM104.669 134V132.43H101.269V131.44L104.569 127.32H105.639V131.62H106.519V132.43H105.639V134H104.669ZM102.129 131.62H104.669V128.39L102.129 131.62Z" fill="white"/>
<path d="M111 130C110.724 130 110.5 130.224 110.5 130.5C110.5 130.776 110.724 131 111 131V130ZM121.354 130.854C121.549 130.658 121.549 130.342 121.354 130.146L118.172 126.964C117.976 126.769 117.66 126.769 117.464 126.964C117.269 127.16 117.269 127.476 117.464 127.672L120.293 130.5L117.464 133.328C117.269 133.524 117.269 133.84 117.464 134.036C117.66 134.231 117.976 134.231 118.172 134.036L121.354 130.854ZM111 131H121V130H111V131Z" fill="#C75E4B" fill-opacity="0.5"/>
<g clip-path="url(#clip7_1233_811)">
<path d="M130 135.5C132.761 135.5 135 133.261 135 130.5C135 127.739 132.761 125.5 130 125.5C127.239 125.5 125 127.739 125 130.5C125 133.261 127.239 135.5 130 135.5Z" fill="#627EEA"/>
<path d="M130.156 126.75V129.522L132.498 130.569L130.156 126.75Z" fill="white" fill-opacity="0.602"/>
<path d="M130.156 126.75L127.812 130.569L130.156 129.522V126.75Z" fill="white"/>
<path d="M130.156 132.365V134.248L132.5 131.005L130.156 132.365Z" fill="white" fill-opacity="0.602"/>
<path d="M130.156 134.248V132.365L127.812 131.005L130.156 134.248Z" fill="white"/>
<path d="M130.156 131.929L132.498 130.569L130.156 129.522V131.929Z" fill="white" fill-opacity="0.2"/>
<path d="M127.812 130.569L130.156 131.929V129.522L127.812 130.569Z" fill="white" fill-opacity="0.602"/>
</g>
<path d="M142.212 134.1C141.758 134.1 141.345 134.03 140.972 133.89C140.605 133.743 140.255 133.513 139.922 133.2L140.302 132.47C140.635 132.75 140.962 132.953 141.282 133.08C141.608 133.207 141.918 133.27 142.212 133.27C142.645 133.27 142.995 133.167 143.262 132.96C143.528 132.747 143.662 132.463 143.662 132.11C143.662 131.75 143.528 131.467 143.262 131.26C142.995 131.053 142.645 130.95 142.212 130.95H141.392V130.16H142.212C142.605 130.16 142.928 130.073 143.182 129.9C143.435 129.72 143.562 129.457 143.562 129.11C143.562 128.763 143.435 128.5 143.182 128.32C142.928 128.133 142.605 128.04 142.212 128.04C141.925 128.04 141.635 128.103 141.342 128.23C141.048 128.357 140.735 128.56 140.402 128.84L140.022 128.12C140.355 127.807 140.698 127.58 141.052 127.44C141.405 127.293 141.792 127.22 142.212 127.22C142.685 127.22 143.098 127.3 143.452 127.46C143.812 127.613 144.092 127.827 144.292 128.1C144.492 128.373 144.592 128.687 144.592 129.04C144.592 129.4 144.478 129.713 144.252 129.98C144.025 130.24 143.715 130.433 143.322 130.56C143.755 130.687 144.092 130.89 144.332 131.17C144.572 131.45 144.692 131.787 144.692 132.18C144.692 132.547 144.588 132.877 144.382 133.17C144.182 133.457 143.895 133.683 143.522 133.85C143.155 134.017 142.718 134.1 142.212 134.1ZM146.134 135.54L145.634 135.3C145.76 135.073 145.857 134.84 145.924 134.6C145.997 134.367 146.034 134.12 146.034 133.86V133.05H146.904V133.86C146.904 134.26 146.84 134.59 146.714 134.85C146.594 135.11 146.4 135.34 146.134 135.54ZM150.962 134.1C150.375 134.1 149.879 133.953 149.472 133.66C149.065 133.36 148.759 132.953 148.552 132.44C148.345 131.92 148.242 131.327 148.242 130.66C148.242 129.993 148.345 129.403 148.552 128.89C148.759 128.37 149.065 127.963 149.472 127.67C149.879 127.37 150.375 127.22 150.962 127.22C151.555 127.22 152.052 127.37 152.452 127.67C152.859 127.963 153.165 128.37 153.372 128.89C153.585 129.403 153.692 129.993 153.692 130.66C153.692 131.327 153.585 131.92 153.372 132.44C153.165 132.953 152.859 133.36 152.452 133.66C152.052 133.953 151.555 134.1 150.962 134.1ZM150.962 133.27C151.295 133.27 151.589 133.177 151.842 132.99C152.102 132.797 152.302 132.507 152.442 132.12C152.589 131.733 152.662 131.247 152.662 130.66C152.662 130.067 152.589 129.577 152.442 129.19C152.302 128.803 152.102 128.517 151.842 128.33C151.589 128.137 151.295 128.04 150.962 128.04C150.635 128.04 150.342 128.137 150.082 128.33C149.829 128.523 149.629 128.813 149.482 129.2C149.335 129.58 149.262 130.067 149.262 130.66C149.262 131.247 149.335 131.733 149.482 132.12C149.629 132.507 149.829 132.797 150.082 132.99C150.342 133.177 150.635 133.27 150.962 133.27ZM157.378 134.1C156.791 134.1 156.295 133.953 155.888 133.66C155.481 133.36 155.175 132.953 154.968 132.44C154.761 131.92 154.658 131.327 154.658 130.66C154.658 129.993 154.761 129.403 154.968 128.89C155.175 128.37 155.481 127.963 155.888 127.67C156.295 127.37 156.791 127.22 157.378 127.22C157.971 127.22 158.468 127.37 158.868 127.67C159.275 127.963 159.581 128.37 159.788 128.89C160.001 129.403 160.108 129.993 160.108 130.66C160.108 131.327 160.001 131.92 159.788 132.44C159.581 132.953 159.275 133.36 158.868 133.66C158.468 133.953 157.971 134.1 157.378 134.1ZM157.378 133.27C157.711 133.27 158.005 133.177 158.258 132.99C158.518 132.797 158.718 132.507 158.858 132.12C159.005 131.733 159.078 131.247 159.078 130.66C159.078 130.067 159.005 129.577 158.858 129.19C158.718 128.803 158.518 128.517 158.258 128.33C158.005 128.137 157.711 128.04 157.378 128.04C157.051 128.04 156.758 128.137 156.498 128.33C156.245 128.523 156.045 128.813 155.898 129.2C155.751 129.58 155.678 130.067 155.678 130.66C155.678 131.247 155.751 131.733 155.898 132.12C156.045 132.507 156.245 132.797 156.498 132.99C156.758 133.177 157.051 133.27 157.378 133.27ZM163.794 134.1C163.207 134.1 162.711 133.953 162.304 133.66C161.897 133.36 161.591 132.953 161.384 132.44C161.177 131.92 161.074 131.327 161.074 130.66C161.074 129.993 161.177 129.403 161.384 128.89C161.591 128.37 161.897 127.963 162.304 127.67C162.711 127.37 163.207 127.22 163.794 127.22C164.387 127.22 164.884 127.37 165.284 127.67C165.691 127.963 165.997 128.37 166.204 128.89C166.417 129.403 166.524 129.993 166.524 130.66C166.524 131.327 166.417 131.92 166.204 132.44C165.997 132.953 165.691 133.36 165.284 133.66C164.884 133.953 164.387 134.1 163.794 134.1ZM163.794 133.27C164.127 133.27 164.421 133.177 164.674 132.99C164.934 132.797 165.134 132.507 165.274 132.12C165.421 131.733 165.494 131.247 165.494 130.66C165.494 130.067 165.421 129.577 165.274 129.19C165.134 128.803 164.934 128.517 164.674 128.33C164.421 128.137 164.127 128.04 163.794 128.04C163.467 128.04 163.174 128.137 162.914 128.33C162.661 128.523 162.461 128.813 162.314 129.2C162.167 129.58 162.094 130.067 162.094 130.66C162.094 131.247 162.167 131.733 162.314 132.12C162.461 132.507 162.661 132.797 162.914 132.99C163.174 133.177 163.467 133.27 163.794 133.27Z" fill="white"/>
<rect x="57" y="49" width="2" height="12" fill="#20224E"/>
<rect x="121" y="35" width="2" height="12" fill="#20224E"/>
<rect x="183" y="47" width="2.00001" height="126" transform="rotate(90 183 47)" fill="#20224E"/>
<rect x="181" y="49" width="2" height="12" fill="#20224E"/>
<rect x="183" y="213" width="2" height="12" transform="rotate(180 183 213)" fill="#20224E"/>
<rect x="121" y="227" width="2" height="12" transform="rotate(180 121 227)" fill="#20224E"/>
<rect x="57" y="215" width="2" height="126" transform="rotate(-90 57 215)" fill="#20224E"/>
<rect x="59" y="213" width="2" height="12" transform="rotate(180 59 213)" fill="#20224E"/>
<defs>
<linearGradient id="paint0_linear_1233_811" x1="-5.56424e-07" y1="-0.415842" x2="6.41644" y2="59.8637" gradientUnits="userSpaceOnUse">
<stop stop-color="#384263" stop-opacity="0.25"/>
<stop offset="1" stop-color="#384263" stop-opacity="0.15"/>
</linearGradient>
<linearGradient id="paint1_linear_1233_811" x1="208" y1="7.76238" x2="224.589" y2="30.4898" gradientUnits="userSpaceOnUse">
<stop stop-color="#384263" stop-opacity="0.25"/>
<stop offset="1" stop-color="#384263" stop-opacity="0.15"/>
</linearGradient>
<linearGradient id="paint2_linear_1233_811" x1="194" y1="7.76238" x2="210.589" y2="30.4898" gradientUnits="userSpaceOnUse">
<stop stop-color="#384263" stop-opacity="0.25"/>
<stop offset="1" stop-color="#384263" stop-opacity="0.15"/>
</linearGradient>
<linearGradient id="paint3_linear_1233_811" x1="180" y1="7.76238" x2="196.589" y2="30.4898" gradientUnits="userSpaceOnUse">
<stop stop-color="#384263" stop-opacity="0.25"/>
<stop offset="1" stop-color="#384263" stop-opacity="0.15"/>
</linearGradient>
<linearGradient id="paint4_linear_1233_811" x1="-2.6662e-07" y1="145.347" x2="29.8092" y2="230.739" gradientUnits="userSpaceOnUse">
<stop stop-color="#384263" stop-opacity="0.25"/>
<stop offset="1" stop-color="#384263" stop-opacity="0.15"/>
</linearGradient>
<linearGradient id="paint5_linear_1233_811" x1="125" y1="145.347" x2="154.809" y2="230.739" gradientUnits="userSpaceOnUse">
<stop stop-color="#384263" stop-opacity="0.25"/>
<stop offset="1" stop-color="#384263" stop-opacity="0.15"/>
</linearGradient>
<linearGradient id="paint6_linear_1233_811" x1="-2.6662e-07" y1="60.3465" x2="29.8092" y2="145.739" gradientUnits="userSpaceOnUse">
<stop stop-color="#384263" stop-opacity="0.25"/>
<stop offset="1" stop-color="#384263" stop-opacity="0.15"/>
</linearGradient>
<linearGradient id="paint7_linear_1233_811" x1="125" y1="60.3465" x2="154.809" y2="145.739" gradientUnits="userSpaceOnUse">
<stop stop-color="#384263" stop-opacity="0.25"/>
<stop offset="1" stop-color="#384263" stop-opacity="0.15"/>
</linearGradient>
<clipPath id="clip0_1233_811">
<rect width="10" height="10" fill="white" transform="translate(213 13)"/>
</clipPath>
<clipPath id="clip1_1233_811">
<rect width="10" height="10" fill="white" transform="translate(199 13)"/>
</clipPath>
<clipPath id="clip2_1233_811">
<rect width="10" height="10" fill="white" transform="translate(185 13)"/>
</clipPath>
<clipPath id="clip3_1233_811">
<rect width="12" height="12" fill="white" transform="translate(10 96)"/>
</clipPath>
<clipPath id="clip4_1233_811">
<rect width="12" height="12" fill="white" transform="translate(135 96)"/>
</clipPath>
<clipPath id="clip5_1233_811">
<rect width="12" height="12" fill="white" transform="translate(191 96)"/>
</clipPath>
<clipPath id="clip6_1233_811">
<rect width="10" height="10" fill="white" transform="translate(68 125.5)"/>
</clipPath>
<clipPath id="clip7_1233_811">
<rect width="10" height="10" fill="white" transform="translate(125 125.5)"/>
</clipPath>
</defs>
</svg>
