<svg width="374" height="161" viewBox="0 0 374 161" fill="none" xmlns="http://www.w3.org/2000/svg">
<rect width="80" height="83" rx="5" transform="matrix(-1 0 0 1 80 52)" fill="#181A3C"/>
<rect x="-0.5" y="0.5" width="79" height="82" rx="4.5" transform="matrix(-1 0 0 1 79 52)" stroke="url(#paint0_linear_838_7028)" stroke-opacity="0.7"/>
<circle cx="48" cy="117" r="9.5" fill="#20224E" stroke="url(#paint1_linear_838_7028)"/>
<g clip-path="url(#clip0_838_7028)">
<circle cx="48.0002" cy="117" r="5" fill="white"/>
<path d="M51.1541 114.099L50.8795 114.373C51.5347 115.09 51.898 116.025 51.898 116.996C51.898 117.967 51.5347 118.903 50.8795 119.619L51.1541 119.894C51.8827 119.104 52.2872 118.068 52.2872 116.993C52.2872 115.918 51.8827 114.883 51.1541 114.092V114.099Z" fill="#5A5564"/>
<path d="M45.3799 114.122C46.0963 113.467 47.0321 113.104 48.003 113.104C48.9738 113.104 49.9096 113.467 50.6261 114.122L50.9006 113.848C50.1103 113.119 49.0747 112.715 47.9998 112.715C46.9248 112.715 45.8892 113.119 45.0989 113.848L45.3799 114.122Z" fill="#5A5564"/>
<path d="M45.1227 119.622C44.4683 118.906 44.1054 117.971 44.1054 117C44.1054 116.03 44.4683 115.095 45.1227 114.379L44.8481 114.104C44.1195 114.894 43.715 115.93 43.715 117.005C43.715 118.08 44.1195 119.116 44.8481 119.906L45.1227 119.622Z" fill="#5A5564"/>
<path d="M50.6225 119.876C49.906 120.531 48.9702 120.894 47.9994 120.894C47.0285 120.894 46.0927 120.531 45.3763 119.876L45.1017 120.15C45.892 120.879 46.9276 121.283 48.0026 121.283C49.0775 121.283 50.1131 120.879 50.9034 120.15L50.6225 119.876Z" fill="#5A5564"/>
<path d="M49.7337 116.084C49.6788 115.511 49.1845 115.319 48.5594 115.26V114.471H48.0762V115.245C47.9489 115.245 47.819 115.245 47.6899 115.245V114.471H47.2103V115.266H46.2301V115.783C46.2301 115.783 46.587 115.776 46.5816 115.783C46.6459 115.776 46.7105 115.794 46.7617 115.833C46.813 115.873 46.8468 115.931 46.8561 115.995V118.17C46.8548 118.192 46.8489 118.214 46.8388 118.235C46.8287 118.255 46.8147 118.273 46.7976 118.288C46.7807 118.303 46.761 118.314 46.7396 118.321C46.7182 118.329 46.6956 118.332 46.6731 118.33C46.6795 118.335 46.3216 118.33 46.3216 118.33L46.2301 118.907H47.2012V119.715H47.6844V118.919H48.0707V119.711H48.5548V118.913C49.3712 118.863 49.9405 118.662 50.0119 117.898C50.0696 117.283 49.7803 117.008 49.3181 116.897C49.5991 116.759 49.773 116.503 49.7337 116.084ZM49.0564 117.803C49.0564 118.403 48.0276 118.334 47.7 118.334V117.269C48.0276 117.27 49.0564 117.176 49.0564 117.803ZM48.8322 116.302C48.8322 116.851 47.9737 116.784 47.7009 116.784V115.816C47.9737 115.816 48.8322 115.73 48.8322 116.302Z" fill="#F7931A"/>
<path d="M47.9993 122C47.0105 122 46.0439 121.706 45.2218 121.157C44.3997 120.607 43.759 119.827 43.3807 118.913C43.0023 117.999 42.9034 116.994 43.0964 116.024C43.2893 115.054 43.7655 114.164 44.4647 113.464C45.1639 112.765 46.0548 112.289 47.0246 112.096C47.9944 111.903 48.9996 112.002 49.9132 112.38C50.8268 112.759 51.6077 113.399 52.1572 114.222C52.7067 115.044 53.0001 116.01 53.0002 116.999C53.0004 117.656 52.8711 118.306 52.6198 118.913C52.3685 119.52 52.0002 120.071 51.5358 120.535C51.0714 121 50.52 121.368 49.9132 121.62C49.3064 121.871 48.6561 122 47.9993 122ZM47.9993 112.39C47.0883 112.391 46.198 112.661 45.4408 113.168C44.6837 113.675 44.0937 114.394 43.7455 115.236C43.3973 116.078 43.3064 117.004 43.4845 117.898C43.6625 118.791 44.1014 119.612 44.7457 120.256C45.3901 120.9 46.2108 121.338 47.1044 121.516C47.9979 121.694 48.924 121.603 49.7657 121.254C50.6074 120.905 51.3269 120.315 51.8332 119.558C52.3396 118.801 52.61 117.91 52.6104 116.999C52.6106 116.394 52.4915 115.794 52.2598 115.234C52.0281 114.675 51.6885 114.167 51.2602 113.739C50.832 113.311 50.3236 112.971 49.764 112.74C49.2045 112.508 48.6048 112.389 47.9993 112.39Z" fill="#282138"/>
</g>
<circle cx="34" cy="117" r="9.5" fill="#20224E" stroke="url(#paint2_linear_838_7028)"/>
<g clip-path="url(#clip1_838_7028)">
<path d="M34.0002 122C36.7617 122 39.0002 119.761 39.0002 117C39.0002 114.239 36.7617 112 34.0002 112C31.2388 112 29.0002 114.239 29.0002 117C29.0002 119.761 31.2388 122 34.0002 122Z" fill="#627EEA"/>
<path d="M34.1559 113.25V116.022L36.4987 117.069L34.1559 113.25Z" fill="white" fill-opacity="0.602"/>
<path d="M34.1559 113.25L31.8127 117.069L34.1559 116.022V113.25Z" fill="white"/>
<path d="M34.1559 118.865V120.748L36.5003 117.505L34.1559 118.865Z" fill="white" fill-opacity="0.602"/>
<path d="M34.1559 120.748V118.865L31.8127 117.505L34.1559 120.748Z" fill="white"/>
<path d="M34.1559 118.429L36.4987 117.069L34.1559 116.022V118.429Z" fill="white" fill-opacity="0.2"/>
<path d="M31.8127 117.069L34.1559 118.429V116.022L31.8127 117.069Z" fill="white" fill-opacity="0.602"/>
</g>
<circle cx="20" cy="117" r="9.5" fill="#20224E" stroke="url(#paint3_linear_838_7028)"/>
<g clip-path="url(#clip2_838_7028)">
<path fill-rule="evenodd" clip-rule="evenodd" d="M20.0002 112C22.7617 112 25.0002 114.239 25.0002 117C25.0002 119.761 22.7617 122 20.0002 122C17.2388 122 15.0002 119.761 15.0002 117C15.0002 114.239 17.2388 112 20.0002 112Z" fill="#2775CA"/>
<path fill-rule="evenodd" clip-rule="evenodd" d="M19.063 120.476C19.063 120.594 18.9709 120.661 18.8571 120.625C17.3453 120.143 16.2493 118.725 16.2493 117.053C16.2493 115.38 17.3453 113.963 18.8571 113.48C18.9709 113.445 19.063 113.512 19.063 113.629V113.92C19.063 113.998 19.0023 114.09 18.9277 114.116C17.7316 114.555 16.8748 115.704 16.8748 117.051C16.8748 118.398 17.7316 119.547 18.9277 119.986C19.0023 120.014 19.063 120.104 19.063 120.182V120.476Z" fill="white"/>
<path fill-rule="evenodd" clip-rule="evenodd" d="M20.312 119.396C20.312 119.482 20.2414 119.553 20.1552 119.553H19.8434C19.7571 119.553 19.6865 119.482 19.6865 119.396V118.902C19.0042 118.81 18.6709 118.427 18.5807 117.908C18.565 117.819 18.6355 117.739 18.7258 117.739H19.0826C19.1571 117.739 19.2199 117.792 19.2356 117.866C19.3023 118.176 19.4807 118.414 20.0277 118.414C20.4316 118.414 20.718 118.188 20.718 117.851C20.718 117.514 20.5493 117.386 19.9571 117.288C19.0826 117.17 18.6689 116.906 18.6689 116.219C18.6689 115.69 19.069 115.278 19.6885 115.19V114.706C19.6885 114.619 19.7592 114.549 19.8454 114.549H20.1572C20.2434 114.549 20.314 114.619 20.314 114.706V115.204C20.8179 115.294 21.1375 115.58 21.2415 116.055C21.261 116.145 21.1905 116.229 21.0984 116.229H20.7689C20.6983 116.229 20.6395 116.182 20.618 116.113C20.5297 115.812 20.314 115.682 19.9394 115.682C19.5258 115.682 19.312 115.882 19.312 116.163C19.312 116.459 19.4337 116.608 20.069 116.7C20.9277 116.818 21.3709 117.063 21.3709 117.794C21.3709 118.349 20.9591 118.798 20.314 118.902V119.396H20.312Z" fill="white"/>
<path fill-rule="evenodd" clip-rule="evenodd" d="M21.1434 120.625C21.0297 120.661 20.9375 120.594 20.9375 120.476V120.186C20.9375 120.1 20.9905 120.02 21.0728 119.99C22.2689 119.551 23.1257 118.402 23.1257 117.055C23.1257 115.708 22.2689 114.559 21.0728 114.12C20.9983 114.092 20.9375 114.002 20.9375 113.923V113.633C20.9375 113.516 21.0297 113.447 21.1434 113.484C22.6551 113.967 23.7512 115.384 23.7512 117.057C23.7493 118.725 22.6551 120.141 21.1434 120.625Z" fill="white"/>
</g>
<path d="M10.948 72V63.984H12.832L15.424 70.524L18.016 63.984H19.9V72H18.7V65.172L15.952 72H14.896L12.148 65.172V72H10.948ZM23.5513 72.12C23.1353 72.12 22.7673 72.056 22.4473 71.928C22.1353 71.792 21.8913 71.6 21.7153 71.352C21.5393 71.096 21.4513 70.792 21.4513 70.44C21.4513 70.08 21.5393 69.78 21.7153 69.54C21.8913 69.3 22.1393 69.112 22.4593 68.976C22.7793 68.84 23.1433 68.748 23.5513 68.7L25.5433 68.448C25.4953 68.024 25.3353 67.712 25.0633 67.512C24.7913 67.312 24.4553 67.212 24.0553 67.212C23.7833 67.212 23.4993 67.268 23.2033 67.38C22.9153 67.484 22.6073 67.652 22.2793 67.884L21.8593 67.032C22.1713 66.784 22.5153 66.592 22.8913 66.456C23.2673 66.312 23.6593 66.24 24.0673 66.24C24.9313 66.24 25.5833 66.436 26.0233 66.828C26.4633 67.22 26.6833 67.8 26.6833 68.568V72H25.6033V71.184C25.3953 71.496 25.1153 71.732 24.7633 71.892C24.4193 72.044 24.0153 72.12 23.5513 72.12ZM23.8153 71.172C24.1913 71.172 24.5073 71.096 24.7633 70.944C25.0273 70.792 25.2233 70.592 25.3513 70.344C25.4873 70.096 25.5553 69.836 25.5553 69.564V69.312L23.8753 69.528C23.4593 69.584 23.1433 69.676 22.9273 69.804C22.7113 69.924 22.6033 70.12 22.6033 70.392C22.6033 70.64 22.7073 70.832 22.9153 70.968C23.1313 71.104 23.4313 71.172 23.8153 71.172ZM28.4781 72V66.36H29.5581V67.356C29.7101 67.004 29.9221 66.74 30.1941 66.564C30.4741 66.38 30.7861 66.288 31.1301 66.288C31.2421 66.288 31.3421 66.296 31.4301 66.312C31.5261 66.32 31.5981 66.336 31.6461 66.36V67.428C31.5421 67.404 31.4341 67.388 31.3221 67.38C31.2181 67.364 31.1141 67.356 31.0101 67.356C30.6101 67.356 30.2741 67.524 30.0021 67.86C29.7381 68.188 29.6061 68.66 29.6061 69.276V72H28.4781ZM35.0163 74.304C34.5523 74.304 34.1123 74.232 33.6963 74.088C33.2883 73.944 32.9003 73.712 32.5323 73.392L32.9403 72.564C33.3003 72.844 33.6443 73.04 33.9723 73.152C34.3083 73.264 34.6363 73.32 34.9563 73.32C35.5643 73.32 36.0403 73.156 36.3843 72.828C36.7283 72.5 36.9003 72.016 36.9003 71.376V70.872C36.7163 71.128 36.4563 71.34 36.1203 71.508C35.7923 71.676 35.4003 71.76 34.9443 71.76C34.4643 71.76 34.0163 71.652 33.6003 71.436C33.1923 71.22 32.8643 70.908 32.6163 70.5C32.3683 70.084 32.2443 69.584 32.2443 69C32.2443 68.416 32.3683 67.92 32.6163 67.512C32.8643 67.096 33.1923 66.78 33.6003 66.564C34.0163 66.348 34.4643 66.24 34.9443 66.24C35.4243 66.24 35.8323 66.336 36.1683 66.528C36.5123 66.712 36.7723 66.936 36.9483 67.2V66.36H38.0283V71.208C38.0283 71.872 37.9083 72.432 37.6683 72.888C37.4283 73.352 37.0843 73.704 36.6363 73.944C36.1883 74.184 35.6483 74.304 35.0163 74.304ZM35.1723 70.788C35.5003 70.788 35.7963 70.72 36.0603 70.584C36.3243 70.448 36.5363 70.248 36.6963 69.984C36.8563 69.72 36.9363 69.392 36.9363 69C36.9363 68.608 36.8563 68.28 36.6963 68.016C36.5363 67.752 36.3243 67.552 36.0603 67.416C35.7963 67.28 35.5003 67.212 35.1723 67.212C34.8523 67.212 34.5563 67.28 34.2843 67.416C34.0203 67.552 33.8083 67.752 33.6483 68.016C33.4883 68.28 33.4083 68.608 33.4083 69C33.4083 69.392 33.4883 69.72 33.6483 69.984C33.8083 70.248 34.0203 70.448 34.2843 70.584C34.5563 70.72 34.8523 70.788 35.1723 70.788ZM39.8336 72V66.36H40.9616V72H39.8336ZM40.3856 65.196C40.1856 65.196 40.0216 65.136 39.8936 65.016C39.7736 64.896 39.7136 64.74 39.7136 64.548C39.7136 64.356 39.7736 64.204 39.8936 64.092C40.0216 63.972 40.1856 63.912 40.3856 63.912C40.5936 63.912 40.7616 63.972 40.8896 64.092C41.0176 64.204 41.0816 64.356 41.0816 64.548C41.0816 64.74 41.0176 64.896 40.8896 65.016C40.7616 65.136 40.5936 65.196 40.3856 65.196ZM42.7516 72V66.36H43.8316V67.2C43.9996 66.904 44.2436 66.672 44.5636 66.504C44.8836 66.328 45.2716 66.24 45.7276 66.24C46.3756 66.24 46.8796 66.424 47.2396 66.792C47.6076 67.16 47.7916 67.736 47.7916 68.52V72H46.6636V68.664C46.6636 68.16 46.5596 67.796 46.3516 67.572C46.1516 67.34 45.8436 67.224 45.4276 67.224C44.9316 67.224 44.5476 67.392 44.2756 67.728C44.0116 68.064 43.8796 68.524 43.8796 69.108V72H42.7516Z" fill="white"/>
<rect x="253" y="26" width="95" height="55" rx="5" fill="#181A3C"/>
<rect x="253.5" y="26.5" width="94" height="54" rx="4.5" stroke="url(#paint4_linear_838_7028)" stroke-opacity="0.7"/>
<path d="M264.992 72.2L265.268 70.976C264.972 70.896 264.684 70.78 264.404 70.628C264.132 70.468 263.86 70.272 263.588 70.04L264.068 69.104C264.316 69.304 264.56 69.472 264.8 69.608C265.048 69.744 265.288 69.852 265.52 69.932L266.096 67.376L265.844 67.328C265.132 67.192 264.616 66.948 264.296 66.596C263.984 66.244 263.828 65.816 263.828 65.312C263.828 64.864 263.928 64.456 264.128 64.088C264.328 63.72 264.636 63.424 265.052 63.2C265.468 62.976 265.988 62.864 266.612 62.864C266.7 62.864 266.788 62.868 266.876 62.876C266.964 62.876 267.052 62.884 267.14 62.9L267.392 61.784H268.112L267.824 63.02C268.08 63.084 268.328 63.18 268.568 63.308C268.816 63.436 269.052 63.592 269.276 63.776L268.796 64.712C268.588 64.568 268.384 64.444 268.184 64.34C267.984 64.228 267.78 64.136 267.572 64.064L267.044 66.38L267.5 66.464C268.204 66.592 268.716 66.86 269.036 67.268C269.356 67.668 269.516 68.116 269.516 68.612C269.516 69.364 269.256 69.972 268.736 70.436C268.216 70.892 267.464 71.12 266.48 71.12C266.384 71.12 266.292 71.116 266.204 71.108C266.124 71.1 266.044 71.092 265.964 71.084L265.712 72.2H264.992ZM266.192 70.076C266.24 70.076 266.284 70.076 266.324 70.076C266.372 70.076 266.424 70.076 266.48 70.076C267.064 70.076 267.512 69.96 267.824 69.728C268.136 69.496 268.292 69.164 268.292 68.732C268.292 68.436 268.196 68.188 268.004 67.988C267.812 67.78 267.532 67.644 267.164 67.58L266.78 67.508L266.192 70.076ZM266.36 66.248L266.9 63.92C266.86 63.912 266.816 63.908 266.768 63.908C266.728 63.908 266.684 63.908 266.636 63.908C266.108 63.908 265.712 64.02 265.448 64.244C265.184 64.468 265.052 64.772 265.052 65.156C265.052 65.452 265.144 65.684 265.328 65.852C265.52 66.02 265.792 66.14 266.144 66.212L266.36 66.248ZM273.954 71.12C273.25 71.12 272.654 70.944 272.166 70.592C271.678 70.232 271.31 69.744 271.062 69.128C270.814 68.504 270.69 67.792 270.69 66.992C270.69 66.192 270.814 65.484 271.062 64.868C271.31 64.244 271.678 63.756 272.166 63.404C272.654 63.044 273.25 62.864 273.954 62.864C274.666 62.864 275.262 63.044 275.742 63.404C276.23 63.756 276.598 64.244 276.846 64.868C277.094 65.484 277.218 66.192 277.218 66.992C277.218 67.792 277.094 68.504 276.846 69.128C276.598 69.744 276.23 70.232 275.742 70.592C275.262 70.944 274.666 71.12 273.954 71.12ZM273.954 70.136C274.354 70.136 274.706 70.024 275.01 69.8C275.322 69.568 275.562 69.22 275.73 68.756C275.906 68.284 275.994 67.696 275.994 66.992C275.994 66.28 275.906 65.692 275.73 65.228C275.562 64.764 275.322 64.42 275.01 64.196C274.706 63.964 274.354 63.848 273.954 63.848C273.554 63.848 273.198 63.964 272.886 64.196C272.582 64.428 272.342 64.776 272.166 65.24C271.998 65.696 271.914 66.28 271.914 66.992C271.914 67.696 271.998 68.284 272.166 68.756C272.342 69.22 272.582 69.568 272.886 69.8C273.198 70.024 273.554 70.136 273.954 70.136Z" fill="white"/>
<path d="M286 66.5C285.724 66.5 285.5 66.7239 285.5 67C285.5 67.2761 285.724 67.5 286 67.5V66.5ZM296.354 67.3536C296.549 67.1583 296.549 66.8417 296.354 66.6464L293.172 63.4645C292.976 63.2692 292.66 63.2692 292.464 63.4645C292.269 63.6597 292.269 63.9763 292.464 64.1716L295.293 67L292.464 69.8284C292.269 70.0237 292.269 70.3403 292.464 70.5355C292.66 70.7308 292.976 70.7308 293.172 70.5355L296.354 67.3536ZM286 67.5H296V66.5H286V67.5Z" fill="#747FA6"/>
<path d="M306.976 69.584V67.46H304.9V66.524H306.976V64.4H308.008V66.524H310.084V67.46H308.008V69.584H306.976ZM312.976 72.2L313.252 70.976C312.956 70.896 312.668 70.78 312.388 70.628C312.116 70.468 311.844 70.272 311.572 70.04L312.052 69.104C312.3 69.304 312.544 69.472 312.784 69.608C313.032 69.744 313.272 69.852 313.504 69.932L314.08 67.376L313.828 67.328C313.116 67.192 312.6 66.948 312.28 66.596C311.968 66.244 311.812 65.816 311.812 65.312C311.812 64.864 311.912 64.456 312.112 64.088C312.312 63.72 312.62 63.424 313.036 63.2C313.452 62.976 313.972 62.864 314.596 62.864C314.684 62.864 314.772 62.868 314.86 62.876C314.948 62.876 315.036 62.884 315.124 62.9L315.376 61.784H316.096L315.808 63.02C316.064 63.084 316.312 63.18 316.552 63.308C316.8 63.436 317.036 63.592 317.26 63.776L316.78 64.712C316.572 64.568 316.368 64.444 316.168 64.34C315.968 64.228 315.764 64.136 315.556 64.064L315.028 66.38L315.484 66.464C316.188 66.592 316.7 66.86 317.02 67.268C317.34 67.668 317.5 68.116 317.5 68.612C317.5 69.364 317.24 69.972 316.72 70.436C316.2 70.892 315.448 71.12 314.464 71.12C314.368 71.12 314.276 71.116 314.188 71.108C314.108 71.1 314.028 71.092 313.948 71.084L313.696 72.2H312.976ZM314.176 70.076C314.224 70.076 314.268 70.076 314.308 70.076C314.356 70.076 314.408 70.076 314.464 70.076C315.048 70.076 315.496 69.96 315.808 69.728C316.12 69.496 316.276 69.164 316.276 68.732C316.276 68.436 316.18 68.188 315.988 67.988C315.796 67.78 315.516 67.644 315.148 67.58L314.764 67.508L314.176 70.076ZM314.344 66.248L314.884 63.92C314.844 63.912 314.8 63.908 314.752 63.908C314.712 63.908 314.668 63.908 314.62 63.908C314.092 63.908 313.696 64.02 313.432 64.244C313.168 64.468 313.036 64.772 313.036 65.156C313.036 65.452 313.128 65.684 313.312 65.852C313.504 66.02 313.776 66.14 314.128 66.212L314.344 66.248ZM320.63 71V64.28L318.902 65.228L318.434 64.304L320.942 62.984H321.818V71H320.63ZM326.625 71.12C325.921 71.12 325.325 70.944 324.837 70.592C324.349 70.232 323.981 69.744 323.733 69.128C323.485 68.504 323.361 67.792 323.361 66.992C323.361 66.192 323.485 65.484 323.733 64.868C323.981 64.244 324.349 63.756 324.837 63.404C325.325 63.044 325.921 62.864 326.625 62.864C327.337 62.864 327.933 63.044 328.413 63.404C328.901 63.756 329.269 64.244 329.517 64.868C329.765 65.484 329.889 66.192 329.889 66.992C329.889 67.792 329.765 68.504 329.517 69.128C329.269 69.744 328.901 70.232 328.413 70.592C327.933 70.944 327.337 71.12 326.625 71.12ZM326.625 70.136C327.025 70.136 327.377 70.024 327.681 69.8C327.993 69.568 328.233 69.22 328.401 68.756C328.577 68.284 328.665 67.696 328.665 66.992C328.665 66.28 328.577 65.692 328.401 65.228C328.233 64.764 327.993 64.42 327.681 64.196C327.377 63.964 327.025 63.848 326.625 63.848C326.225 63.848 325.869 63.964 325.557 64.196C325.253 64.428 325.013 64.776 324.837 65.24C324.669 65.696 324.585 66.28 324.585 66.992C324.585 67.696 324.669 68.284 324.837 68.756C325.013 69.22 325.253 69.568 325.557 69.8C325.869 70.024 326.225 70.136 326.625 70.136ZM334.325 71.12C333.621 71.12 333.025 70.944 332.537 70.592C332.049 70.232 331.681 69.744 331.433 69.128C331.185 68.504 331.061 67.792 331.061 66.992C331.061 66.192 331.185 65.484 331.433 64.868C331.681 64.244 332.049 63.756 332.537 63.404C333.025 63.044 333.621 62.864 334.325 62.864C335.037 62.864 335.633 63.044 336.113 63.404C336.601 63.756 336.969 64.244 337.217 64.868C337.465 65.484 337.589 66.192 337.589 66.992C337.589 67.792 337.465 68.504 337.217 69.128C336.969 69.744 336.601 70.232 336.113 70.592C335.633 70.944 335.037 71.12 334.325 71.12ZM334.325 70.136C334.725 70.136 335.077 70.024 335.381 69.8C335.693 69.568 335.933 69.22 336.101 68.756C336.277 68.284 336.365 67.696 336.365 66.992C336.365 66.28 336.277 65.692 336.101 65.228C335.933 64.764 335.693 64.42 335.381 64.196C335.077 63.964 334.725 63.848 334.325 63.848C333.925 63.848 333.569 63.964 333.257 64.196C332.953 64.428 332.713 64.776 332.537 65.24C332.369 65.696 332.285 66.28 332.285 66.992C332.285 67.696 332.369 68.284 332.537 68.756C332.713 69.22 332.953 69.568 333.257 69.8C333.569 70.024 333.925 70.136 334.325 70.136Z" fill="#46956A"/>
<path d="M263.948 44V35.984H267.14C268.124 35.984 268.86 36.192 269.348 36.608C269.844 37.024 270.092 37.656 270.092 38.504C270.092 39.352 269.844 39.984 269.348 40.4C268.86 40.808 268.124 41.012 267.14 41.012H265.148V44H263.948ZM265.148 40.004H266.912C267.552 40.004 268.04 39.896 268.376 39.68C268.712 39.456 268.88 39.064 268.88 38.504C268.88 37.944 268.716 37.552 268.388 37.328C268.068 37.104 267.576 36.992 266.912 36.992H265.148V40.004ZM271.588 44V38.36H272.668V39.2C272.836 38.904 273.08 38.672 273.4 38.504C273.72 38.328 274.108 38.24 274.564 38.24C275.212 38.24 275.716 38.424 276.076 38.792C276.444 39.16 276.628 39.736 276.628 40.52V44H275.5V40.664C275.5 40.16 275.396 39.796 275.188 39.572C274.988 39.34 274.68 39.224 274.264 39.224C273.768 39.224 273.384 39.392 273.112 39.728C272.848 40.064 272.716 40.524 272.716 41.108V44H271.588ZM278.479 44V35.984H279.679V42.944H283.423V44H278.479Z" fill="#747FA6"/>
<rect x="253" y="106" width="95" height="55" rx="5" fill="#181A3C"/>
<rect x="253.5" y="106.5" width="94" height="54" rx="4.5" stroke="url(#paint5_linear_838_7028)" stroke-opacity="0.7"/>
<path d="M264.992 152.2L265.268 150.976C264.972 150.896 264.684 150.78 264.404 150.628C264.132 150.468 263.86 150.272 263.588 150.04L264.068 149.104C264.316 149.304 264.56 149.472 264.8 149.608C265.048 149.744 265.288 149.852 265.52 149.932L266.096 147.376L265.844 147.328C265.132 147.192 264.616 146.948 264.296 146.596C263.984 146.244 263.828 145.816 263.828 145.312C263.828 144.864 263.928 144.456 264.128 144.088C264.328 143.72 264.636 143.424 265.052 143.2C265.468 142.976 265.988 142.864 266.612 142.864C266.7 142.864 266.788 142.868 266.876 142.876C266.964 142.876 267.052 142.884 267.14 142.9L267.392 141.784H268.112L267.824 143.02C268.08 143.084 268.328 143.18 268.568 143.308C268.816 143.436 269.052 143.592 269.276 143.776L268.796 144.712C268.588 144.568 268.384 144.444 268.184 144.34C267.984 144.228 267.78 144.136 267.572 144.064L267.044 146.38L267.5 146.464C268.204 146.592 268.716 146.86 269.036 147.268C269.356 147.668 269.516 148.116 269.516 148.612C269.516 149.364 269.256 149.972 268.736 150.436C268.216 150.892 267.464 151.12 266.48 151.12C266.384 151.12 266.292 151.116 266.204 151.108C266.124 151.1 266.044 151.092 265.964 151.084L265.712 152.2H264.992ZM266.192 150.076C266.24 150.076 266.284 150.076 266.324 150.076C266.372 150.076 266.424 150.076 266.48 150.076C267.064 150.076 267.512 149.96 267.824 149.728C268.136 149.496 268.292 149.164 268.292 148.732C268.292 148.436 268.196 148.188 268.004 147.988C267.812 147.78 267.532 147.644 267.164 147.58L266.78 147.508L266.192 150.076ZM266.36 146.248L266.9 143.92C266.86 143.912 266.816 143.908 266.768 143.908C266.728 143.908 266.684 143.908 266.636 143.908C266.108 143.908 265.712 144.02 265.448 144.244C265.184 144.468 265.052 144.772 265.052 145.156C265.052 145.452 265.144 145.684 265.328 145.852C265.52 146.02 265.792 146.14 266.144 146.212L266.36 146.248ZM273.954 151.12C273.25 151.12 272.654 150.944 272.166 150.592C271.678 150.232 271.31 149.744 271.062 149.128C270.814 148.504 270.69 147.792 270.69 146.992C270.69 146.192 270.814 145.484 271.062 144.868C271.31 144.244 271.678 143.756 272.166 143.404C272.654 143.044 273.25 142.864 273.954 142.864C274.666 142.864 275.262 143.044 275.742 143.404C276.23 143.756 276.598 144.244 276.846 144.868C277.094 145.484 277.218 146.192 277.218 146.992C277.218 147.792 277.094 148.504 276.846 149.128C276.598 149.744 276.23 150.232 275.742 150.592C275.262 150.944 274.666 151.12 273.954 151.12ZM273.954 150.136C274.354 150.136 274.706 150.024 275.01 149.8C275.322 149.568 275.562 149.22 275.73 148.756C275.906 148.284 275.994 147.696 275.994 146.992C275.994 146.28 275.906 145.692 275.73 145.228C275.562 144.764 275.322 144.42 275.01 144.196C274.706 143.964 274.354 143.848 273.954 143.848C273.554 143.848 273.198 143.964 272.886 144.196C272.582 144.428 272.342 144.776 272.166 145.24C271.998 145.696 271.914 146.28 271.914 146.992C271.914 147.696 271.998 148.284 272.166 148.756C272.342 149.22 272.582 149.568 272.886 149.8C273.198 150.024 273.554 150.136 273.954 150.136Z" fill="white"/>
<path d="M286 146.5C285.724 146.5 285.5 146.724 285.5 147C285.5 147.276 285.724 147.5 286 147.5V146.5ZM296.354 147.354C296.549 147.158 296.549 146.842 296.354 146.646L293.172 143.464C292.976 143.269 292.66 143.269 292.464 143.464C292.269 143.66 292.269 143.976 292.464 144.172L295.293 147L292.464 149.828C292.269 150.024 292.269 150.34 292.464 150.536C292.66 150.731 292.976 150.731 293.172 150.536L296.354 147.354ZM286 147.5H296V146.5H286V147.5Z" fill="#747FA6"/>
<path d="M304.588 148.024V147.112H307.828V148.024H304.588ZM310.41 152.2L310.686 150.976C310.39 150.896 310.102 150.78 309.822 150.628C309.55 150.468 309.278 150.272 309.006 150.04L309.486 149.104C309.734 149.304 309.978 149.472 310.218 149.608C310.466 149.744 310.706 149.852 310.938 149.932L311.514 147.376L311.262 147.328C310.55 147.192 310.034 146.948 309.714 146.596C309.402 146.244 309.246 145.816 309.246 145.312C309.246 144.864 309.346 144.456 309.546 144.088C309.746 143.72 310.054 143.424 310.47 143.2C310.886 142.976 311.406 142.864 312.03 142.864C312.118 142.864 312.206 142.868 312.294 142.876C312.382 142.876 312.47 142.884 312.558 142.9L312.81 141.784H313.53L313.242 143.02C313.498 143.084 313.746 143.18 313.986 143.308C314.234 143.436 314.47 143.592 314.694 143.776L314.214 144.712C314.006 144.568 313.802 144.444 313.602 144.34C313.402 144.228 313.198 144.136 312.99 144.064L312.462 146.38L312.918 146.464C313.622 146.592 314.134 146.86 314.454 147.268C314.774 147.668 314.934 148.116 314.934 148.612C314.934 149.364 314.674 149.972 314.154 150.436C313.634 150.892 312.882 151.12 311.898 151.12C311.802 151.12 311.71 151.116 311.622 151.108C311.542 151.1 311.462 151.092 311.382 151.084L311.13 152.2H310.41ZM311.61 150.076C311.658 150.076 311.702 150.076 311.742 150.076C311.79 150.076 311.842 150.076 311.898 150.076C312.482 150.076 312.93 149.96 313.242 149.728C313.554 149.496 313.71 149.164 313.71 148.732C313.71 148.436 313.614 148.188 313.422 147.988C313.23 147.78 312.95 147.644 312.582 147.58L312.198 147.508L311.61 150.076ZM311.778 146.248L312.318 143.92C312.278 143.912 312.234 143.908 312.186 143.908C312.146 143.908 312.102 143.908 312.054 143.908C311.526 143.908 311.13 144.02 310.866 144.244C310.602 144.468 310.47 144.772 310.47 145.156C310.47 145.452 310.562 145.684 310.746 145.852C310.938 146.02 311.21 146.14 311.562 146.212L311.778 146.248ZM318.064 151V144.28L316.336 145.228L315.868 144.304L318.376 142.984H319.252V151H318.064ZM324.059 151.12C323.355 151.12 322.759 150.944 322.271 150.592C321.783 150.232 321.415 149.744 321.167 149.128C320.919 148.504 320.795 147.792 320.795 146.992C320.795 146.192 320.919 145.484 321.167 144.868C321.415 144.244 321.783 143.756 322.271 143.404C322.759 143.044 323.355 142.864 324.059 142.864C324.771 142.864 325.367 143.044 325.847 143.404C326.335 143.756 326.703 144.244 326.951 144.868C327.199 145.484 327.323 146.192 327.323 146.992C327.323 147.792 327.199 148.504 326.951 149.128C326.703 149.744 326.335 150.232 325.847 150.592C325.367 150.944 324.771 151.12 324.059 151.12ZM324.059 150.136C324.459 150.136 324.811 150.024 325.115 149.8C325.427 149.568 325.667 149.22 325.835 148.756C326.011 148.284 326.099 147.696 326.099 146.992C326.099 146.28 326.011 145.692 325.835 145.228C325.667 144.764 325.427 144.42 325.115 144.196C324.811 143.964 324.459 143.848 324.059 143.848C323.659 143.848 323.303 143.964 322.991 144.196C322.687 144.428 322.447 144.776 322.271 145.24C322.103 145.696 322.019 146.28 322.019 146.992C322.019 147.696 322.103 148.284 322.271 148.756C322.447 149.22 322.687 149.568 322.991 149.8C323.303 150.024 323.659 150.136 324.059 150.136ZM331.758 151.12C331.054 151.12 330.458 150.944 329.97 150.592C329.482 150.232 329.114 149.744 328.866 149.128C328.618 148.504 328.494 147.792 328.494 146.992C328.494 146.192 328.618 145.484 328.866 144.868C329.114 144.244 329.482 143.756 329.97 143.404C330.458 143.044 331.054 142.864 331.758 142.864C332.47 142.864 333.066 143.044 333.546 143.404C334.034 143.756 334.402 144.244 334.65 144.868C334.898 145.484 335.022 146.192 335.022 146.992C335.022 147.792 334.898 148.504 334.65 149.128C334.402 149.744 334.034 150.232 333.546 150.592C333.066 150.944 332.47 151.12 331.758 151.12ZM331.758 150.136C332.158 150.136 332.51 150.024 332.814 149.8C333.126 149.568 333.366 149.22 333.534 148.756C333.71 148.284 333.798 147.696 333.798 146.992C333.798 146.28 333.71 145.692 333.534 145.228C333.366 144.764 333.126 144.42 332.814 144.196C332.51 143.964 332.158 143.848 331.758 143.848C331.358 143.848 331.002 143.964 330.69 144.196C330.386 144.428 330.146 144.776 329.97 145.24C329.802 145.696 329.718 146.28 329.718 146.992C329.718 147.696 329.802 148.284 329.97 148.756C330.146 149.22 330.386 149.568 330.69 149.8C331.002 150.024 331.358 150.136 331.758 150.136Z" fill="#C75E4B"/>
<path d="M263.948 124V115.984H267.14C268.124 115.984 268.86 116.192 269.348 116.608C269.844 117.024 270.092 117.656 270.092 118.504C270.092 119.352 269.844 119.984 269.348 120.4C268.86 120.808 268.124 121.012 267.14 121.012H265.148V124H263.948ZM265.148 120.004H266.912C267.552 120.004 268.04 119.896 268.376 119.68C268.712 119.456 268.88 119.064 268.88 118.504C268.88 117.944 268.716 117.552 268.388 117.328C268.068 117.104 267.576 116.992 266.912 116.992H265.148V120.004ZM271.588 124V118.36H272.668V119.2C272.836 118.904 273.08 118.672 273.4 118.504C273.72 118.328 274.108 118.24 274.564 118.24C275.212 118.24 275.716 118.424 276.076 118.792C276.444 119.16 276.628 119.736 276.628 120.52V124H275.5V120.664C275.5 120.16 275.396 119.796 275.188 119.572C274.988 119.34 274.68 119.224 274.264 119.224C273.768 119.224 273.384 119.392 273.112 119.728C272.848 120.064 272.716 120.524 272.716 121.108V124H271.588ZM278.479 124V115.984H279.679V122.944H283.423V124H278.479Z" fill="#747FA6"/>
<rect x="106" y="26" width="135" height="55" rx="5" fill="#181A3C"/>
<rect x="106.5" y="26.5" width="134" height="54" rx="4.5" stroke="url(#paint6_linear_838_7028)" stroke-opacity="0.7"/>
<rect x="194" y="33" width="37" height="15" rx="5" fill="#6988FF" fill-opacity="0.1"/>
<rect x="194.5" y="33.5" width="36" height="14" rx="4.5" stroke="#6988FF" stroke-opacity="0.1"/>
<path d="M197.79 44V37.32H198.79V40.12H202.41V37.32H203.41V44H202.41V41H198.79V44H197.79ZM207.187 44.1C206.714 44.1 206.287 44.0067 205.907 43.82C205.534 43.6267 205.237 43.35 205.017 42.99C204.797 42.6233 204.687 42.1767 204.687 41.65C204.687 41.15 204.791 40.7167 204.997 40.35C205.211 39.9833 205.494 39.7 205.847 39.5C206.207 39.3 206.607 39.2 207.047 39.2C207.507 39.2 207.907 39.29 208.247 39.47C208.587 39.65 208.847 39.8933 209.027 40.2C209.214 40.5 209.307 40.8433 209.307 41.23C209.307 41.3433 209.291 41.4667 209.257 41.6C209.231 41.7333 209.194 41.84 209.147 41.92H205.647C205.681 42.22 205.764 42.4733 205.897 42.68C206.037 42.88 206.224 43.0333 206.457 43.14C206.691 43.24 206.961 43.29 207.267 43.29C207.574 43.29 207.844 43.2433 208.077 43.15C208.317 43.0567 208.547 42.9267 208.767 42.76L209.107 43.45C208.847 43.6633 208.554 43.8267 208.227 43.94C207.907 44.0467 207.561 44.1 207.187 44.1ZM205.647 41.2H208.337C208.344 41.18 208.347 41.1633 208.347 41.15C208.347 41.1367 208.347 41.12 208.347 41.1C208.347 40.8733 208.301 40.68 208.207 40.52C208.114 40.3533 207.974 40.2233 207.787 40.13C207.601 40.0367 207.364 39.99 207.077 39.99C206.844 39.99 206.627 40.04 206.427 40.14C206.234 40.2333 206.067 40.37 205.927 40.55C205.794 40.7233 205.701 40.94 205.647 41.2ZM212.533 44.1C212.106 44.1 211.723 44 211.383 43.8C211.043 43.6 210.773 43.3167 210.573 42.95C210.38 42.5833 210.283 42.15 210.283 41.65C210.283 41.1433 210.38 40.71 210.573 40.35C210.773 39.9833 211.043 39.7 211.383 39.5C211.723 39.3 212.106 39.2 212.533 39.2C212.906 39.2 213.233 39.2733 213.513 39.42C213.793 39.56 214.01 39.75 214.163 39.99V37.32H215.103V44H214.203V43.25C214.056 43.5033 213.84 43.71 213.553 43.87C213.266 44.0233 212.926 44.1 212.533 44.1ZM212.723 43.28C213.016 43.28 213.273 43.2133 213.493 43.08C213.713 42.9467 213.886 42.76 214.013 42.52C214.14 42.2733 214.203 41.9833 214.203 41.65C214.203 41.3167 214.14 41.03 214.013 40.79C213.886 40.5433 213.713 40.3533 213.493 40.22C213.273 40.0867 213.02 40.02 212.733 40.02C212.44 40.02 212.18 40.0867 211.953 40.22C211.733 40.3533 211.56 40.5433 211.433 40.79C211.313 41.03 211.253 41.3167 211.253 41.65C211.253 41.9833 211.316 42.2733 211.443 42.52C211.57 42.76 211.743 42.9467 211.963 43.08C212.183 43.2133 212.436 43.28 212.723 43.28ZM218.657 45.92C218.271 45.92 217.904 45.86 217.557 45.74C217.217 45.62 216.894 45.4267 216.587 45.16L216.927 44.47C217.227 44.7033 217.514 44.8667 217.787 44.96C218.067 45.0533 218.341 45.1 218.607 45.1C219.114 45.1 219.511 44.9633 219.797 44.69C220.084 44.4167 220.227 44.0133 220.227 43.48V43.06C220.074 43.2733 219.857 43.45 219.577 43.59C219.304 43.73 218.977 43.8 218.597 43.8C218.197 43.8 217.824 43.71 217.477 43.53C217.137 43.35 216.864 43.09 216.657 42.75C216.451 42.4033 216.347 41.9867 216.347 41.5C216.347 41.0133 216.451 40.6 216.657 40.26C216.864 39.9133 217.137 39.65 217.477 39.47C217.824 39.29 218.197 39.2 218.597 39.2C218.997 39.2 219.337 39.28 219.617 39.44C219.904 39.5933 220.121 39.78 220.267 40V39.3H221.167V43.34C221.167 43.8933 221.067 44.36 220.867 44.74C220.667 45.1267 220.381 45.42 220.007 45.62C219.634 45.82 219.184 45.92 218.657 45.92ZM218.787 42.99C219.061 42.99 219.307 42.9333 219.527 42.82C219.747 42.7067 219.924 42.54 220.057 42.32C220.191 42.1 220.257 41.8267 220.257 41.5C220.257 41.1733 220.191 40.9 220.057 40.68C219.924 40.46 219.747 40.2933 219.527 40.18C219.307 40.0667 219.061 40.01 218.787 40.01C218.521 40.01 218.274 40.0667 218.047 40.18C217.827 40.2933 217.651 40.46 217.517 40.68C217.384 40.9 217.317 41.1733 217.317 41.5C217.317 41.8267 217.384 42.1 217.517 42.32C217.651 42.54 217.827 42.7067 218.047 42.82C218.274 42.9333 218.521 42.99 218.787 42.99ZM224.912 44.1C224.439 44.1 224.012 44.0067 223.632 43.82C223.259 43.6267 222.962 43.35 222.742 42.99C222.522 42.6233 222.412 42.1767 222.412 41.65C222.412 41.15 222.515 40.7167 222.722 40.35C222.935 39.9833 223.219 39.7 223.572 39.5C223.932 39.3 224.332 39.2 224.772 39.2C225.232 39.2 225.632 39.29 225.972 39.47C226.312 39.65 226.572 39.8933 226.752 40.2C226.939 40.5 227.032 40.8433 227.032 41.23C227.032 41.3433 227.015 41.4667 226.982 41.6C226.955 41.7333 226.919 41.84 226.872 41.92H223.372C223.405 42.22 223.489 42.4733 223.622 42.68C223.762 42.88 223.949 43.0333 224.182 43.14C224.415 43.24 224.685 43.29 224.992 43.29C225.299 43.29 225.569 43.2433 225.802 43.15C226.042 43.0567 226.272 42.9267 226.492 42.76L226.832 43.45C226.572 43.6633 226.279 43.8267 225.952 43.94C225.632 44.0467 225.285 44.1 224.912 44.1ZM223.372 41.2H226.062C226.069 41.18 226.072 41.1633 226.072 41.15C226.072 41.1367 226.072 41.12 226.072 41.1C226.072 40.8733 226.025 40.68 225.932 40.52C225.839 40.3533 225.699 40.2233 225.512 40.13C225.325 40.0367 225.089 39.99 224.802 39.99C224.569 39.99 224.352 40.04 224.152 40.14C223.959 40.2333 223.792 40.37 223.652 40.55C223.519 40.7233 223.425 40.94 223.372 41.2Z" fill="#6988FF"/>
<g clip-path="url(#clip3_838_7028)">
<path d="M126.5 73C129.814 73 132.5 70.3137 132.5 67C132.5 63.6863 129.814 61 126.5 61C123.186 61 120.5 63.6863 120.5 67C120.5 70.3137 123.186 73 126.5 73Z" fill="#627EEA"/>
<path d="M126.687 62.5V65.8262L129.498 67.0825L126.687 62.5Z" fill="white" fill-opacity="0.602"/>
<path d="M126.687 62.5L123.875 67.0825L126.687 65.8262V62.5Z" fill="white"/>
<path d="M126.687 69.238V71.4981L129.5 67.606L126.687 69.238Z" fill="white" fill-opacity="0.602"/>
<path d="M126.687 71.4981V69.2376L123.875 67.606L126.687 71.4981Z" fill="white"/>
<path d="M126.687 68.7149L129.498 67.0825L126.687 65.827V68.7149Z" fill="white" fill-opacity="0.2"/>
<path d="M123.875 67.0825L126.687 68.7149V65.827L123.875 67.0825Z" fill="white" fill-opacity="0.602"/>
</g>
<path d="M139.357 71V64.28L137.629 65.228L137.161 64.304L139.669 62.984H140.545V71H139.357Z" fill="white"/>
<path d="M116.948 44V35.984H118.148V42.944H121.892V44H116.948ZM125.728 44.12C125.152 44.12 124.64 44 124.192 43.76C123.744 43.512 123.396 43.168 123.148 42.728C122.9 42.288 122.776 41.772 122.776 41.18C122.776 40.588 122.9 40.072 123.148 39.632C123.396 39.192 123.744 38.852 124.192 38.612C124.64 38.364 125.152 38.24 125.728 38.24C126.312 38.24 126.824 38.364 127.264 38.612C127.712 38.852 128.06 39.192 128.308 39.632C128.556 40.072 128.68 40.588 128.68 41.18C128.68 41.772 128.556 42.288 128.308 42.728C128.06 43.168 127.712 43.512 127.264 43.76C126.824 44 126.312 44.12 125.728 44.12ZM125.728 43.136C126.088 43.136 126.404 43.056 126.676 42.896C126.948 42.736 127.156 42.512 127.3 42.224C127.452 41.928 127.528 41.58 127.528 41.18C127.528 40.78 127.452 40.436 127.3 40.148C127.156 39.852 126.948 39.624 126.676 39.464C126.404 39.304 126.088 39.224 125.728 39.224C125.368 39.224 125.052 39.304 124.78 39.464C124.508 39.624 124.296 39.852 124.144 40.148C124 40.436 123.928 40.78 123.928 41.18C123.928 41.58 124 41.928 124.144 42.224C124.296 42.512 124.508 42.736 124.78 42.896C125.052 43.056 125.368 43.136 125.728 43.136ZM130.166 44V38.36H131.246V39.2C131.414 38.904 131.658 38.672 131.978 38.504C132.298 38.328 132.686 38.24 133.142 38.24C133.79 38.24 134.294 38.424 134.654 38.792C135.022 39.16 135.206 39.736 135.206 40.52V44H134.078V40.664C134.078 40.16 133.974 39.796 133.766 39.572C133.566 39.34 133.258 39.224 132.842 39.224C132.346 39.224 131.962 39.392 131.69 39.728C131.426 40.064 131.294 40.524 131.294 41.108V44H130.166ZM139.469 46.304C139.005 46.304 138.565 46.232 138.149 46.088C137.741 45.944 137.353 45.712 136.985 45.392L137.393 44.564C137.753 44.844 138.097 45.04 138.425 45.152C138.761 45.264 139.089 45.32 139.409 45.32C140.017 45.32 140.493 45.156 140.837 44.828C141.181 44.5 141.353 44.016 141.353 43.376V42.872C141.169 43.128 140.909 43.34 140.573 43.508C140.245 43.676 139.853 43.76 139.397 43.76C138.917 43.76 138.469 43.652 138.053 43.436C137.645 43.22 137.317 42.908 137.069 42.5C136.821 42.084 136.697 41.584 136.697 41C136.697 40.416 136.821 39.92 137.069 39.512C137.317 39.096 137.645 38.78 138.053 38.564C138.469 38.348 138.917 38.24 139.397 38.24C139.877 38.24 140.285 38.336 140.621 38.528C140.965 38.712 141.225 38.936 141.401 39.2V38.36H142.481V43.208C142.481 43.872 142.361 44.432 142.121 44.888C141.881 45.352 141.537 45.704 141.089 45.944C140.641 46.184 140.101 46.304 139.469 46.304ZM139.625 42.788C139.953 42.788 140.249 42.72 140.513 42.584C140.777 42.448 140.989 42.248 141.149 41.984C141.309 41.72 141.389 41.392 141.389 41C141.389 40.608 141.309 40.28 141.149 40.016C140.989 39.752 140.777 39.552 140.513 39.416C140.249 39.28 139.953 39.212 139.625 39.212C139.305 39.212 139.009 39.28 138.737 39.416C138.473 39.552 138.261 39.752 138.101 40.016C137.941 40.28 137.861 40.608 137.861 41C137.861 41.392 137.941 41.72 138.101 41.984C138.261 42.248 138.473 42.448 138.737 42.584C139.009 42.72 139.305 42.788 139.625 42.788ZM147.229 44V35.984H150.421C151.405 35.984 152.141 36.192 152.629 36.608C153.125 37.024 153.373 37.656 153.373 38.504C153.373 39.352 153.125 39.984 152.629 40.4C152.141 40.808 151.405 41.012 150.421 41.012H148.429V44H147.229ZM148.429 40.004H150.193C150.833 40.004 151.321 39.896 151.657 39.68C151.993 39.456 152.161 39.064 152.161 38.504C152.161 37.944 151.997 37.552 151.669 37.328C151.349 37.104 150.857 36.992 150.193 36.992H148.429V40.004ZM156.933 44.12C156.285 44.12 155.777 43.936 155.409 43.568C155.049 43.2 154.869 42.624 154.869 41.84V38.36H155.997V41.696C155.997 42.2 156.097 42.568 156.297 42.8C156.505 43.024 156.817 43.136 157.233 43.136C157.729 43.136 158.109 42.968 158.373 42.632C158.645 42.296 158.781 41.836 158.781 41.252V38.36H159.909V44H158.829V43.16C158.661 43.456 158.417 43.692 158.097 43.868C157.777 44.036 157.389 44.12 156.933 44.12ZM164.065 44.072C163.481 44.072 163.045 43.936 162.757 43.664C162.477 43.384 162.337 42.952 162.337 42.368V39.32H161.101V38.36H162.337V36.752H163.465V38.36H164.929V39.32H163.465V42.272C163.465 42.552 163.533 42.764 163.669 42.908C163.805 43.044 164.013 43.112 164.293 43.112C164.389 43.112 164.501 43.108 164.629 43.1C164.757 43.092 164.857 43.08 164.929 43.064V43.976C164.825 44.008 164.693 44.032 164.533 44.048C164.381 44.064 164.225 44.072 164.065 44.072Z" fill="#C75E4B"/>
<path d="M171.389 36.7471C171.174 36.5324 170.826 36.5324 170.611 36.7471C170.396 36.9619 170.396 37.3102 170.611 37.525L171.389 36.7471ZM177.364 44.05C177.668 44.05 177.914 43.8038 177.914 43.5L177.914 38.55C177.914 38.2463 177.668 38 177.364 38C177.06 38 176.814 38.2463 176.814 38.55L176.814 42.95L172.414 42.95C172.11 42.95 171.864 43.1963 171.864 43.5C171.864 43.8038 172.11 44.05 172.414 44.05L177.364 44.05ZM170.611 37.525L176.975 43.8889L177.753 43.1111L171.389 36.7471L170.611 37.525Z" fill="#C75E4B"/>
<rect x="106" y="106" width="135" height="55" rx="5" fill="#181A3C"/>
<rect x="106.5" y="106.5" width="134" height="54" rx="4.5" stroke="url(#paint7_linear_838_7028)" stroke-opacity="0.7"/>
<g clip-path="url(#clip4_838_7028)">
<path d="M122 153C125.314 153 128 150.314 128 147C128 143.686 125.314 141 122 141C118.686 141 116 143.686 116 147C116 150.314 118.686 153 122 153Z" fill="#627EEA"/>
<path d="M122.187 142.5V145.826L124.998 147.082L122.187 142.5Z" fill="white" fill-opacity="0.602"/>
<path d="M122.187 142.5L119.375 147.082L122.187 145.826V142.5Z" fill="white"/>
<path d="M122.187 149.238V151.498L125 147.606L122.187 149.238Z" fill="white" fill-opacity="0.602"/>
<path d="M122.187 151.498V149.238L119.375 147.606L122.187 151.498Z" fill="white"/>
<path d="M122.187 148.715L124.998 147.083L122.187 145.827V148.715Z" fill="white" fill-opacity="0.2"/>
<path d="M119.375 147.083L122.187 148.715V145.827L119.375 147.083Z" fill="white" fill-opacity="0.602"/>
</g>
<path d="M136.059 151.12C135.355 151.12 134.759 150.944 134.271 150.592C133.783 150.232 133.415 149.744 133.167 149.128C132.919 148.504 132.795 147.792 132.795 146.992C132.795 146.192 132.919 145.484 133.167 144.868C133.415 144.244 133.783 143.756 134.271 143.404C134.759 143.044 135.355 142.864 136.059 142.864C136.771 142.864 137.367 143.044 137.847 143.404C138.335 143.756 138.703 144.244 138.951 144.868C139.199 145.484 139.323 146.192 139.323 146.992C139.323 147.792 139.199 148.504 138.951 149.128C138.703 149.744 138.335 150.232 137.847 150.592C137.367 150.944 136.771 151.12 136.059 151.12ZM136.059 150.136C136.459 150.136 136.811 150.024 137.115 149.8C137.427 149.568 137.667 149.22 137.835 148.756C138.011 148.284 138.099 147.696 138.099 146.992C138.099 146.28 138.011 145.692 137.835 145.228C137.667 144.764 137.427 144.42 137.115 144.196C136.811 143.964 136.459 143.848 136.059 143.848C135.659 143.848 135.303 143.964 134.991 144.196C134.687 144.428 134.447 144.776 134.271 145.24C134.103 145.696 134.019 146.28 134.019 146.992C134.019 147.696 134.103 148.284 134.271 148.756C134.447 149.22 134.687 149.568 134.991 149.8C135.303 150.024 135.659 150.136 136.059 150.136ZM141.454 151.072C141.238 151.072 141.066 151.012 140.938 150.892C140.818 150.764 140.758 150.608 140.758 150.424C140.758 150.24 140.822 150.084 140.95 149.956C141.078 149.828 141.246 149.764 141.454 149.764C141.654 149.764 141.818 149.828 141.946 149.956C142.074 150.084 142.138 150.24 142.138 150.424C142.138 150.608 142.074 150.764 141.946 150.892C141.826 151.012 141.662 151.072 141.454 151.072ZM143.857 151V144.28L142.129 145.228L141.661 144.304L144.169 142.984H145.045V151H143.857Z" fill="white"/>
<path d="M154 146.5C153.724 146.5 153.5 146.724 153.5 147C153.5 147.276 153.724 147.5 154 147.5V146.5ZM164.354 147.354C164.549 147.158 164.549 146.842 164.354 146.646L161.172 143.464C160.976 143.269 160.66 143.269 160.464 143.464C160.269 143.66 160.269 143.976 160.464 144.172L163.293 147L160.464 149.828C160.269 150.024 160.269 150.34 160.464 150.536C160.66 150.731 160.976 150.731 161.172 150.536L164.354 147.354ZM154 147.5H164V146.5H154V147.5Z" fill="#747FA6"/>
<g clip-path="url(#clip5_838_7028)">
<path d="M178 153C181.314 153 184 150.314 184 147C184 143.686 181.314 141 178 141C174.686 141 172 143.686 172 147C172 150.314 174.686 153 178 153Z" fill="#627EEA"/>
<path d="M178.187 142.5V145.826L180.998 147.082L178.187 142.5Z" fill="white" fill-opacity="0.602"/>
<path d="M178.187 142.5L175.375 147.082L178.187 145.826V142.5Z" fill="white"/>
<path d="M178.187 149.238V151.498L181 147.606L178.187 149.238Z" fill="white" fill-opacity="0.602"/>
<path d="M178.187 151.498V149.238L175.375 147.606L178.187 151.498Z" fill="white"/>
<path d="M178.187 148.715L180.998 147.083L178.187 145.827V148.715Z" fill="white" fill-opacity="0.2"/>
<path d="M175.375 147.083L178.187 148.715V145.827L175.375 147.083Z" fill="white" fill-opacity="0.602"/>
</g>
<path d="M190.857 151V144.28L189.129 145.228L188.661 144.304L191.169 142.984H192.045V151H190.857Z" fill="white"/>
<path d="M116.3 124L118.46 121.084L116.42 118.36H117.716L119.18 120.388L120.644 118.36H121.94L119.9 121.084L122.06 124H120.764L119.18 121.852L117.596 124H116.3ZM124.919 124V117.28L123.191 118.228L122.723 117.304L125.231 115.984H126.107V124H124.919ZM130.915 124.12C130.211 124.12 129.615 123.944 129.127 123.592C128.639 123.232 128.271 122.744 128.023 122.128C127.775 121.504 127.651 120.792 127.651 119.992C127.651 119.192 127.775 118.484 128.023 117.868C128.271 117.244 128.639 116.756 129.127 116.404C129.615 116.044 130.211 115.864 130.915 115.864C131.627 115.864 132.223 116.044 132.703 116.404C133.191 116.756 133.559 117.244 133.807 117.868C134.055 118.484 134.179 119.192 134.179 119.992C134.179 120.792 134.055 121.504 133.807 122.128C133.559 122.744 133.191 123.232 132.703 123.592C132.223 123.944 131.627 124.12 130.915 124.12ZM130.915 123.136C131.315 123.136 131.667 123.024 131.971 122.8C132.283 122.568 132.523 122.22 132.691 121.756C132.867 121.284 132.955 120.696 132.955 119.992C132.955 119.28 132.867 118.692 132.691 118.228C132.523 117.764 132.283 117.42 131.971 117.196C131.667 116.964 131.315 116.848 130.915 116.848C130.515 116.848 130.159 116.964 129.847 117.196C129.543 117.428 129.303 117.776 129.127 118.24C128.959 118.696 128.875 119.28 128.875 119.992C128.875 120.696 128.959 121.284 129.127 121.756C129.303 122.22 129.543 122.568 129.847 122.8C130.159 123.024 130.515 123.136 130.915 123.136Z" fill="#46956A"/>
<path d="M138.948 124V115.984H140.148V122.944H143.892V124H138.948ZM147.728 124.12C147.152 124.12 146.64 124 146.192 123.76C145.744 123.512 145.396 123.168 145.148 122.728C144.9 122.288 144.776 121.772 144.776 121.18C144.776 120.588 144.9 120.072 145.148 119.632C145.396 119.192 145.744 118.852 146.192 118.612C146.64 118.364 147.152 118.24 147.728 118.24C148.312 118.24 148.824 118.364 149.264 118.612C149.712 118.852 150.06 119.192 150.308 119.632C150.556 120.072 150.68 120.588 150.68 121.18C150.68 121.772 150.556 122.288 150.308 122.728C150.06 123.168 149.712 123.512 149.264 123.76C148.824 124 148.312 124.12 147.728 124.12ZM147.728 123.136C148.088 123.136 148.404 123.056 148.676 122.896C148.948 122.736 149.156 122.512 149.3 122.224C149.452 121.928 149.528 121.58 149.528 121.18C149.528 120.78 149.452 120.436 149.3 120.148C149.156 119.852 148.948 119.624 148.676 119.464C148.404 119.304 148.088 119.224 147.728 119.224C147.368 119.224 147.052 119.304 146.78 119.464C146.508 119.624 146.296 119.852 146.144 120.148C146 120.436 145.928 120.78 145.928 121.18C145.928 121.58 146 121.928 146.144 122.224C146.296 122.512 146.508 122.736 146.78 122.896C147.052 123.056 147.368 123.136 147.728 123.136ZM152.166 124V118.36H153.246V119.2C153.414 118.904 153.658 118.672 153.978 118.504C154.298 118.328 154.686 118.24 155.142 118.24C155.79 118.24 156.294 118.424 156.654 118.792C157.022 119.16 157.206 119.736 157.206 120.52V124H156.078V120.664C156.078 120.16 155.974 119.796 155.766 119.572C155.566 119.34 155.258 119.224 154.842 119.224C154.346 119.224 153.962 119.392 153.69 119.728C153.426 120.064 153.294 120.524 153.294 121.108V124H152.166ZM161.469 126.304C161.005 126.304 160.565 126.232 160.149 126.088C159.741 125.944 159.353 125.712 158.985 125.392L159.393 124.564C159.753 124.844 160.097 125.04 160.425 125.152C160.761 125.264 161.089 125.32 161.409 125.32C162.017 125.32 162.493 125.156 162.837 124.828C163.181 124.5 163.353 124.016 163.353 123.376V122.872C163.169 123.128 162.909 123.34 162.573 123.508C162.245 123.676 161.853 123.76 161.397 123.76C160.917 123.76 160.469 123.652 160.053 123.436C159.645 123.22 159.317 122.908 159.069 122.5C158.821 122.084 158.697 121.584 158.697 121C158.697 120.416 158.821 119.92 159.069 119.512C159.317 119.096 159.645 118.78 160.053 118.564C160.469 118.348 160.917 118.24 161.397 118.24C161.877 118.24 162.285 118.336 162.621 118.528C162.965 118.712 163.225 118.936 163.401 119.2V118.36H164.481V123.208C164.481 123.872 164.361 124.432 164.121 124.888C163.881 125.352 163.537 125.704 163.089 125.944C162.641 126.184 162.101 126.304 161.469 126.304ZM161.625 122.788C161.953 122.788 162.249 122.72 162.513 122.584C162.777 122.448 162.989 122.248 163.149 121.984C163.309 121.72 163.389 121.392 163.389 121C163.389 120.608 163.309 120.28 163.149 120.016C162.989 119.752 162.777 119.552 162.513 119.416C162.249 119.28 161.953 119.212 161.625 119.212C161.305 119.212 161.009 119.28 160.737 119.416C160.473 119.552 160.261 119.752 160.101 120.016C159.941 120.28 159.861 120.608 159.861 121C159.861 121.392 159.941 121.72 160.101 121.984C160.261 122.248 160.473 122.448 160.737 122.584C161.009 122.72 161.305 122.788 161.625 122.788Z" fill="#46956A"/>
<path d="M170.611 123.111C170.396 123.326 170.396 123.674 170.611 123.889C170.826 124.104 171.174 124.104 171.389 123.889L170.611 123.111ZM177.914 117.136C177.914 116.832 177.668 116.586 177.364 116.586L172.414 116.586C172.11 116.586 171.864 116.832 171.864 117.136C171.864 117.44 172.11 117.686 172.414 117.686L176.814 117.686L176.814 122.086C176.814 122.39 177.06 122.636 177.364 122.636C177.668 122.636 177.914 122.39 177.914 122.086L177.914 117.136ZM171.389 123.889L177.753 117.525L176.975 116.747L170.611 123.111L171.389 123.889Z" fill="#46956A"/>
<rect x="241" y="54" width="2" height="12" transform="rotate(-90 241 54)" fill="#20224E"/>
<rect x="241" y="134" width="2" height="12" transform="rotate(-90 241 134)" fill="#20224E"/>
<rect x="94" y="134" width="2" height="12" transform="rotate(-90 94 134)" fill="#20224E"/>
<rect x="80" y="94" width="2" height="12" transform="rotate(-90 80 94)" fill="#20224E"/>
<rect x="92" y="52" width="2" height="82" fill="#20224E"/>
<rect x="94" y="54" width="2" height="12" transform="rotate(-90 94 54)" fill="#20224E"/>
<rect x="360" y="52" width="2" height="12" transform="rotate(90 360 52)" fill="#20224E"/>
<rect x="374" y="92" width="2" height="12" transform="rotate(90 374 92)" fill="#20224E"/>
<rect x="362" y="134" width="2" height="82" transform="rotate(-180 362 134)" fill="#20224E"/>
<rect x="360" y="132" width="2" height="12" transform="rotate(90 360 132)" fill="#20224E"/>
<rect x="246" width="109" height="17" rx="8.5" fill="#C75E4B" fill-opacity="0.1"/>
<rect x="246.5" y="0.5" width="108" height="16" rx="8" stroke="#C75E4B" stroke-opacity="0.1"/>
<g clip-path="url(#clip6_838_7028)">
<path d="M256 13.5C258.761 13.5 261 11.2614 261 8.5C261 5.73858 258.761 3.5 256 3.5C253.239 3.5 251 5.73858 251 8.5C251 11.2614 253.239 13.5 256 13.5Z" fill="#627EEA"/>
<path d="M256.156 4.75V7.52187L258.498 8.56875L256.156 4.75Z" fill="white" fill-opacity="0.602"/>
<path d="M256.156 4.75L253.812 8.56875L256.156 7.52187V4.75Z" fill="white"/>
<path d="M256.156 10.365V12.2484L258.5 9.005L256.156 10.365Z" fill="white" fill-opacity="0.602"/>
<path d="M256.156 12.2484V10.3647L253.812 9.005L256.156 12.2484Z" fill="white"/>
<path d="M256.156 9.92905L258.498 8.56874L256.156 7.52249V9.92905Z" fill="white" fill-opacity="0.2"/>
<path d="M253.812 8.56874L256.156 9.92905V7.52249L253.812 8.56874Z" fill="white" fill-opacity="0.602"/>
</g>
<path d="M268.161 12.1C267.701 12.1 267.288 12.03 266.921 11.89C266.554 11.7433 266.204 11.5133 265.871 11.2L266.251 10.48C266.578 10.76 266.904 10.9633 267.231 11.09C267.558 11.2167 267.868 11.28 268.161 11.28C268.594 11.28 268.944 11.1767 269.211 10.97C269.478 10.7567 269.611 10.47 269.611 10.11C269.611 9.75 269.478 9.46667 269.211 9.26C268.944 9.05333 268.594 8.95 268.161 8.95H267.341V8.17H268.161C268.554 8.17 268.878 8.08 269.131 7.9C269.384 7.72 269.511 7.45667 269.511 7.11C269.511 6.76333 269.384 6.5 269.131 6.32C268.878 6.13333 268.554 6.04 268.161 6.04C267.874 6.04 267.581 6.10333 267.281 6.23C266.988 6.35667 266.678 6.56 266.351 6.84L265.971 6.12C266.304 5.80667 266.644 5.58 266.991 5.44C267.344 5.29333 267.734 5.22 268.161 5.22C268.634 5.22 269.048 5.3 269.401 5.46C269.754 5.61333 270.031 5.82667 270.231 6.1C270.431 6.37333 270.531 6.68667 270.531 7.04C270.531 7.4 270.418 7.71333 270.191 7.98C269.971 8.24667 269.664 8.44 269.271 8.56C269.698 8.68667 270.031 8.89333 270.271 9.18C270.511 9.46 270.631 9.79333 270.631 10.18C270.631 10.5533 270.528 10.8867 270.321 11.18C270.121 11.4667 269.838 11.6933 269.471 11.86C269.104 12.02 268.668 12.1 268.161 12.1ZM272.073 13.54L271.583 13.3C271.71 13.08 271.806 12.85 271.873 12.61C271.946 12.3767 271.983 12.13 271.983 11.87V11.06H272.843V11.87C272.843 12.2633 272.783 12.59 272.663 12.85C272.543 13.11 272.346 13.34 272.073 13.54ZM276.481 12.1C276.021 12.1 275.608 12.03 275.241 11.89C274.875 11.7433 274.525 11.5133 274.191 11.2L274.571 10.48C274.898 10.76 275.225 10.9633 275.551 11.09C275.878 11.2167 276.188 11.28 276.481 11.28C276.915 11.28 277.265 11.1767 277.531 10.97C277.798 10.7567 277.931 10.47 277.931 10.11C277.931 9.75 277.798 9.46667 277.531 9.26C277.265 9.05333 276.915 8.95 276.481 8.95H275.661V8.17H276.481C276.875 8.17 277.198 8.08 277.451 7.9C277.705 7.72 277.831 7.45667 277.831 7.11C277.831 6.76333 277.705 6.5 277.451 6.32C277.198 6.13333 276.875 6.04 276.481 6.04C276.195 6.04 275.901 6.10333 275.601 6.23C275.308 6.35667 274.998 6.56 274.671 6.84L274.291 6.12C274.625 5.80667 274.965 5.58 275.311 5.44C275.665 5.29333 276.055 5.22 276.481 5.22C276.955 5.22 277.368 5.3 277.721 5.46C278.075 5.61333 278.351 5.82667 278.551 6.1C278.751 6.37333 278.851 6.68667 278.851 7.04C278.851 7.4 278.738 7.71333 278.511 7.98C278.291 8.24667 277.985 8.44 277.591 8.56C278.018 8.68667 278.351 8.89333 278.591 9.18C278.831 9.46 278.951 9.79333 278.951 10.18C278.951 10.5533 278.848 10.8867 278.641 11.18C278.441 11.4667 278.158 11.6933 277.791 11.86C277.425 12.02 276.988 12.1 276.481 12.1ZM280.623 12L283.323 6.14H279.733V5.32H284.293V6.04L281.593 12H280.623ZM287.669 12V10.43H284.269V9.44L287.569 5.32H288.629V9.62H289.509V10.43H288.629V12H287.669ZM285.119 9.62H287.669V6.39L285.119 9.62Z" fill="white"/>
<path d="M294 8C293.724 8 293.5 8.22386 293.5 8.5C293.5 8.77614 293.724 9 294 9V8ZM304.354 8.85355C304.549 8.65829 304.549 8.34171 304.354 8.14645L301.172 4.96447C300.976 4.7692 300.66 4.7692 300.464 4.96447C300.269 5.15973 300.269 5.47631 300.464 5.67157L303.293 8.5L300.464 11.3284C300.269 11.5237 300.269 11.8403 300.464 12.0355C300.66 12.2308 300.976 12.2308 301.172 12.0355L304.354 8.85355ZM294 9H304V8H294V9Z" fill="#C75E4B" fill-opacity="0.5"/>
<g clip-path="url(#clip7_838_7028)">
<path d="M313 13.5C315.761 13.5 318 11.2614 318 8.5C318 5.73858 315.761 3.5 313 3.5C310.239 3.5 308 5.73858 308 8.5C308 11.2614 310.239 13.5 313 13.5Z" fill="#627EEA"/>
<path d="M313.156 4.75V7.52187L315.498 8.56875L313.156 4.75Z" fill="white" fill-opacity="0.602"/>
<path d="M313.156 4.75L310.812 8.56875L313.156 7.52187V4.75Z" fill="white"/>
<path d="M313.156 10.365V12.2484L315.5 9.005L313.156 10.365Z" fill="white" fill-opacity="0.602"/>
<path d="M313.156 12.2484V10.3647L310.812 9.005L313.156 12.2484Z" fill="white"/>
<path d="M313.156 9.92905L315.498 8.56874L313.156 7.52249V9.92905Z" fill="white" fill-opacity="0.2"/>
<path d="M310.812 8.56874L313.156 9.92905V7.52249L310.812 8.56874Z" fill="white" fill-opacity="0.602"/>
</g>
<path d="M325.212 12.1C324.752 12.1 324.338 12.03 323.972 11.89C323.605 11.7433 323.255 11.5133 322.922 11.2L323.302 10.48C323.628 10.76 323.955 10.9633 324.282 11.09C324.608 11.2167 324.918 11.28 325.212 11.28C325.645 11.28 325.995 11.1767 326.262 10.97C326.528 10.7567 326.662 10.47 326.662 10.11C326.662 9.75 326.528 9.46667 326.262 9.26C325.995 9.05333 325.645 8.95 325.212 8.95H324.392V8.17H325.212C325.605 8.17 325.928 8.08 326.182 7.9C326.435 7.72 326.562 7.45667 326.562 7.11C326.562 6.76333 326.435 6.5 326.182 6.32C325.928 6.13333 325.605 6.04 325.212 6.04C324.925 6.04 324.632 6.10333 324.332 6.23C324.038 6.35667 323.728 6.56 323.402 6.84L323.022 6.12C323.355 5.80667 323.695 5.58 324.042 5.44C324.395 5.29333 324.785 5.22 325.212 5.22C325.685 5.22 326.098 5.3 326.452 5.46C326.805 5.61333 327.082 5.82667 327.282 6.1C327.482 6.37333 327.582 6.68667 327.582 7.04C327.582 7.4 327.468 7.71333 327.242 7.98C327.022 8.24667 326.715 8.44 326.322 8.56C326.748 8.68667 327.082 8.89333 327.322 9.18C327.562 9.46 327.682 9.79333 327.682 10.18C327.682 10.5533 327.578 10.8867 327.372 11.18C327.172 11.4667 326.888 11.6933 326.522 11.86C326.155 12.02 325.718 12.1 325.212 12.1ZM329.124 13.54L328.634 13.3C328.76 13.08 328.857 12.85 328.924 12.61C328.997 12.3767 329.034 12.13 329.034 11.87V11.06H329.894V11.87C329.894 12.2633 329.834 12.59 329.714 12.85C329.594 13.11 329.397 13.34 329.124 13.54ZM333.962 12.1C333.375 12.1 332.879 11.9533 332.472 11.66C332.065 11.36 331.759 10.9533 331.552 10.44C331.345 9.92 331.242 9.32667 331.242 8.66C331.242 7.99333 331.345 7.40333 331.552 6.89C331.759 6.37 332.065 5.96333 332.472 5.67C332.879 5.37 333.375 5.22 333.962 5.22C334.555 5.22 335.052 5.37 335.452 5.67C335.859 5.96333 336.165 6.37 336.372 6.89C336.579 7.40333 336.682 7.99333 336.682 8.66C336.682 9.32667 336.579 9.92 336.372 10.44C336.165 10.9533 335.859 11.36 335.452 11.66C335.052 11.9533 334.555 12.1 333.962 12.1ZM333.962 11.28C334.295 11.28 334.589 11.1867 334.842 11C335.102 10.8067 335.302 10.5167 335.442 10.13C335.589 9.73667 335.662 9.24667 335.662 8.66C335.662 8.06667 335.589 7.57667 335.442 7.19C335.302 6.80333 335.102 6.51667 334.842 6.33C334.589 6.13667 334.295 6.04 333.962 6.04C333.629 6.04 333.332 6.13667 333.072 6.33C332.819 6.52333 332.619 6.81333 332.472 7.2C332.332 7.58 332.262 8.06667 332.262 8.66C332.262 9.24667 332.332 9.73667 332.472 10.13C332.619 10.5167 332.819 10.8067 333.072 11C333.332 11.1867 333.629 11.28 333.962 11.28ZM340.378 12.1C339.791 12.1 339.295 11.9533 338.888 11.66C338.481 11.36 338.175 10.9533 337.968 10.44C337.761 9.92 337.658 9.32667 337.658 8.66C337.658 7.99333 337.761 7.40333 337.968 6.89C338.175 6.37 338.481 5.96333 338.888 5.67C339.295 5.37 339.791 5.22 340.378 5.22C340.971 5.22 341.468 5.37 341.868 5.67C342.275 5.96333 342.581 6.37 342.788 6.89C342.995 7.40333 343.098 7.99333 343.098 8.66C343.098 9.32667 342.995 9.92 342.788 10.44C342.581 10.9533 342.275 11.36 341.868 11.66C341.468 11.9533 340.971 12.1 340.378 12.1ZM340.378 11.28C340.711 11.28 341.005 11.1867 341.258 11C341.518 10.8067 341.718 10.5167 341.858 10.13C342.005 9.73667 342.078 9.24667 342.078 8.66C342.078 8.06667 342.005 7.57667 341.858 7.19C341.718 6.80333 341.518 6.51667 341.258 6.33C341.005 6.13667 340.711 6.04 340.378 6.04C340.045 6.04 339.748 6.13667 339.488 6.33C339.235 6.52333 339.035 6.81333 338.888 7.2C338.748 7.58 338.678 8.06667 338.678 8.66C338.678 9.24667 338.748 9.73667 338.888 10.13C339.035 10.5167 339.235 10.8067 339.488 11C339.748 11.1867 340.045 11.28 340.378 11.28ZM346.794 12.1C346.207 12.1 345.711 11.9533 345.304 11.66C344.897 11.36 344.591 10.9533 344.384 10.44C344.177 9.92 344.074 9.32667 344.074 8.66C344.074 7.99333 344.177 7.40333 344.384 6.89C344.591 6.37 344.897 5.96333 345.304 5.67C345.711 5.37 346.207 5.22 346.794 5.22C347.387 5.22 347.884 5.37 348.284 5.67C348.691 5.96333 348.997 6.37 349.204 6.89C349.411 7.40333 349.514 7.99333 349.514 8.66C349.514 9.32667 349.411 9.92 349.204 10.44C348.997 10.9533 348.691 11.36 348.284 11.66C347.884 11.9533 347.387 12.1 346.794 12.1ZM346.794 11.28C347.127 11.28 347.421 11.1867 347.674 11C347.934 10.8067 348.134 10.5167 348.274 10.13C348.421 9.73667 348.494 9.24667 348.494 8.66C348.494 8.06667 348.421 7.57667 348.274 7.19C348.134 6.80333 347.934 6.51667 347.674 6.33C347.421 6.13667 347.127 6.04 346.794 6.04C346.461 6.04 346.164 6.13667 345.904 6.33C345.651 6.52333 345.451 6.81333 345.304 7.2C345.164 7.58 345.094 8.06667 345.094 8.66C345.094 9.24667 345.164 9.73667 345.304 10.13C345.451 10.5167 345.651 10.8067 345.904 11C346.164 11.1867 346.461 11.28 346.794 11.28Z" fill="white"/>
<defs>
<linearGradient id="paint0_linear_838_7028" x1="-1.85475e-07" y1="-0.986139" x2="69.5777" y2="90.8926" gradientUnits="userSpaceOnUse">
<stop stop-color="#384263" stop-opacity="0.25"/>
<stop offset="1" stop-color="#384263" stop-opacity="0.15"/>
</linearGradient>
<linearGradient id="paint1_linear_838_7028" x1="38" y1="106.762" x2="54.5889" y2="129.49" gradientUnits="userSpaceOnUse">
<stop stop-color="#384263" stop-opacity="0.25"/>
<stop offset="1" stop-color="#384263" stop-opacity="0.15"/>
</linearGradient>
<linearGradient id="paint2_linear_838_7028" x1="24" y1="106.762" x2="40.5889" y2="129.49" gradientUnits="userSpaceOnUse">
<stop stop-color="#384263" stop-opacity="0.25"/>
<stop offset="1" stop-color="#384263" stop-opacity="0.15"/>
</linearGradient>
<linearGradient id="paint3_linear_838_7028" x1="10" y1="106.762" x2="26.5889" y2="129.49" gradientUnits="userSpaceOnUse">
<stop stop-color="#384263" stop-opacity="0.25"/>
<stop offset="1" stop-color="#384263" stop-opacity="0.15"/>
</linearGradient>
<linearGradient id="paint4_linear_838_7028" x1="253" y1="25.3465" x2="287.349" y2="106.63" gradientUnits="userSpaceOnUse">
<stop stop-color="#384263" stop-opacity="0.25"/>
<stop offset="1" stop-color="#384263" stop-opacity="0.15"/>
</linearGradient>
<linearGradient id="paint5_linear_838_7028" x1="253" y1="105.347" x2="287.349" y2="186.63" gradientUnits="userSpaceOnUse">
<stop stop-color="#384263" stop-opacity="0.25"/>
<stop offset="1" stop-color="#384263" stop-opacity="0.15"/>
</linearGradient>
<linearGradient id="paint6_linear_838_7028" x1="106" y1="25.3465" x2="132.173" y2="113.362" gradientUnits="userSpaceOnUse">
<stop stop-color="#384263" stop-opacity="0.25"/>
<stop offset="1" stop-color="#384263" stop-opacity="0.15"/>
</linearGradient>
<linearGradient id="paint7_linear_838_7028" x1="106" y1="105.347" x2="132.173" y2="193.362" gradientUnits="userSpaceOnUse">
<stop stop-color="#384263" stop-opacity="0.25"/>
<stop offset="1" stop-color="#384263" stop-opacity="0.15"/>
</linearGradient>
<clipPath id="clip0_838_7028">
<rect width="10" height="10" fill="white" transform="translate(43.0002 112)"/>
</clipPath>
<clipPath id="clip1_838_7028">
<rect width="10" height="10" fill="white" transform="translate(29.0002 112)"/>
</clipPath>
<clipPath id="clip2_838_7028">
<rect width="10" height="10" fill="white" transform="translate(15.0002 112)"/>
</clipPath>
<clipPath id="clip3_838_7028">
<rect width="12" height="12" fill="white" transform="translate(120.5 61)"/>
</clipPath>
<clipPath id="clip4_838_7028">
<rect width="12" height="12" fill="white" transform="translate(116 141)"/>
</clipPath>
<clipPath id="clip5_838_7028">
<rect width="12" height="12" fill="white" transform="translate(172 141)"/>
</clipPath>
<clipPath id="clip6_838_7028">
<rect width="10" height="10" fill="white" transform="translate(251 3.5)"/>
</clipPath>
<clipPath id="clip7_838_7028">
<rect width="10" height="10" fill="white" transform="translate(308 3.5)"/>
</clipPath>
</defs>
</svg>
