<svg width="66" height="45" viewBox="0 0 66 45" fill="none" xmlns="http://www.w3.org/2000/svg">
<rect width="66" height="45" rx="5" fill="#46956A" fill-opacity="0.1"/>
<rect x="0.5" y="0.5" width="65" height="44" rx="4.5" stroke="#46956A" stroke-opacity="0.1"/>
<path d="M15.7761 26.0519C15.7761 22.0826 18.9942 18.8644 22.9636 18.8644H23.3155C27.2842 18.8644 30.503 22.0826 30.503 26.0519V26.2307C30.503 27.6894 29.9235 29.0883 28.8921 30.1198C27.8606 31.1512 26.4617 31.7307 25.003 31.7307H21.2761C19.8174 31.7307 18.4185 31.1512 17.387 30.1198C16.3556 29.0883 15.7761 27.6894 15.7761 26.2307V26.0519Z" fill="url(#paint0_radial_838_6993)"/>
<path d="M15.7761 26.0519C15.7761 22.0826 18.9942 18.8644 22.9636 18.8644H23.3155C27.2842 18.8644 30.503 22.0826 30.503 26.0519V26.2307C30.503 27.6894 29.9235 29.0883 28.8921 30.1198C27.8606 31.1512 26.4617 31.7307 25.003 31.7307H21.2761C19.8174 31.7307 18.4185 31.1512 17.387 30.1198C16.3556 29.0883 15.7761 27.6894 15.7761 26.2307V26.0519Z" fill="url(#paint1_radial_838_6993)"/>
<path d="M15.7761 26.0518C15.7761 22.0825 18.9942 18.8643 22.9636 18.8643H23.3155C27.2842 18.8643 30.503 22.0825 30.503 26.0518V26.2306C30.503 27.6893 29.9235 29.0882 28.8921 30.1197C27.8606 31.1511 26.4617 31.7306 25.003 31.7306H21.2761C19.8174 31.7306 18.4185 31.1511 17.387 30.1197C16.3556 29.0882 15.7761 27.6893 15.7761 26.2306V26.0518Z" fill="url(#paint2_radial_838_6993)"/>
<path d="M15.7761 26.0518C15.7761 22.0825 18.9942 18.8643 22.9636 18.8643H23.3155C27.2842 18.8643 30.503 22.0825 30.503 26.0518V26.2306C30.503 27.6893 29.9235 29.0882 28.8921 30.1197C27.8606 31.1511 26.4617 31.7306 25.003 31.7306H21.2761C19.8174 31.7306 18.4185 31.1511 17.387 30.1197C16.3556 29.0882 15.7761 27.6893 15.7761 26.2306V26.0518Z" fill="url(#paint3_radial_838_6993)"/>
<path d="M20.6005 15.9344C20.8943 16.435 21.3224 17.0775 21.8724 17.6044H24.4068C24.9568 17.0775 25.3843 16.4356 25.6786 15.9344C25.7139 15.8729 25.7361 15.8049 25.744 15.7345C25.752 15.6641 25.7454 15.5928 25.7247 15.5251C25.704 15.4573 25.6697 15.3945 25.6239 15.3406C25.578 15.2866 25.5215 15.2426 25.458 15.2112C25.258 15.1087 25.023 15.1575 24.8286 15.2706C24.3899 15.5262 24.1368 15.225 23.7499 14.6331C23.5555 14.3356 23.2586 14.32 23.1393 14.3181C23.0205 14.32 22.7236 14.3356 22.5293 14.6331C22.1418 15.225 21.8893 15.5262 21.4505 15.2706C21.2561 15.1575 21.0211 15.1087 20.8205 15.2112C20.7571 15.2426 20.7007 15.2867 20.6549 15.3407C20.6091 15.3947 20.5748 15.4575 20.5542 15.5252C20.5336 15.593 20.5271 15.6642 20.535 15.7346C20.543 15.805 20.5653 15.8729 20.6005 15.9344Z" fill="url(#paint4_linear_838_6993)"/>
<path d="M23.6248 21.8475C23.6248 21.7149 23.5721 21.5877 23.4784 21.4939C23.3846 21.4002 23.2574 21.3475 23.1248 21.3475C22.9922 21.3475 22.865 21.4002 22.7713 21.4939C22.6775 21.5877 22.6248 21.7149 22.6248 21.8475V22.3194C22.6248 22.4319 22.5498 22.5281 22.4454 22.5681C22.2651 22.6367 22.0952 22.7298 21.9404 22.845C21.7127 23.012 21.5283 23.2312 21.4026 23.4841C21.2769 23.737 21.2136 24.0163 21.2179 24.2987C21.2179 24.9612 21.5161 25.4412 21.9217 25.7487C22.3079 26.0425 22.7742 26.1694 23.1467 26.2031C23.2979 26.2169 23.5236 26.2569 23.7104 26.3744C23.8717 26.4762 24.0323 26.6506 24.0667 27.0244C24.0992 27.3825 23.9536 27.595 23.7636 27.7394C23.5448 27.9062 23.2911 27.9587 23.2261 27.9587C23.0761 27.9587 22.8179 27.9387 22.5992 27.8206C22.4154 27.7206 22.2179 27.5319 22.1767 27.0719C22.1709 27.0064 22.1522 26.9428 22.1218 26.8846C22.0914 26.8264 22.0498 26.7748 21.9994 26.7326C21.949 26.6905 21.8909 26.6587 21.8282 26.6391C21.7655 26.6194 21.6996 26.6123 21.6342 26.6181C21.5688 26.6239 21.5051 26.6426 21.4469 26.673C21.3887 26.7034 21.3371 26.745 21.295 26.7954C21.2528 26.8458 21.221 26.9039 21.2014 26.9666C21.1817 27.0293 21.1746 27.0952 21.1804 27.1606C21.2517 27.9606 21.6492 28.4425 22.1223 28.6994C22.2267 28.7556 22.3323 28.8006 22.4354 28.835C22.5448 28.8725 22.6248 28.9712 22.6248 29.0869V29.5137C22.6248 29.6463 22.6775 29.7735 22.7713 29.8673C22.865 29.9611 22.9922 30.0137 23.1248 30.0137C23.2574 30.0137 23.3846 29.9611 23.4784 29.8673C23.5721 29.7735 23.6248 29.6463 23.6248 29.5137V29.0912C23.6248 28.9781 23.7011 28.8806 23.8073 28.8412C23.9948 28.7725 24.1911 28.6712 24.3698 28.535C24.7854 28.2181 25.1311 27.6906 25.0623 26.9344C24.9986 26.2337 24.6473 25.8125 24.2373 25.5531C23.9286 25.3648 23.5815 25.2482 23.2217 25.2119C22.6536 25.1825 22.2173 24.8687 22.2173 24.2994C22.2173 23.9856 22.3423 23.7556 22.5261 23.6181C22.9067 23.2956 23.5536 23.3394 23.8592 23.7444C23.9942 23.9237 24.0548 24.1212 24.0686 24.2987C24.0898 24.5737 24.3279 24.7937 24.6036 24.7725C24.8786 24.7512 25.0842 24.5356 25.0629 24.26C25.0329 23.8642 24.8914 23.485 24.6548 23.1662C24.4648 22.9144 24.1054 22.6725 23.8111 22.5512C23.758 22.5313 23.7119 22.4961 23.6788 22.45C23.6456 22.404 23.6269 22.3492 23.6248 22.2925V21.8475Z" fill="#693E3B"/>
<path d="M24.2601 17.6044H21.9901C21.6273 17.6044 21.3333 17.8985 21.3333 18.2613V18.2657C21.3333 18.6284 21.6273 18.9225 21.9901 18.9225H24.2601C24.6229 18.9225 24.917 18.6284 24.917 18.2657V18.2613C24.917 17.8985 24.6229 17.6044 24.2601 17.6044Z" fill="#834B41"/>
<path d="M37.6409 28.8L37.9399 27.474C37.6192 27.3787 37.3072 27.2487 37.0039 27.084C36.7092 26.9193 36.4146 26.7113 36.1199 26.46L36.6399 25.433C36.9172 25.6583 37.1859 25.8447 37.4459 25.992C37.7059 26.1307 37.9616 26.2433 38.2129 26.33L38.8369 23.574L38.5639 23.522C37.7926 23.3747 37.2336 23.1103 36.8869 22.729C36.5489 22.3477 36.3799 21.884 36.3799 21.338C36.3799 20.8527 36.4882 20.4107 36.7049 20.012C36.9216 19.6133 37.2552 19.2927 37.7059 19.05C38.1566 18.8073 38.7242 18.686 39.4089 18.686C39.5042 18.686 39.5952 18.6903 39.6819 18.699C39.7772 18.699 39.8726 18.7033 39.9679 18.712L40.2409 17.516H41.0209L40.7089 18.855C40.9862 18.9243 41.2549 19.0283 41.5149 19.167C41.7836 19.3057 42.0436 19.4747 42.2949 19.674L41.7619 20.688C41.5366 20.532 41.3156 20.3977 41.0989 20.285C40.8909 20.1637 40.6742 20.064 40.4489 19.986L39.8769 22.495L40.3579 22.586C41.1206 22.7247 41.6752 23.015 42.0219 23.457C42.3772 23.8903 42.5549 24.3757 42.5549 24.913C42.5549 25.7277 42.2689 26.3863 41.6969 26.889C41.1336 27.383 40.3189 27.63 39.2529 27.63C39.1489 27.63 39.0492 27.6257 38.9539 27.617C38.8672 27.6083 38.7806 27.5997 38.6939 27.591L38.4209 28.8H37.6409ZM38.9539 26.486C39.0059 26.4947 39.0536 26.499 39.0969 26.499C39.1489 26.499 39.2009 26.499 39.2529 26.499C39.8856 26.499 40.3709 26.3733 40.7089 26.122C41.0469 25.862 41.2159 25.5023 41.2159 25.043C41.2159 24.7223 41.1119 24.4537 40.9039 24.237C40.6959 24.0117 40.3926 23.8643 39.9939 23.795L39.5909 23.717L38.9539 26.486ZM39.1229 22.352L39.7079 19.83C39.6646 19.8213 39.6212 19.817 39.5779 19.817C39.5346 19.817 39.4869 19.817 39.4349 19.817C38.8629 19.817 38.4296 19.9383 38.1349 20.181C37.8489 20.4237 37.7059 20.753 37.7059 21.169C37.7059 21.4897 37.8056 21.741 38.0049 21.923C38.2129 22.0963 38.5119 22.222 38.9019 22.3L39.1229 22.352ZM47.3493 27.63C46.5866 27.63 45.9409 27.4393 45.4123 27.058C44.8836 26.668 44.4849 26.1393 44.2163 25.472C43.9476 24.796 43.8133 24.0247 43.8133 23.158C43.8133 22.2913 43.9476 21.5243 44.2163 20.857C44.4849 20.181 44.8836 19.6523 45.4123 19.271C45.9409 18.881 46.5866 18.686 47.3493 18.686C48.1206 18.686 48.7663 18.881 49.2863 19.271C49.8149 19.6523 50.2136 20.181 50.4823 20.857C50.7596 21.5243 50.8983 22.2913 50.8983 23.158C50.8983 24.0247 50.7596 24.796 50.4823 25.472C50.2136 26.1393 49.8149 26.668 49.2863 27.058C48.7663 27.4393 48.1206 27.63 47.3493 27.63ZM47.3493 26.551C47.7826 26.551 48.1639 26.4297 48.4933 26.187C48.8313 25.9357 49.0913 25.5587 49.2733 25.056C49.4639 24.5533 49.5593 23.9207 49.5593 23.158C49.5593 22.3867 49.4639 21.7497 49.2733 21.247C49.0913 20.7443 48.8313 20.3717 48.4933 20.129C48.1639 19.8777 47.7826 19.752 47.3493 19.752C46.9246 19.752 46.5433 19.8777 46.2053 20.129C45.8759 20.3803 45.6159 20.7573 45.4253 21.26C45.2346 21.754 45.1393 22.3867 45.1393 23.158C45.1393 23.9207 45.2346 24.5533 45.4253 25.056C45.6159 25.5587 45.8759 25.9357 46.2053 26.187C46.5433 26.4297 46.9246 26.551 47.3493 26.551Z" fill="#46956A"/>
<defs>
<radialGradient id="paint0_radial_838_6993" cx="0" cy="0" r="1" gradientUnits="userSpaceOnUse" gradientTransform="translate(25.1506 20.0708) rotate(100.07) scale(11.5054 12.0506)">
<stop stop-color="#F6C93B"/>
<stop offset="1" stop-color="#E88340"/>
</radialGradient>
<radialGradient id="paint1_radial_838_6993" cx="0" cy="0" r="1" gradientUnits="userSpaceOnUse" gradientTransform="translate(28.042 21.8668) rotate(133.199) scale(4.39397 7.36162)">
<stop stop-color="#FFE065"/>
<stop offset="1" stop-color="#FFE065" stop-opacity="0"/>
</radialGradient>
<radialGradient id="paint2_radial_838_6993" cx="0" cy="0" r="1" gradientUnits="userSpaceOnUse" gradientTransform="translate(16.7917 21.8675) rotate(31.6513) scale(3.34982 8.30206)">
<stop offset="0.187" stop-color="#FFA45D"/>
<stop offset="1" stop-color="#FFA45D" stop-opacity="0"/>
</radialGradient>
<radialGradient id="paint3_radial_838_6993" cx="0" cy="0" r="1" gradientUnits="userSpaceOnUse" gradientTransform="translate(27.9999 31.3333) rotate(-128.341) scale(14.609 22.0107)">
<stop stop-color="#E9824B" stop-opacity="0"/>
<stop offset="0.0001" stop-color="#FFAE83" stop-opacity="0.16"/>
<stop offset="1" stop-color="#F8CB60"/>
</radialGradient>
<linearGradient id="paint4_linear_838_6993" x1="21.125" y1="15.5" x2="24.25" y2="17.0625" gradientUnits="userSpaceOnUse">
<stop stop-color="#F3C048"/>
<stop offset="1" stop-color="#E9824B"/>
</linearGradient>
</defs>
</svg>
