<svg width="9" height="8" viewBox="0 0 9 8" fill="none" xmlns="http://www.w3.org/2000/svg">
<path fill-rule="evenodd" clip-rule="evenodd" d="M2.203 1.80652H5.85168C6.05917 1.80652 6.179 2.05016 6.05704 2.22384L4.32058 4.69524C4.19849 4.86893 4.3184 5.11256 4.52588 5.11256H6.05618C6.13738 5.11256 6.21369 5.07234 6.26147 5.00426L7.9788 2.56015C8.04352 2.46796 8.04352 2.3432 7.9788 2.25101L6.47318 0.108298C6.42543 0.0402401 6.34909 0 6.26791 0H1.78679C1.70553 0 1.62927 0.0402401 1.58149 0.108298L0.0758818 2.25101C0.0111644 2.3432 0.0111644 2.46802 0.0758818 2.56015L3.82197 7.89181C3.92333 8.03607 4.13131 8.03607 4.23266 7.89181L4.99772 6.80288C5.0625 6.71069 5.0625 6.58589 4.99772 6.4937L1.9977 2.22384C1.87568 2.05016 1.99552 1.80652 2.203 1.80652Z" fill="#5294FF"/>
</svg>
