<svg width="15" height="16" viewBox="0 0 15 16" fill="none" xmlns="http://www.w3.org/2000/svg">
<g id="icon-repay" clip-path="url(#clip0_2190_1436)">
<g id="Vector">
<path d="M2.00001 9.178C1.99837 10.0575 2.21587 10.9237 2.63301 11.6989C2.68257 11.7925 2.75644 11.8711 2.8469 11.9265C2.93737 11.9819 3.04112 12.0121 3.14733 12.014C3.24578 12.0183 3.34296 11.9907 3.42427 11.9353C3.49452 11.9019 3.5572 11.8546 3.60852 11.7964C3.65983 11.7381 3.6987 11.67 3.72276 11.5963C3.74681 11.5226 3.75556 11.4448 3.74845 11.3677C3.74135 11.2905 3.71854 11.2156 3.68143 11.1475C3.36083 10.5398 3.19124 9.86441 3.1869 9.178C3.1869 8.07066 3.62873 7.00866 4.41519 6.22565C5.20166 5.44264 6.26833 5.00274 7.38056 5.00274H8.38941L8.07291 5.29816C7.96727 5.41411 7.90875 5.56505 7.90875 5.7216C7.90875 5.87814 7.96727 6.02908 8.07291 6.14503C8.18248 6.25635 8.33179 6.32006 8.48832 6.32228C8.56901 6.3227 8.64898 6.30725 8.72366 6.27684C8.79834 6.24642 8.86625 6.20163 8.92351 6.14503L10.2291 4.82549C10.2656 4.80219 10.2934 4.76759 10.3082 4.72702C10.328 4.72702 10.328 4.70732 10.328 4.68763L10.3676 4.62855C10.3676 4.60885 10.3873 4.58916 10.3873 4.56946C10.3873 4.54977 10.3873 4.54977 10.4071 4.53007V4.29374C10.4 4.28574 10.3945 4.27638 10.3911 4.26622C10.3877 4.25607 10.3864 4.24532 10.3873 4.23465C10.3873 4.21496 10.3676 4.19526 10.3676 4.17557C10.3676 4.15588 10.3478 4.13618 10.328 4.11649V4.0771C10.3082 4.0574 10.2884 4.01801 10.2489 3.99832L8.94329 2.67878C8.88799 2.6222 8.82187 2.57723 8.74882 2.54653C8.67577 2.51582 8.59728 2.5 8.51799 2.5C8.4387 2.5 8.36021 2.51582 8.28717 2.54653C8.21412 2.57723 8.14799 2.6222 8.09269 2.67878C7.98843 2.7915 7.93055 2.93913 7.93055 3.09237C7.93055 3.2456 7.98843 3.39323 8.09269 3.50595L8.40919 3.82107H7.38056C5.95355 3.82107 4.58498 4.38546 3.57594 5.39008C2.56689 6.3947 2.00001 7.75726 2.00001 9.178Z" fill="#6988FF"/>
<path d="M12.3457 6.26321C12.3084 6.19428 12.2578 6.13341 12.1967 6.08413C12.1356 6.03485 12.0653 5.99815 11.9898 5.97617C11.9143 5.95418 11.8353 5.94734 11.7571 5.95604C11.679 5.96475 11.6034 5.98883 11.5346 6.02688C11.3986 6.10549 11.2981 6.23312 11.2539 6.38341C11.2098 6.53369 11.2253 6.69513 11.2973 6.83436C11.6493 7.46893 11.8284 8.18414 11.8169 8.90896C11.8054 9.63378 11.6036 10.343 11.2317 10.9662C10.8597 11.5894 10.3305 12.1048 9.69655 12.4614C9.06261 12.818 8.34601 13.0032 7.61792 12.9988H6.60907L6.92557 12.7034C7.03121 12.5874 7.08973 12.4365 7.08973 12.2799C7.08973 12.1234 7.03121 11.9724 6.92557 11.8565C6.87027 11.7999 6.80414 11.7549 6.73109 11.7242C6.65805 11.6935 6.57956 11.6777 6.50027 11.6777C6.42098 11.6777 6.34249 11.6935 6.26944 11.7242C6.19639 11.7549 6.13027 11.7999 6.07497 11.8565L4.76939 13.176C4.73289 13.1993 4.70509 13.2339 4.69027 13.2745C4.67048 13.2745 4.67048 13.2942 4.67048 13.3139C4.67048 13.3336 4.63092 13.3533 4.63092 13.373V13.4321C4.63092 13.4518 4.61114 13.4518 4.61114 13.4714V13.7078C4.61114 13.7275 4.63092 13.7472 4.63092 13.7669V13.8259L4.67048 13.885C4.67173 13.9002 4.67882 13.9143 4.69027 13.9244L4.76939 14.0032L6.07497 15.3227C6.13223 15.3793 6.20014 15.4241 6.27482 15.4545C6.3495 15.485 6.42947 15.5004 6.51016 15.5C6.66669 15.4978 6.816 15.4341 6.92557 15.3227C7.02983 15.21 7.08771 15.0624 7.08771 14.9092C7.08771 14.7559 7.02983 14.6083 6.92557 14.4956L6.60907 14.1805H7.61792C8.551 14.1807 9.46811 13.9394 10.2792 13.4802C11.0903 13.0209 11.7675 12.3596 12.2444 11.5611C12.7212 10.7626 12.9813 9.85431 12.999 8.92549C13.0168 7.99668 12.7916 7.07923 12.3457 6.26321Z" fill="#6988FF"/>
</g>
</g>
<defs>
<clipPath id="clip0_2190_1436">
<rect width="15" height="15" fill="white" transform="translate(0 0.5)"/>
</clipPath>
</defs>
</svg>
