<svg width="15" height="15" viewBox="0 0 15 15" fill="none" xmlns="http://www.w3.org/2000/svg">
<path d="M15 7.5C15 3.35786 11.6421 0 7.5 0C3.35786 0 0 3.35786 0 7.5C0 11.6421 3.35786 15 7.5 15C11.6421 15 15 11.6421 15 7.5Z" fill="#F4F6F8"/>
<path d="M10.7051 6.15693C10.6785 6.18291 10.6468 6.20356 10.6119 6.21766C10.5769 6.23178 10.5394 6.23908 10.5015 6.23913H3.28851C3.03355 6.23913 2.90438 5.94024 3.08263 5.76274L4.26577 4.58437C4.29243 4.55776 4.32437 4.53655 4.35971 4.52207C4.39505 4.50758 4.4331 4.50007 4.4715 4.5H11.7115C11.968 4.5 12.0965 4.80202 11.9151 4.97865L10.7051 6.15693ZM10.7051 11.4199C10.6508 11.4713 10.5777 11.5001 10.5015 11.5H3.28851C3.03355 11.5 2.90438 11.2086 3.08263 11.0355L4.26577 9.88656C4.29274 9.86049 4.32483 9.83979 4.36017 9.82567C4.39549 9.81157 4.43339 9.80432 4.47165 9.80437H11.7115C11.968 9.80437 12.0965 10.0988 11.9151 10.271L10.7051 11.4199ZM10.7051 7.23219C10.6508 7.18084 10.5777 7.15212 10.5015 7.15222H3.28851C3.03355 7.15222 2.90438 7.44362 3.08263 7.6167L4.26577 8.76561C4.29272 8.79169 4.32478 8.81238 4.3601 8.82648C4.39542 8.84058 4.43327 8.84783 4.4715 8.84781H11.7115C11.968 8.84781 12.0965 8.55336 11.9151 8.38119L10.7051 7.23219Z" fill="url(#paint0_linear_201_9109)"/>
<defs>
<linearGradient id="paint0_linear_201_9109" x1="3.65715" y1="11.6898" x2="11.0275" y2="4.0233" gradientUnits="userSpaceOnUse">
<stop stop-color="#CF41E8"/>
<stop offset="1" stop-color="#10F2B0"/>
</linearGradient>
</defs>
</svg>
