<svg width="26" height="25" viewBox="0 0 26 25" fill="none" xmlns="http://www.w3.org/2000/svg">
<path d="M24 12C24 6.20101 19.299 1.5 13.5 1.5C7.70101 1.5 3 6.20101 3 12C3 17.799 7.70101 22.5 13.5 22.5C19.299 22.5 24 17.799 24 12Z" fill="#F4F6F8"/>
<path d="M18.1296 8.95137C18.0912 8.98981 18.0454 9.02035 17.9949 9.04122C17.9445 9.06211 17.8902 9.0729 17.8355 9.07297H7.41674C7.04846 9.07297 6.86189 8.63078 7.11936 8.36818L8.82833 6.62482C8.86684 6.58545 8.91297 6.55407 8.96402 6.53266C9.01507 6.51121 9.07003 6.5001 9.1255 6.5H19.5833C19.9538 6.5 20.1394 6.94682 19.8773 7.20815L18.1296 8.95137ZM18.1296 16.7378C18.0512 16.8138 17.9455 16.8563 17.8355 16.8562H7.41674C7.04846 16.8562 6.86189 16.4251 7.11936 16.169L8.82833 14.4692C8.8673 14.4306 8.91364 14.4 8.96469 14.3791C9.01571 14.3583 9.07045 14.3475 9.12572 14.3476H19.5833C19.9538 14.3476 20.1394 14.7832 19.8773 15.038L18.1296 16.7378ZM18.1296 10.5422C18.0512 10.4662 17.9455 10.4237 17.8355 10.4239H7.41674C7.04846 10.4239 6.86189 10.855 7.11936 11.111L8.82833 12.8108C8.86726 12.8494 8.91357 12.88 8.96459 12.9009C9.0156 12.9217 9.07027 12.9325 9.1255 12.9324H19.5833C19.9538 12.9324 20.1394 12.4968 19.8773 12.2421L18.1296 10.5422Z" fill="url(#paint0_linear_7885_14069)"/>
<defs>
<linearGradient id="paint0_linear_7885_14069" x1="7.94922" y1="17.137" x2="18.8605" y2="6.05593" gradientUnits="userSpaceOnUse">
<stop stop-color="#CF41E8"/>
<stop offset="1" stop-color="#10F2B0"/>
</linearGradient>
</defs>
</svg>
