<svg width="340" height="140" viewBox="0 0 340 140" fill="none" xmlns="http://www.w3.org/2000/svg">
<rect width="340" height="140" rx="5" fill="#181A3C"/>
<rect x="0.5" y="0.5" width="339" height="139" rx="4.5" stroke="#46956A" stroke-opacity="0.1"/>
<path d="M15 19.5L325 19.5" stroke="url(#paint0_linear_838_7235)" stroke-linecap="round" stroke-dasharray="3 5"/>
<path d="M15 69.5L325 69.5" stroke="url(#paint1_linear_838_7235)" stroke-linecap="round" stroke-dasharray="3 5"/>
<path d="M15 119.5L325 119.5" stroke="url(#paint2_linear_838_7235)" stroke-linecap="round" stroke-dasharray="3 5"/>
<path d="M15.3961 31.8671C15.2276 31.6484 14.9136 31.6076 14.6949 31.7762C14.4761 31.9447 14.4354 32.2587 14.6039 32.4774L15.3961 31.8671ZM68.7941 102L68.398 102.305L68.751 102.763L69.1534 102.348L68.7941 102ZM154.956 13L155.176 12.551L154.85 12.391L154.597 12.6522L154.956 13ZM195.985 33.113L195.765 33.562L195.931 33.643L196.109 33.5975L195.985 33.113ZM235.647 22.9894L235.873 22.5434L235.706 22.4584L235.523 22.5049L235.647 22.9894ZM325 22.9894L319.231 23.222L322.317 28.1016L325 22.9894ZM285.243 48.1321L285.017 48.5781L285.27 48.7065L285.51 48.5547L285.243 48.1321ZM14.6039 32.4774L68.398 102.305L69.1902 101.695L15.3961 31.8671L14.6039 32.4774ZM69.1534 102.348L155.315 13.3478L154.597 12.6522L68.4349 101.652L69.1534 102.348ZM154.736 13.449L195.765 33.562L196.205 32.664L155.176 12.551L154.736 13.449ZM196.109 33.5975L235.771 23.4738L235.523 22.5049L195.862 32.6285L196.109 33.5975ZM235.421 23.4353L285.017 48.5781L285.469 47.6862L235.873 22.5434L235.421 23.4353ZM285.51 48.5547L321.464 25.8172L320.929 24.972L284.975 47.7095L285.51 48.5547Z" fill="#747FA6"/>
<path d="M68.7941 102L68.3973 102.304L68.75 102.764L69.1534 102.348L68.7941 102ZM154.956 13L155.176 12.551L154.85 12.391L154.597 12.6522L154.956 13ZM195.985 33.113L195.765 33.562L195.931 33.643L196.109 33.5975L195.985 33.113ZM235.647 22.9894L235.873 22.5434L235.705 22.4584L235.523 22.5049L235.647 22.9894ZM325 22.9894L319.231 23.222L322.317 28.1016L325 22.9894ZM285.243 48.1321L285.017 48.5781L285.27 48.7065L285.51 48.5547L285.243 48.1321ZM55.3969 83.6959C55.2289 83.4767 54.915 83.4352 54.6959 83.6031C54.4767 83.7711 54.4352 84.085 54.6031 84.3041L55.3969 83.6959ZM69.1534 102.348L155.315 13.3478L154.597 12.6522L68.4349 101.652L69.1534 102.348ZM154.736 13.449L195.765 33.562L196.205 32.664L155.176 12.551L154.736 13.449ZM196.109 33.5975L235.771 23.4738L235.523 22.5049L195.862 32.6285L196.109 33.5975ZM235.421 23.4353L285.017 48.5781L285.469 47.6862L235.873 22.5434L235.421 23.4353ZM285.51 48.5547L321.464 25.8172L320.929 24.972L284.975 47.7095L285.51 48.5547ZM54.6031 84.3041L68.3973 102.304L69.191 101.696L55.3969 83.6959L54.6031 84.3041Z" fill="#46956A"/>
<path d="M325 22.9893L319.231 23.2121L322.308 28.097L325 22.9893ZM297.733 39.577C297.5 39.7242 297.43 40.0329 297.577 40.2665C297.724 40.5002 298.033 40.5702 298.267 40.423L297.733 39.577ZM298.267 40.423L321.459 25.811L320.926 24.965L297.733 39.577L298.267 40.423Z" fill="#C75E4B"/>
<rect x="51" y="56" width="87" height="19" rx="5" fill="#19233C"/>
<rect x="51.5" y="56.5" width="86" height="18" rx="4.5" stroke="#46956A" stroke-opacity="0.1"/>
<path d="M58.9 69.1C58.4333 69.1 58.0067 69.03 57.62 68.89C57.24 68.75 56.8633 68.52 56.49 68.2L56.89 67.41C57.25 67.6967 57.59 67.9067 57.91 68.04C58.2367 68.1667 58.5667 68.23 58.9 68.23C59.3867 68.23 59.76 68.1333 60.02 67.94C60.28 67.74 60.41 67.4633 60.41 67.11C60.41 66.8633 60.33 66.6567 60.17 66.49C60.01 66.3233 59.7767 66.21 59.47 66.15L58.37 65.94C57.7767 65.8267 57.3467 65.6233 57.08 65.33C56.82 65.0367 56.69 64.68 56.69 64.26C56.69 63.8867 56.7733 63.5467 56.94 63.24C57.1067 62.9333 57.3633 62.6867 57.71 62.5C58.0567 62.3133 58.4933 62.22 59.02 62.22C59.4133 62.22 59.7933 62.2767 60.16 62.39C60.5333 62.5033 60.8933 62.7 61.24 62.98L60.83 63.76C60.5367 63.5533 60.2467 63.39 59.96 63.27C59.6733 63.15 59.3667 63.09 59.04 63.09C58.6 63.09 58.2667 63.1833 58.04 63.37C57.82 63.5567 57.71 63.81 57.71 64.13C57.71 64.3767 57.79 64.57 57.95 64.71C58.11 64.85 58.3467 64.95 58.66 65.01L59.75 65.22C60.3367 65.3267 60.7633 65.55 61.03 65.89C61.3033 66.2233 61.44 66.5967 61.44 67.01C61.44 67.6367 61.22 68.1433 60.78 68.53C60.3467 68.91 59.72 69.1 58.9 69.1ZM64.638 69.06C64.1446 69.06 63.778 68.9467 63.538 68.72C63.3046 68.4867 63.188 68.1267 63.188 67.64V65.1H62.158V64.3H63.188V62.96H64.128V64.3H65.348V65.1H64.128V67.56C64.128 67.7933 64.1846 67.9667 64.298 68.08C64.4113 68.1933 64.588 68.25 64.828 68.25C64.908 68.25 64.998 68.2467 65.098 68.24C65.2046 68.2333 65.288 68.2233 65.348 68.21V68.97C65.268 68.9967 65.1613 69.0167 65.028 69.03C64.8946 69.05 64.7646 69.06 64.638 69.06ZM68.6961 69.1C68.2161 69.1 67.7894 69 67.4161 68.8C67.0428 68.5933 66.7528 68.3067 66.5461 67.94C66.3394 67.5733 66.2361 67.1433 66.2361 66.65C66.2361 66.1567 66.3394 65.7267 66.5461 65.36C66.7528 64.9933 67.0428 64.71 67.4161 64.51C67.7894 64.3033 68.2161 64.2 68.6961 64.2C69.1828 64.2 69.6094 64.3033 69.9761 64.51C70.3494 64.71 70.6394 64.9933 70.8461 65.36C71.0594 65.7267 71.1661 66.1567 71.1661 66.65C71.1661 67.1433 71.0594 67.5733 70.8461 67.94C70.6394 68.3067 70.3494 68.5933 69.9761 68.8C69.6094 69 69.1828 69.1 68.6961 69.1ZM68.6961 68.27C68.9961 68.27 69.2594 68.2067 69.4861 68.08C69.7128 67.9467 69.8861 67.76 70.0061 67.52C70.1328 67.2733 70.1961 66.9833 70.1961 66.65C70.1961 66.3167 70.1328 66.03 70.0061 65.79C69.8861 65.5433 69.7128 65.3533 69.4861 65.22C69.2594 65.0867 68.9961 65.02 68.6961 65.02C68.3961 65.02 68.1328 65.0867 67.9061 65.22C67.6861 65.3533 67.5128 65.5433 67.3861 65.79C67.2594 66.03 67.1961 66.3167 67.1961 66.65C67.1961 66.9833 67.2594 67.2733 67.3861 67.52C67.5128 67.76 67.6861 67.9467 67.9061 68.08C68.1328 68.2067 68.3961 68.27 68.6961 68.27ZM72.3945 70.82V64.3H73.3045V65.04C73.4512 64.7867 73.6679 64.5833 73.9545 64.43C74.2412 64.2767 74.5779 64.2 74.9645 64.2C75.3979 64.2 75.7845 64.3 76.1245 64.5C76.4645 64.6933 76.7312 64.9733 76.9245 65.34C77.1179 65.7067 77.2145 66.1433 77.2145 66.65C77.2145 67.15 77.1179 67.5833 76.9245 67.95C76.7312 68.3167 76.4645 68.6 76.1245 68.8C75.7845 69 75.3979 69.1 74.9645 69.1C74.5912 69.1 74.2645 69.03 73.9845 68.89C73.7045 68.7433 73.4879 68.55 73.3345 68.31V70.82H72.3945ZM74.7745 68.27C75.0612 68.27 75.3145 68.2067 75.5345 68.08C75.7545 67.9467 75.9279 67.76 76.0545 67.52C76.1812 67.2733 76.2445 66.9833 76.2445 66.65C76.2445 66.3167 76.1812 66.03 76.0545 65.79C75.9345 65.5433 75.7612 65.3533 75.5345 65.22C75.3145 65.0867 75.0612 65.02 74.7745 65.02C74.4879 65.02 74.2312 65.0867 74.0045 65.22C73.7845 65.3533 73.6112 65.5433 73.4845 65.79C73.3645 66.03 73.3045 66.3167 73.3045 66.65C73.3045 66.9833 73.3645 67.2733 73.4845 67.52C73.6112 67.76 73.7845 67.9467 74.0045 68.08C74.2312 68.2067 74.4879 68.27 74.7745 68.27ZM80.9111 69V62.32H82.4911L84.6411 67.76L86.8011 62.32H88.3811V69H87.3711V63.31L85.0811 69H84.2011L81.9111 63.31V69H80.9111ZM91.4138 69.1C91.0672 69.1 90.7605 69.0467 90.4938 68.94C90.2338 68.8267 90.0305 68.6667 89.8838 68.46C89.7372 68.2467 89.6638 67.99 89.6638 67.69C89.6638 67.39 89.7372 67.1433 89.8838 66.95C90.0305 66.75 90.2372 66.5933 90.5038 66.48C90.7705 66.36 91.0738 66.28 91.4138 66.24L93.0738 66.04C93.0338 65.6867 92.9005 65.4267 92.6738 65.26C92.4472 65.0933 92.1672 65.01 91.8338 65.01C91.6072 65.01 91.3705 65.0567 91.1238 65.15C90.8838 65.2367 90.6272 65.3767 90.3538 65.57L90.0038 64.86C90.2638 64.6533 90.5505 64.4933 90.8638 64.38C91.1838 64.26 91.5138 64.2 91.8538 64.2C92.5672 64.2 93.1072 64.3633 93.4738 64.69C93.8472 65.01 94.0338 65.4933 94.0338 66.14V69H93.1238V68.32C92.9505 68.58 92.7172 68.7767 92.4238 68.91C92.1372 69.0367 91.8005 69.1 91.4138 69.1ZM91.6338 68.3C91.9472 68.3 92.2105 68.24 92.4238 68.12C92.6438 67.9933 92.8072 67.8267 92.9138 67.62C93.0272 67.4133 93.0838 67.1967 93.0838 66.97V66.76L91.6838 66.94C91.3372 66.9867 91.0738 67.0633 90.8938 67.17C90.7138 67.27 90.6238 67.4333 90.6238 67.66C90.6238 67.8667 90.7138 68.0267 90.8938 68.14C91.0738 68.2467 91.3205 68.3 91.6338 68.3ZM95.5195 69V64.3H96.4295V65.12C96.5495 64.8267 96.7229 64.6067 96.9495 64.46C97.1829 64.3133 97.4429 64.24 97.7295 64.24C97.8229 64.24 97.9062 64.2467 97.9795 64.26C98.0595 64.2667 98.1229 64.28 98.1695 64.3V65.19C98.0762 65.17 97.9829 65.1567 97.8895 65.15C97.8029 65.1367 97.7162 65.13 97.6295 65.13C97.2962 65.13 97.0162 65.27 96.7895 65.55C96.5695 65.8233 96.4595 66.2167 96.4595 66.73V69H95.5195ZM99.2402 69V62.32H100.18V66.51L102.4 64.3H103.55L101.59 66.22L103.65 69H102.5L100.93 66.87L100.18 67.6V69H99.2402ZM106.08 69.1C105.607 69.1 105.18 69.0067 104.8 68.82C104.427 68.6267 104.13 68.35 103.91 67.99C103.69 67.6233 103.58 67.1767 103.58 66.65C103.58 66.15 103.683 65.7167 103.89 65.35C104.103 64.9833 104.387 64.7 104.74 64.5C105.1 64.3 105.5 64.2 105.94 64.2C106.407 64.2 106.807 64.29 107.14 64.47C107.48 64.6433 107.743 64.8833 107.93 65.19C108.117 65.4967 108.21 65.8433 108.21 66.23C108.21 66.3433 108.193 66.4667 108.16 66.6C108.133 66.7333 108.093 66.84 108.04 66.92H104.54C104.573 67.2133 104.66 67.4633 104.8 67.67C104.94 67.8767 105.127 68.0333 105.36 68.14C105.593 68.24 105.863 68.29 106.17 68.29C106.477 68.29 106.747 68.2433 106.98 68.15C107.22 68.0567 107.45 67.9233 107.67 67.75L108.01 68.45C107.75 68.6633 107.457 68.8267 107.13 68.94C106.81 69.0467 106.46 69.1 106.08 69.1ZM104.54 66.19H107.23C107.237 66.1767 107.24 66.1633 107.24 66.15C107.24 66.13 107.24 66.11 107.24 66.09C107.24 65.87 107.193 65.68 107.1 65.52C107.007 65.3533 106.867 65.2233 106.68 65.13C106.493 65.0367 106.257 64.99 105.97 64.99C105.743 64.99 105.53 65.04 105.33 65.14C105.137 65.2333 104.97 65.37 104.83 65.55C104.697 65.7233 104.6 65.9367 104.54 66.19ZM111.406 69.06C110.912 69.06 110.546 68.9467 110.306 68.72C110.072 68.4867 109.956 68.1267 109.956 67.64V65.1H108.926V64.3H109.956V62.96H110.896V64.3H112.116V65.1H110.896V67.56C110.896 67.7933 110.952 67.9667 111.066 68.08C111.179 68.1933 111.356 68.25 111.596 68.25C111.676 68.25 111.766 68.2467 111.866 68.24C111.972 68.2333 112.056 68.2233 112.116 68.21V68.97C112.036 68.9967 111.929 69.0167 111.796 69.03C111.662 69.05 111.532 69.06 111.406 69.06ZM115.716 69V62.32H118.806C119.332 62.32 119.769 62.38 120.116 62.5C120.469 62.6133 120.736 62.7967 120.916 63.05C121.096 63.3033 121.186 63.6367 121.186 64.05C121.186 64.4433 121.102 64.7633 120.936 65.01C120.776 65.2567 120.506 65.4367 120.126 65.55C120.572 65.6567 120.892 65.8433 121.086 66.11C121.286 66.3767 121.386 66.7267 121.386 67.16C121.386 67.82 121.172 68.2933 120.746 68.58C120.326 68.86 119.679 69 118.806 69H115.716ZM116.716 68.15H118.666C119.086 68.15 119.419 68.1133 119.666 68.04C119.912 67.9667 120.089 67.85 120.196 67.69C120.302 67.53 120.356 67.32 120.356 67.06C120.356 66.7933 120.302 66.58 120.196 66.42C120.089 66.26 119.912 66.1433 119.666 66.07C119.419 65.9967 119.086 65.96 118.666 65.96H116.716V68.15ZM116.716 65.15H118.666C119.219 65.15 119.606 65.0767 119.826 64.93C120.046 64.7833 120.156 64.5267 120.156 64.16C120.156 63.7867 120.046 63.5267 119.826 63.38C119.606 63.2333 119.219 63.16 118.666 63.16H116.716V65.15ZM124.339 69.1C123.799 69.1 123.376 68.9467 123.069 68.64C122.769 68.3333 122.619 67.8533 122.619 67.2V64.3H123.559V67.08C123.559 67.4933 123.642 67.7967 123.809 67.99C123.982 68.1767 124.246 68.27 124.599 68.27C125.006 68.27 125.319 68.1333 125.539 67.86C125.766 67.58 125.879 67.1967 125.879 66.71V64.3H126.829V69H125.919V68.3C125.779 68.5467 125.576 68.7433 125.309 68.89C125.042 69.03 124.719 69.1 124.339 69.1ZM128.722 70.88C128.522 70.88 128.322 70.8533 128.122 70.8C127.922 70.7533 127.746 70.6867 127.592 70.6L127.862 69.86C128.002 69.9267 128.139 69.9767 128.272 70.01C128.406 70.05 128.532 70.07 128.652 70.07C128.799 70.07 128.936 70.04 129.062 69.98C129.189 69.9267 129.309 69.8333 129.422 69.7C129.542 69.5667 129.659 69.39 129.772 69.17L127.822 64.3H128.832L130.222 68.06L131.612 64.3H132.632L130.742 69C130.549 69.4867 130.342 69.8667 130.122 70.14C129.909 70.4133 129.686 70.6033 129.452 70.71C129.219 70.8233 128.976 70.88 128.722 70.88Z" fill="#46956A"/>
<rect x="214" y="56" width="84" height="19" rx="5" fill="#261D39"/>
<rect x="214.5" y="56.5" width="83" height="18" rx="4.5" stroke="#C75E4B" stroke-opacity="0.1"/>
<path d="M220 69V63.2H217.93V62.32H223.06V63.2H221V69H220ZM223.744 69.1C223.397 69.1 223.091 69.0467 222.824 68.94C222.564 68.8267 222.361 68.6667 222.214 68.46C222.067 68.2467 221.994 67.99 221.994 67.69C221.994 67.39 222.067 67.1433 222.214 66.95C222.361 66.75 222.567 66.5933 222.834 66.48C223.101 66.36 223.404 66.28 223.744 66.24L225.404 66.04C225.364 65.6867 225.231 65.4267 225.004 65.26C224.777 65.0933 224.497 65.01 224.164 65.01C223.937 65.01 223.701 65.0567 223.454 65.15C223.214 65.2367 222.957 65.3767 222.684 65.57L222.334 64.86C222.594 64.6533 222.881 64.4933 223.194 64.38C223.514 64.26 223.844 64.2 224.184 64.2C224.897 64.2 225.437 64.3633 225.804 64.69C226.177 65.01 226.364 65.4933 226.364 66.14V69H225.454V68.32C225.281 68.58 225.047 68.7767 224.754 68.91C224.467 69.0367 224.131 69.1 223.744 69.1ZM223.964 68.3C224.277 68.3 224.541 68.24 224.754 68.12C224.974 67.9933 225.137 67.8267 225.244 67.62C225.357 67.4133 225.414 67.1967 225.414 66.97V66.76L224.014 66.94C223.667 66.9867 223.404 67.0633 223.224 67.17C223.044 67.27 222.954 67.4333 222.954 67.66C222.954 67.8667 223.044 68.0267 223.224 68.14C223.404 68.2467 223.651 68.3 223.964 68.3ZM227.85 69V62.32H228.79V66.51L231.01 64.3H232.16L230.2 66.22L232.26 69H231.11L229.54 66.87L228.79 67.6V69H227.85ZM234.689 69.1C234.216 69.1 233.789 69.0067 233.409 68.82C233.036 68.6267 232.739 68.35 232.519 67.99C232.299 67.6233 232.189 67.1767 232.189 66.65C232.189 66.15 232.293 65.7167 232.499 65.35C232.713 64.9833 232.996 64.7 233.349 64.5C233.709 64.3 234.109 64.2 234.549 64.2C235.016 64.2 235.416 64.29 235.749 64.47C236.089 64.6433 236.353 64.8833 236.539 65.19C236.726 65.4967 236.819 65.8433 236.819 66.23C236.819 66.3433 236.803 66.4667 236.769 66.6C236.743 66.7333 236.703 66.84 236.649 66.92H233.149C233.183 67.2133 233.269 67.4633 233.409 67.67C233.549 67.8767 233.736 68.0333 233.969 68.14C234.203 68.24 234.473 68.29 234.779 68.29C235.086 68.29 235.356 68.2433 235.589 68.15C235.829 68.0567 236.059 67.9233 236.279 67.75L236.619 68.45C236.359 68.6633 236.066 68.8267 235.739 68.94C235.419 69.0467 235.069 69.1 234.689 69.1ZM233.149 66.19H235.839C235.846 66.1767 235.849 66.1633 235.849 66.15C235.849 66.13 235.849 66.11 235.849 66.09C235.849 65.87 235.803 65.68 235.709 65.52C235.616 65.3533 235.476 65.2233 235.289 65.13C235.103 65.0367 234.866 64.99 234.579 64.99C234.353 64.99 234.139 65.04 233.939 65.14C233.746 65.2333 233.579 65.37 233.439 65.55C233.306 65.7233 233.209 65.9367 233.149 66.19ZM240.497 69V62.32H243.157C243.977 62.32 244.594 62.4933 245.007 62.84C245.42 63.1867 245.627 63.7133 245.627 64.42C245.627 65.1267 245.42 65.6533 245.007 66C244.594 66.34 243.977 66.51 243.157 66.51H241.497V69H240.497ZM241.497 65.67H242.967C243.5 65.67 243.907 65.5767 244.187 65.39C244.467 65.2033 244.607 64.88 244.607 64.42C244.607 63.9533 244.47 63.6267 244.197 63.44C243.93 63.2533 243.52 63.16 242.967 63.16H241.497V65.67ZM246.863 69V64.3H247.773V65.12C247.893 64.8267 248.067 64.6067 248.293 64.46C248.527 64.3133 248.787 64.24 249.073 64.24C249.167 64.24 249.25 64.2467 249.323 64.26C249.403 64.2667 249.467 64.28 249.513 64.3V65.19C249.42 65.17 249.327 65.1567 249.233 65.15C249.147 65.1367 249.06 65.13 248.973 65.13C248.64 65.13 248.36 65.27 248.133 65.55C247.913 65.8233 247.803 66.2167 247.803 66.73V69H246.863ZM252.471 69.1C251.991 69.1 251.565 69 251.191 68.8C250.818 68.5933 250.528 68.3067 250.321 67.94C250.115 67.5733 250.011 67.1433 250.011 66.65C250.011 66.1567 250.115 65.7267 250.321 65.36C250.528 64.9933 250.818 64.71 251.191 64.51C251.565 64.3033 251.991 64.2 252.471 64.2C252.958 64.2 253.385 64.3033 253.751 64.51C254.125 64.71 254.415 64.9933 254.621 65.36C254.835 65.7267 254.941 66.1567 254.941 66.65C254.941 67.1433 254.835 67.5733 254.621 67.94C254.415 68.3067 254.125 68.5933 253.751 68.8C253.385 69 252.958 69.1 252.471 69.1ZM252.471 68.27C252.771 68.27 253.035 68.2067 253.261 68.08C253.488 67.9467 253.661 67.76 253.781 67.52C253.908 67.2733 253.971 66.9833 253.971 66.65C253.971 66.3167 253.908 66.03 253.781 65.79C253.661 65.5433 253.488 65.3533 253.261 65.22C253.035 65.0867 252.771 65.02 252.471 65.02C252.171 65.02 251.908 65.0867 251.681 65.22C251.461 65.3533 251.288 65.5433 251.161 65.79C251.035 66.03 250.971 66.3167 250.971 66.65C250.971 66.9833 251.035 67.2733 251.161 67.52C251.288 67.76 251.461 67.9467 251.681 68.08C251.908 68.2067 252.171 68.27 252.471 68.27ZM256.69 69V65.1H255.66V64.3H256.69V63.68C256.69 63.1933 256.807 62.8367 257.04 62.61C257.28 62.3767 257.647 62.26 258.14 62.26C258.267 62.26 258.397 62.2667 258.53 62.28C258.663 62.2933 258.77 62.3133 258.85 62.34V63.1C258.79 63.0867 258.707 63.0767 258.6 63.07C258.5 63.0633 258.41 63.06 258.33 63.06C258.09 63.06 257.913 63.12 257.8 63.24C257.687 63.3533 257.63 63.5233 257.63 63.75V64.3H258.85V65.1H257.63V69H256.69ZM259.842 69V64.3H260.782V69H259.842ZM260.312 63.33C260.138 63.33 259.998 63.28 259.892 63.18C259.792 63.08 259.742 62.95 259.742 62.79C259.742 62.63 259.792 62.5 259.892 62.4C259.998 62.3 260.138 62.25 260.312 62.25C260.478 62.25 260.615 62.3 260.722 62.4C260.828 62.5 260.882 62.63 260.882 62.79C260.882 62.95 260.828 63.08 260.722 63.18C260.615 63.28 260.478 63.33 260.312 63.33ZM264.253 69.06C263.76 69.06 263.393 68.9467 263.153 68.72C262.92 68.4867 262.803 68.1267 262.803 67.64V65.1H261.773V64.3H262.803V62.96H263.743V64.3H264.963V65.1H263.743V67.56C263.743 67.7933 263.8 67.9667 263.913 68.08C264.027 68.1933 264.203 68.25 264.443 68.25C264.523 68.25 264.613 68.2467 264.713 68.24C264.82 68.2333 264.903 68.2233 264.963 68.21V68.97C264.883 68.9967 264.777 69.0167 264.643 69.03C264.51 69.05 264.38 69.06 264.253 69.06ZM271.673 69.1C270.973 69.1 270.367 68.9533 269.853 68.66C269.34 68.36 268.947 67.9533 268.673 67.44C268.4 66.92 268.263 66.3267 268.263 65.66C268.263 64.9933 268.4 64.4033 268.673 63.89C268.947 63.37 269.34 62.9633 269.853 62.67C270.367 62.37 270.973 62.22 271.673 62.22C272.38 62.22 272.987 62.37 273.493 62.67C274 62.9633 274.393 63.37 274.673 63.89C274.953 64.4033 275.093 64.9933 275.093 65.66C275.093 66.3267 274.953 66.92 274.673 67.44C274.393 67.9533 274 68.36 273.493 68.66C272.987 68.9533 272.38 69.1 271.673 69.1ZM271.673 68.21C272.167 68.21 272.59 68.1067 272.943 67.9C273.303 67.6867 273.58 67.3867 273.773 67C273.967 66.6133 274.063 66.1667 274.063 65.66C274.063 65.1533 273.967 64.7067 273.773 64.32C273.58 63.9333 273.303 63.6333 272.943 63.42C272.59 63.2067 272.167 63.1 271.673 63.1C271.187 63.1 270.763 63.2067 270.403 63.42C270.05 63.6333 269.773 63.9333 269.573 64.32C269.38 64.7067 269.283 65.1533 269.283 65.66C269.283 66.1667 269.38 66.6133 269.573 67C269.773 67.3867 270.05 67.6867 270.403 67.9C270.763 68.1067 271.187 68.21 271.673 68.21ZM276.326 69V64.3H277.236V65.12C277.356 64.8267 277.53 64.6067 277.756 64.46C277.99 64.3133 278.25 64.24 278.536 64.24C278.63 64.24 278.713 64.2467 278.786 64.26C278.866 64.2667 278.93 64.28 278.976 64.3V65.19C278.883 65.17 278.79 65.1567 278.696 65.15C278.61 65.1367 278.523 65.13 278.436 65.13C278.103 65.13 277.823 65.27 277.596 65.55C277.376 65.8233 277.266 66.2167 277.266 66.73V69H276.326ZM281.724 69.1C281.298 69.1 280.914 69 280.574 68.8C280.234 68.6 279.964 68.3167 279.764 67.95C279.571 67.5833 279.474 67.15 279.474 66.65C279.474 66.1433 279.571 65.7067 279.764 65.34C279.964 64.9733 280.234 64.6933 280.574 64.5C280.914 64.3 281.298 64.2 281.724 64.2C282.098 64.2 282.424 64.2733 282.704 64.42C282.984 64.56 283.201 64.7467 283.354 64.98V62.32H284.304V69H283.394V68.25C283.248 68.5033 283.031 68.71 282.744 68.87C282.458 69.0233 282.118 69.1 281.724 69.1ZM281.924 68.27C282.211 68.27 282.464 68.2067 282.684 68.08C282.904 67.9467 283.078 67.76 283.204 67.52C283.331 67.2733 283.394 66.9833 283.394 66.65C283.394 66.3167 283.331 66.03 283.204 65.79C283.078 65.5433 282.904 65.3533 282.684 65.22C282.464 65.0867 282.211 65.02 281.924 65.02C281.638 65.02 281.381 65.0867 281.154 65.22C280.934 65.3533 280.761 65.5433 280.634 65.79C280.508 66.03 280.444 66.3167 280.444 66.65C280.444 66.9833 280.508 67.2733 280.634 67.52C280.761 67.76 280.934 67.9467 281.154 68.08C281.374 68.2067 281.631 68.27 281.924 68.27ZM288.039 69.1C287.565 69.1 287.139 69.0067 286.759 68.82C286.385 68.6267 286.089 68.35 285.869 67.99C285.649 67.6233 285.539 67.1767 285.539 66.65C285.539 66.15 285.642 65.7167 285.849 65.35C286.062 64.9833 286.345 64.7 286.699 64.5C287.059 64.3 287.459 64.2 287.899 64.2C288.365 64.2 288.765 64.29 289.099 64.47C289.439 64.6433 289.702 64.8833 289.889 65.19C290.075 65.4967 290.169 65.8433 290.169 66.23C290.169 66.3433 290.152 66.4667 290.119 66.6C290.092 66.7333 290.052 66.84 289.999 66.92H286.499C286.532 67.2133 286.619 67.4633 286.759 67.67C286.899 67.8767 287.085 68.0333 287.319 68.14C287.552 68.24 287.822 68.29 288.129 68.29C288.435 68.29 288.705 68.2433 288.939 68.15C289.179 68.0567 289.409 67.9233 289.629 67.75L289.969 68.45C289.709 68.6633 289.415 68.8267 289.089 68.94C288.769 69.0467 288.419 69.1 288.039 69.1ZM286.499 66.19H289.189C289.195 66.1767 289.199 66.1633 289.199 66.15C289.199 66.13 289.199 66.11 289.199 66.09C289.199 65.87 289.152 65.68 289.059 65.52C288.965 65.3533 288.825 65.2233 288.639 65.13C288.452 65.0367 288.215 64.99 287.929 64.99C287.702 64.99 287.489 65.04 287.289 65.14C287.095 65.2333 286.929 65.37 286.789 65.55C286.655 65.7233 286.559 65.9367 286.499 66.19ZM291.395 69V64.3H292.305V65.12C292.425 64.8267 292.598 64.6067 292.825 64.46C293.058 64.3133 293.318 64.24 293.605 64.24C293.698 64.24 293.781 64.2467 293.855 64.26C293.935 64.2667 293.998 64.28 294.045 64.3V65.19C293.951 65.17 293.858 65.1567 293.765 65.15C293.678 65.1367 293.591 65.13 293.505 65.13C293.171 65.13 292.891 65.27 292.665 65.55C292.445 65.8233 292.335 66.2167 292.335 66.73V69H291.395Z" fill="#C75E4B"/>
<g filter="url(#filter0_d_838_7235)">
<circle cx="297" cy="41" r="4" fill="white"/>
<circle cx="297" cy="41" r="2.6" stroke="#C75E4B" stroke-width="2.8"/>
</g>
<g filter="url(#filter1_d_838_7235)">
<circle cx="55" cy="84" r="4" fill="white"/>
<circle cx="55" cy="84" r="2.6" stroke="#46956A" stroke-width="2.8"/>
</g>
<defs>
<filter id="filter0_d_838_7235" x="289" y="33" width="18" height="18" filterUnits="userSpaceOnUse" color-interpolation-filters="sRGB">
<feFlood flood-opacity="0" result="BackgroundImageFix"/>
<feColorMatrix in="SourceAlpha" type="matrix" values="0 0 0 0 0 0 0 0 0 0 0 0 0 0 0 0 0 0 127 0" result="hardAlpha"/>
<feOffset dx="1" dy="1"/>
<feGaussianBlur stdDeviation="2.5"/>
<feComposite in2="hardAlpha" operator="out"/>
<feColorMatrix type="matrix" values="0 0 0 0 0.0933333 0 0 0 0 0.100702 0 0 0 0 0.233333 0 0 0 0.7 0"/>
<feBlend mode="normal" in2="BackgroundImageFix" result="effect1_dropShadow_838_7235"/>
<feBlend mode="normal" in="SourceGraphic" in2="effect1_dropShadow_838_7235" result="shape"/>
</filter>
<filter id="filter1_d_838_7235" x="47" y="76" width="18" height="18" filterUnits="userSpaceOnUse" color-interpolation-filters="sRGB">
<feFlood flood-opacity="0" result="BackgroundImageFix"/>
<feColorMatrix in="SourceAlpha" type="matrix" values="0 0 0 0 0 0 0 0 0 0 0 0 0 0 0 0 0 0 127 0" result="hardAlpha"/>
<feOffset dx="1" dy="1"/>
<feGaussianBlur stdDeviation="2.5"/>
<feComposite in2="hardAlpha" operator="out"/>
<feColorMatrix type="matrix" values="0 0 0 0 0.0933333 0 0 0 0 0.100702 0 0 0 0 0.233333 0 0 0 0.7 0"/>
<feBlend mode="normal" in2="BackgroundImageFix" result="effect1_dropShadow_838_7235"/>
<feBlend mode="normal" in="SourceGraphic" in2="effect1_dropShadow_838_7235" result="shape"/>
</filter>
<linearGradient id="paint0_linear_838_7235" x1="15" y1="19.4881" x2="15.0041" y2="21.2299" gradientUnits="userSpaceOnUse">
<stop stop-color="#384263" stop-opacity="0.25"/>
<stop offset="1" stop-color="#384263" stop-opacity="0.15"/>
</linearGradient>
<linearGradient id="paint1_linear_838_7235" x1="15" y1="69.4881" x2="15.0041" y2="71.2299" gradientUnits="userSpaceOnUse">
<stop stop-color="#384263" stop-opacity="0.25"/>
<stop offset="1" stop-color="#384263" stop-opacity="0.15"/>
</linearGradient>
<linearGradient id="paint2_linear_838_7235" x1="15" y1="119.488" x2="15.0041" y2="121.23" gradientUnits="userSpaceOnUse">
<stop stop-color="#384263" stop-opacity="0.25"/>
<stop offset="1" stop-color="#384263" stop-opacity="0.15"/>
</linearGradient>
</defs>
</svg>
