<svg width="240" height="140" viewBox="0 0 240 140" fill="none" xmlns="http://www.w3.org/2000/svg">
<rect width="240" height="140" rx="5" fill="#181A3C"/>
<rect x="0.5" y="0.5" width="239" height="139" rx="4.5" stroke="#46956A" stroke-opacity="0.1"/>
<path d="M15 19.5L225 19.5" stroke="url(#paint0_linear_979_5542)" stroke-linecap="round" stroke-dasharray="3 5"/>
<path d="M15 69.5L225 69.5" stroke="url(#paint1_linear_979_5542)" stroke-linecap="round" stroke-dasharray="3 5"/>
<path d="M15 119.5L225 119.5" stroke="url(#paint2_linear_979_5542)" stroke-linecap="round" stroke-dasharray="3 5"/>
<path d="M15.4433 31.9409C15.3155 31.6961 15.0135 31.6012 14.7687 31.729C14.5239 31.8568 14.429 32.1588 14.5567 32.4036L15.4433 31.9409ZM51.4412 102L50.9979 102.231L51.3921 102.987L51.8593 102.274L51.4412 102ZM109.809 13L110.102 12.5949L109.678 12.288L109.391 12.7258L109.809 13ZM137.603 33.113L137.31 33.5181L137.528 33.6757L137.779 33.5809L137.603 33.113ZM164.471 22.9894L164.77 22.5891L164.551 22.4248L164.294 22.5215L164.471 22.9894ZM225 22.9894L219.375 24.2912L223.315 28.5115L225 22.9894ZM198.068 48.1321L197.768 48.5324L198.103 48.7831L198.409 48.4976L198.068 48.1321ZM14.5567 32.4036L50.9979 102.231L51.8844 101.769L15.4433 31.9409L14.5567 32.4036ZM51.8593 102.274L110.227 13.2742L109.391 12.7258L51.0231 101.726L51.8593 102.274ZM109.516 13.4051L137.31 33.5181L137.896 32.7079L110.102 12.5949L109.516 13.4051ZM137.779 33.5809L164.647 23.4573L164.294 22.5215L137.427 32.6451L137.779 33.5809ZM164.171 23.3897L197.768 48.5324L198.367 47.7318L164.77 22.5891L164.171 23.3897ZM198.409 48.4976L222.052 26.4257L221.369 25.6947L197.726 47.7666L198.409 48.4976Z" fill="#747FA6"/>
<path d="M51.4412 102L50.9989 102.233L51.3945 102.983L51.8593 102.274L51.4412 102ZM109.809 13L110.102 12.5949L109.678 12.288L109.391 12.7258L109.809 13ZM137.603 33.113L137.31 33.5181L137.528 33.6757L137.779 33.5809L137.603 33.113ZM164.471 22.9894L164.77 22.5891L164.551 22.4248L164.294 22.5215L164.471 22.9894ZM225 22.9894L219.375 24.2912L223.315 28.5115L225 22.9894ZM198.068 48.1321L197.768 48.5324L198.103 48.7831L198.409 48.4976L198.068 48.1321ZM43.4422 85.7667C43.3134 85.5225 43.0109 85.4289 42.7667 85.5578C42.5225 85.6866 42.4289 85.9891 42.5578 86.2333L43.4422 85.7667ZM51.8593 102.274L110.227 13.2742L109.391 12.7258L51.0231 101.726L51.8593 102.274ZM109.516 13.4051L137.31 33.5181L137.896 32.7079L110.102 12.5949L109.516 13.4051ZM137.779 33.5809L164.647 23.4573L164.294 22.5215L137.427 32.6451L137.779 33.5809ZM164.171 23.3897L197.768 48.5324L198.367 47.7318L164.77 22.5891L164.171 23.3897ZM198.409 48.4976L222.052 26.4257L221.369 25.6947L197.726 47.7666L198.409 48.4976ZM42.5578 86.2333L50.9989 102.233L51.8834 101.767L43.4422 85.7667L42.5578 86.2333Z" fill="#46956A"/>
<path d="M225 22.9893L219.376 24.2926L223.316 28.5119L225 22.9893ZM209.659 36.6345C209.457 36.823 209.446 37.1394 209.635 37.3412C209.823 37.543 210.139 37.5538 210.341 37.3653L209.659 36.6345ZM210.341 37.3653L222.053 26.4263L221.37 25.6955L209.659 36.6345L210.341 37.3653Z" fill="#C75E4B"/>
<rect x="27" y="57" width="87" height="19" rx="5" fill="#19233C"/>
<rect x="27.5" y="57.5" width="86" height="18" rx="4.5" stroke="#46956A" stroke-opacity="0.1"/>
<path d="M34.9 70.1C34.4333 70.1 34.0067 70.03 33.62 69.89C33.24 69.75 32.8633 69.52 32.49 69.2L32.89 68.42C33.25 68.7067 33.59 68.9133 33.91 69.04C34.2367 69.1667 34.5667 69.23 34.9 69.23C35.3867 69.23 35.76 69.1333 36.02 68.94C36.28 68.7467 36.41 68.47 36.41 68.11C36.41 67.8633 36.33 67.6567 36.17 67.49C36.01 67.3233 35.7767 67.21 35.47 67.15L34.37 66.94C33.7767 66.8267 33.3467 66.6233 33.08 66.33C32.82 66.0367 32.69 65.68 32.69 65.26C32.69 64.8867 32.7733 64.5467 32.94 64.24C33.1067 63.9333 33.3633 63.6867 33.71 63.5C34.0567 63.3133 34.49 63.22 35.01 63.22C35.41 63.22 35.7933 63.2767 36.16 63.39C36.5267 63.5033 36.8833 63.7 37.23 63.98L36.83 64.76C36.5367 64.5533 36.2467 64.39 35.96 64.27C35.6733 64.15 35.3633 64.09 35.03 64.09C34.59 64.09 34.26 64.1833 34.04 64.37C33.82 64.5567 33.71 64.81 33.71 65.13C33.71 65.3767 33.79 65.57 33.95 65.71C34.11 65.85 34.3433 65.95 34.65 66.01L35.75 66.22C36.3367 66.3267 36.7633 66.55 37.03 66.89C37.2967 67.2233 37.43 67.5967 37.43 68.01C37.43 68.6367 37.2133 69.1433 36.78 69.53C36.3467 69.91 35.72 70.1 34.9 70.1ZM40.628 70.06C40.1413 70.06 39.778 69.9467 39.538 69.72C39.3046 69.4867 39.188 69.1267 39.188 68.64V66.1H38.158V65.3H39.188V63.96H40.128V65.3H41.348V66.1H40.128V68.56C40.128 68.7933 40.1846 68.97 40.298 69.09C40.4113 69.2033 40.5846 69.26 40.818 69.26C40.898 69.26 40.9913 69.2567 41.098 69.25C41.2046 69.2433 41.288 69.2333 41.348 69.22V69.98C41.2613 70.0067 41.1513 70.0267 41.018 70.04C40.8913 70.0533 40.7613 70.06 40.628 70.06ZM44.6863 70.1C44.2063 70.1 43.7797 70 43.4063 69.8C43.033 69.5933 42.743 69.3067 42.5363 68.94C42.3297 68.5733 42.2263 68.1433 42.2263 67.65C42.2263 67.1567 42.3297 66.7267 42.5363 66.36C42.743 65.9933 43.033 65.71 43.4063 65.51C43.7797 65.3033 44.2063 65.2 44.6863 65.2C45.173 65.2 45.5997 65.3033 45.9663 65.51C46.3397 65.71 46.6297 65.9933 46.8363 66.36C47.043 66.7267 47.1463 67.1567 47.1463 67.65C47.1463 68.1433 47.043 68.5733 46.8363 68.94C46.6297 69.3067 46.3397 69.5933 45.9663 69.8C45.5997 70 45.173 70.1 44.6863 70.1ZM44.6863 69.28C44.9863 69.28 45.2497 69.2133 45.4763 69.08C45.703 68.9467 45.8763 68.76 45.9963 68.52C46.123 68.2733 46.1863 67.9833 46.1863 67.65C46.1863 67.3167 46.123 67.03 45.9963 66.79C45.8763 66.5433 45.703 66.3533 45.4763 66.22C45.2497 66.0867 44.9863 66.02 44.6863 66.02C44.3863 66.02 44.123 66.0867 43.8963 66.22C43.6697 66.3533 43.493 66.5433 43.3663 66.79C43.2463 67.03 43.1863 67.3167 43.1863 67.65C43.1863 67.9833 43.2463 68.2733 43.3663 68.52C43.493 68.76 43.6697 68.9467 43.8963 69.08C44.123 69.2133 44.3863 69.28 44.6863 69.28ZM48.3848 71.82V65.3H49.2848V66.05C49.4314 65.7967 49.6481 65.5933 49.9348 65.44C50.2214 65.28 50.5614 65.2 50.9548 65.2C51.3814 65.2 51.7648 65.3 52.1048 65.5C52.4448 65.7 52.7114 65.9833 52.9048 66.35C53.1048 66.71 53.2048 67.1433 53.2048 67.65C53.2048 68.15 53.1048 68.5833 52.9048 68.95C52.7114 69.3167 52.4448 69.6 52.1048 69.8C51.7648 70 51.3814 70.1 50.9548 70.1C50.5814 70.1 50.2548 70.03 49.9748 69.89C49.6948 69.7433 49.4781 69.55 49.3248 69.31V71.82H48.3848ZM50.7648 69.28C51.0514 69.28 51.3048 69.2133 51.5248 69.08C51.7448 68.9467 51.9181 68.76 52.0448 68.52C52.1714 68.2733 52.2348 67.9833 52.2348 67.65C52.2348 67.3167 52.1714 67.03 52.0448 66.79C51.9248 66.5433 51.7514 66.3533 51.5248 66.22C51.3048 66.0867 51.0514 66.02 50.7648 66.02C50.4714 66.02 50.2148 66.0867 49.9948 66.22C49.7748 66.3533 49.6014 66.5433 49.4748 66.79C49.3481 67.03 49.2848 67.3167 49.2848 67.65C49.2848 67.9833 49.3481 68.2733 49.4748 68.52C49.6014 68.76 49.7748 68.9467 49.9948 69.08C50.2148 69.2133 50.4714 69.28 50.7648 69.28ZM56.9013 70V63.32H58.4713L60.6313 68.77L62.7913 63.32H64.3613V70H63.3613V64.31L61.0713 70H60.1913L57.9013 64.31V70H56.9013ZM67.4041 70.1C67.0574 70.1 66.7507 70.0467 66.4841 69.94C66.2241 69.8267 66.0207 69.6667 65.8741 69.46C65.7274 69.2467 65.6541 68.9933 65.6541 68.7C65.6541 68.4 65.7274 68.15 65.8741 67.95C66.0207 67.75 66.2274 67.5933 66.4941 67.48C66.7607 67.3667 67.0641 67.29 67.4041 67.25L69.0641 67.04C69.0241 66.6867 68.8907 66.4267 68.6641 66.26C68.4374 66.0933 68.1574 66.01 67.8241 66.01C67.5974 66.01 67.3607 66.0567 67.1141 66.15C66.8741 66.2367 66.6174 66.3767 66.3441 66.57L65.9941 65.86C66.2541 65.6533 66.5407 65.4933 66.8541 65.38C67.1674 65.26 67.4941 65.2 67.8341 65.2C68.5541 65.2 69.0974 65.3633 69.4641 65.69C69.8307 66.0167 70.0141 66.5 70.0141 67.14V70H69.1141V69.32C68.9407 69.58 68.7074 69.7767 68.4141 69.91C68.1274 70.0367 67.7907 70.1 67.4041 70.1ZM67.6241 69.31C67.9374 69.31 68.2007 69.2467 68.4141 69.12C68.6341 68.9933 68.7974 68.8267 68.9041 68.62C69.0174 68.4133 69.0741 68.1967 69.0741 67.97V67.76L67.6741 67.94C67.3274 67.9867 67.0641 68.0633 66.8841 68.17C66.7041 68.27 66.6141 68.4333 66.6141 68.66C66.6141 68.8667 66.7007 69.0267 66.8741 69.14C67.0541 69.2533 67.3041 69.31 67.6241 69.31ZM71.5098 70V65.3H72.4098V66.13C72.5364 65.8367 72.7131 65.6167 72.9398 65.47C73.1731 65.3167 73.4331 65.24 73.7198 65.24C73.8131 65.24 73.8964 65.2467 73.9698 65.26C74.0498 65.2667 74.1098 65.28 74.1498 65.3V66.19C74.0631 66.17 73.9731 66.1567 73.8798 66.15C73.7931 66.1367 73.7064 66.13 73.6198 66.13C73.2864 66.13 73.0064 66.27 72.7798 66.55C72.5598 66.8233 72.4498 67.2167 72.4498 67.73V70H71.5098ZM75.2207 70V63.32H76.1607V67.51L78.3807 65.3H79.5207L77.5607 67.23L79.6207 70H78.4807L76.9007 67.87L76.1607 68.6V70H75.2207ZM82.0505 70.1C81.5772 70.1 81.1505 70.0067 80.7705 69.82C80.3972 69.6267 80.1005 69.35 79.8805 68.99C79.6605 68.6233 79.5505 68.1767 79.5505 67.65C79.5505 67.15 79.6539 66.7167 79.8605 66.35C80.0739 65.9833 80.3572 65.7 80.7105 65.5C81.0705 65.3 81.4705 65.2 81.9105 65.2C82.3705 65.2 82.7705 65.29 83.1105 65.47C83.4505 65.65 83.7105 65.8933 83.8905 66.2C84.0772 66.5 84.1705 66.8433 84.1705 67.23C84.1705 67.3433 84.1539 67.4667 84.1205 67.6C84.0939 67.7333 84.0572 67.84 84.0105 67.92H80.5105C80.5439 68.22 80.6272 68.4733 80.7605 68.68C80.9005 68.88 81.0872 69.0333 81.3205 69.14C81.5539 69.24 81.8239 69.29 82.1305 69.29C82.4372 69.29 82.7072 69.2433 82.9405 69.15C83.1805 69.0567 83.4105 68.9267 83.6305 68.76L83.9705 69.45C83.7105 69.6633 83.4172 69.8267 83.0905 69.94C82.7705 70.0467 82.4239 70.1 82.0505 70.1ZM80.5105 67.2H83.2005C83.2072 67.18 83.2105 67.1633 83.2105 67.15C83.2105 67.1367 83.2105 67.12 83.2105 67.1C83.2105 66.8733 83.1639 66.68 83.0705 66.52C82.9772 66.3533 82.8372 66.2233 82.6505 66.13C82.4639 66.0367 82.2272 65.99 81.9405 65.99C81.7072 65.99 81.4905 66.04 81.2905 66.14C81.0972 66.2333 80.9305 66.37 80.7905 66.55C80.6572 66.7233 80.5639 66.94 80.5105 67.2ZM87.3663 70.06C86.8796 70.06 86.5163 69.9467 86.2763 69.72C86.0429 69.4867 85.9263 69.1267 85.9263 68.64V66.1H84.8963V65.3H85.9263V63.96H86.8663V65.3H88.0863V66.1H86.8663V68.56C86.8663 68.7933 86.9229 68.97 87.0363 69.09C87.1496 69.2033 87.3229 69.26 87.5563 69.26C87.6363 69.26 87.7296 69.2567 87.8363 69.25C87.9429 69.2433 88.0263 69.2333 88.0863 69.22V69.98C87.9996 70.0067 87.8896 70.0267 87.7563 70.04C87.6296 70.0533 87.4996 70.06 87.3663 70.06ZM91.6767 70V63.32H94.7667C95.2867 63.32 95.7201 63.38 96.0667 63.5C96.4201 63.6133 96.6867 63.8 96.8667 64.06C97.0467 64.3133 97.1367 64.6467 97.1367 65.06C97.1367 65.4467 97.0534 65.7667 96.8867 66.02C96.7267 66.2667 96.4567 66.4433 96.0767 66.55C96.5301 66.6567 96.8534 66.8433 97.0467 67.11C97.2401 67.3767 97.3367 67.7267 97.3367 68.16C97.3367 68.82 97.1267 69.2933 96.7067 69.58C96.2867 69.86 95.6401 70 94.7667 70H91.6767ZM92.6767 69.16H94.6267C95.0467 69.16 95.3801 69.1233 95.6267 69.05C95.8734 68.9767 96.0501 68.86 96.1567 68.7C96.2634 68.54 96.3167 68.3267 96.3167 68.06C96.3167 67.8 96.2634 67.59 96.1567 67.43C96.0501 67.2633 95.8734 67.1433 95.6267 67.07C95.3801 66.9967 95.0467 66.96 94.6267 66.96H92.6767V69.16ZM92.6767 66.16H94.6267C95.1801 66.16 95.5667 66.0867 95.7867 65.94C96.0067 65.7933 96.1167 65.5333 96.1167 65.16C96.1167 64.7867 96.0067 64.5267 95.7867 64.38C95.5667 64.2333 95.1801 64.16 94.6267 64.16H92.6767V66.16ZM100.3 70.1C99.7601 70.1 99.3367 69.9467 99.0301 69.64C98.7301 69.3333 98.5801 68.8533 98.5801 68.2V65.3H99.5201V68.08C99.5201 68.5 99.6034 68.8067 99.7701 69C99.9434 69.1867 100.203 69.28 100.55 69.28C100.963 69.28 101.28 69.14 101.5 68.86C101.727 68.58 101.84 68.1967 101.84 67.71V65.3H102.78V70H101.88V69.3C101.74 69.5467 101.537 69.7433 101.27 69.89C101.003 70.03 100.68 70.1 100.3 70.1ZM104.673 71.88C104.473 71.88 104.273 71.8533 104.073 71.8C103.873 71.7533 103.7 71.6867 103.553 71.6L103.823 70.87C103.963 70.9367 104.1 70.9867 104.233 71.02C104.367 71.06 104.493 71.08 104.613 71.08C104.76 71.08 104.897 71.05 105.023 70.99C105.15 70.93 105.27 70.8333 105.383 70.7C105.503 70.5667 105.62 70.39 105.733 70.17L103.783 65.3H104.793L106.183 69.06L107.573 65.3H108.583L106.703 70C106.51 70.4867 106.303 70.8667 106.083 71.14C105.87 71.4133 105.643 71.6033 105.403 71.71C105.17 71.8233 104.927 71.88 104.673 71.88Z" fill="#46956A"/>
<rect x="141" y="57" width="84" height="19" rx="5" fill="#261D39"/>
<rect x="141.5" y="57.5" width="83" height="18" rx="4.5" stroke="#C75E4B" stroke-opacity="0.1"/>
<path d="M147 70V64.2H144.93V63.32H150.05V64.2H148V70H147ZM150.734 70.1C150.387 70.1 150.081 70.0467 149.814 69.94C149.554 69.8267 149.351 69.6667 149.204 69.46C149.057 69.2467 148.984 68.9933 148.984 68.7C148.984 68.4 149.057 68.15 149.204 67.95C149.351 67.75 149.557 67.5933 149.824 67.48C150.091 67.3667 150.394 67.29 150.734 67.25L152.394 67.04C152.354 66.6867 152.221 66.4267 151.994 66.26C151.767 66.0933 151.487 66.01 151.154 66.01C150.927 66.01 150.691 66.0567 150.444 66.15C150.204 66.2367 149.947 66.3767 149.674 66.57L149.324 65.86C149.584 65.6533 149.871 65.4933 150.184 65.38C150.497 65.26 150.824 65.2 151.164 65.2C151.884 65.2 152.427 65.3633 152.794 65.69C153.161 66.0167 153.344 66.5 153.344 67.14V70H152.444V69.32C152.271 69.58 152.037 69.7767 151.744 69.91C151.457 70.0367 151.121 70.1 150.734 70.1ZM150.954 69.31C151.267 69.31 151.531 69.2467 151.744 69.12C151.964 68.9933 152.127 68.8267 152.234 68.62C152.347 68.4133 152.404 68.1967 152.404 67.97V67.76L151.004 67.94C150.657 67.9867 150.394 68.0633 150.214 68.17C150.034 68.27 149.944 68.4333 149.944 68.66C149.944 68.8667 150.031 69.0267 150.204 69.14C150.384 69.2533 150.634 69.31 150.954 69.31ZM154.84 70V63.32H155.78V67.51L158 65.3H159.14L157.18 67.23L159.24 70H158.1L156.52 67.87L155.78 68.6V70H154.84ZM161.67 70.1C161.196 70.1 160.77 70.0067 160.39 69.82C160.016 69.6267 159.72 69.35 159.5 68.99C159.28 68.6233 159.17 68.1767 159.17 67.65C159.17 67.15 159.273 66.7167 159.48 66.35C159.693 65.9833 159.976 65.7 160.33 65.5C160.69 65.3 161.09 65.2 161.53 65.2C161.99 65.2 162.39 65.29 162.73 65.47C163.07 65.65 163.33 65.8933 163.51 66.2C163.696 66.5 163.79 66.8433 163.79 67.23C163.79 67.3433 163.773 67.4667 163.74 67.6C163.713 67.7333 163.676 67.84 163.63 67.92H160.13C160.163 68.22 160.246 68.4733 160.38 68.68C160.52 68.88 160.706 69.0333 160.94 69.14C161.173 69.24 161.443 69.29 161.75 69.29C162.056 69.29 162.326 69.2433 162.56 69.15C162.8 69.0567 163.03 68.9267 163.25 68.76L163.59 69.45C163.33 69.6633 163.036 69.8267 162.71 69.94C162.39 70.0467 162.043 70.1 161.67 70.1ZM160.13 67.2H162.82C162.826 67.18 162.83 67.1633 162.83 67.15C162.83 67.1367 162.83 67.12 162.83 67.1C162.83 66.8733 162.783 66.68 162.69 66.52C162.596 66.3533 162.456 66.2233 162.27 66.13C162.083 66.0367 161.846 65.99 161.56 65.99C161.326 65.99 161.11 66.04 160.91 66.14C160.716 66.2333 160.55 66.37 160.41 66.55C160.276 66.7233 160.183 66.94 160.13 67.2ZM167.478 70V63.32H170.138C170.958 63.32 171.571 63.4933 171.978 63.84C172.391 64.1867 172.598 64.7133 172.598 65.42C172.598 66.1267 172.391 66.6533 171.978 67C171.571 67.34 170.958 67.51 170.138 67.51H168.478V70H167.478ZM168.478 66.67H169.948C170.481 66.67 170.888 66.58 171.168 66.4C171.448 66.2133 171.588 65.8867 171.588 65.42C171.588 64.9533 171.451 64.6267 171.178 64.44C170.911 64.2533 170.501 64.16 169.948 64.16H168.478V66.67ZM173.844 70V65.3H174.744V66.13C174.87 65.8367 175.047 65.6167 175.274 65.47C175.507 65.3167 175.767 65.24 176.054 65.24C176.147 65.24 176.23 65.2467 176.304 65.26C176.384 65.2667 176.444 65.28 176.484 65.3V66.19C176.397 66.17 176.307 66.1567 176.214 66.15C176.127 66.1367 176.04 66.13 175.954 66.13C175.62 66.13 175.34 66.27 175.114 66.55C174.894 66.8233 174.784 67.2167 174.784 67.73V70H173.844ZM179.442 70.1C178.962 70.1 178.536 70 178.162 69.8C177.789 69.5933 177.499 69.3067 177.292 68.94C177.086 68.5733 176.982 68.1433 176.982 67.65C176.982 67.1567 177.086 66.7267 177.292 66.36C177.499 65.9933 177.789 65.71 178.162 65.51C178.536 65.3033 178.962 65.2 179.442 65.2C179.929 65.2 180.356 65.3033 180.722 65.51C181.096 65.71 181.386 65.9933 181.592 66.36C181.799 66.7267 181.902 67.1567 181.902 67.65C181.902 68.1433 181.799 68.5733 181.592 68.94C181.386 69.3067 181.096 69.5933 180.722 69.8C180.356 70 179.929 70.1 179.442 70.1ZM179.442 69.28C179.742 69.28 180.006 69.2133 180.232 69.08C180.459 68.9467 180.632 68.76 180.752 68.52C180.879 68.2733 180.942 67.9833 180.942 67.65C180.942 67.3167 180.879 67.03 180.752 66.79C180.632 66.5433 180.459 66.3533 180.232 66.22C180.006 66.0867 179.742 66.02 179.442 66.02C179.142 66.02 178.879 66.0867 178.652 66.22C178.426 66.3533 178.249 66.5433 178.122 66.79C178.002 67.03 177.942 67.3167 177.942 67.65C177.942 67.9833 178.002 68.2733 178.122 68.52C178.249 68.76 178.426 68.9467 178.652 69.08C178.879 69.2133 179.142 69.28 179.442 69.28ZM183.661 70V66.1H182.631V65.3H183.661V64.68C183.661 64.1933 183.777 63.8367 184.011 63.61C184.251 63.3767 184.614 63.26 185.101 63.26C185.234 63.26 185.364 63.2667 185.491 63.28C185.624 63.2933 185.734 63.3133 185.821 63.34V64.1C185.761 64.0867 185.677 64.0767 185.571 64.07C185.464 64.0633 185.371 64.06 185.291 64.06C185.057 64.06 184.884 64.12 184.771 64.24C184.657 64.3533 184.601 64.5233 184.601 64.75V65.3H185.821V66.1H184.601V70H183.661ZM186.803 70V65.3H187.743V70H186.803ZM187.263 64.33C187.096 64.33 186.959 64.28 186.853 64.18C186.753 64.08 186.703 63.95 186.703 63.79C186.703 63.63 186.753 63.5033 186.853 63.41C186.959 63.31 187.096 63.26 187.263 63.26C187.436 63.26 187.576 63.31 187.683 63.41C187.789 63.5033 187.843 63.63 187.843 63.79C187.843 63.95 187.789 64.08 187.683 64.18C187.576 64.28 187.436 64.33 187.263 64.33ZM191.194 70.06C190.708 70.06 190.344 69.9467 190.104 69.72C189.871 69.4867 189.754 69.1267 189.754 68.64V66.1H188.724V65.3H189.754V63.96H190.694V65.3H191.914V66.1H190.694V68.56C190.694 68.7933 190.751 68.97 190.864 69.09C190.978 69.2033 191.151 69.26 191.384 69.26C191.464 69.26 191.558 69.2567 191.664 69.25C191.771 69.2433 191.854 69.2333 191.914 69.22V69.98C191.828 70.0067 191.718 70.0267 191.584 70.04C191.458 70.0533 191.328 70.06 191.194 70.06ZM198.615 70.1C197.915 70.1 197.308 69.9533 196.795 69.66C196.282 69.36 195.888 68.9533 195.615 68.44C195.342 67.92 195.205 67.3267 195.205 66.66C195.205 65.9933 195.342 65.4033 195.615 64.89C195.888 64.37 196.282 63.9633 196.795 63.67C197.308 63.37 197.915 63.22 198.615 63.22C199.315 63.22 199.918 63.37 200.425 63.67C200.938 63.9633 201.332 64.37 201.605 64.89C201.885 65.4033 202.025 65.9933 202.025 66.66C202.025 67.3267 201.885 67.92 201.605 68.44C201.332 68.9533 200.938 69.36 200.425 69.66C199.918 69.9533 199.315 70.1 198.615 70.1ZM198.615 69.22C199.108 69.22 199.532 69.1133 199.885 68.9C200.245 68.6867 200.522 68.3867 200.715 68C200.908 67.6133 201.005 67.1667 201.005 66.66C201.005 66.1533 200.908 65.7067 200.715 65.32C200.522 64.9333 200.245 64.6333 199.885 64.42C199.532 64.2067 199.108 64.1 198.615 64.1C198.128 64.1 197.705 64.2067 197.345 64.42C196.992 64.6333 196.715 64.9333 196.515 65.32C196.322 65.7067 196.225 66.1533 196.225 66.66C196.225 67.1667 196.322 67.6133 196.515 68C196.715 68.3867 196.992 68.6867 197.345 68.9C197.705 69.1133 198.128 69.22 198.615 69.22ZM203.268 70V65.3H204.168V66.13C204.294 65.8367 204.471 65.6167 204.698 65.47C204.931 65.3167 205.191 65.24 205.478 65.24C205.571 65.24 205.654 65.2467 205.728 65.26C205.808 65.2667 205.868 65.28 205.908 65.3V66.19C205.821 66.17 205.731 66.1567 205.638 66.15C205.551 66.1367 205.464 66.13 205.378 66.13C205.044 66.13 204.764 66.27 204.538 66.55C204.318 66.8233 204.208 67.2167 204.208 67.73V70H203.268ZM208.656 70.1C208.229 70.1 207.846 70 207.506 69.8C207.166 69.6 206.896 69.3167 206.696 68.95C206.503 68.5833 206.406 68.15 206.406 67.65C206.406 67.1433 206.503 66.71 206.696 66.35C206.896 65.9833 207.166 65.7 207.506 65.5C207.846 65.3 208.229 65.2 208.656 65.2C209.029 65.2 209.356 65.2733 209.636 65.42C209.916 65.56 210.133 65.75 210.286 65.99V63.32H211.226V70H210.326V69.25C210.179 69.5033 209.963 69.71 209.676 69.87C209.389 70.0233 209.049 70.1 208.656 70.1ZM208.846 69.28C209.139 69.28 209.396 69.2133 209.616 69.08C209.836 68.9467 210.009 68.76 210.136 68.52C210.263 68.2733 210.326 67.9833 210.326 67.65C210.326 67.3167 210.263 67.03 210.136 66.79C210.009 66.5433 209.836 66.3533 209.616 66.22C209.396 66.0867 209.143 66.02 208.856 66.02C208.563 66.02 208.303 66.0867 208.076 66.22C207.856 66.3533 207.683 66.5433 207.556 66.79C207.436 67.03 207.376 67.3167 207.376 67.65C207.376 67.9833 207.439 68.2733 207.566 68.52C207.693 68.76 207.866 68.9467 208.086 69.08C208.306 69.2133 208.559 69.28 208.846 69.28ZM214.97 70.1C214.497 70.1 214.07 70.0067 213.69 69.82C213.317 69.6267 213.02 69.35 212.8 68.99C212.58 68.6233 212.47 68.1767 212.47 67.65C212.47 67.15 212.574 66.7167 212.78 66.35C212.994 65.9833 213.277 65.7 213.63 65.5C213.99 65.3 214.39 65.2 214.83 65.2C215.29 65.2 215.69 65.29 216.03 65.47C216.37 65.65 216.63 65.8933 216.81 66.2C216.997 66.5 217.09 66.8433 217.09 67.23C217.09 67.3433 217.074 67.4667 217.04 67.6C217.014 67.7333 216.977 67.84 216.93 67.92H213.43C213.464 68.22 213.547 68.4733 213.68 68.68C213.82 68.88 214.007 69.0333 214.24 69.14C214.474 69.24 214.744 69.29 215.05 69.29C215.357 69.29 215.627 69.2433 215.86 69.15C216.1 69.0567 216.33 68.9267 216.55 68.76L216.89 69.45C216.63 69.6633 216.337 69.8267 216.01 69.94C215.69 70.0467 215.344 70.1 214.97 70.1ZM213.43 67.2H216.12C216.127 67.18 216.13 67.1633 216.13 67.15C216.13 67.1367 216.13 67.12 216.13 67.1C216.13 66.8733 216.084 66.68 215.99 66.52C215.897 66.3533 215.757 66.2233 215.57 66.13C215.384 66.0367 215.147 65.99 214.86 65.99C214.627 65.99 214.41 66.04 214.21 66.14C214.017 66.2333 213.85 66.37 213.71 66.55C213.577 66.7233 213.484 66.94 213.43 67.2ZM218.326 70V65.3H219.226V66.13C219.353 65.8367 219.53 65.6167 219.756 65.47C219.99 65.3167 220.25 65.24 220.536 65.24C220.63 65.24 220.713 65.2467 220.786 65.26C220.866 65.2667 220.926 65.28 220.966 65.3V66.19C220.88 66.17 220.79 66.1567 220.696 66.15C220.61 66.1367 220.523 66.13 220.436 66.13C220.103 66.13 219.823 66.27 219.596 66.55C219.376 66.8233 219.266 67.2167 219.266 67.73V70H218.326Z" fill="#C75E4B"/>
<g filter="url(#filter0_d_979_5542)">
<circle cx="209" cy="38" r="4" fill="white"/>
<circle cx="209" cy="38" r="2.6" stroke="#C75E4B" stroke-width="2.8"/>
</g>
<g filter="url(#filter1_d_979_5542)">
<circle cx="42" cy="85" r="4" fill="white"/>
<circle cx="42" cy="85" r="2.6" stroke="#46956A" stroke-width="2.8"/>
</g>
<defs>
<filter id="filter0_d_979_5542" x="201" y="30" width="18" height="18" filterUnits="userSpaceOnUse" color-interpolation-filters="sRGB">
<feFlood flood-opacity="0" result="BackgroundImageFix"/>
<feColorMatrix in="SourceAlpha" type="matrix" values="0 0 0 0 0 0 0 0 0 0 0 0 0 0 0 0 0 0 127 0" result="hardAlpha"/>
<feOffset dx="1" dy="1"/>
<feGaussianBlur stdDeviation="2.5"/>
<feComposite in2="hardAlpha" operator="out"/>
<feColorMatrix type="matrix" values="0 0 0 0 0.0933333 0 0 0 0 0.100702 0 0 0 0 0.233333 0 0 0 0.7 0"/>
<feBlend mode="normal" in2="BackgroundImageFix" result="effect1_dropShadow_979_5542"/>
<feBlend mode="normal" in="SourceGraphic" in2="effect1_dropShadow_979_5542" result="shape"/>
</filter>
<filter id="filter1_d_979_5542" x="34" y="77" width="18" height="18" filterUnits="userSpaceOnUse" color-interpolation-filters="sRGB">
<feFlood flood-opacity="0" result="BackgroundImageFix"/>
<feColorMatrix in="SourceAlpha" type="matrix" values="0 0 0 0 0 0 0 0 0 0 0 0 0 0 0 0 0 0 127 0" result="hardAlpha"/>
<feOffset dx="1" dy="1"/>
<feGaussianBlur stdDeviation="2.5"/>
<feComposite in2="hardAlpha" operator="out"/>
<feColorMatrix type="matrix" values="0 0 0 0 0.0933333 0 0 0 0 0.100702 0 0 0 0 0.233333 0 0 0 0.7 0"/>
<feBlend mode="normal" in2="BackgroundImageFix" result="effect1_dropShadow_979_5542"/>
<feBlend mode="normal" in="SourceGraphic" in2="effect1_dropShadow_979_5542" result="shape"/>
</filter>
<linearGradient id="paint0_linear_979_5542" x1="15" y1="19.4881" x2="15.0061" y2="21.2299" gradientUnits="userSpaceOnUse">
<stop stop-color="#384263" stop-opacity="0.25"/>
<stop offset="1" stop-color="#384263" stop-opacity="0.15"/>
</linearGradient>
<linearGradient id="paint1_linear_979_5542" x1="15" y1="69.4881" x2="15.0061" y2="71.2299" gradientUnits="userSpaceOnUse">
<stop stop-color="#384263" stop-opacity="0.25"/>
<stop offset="1" stop-color="#384263" stop-opacity="0.15"/>
</linearGradient>
<linearGradient id="paint2_linear_979_5542" x1="15" y1="119.488" x2="15.0061" y2="121.23" gradientUnits="userSpaceOnUse">
<stop stop-color="#384263" stop-opacity="0.25"/>
<stop offset="1" stop-color="#384263" stop-opacity="0.15"/>
</linearGradient>
</defs>
</svg>
