<svg width="226" height="131" viewBox="0 0 226 131" fill="none" xmlns="http://www.w3.org/2000/svg">
<circle cx="110" cy="70" r="20" fill="white"/>
<path d="M106.188 63.3199C105.888 63.285 105.873 63.2734 106.017 63.2617C106.288 63.2268 106.918 63.2734 107.361 63.3548C108.391 63.5527 109.321 64.0648 110.308 64.961L110.566 65.2054L110.938 65.1588C112.526 64.9493 114.157 65.1123 115.516 65.6244C115.888 65.764 116.474 66.0433 116.546 66.1132C116.575 66.1365 116.618 66.2878 116.646 66.4391C116.746 66.9861 116.703 67.3934 116.489 67.7077C116.374 67.8822 116.374 67.9288 116.446 68.0801C116.503 68.1965 116.675 68.278 116.832 68.278C117.175 68.278 117.533 67.8357 117.705 67.2188L117.776 66.9744L117.905 67.0908C118.635 67.7542 119.207 68.6737 119.293 69.3254L119.321 69.5L119.193 69.3487C118.978 69.081 118.778 68.9064 118.506 68.7551C118.02 68.4874 117.505 68.406 116.145 68.3478C114.915 68.2896 114.214 68.2081 113.527 68.0219C112.354 67.7077 111.753 67.3003 110.366 65.7989C109.75 65.1355 109.364 64.7747 108.978 64.4721C108.134 63.8087 107.29 63.4596 106.188 63.3199Z" fill="#FF007A"/>
<path d="M117.43 64.5213C117.455 64.0523 117.517 63.7437 117.654 63.4598C117.704 63.3487 117.754 63.25 117.766 63.25C117.779 63.25 117.754 63.3364 117.716 63.4351C117.617 63.7067 117.605 64.0893 117.667 64.5213C117.754 65.0768 117.791 65.1508 118.388 65.7556C118.662 66.0395 118.986 66.3975 119.11 66.5456L119.321 66.8171L119.11 66.6196C118.849 66.3728 118.251 65.9037 118.115 65.842C118.028 65.7927 118.015 65.7927 117.953 65.8544C117.903 65.9037 117.891 65.9778 117.891 66.3357C117.878 66.8912 117.804 67.2368 117.617 67.5947C117.517 67.7799 117.505 67.7428 117.592 67.533C117.654 67.3726 117.667 67.2985 117.667 66.7677C117.667 65.6939 117.542 65.4347 116.783 65.0027C116.597 64.8916 116.273 64.7312 116.087 64.6448C115.888 64.5584 115.738 64.4843 115.751 64.4843C115.776 64.4596 116.51 64.6694 116.796 64.7929C117.231 64.9657 117.306 64.978 117.356 64.9657C117.393 64.9286 117.418 64.8299 117.43 64.5213Z" fill="#FF007A"/>
<path d="M107.005 66.5393C106.297 65.7309 105.841 64.4765 105.943 63.5427L105.976 63.25L106.145 63.2779C106.448 63.3197 106.971 63.4869 107.224 63.6124C107.898 63.9469 108.201 64.4068 108.488 65.5497C108.572 65.8842 108.69 66.2745 108.741 66.3999C108.825 66.609 109.145 67.0968 109.415 67.4034C109.6 67.6264 109.482 67.738 109.061 67.7101C108.42 67.6543 107.561 67.1665 107.005 66.5393Z" fill="#FF007A"/>
<path d="M117.569 72.1421C114.906 70.9494 113.964 69.9208 113.964 68.1765C113.964 67.923 113.978 67.7143 113.978 67.7143C113.991 67.7143 114.085 67.8037 114.206 67.9081C114.744 68.3852 115.35 68.5939 117.031 68.8622C118.013 69.0262 118.578 69.1455 119.089 69.3393C120.716 69.9357 121.725 71.1582 121.967 72.813C122.034 73.2901 121.994 74.1995 121.886 74.6766C121.792 75.0493 121.523 75.7351 121.456 75.75C121.443 75.75 121.416 75.6755 121.416 75.5562C121.389 74.93 121.106 74.3337 120.636 73.8715C120.071 73.3348 119.344 72.9323 117.569 72.1421Z" fill="#FF007A"/>
<path d="M115.235 72.0143C115.204 71.8226 115.126 71.5797 115.08 71.4774L115.002 71.2857L115.142 71.4263C115.345 71.618 115.501 71.8481 115.641 72.1677C115.75 72.4105 115.75 72.4872 115.75 72.8835C115.75 73.2669 115.734 73.3564 115.641 73.5737C115.485 73.9188 115.298 74.1616 114.986 74.4301C114.425 74.903 113.692 75.1586 112.647 75.2737C112.46 75.2865 111.93 75.3248 111.462 75.3504C110.293 75.4015 109.513 75.5037 108.811 75.7083C108.718 75.7338 108.624 75.7594 108.609 75.7466C108.577 75.721 109.061 75.491 109.451 75.3376C109.996 75.1203 110.558 75.0053 111.789 74.8263C112.398 74.7496 113.021 74.6474 113.177 74.5962C114.721 74.2 115.485 73.2158 115.235 72.0143Z" fill="#FF007A"/>
<path d="M116.146 74.3971C115.74 73.6619 115.646 72.9654 115.865 72.3076C115.896 72.2431 115.927 72.1786 115.959 72.1786C115.99 72.1786 116.084 72.2173 116.177 72.2689C116.365 72.372 116.756 72.5526 117.756 73.0041C119.021 73.5716 119.74 74.0101 120.24 74.5132C120.678 74.9517 120.943 75.4548 121.068 76.0739C121.146 76.4222 121.1 77.2605 120.99 77.6088C120.646 78.7052 119.865 79.5823 118.724 80.0853C118.553 80.1627 118.412 80.2143 118.396 80.2143C118.381 80.2143 118.443 80.0853 118.537 79.9305C118.912 79.2727 118.959 78.6407 118.678 77.9313C118.506 77.4927 118.146 76.9639 117.427 76.0739C116.568 75.042 116.365 74.7712 116.146 74.3971Z" fill="#FF007A"/>
<path d="M104.455 78.2539C105.556 77.4447 106.91 76.8704 108.16 76.6876C108.696 76.6093 109.589 76.6354 110.08 76.7529C110.868 76.9356 111.582 77.3272 111.954 77.8101C112.311 78.28 112.475 78.6847 112.639 79.5853C112.698 79.9377 112.773 80.3032 112.788 80.3815C112.907 80.8514 113.145 81.2168 113.442 81.4126C113.903 81.7128 114.707 81.7259 115.495 81.4648C115.629 81.4257 115.748 81.3865 115.748 81.3996C115.778 81.4257 115.376 81.6606 115.109 81.7781C114.737 81.9478 114.439 82 114.037 82C113.323 82 112.713 81.6737 112.222 81.0211C112.118 80.8905 111.91 80.512 111.731 80.1596C111.21 79.1023 110.943 78.7891 110.332 78.4367C109.797 78.1365 109.112 78.0712 108.592 78.2931C107.907 78.5802 107.729 79.3503 108.205 79.8202C108.398 80.016 108.755 80.1726 109.053 80.2118C109.603 80.2771 110.08 79.8985 110.08 79.4156C110.08 79.1023 109.946 78.9196 109.589 78.776C109.112 78.5933 108.592 78.8021 108.607 79.2068C108.607 79.3764 108.696 79.4809 108.889 79.5592C109.008 79.6114 109.008 79.6114 108.919 79.5983C108.488 79.52 108.383 79.0501 108.726 78.7499C109.142 78.3845 110.02 78.5411 110.318 79.0501C110.437 79.259 110.452 79.6767 110.347 79.9377C110.094 80.512 109.38 80.8122 108.651 80.6425C108.16 80.5251 107.952 80.4076 107.357 79.8724C106.315 78.9327 105.913 78.7499 104.426 78.5541L104.143 78.515L104.455 78.2539Z" fill="#FF007A"/>
<path fill-rule="evenodd" clip-rule="evenodd" d="M97.5108 57.5443C101.007 61.1262 106.394 66.6954 106.664 66.9992C106.889 67.2523 106.799 67.4928 106.424 67.67C106.214 67.7712 105.779 67.8725 105.569 67.8725C105.328 67.8725 105.043 67.7712 104.848 67.6067C104.713 67.4928 104.128 66.7713 102.808 65.0373C101.802 63.7083 100.947 62.6071 100.932 62.5945C100.872 62.5692 100.872 62.5692 102.703 65.3284C103.858 67.0624 104.233 67.6826 104.233 67.7586C104.233 67.9231 104.173 68.0117 103.933 68.2396C103.528 68.6193 103.348 69.0496 103.213 69.9483C103.063 70.9482 102.658 71.657 101.502 72.8594C100.827 73.5682 100.722 73.6948 100.557 73.9859C100.347 74.3403 100.287 74.5428 100.257 74.9985C100.227 75.4795 100.287 75.7832 100.452 76.2389C100.602 76.6439 100.767 76.9097 101.172 77.4287C101.517 77.8843 101.727 78.2261 101.727 78.3526C101.727 78.4539 101.757 78.4539 102.297 78.3526C103.588 78.0995 104.653 77.6691 105.238 77.1375C105.599 76.8085 105.689 76.6313 105.689 76.1756C105.689 75.8845 105.674 75.8212 105.584 75.644C105.434 75.3655 105.148 75.1377 104.533 74.7833C103.723 74.315 103.378 73.9353 103.288 73.429C103.213 72.9987 103.303 72.7075 103.753 71.9101C104.218 71.0874 104.338 70.7457 104.413 69.9103C104.458 69.3787 104.533 69.1635 104.713 68.999C104.908 68.8218 105.073 68.7585 105.539 68.7079C106.304 68.6193 106.799 68.4547 107.189 68.1383C107.534 67.8725 107.684 67.6067 107.699 67.2143L107.714 66.9232L107.519 66.746C106.814 66.0625 97.0457 57 97.0007 57C96.9857 57 97.2257 57.2405 97.5108 57.5443ZM102.117 75.5427C102.282 75.3023 102.192 74.9985 101.922 74.8466C101.667 74.7074 101.277 74.7707 101.277 74.9605C101.277 75.0111 101.307 75.0618 101.397 75.0871C101.532 75.1504 101.547 75.2137 101.442 75.3529C101.337 75.4921 101.337 75.6187 101.472 75.7073C101.682 75.8465 101.967 75.7706 102.117 75.5427Z" fill="#FF007A"/>
<path fill-rule="evenodd" clip-rule="evenodd" d="M107.738 68.6562C107.345 68.7967 106.969 69.3186 106.855 69.8405C106.789 70.1617 106.822 70.7438 106.937 70.9244C107.116 71.2054 107.28 71.2857 107.738 71.2857C108.637 71.2857 109.406 70.804 109.488 70.2219C109.57 69.7401 109.226 69.0777 108.752 68.7766C108.507 68.6161 108 68.5558 107.738 68.6562ZM108.785 69.6598C108.916 69.419 108.866 69.158 108.621 68.9774C108.18 68.6361 107.509 68.9172 107.509 69.439C107.509 69.7 107.852 69.981 108.18 69.981C108.392 69.981 108.687 69.8204 108.785 69.6598Z" fill="#FF007A"/>
<rect x="140" width="86" height="22" rx="5" fill="#19233C"/>
<rect x="140.5" y="0.5" width="85" height="21" rx="4.5" stroke="#46956A" stroke-opacity="0.1"/>
<path d="M149.68 15.12C148.84 15.12 148.112 14.944 147.496 14.592C146.88 14.232 146.408 13.744 146.08 13.128C145.752 12.504 145.588 11.792 145.588 10.992C145.588 10.192 145.752 9.484 146.08 8.868C146.408 8.244 146.88 7.756 147.496 7.404C148.112 7.044 148.84 6.864 149.68 6.864C150.528 6.864 151.256 7.044 151.864 7.404C152.472 7.756 152.944 8.244 153.28 8.868C153.616 9.484 153.784 10.192 153.784 10.992C153.784 11.792 153.616 12.504 153.28 13.128C152.944 13.744 152.472 14.232 151.864 14.592C151.256 14.944 150.528 15.12 149.68 15.12ZM149.68 14.052C150.272 14.052 150.78 13.928 151.204 13.68C151.636 13.424 151.968 13.064 152.2 12.6C152.432 12.136 152.548 11.6 152.548 10.992C152.548 10.384 152.432 9.848 152.2 9.384C151.968 8.92 151.636 8.56 151.204 8.304C150.78 8.048 150.272 7.92 149.68 7.92C149.096 7.92 148.588 8.048 148.156 8.304C147.732 8.56 147.4 8.92 147.16 9.384C146.928 9.848 146.812 10.384 146.812 10.992C146.812 11.6 146.928 12.136 147.16 12.6C147.4 13.064 147.732 13.424 148.156 13.68C148.588 13.928 149.096 14.052 149.68 14.052ZM155.263 17.184V9.36H156.355V10.248C156.531 9.944 156.791 9.7 157.135 9.516C157.479 9.332 157.883 9.24 158.347 9.24C158.867 9.24 159.331 9.36 159.739 9.6C160.147 9.832 160.467 10.168 160.699 10.608C160.931 11.048 161.047 11.572 161.047 12.18C161.047 12.78 160.931 13.3 160.699 13.74C160.467 14.18 160.147 14.52 159.739 14.76C159.331 15 158.867 15.12 158.347 15.12C157.899 15.12 157.507 15.036 157.171 14.868C156.835 14.692 156.575 14.46 156.391 14.172V17.184H155.263ZM158.119 14.124C158.463 14.124 158.767 14.048 159.031 13.896C159.295 13.736 159.503 13.512 159.655 13.224C159.807 12.928 159.883 12.58 159.883 12.18C159.883 11.78 159.807 11.436 159.655 11.148C159.511 10.852 159.303 10.624 159.031 10.464C158.767 10.304 158.463 10.224 158.119 10.224C157.775 10.224 157.467 10.304 157.195 10.464C156.931 10.624 156.723 10.852 156.571 11.148C156.427 11.436 156.355 11.78 156.355 12.18C156.355 12.58 156.427 12.928 156.571 13.224C156.723 13.512 156.931 13.736 157.195 13.896C157.467 14.048 157.775 14.124 158.119 14.124ZM165.229 15.12C164.661 15.12 164.149 15.008 163.693 14.784C163.245 14.552 162.889 14.22 162.625 13.788C162.361 13.348 162.229 12.812 162.229 12.18C162.229 11.58 162.353 11.06 162.601 10.62C162.857 10.18 163.197 9.84 163.621 9.6C164.053 9.36 164.533 9.24 165.061 9.24C165.621 9.24 166.101 9.348 166.501 9.564C166.909 9.772 167.225 10.06 167.449 10.428C167.673 10.796 167.785 11.212 167.785 11.676C167.785 11.812 167.765 11.96 167.725 12.12C167.693 12.28 167.645 12.408 167.581 12.504H163.381C163.421 12.856 163.525 13.156 163.693 13.404C163.861 13.652 164.085 13.84 164.365 13.968C164.645 14.088 164.969 14.148 165.337 14.148C165.705 14.148 166.029 14.092 166.309 13.98C166.597 13.868 166.873 13.708 167.137 13.5L167.545 14.34C167.233 14.596 166.881 14.792 166.489 14.928C166.105 15.056 165.685 15.12 165.229 15.12ZM163.381 11.628H166.609C166.617 11.612 166.621 11.596 166.621 11.58C166.621 11.556 166.621 11.532 166.621 11.508C166.621 11.244 166.565 11.016 166.453 10.824C166.341 10.624 166.173 10.468 165.949 10.356C165.725 10.244 165.441 10.188 165.097 10.188C164.825 10.188 164.569 10.248 164.329 10.368C164.097 10.48 163.897 10.644 163.729 10.86C163.569 11.068 163.453 11.324 163.381 11.628ZM169.255 15V9.36H170.347V10.2C170.515 9.904 170.755 9.672 171.067 9.504C171.387 9.328 171.775 9.24 172.231 9.24C172.879 9.24 173.387 9.424 173.755 9.792C174.123 10.16 174.307 10.736 174.307 11.52V15H173.167V11.664C173.167 11.16 173.063 10.796 172.855 10.572C172.655 10.34 172.347 10.224 171.931 10.224C171.443 10.224 171.063 10.392 170.791 10.728C170.519 11.064 170.383 11.524 170.383 12.108V15H169.255ZM179.042 15V6.984H180.242V13.932H183.998V15H179.042ZM187.821 15.12C187.245 15.12 186.733 15 186.285 14.76C185.837 14.512 185.489 14.168 185.241 13.728C184.993 13.288 184.869 12.772 184.869 12.18C184.869 11.588 184.993 11.072 185.241 10.632C185.489 10.192 185.837 9.852 186.285 9.612C186.733 9.364 187.245 9.24 187.821 9.24C188.405 9.24 188.917 9.364 189.357 9.612C189.805 9.852 190.153 10.192 190.401 10.632C190.657 11.072 190.785 11.588 190.785 12.18C190.785 12.772 190.657 13.288 190.401 13.728C190.153 14.168 189.805 14.512 189.357 14.76C188.917 15 188.405 15.12 187.821 15.12ZM187.821 14.124C188.181 14.124 188.497 14.048 188.769 13.896C189.041 13.736 189.249 13.512 189.393 13.224C189.545 12.928 189.621 12.58 189.621 12.18C189.621 11.78 189.545 11.436 189.393 11.148C189.249 10.852 189.041 10.624 188.769 10.464C188.497 10.304 188.181 10.224 187.821 10.224C187.461 10.224 187.145 10.304 186.873 10.464C186.609 10.624 186.401 10.852 186.249 11.148C186.097 11.436 186.021 11.78 186.021 12.18C186.021 12.58 186.097 12.928 186.249 13.224C186.401 13.512 186.609 13.736 186.873 13.896C187.145 14.048 187.461 14.124 187.821 14.124ZM192.259 15V9.36H193.351V10.2C193.519 9.904 193.759 9.672 194.071 9.504C194.391 9.328 194.779 9.24 195.235 9.24C195.883 9.24 196.391 9.424 196.759 9.792C197.127 10.16 197.311 10.736 197.311 11.52V15H196.171V11.664C196.171 11.16 196.067 10.796 195.859 10.572C195.659 10.34 195.351 10.224 194.935 10.224C194.447 10.224 194.067 10.392 193.795 10.728C193.523 11.064 193.387 11.524 193.387 12.108V15H192.259ZM201.563 17.304C201.099 17.304 200.659 17.232 200.243 17.088C199.835 16.944 199.447 16.712 199.079 16.392L199.487 15.552C199.847 15.84 200.191 16.04 200.519 16.152C200.855 16.264 201.183 16.32 201.503 16.32C202.111 16.32 202.587 16.156 202.931 15.828C203.275 15.5 203.447 15.016 203.447 14.376V13.872C203.263 14.128 203.003 14.34 202.667 14.508C202.339 14.676 201.947 14.76 201.491 14.76C201.011 14.76 200.563 14.652 200.147 14.436C199.739 14.22 199.411 13.908 199.163 13.5C198.915 13.084 198.791 12.584 198.791 12C198.791 11.408 198.915 10.908 199.163 10.5C199.411 10.092 199.739 9.78 200.147 9.564C200.563 9.348 201.011 9.24 201.491 9.24C201.971 9.24 202.379 9.332 202.715 9.516C203.059 9.7 203.319 9.928 203.495 10.2V9.36H204.587V14.208C204.587 14.864 204.463 15.424 204.215 15.888C203.975 16.352 203.631 16.704 203.183 16.944C202.735 17.184 202.195 17.304 201.563 17.304ZM201.731 13.788C202.051 13.788 202.343 13.72 202.607 13.584C202.871 13.448 203.083 13.248 203.243 12.984C203.403 12.712 203.483 12.384 203.483 12C203.483 11.608 203.403 11.28 203.243 11.016C203.083 10.752 202.871 10.552 202.607 10.416C202.343 10.28 202.051 10.212 201.731 10.212C201.411 10.212 201.115 10.28 200.843 10.416C200.579 10.552 200.363 10.752 200.195 11.016C200.035 11.28 199.955 11.608 199.955 12C199.955 12.384 200.035 12.712 200.195 12.984C200.363 13.248 200.579 13.448 200.843 13.584C201.115 13.72 201.411 13.788 201.731 13.788Z" fill="#46956A"/>
<path d="M211.611 14.1111C211.396 14.3259 211.396 14.6741 211.611 14.8889C211.826 15.1037 212.174 15.1037 212.389 14.8889L211.611 14.1111ZM219.621 7.42893C219.621 7.12518 219.375 6.87893 219.071 6.87893L214.121 6.87893C213.817 6.87893 213.571 7.12518 213.571 7.42893C213.571 7.73269 213.817 7.97893 214.121 7.97893L218.521 7.97893L218.521 12.3789C218.521 12.6827 218.767 12.9289 219.071 12.9289C219.375 12.9289 219.621 12.6827 219.621 12.3789L219.621 7.42893ZM212.389 14.8889L219.46 7.81784L218.682 7.04002L211.611 14.1111L212.389 14.8889Z" fill="#46956A"/>
<rect y="109" width="89" height="22" rx="5" fill="#261D39"/>
<rect x="0.5" y="109.5" width="88" height="21" rx="4.5" stroke="#C75E4B" stroke-opacity="0.1"/>
<path d="M9.68 124.12C8.84 124.12 8.112 123.944 7.496 123.592C6.88 123.232 6.408 122.744 6.08 122.128C5.752 121.504 5.588 120.792 5.588 119.992C5.588 119.192 5.752 118.484 6.08 117.868C6.408 117.244 6.88 116.756 7.496 116.404C8.112 116.044 8.84 115.864 9.68 115.864C10.528 115.864 11.256 116.044 11.864 116.404C12.472 116.756 12.944 117.244 13.28 117.868C13.616 118.484 13.784 119.192 13.784 119.992C13.784 120.792 13.616 121.504 13.28 122.128C12.944 122.744 12.472 123.232 11.864 123.592C11.256 123.944 10.528 124.12 9.68 124.12ZM9.68 123.052C10.272 123.052 10.78 122.928 11.204 122.68C11.636 122.424 11.968 122.064 12.2 121.6C12.432 121.136 12.548 120.6 12.548 119.992C12.548 119.384 12.432 118.848 12.2 118.384C11.968 117.92 11.636 117.56 11.204 117.304C10.78 117.048 10.272 116.92 9.68 116.92C9.096 116.92 8.588 117.048 8.156 117.304C7.732 117.56 7.4 117.92 7.16 118.384C6.928 118.848 6.812 119.384 6.812 119.992C6.812 120.6 6.928 121.136 7.16 121.6C7.4 122.064 7.732 122.424 8.156 122.68C8.588 122.928 9.096 123.052 9.68 123.052ZM15.2633 126.184V118.36H16.3553V119.248C16.5313 118.944 16.7913 118.7 17.1353 118.516C17.4793 118.332 17.8833 118.24 18.3473 118.24C18.8673 118.24 19.3313 118.36 19.7393 118.6C20.1473 118.832 20.4673 119.168 20.6993 119.608C20.9313 120.048 21.0473 120.572 21.0473 121.18C21.0473 121.78 20.9313 122.3 20.6993 122.74C20.4673 123.18 20.1473 123.52 19.7393 123.76C19.3313 124 18.8673 124.12 18.3473 124.12C17.8993 124.12 17.5073 124.036 17.1713 123.868C16.8353 123.692 16.5753 123.46 16.3913 123.172V126.184H15.2633ZM18.1193 123.124C18.4633 123.124 18.7673 123.048 19.0313 122.896C19.2953 122.736 19.5033 122.512 19.6553 122.224C19.8073 121.928 19.8833 121.58 19.8833 121.18C19.8833 120.78 19.8073 120.436 19.6553 120.148C19.5113 119.852 19.3033 119.624 19.0313 119.464C18.7673 119.304 18.4633 119.224 18.1193 119.224C17.7753 119.224 17.4673 119.304 17.1953 119.464C16.9313 119.624 16.7233 119.852 16.5713 120.148C16.4273 120.436 16.3553 120.78 16.3553 121.18C16.3553 121.58 16.4273 121.928 16.5713 122.224C16.7233 122.512 16.9313 122.736 17.1953 122.896C17.4673 123.048 17.7753 123.124 18.1193 123.124ZM25.2286 124.12C24.6606 124.12 24.1486 124.008 23.6926 123.784C23.2446 123.552 22.8886 123.22 22.6246 122.788C22.3606 122.348 22.2286 121.812 22.2286 121.18C22.2286 120.58 22.3526 120.06 22.6006 119.62C22.8566 119.18 23.1966 118.84 23.6206 118.6C24.0526 118.36 24.5326 118.24 25.0606 118.24C25.6206 118.24 26.1006 118.348 26.5006 118.564C26.9086 118.772 27.2246 119.06 27.4486 119.428C27.6726 119.796 27.7846 120.212 27.7846 120.676C27.7846 120.812 27.7646 120.96 27.7246 121.12C27.6926 121.28 27.6446 121.408 27.5806 121.504H23.3806C23.4206 121.856 23.5246 122.156 23.6926 122.404C23.8606 122.652 24.0846 122.84 24.3646 122.968C24.6446 123.088 24.9686 123.148 25.3366 123.148C25.7046 123.148 26.0286 123.092 26.3086 122.98C26.5966 122.868 26.8726 122.708 27.1366 122.5L27.5446 123.34C27.2326 123.596 26.8806 123.792 26.4886 123.928C26.1046 124.056 25.6846 124.12 25.2286 124.12ZM23.3806 120.628H26.6086C26.6166 120.612 26.6206 120.596 26.6206 120.58C26.6206 120.556 26.6206 120.532 26.6206 120.508C26.6206 120.244 26.5646 120.016 26.4526 119.824C26.3406 119.624 26.1726 119.468 25.9486 119.356C25.7246 119.244 25.4406 119.188 25.0966 119.188C24.8246 119.188 24.5686 119.248 24.3286 119.368C24.0966 119.48 23.8966 119.644 23.7286 119.86C23.5686 120.068 23.4526 120.324 23.3806 120.628ZM29.2555 124V118.36H30.3475V119.2C30.5155 118.904 30.7555 118.672 31.0675 118.504C31.3875 118.328 31.7755 118.24 32.2315 118.24C32.8795 118.24 33.3875 118.424 33.7555 118.792C34.1235 119.16 34.3075 119.736 34.3075 120.52V124H33.1675V120.664C33.1675 120.16 33.0635 119.796 32.8555 119.572C32.6555 119.34 32.3475 119.224 31.9315 119.224C31.4435 119.224 31.0635 119.392 30.7915 119.728C30.5195 120.064 30.3835 120.524 30.3835 121.108V124H29.2555ZM41.5738 124.12C41.0138 124.12 40.5018 124.036 40.0378 123.868C39.5818 123.7 39.1298 123.424 38.6818 123.04L39.1618 122.092C39.5938 122.436 40.0018 122.688 40.3858 122.848C40.7778 123 41.1738 123.076 41.5738 123.076C42.1578 123.076 42.6058 122.96 42.9178 122.728C43.2298 122.488 43.3858 122.156 43.3858 121.732C43.3858 121.436 43.2898 121.188 43.0978 120.988C42.9058 120.788 42.6258 120.652 42.2578 120.58L40.9378 120.328C40.2258 120.192 39.7098 119.948 39.3898 119.596C39.0778 119.244 38.9218 118.816 38.9218 118.312C38.9218 117.864 39.0218 117.456 39.2218 117.088C39.4218 116.72 39.7298 116.424 40.1458 116.2C40.5618 115.976 41.0858 115.864 41.7178 115.864C42.1898 115.864 42.6458 115.932 43.0858 116.068C43.5338 116.204 43.9658 116.44 44.3818 116.776L43.8898 117.712C43.5378 117.464 43.1898 117.268 42.8458 117.124C42.5018 116.98 42.1338 116.908 41.7418 116.908C41.2138 116.908 40.8138 117.02 40.5418 117.244C40.2778 117.468 40.1458 117.772 40.1458 118.156C40.1458 118.452 40.2418 118.684 40.4338 118.852C40.6258 119.02 40.9098 119.14 41.2858 119.212L42.5938 119.464C43.2978 119.592 43.8098 119.86 44.1298 120.268C44.4578 120.668 44.6218 121.116 44.6218 121.612C44.6218 122.364 44.3578 122.972 43.8298 123.436C43.3098 123.892 42.5578 124.12 41.5738 124.12ZM46.0953 124V115.984H47.2233V119.128C47.3993 118.848 47.6393 118.632 47.9433 118.48C48.2553 118.32 48.6313 118.24 49.0713 118.24C49.7193 118.24 50.2273 118.424 50.5953 118.792C50.9633 119.16 51.1473 119.736 51.1473 120.52V124H50.0073V120.664C50.0073 120.16 49.9033 119.796 49.6953 119.572C49.4953 119.34 49.1873 119.224 48.7713 119.224C48.2833 119.224 47.9033 119.392 47.6313 119.728C47.3593 120.064 47.2233 120.524 47.2233 121.108V124H46.0953ZM55.5791 124.12C55.0031 124.12 54.4911 124 54.0431 123.76C53.5951 123.512 53.2471 123.168 52.9991 122.728C52.7511 122.288 52.6271 121.772 52.6271 121.18C52.6271 120.588 52.7511 120.072 52.9991 119.632C53.2471 119.192 53.5951 118.852 54.0431 118.612C54.4911 118.364 55.0031 118.24 55.5791 118.24C56.1631 118.24 56.6751 118.364 57.1151 118.612C57.5631 118.852 57.9111 119.192 58.1591 119.632C58.4151 120.072 58.5431 120.588 58.5431 121.18C58.5431 121.772 58.4151 122.288 58.1591 122.728C57.9111 123.168 57.5631 123.512 57.1151 123.76C56.6751 124 56.1631 124.12 55.5791 124.12ZM55.5791 123.124C55.9391 123.124 56.2551 123.048 56.5271 122.896C56.7991 122.736 57.0071 122.512 57.1511 122.224C57.3031 121.928 57.3791 121.58 57.3791 121.18C57.3791 120.78 57.3031 120.436 57.1511 120.148C57.0071 119.852 56.7991 119.624 56.5271 119.464C56.2551 119.304 55.9391 119.224 55.5791 119.224C55.2191 119.224 54.9031 119.304 54.6311 119.464C54.3671 119.624 54.1591 119.852 54.0071 120.148C53.8551 120.436 53.7791 120.78 53.7791 121.18C53.7791 121.58 53.8551 121.928 54.0071 122.224C54.1591 122.512 54.3671 122.736 54.6311 122.896C54.9031 123.048 55.2191 123.124 55.5791 123.124ZM60.0172 124V118.36H61.1092V119.344C61.2532 118.992 61.4612 118.728 61.7332 118.552C62.0132 118.376 62.3252 118.288 62.6692 118.288C62.7812 118.288 62.8812 118.296 62.9692 118.312C63.0652 118.32 63.1412 118.336 63.1972 118.36V119.428C63.0852 119.404 62.9732 119.388 62.8612 119.38C62.7572 119.364 62.6532 119.356 62.5492 119.356C62.1492 119.356 61.8132 119.524 61.5412 119.86C61.2772 120.188 61.1452 120.66 61.1452 121.276V124H60.0172ZM66.846 124.072C66.254 124.072 65.814 123.936 65.526 123.664C65.246 123.384 65.106 122.952 65.106 122.368V119.32H63.87V118.36H65.106V116.752H66.234V118.36H67.698V119.32H66.234V122.272C66.234 122.552 66.302 122.76 66.438 122.896C66.574 123.032 66.786 123.1 67.074 123.1C67.17 123.1 67.278 123.096 67.398 123.088C67.526 123.08 67.626 123.068 67.698 123.052V123.964C67.602 123.996 67.474 124.02 67.314 124.036C67.154 124.06 66.998 124.072 66.846 124.072Z" fill="#C75E4B"/>
<path d="M75.3889 115.54C75.1741 115.325 74.8259 115.325 74.6111 115.54C74.3963 115.755 74.3963 116.103 74.6111 116.318L75.3889 115.54ZM82.0711 123.55C82.3748 123.55 82.6211 123.304 82.6211 123L82.6211 118.05C82.6211 117.746 82.3748 117.5 82.0711 117.5C81.7673 117.5 81.5211 117.746 81.5211 118.05L81.5211 122.45L77.1211 122.45C76.8173 122.45 76.5711 122.696 76.5711 123C76.5711 123.304 76.8173 123.55 77.1211 123.55L82.0711 123.55ZM74.6111 116.318L81.6822 123.389L82.46 122.611L75.3889 115.54L74.6111 116.318Z" fill="#C75E4B"/>
<rect x="114" y="45" width="26" height="17" rx="8.5" fill="#6988FF"/>
<rect x="114.5" y="45.5" width="25" height="16" rx="8" stroke="#46956A" stroke-opacity="0.1"/>
<path d="M121.12 57V51.4L119.68 52.19L119.29 51.42L121.38 50.32H122.12V57H121.12ZM126.116 57.1C125.53 57.1 125.033 56.9533 124.626 56.66C124.22 56.36 123.913 55.9533 123.706 55.44C123.5 54.92 123.396 54.3267 123.396 53.66C123.396 52.9933 123.5 52.4033 123.706 51.89C123.913 51.37 124.22 50.9633 124.626 50.67C125.033 50.37 125.53 50.22 126.116 50.22C126.71 50.22 127.206 50.37 127.606 50.67C128.013 50.9633 128.32 51.37 128.526 51.89C128.74 52.4033 128.846 52.9933 128.846 53.66C128.846 54.3267 128.74 54.92 128.526 55.44C128.32 55.9533 128.013 56.36 127.606 56.66C127.206 56.9533 126.71 57.1 126.116 57.1ZM126.116 56.27C126.45 56.27 126.743 56.1767 126.996 55.99C127.256 55.7967 127.456 55.5067 127.596 55.12C127.743 54.7333 127.816 54.2467 127.816 53.66C127.816 53.0667 127.743 52.5767 127.596 52.19C127.456 51.8033 127.256 51.5167 126.996 51.33C126.743 51.1367 126.45 51.04 126.116 51.04C125.79 51.04 125.496 51.1367 125.236 51.33C124.983 51.5233 124.783 51.8133 124.636 52.2C124.49 52.58 124.416 53.0667 124.416 53.66C124.416 54.2467 124.49 54.7333 124.636 55.12C124.783 55.5067 124.983 55.7967 125.236 55.99C125.496 56.1767 125.79 56.27 126.116 56.27ZM129.572 57L131.372 54.57L129.672 52.3H130.762L131.972 53.99L133.192 52.3H134.282L132.582 54.57L134.382 57H133.292L131.972 55.21L130.662 57H129.572Z" fill="white"/>
</svg>
