<svg width="9" height="9" viewBox="0 0 9 9" fill="none" xmlns="http://www.w3.org/2000/svg">
<path d="M0.575736 7.73247C0.341421 7.96679 0.341421 8.34669 0.575736 8.581C0.81005 8.81532 1.18995 8.81532 1.42426 8.581L0.575736 7.73247ZM8.67107 1.08567C8.67107 0.7543 8.40244 0.48567 8.07107 0.485671L2.67107 0.48567C2.3397 0.485671 2.07107 0.7543 2.07107 1.08567C2.07107 1.41704 2.3397 1.68567 2.67107 1.68567L7.47107 1.68567L7.47107 6.48567C7.47107 6.81704 7.7397 7.08567 8.07107 7.08567C8.40244 7.08567 8.67107 6.81704 8.67107 6.48567L8.67107 1.08567ZM1.42426 8.581L8.49533 1.50993L7.6468 0.661407L0.575736 7.73247L1.42426 8.581Z" fill="#6988FF"/>
</svg>
