<svg width="25" height="25" viewBox="0 0 25 25" fill="none" xmlns="http://www.w3.org/2000/svg">
<circle cx="12.5" cy="12.5" r="12.5" fill="#6988FF"/>
<path d="M8.5772 15.7325C8.34289 15.9668 8.34289 16.3467 8.5772 16.581C8.81152 16.8153 9.19141 16.8153 9.42573 16.581L8.5772 15.7325ZM16.6725 9.08567C16.6725 8.7543 16.4039 8.48567 16.0725 8.48567L10.6725 8.48567C10.3412 8.48567 10.0725 8.7543 10.0725 9.08567C10.0725 9.41704 10.3412 9.68567 10.6725 9.68567L15.4725 9.68567L15.4725 14.4857C15.4725 14.817 15.7412 15.0857 16.0725 15.0857C16.4039 15.0857 16.6725 14.817 16.6725 14.4857L16.6725 9.08567ZM9.42573 16.581L16.4968 9.50993L15.6483 8.66141L8.5772 15.7325L9.42573 16.581Z" fill="white"/>
</svg>
