<svg width="50" height="50" viewBox="0 0 50 50" fill="none" xmlns="http://www.w3.org/2000/svg">
<circle cx="25" cy="25" r="24.5" fill="#20224E" stroke="url(#paint0_linear_795_6949)"/>
<g clip-path="url(#clip0_795_6949)">
<path fill-rule="evenodd" clip-rule="evenodd" d="M25 13.0001C31.6275 13.0001 37 18.3725 37 25.0001C37 31.6271 31.6275 37.0001 25 37.0001C18.3725 37.0001 13 31.6271 13 25.0001C13 18.3725 18.3725 13.0001 25 13.0001Z" fill="#2775CA"/>
<path fill-rule="evenodd" clip-rule="evenodd" d="M22.7505 33.3433C22.7505 33.6255 22.5295 33.7859 22.2565 33.7007C18.6283 32.5432 15.9977 29.1411 15.9977 25.1268C15.9977 21.1127 18.6283 17.7104 22.2565 16.5529C22.5295 16.4683 22.7505 16.6281 22.7505 16.9104V17.6072C22.7505 17.7951 22.6049 18.0163 22.4259 18.0775C19.5553 19.1316 17.4989 21.8893 17.4989 25.122C17.4989 28.3548 19.5553 31.113 22.4259 32.1666C22.6049 32.2326 22.7505 32.4489 22.7505 32.6374V33.3433Z" fill="white"/>
<path fill-rule="evenodd" clip-rule="evenodd" d="M25.7482 30.7502C25.7482 30.9575 25.5788 31.1269 25.3718 31.1269H24.6235C24.4165 31.1269 24.2471 30.9575 24.2471 30.7502V29.5646C22.6094 29.3435 21.8096 28.4256 21.5931 27.1787C21.5553 26.9667 21.7247 26.7739 21.9412 26.7739H22.7977C22.9765 26.7739 23.1272 26.9011 23.1648 27.0796C23.3249 27.8232 23.7531 28.3926 25.0658 28.3926C26.0352 28.3926 26.7225 27.8514 26.7225 27.0424C26.7225 26.2326 26.3177 25.9269 24.8965 25.6914C22.7977 25.4091 21.8048 24.7737 21.8048 23.1267C21.8048 21.8562 22.765 20.8681 24.2519 20.6562V19.4938C24.2519 19.2867 24.4214 19.1172 24.6282 19.1172H25.3766C25.5836 19.1172 25.753 19.2867 25.753 19.4938V20.6892C26.9624 20.906 27.7294 21.5926 27.979 22.7314C28.0259 22.9482 27.8565 23.1501 27.6355 23.1501H26.8447C26.6753 23.1501 26.5342 23.0371 26.4825 22.8725C26.2707 22.1481 25.753 21.8376 24.8541 21.8376C23.8612 21.8376 23.3482 22.3175 23.3482 22.9903C23.3482 23.7009 23.6402 24.0583 25.165 24.2799C27.2258 24.5622 28.2896 25.1503 28.2896 26.906C28.2896 28.2376 27.3012 29.3153 25.753 29.5646V30.7502H25.7482Z" fill="white"/>
<path fill-rule="evenodd" clip-rule="evenodd" d="M27.7436 33.7007C27.4708 33.7859 27.2495 33.6255 27.2495 33.3433V32.647C27.2495 32.4399 27.3766 32.247 27.5742 32.1761C30.4448 31.122 32.5011 28.3644 32.5011 25.1316C32.5011 21.8988 30.4448 19.1411 27.5742 18.087C27.3954 18.021 27.2495 17.8048 27.2495 17.6162V16.9199C27.2495 16.6376 27.4708 16.473 27.7436 16.562C31.3718 17.7201 34.0024 21.1222 34.0024 25.1364C33.9979 29.141 31.3718 32.5385 27.7436 33.7007Z" fill="white"/>
</g>
<defs>
<linearGradient id="paint0_linear_795_6949" x1="-1.15922e-07" y1="-0.594059" x2="41.4722" y2="56.2245" gradientUnits="userSpaceOnUse">
<stop stop-color="#384263" stop-opacity="0.25"/>
<stop offset="1" stop-color="#384263" stop-opacity="0.15"/>
</linearGradient>
<clipPath id="clip0_795_6949">
<rect width="24" height="24" fill="white" transform="translate(13 13)"/>
</clipPath>
</defs>
</svg>
