<svg width="50" height="50" viewBox="0 0 50 50" fill="none" xmlns="http://www.w3.org/2000/svg">
<circle cx="25" cy="25" r="24.5" fill="#20224E" stroke="url(#paint0_linear_799_7087)"/>
<g clip-path="url(#clip0_799_7087)">
<circle cx="25" cy="25" r="12" fill="white"/>
<path d="M32.5694 18.0368L31.9104 18.6958C33.4828 20.4153 34.3548 22.6611 34.3548 24.9912C34.3548 27.3213 33.4828 29.5671 31.9104 31.2867L32.5694 31.9456C34.3181 30.0488 35.289 27.5634 35.289 24.9835C35.289 22.4036 34.3181 19.9182 32.5694 18.0214V18.0368Z" fill="#5A5564"/>
<path d="M18.7111 18.0939C20.4307 16.5215 22.6764 15.6495 25.0065 15.6495C27.3367 15.6495 29.5824 16.5215 31.302 18.0939L31.961 17.4349C30.0642 15.6862 27.5787 14.7153 24.9989 14.7153C22.419 14.7153 19.9335 15.6862 18.0367 17.4349L18.7111 18.0939Z" fill="#5A5564"/>
<path d="M18.0939 31.2933C16.5233 29.5741 15.6525 27.3297 15.6525 25.0011C15.6525 22.6725 16.5233 20.4281 18.0939 18.709L17.4349 18.05C15.6862 19.9468 14.7153 22.4322 14.7153 25.0121C14.7153 27.592 15.6862 30.0774 17.4349 31.9742L18.0939 31.2933Z" fill="#5A5564"/>
<path d="M31.2933 31.9017C29.5738 33.4742 27.328 34.3462 24.9979 34.3462C22.6678 34.3462 20.422 33.4742 18.7024 31.9017L18.0435 32.5607C19.9403 34.3094 22.4257 35.2803 25.0056 35.2803C27.5855 35.2803 30.0709 34.3094 31.9677 32.5607L31.2933 31.9017Z" fill="#5A5564"/>
<path d="M29.1604 22.8012C29.0286 21.4261 27.8424 20.9648 26.3422 20.8243V18.9308H25.1824V20.7891C24.877 20.7891 24.5651 20.7891 24.2554 20.7891V18.9308H23.1044V20.8374H20.7518V22.0785C20.7518 22.0785 21.6085 22.0631 21.5953 22.0785C21.7498 22.0615 21.9048 22.1051 22.0277 22.2002C22.1507 22.2953 22.2319 22.4343 22.2543 22.5881V27.8072C22.251 27.8615 22.2369 27.9145 22.2127 27.9631C22.1886 28.0118 22.1549 28.0552 22.1137 28.0906C22.0733 28.1267 22.026 28.1543 21.9747 28.1716C21.9233 28.189 21.869 28.1958 21.815 28.1916C21.8304 28.2048 20.9715 28.1916 20.9715 28.1916L20.7518 29.5777H23.0824V31.5151H24.2422V29.6062H25.1692V31.5063H26.3312V29.5909C28.2905 29.4722 29.6568 28.989 29.8282 27.1548C29.9665 25.6787 29.2724 25.0197 28.1631 24.754C28.8375 24.4223 29.2549 23.8072 29.1604 22.8012ZM27.5349 26.9264C27.5349 28.3674 25.0659 28.2026 24.2796 28.2026V25.6458C25.0659 25.648 27.5349 25.4217 27.5349 26.9264ZM26.9968 23.324C26.9968 24.6419 24.9363 24.4816 24.2818 24.4816V22.1576C24.9363 22.1576 26.9968 21.9511 26.9968 23.324Z" fill="#F7931A"/>
<path d="M24.9978 37C22.6246 36.9996 20.3048 36.2955 18.3318 34.9767C16.3587 33.658 14.821 31.7838 13.913 29.5912C13.0051 27.3986 12.7676 24.9859 13.2307 22.6584C13.6938 20.3308 14.8366 18.1928 16.5147 16.5147C18.1928 14.8366 20.3308 13.6938 22.6584 13.2307C24.9859 12.7676 27.3986 13.0051 29.5912 13.913C31.7838 14.821 33.658 16.3587 34.9767 18.3318C36.2955 20.3048 36.9996 22.6246 37 24.9978C37.0003 26.574 36.69 28.1349 36.087 29.5912C35.4839 31.0475 34.5998 32.3707 33.4853 33.4853C32.3707 34.5998 31.0475 35.4839 29.5912 36.087C28.1349 36.69 26.574 37.0003 24.9978 37ZM24.9978 13.9358C22.8114 13.9375 20.6745 14.5874 18.8574 15.8033C17.0402 17.0192 15.6243 18.7465 14.7885 20.7669C13.9528 22.7873 13.7349 25.0101 14.1622 27.1544C14.5895 29.2987 15.6428 31.2682 17.1892 32.8139C18.7356 34.3596 20.7054 35.4123 22.8499 35.8387C24.9943 36.2652 27.2171 36.0463 29.2372 35.2098C31.2572 34.3733 32.984 32.9567 34.1992 31.139C35.4143 29.3214 36.0634 27.1842 36.0643 24.9978C36.0648 23.5446 35.7789 22.1055 35.223 20.7628C34.667 19.4202 33.8518 18.2003 32.824 17.1729C31.7962 16.1455 30.576 15.3308 29.2331 14.7754C27.8902 14.2199 26.451 13.9346 24.9978 13.9358Z" fill="#282138"/>
</g>
<defs>
<linearGradient id="paint0_linear_799_7087" x1="-1.15922e-07" y1="-0.594059" x2="41.4722" y2="56.2245" gradientUnits="userSpaceOnUse">
<stop stop-color="#384263" stop-opacity="0.25"/>
<stop offset="1" stop-color="#384263" stop-opacity="0.15"/>
</linearGradient>
<clipPath id="clip0_799_7087">
<rect width="24" height="24" fill="white" transform="translate(13 13)"/>
</clipPath>
</defs>
</svg>
