<svg width="32" height="16" viewBox="0 0 32 16" fill="none" xmlns="http://www.w3.org/2000/svg">
<path opacity="0.3" d="M31 7.2927C29.2277 5.42232 27.5568 3.48019 25.184 2.31845C24.4612 1.96455 22.0678 0.641749 21.227 1.09264C18.9344 2.32208 22.4531 8.14921 22.9755 9.53112C24.3186 13.0844 23.8863 15.8592 19.2024 14.7541C14.15 13.562 8.01734 10.7087 3.87116 7.63024C2.77429 6.81583 -0.165449 5.69383 2.58282 5.69383C3.56958 5.69383 7.72334 5.60878 4.51534 5.99584C4.22949 6.03033 1 5.93969 1 6.08466C1 6.43557 2.45456 7.76172 2.67485 8.23425C3.05666 9.05324 3.50305 9.56676 3.50305 10.4904" stroke="#6988FF" stroke-linecap="round"/>
</svg>
