<svg width="15" height="11" viewBox="0 0 15 11" fill="none" xmlns="http://www.w3.org/2000/svg">
<path d="M12.6981 0.912299C11.7418 0.49066 10.7169 0.179013 9.64502 0.00180276C9.63548 1.10493e-05 9.62559 0.00116569 9.61675 0.00510703C9.6079 0.00904836 9.60053 0.0155814 9.59565 0.0238013C9.4644 0.249287 9.31816 0.543212 9.21566 0.775419C8.07888 0.609352 6.92317 0.609352 5.78638 0.775419C5.67222 0.518073 5.54348 0.267145 5.40077 0.0238013C5.39593 0.0154802 5.38861 0.00879938 5.37979 0.00465043C5.37097 0.000501484 5.36106 -0.000918326 5.3514 0.000580562C4.28018 0.177791 3.25521 0.489437 2.29836 0.911688C2.29013 0.915063 2.28315 0.920821 2.27836 0.928186C0.333416 3.72384 -0.199694 6.45044 0.0621736 9.14281C0.0629023 9.14941 0.0649957 9.15579 0.0683265 9.16157C0.0716573 9.16734 0.0761557 9.1724 0.081548 9.17642C1.21676 9.98452 2.48294 10.6001 3.82706 10.9974C3.83643 11.0002 3.84646 11.0002 3.85582 10.9974C3.86519 10.9946 3.87346 10.989 3.87956 10.9815C4.1688 10.6033 4.42511 10.2021 4.64579 9.78199C4.64885 9.77625 4.65062 9.76993 4.65097 9.76346C4.65132 9.75699 4.65024 9.75053 4.64781 9.7445C4.64538 9.73848 4.64165 9.73303 4.63688 9.72853C4.63212 9.72404 4.62641 9.7206 4.62017 9.71844C4.21643 9.56979 3.82524 9.3904 3.4502 9.18192C3.44346 9.17816 3.43778 9.17282 3.43367 9.16639C3.42957 9.15995 3.42716 9.15262 3.42666 9.14505C3.42616 9.13748 3.4276 9.1299 3.43083 9.12301C3.43407 9.11611 3.43901 9.11011 3.4452 9.10554C3.52395 9.04871 3.6027 8.98944 3.67769 8.93016C3.68444 8.92483 3.69258 8.92144 3.70118 8.92036C3.70979 8.91928 3.71853 8.92056 3.72644 8.92405C6.18075 10.002 8.8388 10.002 11.2643 8.92405C11.2723 8.92035 11.2811 8.9189 11.2898 8.91988C11.2986 8.92085 11.3068 8.9242 11.3137 8.92955C11.3887 8.98943 11.4668 9.04871 11.5462 9.10554C11.5525 9.11001 11.5575 9.11593 11.5608 9.12277C11.5642 9.12961 11.5657 9.13715 11.5653 9.14472C11.565 9.15228 11.5627 9.15964 11.5587 9.16614C11.5547 9.17263 11.5491 9.17805 11.5425 9.18192C11.1687 9.39213 10.78 9.56995 10.3719 9.71783C10.3656 9.72006 10.3599 9.72356 10.3551 9.72812C10.3504 9.73267 10.3466 9.73817 10.3442 9.74424C10.3418 9.75031 10.3407 9.75682 10.3411 9.76333C10.3414 9.76984 10.3432 9.77621 10.3463 9.78199C10.5712 10.2018 10.8287 10.6014 11.1119 10.9809C11.1177 10.9887 11.1259 10.9945 11.1353 10.9976C11.1447 11.0006 11.1549 11.0008 11.1644 10.998C12.5108 10.6018 13.779 9.98596 14.9155 9.17642C14.921 9.17263 14.9257 9.16773 14.9291 9.16204C14.9326 9.15635 14.9348 9.15 14.9355 9.14342C15.248 6.03063 14.4118 3.32603 12.7174 0.929408C12.7133 0.92162 12.7064 0.915549 12.6981 0.912299ZM5.01266 7.50331C4.27393 7.50331 3.66457 6.85008 3.66457 6.04896C3.66457 5.24724 4.26205 4.59461 5.01266 4.59461C5.76888 4.59461 6.37262 5.25274 6.36074 6.04896C6.36074 6.85069 5.76326 7.50331 5.01266 7.50331ZM9.99689 7.50331C9.25753 7.50331 8.6488 6.85008 8.6488 6.04896C8.6488 5.24724 9.24566 4.59461 9.99689 4.59461C10.7531 4.59461 11.3568 5.25274 11.345 6.04896C11.345 6.85069 10.7537 7.50331 9.99689 7.50331Z" fill="#6988FF"/>
</svg>
