<svg width="15" height="11" viewBox="0 0 15 11" fill="none" xmlns="http://www.w3.org/2000/svg">
<path d="M6.7517 8.75094C6.98602 8.75094 7.19692 8.93266 7.19692 9.18253C7.19692 9.40968 7.00946 9.61411 6.7517 9.61411C6.51737 9.61411 6.30647 9.43239 6.30647 9.18253C6.30647 8.93266 6.51737 8.75094 6.7517 8.75094ZM13.6409 6.11599C13.4066 6.11599 13.1957 5.93427 13.1957 5.68441C13.1957 5.45726 13.3831 5.25282 13.6409 5.25282C13.8752 5.25282 14.0861 5.43454 14.0861 5.68441C14.0861 5.91156 13.8752 6.11599 13.6409 6.11599ZM13.6409 4.36694C12.8911 4.36694 12.2818 4.95753 12.2818 5.68441C12.2818 5.8207 12.3052 5.95699 12.3521 6.09328L7.87646 8.41022C7.6187 8.04677 7.19692 7.84234 6.7517 7.84234C6.23618 7.84234 5.76752 8.13763 5.5332 8.56922L1.50278 6.52487C1.08099 6.29771 0.75293 5.63898 0.799795 5.00296C0.823228 4.68495 0.940391 4.43508 1.10442 4.34422C1.22158 4.27607 1.33875 4.29879 1.50278 4.36694L1.52621 4.38965C2.60411 4.93481 6.09558 6.70659 6.23618 6.77473C6.4705 6.86559 6.58767 6.91102 6.98602 6.7293L14.2033 3.09489C14.3205 3.04946 14.4376 2.9586 14.4376 2.7996C14.4376 2.59516 14.2267 2.5043 14.2267 2.5043C13.8049 2.32258 13.1723 2.02728 12.563 1.7547C11.2508 1.16411 9.75108 0.48266 9.09496 0.141934C8.53258 -0.153362 8.06393 0.0965038 7.99363 0.141934L7.8296 0.210079C4.85365 1.66384 0.916959 3.54919 0.682632 3.68548C0.284276 3.91263 0.0265166 4.38965 0.00308395 4.98024C-0.0437814 5.91156 0.448305 6.88831 1.15129 7.22903L5.41603 9.36425C5.50976 10.0003 6.09558 10.5 6.7517 10.5C7.50154 10.5 8.08736 9.93212 8.11079 9.20524L12.7973 6.75202C13.0317 6.93374 13.3363 7.0246 13.6409 7.0246C14.3908 7.0246 15 6.43401 15 5.70712C15 4.95753 14.3908 4.36694 13.6409 4.36694Z" fill="#6988FF"/>
</svg>
