<svg width="18" height="19" viewBox="0 0 18 19" fill="none" xmlns="http://www.w3.org/2000/svg">
<path d="M1 9C0.447715 9 -1.19209e-07 9.44772 -1.19209e-07 10C-1.19209e-07 10.5523 0.447715 11 1 11L1 9ZM17.7071 10.7071C18.0976 10.3166 18.0976 9.68342 17.7071 9.29289L11.3431 2.92893C10.9526 2.53841 10.3195 2.53841 9.92893 2.92893C9.53841 3.31946 9.53841 3.95262 9.92893 4.34315L15.5858 10L9.92893 15.6569C9.53841 16.0474 9.53841 16.6805 9.92893 17.0711C10.3195 17.4616 10.9526 17.4616 11.3431 17.0711L17.7071 10.7071ZM1 11L17 11V9L1 9L1 11Z" fill="white"/>
</svg>
