<svg width="45" height="84" viewBox="0 0 45 84" fill="none" xmlns="http://www.w3.org/2000/svg">
<line x1="22.5" y1="2.18557e-08" x2="22.5" y2="84" stroke="url(#paint0_linear_5571_7742)" stroke-opacity="0.7"/>
<circle cx="22.5" cy="42.5" r="21.5" fill="#20224E" stroke="#131531" stroke-width="2"/>
<path d="M31.7044 38.2955C31.6115 38.2018 31.5009 38.1275 31.3791 38.0768C31.2574 38.0261 31.1267 38 30.9948 38C30.8628 38 30.7322 38.0261 30.6104 38.0768C30.4886 38.1275 30.3781 38.2018 30.2852 38.2955L23.9988 44.5882L19.7113 40.2931C19.6184 40.1995 19.5079 40.1252 19.3861 40.0745C19.2643 40.0238 19.1337 39.9977 19.0017 39.9977C18.8698 39.9977 18.7392 40.0238 18.6174 40.0745C18.4956 40.1252 18.3851 40.1995 18.2922 40.2931L12.2956 46.2862C12.202 46.379 12.1276 46.4895 12.0769 46.6112C12.0261 46.733 12 46.8635 12 46.9954C12 47.1272 12.0261 47.2578 12.0769 47.3795C12.1276 47.5012 12.202 47.6117 12.2956 47.7045C12.3885 47.7982 12.4991 47.8725 12.6209 47.9232C12.7427 47.9739 12.8733 48 13.0052 48C13.1372 48 13.2678 47.9739 13.3896 47.9232C13.5114 47.8725 13.6219 47.7982 13.7148 47.7045L19.0017 42.4107L23.2893 46.7057C23.3822 46.7993 23.4927 46.8736 23.6145 46.9243C23.7363 46.9751 23.8669 47.0012 23.9988 47.0012C24.1308 47.0012 24.2614 46.9751 24.3832 46.9243C24.505 46.8736 24.6155 46.7993 24.7084 46.7057L31.7044 39.7138C31.798 39.621 31.8724 39.5105 31.9231 39.3888C31.9739 39.267 32 39.1365 32 39.0046C32 38.8728 31.9739 38.7422 31.9231 38.6205C31.8724 38.4988 31.798 38.3883 31.7044 38.2955Z" fill="#6988FF"/>
<defs>
<linearGradient id="paint0_linear_5571_7742" x1="22.0119" y1="-1.94229e-07" x2="20.2702" y2="0.0151336" gradientUnits="userSpaceOnUse">
<stop stop-color="#384263" stop-opacity="0.25"/>
<stop offset="1" stop-color="#384263" stop-opacity="0.15"/>
</linearGradient>
</defs>
</svg>
