<svg width="270" height="155" viewBox="0 0 270 155" fill="none" xmlns="http://www.w3.org/2000/svg">
<path opacity="0.7" fill-rule="evenodd" clip-rule="evenodd" d="M264.413 37.1864C268.414 28.8211 269.043 21.704 266.394 16.1062C263.744 10.5084 257.817 6.43569 248.766 4.13201C239.732 1.83291 227.889 1.3858 213.992 2.80304C186.217 5.63547 150.694 15.8658 114.057 32.8791C103.81 37.6374 94.0309 42.6687 84.8226 47.871C84.6737 47.1991 84.4348 46.5611 84.119 45.9703C93.2917 40.7984 103.019 35.7994 113.201 31.0714C186.769 -3.09177 256.168 -10.169 268.208 15.2639C276.749 33.3083 254.123 62.8696 213.981 90.7235C213.641 90.1419 213.226 89.6102 212.748 89.1419C224.553 80.9561 234.821 72.6313 243.203 64.5125C253.192 54.8379 260.419 45.535 264.413 37.1864ZM71.2093 53.5855C21.759 84.1106 -7.77469 118.769 1.79248 138.98C13.8318 164.413 83.2306 157.335 156.799 123.172C172.975 115.661 188.005 107.465 201.484 98.9793C201.086 98.4453 200.757 97.8565 200.511 97.2263C187.086 105.685 172.096 113.864 155.943 121.365C119.306 138.378 83.7828 148.608 56.0084 151.441C42.1112 152.858 30.2683 152.411 21.2345 150.112C12.1826 147.808 6.25628 143.735 3.60643 138.137C0.956584 132.54 1.58591 125.423 5.58739 117.057C9.58088 108.709 16.8084 99.4058 26.7968 89.7312C38.6179 78.2815 54.1903 66.4222 72.5337 55.1205C72.0263 54.6718 71.5801 54.1554 71.2093 53.5855Z" fill="url(#paint0_linear_5486_7686)"/>
<defs>
<linearGradient id="paint0_linear_5486_7686" x1="-6.25977e-07" y1="-1.8326" x2="95.4319" y2="227.034" gradientUnits="userSpaceOnUse">
<stop stop-color="#384263" stop-opacity="0.25"/>
<stop offset="1" stop-color="#384263" stop-opacity="0.15"/>
</linearGradient>
</defs>
</svg>
