<?xml version="1.0" standalone="no"?>
<!DOCTYPE svg PUBLIC "-//W3C//DTD SVG 20010904//EN"
 "http://www.w3.org/TR/2001/REC-SVG-20010904/DTD/svg10.dtd">
<svg version="1.0" xmlns="http://www.w3.org/2000/svg"
 width="700.000000pt" height="700.000000pt" viewBox="0 0 700.000000 700.000000"
 preserveAspectRatio="xMidYMid meet">
<metadata>
Created by potrace 1.14, written by Peter Selinger 2001-2017
</metadata>
<g transform="translate(0.000000,700.000000) scale(0.100000,-0.100000)"
fill="#000000" stroke="none">
<path d="M0 3500 l0 -3500 3500 0 3500 0 0 3500 0 3500 -3500 0 -3500 0 0
-3500z m3557 2157 c15 -15 94 -220 232 -602 115 -319 211 -584 213 -590 2 -5
-2 -12 -7 -14 -6 -2 -90 130 -188 295 -212 358 -209 354 -245 354 -65 0 -57
54 -136 -888 -48 -566 -77 -867 -85 -875 -9 -9 -16 -9 -32 1 -12 8 -180 146
-374 308 -379 316 -387 321 -432 272 -19 -21 -206 -341 -453 -773 -183 -320
-212 -367 -221 -358 -8 8 536 1342 658 1615 27 61 59 82 100 67 12 -4 117
-115 233 -246 117 -131 221 -241 231 -245 11 -4 26 0 39 10 18 15 38 116 160
825 90 523 145 818 155 834 9 13 26 28 38 33 32 14 89 2 114 -23z m230 -1395
c7 -4 148 -212 313 -462 l300 -455 0 -999 c0 -916 -1 -1001 -17 -1018 -15 -17
-40 -18 -359 -18 l-344 0 -14 23 c-14 20 -13 183 9 1462 23 1302 27 1440 42
1457 17 19 49 23 70 10z m-847 -1058 c184 -157 352 -302 373 -322 l37 -36 0
-750 c0 -683 -1 -751 -17 -768 -15 -17 -41 -18 -391 -18 -335 0 -377 2 -394
17 -17 15 -18 62 -18 1070 0 1040 0 1053 20 1073 11 11 28 20 38 20 10 0 169
-129 352 -286z m2274 -1095 c251 -407 456 -749 456 -758 0 -40 -6 -41 -492
-41 -455 0 -469 1 -488 20 -20 20 -20 33 -20 752 0 667 1 733 17 750 9 10 29
18 44 18 26 0 57 -47 483 -741z m-2974 693 l22 -18 -26 -675 c-14 -371 -26
-691 -26 -712 0 -27 -7 -45 -25 -62 l-24 -25 -404 0 c-418 0 -427 1 -427 41 0
24 815 1429 841 1452 27 22 41 22 69 -1z"/>
</g>
</svg>
