<svg width="25" height="25" fill="none" xmlns="http://www.w3.org/2000/svg"><circle cx="12.5" cy="12.5" r="12" fill="#20224E" stroke="url(#paint0_linear_1035_7120)"/><path fill-rule="evenodd" clip-rule="evenodd" d="M7 12.845c.153.22.443.435 1.234.434h7.697c.298 0 .635.2.753.45l1.276 2.72c.117.249-.03.451-.329.451H9.744c-.47-.027-.905-.138-1.107-.567L7 12.846zm6.618-5.624l1.291 2.753c.117.25.044.611-.164.807l-1.872 1.795H8.618c-.674.008-1.073-.226-.5-.797l4.913-4.656c.207-.196.47-.153.587.098z" fill="url(#paint1_linear_1035_7120)"/><defs><linearGradient id="paint0_linear_1035_7120" x1="0" y1="-.297" x2="20.736" y2="28.112" gradientUnits="userSpaceOnUse"><stop stop-color="#384263" stop-opacity=".25"/><stop offset="1" stop-color="#384263" stop-opacity=".15"/></linearGradient><linearGradient id="paint1_linear_1035_7120" x1="17.354" y1="9.059" x2="10.203" y2="19.096" gradientUnits="userSpaceOnUse"><stop stop-color="#63E1D6"/><stop offset="1" stop-color="#17B89B"/></linearGradient></defs></svg>