<svg width="381" height="118" viewBox="0 0 381 118" fill="none" xmlns="http://www.w3.org/2000/svg">
<path opacity="0.05" d="M210.219 16L163 60H311V16H210.219Z" fill="#46956A"/>
<path opacity="0.05" d="M108 61V109L161.5 61H108Z" fill="#C75E4B"/>
<line x1="33.5" y1="3" x2="33.5" y2="118" stroke="#20224E"/>
<line x1="29" y1="109.5" x2="38" y2="109.5" stroke="#20224E"/>
<line x1="29" y1="15.5" x2="38" y2="15.5" stroke="#20224E"/>
<line x1="381" y1="60.5" x2="33" y2="60.5" stroke="#20224E"/>
<path d="M0.727621 109.768V109.084H3.16662V109.768H0.727621ZM5.0941 112.9L5.3011 111.982C5.0791 111.916 4.8631 111.826 4.6531 111.712C4.4491 111.598 4.2451 111.454 4.0411 111.28L4.4011 110.569C4.5931 110.725 4.7791 110.854 4.9591 110.956C5.1391 111.052 5.3161 111.13 5.4901 111.19L5.9221 109.282L5.7331 109.246C5.1991 109.144 4.8121 108.961 4.5721 108.697C4.3381 108.433 4.2211 108.112 4.2211 107.734C4.2211 107.398 4.2961 107.092 4.4461 106.816C4.5961 106.54 4.8271 106.318 5.1391 106.15C5.4511 105.982 5.8441 105.898 6.3181 105.898C6.3841 105.898 6.4471 105.901 6.5071 105.907C6.5731 105.907 6.6391 105.91 6.7051 105.916L6.8941 105.088H7.4341L7.2181 106.015C7.4101 106.063 7.5961 106.135 7.7761 106.231C7.9621 106.327 8.1421 106.444 8.3161 106.582L7.9471 107.284C7.7911 107.176 7.6381 107.083 7.4881 107.005C7.3441 106.921 7.1941 106.852 7.0381 106.798L6.6421 108.535L6.9751 108.598C7.5031 108.694 7.8871 108.895 8.1271 109.201C8.3731 109.501 8.4961 109.837 8.4961 110.209C8.4961 110.773 8.2981 111.229 7.9021 111.577C7.5121 111.919 6.9481 112.09 6.2101 112.09C6.1381 112.09 6.0691 112.087 6.0031 112.081C5.9431 112.075 5.8831 112.069 5.8231 112.063L5.6341 112.9H5.0941ZM6.0031 111.298C6.0391 111.304 6.0721 111.307 6.1021 111.307C6.1381 111.307 6.1741 111.307 6.2101 111.307C6.6481 111.307 6.9841 111.22 7.2181 111.046C7.4521 110.866 7.5691 110.617 7.5691 110.299C7.5691 110.077 7.4971 109.891 7.3531 109.741C7.2091 109.585 6.9991 109.483 6.7231 109.435L6.4441 109.381L6.0031 111.298ZM6.1201 108.436L6.5251 106.69C6.4951 106.684 6.4651 106.681 6.4351 106.681C6.4051 106.681 6.3721 106.681 6.3361 106.681C5.9401 106.681 5.6401 106.765 5.4361 106.933C5.2381 107.101 5.1391 107.329 5.1391 107.617C5.1391 107.839 5.2081 108.013 5.3461 108.139C5.4901 108.259 5.6971 108.346 5.9671 108.4L6.1201 108.436ZM11.5003 112.09C11.1823 112.09 10.8973 112.06 10.6453 112C10.3993 111.946 10.1743 111.859 9.97027 111.739C9.76627 111.613 9.56527 111.46 9.36727 111.28L9.71827 110.641C10.0183 110.893 10.3033 111.073 10.5733 111.181C10.8493 111.289 11.1283 111.343 11.4103 111.343C11.8483 111.343 12.1903 111.232 12.4363 111.01C12.6823 110.782 12.8053 110.47 12.8053 110.074C12.8053 109.678 12.6823 109.369 12.4363 109.147C12.1903 108.919 11.8483 108.805 11.4103 108.805C11.1163 108.805 10.8673 108.865 10.6633 108.985C10.4653 109.099 10.3273 109.267 10.2493 109.489L9.47527 109.345L10.0873 105.898H13.2823V106.636H10.7713L10.4383 108.445C10.5823 108.331 10.7533 108.247 10.9513 108.193C11.1493 108.133 11.3593 108.103 11.5813 108.103C12.0373 108.103 12.4243 108.187 12.7423 108.355C13.0603 108.517 13.3033 108.745 13.4713 109.039C13.6453 109.333 13.7323 109.672 13.7323 110.056C13.7323 110.44 13.6423 110.785 13.4623 111.091C13.2823 111.397 13.0243 111.64 12.6883 111.82C12.3583 112 11.9623 112.09 11.5003 112.09ZM17.0536 112.09C16.5256 112.09 16.0786 111.958 15.7126 111.694C15.3466 111.424 15.0706 111.058 14.8846 110.596C14.6986 110.128 14.6056 109.594 14.6056 108.994C14.6056 108.394 14.6986 107.863 14.8846 107.401C15.0706 106.933 15.3466 106.567 15.7126 106.303C16.0786 106.033 16.5256 105.898 17.0536 105.898C17.5876 105.898 18.0346 106.033 18.3946 106.303C18.7606 106.567 19.0366 106.933 19.2226 107.401C19.4146 107.863 19.5106 108.394 19.5106 108.994C19.5106 109.594 19.4146 110.128 19.2226 110.596C19.0366 111.058 18.7606 111.424 18.3946 111.694C18.0346 111.958 17.5876 112.09 17.0536 112.09ZM17.0536 111.343C17.3536 111.343 17.6176 111.259 17.8456 111.091C18.0796 110.917 18.2596 110.656 18.3856 110.308C18.5176 109.96 18.5836 109.522 18.5836 108.994C18.5836 108.46 18.5176 108.019 18.3856 107.671C18.2596 107.323 18.0796 107.065 17.8456 106.897C17.6176 106.723 17.3536 106.636 17.0536 106.636C16.7596 106.636 16.4956 106.723 16.2616 106.897C16.0336 107.071 15.8536 107.332 15.7216 107.68C15.5896 108.022 15.5236 108.46 15.5236 108.994C15.5236 109.522 15.5896 109.96 15.7216 110.308C15.8536 110.656 16.0336 110.917 16.2616 111.091C16.4956 111.259 16.7596 111.343 17.0536 111.343ZM22.828 112.09C22.3 112.09 21.853 111.958 21.487 111.694C21.121 111.424 20.845 111.058 20.659 110.596C20.473 110.128 20.38 109.594 20.38 108.994C20.38 108.394 20.473 107.863 20.659 107.401C20.845 106.933 21.121 106.567 21.487 106.303C21.853 106.033 22.3 105.898 22.828 105.898C23.362 105.898 23.809 106.033 24.169 106.303C24.535 106.567 24.811 106.933 24.997 107.401C25.189 107.863 25.285 108.394 25.285 108.994C25.285 109.594 25.189 110.128 24.997 110.596C24.811 111.058 24.535 111.424 24.169 111.694C23.809 111.958 23.362 112.09 22.828 112.09ZM22.828 111.343C23.128 111.343 23.392 111.259 23.62 111.091C23.854 110.917 24.034 110.656 24.16 110.308C24.292 109.96 24.358 109.522 24.358 108.994C24.358 108.46 24.292 108.019 24.16 107.671C24.034 107.323 23.854 107.065 23.62 106.897C23.392 106.723 23.128 106.636 22.828 106.636C22.534 106.636 22.27 106.723 22.036 106.897C21.808 107.071 21.628 107.332 21.496 107.68C21.364 108.022 21.298 108.46 21.298 108.994C21.298 109.522 21.364 109.96 21.496 110.308C21.628 110.656 21.808 110.917 22.036 111.091C22.27 111.259 22.534 111.343 22.828 111.343Z" fill="#747FA6"/>
<path d="M4.93736 19.9L5.14436 18.982C4.92236 18.916 4.70636 18.826 4.49636 18.712C4.29236 18.598 4.08836 18.454 3.88436 18.28L4.24436 17.569C4.43636 17.725 4.62236 17.854 4.80236 17.956C4.98236 18.052 5.15936 18.13 5.33336 18.19L5.76536 16.282L5.57636 16.246C5.04236 16.144 4.65536 15.961 4.41536 15.697C4.18136 15.433 4.06436 15.112 4.06436 14.734C4.06436 14.398 4.13936 14.092 4.28936 13.816C4.43936 13.54 4.67036 13.318 4.98236 13.15C5.29436 12.982 5.68736 12.898 6.16136 12.898C6.22736 12.898 6.29036 12.901 6.35036 12.907C6.41636 12.907 6.48236 12.91 6.54836 12.916L6.73736 12.088H7.27736L7.06136 13.015C7.25336 13.063 7.43936 13.135 7.61936 13.231C7.80536 13.327 7.98536 13.444 8.15936 13.582L7.79036 14.284C7.63436 14.176 7.48136 14.083 7.33136 14.005C7.18736 13.921 7.03736 13.852 6.88136 13.798L6.48536 15.535L6.81836 15.598C7.34636 15.694 7.73036 15.895 7.97036 16.201C8.21636 16.501 8.33936 16.837 8.33936 17.209C8.33936 17.773 8.14136 18.229 7.74536 18.577C7.35536 18.919 6.79136 19.09 6.05336 19.09C5.98136 19.09 5.91236 19.087 5.84636 19.081C5.78636 19.075 5.72636 19.069 5.66636 19.063L5.47736 19.9H4.93736ZM5.84636 18.298C5.88236 18.304 5.91536 18.307 5.94536 18.307C5.98136 18.307 6.01736 18.307 6.05336 18.307C6.49136 18.307 6.82736 18.22 7.06136 18.046C7.29536 17.866 7.41236 17.617 7.41236 17.299C7.41236 17.077 7.34036 16.891 7.19636 16.741C7.05236 16.585 6.84236 16.483 6.56636 16.435L6.28736 16.381L5.84636 18.298ZM5.96336 15.436L6.36836 13.69C6.33836 13.684 6.30836 13.681 6.27836 13.681C6.24836 13.681 6.21536 13.681 6.17936 13.681C5.78336 13.681 5.48336 13.765 5.27936 13.933C5.08136 14.101 4.98236 14.329 4.98236 14.617C4.98236 14.839 5.05136 15.013 5.18936 15.139C5.33336 15.259 5.54036 15.346 5.81036 15.4L5.96336 15.436ZM11.3435 19.09C11.0255 19.09 10.7405 19.06 10.4885 19C10.2425 18.946 10.0175 18.859 9.81353 18.739C9.60953 18.613 9.40853 18.46 9.21053 18.28L9.56153 17.641C9.86153 17.893 10.1465 18.073 10.4165 18.181C10.6925 18.289 10.9715 18.343 11.2535 18.343C11.6915 18.343 12.0335 18.232 12.2795 18.01C12.5255 17.782 12.6485 17.47 12.6485 17.074C12.6485 16.678 12.5255 16.369 12.2795 16.147C12.0335 15.919 11.6915 15.805 11.2535 15.805C10.9595 15.805 10.7105 15.865 10.5065 15.985C10.3085 16.099 10.1705 16.267 10.0925 16.489L9.31853 16.345L9.93053 12.898H13.1255V13.636H10.6145L10.2815 15.445C10.4255 15.331 10.5965 15.247 10.7945 15.193C10.9925 15.133 11.2025 15.103 11.4245 15.103C11.8805 15.103 12.2675 15.187 12.5855 15.355C12.9035 15.517 13.1465 15.745 13.3145 16.039C13.4885 16.333 13.5755 16.672 13.5755 17.056C13.5755 17.44 13.4855 17.785 13.3055 18.091C13.1255 18.397 12.8675 18.64 12.5315 18.82C12.2015 19 11.8055 19.09 11.3435 19.09ZM16.8968 19.09C16.3688 19.09 15.9218 18.958 15.5558 18.694C15.1898 18.424 14.9138 18.058 14.7278 17.596C14.5418 17.128 14.4488 16.594 14.4488 15.994C14.4488 15.394 14.5418 14.863 14.7278 14.401C14.9138 13.933 15.1898 13.567 15.5558 13.303C15.9218 13.033 16.3688 12.898 16.8968 12.898C17.4308 12.898 17.8778 13.033 18.2378 13.303C18.6038 13.567 18.8798 13.933 19.0658 14.401C19.2578 14.863 19.3538 15.394 19.3538 15.994C19.3538 16.594 19.2578 17.128 19.0658 17.596C18.8798 18.058 18.6038 18.424 18.2378 18.694C17.8778 18.958 17.4308 19.09 16.8968 19.09ZM16.8968 18.343C17.1968 18.343 17.4608 18.259 17.6888 18.091C17.9228 17.917 18.1028 17.656 18.2288 17.308C18.3608 16.96 18.4268 16.522 18.4268 15.994C18.4268 15.46 18.3608 15.019 18.2288 14.671C18.1028 14.323 17.9228 14.065 17.6888 13.897C17.4608 13.723 17.1968 13.636 16.8968 13.636C16.6028 13.636 16.3388 13.723 16.1048 13.897C15.8768 14.071 15.6968 14.332 15.5648 14.68C15.4328 15.022 15.3668 15.46 15.3668 15.994C15.3668 16.522 15.4328 16.96 15.5648 17.308C15.6968 17.656 15.8768 17.917 16.1048 18.091C16.3388 18.259 16.6028 18.343 16.8968 18.343ZM22.6712 19.09C22.1432 19.09 21.6962 18.958 21.3302 18.694C20.9642 18.424 20.6882 18.058 20.5022 17.596C20.3162 17.128 20.2232 16.594 20.2232 15.994C20.2232 15.394 20.3162 14.863 20.5022 14.401C20.6882 13.933 20.9642 13.567 21.3302 13.303C21.6962 13.033 22.1432 12.898 22.6712 12.898C23.2052 12.898 23.6522 13.033 24.0122 13.303C24.3782 13.567 24.6542 13.933 24.8402 14.401C25.0322 14.863 25.1282 15.394 25.1282 15.994C25.1282 16.594 25.0322 17.128 24.8402 17.596C24.6542 18.058 24.3782 18.424 24.0122 18.694C23.6522 18.958 23.2052 19.09 22.6712 19.09ZM22.6712 18.343C22.9712 18.343 23.2352 18.259 23.4632 18.091C23.6972 17.917 23.8772 17.656 24.0032 17.308C24.1352 16.96 24.2012 16.522 24.2012 15.994C24.2012 15.46 24.1352 15.019 24.0032 14.671C23.8772 14.323 23.6972 14.065 23.4632 13.897C23.2352 13.723 22.9712 13.636 22.6712 13.636C22.3772 13.636 22.1132 13.723 21.8792 13.897C21.6512 14.071 21.4712 14.332 21.3392 14.68C21.2072 15.022 21.1412 15.46 21.1412 15.994C21.1412 16.522 21.2072 16.96 21.3392 17.308C21.4712 17.656 21.6512 17.917 21.8792 18.091C22.1132 18.259 22.3772 18.343 22.6712 18.343Z" fill="#747FA6"/>
<line x1="107.5" y1="56" x2="107.5" y2="65" stroke="#20224E"/>
<path d="M100.688 76.9L100.895 75.982C100.673 75.916 100.457 75.826 100.247 75.712C100.043 75.598 99.8393 75.454 99.6353 75.28L99.9953 74.569C100.187 74.725 100.373 74.854 100.553 74.956C100.733 75.052 100.91 75.13 101.084 75.19L101.516 73.282L101.327 73.246C100.793 73.144 100.406 72.961 100.166 72.697C99.9323 72.433 99.8153 72.112 99.8153 71.734C99.8153 71.398 99.8903 71.092 100.04 70.816C100.19 70.54 100.421 70.318 100.733 70.15C101.045 69.982 101.438 69.898 101.912 69.898C101.978 69.898 102.041 69.901 102.101 69.907C102.167 69.907 102.233 69.91 102.299 69.916L102.488 69.088H103.028L102.812 70.015C103.004 70.063 103.19 70.135 103.37 70.231C103.556 70.327 103.736 70.444 103.91 70.582L103.541 71.284C103.385 71.176 103.232 71.083 103.082 71.005C102.938 70.921 102.788 70.852 102.632 70.798L102.236 72.535L102.569 72.598C103.097 72.694 103.481 72.895 103.721 73.201C103.967 73.501 104.09 73.837 104.09 74.209C104.09 74.773 103.892 75.229 103.496 75.577C103.106 75.919 102.542 76.09 101.804 76.09C101.732 76.09 101.663 76.087 101.597 76.081C101.537 76.075 101.477 76.069 101.417 76.063L101.228 76.9H100.688ZM101.597 75.298C101.633 75.304 101.666 75.307 101.696 75.307C101.732 75.307 101.768 75.307 101.804 75.307C102.242 75.307 102.578 75.22 102.812 75.046C103.046 74.866 103.163 74.617 103.163 74.299C103.163 74.077 103.091 73.891 102.947 73.741C102.803 73.585 102.593 73.483 102.317 73.435L102.038 73.381L101.597 75.298ZM101.714 72.436L102.119 70.69C102.089 70.684 102.059 70.681 102.029 70.681C101.999 70.681 101.966 70.681 101.93 70.681C101.534 70.681 101.234 70.765 101.03 70.933C100.832 71.101 100.733 71.329 100.733 71.617C100.733 71.839 100.802 72.013 100.94 72.139C101.084 72.259 101.291 72.346 101.561 72.4L101.714 72.436ZM106.987 76.09C106.603 76.09 106.252 76.021 105.934 75.883C105.622 75.739 105.352 75.538 105.124 75.28L105.466 74.686C105.7 74.908 105.937 75.073 106.177 75.181C106.417 75.289 106.66 75.343 106.906 75.343C107.224 75.343 107.512 75.271 107.77 75.127C108.034 74.977 108.244 74.743 108.4 74.425C108.562 74.107 108.652 73.693 108.67 73.183C108.52 73.399 108.31 73.57 108.04 73.696C107.776 73.822 107.464 73.885 107.104 73.885C106.654 73.885 106.267 73.801 105.943 73.633C105.625 73.465 105.382 73.234 105.214 72.94C105.046 72.646 104.962 72.307 104.962 71.923C104.962 71.539 105.052 71.194 105.232 70.888C105.412 70.582 105.667 70.342 105.997 70.168C106.333 69.988 106.729 69.898 107.185 69.898C107.683 69.898 108.109 69.997 108.463 70.195C108.823 70.393 109.102 70.693 109.3 71.095C109.498 71.497 109.597 72.01 109.597 72.634C109.597 73.324 109.501 73.93 109.309 74.452C109.117 74.968 108.829 75.37 108.445 75.658C108.061 75.946 107.575 76.09 106.987 76.09ZM107.275 73.183C107.713 73.183 108.055 73.072 108.301 72.85C108.547 72.622 108.67 72.31 108.67 71.914C108.61 71.536 108.469 71.23 108.247 70.996C108.025 70.756 107.701 70.636 107.275 70.636C106.843 70.636 106.501 70.75 106.249 70.978C106.003 71.206 105.88 71.515 105.88 71.905C105.88 72.307 106.003 72.622 106.249 72.85C106.501 73.072 106.843 73.183 107.275 73.183ZM112.92 76.09C112.392 76.09 111.945 75.958 111.579 75.694C111.213 75.424 110.937 75.058 110.751 74.596C110.565 74.128 110.472 73.594 110.472 72.994C110.472 72.394 110.565 71.863 110.751 71.401C110.937 70.933 111.213 70.567 111.579 70.303C111.945 70.033 112.392 69.898 112.92 69.898C113.454 69.898 113.901 70.033 114.261 70.303C114.627 70.567 114.903 70.933 115.089 71.401C115.281 71.863 115.377 72.394 115.377 72.994C115.377 73.594 115.281 74.128 115.089 74.596C114.903 75.058 114.627 75.424 114.261 75.694C113.901 75.958 113.454 76.09 112.92 76.09ZM112.92 75.343C113.22 75.343 113.484 75.259 113.712 75.091C113.946 74.917 114.126 74.656 114.252 74.308C114.384 73.96 114.45 73.522 114.45 72.994C114.45 72.46 114.384 72.019 114.252 71.671C114.126 71.323 113.946 71.065 113.712 70.897C113.484 70.723 113.22 70.636 112.92 70.636C112.626 70.636 112.362 70.723 112.128 70.897C111.9 71.071 111.72 71.332 111.588 71.68C111.456 72.022 111.39 72.46 111.39 72.994C111.39 73.522 111.456 73.96 111.588 74.308C111.72 74.656 111.9 74.917 112.128 75.091C112.362 75.259 112.626 75.343 112.92 75.343Z" fill="#747FA6"/>
<line x1="209.5" y1="56" x2="209.5" y2="65" stroke="#20224E"/>
<path d="M199.799 76.9L200.006 75.982C199.784 75.916 199.568 75.826 199.358 75.712C199.154 75.598 198.95 75.454 198.746 75.28L199.106 74.569C199.298 74.725 199.484 74.854 199.664 74.956C199.844 75.052 200.021 75.13 200.195 75.19L200.627 73.282L200.438 73.246C199.904 73.144 199.517 72.961 199.277 72.697C199.043 72.433 198.926 72.112 198.926 71.734C198.926 71.398 199.001 71.092 199.151 70.816C199.301 70.54 199.532 70.318 199.844 70.15C200.156 69.982 200.549 69.898 201.023 69.898C201.089 69.898 201.152 69.901 201.212 69.907C201.278 69.907 201.344 69.91 201.41 69.916L201.599 69.088H202.139L201.923 70.015C202.115 70.063 202.301 70.135 202.481 70.231C202.667 70.327 202.847 70.444 203.021 70.582L202.652 71.284C202.496 71.176 202.343 71.083 202.193 71.005C202.049 70.921 201.899 70.852 201.743 70.798L201.347 72.535L201.68 72.598C202.208 72.694 202.592 72.895 202.832 73.201C203.078 73.501 203.201 73.837 203.201 74.209C203.201 74.773 203.003 75.229 202.607 75.577C202.217 75.919 201.653 76.09 200.915 76.09C200.843 76.09 200.774 76.087 200.708 76.081C200.648 76.075 200.588 76.069 200.528 76.063L200.339 76.9H199.799ZM200.708 75.298C200.744 75.304 200.777 75.307 200.807 75.307C200.843 75.307 200.879 75.307 200.915 75.307C201.353 75.307 201.689 75.22 201.923 75.046C202.157 74.866 202.274 74.617 202.274 74.299C202.274 74.077 202.202 73.891 202.058 73.741C201.914 73.585 201.704 73.483 201.428 73.435L201.149 73.381L200.708 75.298ZM200.825 72.436L201.23 70.69C201.2 70.684 201.17 70.681 201.14 70.681C201.11 70.681 201.077 70.681 201.041 70.681C200.645 70.681 200.345 70.765 200.141 70.933C199.943 71.101 199.844 71.329 199.844 71.617C199.844 71.839 199.913 72.013 200.051 72.139C200.195 72.259 200.402 72.346 200.672 72.4L200.825 72.436ZM205.539 76V70.96L204.243 71.671L203.892 70.978L205.773 69.988H206.439V76H205.539ZM210.035 76.09C209.507 76.09 209.06 75.958 208.694 75.694C208.328 75.424 208.052 75.058 207.866 74.596C207.68 74.128 207.587 73.594 207.587 72.994C207.587 72.394 207.68 71.863 207.866 71.401C208.052 70.933 208.328 70.567 208.694 70.303C209.06 70.033 209.507 69.898 210.035 69.898C210.569 69.898 211.016 70.033 211.376 70.303C211.742 70.567 212.018 70.933 212.204 71.401C212.396 71.863 212.492 72.394 212.492 72.994C212.492 73.594 212.396 74.128 212.204 74.596C212.018 75.058 211.742 75.424 211.376 75.694C211.016 75.958 210.569 76.09 210.035 76.09ZM210.035 75.343C210.335 75.343 210.599 75.259 210.827 75.091C211.061 74.917 211.241 74.656 211.367 74.308C211.499 73.96 211.565 73.522 211.565 72.994C211.565 72.46 211.499 72.019 211.367 71.671C211.241 71.323 211.061 71.065 210.827 70.897C210.599 70.723 210.335 70.636 210.035 70.636C209.741 70.636 209.477 70.723 209.243 70.897C209.015 71.071 208.835 71.332 208.703 71.68C208.571 72.022 208.505 72.46 208.505 72.994C208.505 73.522 208.571 73.96 208.703 74.308C208.835 74.656 209.015 74.917 209.243 75.091C209.477 75.259 209.741 75.343 210.035 75.343ZM215.81 76.09C215.282 76.09 214.835 75.958 214.469 75.694C214.103 75.424 213.827 75.058 213.641 74.596C213.455 74.128 213.362 73.594 213.362 72.994C213.362 72.394 213.455 71.863 213.641 71.401C213.827 70.933 214.103 70.567 214.469 70.303C214.835 70.033 215.282 69.898 215.81 69.898C216.344 69.898 216.791 70.033 217.151 70.303C217.517 70.567 217.793 70.933 217.979 71.401C218.171 71.863 218.267 72.394 218.267 72.994C218.267 73.594 218.171 74.128 217.979 74.596C217.793 75.058 217.517 75.424 217.151 75.694C216.791 75.958 216.344 76.09 215.81 76.09ZM215.81 75.343C216.11 75.343 216.374 75.259 216.602 75.091C216.836 74.917 217.016 74.656 217.142 74.308C217.274 73.96 217.34 73.522 217.34 72.994C217.34 72.46 217.274 72.019 217.142 71.671C217.016 71.323 216.836 71.065 216.602 70.897C216.374 70.723 216.11 70.636 215.81 70.636C215.516 70.636 215.252 70.723 215.018 70.897C214.79 71.071 214.61 71.332 214.478 71.68C214.346 72.022 214.28 72.46 214.28 72.994C214.28 73.522 214.346 73.96 214.478 74.308C214.61 74.656 214.79 74.917 215.018 75.091C215.252 75.259 215.516 75.343 215.81 75.343Z" fill="#747FA6"/>
<line x1="311.5" y1="56" x2="311.5" y2="65" stroke="#20224E"/>
<path d="M302.928 76.9L303.135 75.982C302.913 75.916 302.697 75.826 302.487 75.712C302.283 75.598 302.079 75.454 301.875 75.28L302.235 74.569C302.427 74.725 302.613 74.854 302.793 74.956C302.973 75.052 303.15 75.13 303.324 75.19L303.756 73.282L303.567 73.246C303.033 73.144 302.646 72.961 302.406 72.697C302.172 72.433 302.055 72.112 302.055 71.734C302.055 71.398 302.13 71.092 302.28 70.816C302.43 70.54 302.661 70.318 302.973 70.15C303.285 69.982 303.678 69.898 304.152 69.898C304.218 69.898 304.281 69.901 304.341 69.907C304.407 69.907 304.473 69.91 304.539 69.916L304.728 69.088H305.268L305.052 70.015C305.244 70.063 305.43 70.135 305.61 70.231C305.796 70.327 305.976 70.444 306.15 70.582L305.781 71.284C305.625 71.176 305.472 71.083 305.322 71.005C305.178 70.921 305.028 70.852 304.872 70.798L304.476 72.535L304.809 72.598C305.337 72.694 305.721 72.895 305.961 73.201C306.207 73.501 306.33 73.837 306.33 74.209C306.33 74.773 306.132 75.229 305.736 75.577C305.346 75.919 304.782 76.09 304.044 76.09C303.972 76.09 303.903 76.087 303.837 76.081C303.777 76.075 303.717 76.069 303.657 76.063L303.468 76.9H302.928ZM303.837 75.298C303.873 75.304 303.906 75.307 303.936 75.307C303.972 75.307 304.008 75.307 304.044 75.307C304.482 75.307 304.818 75.22 305.052 75.046C305.286 74.866 305.403 74.617 305.403 74.299C305.403 74.077 305.331 73.891 305.187 73.741C305.043 73.585 304.833 73.483 304.557 73.435L304.278 73.381L303.837 75.298ZM303.954 72.436L304.359 70.69C304.329 70.684 304.299 70.681 304.269 70.681C304.239 70.681 304.206 70.681 304.17 70.681C303.774 70.681 303.474 70.765 303.27 70.933C303.072 71.101 302.973 71.329 302.973 71.617C302.973 71.839 303.042 72.013 303.18 72.139C303.324 72.259 303.531 72.346 303.801 72.4L303.954 72.436ZM308.668 76V70.96L307.372 71.671L307.021 70.978L308.902 69.988H309.568V76H308.668ZM312.184 76V70.96L310.888 71.671L310.537 70.978L312.418 69.988H313.084V76H312.184ZM316.681 76.09C316.153 76.09 315.706 75.958 315.34 75.694C314.974 75.424 314.698 75.058 314.512 74.596C314.326 74.128 314.233 73.594 314.233 72.994C314.233 72.394 314.326 71.863 314.512 71.401C314.698 70.933 314.974 70.567 315.34 70.303C315.706 70.033 316.153 69.898 316.681 69.898C317.215 69.898 317.662 70.033 318.022 70.303C318.388 70.567 318.664 70.933 318.85 71.401C319.042 71.863 319.138 72.394 319.138 72.994C319.138 73.594 319.042 74.128 318.85 74.596C318.664 75.058 318.388 75.424 318.022 75.694C317.662 75.958 317.215 76.09 316.681 76.09ZM316.681 75.343C316.981 75.343 317.245 75.259 317.473 75.091C317.707 74.917 317.887 74.656 318.013 74.308C318.145 73.96 318.211 73.522 318.211 72.994C318.211 72.46 318.145 72.019 318.013 71.671C317.887 71.323 317.707 71.065 317.473 70.897C317.245 70.723 316.981 70.636 316.681 70.636C316.387 70.636 316.123 70.723 315.889 70.897C315.661 71.071 315.481 71.332 315.349 71.68C315.217 72.022 315.151 72.46 315.151 72.994C315.151 73.522 315.217 73.96 315.349 74.308C315.481 74.656 315.661 74.917 315.889 75.091C316.123 75.259 316.387 75.343 316.681 75.343Z" fill="#747FA6"/>
<path d="M86.711 47V40.988H89.492C89.966 40.988 90.359 41.042 90.671 41.15C90.989 41.252 91.229 41.417 91.391 41.645C91.553 41.873 91.634 42.173 91.634 42.545C91.634 42.899 91.559 43.187 91.409 43.409C91.265 43.631 91.022 43.793 90.68 43.895C91.082 43.991 91.37 44.159 91.544 44.399C91.724 44.639 91.814 44.954 91.814 45.344C91.814 45.938 91.622 46.364 91.238 46.622C90.86 46.874 90.278 47 89.492 47H86.711ZM87.611 46.235H89.366C89.744 46.235 90.044 46.202 90.266 46.136C90.488 46.07 90.647 45.965 90.743 45.821C90.839 45.677 90.887 45.488 90.887 45.254C90.887 45.014 90.839 44.822 90.743 44.678C90.647 44.534 90.488 44.429 90.266 44.363C90.044 44.297 89.744 44.264 89.366 44.264H87.611V46.235ZM87.611 43.535H89.366C89.864 43.535 90.212 43.469 90.41 43.337C90.608 43.205 90.707 42.974 90.707 42.644C90.707 42.308 90.608 42.074 90.41 41.942C90.212 41.81 89.864 41.744 89.366 41.744H87.611V43.535ZM92.924 47V42.77H93.743V43.508C93.851 43.244 94.007 43.046 94.211 42.914C94.421 42.782 94.655 42.716 94.913 42.716C94.997 42.716 95.072 42.722 95.138 42.734C95.21 42.74 95.267 42.752 95.309 42.77V43.571C95.225 43.553 95.141 43.541 95.057 43.535C94.979 43.523 94.901 43.517 94.823 43.517C94.523 43.517 94.271 43.643 94.067 43.895C93.869 44.141 93.77 44.495 93.77 44.957V47H92.924ZM98.0074 47.09C97.5814 47.09 97.1974 47.006 96.8554 46.838C96.5194 46.664 96.2524 46.415 96.0544 46.091C95.8564 45.761 95.7574 45.359 95.7574 44.885C95.7574 44.435 95.8504 44.045 96.0364 43.715C96.2284 43.385 96.4834 43.13 96.8014 42.95C97.1254 42.77 97.4854 42.68 97.8814 42.68C98.3014 42.68 98.6614 42.761 98.9614 42.923C99.2674 43.079 99.5044 43.295 99.6724 43.571C99.8404 43.847 99.9244 44.159 99.9244 44.507C99.9244 44.609 99.9094 44.72 99.8794 44.84C99.8554 44.96 99.8194 45.056 99.7714 45.128H96.6214C96.6514 45.392 96.7294 45.617 96.8554 45.803C96.9814 45.989 97.1494 46.13 97.3594 46.226C97.5694 46.316 97.8124 46.361 98.0884 46.361C98.3644 46.361 98.6074 46.319 98.8174 46.235C99.0334 46.151 99.2404 46.031 99.4384 45.875L99.7444 46.505C99.5104 46.697 99.2464 46.844 98.9524 46.946C98.6644 47.042 98.3494 47.09 98.0074 47.09ZM96.6214 44.471H99.0424C99.0484 44.459 99.0514 44.447 99.0514 44.435C99.0514 44.417 99.0514 44.399 99.0514 44.381C99.0514 44.183 99.0094 44.012 98.9254 43.868C98.8414 43.718 98.7154 43.601 98.5474 43.517C98.3794 43.433 98.1664 43.391 97.9084 43.391C97.7044 43.391 97.5124 43.436 97.3324 43.526C97.1584 43.61 97.0084 43.733 96.8824 43.895C96.7624 44.051 96.6754 44.243 96.6214 44.471ZM102.369 47.09C102.057 47.09 101.781 47.042 101.541 46.946C101.307 46.844 101.124 46.7 100.992 46.514C100.86 46.322 100.794 46.091 100.794 45.821C100.794 45.551 100.86 45.329 100.992 45.155C101.124 44.975 101.31 44.834 101.55 44.732C101.79 44.624 102.063 44.552 102.369 44.516L103.863 44.336C103.827 44.018 103.707 43.784 103.503 43.634C103.299 43.484 103.047 43.409 102.747 43.409C102.543 43.409 102.33 43.451 102.108 43.535C101.892 43.613 101.661 43.739 101.415 43.913L101.1 43.274C101.334 43.088 101.592 42.944 101.874 42.842C102.162 42.734 102.459 42.68 102.765 42.68C103.407 42.68 103.893 42.827 104.223 43.121C104.559 43.409 104.727 43.844 104.727 44.426V47H103.908V46.388C103.752 46.622 103.542 46.799 103.278 46.919C103.02 47.033 102.717 47.09 102.369 47.09ZM102.567 46.37C102.849 46.37 103.086 46.316 103.278 46.208C103.476 46.094 103.623 45.944 103.719 45.758C103.821 45.572 103.872 45.377 103.872 45.173V44.984L102.612 45.146C102.3 45.188 102.063 45.257 101.901 45.353C101.739 45.443 101.658 45.59 101.658 45.794C101.658 45.98 101.739 46.124 101.901 46.226C102.063 46.322 102.285 46.37 102.567 46.37ZM106.064 47V40.988H106.91V44.759L108.908 42.77H109.943L108.179 44.498L110.033 47H108.998L107.585 45.083L106.91 45.74V47H106.064ZM109.969 44.768V44.084H112.408V44.768H109.969ZM113.553 47V40.988H117.72V41.762H114.453V43.535H117.45V44.273H114.453V46.226H117.72V47H113.553ZM120.111 47L118.419 42.77H119.328L120.579 46.118L121.83 42.77H122.748L121.047 47H120.111ZM125.289 47.09C124.863 47.09 124.479 47.006 124.137 46.838C123.801 46.664 123.534 46.415 123.336 46.091C123.138 45.761 123.039 45.359 123.039 44.885C123.039 44.435 123.132 44.045 123.318 43.715C123.51 43.385 123.765 43.13 124.083 42.95C124.407 42.77 124.767 42.68 125.163 42.68C125.583 42.68 125.943 42.761 126.243 42.923C126.549 43.079 126.786 43.295 126.954 43.571C127.122 43.847 127.206 44.159 127.206 44.507C127.206 44.609 127.191 44.72 127.161 44.84C127.137 44.96 127.101 45.056 127.053 45.128H123.903C123.933 45.392 124.011 45.617 124.137 45.803C124.263 45.989 124.431 46.13 124.641 46.226C124.851 46.316 125.094 46.361 125.37 46.361C125.646 46.361 125.889 46.319 126.099 46.235C126.315 46.151 126.522 46.031 126.72 45.875L127.026 46.505C126.792 46.697 126.528 46.844 126.234 46.946C125.946 47.042 125.631 47.09 125.289 47.09ZM123.903 44.471H126.324C126.33 44.459 126.333 44.447 126.333 44.435C126.333 44.417 126.333 44.399 126.333 44.381C126.333 44.183 126.291 44.012 126.207 43.868C126.123 43.718 125.997 43.601 125.829 43.517C125.661 43.433 125.448 43.391 125.19 43.391C124.986 43.391 124.794 43.436 124.614 43.526C124.44 43.61 124.29 43.733 124.164 43.895C124.044 44.051 123.957 44.243 123.903 44.471ZM128.309 47V42.77H129.128V43.4C129.254 43.178 129.434 43.004 129.668 42.878C129.908 42.746 130.199 42.68 130.541 42.68C131.027 42.68 131.408 42.818 131.684 43.094C131.96 43.37 132.098 43.802 132.098 44.39V47H131.243V44.498C131.243 44.12 131.165 43.847 131.009 43.679C130.859 43.505 130.628 43.418 130.316 43.418C129.95 43.418 129.665 43.544 129.461 43.796C129.257 44.048 129.155 44.393 129.155 44.831V47H128.309ZM136.432 47.9L136.639 46.982C136.417 46.916 136.201 46.826 135.991 46.712C135.787 46.598 135.583 46.454 135.379 46.28L135.739 45.569C135.931 45.725 136.117 45.854 136.297 45.956C136.477 46.052 136.654 46.13 136.828 46.19L137.26 44.282L137.071 44.246C136.537 44.144 136.15 43.961 135.91 43.697C135.676 43.433 135.559 43.112 135.559 42.734C135.559 42.398 135.634 42.092 135.784 41.816C135.934 41.54 136.165 41.318 136.477 41.15C136.789 40.982 137.182 40.898 137.656 40.898C137.722 40.898 137.785 40.901 137.845 40.907C137.911 40.907 137.977 40.91 138.043 40.916L138.232 40.088H138.772L138.556 41.015C138.748 41.063 138.934 41.135 139.114 41.231C139.3 41.327 139.48 41.444 139.654 41.582L139.285 42.284C139.129 42.176 138.976 42.083 138.826 42.005C138.682 41.921 138.532 41.852 138.376 41.798L137.98 43.535L138.313 43.598C138.841 43.694 139.225 43.895 139.465 44.201C139.711 44.501 139.834 44.837 139.834 45.209C139.834 45.773 139.636 46.229 139.24 46.577C138.85 46.919 138.286 47.09 137.548 47.09C137.476 47.09 137.407 47.087 137.341 47.081C137.281 47.075 137.221 47.069 137.161 47.063L136.972 47.9H136.432ZM137.341 46.298C137.377 46.304 137.41 46.307 137.44 46.307C137.476 46.307 137.512 46.307 137.548 46.307C137.986 46.307 138.322 46.22 138.556 46.046C138.79 45.866 138.907 45.617 138.907 45.299C138.907 45.077 138.835 44.891 138.691 44.741C138.547 44.585 138.337 44.483 138.061 44.435L137.782 44.381L137.341 46.298ZM137.458 43.436L137.863 41.69C137.833 41.684 137.803 41.681 137.773 41.681C137.743 41.681 137.71 41.681 137.674 41.681C137.278 41.681 136.978 41.765 136.774 41.933C136.576 42.101 136.477 42.329 136.477 42.617C136.477 42.839 136.546 43.013 136.684 43.139C136.828 43.259 137.035 43.346 137.305 43.4L137.458 43.436ZM142.73 47.09C142.346 47.09 141.995 47.021 141.677 46.883C141.365 46.739 141.095 46.538 140.867 46.28L141.209 45.686C141.443 45.908 141.68 46.073 141.92 46.181C142.16 46.289 142.403 46.343 142.649 46.343C142.967 46.343 143.255 46.271 143.513 46.127C143.777 45.977 143.987 45.743 144.143 45.425C144.305 45.107 144.395 44.693 144.413 44.183C144.263 44.399 144.053 44.57 143.783 44.696C143.519 44.822 143.207 44.885 142.847 44.885C142.397 44.885 142.01 44.801 141.686 44.633C141.368 44.465 141.125 44.234 140.957 43.94C140.789 43.646 140.705 43.307 140.705 42.923C140.705 42.539 140.795 42.194 140.975 41.888C141.155 41.582 141.41 41.342 141.74 41.168C142.076 40.988 142.472 40.898 142.928 40.898C143.426 40.898 143.852 40.997 144.206 41.195C144.566 41.393 144.845 41.693 145.043 42.095C145.241 42.497 145.34 43.01 145.34 43.634C145.34 44.324 145.244 44.93 145.052 45.452C144.86 45.968 144.572 46.37 144.188 46.658C143.804 46.946 143.318 47.09 142.73 47.09ZM143.018 44.183C143.456 44.183 143.798 44.072 144.044 43.85C144.29 43.622 144.413 43.31 144.413 42.914C144.353 42.536 144.212 42.23 143.99 41.996C143.768 41.756 143.444 41.636 143.018 41.636C142.586 41.636 142.244 41.75 141.992 41.978C141.746 42.206 141.623 42.515 141.623 42.905C141.623 43.307 141.746 43.622 141.992 43.85C142.244 44.072 142.586 44.183 143.018 44.183ZM148.348 47.09C148.03 47.09 147.745 47.06 147.493 47C147.247 46.946 147.022 46.859 146.818 46.739C146.614 46.613 146.413 46.46 146.215 46.28L146.566 45.641C146.866 45.893 147.151 46.073 147.421 46.181C147.697 46.289 147.976 46.343 148.258 46.343C148.696 46.343 149.038 46.232 149.284 46.01C149.53 45.782 149.653 45.47 149.653 45.074C149.653 44.678 149.53 44.369 149.284 44.147C149.038 43.919 148.696 43.805 148.258 43.805C147.964 43.805 147.715 43.865 147.511 43.985C147.313 44.099 147.175 44.267 147.097 44.489L146.323 44.345L146.935 40.898H150.13V41.636H147.619L147.286 43.445C147.43 43.331 147.601 43.247 147.799 43.193C147.997 43.133 148.207 43.103 148.429 43.103C148.885 43.103 149.272 43.187 149.59 43.355C149.908 43.517 150.151 43.745 150.319 44.039C150.493 44.333 150.58 44.672 150.58 45.056C150.58 45.44 150.49 45.785 150.31 46.091C150.13 46.397 149.872 46.64 149.536 46.82C149.206 47 148.81 47.09 148.348 47.09Z" fill="#747FA6"/>
<path d="M153.177 49.8232C153.079 49.7256 152.921 49.7256 152.823 49.8232C152.726 49.9209 152.726 50.0791 152.823 50.1768L153.177 49.8232ZM158.657 55.9069C158.795 55.9069 158.907 55.7949 158.907 55.6569L158.907 53.4069C158.907 53.2688 158.795 53.1569 158.657 53.1569C158.519 53.1569 158.407 53.2688 158.407 53.4069L158.407 55.4069L156.407 55.4069C156.269 55.4069 156.157 55.5188 156.157 55.6569C156.157 55.7949 156.269 55.9069 156.407 55.9069L158.657 55.9069ZM152.823 50.1768L158.48 55.8336L158.834 55.4801L153.177 49.8232L152.823 50.1768Z" fill="#747FA6"/>
<path d="M107 110L108.785 104.509L112.648 108.801L107 110ZM162 60.5L162.342 60.8648L162.334 60.8716L162 60.5ZM210 15.5L209.658 15.1352L209.802 15H210V15.5ZM311 15.5L306 18.3867V12.6133L311 15.5ZM110.01 106.618L161.666 60.1284L162.334 60.8716L110.679 107.361L110.01 106.618ZM161.658 60.1352L209.658 15.1352L210.342 15.8648L162.342 60.8648L161.658 60.1352ZM210 15H306.5V16H210V15Z" fill="#46956A"/>
<path d="M107 110L108.785 104.509L112.648 108.801L107 110ZM110.01 106.618L161.666 60.1284L162.334 60.8716L110.679 107.361L110.01 106.618Z" fill="#C75E4B"/>
<path d="M125.383 110.09C124.603 110.09 123.985 109.883 123.529 109.469C123.079 109.055 122.854 108.416 122.854 107.552V103.988H123.754V107.552C123.754 107.954 123.817 108.284 123.943 108.542C124.075 108.8 124.261 108.989 124.501 109.109C124.747 109.229 125.041 109.289 125.383 109.289C125.725 109.289 126.016 109.229 126.256 109.109C126.502 108.989 126.688 108.8 126.814 108.542C126.946 108.284 127.012 107.954 127.012 107.552V103.988H127.921V107.552C127.921 108.416 127.693 109.055 127.237 109.469C126.787 109.883 126.169 110.09 125.383 110.09ZM129.295 110V105.77H130.114V106.4C130.24 106.178 130.42 106.004 130.654 105.878C130.894 105.746 131.185 105.68 131.527 105.68C132.013 105.68 132.394 105.818 132.67 106.094C132.946 106.37 133.084 106.802 133.084 107.39V110H132.229V107.498C132.229 107.12 132.151 106.847 131.995 106.679C131.845 106.505 131.614 106.418 131.302 106.418C130.936 106.418 130.651 106.544 130.447 106.796C130.243 107.048 130.141 107.393 130.141 107.831V110H129.295ZM134.428 110V103.988H135.274V110H134.428ZM136.625 110V105.77H137.471V110H136.625ZM137.048 104.897C136.892 104.897 136.766 104.852 136.67 104.762C136.58 104.672 136.535 104.555 136.535 104.411C136.535 104.267 136.58 104.15 136.67 104.06C136.766 103.97 136.892 103.925 137.048 103.925C137.198 103.925 137.321 103.97 137.417 104.06C137.513 104.15 137.561 104.267 137.561 104.411C137.561 104.555 137.513 104.672 137.417 104.762C137.321 104.852 137.198 104.897 137.048 104.897ZM138.822 110V105.77H139.641V106.328C139.761 106.124 139.926 105.965 140.136 105.851C140.346 105.737 140.601 105.68 140.901 105.68C141.207 105.68 141.465 105.746 141.675 105.878C141.891 106.004 142.053 106.181 142.161 106.409C142.293 106.169 142.479 105.989 142.719 105.869C142.965 105.743 143.25 105.68 143.574 105.68C144.048 105.68 144.423 105.818 144.699 106.094C144.975 106.37 145.113 106.802 145.113 107.39V110H144.258V107.498C144.258 107.12 144.183 106.847 144.033 106.679C143.889 106.505 143.676 106.418 143.394 106.418C143.064 106.418 142.812 106.544 142.638 106.796C142.47 107.048 142.386 107.393 142.386 107.831V110H141.531V107.498C141.531 107.12 141.456 106.847 141.306 106.679C141.162 106.505 140.952 106.418 140.676 106.418C140.346 106.418 140.094 106.544 139.92 106.796C139.752 107.048 139.668 107.393 139.668 107.831V110H138.822ZM146.451 110V105.77H147.297V110H146.451ZM146.874 104.897C146.718 104.897 146.592 104.852 146.496 104.762C146.406 104.672 146.361 104.555 146.361 104.411C146.361 104.267 146.406 104.15 146.496 104.06C146.592 103.97 146.718 103.925 146.874 103.925C147.024 103.925 147.147 103.97 147.243 104.06C147.339 104.15 147.387 104.267 147.387 104.411C147.387 104.555 147.339 104.672 147.243 104.762C147.147 104.852 147.024 104.897 146.874 104.897ZM150.422 110.054C149.978 110.054 149.648 109.952 149.432 109.748C149.222 109.538 149.117 109.214 149.117 108.776V106.49H148.19V105.77H149.117V104.564H149.963V105.77H151.061V106.49H149.963V108.704C149.963 108.914 150.014 109.07 150.116 109.172C150.218 109.274 150.377 109.325 150.593 109.325C150.665 109.325 150.746 109.322 150.836 109.316C150.932 109.31 151.007 109.301 151.061 109.289V109.973C150.989 109.997 150.893 110.015 150.773 110.027C150.653 110.045 150.536 110.054 150.422 110.054ZM154.11 110.09C153.684 110.09 153.3 110.006 152.958 109.838C152.622 109.664 152.355 109.415 152.157 109.091C151.959 108.761 151.86 108.359 151.86 107.885C151.86 107.435 151.953 107.045 152.139 106.715C152.331 106.385 152.586 106.13 152.904 105.95C153.228 105.77 153.588 105.68 153.984 105.68C154.404 105.68 154.764 105.761 155.064 105.923C155.37 106.079 155.607 106.295 155.775 106.571C155.943 106.847 156.027 107.159 156.027 107.507C156.027 107.609 156.012 107.72 155.982 107.84C155.958 107.96 155.922 108.056 155.874 108.128H152.724C152.754 108.392 152.832 108.617 152.958 108.803C153.084 108.989 153.252 109.13 153.462 109.226C153.672 109.316 153.915 109.361 154.191 109.361C154.467 109.361 154.71 109.319 154.92 109.235C155.136 109.151 155.343 109.031 155.541 108.875L155.847 109.505C155.613 109.697 155.349 109.844 155.055 109.946C154.767 110.042 154.452 110.09 154.11 110.09ZM152.724 107.471H155.145C155.151 107.459 155.154 107.447 155.154 107.435C155.154 107.417 155.154 107.399 155.154 107.381C155.154 107.183 155.112 107.012 155.028 106.868C154.944 106.718 154.818 106.601 154.65 106.517C154.482 106.433 154.269 106.391 154.011 106.391C153.807 106.391 153.615 106.436 153.435 106.526C153.261 106.61 153.111 106.733 152.985 106.895C152.865 107.051 152.778 107.243 152.724 107.471ZM158.921 110.09C158.537 110.09 158.192 110 157.886 109.82C157.58 109.64 157.337 109.385 157.157 109.055C156.983 108.725 156.896 108.335 156.896 107.885C156.896 107.429 156.983 107.036 157.157 106.706C157.337 106.376 157.58 106.124 157.886 105.95C158.192 105.77 158.537 105.68 158.921 105.68C159.257 105.68 159.551 105.746 159.803 105.878C160.055 106.004 160.25 106.172 160.388 106.382V103.988H161.243V110H160.424V109.325C160.292 109.553 160.097 109.739 159.839 109.883C159.581 110.021 159.275 110.09 158.921 110.09ZM159.101 109.343C159.359 109.343 159.587 109.286 159.785 109.172C159.983 109.052 160.139 108.884 160.253 108.668C160.367 108.446 160.424 108.185 160.424 107.885C160.424 107.585 160.367 107.327 160.253 107.111C160.139 106.889 159.983 106.718 159.785 106.598C159.587 106.478 159.359 106.418 159.101 106.418C158.843 106.418 158.612 106.478 158.408 106.598C158.21 106.718 158.054 106.889 157.94 107.111C157.826 107.327 157.769 107.585 157.769 107.885C157.769 108.185 157.826 108.446 157.94 108.668C158.054 108.884 158.21 109.052 158.408 109.172C158.606 109.286 158.837 109.343 159.101 109.343ZM164.795 110V103.988H165.695V109.199H168.512V110H164.795ZM171.38 110.09C170.948 110.09 170.564 110 170.228 109.82C169.892 109.634 169.631 109.376 169.445 109.046C169.259 108.716 169.166 108.329 169.166 107.885C169.166 107.441 169.259 107.054 169.445 106.724C169.631 106.394 169.892 106.139 170.228 105.959C170.564 105.773 170.948 105.68 171.38 105.68C171.818 105.68 172.202 105.773 172.532 105.959C172.868 106.139 173.129 106.394 173.315 106.724C173.507 107.054 173.603 107.441 173.603 107.885C173.603 108.329 173.507 108.716 173.315 109.046C173.129 109.376 172.868 109.634 172.532 109.82C172.202 110 171.818 110.09 171.38 110.09ZM171.38 109.343C171.65 109.343 171.887 109.286 172.091 109.172C172.295 109.052 172.451 108.884 172.559 108.668C172.673 108.446 172.73 108.185 172.73 107.885C172.73 107.585 172.673 107.327 172.559 107.111C172.451 106.889 172.295 106.718 172.091 106.598C171.887 106.478 171.65 106.418 171.38 106.418C171.11 106.418 170.873 106.478 170.669 106.598C170.471 106.718 170.315 106.889 170.201 107.111C170.087 107.327 170.03 107.585 170.03 107.885C170.03 108.185 170.087 108.446 170.201 108.668C170.315 108.884 170.471 109.052 170.669 109.172C170.873 109.286 171.11 109.343 171.38 109.343ZM176.202 110.09C175.878 110.09 175.575 110.042 175.293 109.946C175.011 109.844 174.738 109.7 174.474 109.514L174.825 108.848C175.089 109.022 175.332 109.154 175.554 109.244C175.782 109.334 176.004 109.379 176.22 109.379C176.526 109.379 176.754 109.334 176.904 109.244C177.06 109.148 177.138 109.007 177.138 108.821C177.138 108.665 177.09 108.551 176.994 108.479C176.904 108.401 176.742 108.341 176.508 108.299L175.788 108.164C175.398 108.092 175.104 107.963 174.906 107.777C174.708 107.585 174.609 107.339 174.609 107.039C174.609 106.793 174.669 106.568 174.789 106.364C174.915 106.154 175.101 105.989 175.347 105.869C175.593 105.743 175.902 105.68 176.274 105.68C176.58 105.68 176.868 105.725 177.138 105.815C177.414 105.905 177.66 106.028 177.876 106.184L177.534 106.823C177.348 106.697 177.15 106.595 176.94 106.517C176.736 106.433 176.526 106.391 176.31 106.391C176.052 106.391 175.848 106.436 175.698 106.526C175.548 106.61 175.473 106.748 175.473 106.94C175.473 107.06 175.518 107.156 175.608 107.228C175.698 107.3 175.851 107.354 176.067 107.39L176.778 107.525C177.174 107.603 177.477 107.735 177.687 107.921C177.903 108.107 178.011 108.377 178.011 108.731C178.011 109.127 177.858 109.454 177.552 109.712C177.246 109.964 176.796 110.09 176.202 110.09ZM180.614 110.09C180.29 110.09 179.987 110.042 179.705 109.946C179.423 109.844 179.15 109.7 178.886 109.514L179.237 108.848C179.501 109.022 179.744 109.154 179.966 109.244C180.194 109.334 180.416 109.379 180.632 109.379C180.938 109.379 181.166 109.334 181.316 109.244C181.472 109.148 181.55 109.007 181.55 108.821C181.55 108.665 181.502 108.551 181.406 108.479C181.316 108.401 181.154 108.341 180.92 108.299L180.2 108.164C179.81 108.092 179.516 107.963 179.318 107.777C179.12 107.585 179.021 107.339 179.021 107.039C179.021 106.793 179.081 106.568 179.201 106.364C179.327 106.154 179.513 105.989 179.759 105.869C180.005 105.743 180.314 105.68 180.686 105.68C180.992 105.68 181.28 105.725 181.55 105.815C181.826 105.905 182.072 106.028 182.288 106.184L181.946 106.823C181.76 106.697 181.562 106.595 181.352 106.517C181.148 106.433 180.938 106.391 180.722 106.391C180.464 106.391 180.26 106.436 180.11 106.526C179.96 106.61 179.885 106.748 179.885 106.94C179.885 107.06 179.93 107.156 180.02 107.228C180.11 107.3 180.263 107.354 180.479 107.39L181.19 107.525C181.586 107.603 181.889 107.735 182.099 107.921C182.315 108.107 182.423 108.377 182.423 108.731C182.423 109.127 182.27 109.454 181.964 109.712C181.658 109.964 181.208 110.09 180.614 110.09Z" fill="#C75E4B"/>
<line x1="41.5" y1="15.5" x2="205.5" y2="15.5" stroke="#46956A" stroke-linecap="round" stroke-dasharray="2 2"/>
<path d="M102.805 9.99707V3.98507H104.227L106.162 8.88107L108.106 3.98507H109.528V9.99707H108.619V4.87607L106.558 9.99707H105.766L103.705 4.87607V9.99707H102.805ZM112.258 10.0871C111.946 10.0871 111.67 10.0391 111.43 9.94307C111.196 9.84107 111.013 9.69707 110.881 9.51107C110.749 9.31907 110.683 9.08807 110.683 8.81807C110.683 8.54807 110.749 8.32607 110.881 8.15207C111.013 7.97207 111.199 7.83107 111.439 7.72907C111.679 7.62107 111.952 7.54907 112.258 7.51307L113.752 7.33307C113.716 7.01507 113.596 6.78107 113.392 6.63107C113.188 6.48107 112.936 6.40607 112.636 6.40607C112.432 6.40607 112.219 6.44807 111.997 6.53207C111.781 6.61007 111.55 6.73607 111.304 6.91007L110.989 6.27107C111.223 6.08507 111.481 5.94107 111.763 5.83907C112.051 5.73107 112.348 5.67707 112.654 5.67707C113.296 5.67707 113.782 5.82407 114.112 6.11807C114.448 6.40607 114.616 6.84107 114.616 7.42307V9.99707H113.797V9.38507C113.641 9.61907 113.431 9.79607 113.167 9.91607C112.909 10.0301 112.606 10.0871 112.258 10.0871ZM112.456 9.36707C112.738 9.36707 112.975 9.31307 113.167 9.20507C113.365 9.09107 113.512 8.94107 113.608 8.75507C113.71 8.56907 113.761 8.37407 113.761 8.17007V7.98107L112.501 8.14307C112.189 8.18507 111.952 8.25407 111.79 8.35007C111.628 8.44007 111.547 8.58707 111.547 8.79107C111.547 8.97707 111.628 9.12107 111.79 9.22307C111.952 9.31907 112.174 9.36707 112.456 9.36707ZM115.09 9.99707L116.71 7.81007L115.18 5.76707H116.161L117.25 7.28807L118.348 5.76707H119.329L117.799 7.81007L119.419 9.99707H118.438L117.25 8.38607L116.071 9.99707H115.09ZM122.528 9.99707V3.98507H124.922C125.66 3.98507 126.215 4.14107 126.587 4.45307C126.959 4.76507 127.145 5.23907 127.145 5.87507C127.145 6.51107 126.959 6.98507 126.587 7.29707C126.215 7.60307 125.66 7.75607 124.922 7.75607H123.428V9.99707H122.528ZM123.428 7.00007H124.751C125.231 7.00007 125.597 6.91607 125.849 6.74807C126.101 6.58007 126.227 6.28907 126.227 5.87507C126.227 5.45507 126.104 5.16107 125.858 4.99307C125.618 4.82507 125.249 4.74107 124.751 4.74107H123.428V7.00007ZM128.258 9.99707V5.76707H129.077V6.50507C129.185 6.24107 129.341 6.04307 129.545 5.91107C129.755 5.77907 129.989 5.71307 130.247 5.71307C130.331 5.71307 130.406 5.71907 130.472 5.73107C130.544 5.73707 130.601 5.74907 130.643 5.76707V6.56807C130.559 6.55007 130.475 6.53807 130.391 6.53207C130.313 6.52007 130.235 6.51407 130.157 6.51407C129.857 6.51407 129.605 6.64007 129.401 6.89207C129.203 7.13807 129.104 7.49207 129.104 7.95407V9.99707H128.258ZM133.305 10.0871C132.873 10.0871 132.489 9.99707 132.153 9.81707C131.817 9.63107 131.556 9.37307 131.37 9.04307C131.184 8.71307 131.091 8.32607 131.091 7.88207C131.091 7.43807 131.184 7.05107 131.37 6.72107C131.556 6.39107 131.817 6.13607 132.153 5.95607C132.489 5.77007 132.873 5.67707 133.305 5.67707C133.743 5.67707 134.127 5.77007 134.457 5.95607C134.793 6.13607 135.054 6.39107 135.24 6.72107C135.432 7.05107 135.528 7.43807 135.528 7.88207C135.528 8.32607 135.432 8.71307 135.24 9.04307C135.054 9.37307 134.793 9.63107 134.457 9.81707C134.127 9.99707 133.743 10.0871 133.305 10.0871ZM133.305 9.34007C133.575 9.34007 133.812 9.28307 134.016 9.16907C134.22 9.04907 134.376 8.88107 134.484 8.66507C134.598 8.44307 134.655 8.18207 134.655 7.88207C134.655 7.58207 134.598 7.32407 134.484 7.10807C134.376 6.88607 134.22 6.71507 134.016 6.59507C133.812 6.47507 133.575 6.41507 133.305 6.41507C133.035 6.41507 132.798 6.47507 132.594 6.59507C132.396 6.71507 132.24 6.88607 132.126 7.10807C132.012 7.32407 131.955 7.58207 131.955 7.88207C131.955 8.18207 132.012 8.44307 132.126 8.66507C132.24 8.88107 132.396 9.04907 132.594 9.16907C132.798 9.28307 133.035 9.34007 133.305 9.34007ZM137.101 9.99707V6.48707H136.174V5.76707H137.101V5.20907C137.101 4.77107 137.206 4.45007 137.416 4.24607C137.632 4.03607 137.962 3.93107 138.406 3.93107C138.52 3.93107 138.637 3.93707 138.757 3.94907C138.877 3.96107 138.973 3.97907 139.045 4.00307V4.68707C138.991 4.67507 138.916 4.66607 138.82 4.66007C138.73 4.65407 138.649 4.65107 138.577 4.65107C138.361 4.65107 138.202 4.70507 138.1 4.81307C137.998 4.91507 137.947 5.06807 137.947 5.27207V5.76707H139.045V6.48707H137.947V9.99707H137.101ZM139.938 9.99707V5.76707H140.784V9.99707H139.938ZM140.361 4.89407C140.205 4.89407 140.079 4.84907 139.983 4.75907C139.893 4.66907 139.848 4.55207 139.848 4.40807C139.848 4.26407 139.893 4.14707 139.983 4.05707C140.079 3.96707 140.205 3.92207 140.361 3.92207C140.511 3.92207 140.634 3.96707 140.73 4.05707C140.826 4.14707 140.874 4.26407 140.874 4.40807C140.874 4.55207 140.826 4.66907 140.73 4.75907C140.634 4.84907 140.511 4.89407 140.361 4.89407ZM143.908 10.0511C143.464 10.0511 143.134 9.94907 142.918 9.74507C142.708 9.53507 142.603 9.21107 142.603 8.77307V6.48707H141.676V5.76707H142.603V4.56107H143.449V5.76707H144.547V6.48707H143.449V8.70107C143.449 8.91107 143.5 9.06707 143.602 9.16907C143.704 9.27107 143.863 9.32207 144.079 9.32207C144.151 9.32207 144.232 9.31907 144.322 9.31307C144.418 9.30707 144.493 9.29807 144.547 9.28607V9.97007C144.475 9.99407 144.379 10.0121 144.259 10.0241C144.139 10.0421 144.022 10.0511 143.908 10.0511Z" fill="#46956A"/>
</svg>
