<svg width="381" height="115" viewBox="0 0 381 115" fill="none" xmlns="http://www.w3.org/2000/svg">
<path opacity="0.05" d="M312 22.5H219L186.5 38.5L166 57H312V40V22.5Z" fill="#46956A"/>
<path opacity="0.05" d="M127 58V91L164.5 58H127Z" fill="#C75E4B"/>
<line x1="33.5" y1="2.18558e-08" x2="33.5" y2="115" stroke="#20224E"/>
<line x1="29" y1="93.5" x2="38" y2="93.5" stroke="#20224E"/>
<line x1="29" y1="22.5" x2="38" y2="22.5" stroke="#20224E"/>
<line x1="381" y1="57.5" x2="33" y2="57.5" stroke="#20224E"/>
<path d="M0.727621 93.768V93.084H3.16662V93.768H0.727621ZM5.0941 96.9L5.3011 95.982C5.0791 95.916 4.8631 95.826 4.6531 95.712C4.4491 95.598 4.2451 95.454 4.0411 95.28L4.4011 94.569C4.5931 94.725 4.7791 94.854 4.9591 94.956C5.1391 95.052 5.3161 95.13 5.4901 95.19L5.9221 93.282L5.7331 93.246C5.1991 93.144 4.8121 92.961 4.5721 92.697C4.3381 92.433 4.2211 92.112 4.2211 91.734C4.2211 91.398 4.2961 91.092 4.4461 90.816C4.5961 90.54 4.8271 90.318 5.1391 90.15C5.4511 89.982 5.8441 89.898 6.3181 89.898C6.3841 89.898 6.4471 89.901 6.5071 89.907C6.5731 89.907 6.6391 89.91 6.7051 89.916L6.8941 89.088H7.4341L7.2181 90.015C7.4101 90.063 7.5961 90.135 7.7761 90.231C7.9621 90.327 8.1421 90.444 8.3161 90.582L7.9471 91.284C7.7911 91.176 7.6381 91.083 7.4881 91.005C7.3441 90.921 7.1941 90.852 7.0381 90.798L6.6421 92.535L6.9751 92.598C7.5031 92.694 7.8871 92.895 8.1271 93.201C8.3731 93.501 8.4961 93.837 8.4961 94.209C8.4961 94.773 8.2981 95.229 7.9021 95.577C7.5121 95.919 6.9481 96.09 6.2101 96.09C6.1381 96.09 6.0691 96.087 6.0031 96.081C5.9431 96.075 5.8831 96.069 5.8231 96.063L5.6341 96.9H5.0941ZM6.0031 95.298C6.0391 95.304 6.0721 95.307 6.1021 95.307C6.1381 95.307 6.1741 95.307 6.2101 95.307C6.6481 95.307 6.9841 95.22 7.2181 95.046C7.4521 94.866 7.5691 94.617 7.5691 94.299C7.5691 94.077 7.4971 93.891 7.3531 93.741C7.2091 93.585 6.9991 93.483 6.7231 93.435L6.4441 93.381L6.0031 95.298ZM6.1201 92.436L6.5251 90.69C6.4951 90.684 6.4651 90.681 6.4351 90.681C6.4051 90.681 6.3721 90.681 6.3361 90.681C5.9401 90.681 5.6401 90.765 5.4361 90.933C5.2381 91.101 5.1391 91.329 5.1391 91.617C5.1391 91.839 5.2081 92.013 5.3461 92.139C5.4901 92.259 5.6971 92.346 5.9671 92.4L6.1201 92.436ZM11.5003 96.09C11.1823 96.09 10.8973 96.06 10.6453 96C10.3993 95.946 10.1743 95.859 9.97027 95.739C9.76627 95.613 9.56527 95.46 9.36727 95.28L9.71827 94.641C10.0183 94.893 10.3033 95.073 10.5733 95.181C10.8493 95.289 11.1283 95.343 11.4103 95.343C11.8483 95.343 12.1903 95.232 12.4363 95.01C12.6823 94.782 12.8053 94.47 12.8053 94.074C12.8053 93.678 12.6823 93.369 12.4363 93.147C12.1903 92.919 11.8483 92.805 11.4103 92.805C11.1163 92.805 10.8673 92.865 10.6633 92.985C10.4653 93.099 10.3273 93.267 10.2493 93.489L9.47527 93.345L10.0873 89.898H13.2823V90.636H10.7713L10.4383 92.445C10.5823 92.331 10.7533 92.247 10.9513 92.193C11.1493 92.133 11.3593 92.103 11.5813 92.103C12.0373 92.103 12.4243 92.187 12.7423 92.355C13.0603 92.517 13.3033 92.745 13.4713 93.039C13.6453 93.333 13.7323 93.672 13.7323 94.056C13.7323 94.44 13.6423 94.785 13.4623 95.091C13.2823 95.397 13.0243 95.64 12.6883 95.82C12.3583 96 11.9623 96.09 11.5003 96.09ZM17.0536 96.09C16.5256 96.09 16.0786 95.958 15.7126 95.694C15.3466 95.424 15.0706 95.058 14.8846 94.596C14.6986 94.128 14.6056 93.594 14.6056 92.994C14.6056 92.394 14.6986 91.863 14.8846 91.401C15.0706 90.933 15.3466 90.567 15.7126 90.303C16.0786 90.033 16.5256 89.898 17.0536 89.898C17.5876 89.898 18.0346 90.033 18.3946 90.303C18.7606 90.567 19.0366 90.933 19.2226 91.401C19.4146 91.863 19.5106 92.394 19.5106 92.994C19.5106 93.594 19.4146 94.128 19.2226 94.596C19.0366 95.058 18.7606 95.424 18.3946 95.694C18.0346 95.958 17.5876 96.09 17.0536 96.09ZM17.0536 95.343C17.3536 95.343 17.6176 95.259 17.8456 95.091C18.0796 94.917 18.2596 94.656 18.3856 94.308C18.5176 93.96 18.5836 93.522 18.5836 92.994C18.5836 92.46 18.5176 92.019 18.3856 91.671C18.2596 91.323 18.0796 91.065 17.8456 90.897C17.6176 90.723 17.3536 90.636 17.0536 90.636C16.7596 90.636 16.4956 90.723 16.2616 90.897C16.0336 91.071 15.8536 91.332 15.7216 91.68C15.5896 92.022 15.5236 92.46 15.5236 92.994C15.5236 93.522 15.5896 93.96 15.7216 94.308C15.8536 94.656 16.0336 94.917 16.2616 95.091C16.4956 95.259 16.7596 95.343 17.0536 95.343ZM22.828 96.09C22.3 96.09 21.853 95.958 21.487 95.694C21.121 95.424 20.845 95.058 20.659 94.596C20.473 94.128 20.38 93.594 20.38 92.994C20.38 92.394 20.473 91.863 20.659 91.401C20.845 90.933 21.121 90.567 21.487 90.303C21.853 90.033 22.3 89.898 22.828 89.898C23.362 89.898 23.809 90.033 24.169 90.303C24.535 90.567 24.811 90.933 24.997 91.401C25.189 91.863 25.285 92.394 25.285 92.994C25.285 93.594 25.189 94.128 24.997 94.596C24.811 95.058 24.535 95.424 24.169 95.694C23.809 95.958 23.362 96.09 22.828 96.09ZM22.828 95.343C23.128 95.343 23.392 95.259 23.62 95.091C23.854 94.917 24.034 94.656 24.16 94.308C24.292 93.96 24.358 93.522 24.358 92.994C24.358 92.46 24.292 92.019 24.16 91.671C24.034 91.323 23.854 91.065 23.62 90.897C23.392 90.723 23.128 90.636 22.828 90.636C22.534 90.636 22.27 90.723 22.036 90.897C21.808 91.071 21.628 91.332 21.496 91.68C21.364 92.022 21.298 92.46 21.298 92.994C21.298 93.522 21.364 93.96 21.496 94.308C21.628 94.656 21.808 94.917 22.036 95.091C22.27 95.259 22.534 95.343 22.828 95.343Z" fill="#747FA6"/>
<path d="M4.93736 26.9L5.14436 25.982C4.92236 25.916 4.70636 25.826 4.49636 25.712C4.29236 25.598 4.08836 25.454 3.88436 25.28L4.24436 24.569C4.43636 24.725 4.62236 24.854 4.80236 24.956C4.98236 25.052 5.15936 25.13 5.33336 25.19L5.76536 23.282L5.57636 23.246C5.04236 23.144 4.65536 22.961 4.41536 22.697C4.18136 22.433 4.06436 22.112 4.06436 21.734C4.06436 21.398 4.13936 21.092 4.28936 20.816C4.43936 20.54 4.67036 20.318 4.98236 20.15C5.29436 19.982 5.68736 19.898 6.16136 19.898C6.22736 19.898 6.29036 19.901 6.35036 19.907C6.41636 19.907 6.48236 19.91 6.54836 19.916L6.73736 19.088H7.27736L7.06136 20.015C7.25336 20.063 7.43936 20.135 7.61936 20.231C7.80536 20.327 7.98536 20.444 8.15936 20.582L7.79036 21.284C7.63436 21.176 7.48136 21.083 7.33136 21.005C7.18736 20.921 7.03736 20.852 6.88136 20.798L6.48536 22.535L6.81836 22.598C7.34636 22.694 7.73036 22.895 7.97036 23.201C8.21636 23.501 8.33936 23.837 8.33936 24.209C8.33936 24.773 8.14136 25.229 7.74536 25.577C7.35536 25.919 6.79136 26.09 6.05336 26.09C5.98136 26.09 5.91236 26.087 5.84636 26.081C5.78636 26.075 5.72636 26.069 5.66636 26.063L5.47736 26.9H4.93736ZM5.84636 25.298C5.88236 25.304 5.91536 25.307 5.94536 25.307C5.98136 25.307 6.01736 25.307 6.05336 25.307C6.49136 25.307 6.82736 25.22 7.06136 25.046C7.29536 24.866 7.41236 24.617 7.41236 24.299C7.41236 24.077 7.34036 23.891 7.19636 23.741C7.05236 23.585 6.84236 23.483 6.56636 23.435L6.28736 23.381L5.84636 25.298ZM5.96336 22.436L6.36836 20.69C6.33836 20.684 6.30836 20.681 6.27836 20.681C6.24836 20.681 6.21536 20.681 6.17936 20.681C5.78336 20.681 5.48336 20.765 5.27936 20.933C5.08136 21.101 4.98236 21.329 4.98236 21.617C4.98236 21.839 5.05136 22.013 5.18936 22.139C5.33336 22.259 5.54036 22.346 5.81036 22.4L5.96336 22.436ZM11.3435 26.09C11.0255 26.09 10.7405 26.06 10.4885 26C10.2425 25.946 10.0175 25.859 9.81353 25.739C9.60953 25.613 9.40853 25.46 9.21053 25.28L9.56153 24.641C9.86153 24.893 10.1465 25.073 10.4165 25.181C10.6925 25.289 10.9715 25.343 11.2535 25.343C11.6915 25.343 12.0335 25.232 12.2795 25.01C12.5255 24.782 12.6485 24.47 12.6485 24.074C12.6485 23.678 12.5255 23.369 12.2795 23.147C12.0335 22.919 11.6915 22.805 11.2535 22.805C10.9595 22.805 10.7105 22.865 10.5065 22.985C10.3085 23.099 10.1705 23.267 10.0925 23.489L9.31853 23.345L9.93053 19.898H13.1255V20.636H10.6145L10.2815 22.445C10.4255 22.331 10.5965 22.247 10.7945 22.193C10.9925 22.133 11.2025 22.103 11.4245 22.103C11.8805 22.103 12.2675 22.187 12.5855 22.355C12.9035 22.517 13.1465 22.745 13.3145 23.039C13.4885 23.333 13.5755 23.672 13.5755 24.056C13.5755 24.44 13.4855 24.785 13.3055 25.091C13.1255 25.397 12.8675 25.64 12.5315 25.82C12.2015 26 11.8055 26.09 11.3435 26.09ZM16.8968 26.09C16.3688 26.09 15.9218 25.958 15.5558 25.694C15.1898 25.424 14.9138 25.058 14.7278 24.596C14.5418 24.128 14.4488 23.594 14.4488 22.994C14.4488 22.394 14.5418 21.863 14.7278 21.401C14.9138 20.933 15.1898 20.567 15.5558 20.303C15.9218 20.033 16.3688 19.898 16.8968 19.898C17.4308 19.898 17.8778 20.033 18.2378 20.303C18.6038 20.567 18.8798 20.933 19.0658 21.401C19.2578 21.863 19.3538 22.394 19.3538 22.994C19.3538 23.594 19.2578 24.128 19.0658 24.596C18.8798 25.058 18.6038 25.424 18.2378 25.694C17.8778 25.958 17.4308 26.09 16.8968 26.09ZM16.8968 25.343C17.1968 25.343 17.4608 25.259 17.6888 25.091C17.9228 24.917 18.1028 24.656 18.2288 24.308C18.3608 23.96 18.4268 23.522 18.4268 22.994C18.4268 22.46 18.3608 22.019 18.2288 21.671C18.1028 21.323 17.9228 21.065 17.6888 20.897C17.4608 20.723 17.1968 20.636 16.8968 20.636C16.6028 20.636 16.3388 20.723 16.1048 20.897C15.8768 21.071 15.6968 21.332 15.5648 21.68C15.4328 22.022 15.3668 22.46 15.3668 22.994C15.3668 23.522 15.4328 23.96 15.5648 24.308C15.6968 24.656 15.8768 24.917 16.1048 25.091C16.3388 25.259 16.6028 25.343 16.8968 25.343ZM22.6712 26.09C22.1432 26.09 21.6962 25.958 21.3302 25.694C20.9642 25.424 20.6882 25.058 20.5022 24.596C20.3162 24.128 20.2232 23.594 20.2232 22.994C20.2232 22.394 20.3162 21.863 20.5022 21.401C20.6882 20.933 20.9642 20.567 21.3302 20.303C21.6962 20.033 22.1432 19.898 22.6712 19.898C23.2052 19.898 23.6522 20.033 24.0122 20.303C24.3782 20.567 24.6542 20.933 24.8402 21.401C25.0322 21.863 25.1282 22.394 25.1282 22.994C25.1282 23.594 25.0322 24.128 24.8402 24.596C24.6542 25.058 24.3782 25.424 24.0122 25.694C23.6522 25.958 23.2052 26.09 22.6712 26.09ZM22.6712 25.343C22.9712 25.343 23.2352 25.259 23.4632 25.091C23.6972 24.917 23.8772 24.656 24.0032 24.308C24.1352 23.96 24.2012 23.522 24.2012 22.994C24.2012 22.46 24.1352 22.019 24.0032 21.671C23.8772 21.323 23.6972 21.065 23.4632 20.897C23.2352 20.723 22.9712 20.636 22.6712 20.636C22.3772 20.636 22.1132 20.723 21.8792 20.897C21.6512 21.071 21.4712 21.332 21.3392 21.68C21.2072 22.022 21.1412 22.46 21.1412 22.994C21.1412 23.522 21.2072 23.96 21.3392 24.308C21.4712 24.656 21.6512 24.917 21.8792 25.091C22.1132 25.259 22.3772 25.343 22.6712 25.343Z" fill="#747FA6"/>
<line x1="126.5" y1="53" x2="126.5" y2="62" stroke="#20224E"/>
<path d="M119.688 73.9L119.895 72.982C119.673 72.916 119.457 72.826 119.247 72.712C119.043 72.598 118.839 72.454 118.635 72.28L118.995 71.569C119.187 71.725 119.373 71.854 119.553 71.956C119.733 72.052 119.91 72.13 120.084 72.19L120.516 70.282L120.327 70.246C119.793 70.144 119.406 69.961 119.166 69.697C118.932 69.433 118.815 69.112 118.815 68.734C118.815 68.398 118.89 68.092 119.04 67.816C119.19 67.54 119.421 67.318 119.733 67.15C120.045 66.982 120.438 66.898 120.912 66.898C120.978 66.898 121.041 66.901 121.101 66.907C121.167 66.907 121.233 66.91 121.299 66.916L121.488 66.088H122.028L121.812 67.015C122.004 67.063 122.19 67.135 122.37 67.231C122.556 67.327 122.736 67.444 122.91 67.582L122.541 68.284C122.385 68.176 122.232 68.083 122.082 68.005C121.938 67.921 121.788 67.852 121.632 67.798L121.236 69.535L121.569 69.598C122.097 69.694 122.481 69.895 122.721 70.201C122.967 70.501 123.09 70.837 123.09 71.209C123.09 71.773 122.892 72.229 122.496 72.577C122.106 72.919 121.542 73.09 120.804 73.09C120.732 73.09 120.663 73.087 120.597 73.081C120.537 73.075 120.477 73.069 120.417 73.063L120.228 73.9H119.688ZM120.597 72.298C120.633 72.304 120.666 72.307 120.696 72.307C120.732 72.307 120.768 72.307 120.804 72.307C121.242 72.307 121.578 72.22 121.812 72.046C122.046 71.866 122.163 71.617 122.163 71.299C122.163 71.077 122.091 70.891 121.947 70.741C121.803 70.585 121.593 70.483 121.317 70.435L121.038 70.381L120.597 72.298ZM120.714 69.436L121.119 67.69C121.089 67.684 121.059 67.681 121.029 67.681C120.999 67.681 120.966 67.681 120.93 67.681C120.534 67.681 120.234 67.765 120.03 67.933C119.832 68.101 119.733 68.329 119.733 68.617C119.733 68.839 119.802 69.013 119.94 69.139C120.084 69.259 120.291 69.346 120.561 69.4L120.714 69.436ZM125.987 73.09C125.603 73.09 125.252 73.021 124.934 72.883C124.622 72.739 124.352 72.538 124.124 72.28L124.466 71.686C124.7 71.908 124.937 72.073 125.177 72.181C125.417 72.289 125.66 72.343 125.906 72.343C126.224 72.343 126.512 72.271 126.77 72.127C127.034 71.977 127.244 71.743 127.4 71.425C127.562 71.107 127.652 70.693 127.67 70.183C127.52 70.399 127.31 70.57 127.04 70.696C126.776 70.822 126.464 70.885 126.104 70.885C125.654 70.885 125.267 70.801 124.943 70.633C124.625 70.465 124.382 70.234 124.214 69.94C124.046 69.646 123.962 69.307 123.962 68.923C123.962 68.539 124.052 68.194 124.232 67.888C124.412 67.582 124.667 67.342 124.997 67.168C125.333 66.988 125.729 66.898 126.185 66.898C126.683 66.898 127.109 66.997 127.463 67.195C127.823 67.393 128.102 67.693 128.3 68.095C128.498 68.497 128.597 69.01 128.597 69.634C128.597 70.324 128.501 70.93 128.309 71.452C128.117 71.968 127.829 72.37 127.445 72.658C127.061 72.946 126.575 73.09 125.987 73.09ZM126.275 70.183C126.713 70.183 127.055 70.072 127.301 69.85C127.547 69.622 127.67 69.31 127.67 68.914C127.61 68.536 127.469 68.23 127.247 67.996C127.025 67.756 126.701 67.636 126.275 67.636C125.843 67.636 125.501 67.75 125.249 67.978C125.003 68.206 124.88 68.515 124.88 68.905C124.88 69.307 125.003 69.622 125.249 69.85C125.501 70.072 125.843 70.183 126.275 70.183ZM131.92 73.09C131.392 73.09 130.945 72.958 130.579 72.694C130.213 72.424 129.937 72.058 129.751 71.596C129.565 71.128 129.472 70.594 129.472 69.994C129.472 69.394 129.565 68.863 129.751 68.401C129.937 67.933 130.213 67.567 130.579 67.303C130.945 67.033 131.392 66.898 131.92 66.898C132.454 66.898 132.901 67.033 133.261 67.303C133.627 67.567 133.903 67.933 134.089 68.401C134.281 68.863 134.377 69.394 134.377 69.994C134.377 70.594 134.281 71.128 134.089 71.596C133.903 72.058 133.627 72.424 133.261 72.694C132.901 72.958 132.454 73.09 131.92 73.09ZM131.92 72.343C132.22 72.343 132.484 72.259 132.712 72.091C132.946 71.917 133.126 71.656 133.252 71.308C133.384 70.96 133.45 70.522 133.45 69.994C133.45 69.46 133.384 69.019 133.252 68.671C133.126 68.323 132.946 68.065 132.712 67.897C132.484 67.723 132.22 67.636 131.92 67.636C131.626 67.636 131.362 67.723 131.128 67.897C130.9 68.071 130.72 68.332 130.588 68.68C130.456 69.022 130.39 69.46 130.39 69.994C130.39 70.522 130.456 70.96 130.588 71.308C130.72 71.656 130.9 71.917 131.128 72.091C131.362 72.259 131.626 72.343 131.92 72.343Z" fill="#747FA6"/>
<line x1="219.5" y1="53" x2="219.5" y2="62" stroke="#20224E"/>
<path d="M209.799 73.9L210.006 72.982C209.784 72.916 209.568 72.826 209.358 72.712C209.154 72.598 208.95 72.454 208.746 72.28L209.106 71.569C209.298 71.725 209.484 71.854 209.664 71.956C209.844 72.052 210.021 72.13 210.195 72.19L210.627 70.282L210.438 70.246C209.904 70.144 209.517 69.961 209.277 69.697C209.043 69.433 208.926 69.112 208.926 68.734C208.926 68.398 209.001 68.092 209.151 67.816C209.301 67.54 209.532 67.318 209.844 67.15C210.156 66.982 210.549 66.898 211.023 66.898C211.089 66.898 211.152 66.901 211.212 66.907C211.278 66.907 211.344 66.91 211.41 66.916L211.599 66.088H212.139L211.923 67.015C212.115 67.063 212.301 67.135 212.481 67.231C212.667 67.327 212.847 67.444 213.021 67.582L212.652 68.284C212.496 68.176 212.343 68.083 212.193 68.005C212.049 67.921 211.899 67.852 211.743 67.798L211.347 69.535L211.68 69.598C212.208 69.694 212.592 69.895 212.832 70.201C213.078 70.501 213.201 70.837 213.201 71.209C213.201 71.773 213.003 72.229 212.607 72.577C212.217 72.919 211.653 73.09 210.915 73.09C210.843 73.09 210.774 73.087 210.708 73.081C210.648 73.075 210.588 73.069 210.528 73.063L210.339 73.9H209.799ZM210.708 72.298C210.744 72.304 210.777 72.307 210.807 72.307C210.843 72.307 210.879 72.307 210.915 72.307C211.353 72.307 211.689 72.22 211.923 72.046C212.157 71.866 212.274 71.617 212.274 71.299C212.274 71.077 212.202 70.891 212.058 70.741C211.914 70.585 211.704 70.483 211.428 70.435L211.149 70.381L210.708 72.298ZM210.825 69.436L211.23 67.69C211.2 67.684 211.17 67.681 211.14 67.681C211.11 67.681 211.077 67.681 211.041 67.681C210.645 67.681 210.345 67.765 210.141 67.933C209.943 68.101 209.844 68.329 209.844 68.617C209.844 68.839 209.913 69.013 210.051 69.139C210.195 69.259 210.402 69.346 210.672 69.4L210.825 69.436ZM215.539 73V67.96L214.243 68.671L213.892 67.978L215.773 66.988H216.439V73H215.539ZM220.035 73.09C219.507 73.09 219.06 72.958 218.694 72.694C218.328 72.424 218.052 72.058 217.866 71.596C217.68 71.128 217.587 70.594 217.587 69.994C217.587 69.394 217.68 68.863 217.866 68.401C218.052 67.933 218.328 67.567 218.694 67.303C219.06 67.033 219.507 66.898 220.035 66.898C220.569 66.898 221.016 67.033 221.376 67.303C221.742 67.567 222.018 67.933 222.204 68.401C222.396 68.863 222.492 69.394 222.492 69.994C222.492 70.594 222.396 71.128 222.204 71.596C222.018 72.058 221.742 72.424 221.376 72.694C221.016 72.958 220.569 73.09 220.035 73.09ZM220.035 72.343C220.335 72.343 220.599 72.259 220.827 72.091C221.061 71.917 221.241 71.656 221.367 71.308C221.499 70.96 221.565 70.522 221.565 69.994C221.565 69.46 221.499 69.019 221.367 68.671C221.241 68.323 221.061 68.065 220.827 67.897C220.599 67.723 220.335 67.636 220.035 67.636C219.741 67.636 219.477 67.723 219.243 67.897C219.015 68.071 218.835 68.332 218.703 68.68C218.571 69.022 218.505 69.46 218.505 69.994C218.505 70.522 218.571 70.96 218.703 71.308C218.835 71.656 219.015 71.917 219.243 72.091C219.477 72.259 219.741 72.343 220.035 72.343ZM225.81 73.09C225.282 73.09 224.835 72.958 224.469 72.694C224.103 72.424 223.827 72.058 223.641 71.596C223.455 71.128 223.362 70.594 223.362 69.994C223.362 69.394 223.455 68.863 223.641 68.401C223.827 67.933 224.103 67.567 224.469 67.303C224.835 67.033 225.282 66.898 225.81 66.898C226.344 66.898 226.791 67.033 227.151 67.303C227.517 67.567 227.793 67.933 227.979 68.401C228.171 68.863 228.267 69.394 228.267 69.994C228.267 70.594 228.171 71.128 227.979 71.596C227.793 72.058 227.517 72.424 227.151 72.694C226.791 72.958 226.344 73.09 225.81 73.09ZM225.81 72.343C226.11 72.343 226.374 72.259 226.602 72.091C226.836 71.917 227.016 71.656 227.142 71.308C227.274 70.96 227.34 70.522 227.34 69.994C227.34 69.46 227.274 69.019 227.142 68.671C227.016 68.323 226.836 68.065 226.602 67.897C226.374 67.723 226.11 67.636 225.81 67.636C225.516 67.636 225.252 67.723 225.018 67.897C224.79 68.071 224.61 68.332 224.478 68.68C224.346 69.022 224.28 69.46 224.28 69.994C224.28 70.522 224.346 70.96 224.478 71.308C224.61 71.656 224.79 71.917 225.018 72.091C225.252 72.259 225.516 72.343 225.81 72.343Z" fill="#747FA6"/>
<line x1="312.5" y1="53" x2="312.5" y2="62" stroke="#20224E"/>
<path d="M303.928 73.9L304.135 72.982C303.913 72.916 303.697 72.826 303.487 72.712C303.283 72.598 303.079 72.454 302.875 72.28L303.235 71.569C303.427 71.725 303.613 71.854 303.793 71.956C303.973 72.052 304.15 72.13 304.324 72.19L304.756 70.282L304.567 70.246C304.033 70.144 303.646 69.961 303.406 69.697C303.172 69.433 303.055 69.112 303.055 68.734C303.055 68.398 303.13 68.092 303.28 67.816C303.43 67.54 303.661 67.318 303.973 67.15C304.285 66.982 304.678 66.898 305.152 66.898C305.218 66.898 305.281 66.901 305.341 66.907C305.407 66.907 305.473 66.91 305.539 66.916L305.728 66.088H306.268L306.052 67.015C306.244 67.063 306.43 67.135 306.61 67.231C306.796 67.327 306.976 67.444 307.15 67.582L306.781 68.284C306.625 68.176 306.472 68.083 306.322 68.005C306.178 67.921 306.028 67.852 305.872 67.798L305.476 69.535L305.809 69.598C306.337 69.694 306.721 69.895 306.961 70.201C307.207 70.501 307.33 70.837 307.33 71.209C307.33 71.773 307.132 72.229 306.736 72.577C306.346 72.919 305.782 73.09 305.044 73.09C304.972 73.09 304.903 73.087 304.837 73.081C304.777 73.075 304.717 73.069 304.657 73.063L304.468 73.9H303.928ZM304.837 72.298C304.873 72.304 304.906 72.307 304.936 72.307C304.972 72.307 305.008 72.307 305.044 72.307C305.482 72.307 305.818 72.22 306.052 72.046C306.286 71.866 306.403 71.617 306.403 71.299C306.403 71.077 306.331 70.891 306.187 70.741C306.043 70.585 305.833 70.483 305.557 70.435L305.278 70.381L304.837 72.298ZM304.954 69.436L305.359 67.69C305.329 67.684 305.299 67.681 305.269 67.681C305.239 67.681 305.206 67.681 305.17 67.681C304.774 67.681 304.474 67.765 304.27 67.933C304.072 68.101 303.973 68.329 303.973 68.617C303.973 68.839 304.042 69.013 304.18 69.139C304.324 69.259 304.531 69.346 304.801 69.4L304.954 69.436ZM309.668 73V67.96L308.372 68.671L308.021 67.978L309.902 66.988H310.568V73H309.668ZM313.184 73V67.96L311.888 68.671L311.537 67.978L313.418 66.988H314.084V73H313.184ZM317.681 73.09C317.153 73.09 316.706 72.958 316.34 72.694C315.974 72.424 315.698 72.058 315.512 71.596C315.326 71.128 315.233 70.594 315.233 69.994C315.233 69.394 315.326 68.863 315.512 68.401C315.698 67.933 315.974 67.567 316.34 67.303C316.706 67.033 317.153 66.898 317.681 66.898C318.215 66.898 318.662 67.033 319.022 67.303C319.388 67.567 319.664 67.933 319.85 68.401C320.042 68.863 320.138 69.394 320.138 69.994C320.138 70.594 320.042 71.128 319.85 71.596C319.664 72.058 319.388 72.424 319.022 72.694C318.662 72.958 318.215 73.09 317.681 73.09ZM317.681 72.343C317.981 72.343 318.245 72.259 318.473 72.091C318.707 71.917 318.887 71.656 319.013 71.308C319.145 70.96 319.211 70.522 319.211 69.994C319.211 69.46 319.145 69.019 319.013 68.671C318.887 68.323 318.707 68.065 318.473 67.897C318.245 67.723 317.981 67.636 317.681 67.636C317.387 67.636 317.123 67.723 316.889 67.897C316.661 68.071 316.481 68.332 316.349 68.68C316.217 69.022 316.151 69.46 316.151 69.994C316.151 70.522 316.217 70.96 316.349 71.308C316.481 71.656 316.661 71.917 316.889 72.091C317.123 72.259 317.387 72.343 317.681 72.343Z" fill="#747FA6"/>
<path d="M91.711 45V38.988H94.492C94.966 38.988 95.359 39.042 95.671 39.15C95.989 39.252 96.229 39.417 96.391 39.645C96.553 39.873 96.634 40.173 96.634 40.545C96.634 40.899 96.559 41.187 96.409 41.409C96.265 41.631 96.022 41.793 95.68 41.895C96.082 41.991 96.37 42.159 96.544 42.399C96.724 42.639 96.814 42.954 96.814 43.344C96.814 43.938 96.622 44.364 96.238 44.622C95.86 44.874 95.278 45 94.492 45H91.711ZM92.611 44.235H94.366C94.744 44.235 95.044 44.202 95.266 44.136C95.488 44.07 95.647 43.965 95.743 43.821C95.839 43.677 95.887 43.488 95.887 43.254C95.887 43.014 95.839 42.822 95.743 42.678C95.647 42.534 95.488 42.429 95.266 42.363C95.044 42.297 94.744 42.264 94.366 42.264H92.611V44.235ZM92.611 41.535H94.366C94.864 41.535 95.212 41.469 95.41 41.337C95.608 41.205 95.707 40.974 95.707 40.644C95.707 40.308 95.608 40.074 95.41 39.942C95.212 39.81 94.864 39.744 94.366 39.744H92.611V41.535ZM97.924 45V40.77H98.743V41.508C98.851 41.244 99.007 41.046 99.211 40.914C99.421 40.782 99.655 40.716 99.913 40.716C99.997 40.716 100.072 40.722 100.138 40.734C100.21 40.74 100.267 40.752 100.309 40.77V41.571C100.225 41.553 100.141 41.541 100.057 41.535C99.979 41.523 99.901 41.517 99.823 41.517C99.523 41.517 99.271 41.643 99.067 41.895C98.869 42.141 98.77 42.495 98.77 42.957V45H97.924ZM103.007 45.09C102.581 45.09 102.197 45.006 101.855 44.838C101.519 44.664 101.252 44.415 101.054 44.091C100.856 43.761 100.757 43.359 100.757 42.885C100.757 42.435 100.85 42.045 101.036 41.715C101.228 41.385 101.483 41.13 101.801 40.95C102.125 40.77 102.485 40.68 102.881 40.68C103.301 40.68 103.661 40.761 103.961 40.923C104.267 41.079 104.504 41.295 104.672 41.571C104.84 41.847 104.924 42.159 104.924 42.507C104.924 42.609 104.909 42.72 104.879 42.84C104.855 42.96 104.819 43.056 104.771 43.128H101.621C101.651 43.392 101.729 43.617 101.855 43.803C101.981 43.989 102.149 44.13 102.359 44.226C102.569 44.316 102.812 44.361 103.088 44.361C103.364 44.361 103.607 44.319 103.817 44.235C104.033 44.151 104.24 44.031 104.438 43.875L104.744 44.505C104.51 44.697 104.246 44.844 103.952 44.946C103.664 45.042 103.349 45.09 103.007 45.09ZM101.621 42.471H104.042C104.048 42.459 104.051 42.447 104.051 42.435C104.051 42.417 104.051 42.399 104.051 42.381C104.051 42.183 104.009 42.012 103.925 41.868C103.841 41.718 103.715 41.601 103.547 41.517C103.379 41.433 103.166 41.391 102.908 41.391C102.704 41.391 102.512 41.436 102.332 41.526C102.158 41.61 102.008 41.733 101.882 41.895C101.762 42.051 101.675 42.243 101.621 42.471ZM107.369 45.09C107.057 45.09 106.781 45.042 106.541 44.946C106.307 44.844 106.124 44.7 105.992 44.514C105.86 44.322 105.794 44.091 105.794 43.821C105.794 43.551 105.86 43.329 105.992 43.155C106.124 42.975 106.31 42.834 106.55 42.732C106.79 42.624 107.063 42.552 107.369 42.516L108.863 42.336C108.827 42.018 108.707 41.784 108.503 41.634C108.299 41.484 108.047 41.409 107.747 41.409C107.543 41.409 107.33 41.451 107.108 41.535C106.892 41.613 106.661 41.739 106.415 41.913L106.1 41.274C106.334 41.088 106.592 40.944 106.874 40.842C107.162 40.734 107.459 40.68 107.765 40.68C108.407 40.68 108.893 40.827 109.223 41.121C109.559 41.409 109.727 41.844 109.727 42.426V45H108.908V44.388C108.752 44.622 108.542 44.799 108.278 44.919C108.02 45.033 107.717 45.09 107.369 45.09ZM107.567 44.37C107.849 44.37 108.086 44.316 108.278 44.208C108.476 44.094 108.623 43.944 108.719 43.758C108.821 43.572 108.872 43.377 108.872 43.173V42.984L107.612 43.146C107.3 43.188 107.063 43.257 106.901 43.353C106.739 43.443 106.658 43.59 106.658 43.794C106.658 43.98 106.739 44.124 106.901 44.226C107.063 44.322 107.285 44.37 107.567 44.37ZM111.064 45V38.988H111.91V42.759L113.908 40.77H114.943L113.179 42.498L115.033 45H113.998L112.585 43.083L111.91 43.74V45H111.064ZM114.969 42.768V42.084H117.408V42.768H114.969ZM118.553 45V38.988H122.72V39.762H119.453V41.535H122.45V42.273H119.453V44.226H122.72V45H118.553ZM125.111 45L123.419 40.77H124.328L125.579 44.118L126.83 40.77H127.748L126.047 45H125.111ZM130.289 45.09C129.863 45.09 129.479 45.006 129.137 44.838C128.801 44.664 128.534 44.415 128.336 44.091C128.138 43.761 128.039 43.359 128.039 42.885C128.039 42.435 128.132 42.045 128.318 41.715C128.51 41.385 128.765 41.13 129.083 40.95C129.407 40.77 129.767 40.68 130.163 40.68C130.583 40.68 130.943 40.761 131.243 40.923C131.549 41.079 131.786 41.295 131.954 41.571C132.122 41.847 132.206 42.159 132.206 42.507C132.206 42.609 132.191 42.72 132.161 42.84C132.137 42.96 132.101 43.056 132.053 43.128H128.903C128.933 43.392 129.011 43.617 129.137 43.803C129.263 43.989 129.431 44.13 129.641 44.226C129.851 44.316 130.094 44.361 130.37 44.361C130.646 44.361 130.889 44.319 131.099 44.235C131.315 44.151 131.522 44.031 131.72 43.875L132.026 44.505C131.792 44.697 131.528 44.844 131.234 44.946C130.946 45.042 130.631 45.09 130.289 45.09ZM128.903 42.471H131.324C131.33 42.459 131.333 42.447 131.333 42.435C131.333 42.417 131.333 42.399 131.333 42.381C131.333 42.183 131.291 42.012 131.207 41.868C131.123 41.718 130.997 41.601 130.829 41.517C130.661 41.433 130.448 41.391 130.19 41.391C129.986 41.391 129.794 41.436 129.614 41.526C129.44 41.61 129.29 41.733 129.164 41.895C129.044 42.051 128.957 42.243 128.903 42.471ZM133.309 45V40.77H134.128V41.4C134.254 41.178 134.434 41.004 134.668 40.878C134.908 40.746 135.199 40.68 135.541 40.68C136.027 40.68 136.408 40.818 136.684 41.094C136.96 41.37 137.098 41.802 137.098 42.39V45H136.243V42.498C136.243 42.12 136.165 41.847 136.009 41.679C135.859 41.505 135.628 41.418 135.316 41.418C134.95 41.418 134.665 41.544 134.461 41.796C134.257 42.048 134.155 42.393 134.155 42.831V45H133.309ZM141.432 45.9L141.639 44.982C141.417 44.916 141.201 44.826 140.991 44.712C140.787 44.598 140.583 44.454 140.379 44.28L140.739 43.569C140.931 43.725 141.117 43.854 141.297 43.956C141.477 44.052 141.654 44.13 141.828 44.19L142.26 42.282L142.071 42.246C141.537 42.144 141.15 41.961 140.91 41.697C140.676 41.433 140.559 41.112 140.559 40.734C140.559 40.398 140.634 40.092 140.784 39.816C140.934 39.54 141.165 39.318 141.477 39.15C141.789 38.982 142.182 38.898 142.656 38.898C142.722 38.898 142.785 38.901 142.845 38.907C142.911 38.907 142.977 38.91 143.043 38.916L143.232 38.088H143.772L143.556 39.015C143.748 39.063 143.934 39.135 144.114 39.231C144.3 39.327 144.48 39.444 144.654 39.582L144.285 40.284C144.129 40.176 143.976 40.083 143.826 40.005C143.682 39.921 143.532 39.852 143.376 39.798L142.98 41.535L143.313 41.598C143.841 41.694 144.225 41.895 144.465 42.201C144.711 42.501 144.834 42.837 144.834 43.209C144.834 43.773 144.636 44.229 144.24 44.577C143.85 44.919 143.286 45.09 142.548 45.09C142.476 45.09 142.407 45.087 142.341 45.081C142.281 45.075 142.221 45.069 142.161 45.063L141.972 45.9H141.432ZM142.341 44.298C142.377 44.304 142.41 44.307 142.44 44.307C142.476 44.307 142.512 44.307 142.548 44.307C142.986 44.307 143.322 44.22 143.556 44.046C143.79 43.866 143.907 43.617 143.907 43.299C143.907 43.077 143.835 42.891 143.691 42.741C143.547 42.585 143.337 42.483 143.061 42.435L142.782 42.381L142.341 44.298ZM142.458 41.436L142.863 39.69C142.833 39.684 142.803 39.681 142.773 39.681C142.743 39.681 142.71 39.681 142.674 39.681C142.278 39.681 141.978 39.765 141.774 39.933C141.576 40.101 141.477 40.329 141.477 40.617C141.477 40.839 141.546 41.013 141.684 41.139C141.828 41.259 142.035 41.346 142.305 41.4L142.458 41.436ZM147.73 45.09C147.346 45.09 146.995 45.021 146.677 44.883C146.365 44.739 146.095 44.538 145.867 44.28L146.209 43.686C146.443 43.908 146.68 44.073 146.92 44.181C147.16 44.289 147.403 44.343 147.649 44.343C147.967 44.343 148.255 44.271 148.513 44.127C148.777 43.977 148.987 43.743 149.143 43.425C149.305 43.107 149.395 42.693 149.413 42.183C149.263 42.399 149.053 42.57 148.783 42.696C148.519 42.822 148.207 42.885 147.847 42.885C147.397 42.885 147.01 42.801 146.686 42.633C146.368 42.465 146.125 42.234 145.957 41.94C145.789 41.646 145.705 41.307 145.705 40.923C145.705 40.539 145.795 40.194 145.975 39.888C146.155 39.582 146.41 39.342 146.74 39.168C147.076 38.988 147.472 38.898 147.928 38.898C148.426 38.898 148.852 38.997 149.206 39.195C149.566 39.393 149.845 39.693 150.043 40.095C150.241 40.497 150.34 41.01 150.34 41.634C150.34 42.324 150.244 42.93 150.052 43.452C149.86 43.968 149.572 44.37 149.188 44.658C148.804 44.946 148.318 45.09 147.73 45.09ZM148.018 42.183C148.456 42.183 148.798 42.072 149.044 41.85C149.29 41.622 149.413 41.31 149.413 40.914C149.353 40.536 149.212 40.23 148.99 39.996C148.768 39.756 148.444 39.636 148.018 39.636C147.586 39.636 147.244 39.75 146.992 39.978C146.746 40.206 146.623 40.515 146.623 40.905C146.623 41.307 146.746 41.622 146.992 41.85C147.244 42.072 147.586 42.183 148.018 42.183ZM153.348 45.09C153.03 45.09 152.745 45.06 152.493 45C152.247 44.946 152.022 44.859 151.818 44.739C151.614 44.613 151.413 44.46 151.215 44.28L151.566 43.641C151.866 43.893 152.151 44.073 152.421 44.181C152.697 44.289 152.976 44.343 153.258 44.343C153.696 44.343 154.038 44.232 154.284 44.01C154.53 43.782 154.653 43.47 154.653 43.074C154.653 42.678 154.53 42.369 154.284 42.147C154.038 41.919 153.696 41.805 153.258 41.805C152.964 41.805 152.715 41.865 152.511 41.985C152.313 42.099 152.175 42.267 152.097 42.489L151.323 42.345L151.935 38.898H155.13V39.636H152.619L152.286 41.445C152.43 41.331 152.601 41.247 152.799 41.193C152.997 41.133 153.207 41.103 153.429 41.103C153.885 41.103 154.272 41.187 154.59 41.355C154.908 41.517 155.151 41.745 155.319 42.039C155.493 42.333 155.58 42.672 155.58 43.056C155.58 43.44 155.49 43.785 155.31 44.091C155.13 44.397 154.872 44.64 154.536 44.82C154.206 45 153.81 45.09 153.348 45.09Z" fill="#747FA6"/>
<path d="M157.177 46.8232C157.079 46.7256 156.921 46.7256 156.823 46.8232C156.726 46.9209 156.726 47.0791 156.823 47.1768L157.177 46.8232ZM162.657 52.9069C162.795 52.9069 162.907 52.7949 162.907 52.6569L162.907 50.4069C162.907 50.2688 162.795 50.1569 162.657 50.1569C162.519 50.1569 162.407 50.2688 162.407 50.4069L162.407 52.4069L160.407 52.4069C160.269 52.4069 160.157 52.5188 160.157 52.6569C160.157 52.7949 160.269 52.9069 160.407 52.9069L162.657 52.9069ZM156.823 47.1768L162.48 52.8336L162.834 52.4801L157.177 46.8232L156.823 47.1768Z" fill="#747FA6"/>
<path d="M127 91L128.841 85.528L132.66 89.8585L127 91ZM165.276 57.2519L164.945 56.8768L164.946 56.8763L165.276 57.2519ZM219 22.5L218.778 22.052L218.883 22H219V22.5ZM312 22.5L307 25.3867V19.6133L312 22.5ZM186.483 38.6148L186.153 38.2392L186.202 38.1959L186.261 38.1668L186.483 38.6148ZM130.045 87.6489L164.945 56.8768L165.607 57.6269L130.706 88.399L130.045 87.6489ZM219 22H307.5V23H219V22ZM164.946 56.8763L186.153 38.2392L186.813 38.9904L165.606 57.6274L164.946 56.8763ZM186.261 38.1668L218.778 22.052L219.222 22.948L186.705 39.0628L186.261 38.1668Z" fill="#46956A"/>
<path d="M127 91L128.841 85.528L132.66 89.8585L127 91ZM130.045 87.6489L164.945 56.8768L165.607 57.6269L130.706 88.399L130.045 87.6489Z" fill="#C75E4B"/>
<line x1="41.5" y1="22.5" x2="212.5" y2="22.5" stroke="#46956A" stroke-linecap="round" stroke-dasharray="2 2"/>
<path d="M106.805 16V9.988H108.227L110.162 14.884L112.106 9.988H113.528V16H112.619V10.879L110.558 16H109.766L107.705 10.879V16H106.805ZM116.258 16.09C115.946 16.09 115.67 16.042 115.43 15.946C115.196 15.844 115.013 15.7 114.881 15.514C114.749 15.322 114.683 15.091 114.683 14.821C114.683 14.551 114.749 14.329 114.881 14.155C115.013 13.975 115.199 13.834 115.439 13.732C115.679 13.624 115.952 13.552 116.258 13.516L117.752 13.336C117.716 13.018 117.596 12.784 117.392 12.634C117.188 12.484 116.936 12.409 116.636 12.409C116.432 12.409 116.219 12.451 115.997 12.535C115.781 12.613 115.55 12.739 115.304 12.913L114.989 12.274C115.223 12.088 115.481 11.944 115.763 11.842C116.051 11.734 116.348 11.68 116.654 11.68C117.296 11.68 117.782 11.827 118.112 12.121C118.448 12.409 118.616 12.844 118.616 13.426V16H117.797V15.388C117.641 15.622 117.431 15.799 117.167 15.919C116.909 16.033 116.606 16.09 116.258 16.09ZM116.456 15.37C116.738 15.37 116.975 15.316 117.167 15.208C117.365 15.094 117.512 14.944 117.608 14.758C117.71 14.572 117.761 14.377 117.761 14.173V13.984L116.501 14.146C116.189 14.188 115.952 14.257 115.79 14.353C115.628 14.443 115.547 14.59 115.547 14.794C115.547 14.98 115.628 15.124 115.79 15.226C115.952 15.322 116.174 15.37 116.456 15.37ZM119.09 16L120.71 13.813L119.18 11.77H120.161L121.25 13.291L122.348 11.77H123.329L121.799 13.813L123.419 16H122.438L121.25 14.389L120.071 16H119.09ZM126.528 16V9.988H128.922C129.66 9.988 130.215 10.144 130.587 10.456C130.959 10.768 131.145 11.242 131.145 11.878C131.145 12.514 130.959 12.988 130.587 13.3C130.215 13.606 129.66 13.759 128.922 13.759H127.428V16H126.528ZM127.428 13.003H128.751C129.231 13.003 129.597 12.919 129.849 12.751C130.101 12.583 130.227 12.292 130.227 11.878C130.227 11.458 130.104 11.164 129.858 10.996C129.618 10.828 129.249 10.744 128.751 10.744H127.428V13.003ZM132.258 16V11.77H133.077V12.508C133.185 12.244 133.341 12.046 133.545 11.914C133.755 11.782 133.989 11.716 134.247 11.716C134.331 11.716 134.406 11.722 134.472 11.734C134.544 11.74 134.601 11.752 134.643 11.77V12.571C134.559 12.553 134.475 12.541 134.391 12.535C134.313 12.523 134.235 12.517 134.157 12.517C133.857 12.517 133.605 12.643 133.401 12.895C133.203 13.141 133.104 13.495 133.104 13.957V16H132.258ZM137.305 16.09C136.873 16.09 136.489 16 136.153 15.82C135.817 15.634 135.556 15.376 135.37 15.046C135.184 14.716 135.091 14.329 135.091 13.885C135.091 13.441 135.184 13.054 135.37 12.724C135.556 12.394 135.817 12.139 136.153 11.959C136.489 11.773 136.873 11.68 137.305 11.68C137.743 11.68 138.127 11.773 138.457 11.959C138.793 12.139 139.054 12.394 139.24 12.724C139.432 13.054 139.528 13.441 139.528 13.885C139.528 14.329 139.432 14.716 139.24 15.046C139.054 15.376 138.793 15.634 138.457 15.82C138.127 16 137.743 16.09 137.305 16.09ZM137.305 15.343C137.575 15.343 137.812 15.286 138.016 15.172C138.22 15.052 138.376 14.884 138.484 14.668C138.598 14.446 138.655 14.185 138.655 13.885C138.655 13.585 138.598 13.327 138.484 13.111C138.376 12.889 138.22 12.718 138.016 12.598C137.812 12.478 137.575 12.418 137.305 12.418C137.035 12.418 136.798 12.478 136.594 12.598C136.396 12.718 136.24 12.889 136.126 13.111C136.012 13.327 135.955 13.585 135.955 13.885C135.955 14.185 136.012 14.446 136.126 14.668C136.24 14.884 136.396 15.052 136.594 15.172C136.798 15.286 137.035 15.343 137.305 15.343ZM141.101 16V12.49H140.174V11.77H141.101V11.212C141.101 10.774 141.206 10.453 141.416 10.249C141.632 10.039 141.962 9.934 142.406 9.934C142.52 9.934 142.637 9.94 142.757 9.952C142.877 9.964 142.973 9.982 143.045 10.006V10.69C142.991 10.678 142.916 10.669 142.82 10.663C142.73 10.657 142.649 10.654 142.577 10.654C142.361 10.654 142.202 10.708 142.1 10.816C141.998 10.918 141.947 11.071 141.947 11.275V11.77H143.045V12.49H141.947V16H141.101ZM143.938 16V11.77H144.784V16H143.938ZM144.361 10.897C144.205 10.897 144.079 10.852 143.983 10.762C143.893 10.672 143.848 10.555 143.848 10.411C143.848 10.267 143.893 10.15 143.983 10.06C144.079 9.97 144.205 9.925 144.361 9.925C144.511 9.925 144.634 9.97 144.73 10.06C144.826 10.15 144.874 10.267 144.874 10.411C144.874 10.555 144.826 10.672 144.73 10.762C144.634 10.852 144.511 10.897 144.361 10.897ZM147.908 16.054C147.464 16.054 147.134 15.952 146.918 15.748C146.708 15.538 146.603 15.214 146.603 14.776V12.49H145.676V11.77H146.603V10.564H147.449V11.77H148.547V12.49H147.449V14.704C147.449 14.914 147.5 15.07 147.602 15.172C147.704 15.274 147.863 15.325 148.079 15.325C148.151 15.325 148.232 15.322 148.322 15.316C148.418 15.31 148.493 15.301 148.547 15.289V15.973C148.475 15.997 148.379 16.015 148.259 16.027C148.139 16.045 148.022 16.054 147.908 16.054Z" fill="#46956A"/>
<path d="M144.383 93.09C143.603 93.09 142.985 92.883 142.529 92.469C142.079 92.055 141.854 91.416 141.854 90.552V86.988H142.754V90.552C142.754 90.954 142.817 91.284 142.943 91.542C143.075 91.8 143.261 91.989 143.501 92.109C143.747 92.229 144.041 92.289 144.383 92.289C144.725 92.289 145.016 92.229 145.256 92.109C145.502 91.989 145.688 91.8 145.814 91.542C145.946 91.284 146.012 90.954 146.012 90.552V86.988H146.921V90.552C146.921 91.416 146.693 92.055 146.237 92.469C145.787 92.883 145.169 93.09 144.383 93.09ZM148.295 93V88.77H149.114V89.4C149.24 89.178 149.42 89.004 149.654 88.878C149.894 88.746 150.185 88.68 150.527 88.68C151.013 88.68 151.394 88.818 151.67 89.094C151.946 89.37 152.084 89.802 152.084 90.39V93H151.229V90.498C151.229 90.12 151.151 89.847 150.995 89.679C150.845 89.505 150.614 89.418 150.302 89.418C149.936 89.418 149.651 89.544 149.447 89.796C149.243 90.048 149.141 90.393 149.141 90.831V93H148.295ZM153.428 93V86.988H154.274V93H153.428ZM155.625 93V88.77H156.471V93H155.625ZM156.048 87.897C155.892 87.897 155.766 87.852 155.67 87.762C155.58 87.672 155.535 87.555 155.535 87.411C155.535 87.267 155.58 87.15 155.67 87.06C155.766 86.97 155.892 86.925 156.048 86.925C156.198 86.925 156.321 86.97 156.417 87.06C156.513 87.15 156.561 87.267 156.561 87.411C156.561 87.555 156.513 87.672 156.417 87.762C156.321 87.852 156.198 87.897 156.048 87.897ZM157.822 93V88.77H158.641V89.328C158.761 89.124 158.926 88.965 159.136 88.851C159.346 88.737 159.601 88.68 159.901 88.68C160.207 88.68 160.465 88.746 160.675 88.878C160.891 89.004 161.053 89.181 161.161 89.409C161.293 89.169 161.479 88.989 161.719 88.869C161.965 88.743 162.25 88.68 162.574 88.68C163.048 88.68 163.423 88.818 163.699 89.094C163.975 89.37 164.113 89.802 164.113 90.39V93H163.258V90.498C163.258 90.12 163.183 89.847 163.033 89.679C162.889 89.505 162.676 89.418 162.394 89.418C162.064 89.418 161.812 89.544 161.638 89.796C161.47 90.048 161.386 90.393 161.386 90.831V93H160.531V90.498C160.531 90.12 160.456 89.847 160.306 89.679C160.162 89.505 159.952 89.418 159.676 89.418C159.346 89.418 159.094 89.544 158.92 89.796C158.752 90.048 158.668 90.393 158.668 90.831V93H157.822ZM165.451 93V88.77H166.297V93H165.451ZM165.874 87.897C165.718 87.897 165.592 87.852 165.496 87.762C165.406 87.672 165.361 87.555 165.361 87.411C165.361 87.267 165.406 87.15 165.496 87.06C165.592 86.97 165.718 86.925 165.874 86.925C166.024 86.925 166.147 86.97 166.243 87.06C166.339 87.15 166.387 87.267 166.387 87.411C166.387 87.555 166.339 87.672 166.243 87.762C166.147 87.852 166.024 87.897 165.874 87.897ZM169.422 93.054C168.978 93.054 168.648 92.952 168.432 92.748C168.222 92.538 168.117 92.214 168.117 91.776V89.49H167.19V88.77H168.117V87.564H168.963V88.77H170.061V89.49H168.963V91.704C168.963 91.914 169.014 92.07 169.116 92.172C169.218 92.274 169.377 92.325 169.593 92.325C169.665 92.325 169.746 92.322 169.836 92.316C169.932 92.31 170.007 92.301 170.061 92.289V92.973C169.989 92.997 169.893 93.015 169.773 93.027C169.653 93.045 169.536 93.054 169.422 93.054ZM173.11 93.09C172.684 93.09 172.3 93.006 171.958 92.838C171.622 92.664 171.355 92.415 171.157 92.091C170.959 91.761 170.86 91.359 170.86 90.885C170.86 90.435 170.953 90.045 171.139 89.715C171.331 89.385 171.586 89.13 171.904 88.95C172.228 88.77 172.588 88.68 172.984 88.68C173.404 88.68 173.764 88.761 174.064 88.923C174.37 89.079 174.607 89.295 174.775 89.571C174.943 89.847 175.027 90.159 175.027 90.507C175.027 90.609 175.012 90.72 174.982 90.84C174.958 90.96 174.922 91.056 174.874 91.128H171.724C171.754 91.392 171.832 91.617 171.958 91.803C172.084 91.989 172.252 92.13 172.462 92.226C172.672 92.316 172.915 92.361 173.191 92.361C173.467 92.361 173.71 92.319 173.92 92.235C174.136 92.151 174.343 92.031 174.541 91.875L174.847 92.505C174.613 92.697 174.349 92.844 174.055 92.946C173.767 93.042 173.452 93.09 173.11 93.09ZM171.724 90.471H174.145C174.151 90.459 174.154 90.447 174.154 90.435C174.154 90.417 174.154 90.399 174.154 90.381C174.154 90.183 174.112 90.012 174.028 89.868C173.944 89.718 173.818 89.601 173.65 89.517C173.482 89.433 173.269 89.391 173.011 89.391C172.807 89.391 172.615 89.436 172.435 89.526C172.261 89.61 172.111 89.733 171.985 89.895C171.865 90.051 171.778 90.243 171.724 90.471ZM177.921 93.09C177.537 93.09 177.192 93 176.886 92.82C176.58 92.64 176.337 92.385 176.157 92.055C175.983 91.725 175.896 91.335 175.896 90.885C175.896 90.429 175.983 90.036 176.157 89.706C176.337 89.376 176.58 89.124 176.886 88.95C177.192 88.77 177.537 88.68 177.921 88.68C178.257 88.68 178.551 88.746 178.803 88.878C179.055 89.004 179.25 89.172 179.388 89.382V86.988H180.243V93H179.424V92.325C179.292 92.553 179.097 92.739 178.839 92.883C178.581 93.021 178.275 93.09 177.921 93.09ZM178.101 92.343C178.359 92.343 178.587 92.286 178.785 92.172C178.983 92.052 179.139 91.884 179.253 91.668C179.367 91.446 179.424 91.185 179.424 90.885C179.424 90.585 179.367 90.327 179.253 90.111C179.139 89.889 178.983 89.718 178.785 89.598C178.587 89.478 178.359 89.418 178.101 89.418C177.843 89.418 177.612 89.478 177.408 89.598C177.21 89.718 177.054 89.889 176.94 90.111C176.826 90.327 176.769 90.585 176.769 90.885C176.769 91.185 176.826 91.446 176.94 91.668C177.054 91.884 177.21 92.052 177.408 92.172C177.606 92.286 177.837 92.343 178.101 92.343ZM183.795 93V86.988H184.695V92.199H187.512V93H183.795ZM190.38 93.09C189.948 93.09 189.564 93 189.228 92.82C188.892 92.634 188.631 92.376 188.445 92.046C188.259 91.716 188.166 91.329 188.166 90.885C188.166 90.441 188.259 90.054 188.445 89.724C188.631 89.394 188.892 89.139 189.228 88.959C189.564 88.773 189.948 88.68 190.38 88.68C190.818 88.68 191.202 88.773 191.532 88.959C191.868 89.139 192.129 89.394 192.315 89.724C192.507 90.054 192.603 90.441 192.603 90.885C192.603 91.329 192.507 91.716 192.315 92.046C192.129 92.376 191.868 92.634 191.532 92.82C191.202 93 190.818 93.09 190.38 93.09ZM190.38 92.343C190.65 92.343 190.887 92.286 191.091 92.172C191.295 92.052 191.451 91.884 191.559 91.668C191.673 91.446 191.73 91.185 191.73 90.885C191.73 90.585 191.673 90.327 191.559 90.111C191.451 89.889 191.295 89.718 191.091 89.598C190.887 89.478 190.65 89.418 190.38 89.418C190.11 89.418 189.873 89.478 189.669 89.598C189.471 89.718 189.315 89.889 189.201 90.111C189.087 90.327 189.03 90.585 189.03 90.885C189.03 91.185 189.087 91.446 189.201 91.668C189.315 91.884 189.471 92.052 189.669 92.172C189.873 92.286 190.11 92.343 190.38 92.343ZM195.202 93.09C194.878 93.09 194.575 93.042 194.293 92.946C194.011 92.844 193.738 92.7 193.474 92.514L193.825 91.848C194.089 92.022 194.332 92.154 194.554 92.244C194.782 92.334 195.004 92.379 195.22 92.379C195.526 92.379 195.754 92.334 195.904 92.244C196.06 92.148 196.138 92.007 196.138 91.821C196.138 91.665 196.09 91.551 195.994 91.479C195.904 91.401 195.742 91.341 195.508 91.299L194.788 91.164C194.398 91.092 194.104 90.963 193.906 90.777C193.708 90.585 193.609 90.339 193.609 90.039C193.609 89.793 193.669 89.568 193.789 89.364C193.915 89.154 194.101 88.989 194.347 88.869C194.593 88.743 194.902 88.68 195.274 88.68C195.58 88.68 195.868 88.725 196.138 88.815C196.414 88.905 196.66 89.028 196.876 89.184L196.534 89.823C196.348 89.697 196.15 89.595 195.94 89.517C195.736 89.433 195.526 89.391 195.31 89.391C195.052 89.391 194.848 89.436 194.698 89.526C194.548 89.61 194.473 89.748 194.473 89.94C194.473 90.06 194.518 90.156 194.608 90.228C194.698 90.3 194.851 90.354 195.067 90.39L195.778 90.525C196.174 90.603 196.477 90.735 196.687 90.921C196.903 91.107 197.011 91.377 197.011 91.731C197.011 92.127 196.858 92.454 196.552 92.712C196.246 92.964 195.796 93.09 195.202 93.09ZM199.614 93.09C199.29 93.09 198.987 93.042 198.705 92.946C198.423 92.844 198.15 92.7 197.886 92.514L198.237 91.848C198.501 92.022 198.744 92.154 198.966 92.244C199.194 92.334 199.416 92.379 199.632 92.379C199.938 92.379 200.166 92.334 200.316 92.244C200.472 92.148 200.55 92.007 200.55 91.821C200.55 91.665 200.502 91.551 200.406 91.479C200.316 91.401 200.154 91.341 199.92 91.299L199.2 91.164C198.81 91.092 198.516 90.963 198.318 90.777C198.12 90.585 198.021 90.339 198.021 90.039C198.021 89.793 198.081 89.568 198.201 89.364C198.327 89.154 198.513 88.989 198.759 88.869C199.005 88.743 199.314 88.68 199.686 88.68C199.992 88.68 200.28 88.725 200.55 88.815C200.826 88.905 201.072 89.028 201.288 89.184L200.946 89.823C200.76 89.697 200.562 89.595 200.352 89.517C200.148 89.433 199.938 89.391 199.722 89.391C199.464 89.391 199.26 89.436 199.11 89.526C198.96 89.61 198.885 89.748 198.885 89.94C198.885 90.06 198.93 90.156 199.02 90.228C199.11 90.3 199.263 90.354 199.479 90.39L200.19 90.525C200.586 90.603 200.889 90.735 201.099 90.921C201.315 91.107 201.423 91.377 201.423 91.731C201.423 92.127 201.27 92.454 200.964 92.712C200.658 92.964 200.208 93.09 199.614 93.09Z" fill="#C75E4B"/>
</svg>
