<svg width="15" height="15" viewBox="0 0 15 15" fill="none" xmlns="http://www.w3.org/2000/svg">
<g clip-path="url(#clip0_885_253)">
<path d="M14.7756 9.31429C13.7738 13.3322 9.70387 15.7774 5.68504 14.7755C1.6679 13.7738 -0.777593 9.70405 0.224639 5.68648C1.22599 1.66814 5.29593 -0.777254 9.31351 0.224426C13.332 1.2261 15.7774 5.29628 14.7755 9.31436L14.7756 9.31429H14.7756Z" fill="#F7931A"/>
<path d="M11.9791 6.02009C12.1455 4.96933 11.2984 4.4045 10.1399 4.0277L10.5157 2.60435L9.5982 2.38845L9.23237 3.77433C8.99116 3.71752 8.74344 3.66399 8.49724 3.61092L8.86573 2.2159L7.94876 2L7.57276 3.42289C7.37314 3.37998 7.17709 3.33756 6.98688 3.29287L6.98794 3.28839L5.72264 2.99002L5.47856 3.91543C5.47856 3.91543 6.1593 4.06278 6.14495 4.07185C6.5165 4.15942 6.58369 4.39169 6.57254 4.57578L6.14446 6.19732C6.17005 6.20345 6.20323 6.21233 6.23985 6.22622C6.20924 6.21905 6.17667 6.21121 6.14287 6.20357L5.54285 8.47511C5.49745 8.58171 5.38219 8.74168 5.12242 8.68093C5.13162 8.69352 4.45554 8.52378 4.45554 8.52378L4 9.51557L5.19402 9.79665C5.41615 9.84926 5.63383 9.90429 5.84819 9.95605L5.46851 11.3957L6.38498 11.6116L6.76099 10.1872C7.01136 10.2514 7.25434 10.3106 7.4922 10.3664L7.11746 11.7841L8.03504 12L8.41468 10.563C9.97928 10.8426 11.1557 10.7299 11.6509 9.39354C12.0499 8.31761 11.631 7.69701 10.8079 7.29231C11.4074 7.16175 11.859 6.78939 11.9794 6.02021L11.9791 6.02001L11.9791 6.02009ZM9.88274 8.79602C9.59918 9.87195 7.68082 9.29034 7.05885 9.14449L7.5627 7.23716C8.18462 7.38378 10.1791 7.67393 9.88278 8.79602H9.88274ZM10.1665 6.0045C9.90784 6.98317 8.31116 6.48596 7.79321 6.36404L8.25002 4.63421C8.76796 4.75613 10.436 4.98368 10.1666 6.0045H10.1665Z" fill="white"/>
</g>
<defs>
<clipPath id="clip0_885_253">
<rect width="15" height="15" fill="white"/>
</clipPath>
</defs>
</svg>
