<svg width="16" height="15" viewBox="0 0 16 15" fill="none" xmlns="http://www.w3.org/2000/svg">
<g clip-path="url(#clip0_885_298)">
<path d="M8 0C12.1425 0 15.5 3.35816 15.5 7.5C15.5 11.6425 12.1425 15 8 15C3.85816 15 0.5 11.6422 0.5 7.5C0.5 3.35816 3.85816 0 8 0Z" fill="#F5AC37"/>
<path d="M8.27418 8.0296H11.1241C11.1848 8.0296 11.2135 8.02961 11.2179 7.94995C11.2412 7.66004 11.2412 7.36844 11.2179 7.07818C11.2179 7.02182 11.1899 6.99853 11.1288 6.99853H5.45704C5.38683 6.99853 5.36793 7.02182 5.36793 7.08763V7.92194C5.36793 8.0296 5.36793 8.0296 5.48032 8.0296H8.27418ZM10.8996 6.02348C10.9077 6.00222 10.9077 5.97893 10.8996 5.95801C10.852 5.8544 10.7957 5.75551 10.7302 5.66269C10.6316 5.50407 10.5155 5.35793 10.3832 5.22664C10.3208 5.14733 10.2486 5.07611 10.1676 5.0157C9.76189 4.67043 9.2796 4.42608 8.76119 4.30323C8.49963 4.2445 8.23233 4.21649 7.96435 4.21885H5.44725C5.37705 4.21885 5.3676 4.24687 5.3676 4.30795V5.97185C5.3676 6.04205 5.3676 6.06095 5.4567 6.06095H10.8659C10.8659 6.06095 10.9128 6.0515 10.9222 6.02348H10.8993H10.8996ZM10.8996 9.00465C10.82 8.99588 10.7396 8.99588 10.66 9.00465H5.46176C5.39156 9.00465 5.36793 9.00465 5.36793 9.09848V10.7252C5.36793 10.8002 5.36793 10.8191 5.46176 10.8191H7.86175C7.9765 10.8278 8.09125 10.8197 8.20364 10.7958C8.55194 10.7708 8.89451 10.6952 9.22121 10.5707C9.34001 10.5295 9.45476 10.4758 9.5631 10.4114H9.59584C10.1585 10.1188 10.6154 9.65907 10.9037 9.09477C10.9037 9.09477 10.9364 9.02389 10.8996 9.00533V9.00465ZM4.42596 11.6625V11.6345V10.5423V10.1721V9.07047C4.42596 9.00938 4.42596 9.00027 4.35104 9.00027H3.3338C3.27744 9.00027 3.25415 9.00026 3.25415 8.92534V8.03467H4.34159C4.40234 8.03467 4.42596 8.03467 4.42596 7.95502V7.0738C4.42596 7.01743 4.42596 7.00359 4.35104 7.00359H3.3338C3.27744 7.00359 3.25415 7.00359 3.25415 6.92867V6.10381C3.25415 6.05217 3.25415 6.03833 3.32908 6.03833H4.33686C4.40706 6.03833 4.42596 6.03834 4.42596 5.94923V3.42268C4.42596 3.34776 4.42596 3.32886 4.51979 3.32886H8.03522C8.29038 3.33898 8.54384 3.367 8.79461 3.41323C9.31132 3.50875 9.80779 3.69336 10.2617 3.95695C10.5628 4.13414 10.8399 4.34812 11.0866 4.5945C11.2722 4.78721 11.4396 4.99579 11.5881 5.21786C11.7356 5.44298 11.8581 5.68362 11.9543 5.93506C11.9661 6.00053 12.0289 6.04475 12.0944 6.03361H12.9334C13.0411 6.03361 13.0411 6.03361 13.0458 6.13689V6.90572C13.0458 6.98064 13.0178 6.99954 12.9425 6.99954H12.2955C12.2301 6.99954 12.2112 6.99954 12.2159 7.08392C12.2415 7.36945 12.2415 7.65599 12.2159 7.94152C12.2159 8.02117 12.2159 8.03062 12.3053 8.03062H13.0455C13.0782 8.07281 13.0455 8.11499 13.0455 8.15752C13.0502 8.21186 13.0502 8.26687 13.0455 8.32121V8.88855C13.0455 8.9682 13.0222 8.99183 12.9516 8.99183H12.0657C12.0039 8.98001 11.9438 9.0195 11.9297 9.08093C11.7187 9.62937 11.3812 10.1211 10.9452 10.5153C10.7859 10.6588 10.6185 10.7938 10.4436 10.9183C10.256 11.0263 10.0734 11.1387 9.88103 11.2278C9.52699 11.3871 9.15573 11.5045 8.77469 11.5791C8.41289 11.6439 8.04602 11.6733 7.67781 11.6682H4.42461V11.6635L4.42596 11.6625Z" fill="#FEFEFD"/>
</g>
<defs>
<clipPath id="clip0_885_298">
<rect width="15" height="15" fill="white" transform="translate(0.5)"/>
</clipPath>
</defs>
</svg>
