<svg width="16" height="15" viewBox="0 0 16 15" fill="none" xmlns="http://www.w3.org/2000/svg">
<g clip-path="url(#clip0_885_234)">
<path d="M8 15C12.1421 15 15.5 11.6421 15.5 7.5C15.5 3.35786 12.1421 0 8 0C3.85786 0 0.5 3.35786 0.5 7.5C0.5 11.6421 3.85786 15 8 15Z" fill="#627EEA"/>
<path d="M8.2334 1.875V6.03281L11.7476 7.60312L8.2334 1.875Z" fill="white" fill-opacity="0.602"/>
<path d="M8.23344 1.875L4.71875 7.60312L8.23344 6.03281V1.875Z" fill="white"/>
<path d="M8.2334 10.2975V13.1227L11.75 8.25751L8.2334 10.2975Z" fill="white" fill-opacity="0.602"/>
<path d="M8.23344 13.1227V10.297L4.71875 8.25751L8.23344 13.1227Z" fill="white"/>
<path d="M8.2334 9.6436L11.7476 7.60313L8.2334 6.03375V9.6436Z" fill="white" fill-opacity="0.2"/>
<path d="M4.71875 7.60313L8.23344 9.6436V6.03375L4.71875 7.60313Z" fill="white" fill-opacity="0.602"/>
</g>
<defs>
<clipPath id="clip0_885_234">
<rect width="15" height="15" fill="white" transform="translate(0.5)"/>
</clipPath>
</defs>
</svg>
