<svg width="15" height="15" viewBox="0 0 15 15" fill="none" xmlns="http://www.w3.org/2000/svg">
<g clip-path="url(#clip0_885_305)">
<path d="M14.9902 7.5C14.9902 11.6366 11.6367 14.99 7.50003 14.99C3.36346 14.99 0.0100098 11.6366 0.0100098 7.5C0.0100098 3.36331 3.36346 0.00998688 7.50003 0.00998688C11.6367 0.00998688 14.9902 3.3633 14.9902 7.5Z" fill="black"/>
<path d="M7.78684 5.04982C8.20532 5.09971 8.57896 5.24185 8.92386 5.48408C9.10013 5.60771 9.36332 5.87088 9.48694 6.04714C10.1897 7.04202 10.0555 8.39479 9.17113 9.22381C8.41587 9.92899 7.32369 10.0869 6.40517 9.61857C5.74204 9.27904 5.27352 8.65797 5.12356 7.91313C5.07612 7.67627 5.07612 7.2342 5.12356 6.99996C5.16824 6.76831 5.22884 6.60257 5.3419 6.37095C5.79465 5.46037 6.7762 4.92864 7.78684 5.04982ZM3.36806 3.33382C3.05224 3.6654 2.79179 3.94446 2.78905 3.9497C2.78644 3.95767 3.07076 4.23659 3.42068 4.56816C3.77078 4.90233 4.07603 5.19461 4.09715 5.21295L4.13662 5.24981L4.06547 5.36825C3.44181 6.39983 3.31281 7.64212 3.70498 8.78418C3.7787 9.0001 3.90495 9.27644 4.01283 9.45807C4.06547 9.54739 4.08919 9.60542 4.08398 9.61598C4.07862 9.62636 3.76021 9.96332 3.37601 10.366C2.99179 10.766 2.67859 11.1002 2.67334 11.1056C2.67064 11.1133 3.74706 12.1529 3.84973 12.2372L3.8892 12.2713L4.4971 11.6371C4.83142 11.2871 5.1445 10.9582 5.19193 10.9082L5.28145 10.8186L5.3656 10.8713C5.79464 11.145 6.29727 11.3345 6.85256 11.4345C7.13151 11.4846 7.6632 11.4977 7.96051 11.4608C8.53429 11.395 9.10273 11.2029 9.56863 10.9213L9.68968 10.8476L9.81865 10.974C10.1002 11.2477 11.1529 12.2478 11.1635 12.253C11.174 12.2581 12.3292 11.0503 12.3267 11.0344C12.3241 11.0266 11.5319 10.266 11.0477 9.81059L10.8872 9.65809L10.9607 9.53705C11.5792 8.50787 11.7082 7.26054 11.3082 6.11037C11.2502 5.94191 11.074 5.56307 10.9713 5.38924L10.9213 5.30247L11.5977 4.5945C11.9688 4.20766 12.2714 3.88391 12.2688 3.87596C12.2583 3.84963 11.074 2.73112 11.0582 2.73112C11.0476 2.73112 10.7502 3.03378 10.3949 3.40758C10.0396 3.77863 9.74492 4.08389 9.73696 4.08647C9.73175 4.08925 9.69748 4.07332 9.66596 4.04973C9.57645 3.98917 9.35015 3.86551 9.22376 3.80753C8.83954 3.63127 8.48166 3.52338 8.0658 3.4628C7.85004 3.43129 7.20267 3.42591 7.00264 3.45483C6.52358 3.52337 6.13144 3.64183 5.73146 3.8418C5.61562 3.89704 5.48143 3.97077 5.42879 4.00231L5.33411 4.06014L5.22618 3.95486C5.16822 3.89704 4.90505 3.64961 4.64447 3.39957C4.38402 3.15217 4.11811 2.89955 4.05504 2.83635L3.93925 2.72328L3.36806 3.33382Z" fill="white"/>
</g>
<defs>
<clipPath id="clip0_885_305">
<rect width="15" height="15" fill="white"/>
</clipPath>
</defs>
</svg>
