<svg width="16" height="15" viewBox="0 0 16 15" fill="none" xmlns="http://www.w3.org/2000/svg">
<g clip-path="url(#clip0_885_290)">
<path d="M15.4867 7.49735C15.4867 11.619 12.1456 14.96 8.02397 14.96C3.90247 14.96 0.561279 11.619 0.561279 7.49735C0.561279 3.37579 3.90247 0.034668 8.02397 0.034668C12.1456 0.034668 15.4867 3.37579 15.4867 7.49735Z" fill="#1BA27A"/>
<path d="M11.5264 3.79781H4.45996V5.50378H7.14018V8.01124H8.84615V5.50378H11.5264V3.79781Z" fill="white"/>
<path d="M8.00938 8.27835C5.79221 8.27835 3.99467 7.92746 3.99467 7.49455C3.99467 7.06171 5.79214 6.71074 8.00938 6.71074C10.2265 6.71074 12.024 7.06171 12.024 7.49455C12.024 7.92746 10.2265 8.27835 8.00938 8.27835ZM12.5172 7.62522C12.5172 7.06701 10.499 6.61455 8.00938 6.61455C5.51982 6.61455 3.50146 7.06701 3.50146 7.62522C3.50146 8.11679 5.06646 8.52634 7.14027 8.61708V12.2166H8.84609V8.6185C10.9359 8.53059 12.5172 8.11932 12.5172 7.62522Z" fill="white"/>
</g>
<defs>
<clipPath id="clip0_885_290">
<rect width="15" height="15" fill="white" transform="translate(0.5)"/>
</clipPath>
</defs>
</svg>
