<svg width="15" height="15" viewBox="0 0 15 15" fill="none" xmlns="http://www.w3.org/2000/svg">
<g clip-path="url(#clip0_885_266)">
<circle cx="7.5" cy="7.5" r="7.5" fill="white"/>
<path d="M6.10904 4.90437C5.98286 4.8897 5.97685 4.88481 6.03694 4.87993C6.1511 4.86526 6.41548 4.88481 6.60175 4.91903C7.03437 5.00213 7.42494 5.21721 7.83954 5.5936L7.94769 5.69626L8.10392 5.6767C8.77088 5.58872 9.45587 5.65715 10.0267 5.87223C10.1829 5.93089 10.4293 6.04821 10.4593 6.07753C10.4713 6.08731 10.4894 6.15086 10.5014 6.2144C10.5434 6.44415 10.5254 6.61524 10.4353 6.74722C10.3872 6.82054 10.3872 6.84009 10.4173 6.90364C10.4413 6.95252 10.5134 6.98674 10.5795 6.98674C10.7237 6.98674 10.8739 6.80099 10.946 6.54191L10.9761 6.43926L11.0301 6.48814C11.3366 6.76677 11.5769 7.15294 11.613 7.42668L11.625 7.5L11.5709 7.43645C11.4808 7.32403 11.3967 7.2507 11.2825 7.18716C11.0782 7.07473 10.8619 7.04051 10.2911 7.01607C9.77433 6.99163 9.4799 6.95741 9.19149 6.8792C8.69878 6.74722 8.44641 6.57613 7.86357 5.94555C7.6052 5.66693 7.44296 5.51539 7.28073 5.3883C6.92622 5.10967 6.57171 4.96303 6.10904 4.90437Z" fill="#FF007A"/>
<path d="M10.8307 5.40896C10.8412 5.21196 10.8673 5.08236 10.9248 4.96313C10.9457 4.91647 10.9666 4.875 10.9718 4.875C10.977 4.875 10.9666 4.91129 10.9509 4.95276C10.9091 5.06681 10.9039 5.22752 10.93 5.40896C10.9666 5.64224 10.9823 5.67334 11.2331 5.92736C11.3481 6.04659 11.4839 6.19693 11.5362 6.25914L11.625 6.37319L11.5362 6.29025C11.4264 6.18656 11.1756 5.98957 11.1181 5.96365C11.0816 5.94291 11.0763 5.94291 11.0502 5.96883C11.0293 5.98957 11.0241 6.02067 11.0241 6.17101C11.0189 6.40429 10.9875 6.54945 10.9091 6.69978C10.8673 6.77755 10.8621 6.76199 10.8987 6.67386C10.9248 6.60647 10.93 6.57537 10.93 6.35245C10.93 5.90144 10.8778 5.79258 10.559 5.61113C10.4806 5.56448 10.3448 5.49709 10.2664 5.4608C10.1828 5.42451 10.1201 5.3934 10.1253 5.3934C10.1358 5.38304 10.4441 5.47117 10.5642 5.52301C10.7471 5.59558 10.7785 5.60077 10.7994 5.59558C10.8151 5.58003 10.8255 5.53856 10.8307 5.40896Z" fill="#FF007A"/>
<path d="M6.45191 6.25651C6.15457 5.91699 5.96341 5.39014 6.00589 4.99793L6.02005 4.875L6.09085 4.88671C6.21828 4.90427 6.43775 4.97452 6.54395 5.0272C6.82714 5.16769 6.95457 5.36087 7.07492 5.84089C7.11032 5.98138 7.15988 6.14529 7.18112 6.19797C7.21652 6.28578 7.35103 6.49066 7.46431 6.61945C7.54218 6.71311 7.49263 6.75994 7.31563 6.74823C7.04661 6.72482 6.68554 6.51993 6.45191 6.25651Z" fill="#FF007A"/>
<path d="M10.8889 8.60969C9.77043 8.10877 9.375 7.67672 9.375 6.94411C9.375 6.83766 9.38065 6.75 9.38065 6.75C9.3863 6.75 9.42584 6.78757 9.47668 6.8314C9.70265 7.03177 9.95685 7.11943 10.663 7.23214C11.0754 7.30102 11.3126 7.35111 11.5273 7.43251C12.2108 7.68298 12.6345 8.19643 12.7362 8.89147C12.7644 9.09184 12.7475 9.47379 12.7023 9.67417C12.6628 9.83071 12.5498 10.1187 12.5215 10.125C12.5159 10.125 12.5046 10.0937 12.5046 10.0436C12.4933 9.78061 12.3747 9.53015 12.1769 9.33604C11.9397 9.11062 11.6346 8.94156 10.8889 8.60969Z" fill="#FF007A"/>
<path d="M9.90889 8.556C9.89579 8.47547 9.86304 8.37347 9.8434 8.33053L9.81065 8.25L9.86959 8.30905C9.95473 8.38958 10.0202 8.48621 10.0792 8.62042C10.125 8.72242 10.125 8.75463 10.125 8.92105C10.125 9.0821 10.1185 9.11968 10.0792 9.21094C10.0137 9.35589 9.93508 9.45789 9.8041 9.57063C9.56834 9.76926 9.26055 9.87663 8.82177 9.92494C8.74318 9.93031 8.52052 9.94642 8.32405 9.95715C7.83288 9.97863 7.50544 10.0216 7.21074 10.1075C7.17144 10.1182 7.13215 10.1289 7.1256 10.1236C7.1125 10.1128 7.31552 10.0162 7.47924 9.95178C7.70846 9.86052 7.94422 9.8122 8.46158 9.73705C8.71699 9.70484 8.97894 9.66189 9.04443 9.64042C9.69277 9.474 10.0137 9.06063 9.90889 8.556Z" fill="#FF007A"/>
<path d="M10.2914 9.55678C10.1207 9.24799 10.0814 8.95546 10.1732 8.67917C10.1864 8.65209 10.1995 8.625 10.2126 8.625C10.2257 8.625 10.2651 8.64125 10.3045 8.66292C10.3833 8.70626 10.5473 8.7821 10.9674 8.97171C11.499 9.21007 11.8009 9.39426 12.0109 9.60554C12.1946 9.78973 12.3062 10.001 12.3587 10.261C12.3915 10.4073 12.3718 10.7594 12.3259 10.9057C12.1815 11.3662 11.8534 11.7346 11.3743 11.9458C11.3021 11.9783 11.243 12 11.2364 12C11.2299 12 11.2561 11.9458 11.2955 11.8808C11.453 11.6045 11.4727 11.3391 11.3546 11.0411C11.2824 10.8569 11.1314 10.6348 10.8295 10.261C10.4686 9.82765 10.3833 9.71388 10.2914 9.55678Z" fill="#FF007A"/>
<path d="M5.38123 11.1766C5.84367 10.8368 6.41234 10.5956 6.93727 10.5188C7.16224 10.4859 7.53719 10.4969 7.74341 10.5462C8.07462 10.623 8.37458 10.7874 8.53081 10.9903C8.68079 11.1876 8.74953 11.3576 8.81827 11.7358C8.84327 11.8838 8.87451 12.0373 8.88076 12.0702C8.93075 12.2676 9.03074 12.4211 9.15572 12.5033C9.34945 12.6294 9.6869 12.6349 10.0181 12.5252C10.0744 12.5088 10.1243 12.4923 10.1243 12.4978C10.1368 12.5088 9.96811 12.6075 9.85563 12.6568C9.6994 12.7281 9.57442 12.75 9.40569 12.75C9.10573 12.75 8.84952 12.6129 8.64329 12.3388C8.59955 12.284 8.51206 12.125 8.43707 11.977C8.21835 11.533 8.10587 11.4014 7.84965 11.2534C7.62468 11.1273 7.33722 11.0999 7.1185 11.1931C6.83104 11.3137 6.75605 11.6371 6.95602 11.8345C7.03726 11.9167 7.18724 11.9825 7.31222 11.999C7.54344 12.0264 7.74341 11.8674 7.74341 11.6646C7.74341 11.533 7.68717 11.4562 7.53719 11.3959C7.33722 11.3192 7.1185 11.4069 7.12475 11.5768C7.12475 11.6481 7.16224 11.692 7.24348 11.7249C7.29348 11.7468 7.29347 11.7468 7.25598 11.7413C7.07475 11.7084 7.03101 11.5111 7.17474 11.385C7.34972 11.2315 7.71842 11.2973 7.8434 11.5111C7.89339 11.5988 7.89964 11.7742 7.8559 11.8838C7.74966 12.125 7.4497 12.2511 7.14349 12.1799C6.93727 12.1305 6.84978 12.0812 6.59982 11.8564C6.16238 11.4617 5.99365 11.385 5.36873 11.3027L5.25 11.2863L5.38123 11.1766Z" fill="#FF007A"/>
<path fill-rule="evenodd" clip-rule="evenodd" d="M2.46455 2.47859C3.93295 3.98302 6.19541 6.32206 6.30885 6.44965C6.40338 6.55597 6.36557 6.65697 6.20802 6.73139C6.11979 6.77392 5.93703 6.81645 5.8488 6.81645C5.74796 6.81645 5.62822 6.77392 5.54629 6.70481C5.48957 6.65697 5.24379 6.35396 4.6892 5.62566C4.26696 5.06748 3.90774 4.60499 3.90144 4.59968C3.87623 4.58904 3.87623 4.58904 4.64509 5.74793C5.13035 6.47623 5.28791 6.73671 5.28791 6.76861C5.28791 6.83771 5.2627 6.87493 5.16186 6.97061C4.99171 7.1301 4.91608 7.31084 4.85936 7.68828C4.79634 8.10824 4.62618 8.40594 4.14092 8.91096C3.85732 9.20865 3.81321 9.26181 3.74388 9.38408C3.65566 9.53293 3.63045 9.61799 3.61784 9.80936C3.60524 10.0114 3.63045 10.139 3.69977 10.3303C3.76279 10.5004 3.83211 10.6121 4.00227 10.83C4.14722 11.0214 4.23545 11.1649 4.23545 11.2181C4.23545 11.2606 4.24805 11.2606 4.47493 11.2181C5.01691 11.1118 5.46437 10.931 5.71015 10.7078C5.8614 10.5696 5.89921 10.4951 5.89921 10.3038C5.89921 10.1815 5.89291 10.1549 5.8551 10.0805C5.79208 9.96353 5.67234 9.86784 5.41395 9.71899C5.07363 9.5223 4.92868 9.36282 4.89087 9.15018C4.85936 8.96943 4.89717 8.84717 5.08624 8.51226C5.2816 8.16672 5.33202 8.02318 5.36353 7.67233C5.38244 7.44906 5.41395 7.35868 5.48957 7.28958C5.5715 7.21515 5.64083 7.18857 5.83619 7.16731C6.1576 7.13009 6.36557 7.06099 6.52943 6.92809C6.67437 6.81645 6.7374 6.70481 6.7437 6.54002L6.75 6.41775L6.66807 6.34333C6.37187 6.05626 2.26919 2.25 2.25028 2.25C2.24398 2.25 2.34481 2.351 2.46455 2.47859ZM4.39931 10.038C4.46863 9.93695 4.43082 9.80936 4.31738 9.74557C4.21024 9.68709 4.04639 9.71367 4.04639 9.79341C4.04639 9.81468 4.05899 9.83594 4.0968 9.84657C4.15352 9.87315 4.15983 9.89973 4.11571 9.95821C4.0716 10.0167 4.0716 10.0698 4.12831 10.1071C4.21654 10.1655 4.33628 10.1336 4.39931 10.038Z" fill="#FF007A"/>
<path fill-rule="evenodd" clip-rule="evenodd" d="M6.75994 7.14561C6.59508 7.20462 6.43709 7.42381 6.389 7.64301C6.36153 7.77789 6.37527 8.02238 6.42335 8.09825C6.49891 8.21628 6.5676 8.25 6.75994 8.25C7.13774 8.25 7.46058 8.04767 7.49493 7.80318C7.52928 7.60085 7.38502 7.32265 7.18582 7.19619C7.08278 7.12875 6.86984 7.10346 6.75994 7.14561ZM7.19956 7.56713C7.25451 7.46597 7.2339 7.35637 7.13087 7.2805C6.9454 7.13718 6.66377 7.2552 6.66377 7.4744C6.66377 7.58399 6.80802 7.70202 6.9454 7.70202C7.0347 7.70202 7.15834 7.63458 7.19956 7.56713Z" fill="#FF007A"/>
</g>
<defs>
<clipPath id="clip0_885_266">
<rect width="15" height="15" fill="white"/>
</clipPath>
</defs>
</svg>
