<svg width="16" height="15" viewBox="0 0 16 15" fill="none" xmlns="http://www.w3.org/2000/svg">
<g clip-path="url(#clip0_885_281)">
<path fill-rule="evenodd" clip-rule="evenodd" d="M8 6.10352e-05C12.1422 6.10352e-05 15.5 3.35784 15.5 7.50006C15.5 11.6419 12.1422 15.0001 8 15.0001C3.85778 15.0001 0.5 11.6419 0.5 7.50006C0.5 3.35784 3.85778 6.10352e-05 8 6.10352e-05Z" fill="#2775CA"/>
<path fill-rule="evenodd" clip-rule="evenodd" d="M6.59408 12.7145C6.59408 12.891 6.45592 12.9912 6.2853 12.9379C4.01765 12.2145 2.37354 10.0882 2.37354 7.57926C2.37354 5.07042 4.01765 2.944 6.2853 2.22059C6.45592 2.16767 6.59408 2.26755 6.59408 2.44397V2.87949C6.59408 2.99693 6.50305 3.13517 6.39115 3.17343C4.59703 3.83224 3.3118 5.55579 3.3118 7.57627C3.3118 9.59676 4.59703 11.3206 6.39115 11.9791C6.50305 12.0204 6.59408 12.1555 6.59408 12.2734V12.7145Z" fill="white"/>
<path fill-rule="evenodd" clip-rule="evenodd" d="M8.4677 11.0939C8.4677 11.2234 8.36185 11.3293 8.23247 11.3293H7.76475C7.63537 11.3293 7.52952 11.2234 7.52952 11.0939V10.3528C6.50594 10.2147 6.00608 9.64103 5.87074 8.86171C5.84713 8.72918 5.95298 8.60867 6.08833 8.60867H6.62364C6.73537 8.60867 6.82955 8.68819 6.85307 8.79975C6.95313 9.26449 7.22074 9.6204 8.04122 9.6204C8.6471 9.6204 9.07665 9.28214 9.07665 8.77648C9.07665 8.2704 8.82361 8.07932 7.93537 7.93214C6.62364 7.75571 6.0031 7.35856 6.0031 6.32918C6.0031 5.53512 6.60318 4.91756 7.5325 4.78512V4.05864C7.5325 3.92918 7.63844 3.82324 7.76773 3.82324H8.23546C8.36483 3.82324 8.47068 3.92918 8.47068 4.05864V4.80574C9.22657 4.94125 9.70597 5.37037 9.86193 6.08211C9.89125 6.21762 9.7854 6.34384 9.64725 6.34384H9.15301C9.04716 6.34384 8.95895 6.27319 8.92665 6.17032C8.79429 5.71759 8.47068 5.52353 7.90887 5.52353C7.28833 5.52353 6.9677 5.82344 6.9677 6.24395C6.9677 6.68807 7.15017 6.91145 8.10318 7.04995C9.39122 7.22637 10.0561 7.59395 10.0561 8.69125C10.0561 9.5235 9.43835 10.1971 8.47068 10.3528V11.0939H8.4677Z" fill="white"/>
<path fill-rule="evenodd" clip-rule="evenodd" d="M9.71478 12.9379C9.54433 12.9912 9.40601 12.891 9.40601 12.7146V12.2794C9.40601 12.1499 9.48544 12.0294 9.60893 11.9851C11.4031 11.3263 12.6883 9.60274 12.6883 7.58225C12.6883 5.56177 11.4031 3.83822 9.60893 3.17941C9.4972 3.13816 9.40601 3.00299 9.40601 2.88512V2.44995C9.40601 2.27353 9.54433 2.17066 9.71478 2.22623C11.9824 2.95007 13.6265 5.0764 13.6265 7.58524C13.6237 10.0881 11.9824 12.2115 9.71478 12.9379Z" fill="white"/>
</g>
<defs>
<clipPath id="clip0_885_281">
<rect width="15" height="15" fill="white" transform="translate(0.5)"/>
</clipPath>
</defs>
</svg>
