<svg width="15" height="15" viewBox="0 0 15 15" fill="none" xmlns="http://www.w3.org/2000/svg">
<g clip-path="url(#clip0_888_685)">
<path d="M7.5 15C11.6421 15 15 11.6421 15 7.5C15 3.35786 11.6421 0 7.5 0C3.35786 0 0 3.35786 0 7.5C0 11.6421 3.35786 15 7.5 15Z" fill="#EC1C79"/>
<path d="M5.36141 12.2678C7.80829 12.2678 7.80829 12.2303 8.22341 12.1084C8.76566 11.9475 6.69154 10.5124 5.36141 10.5124C4.03129 10.5124 2.95166 10.9054 2.95166 11.3903C2.95166 11.8751 4.03054 12.2678 5.36141 12.2678Z" fill="black"/>
<path d="M10.9177 4.80375L11.0302 4.92487L10.9319 5.05762C7.74066 9.37462 5.90204 11.3246 5.12016 11.0644C4.64691 10.9046 4.17066 10.4246 3.69516 9.72787C3.52791 9.48262 3.37041 9.22462 3.22754 8.96812C3.13229 8.79712 3.05166 8.64112 3.00966 8.55337C2.96589 8.46756 2.93434 8.37605 2.91591 8.2815L2.91366 8.27062C2.90616 8.23312 2.90354 8.22 2.89791 8.199C2.67851 7.37352 2.70698 6.50171 2.97978 5.69231C3.25258 4.88291 3.75762 4.17173 4.43193 3.64746C5.10624 3.12319 5.91997 2.80904 6.77165 2.74418C7.62332 2.67932 8.47524 2.86663 9.22116 3.28275L9.23766 3.29325C9.84929 3.73604 10.4124 4.24223 10.9177 4.80337V4.80375ZM9.01754 3.62662C8.33971 3.25161 7.56664 3.08402 6.79437 3.14468C6.0221 3.20534 5.28468 3.49157 4.67372 3.96782C4.06276 4.44406 3.6052 5.08933 3.35789 5.82344C3.11058 6.55755 3.08442 7.34814 3.28266 8.097C3.29129 8.12962 3.29541 8.148 3.30441 8.19487V8.20462C3.31655 8.26648 3.33764 8.32623 3.36704 8.382C3.40454 8.46225 3.48216 8.61037 3.57291 8.77425C3.71054 9.021 3.86129 9.26887 4.02291 9.50362C4.45454 10.1329 4.88091 10.5634 5.24954 10.6871C5.74079 10.8521 7.58991 8.89462 10.5123 4.95525C10.0594 4.4637 9.55853 4.01862 9.01716 3.62662H9.01754Z" fill="black"/>
<path d="M9.01758 3.62662C8.33975 3.25149 7.56663 3.08381 6.79429 3.14441C6.02195 3.20501 5.28444 3.49123 4.67342 3.9675C4.0624 4.44376 3.60479 5.08908 3.35747 5.82325C3.11015 6.55743 3.08402 7.34809 3.28233 8.097C3.29095 8.12962 3.29508 8.148 3.30408 8.19487V8.20462C3.31605 8.26618 3.33689 8.32568 3.36595 8.38125C3.40345 8.4615 3.48108 8.60962 3.57183 8.7735C3.70945 9.02025 3.8602 9.26812 4.02183 9.50287C4.45308 10.1325 4.87983 10.5626 5.24733 10.6864C5.73858 10.8514 7.5877 8.89387 10.5101 4.9545C10.0576 4.46329 9.55726 4.01846 9.01645 3.62662H9.01758Z" fill="#EC1C79"/>
<path d="M7.89859 12.2284C7.03824 12.2284 6.19721 11.9733 5.48186 11.4953C4.7665 11.0173 4.20895 10.3379 3.87971 9.54305C3.55047 8.74819 3.46432 7.87355 3.63217 7.02973C3.80002 6.18592 4.21431 5.41082 4.82267 4.80246C5.43103 4.1941 6.20613 3.77981 7.04994 3.61196C7.89376 3.44411 8.7684 3.53026 9.56326 3.8595C10.3581 4.18874 11.0375 4.74629 11.5155 5.46165C11.9935 6.177 12.2486 7.01803 12.2486 7.87838C12.2486 8.44963 12.1361 9.01528 11.9175 9.54305C11.6989 10.0708 11.3784 10.5504 10.9745 10.9543C10.5706 11.3582 10.091 11.6786 9.56326 11.8973C9.03549 12.1159 8.46984 12.2284 7.89859 12.2284ZM7.89859 11.8294C8.67983 11.8296 9.44359 11.5981 10.0933 11.1643C10.743 10.7304 11.2494 10.1136 11.5486 9.39192C11.8477 8.67021 11.9261 7.87601 11.7739 7.10975C11.6216 6.34348 11.2455 5.63958 10.6932 5.08705C10.1409 4.53452 9.43714 4.15819 8.67094 4.00565C7.90473 3.85311 7.1105 3.93121 6.38868 4.23008C5.66686 4.52894 5.04988 5.03515 4.61577 5.68468C4.18166 6.33421 3.94991 7.09788 3.94984 7.87913C3.94974 8.92657 4.36568 9.93116 5.1062 10.672C5.84671 11.4127 6.85114 11.8291 7.89859 11.8294Z" fill="black"/>
<path d="M7.89861 11.829C8.6798 11.829 9.44345 11.5974 10.093 11.1633C10.7425 10.7293 11.2488 10.1125 11.5478 9.39076C11.8467 8.66904 11.925 7.87487 11.7726 7.10868C11.6202 6.34249 11.2441 5.63869 10.6917 5.08627C10.1394 4.53386 9.43559 4.15764 8.66942 4.00519C7.90324 3.85274 7.10907 3.93091 6.38731 4.22981C5.66556 4.5287 5.04865 5.03491 4.61459 5.68442C4.18052 6.33392 3.9488 7.09755 3.94873 7.87875C3.94868 8.39748 4.05081 8.91115 4.24929 9.39041C4.44777 9.86968 4.7387 10.3052 5.10549 10.672C5.47227 11.0388 5.90772 11.3298 6.38697 11.5283C6.86621 11.7268 7.37987 11.829 7.89861 11.829Z" fill="white"/>
<path d="M4.94389 8.688L4.42114 7.113H4.87939L5.15202 8.01787L5.45202 7.1085H5.82514L6.12514 8.01787L6.39777 7.113H6.84777L6.32502 8.688H5.94927L5.63427 7.788L5.32189 8.688H4.94389ZM7.02289 8.67675V7.113H8.28102V7.48087H7.45114V7.71787H8.20114V8.05987H7.45114V8.30775H8.29114V8.67637L7.02289 8.67675ZM8.89527 8.67675V7.49287H8.42502V7.113H9.79827V7.49287H9.32764V8.67675H8.89527ZM9.98764 8.67675V7.113H10.4204V7.69837H10.9769V7.113H11.4108V8.67675H10.9769V8.08275H10.4204V8.67675H9.98764Z" fill="black"/>
<path d="M3.01117 6.64237C2.96513 6.61205 2.93181 6.56588 2.91756 6.51262C2.90331 6.45936 2.90911 6.40272 2.93386 6.35345C2.9586 6.30419 3.00058 6.26572 3.05182 6.24536C3.10305 6.225 3.15998 6.22416 3.2118 6.243L3.8493 6.56212C3.87915 6.57298 3.90636 6.59003 3.92915 6.61215C3.95193 6.63427 3.96978 6.66097 3.98151 6.69048C3.99324 6.72 3.99858 6.75166 3.9972 6.78339C3.99581 6.81512 3.98773 6.8462 3.97347 6.87458C3.95921 6.90296 3.93911 6.928 3.91448 6.94805C3.88985 6.96811 3.86126 6.98272 3.83058 6.99093C3.7999 6.99914 3.76783 7.00076 3.73647 6.99569C3.70512 6.99062 3.6752 6.97896 3.64867 6.9615L3.01117 6.64237Z" fill="black"/>
<path d="M2.93785 7.701C2.90852 7.69044 2.8817 7.6739 2.8591 7.65243C2.8365 7.63096 2.8186 7.60502 2.80655 7.57627C2.7945 7.54752 2.78856 7.51658 2.7891 7.48541C2.78964 7.45424 2.79665 7.42352 2.80968 7.3952C2.82272 7.36688 2.8415 7.34158 2.86483 7.32091C2.88816 7.30023 2.91554 7.28463 2.94522 7.27509C2.9749 7.26555 3.00624 7.26228 3.03724 7.26549C3.06825 7.26871 3.09826 7.27833 3.12535 7.29375L3.76285 7.5885C3.80951 7.61746 3.84397 7.66249 3.85972 7.7151C3.87548 7.76771 3.87145 7.82427 3.8484 7.87411C3.82534 7.92396 3.78485 7.96365 3.73456 7.98571C3.68426 8.00777 3.62764 8.01067 3.57535 7.99387L2.93785 7.701Z" fill="black"/>
</g>
<defs>
<clipPath id="clip0_888_685">
<rect width="15" height="15" fill="white"/>
</clipPath>
</defs>
</svg>
