<svg width="20" height="20" viewBox="0 0 20 20" fill="none" xmlns="http://www.w3.org/2000/svg">
<path fill-rule="evenodd" clip-rule="evenodd" d="M3.07692 2.69691C1.92627 2.69691 1 3.60586 1 4.73481V7.11369H19V4.73481C19 3.60586 18.0737 2.69691 16.9231 2.69691H3.07692Z" fill="#6988FF"/>
<path fill-rule="evenodd" clip-rule="evenodd" d="M1 7.79304V16.9621C1 18.0911 1.92627 19 3.07692 19H16.9231C18.0737 19 19 18.0911 19 16.9621V7.79304H1Z" fill="#6988FF"/>
<path fill-rule="evenodd" clip-rule="evenodd" d="M5.14852 1.00004C4.95783 1.00307 4.80561 1.15666 4.80778 1.34376V2.01784H5.50009V1.34376C5.50117 1.25203 5.46439 1.16379 5.39825 1.09904C5.33211 1.0343 5.24202 0.998675 5.14852 1.00004Z" fill="#6988FF"/>
<path fill-rule="evenodd" clip-rule="evenodd" d="M9.99396 1.00004C9.80326 1.00307 9.65105 1.15666 9.65321 1.34376V2.01784H10.3455V1.34376C10.3466 1.25203 10.3098 1.16379 10.2437 1.09904C10.1775 1.0343 10.0875 0.998675 9.99396 1.00004Z" fill="#6988FF"/>
<path fill-rule="evenodd" clip-rule="evenodd" d="M14.8411 1.00004C14.6505 1.00307 14.4982 1.15666 14.5004 1.34376V2.01784H15.1927V1.34376C15.1938 1.25203 15.157 1.16379 15.0909 1.09904C15.0247 1.0343 14.9346 0.998675 14.8411 1.00004Z" fill="#6988FF"/>
</svg>
