<svg width="45" height="17" viewBox="0 0 45 17" fill="none" xmlns="http://www.w3.org/2000/svg">
<path fill-rule="evenodd" clip-rule="evenodd" d="M12 6.22233H13.1178V6.94452H13.1711C13.2881 6.80003 13.4371 6.65563 13.6075 6.53345C13.8948 6.32234 14.31 6.11123 14.8743 6.11123C16.3114 6.11123 17.429 7.27788 17.429 9.05561C17.429 10.8334 16.3114 12 14.8743 12C14.31 12 13.8948 11.8 13.6075 11.5889C13.4371 11.4666 13.2881 11.3222 13.1711 11.1667H13.1178V14H12V6.22233ZM14.6613 10.9445C15.6301 10.9445 16.2581 10.2889 16.2581 9.05561C16.2581 7.82227 15.6301 7.1667 14.6613 7.1667C13.7565 7.1667 13.1178 7.82227 13.1178 9.05561C13.1178 10.2889 13.7565 10.9445 14.6613 10.9445Z" fill="white"/>
<path fill-rule="evenodd" clip-rule="evenodd" d="M18.2629 6.22291H19.3807V7.0562H19.434C19.5191 6.88956 19.6363 6.74515 19.7746 6.61182C20.0194 6.38963 20.3812 6.16729 20.9242 6.16729H21.563V7.27846H20.8711C20.0194 7.27846 19.3807 7.88956 19.3807 8.83394V11.8895H18.2629V6.22291Z" fill="white"/>
<path fill-rule="evenodd" clip-rule="evenodd" d="M24.5484 6.11163C26.092 6.11163 27.3161 7.40052 27.3161 9.0561V9.44484H22.8985C23.0689 10.3894 23.7501 10.9449 24.5484 10.9449C25.102 10.9449 25.4959 10.7671 25.7407 10.556C25.8791 10.4449 25.9963 10.3116 26.092 10.1671H27.2629C27.1245 10.5115 26.9435 10.8227 26.6988 11.0893C26.2731 11.5338 25.6236 12.0004 24.5484 12.0004C23.005 12.0004 21.7808 10.7116 21.7808 9.0561C21.7808 7.40052 23.005 6.11163 24.5484 6.11163ZM26.1452 8.50045C26.0281 7.83382 25.5172 7.1671 24.5484 7.1671C23.8032 7.1671 23.122 7.65603 22.9517 8.50045H26.1452Z" fill="white"/>
<path fill-rule="evenodd" clip-rule="evenodd" d="M28.1252 6.22233H29.243V7.00014H29.2963C29.392 6.83342 29.5092 6.68894 29.6581 6.55561C29.9137 6.33342 30.2968 6.11123 30.893 6.11123C31.5849 6.11123 32.0214 6.37781 32.2874 6.64455C32.4472 6.80003 32.5643 6.97783 32.6495 7.1667H32.7027C32.7984 6.97783 32.9368 6.80003 33.1178 6.64455C33.4052 6.37781 33.8736 6.11123 34.5655 6.11123C35.8003 6.11123 36.5882 6.93344 36.5882 8.50008V11.8889H35.4703V8.55561C35.4703 7.61116 35.0551 7.1667 34.2994 7.1667C33.5649 7.1667 32.9156 7.83335 32.9156 8.77788V11.8889H31.7978V8.55561C31.7978 7.61116 31.3826 7.1667 30.6268 7.1667C29.8923 7.1667 29.243 7.83335 29.243 8.77788V11.8889H28.1252V6.22233Z" fill="white"/>
<path fill-rule="evenodd" clip-rule="evenodd" d="M38.217 4C38.5895 4 38.8879 4.31112 38.8879 4.70003C38.8879 5.08894 38.5895 5.38883 38.217 5.38883C37.8446 5.38883 37.5571 5.08894 37.5571 4.70003C37.5571 4.31112 37.8446 4 38.217 4ZM37.6636 11.8888H38.7814V6.22227H37.6636V11.8888Z" fill="white"/>
<path fill-rule="evenodd" clip-rule="evenodd" d="M42.1259 6.11163C42.6793 6.11163 43.1052 6.32274 43.3927 6.53385C43.5631 6.65602 43.7121 6.80051 43.8291 6.94492H43.8826V6.22273H45V11.8893H43.8826V11.1115H43.8291C43.7121 11.2782 43.5631 11.4226 43.3927 11.556C43.1052 11.7782 42.6793 12.0004 42.1259 12.0004C40.689 12.0004 39.5712 10.8338 39.5712 9.0561C39.5712 7.27835 40.689 6.11163 42.1259 6.11163ZM42.3388 10.9449C43.2437 10.9449 43.8826 10.2894 43.8826 9.0561C43.8826 7.82274 43.2437 7.1671 42.3388 7.1671C41.37 7.1671 40.7421 7.82274 40.7421 9.0561C40.7421 10.2894 41.37 10.9449 42.3388 10.9449Z" fill="white"/>
<path fill-rule="evenodd" clip-rule="evenodd" d="M2.71957 6.25815H7.28042C7.53978 6.25815 7.68957 6.5627 7.53712 6.7798L5.36655 9.86905C5.21394 10.0862 5.36381 10.3907 5.62317 10.3907H7.53604C7.63755 10.3907 7.73294 10.3404 7.79266 10.2553L9.93932 7.20019C10.0202 7.08495 10.0202 6.92899 9.93932 6.81376L8.05729 4.13537C7.9976 4.0503 7.90218 4 7.80071 4H2.1993C2.09773 4 2.00241 4.0503 1.94269 4.13537L0.0606725 6.81376C-0.0202242 6.92899 -0.0202242 7.08502 0.0606725 7.20019L4.74329 13.8648C4.86998 14.0451 5.12995 14.0451 5.25664 13.8648L6.21297 12.5036C6.29395 12.3884 6.29395 12.2324 6.21297 12.1171L2.46295 6.7798C2.31042 6.5627 2.46023 6.25815 2.71957 6.25815Z" fill="#5294FF"/>
</svg>
