<svg width="15" height="16" viewBox="0 0 15 16" fill="none" xmlns="http://www.w3.org/2000/svg">
<g clip-path="url(#clip0_2064_1474)">
<path d="M14.777 5.92896C14.3224 4.28103 13.2178 2.87708 11.7056 2.02548C10.1934 1.17387 8.39733 0.944295 6.7122 1.38734C6.58232 1.42281 6.45222 1.46427 6.32529 1.50552L6.00184 0.727937C5.94828 0.599444 5.82515 0.511785 5.68367 0.501062C5.5424 0.490543 5.40703 0.558814 5.33386 0.677613L4.04914 2.77102C3.99179 2.8694 3.9842 2.9882 4.02869 3.09277C4.07297 3.19755 4.16426 3.27633 4.27601 3.30624L6.69427 3.93012L6.69406 3.92992C6.83154 3.96415 6.97681 3.92002 7.07064 3.81586C7.16426 3.71191 7.19041 3.56527 7.13854 3.43615L6.78789 2.59938L7.03269 2.52245V2.52266C8.33847 2.17926 9.7284 2.33064 10.925 2.94609C12.1218 3.56173 13.0369 4.5965 13.4875 5.84326C13.9383 7.09024 13.8915 8.45749 13.3563 9.67209C13.222 9.96847 13.3569 10.3154 13.6585 10.4497C13.7337 10.4823 13.8151 10.4994 13.8974 10.5C14.14 10.4998 14.3589 10.3579 14.4536 10.1393C15.0467 8.81247 15.1608 7.32747 14.777 5.92891L14.777 5.92896Z" fill="#6988FF"/>
<path d="M11.7135 12.407L9.29982 11.7263V11.7265C9.16177 11.6849 9.01382 11.7317 8.91869 11.8468C8.82357 11.9621 8.7981 12.1256 8.85325 12.2678L9.18808 13.1492C9.10958 13.1752 9.03128 13.2044 8.95279 13.227C7.65195 13.5983 6.26889 13.4303 5.07791 12.7565C3.88714 12.0828 2.97566 10.9524 2.52488 9.59021C2.07388 8.22782 2.1166 6.73318 2.6442 5.40286C2.7749 5.07345 2.63242 4.69269 2.32579 4.55211C2.01916 4.41171 1.66456 4.56477 1.53386 4.89418C0.880398 6.52581 0.824852 8.36234 1.37813 10.0363C1.93144 11.71 3.05271 13.0977 4.51765 13.9213C5.9826 14.7449 7.68309 14.9439 9.27852 14.4782C9.40522 14.4425 9.52896 14.3972 9.65565 14.355L9.99048 15.2399H9.99069C10.0414 15.3848 10.1654 15.4854 10.3089 15.4985C10.4526 15.5118 10.5905 15.435 10.6635 15.3014L11.9458 13.0097L11.9456 13.01C12.0077 12.8996 12.0172 12.7644 11.9713 12.6455C11.9256 12.5264 11.8296 12.438 11.7135 12.407L11.7135 12.407Z" fill="#6988FF"/>
</g>
<defs>
<clipPath id="clip0_2064_1474">
<rect width="15" height="15" fill="white" transform="translate(0 0.5)"/>
</clipPath>
</defs>
</svg>
