<svg width="21" height="21" viewBox="0 0 21 21" fill="none" xmlns="http://www.w3.org/2000/svg">
<path d="M6.15705 4.24741C6.15705 3.91657 6.28183 3.59929 6.50392 3.36536C6.72602 3.13142 7.02725 3 7.34134 3H12.0785C13.9449 3 15.4466 3.68524 16.4809 4.80791C17.4629 5.8871 18.0077 7.32643 17.9999 8.82123C18.0077 10.316 17.4629 11.7554 16.4809 12.8346C15.4466 13.9572 13.9449 14.6425 12.0785 14.6425H7.04132L8.17824 15.84C8.29459 15.9542 8.38792 16.0919 8.45265 16.2449C8.51737 16.3979 8.55218 16.5631 8.55498 16.7306C8.55779 16.8981 8.52854 17.0644 8.46898 17.2198C8.40941 17.3751 8.32076 17.5162 8.2083 17.6346C8.09584 17.7531 7.96188 17.8465 7.81442 17.9092C7.66696 17.972 7.50901 18.0028 7.34999 17.9998C7.19098 17.9969 7.03415 17.9602 6.88888 17.892C6.74361 17.8238 6.61287 17.7255 6.50445 17.603L3.34635 14.2766C3.12457 14.0427 3 13.7256 3 13.3951C3 13.0645 3.12457 12.7474 3.34635 12.5136L6.50445 9.18714C6.72895 8.9668 7.02588 8.84684 7.33269 8.85254C7.6395 8.85824 7.93224 8.98916 8.14922 9.21771C8.3662 9.44625 8.49049 9.75459 8.4959 10.0778C8.50131 10.4009 8.38743 10.7137 8.17824 10.9501L7.04132 12.1477H12.0785C13.3701 12.1477 14.237 11.6886 14.7818 11.0982C15.3349 10.4841 15.6395 9.66759 15.6313 8.82123C15.6395 7.97487 15.3349 7.15833 14.7818 6.5443C14.237 5.95386 13.3701 5.49481 12.0785 5.49481H7.34134C7.02725 5.49481 6.72602 5.36339 6.50392 5.12946C6.28183 4.89552 6.15705 4.57824 6.15705 4.24741Z" fill="#384263"/>
</svg>
