<svg width="40" height="17" viewBox="0 0 40 17" fill="none" xmlns="http://www.w3.org/2000/svg">
<path d="M13 12.9996L7.00916 4L1 12.9996H9.37214L7.00916 9.56487L5.83701 11.3495H4.59126L7.00995 7.76134L10.5065 13L13 12.9996Z" fill="url(#paint0_linear_4327_6530)"/>
<path d="M19.7426 8.93255C19.6637 8.93255 19.6299 8.96587 19.6299 9.04364V9.71017C19.6299 9.78793 19.6637 9.82126 19.7426 9.82126H21.9848V10.9895C21.7405 11.3587 21.4009 11.6571 21.0009 11.854C20.6009 12.0509 20.1549 12.1391 19.7088 12.1097C18.03 12.1097 16.9934 11.0451 16.9934 8.9992C16.9934 6.96627 18.2102 5.88871 19.5961 5.88871C20.6759 5.88871 21.5566 6.31085 21.8383 7.33287C21.843 7.36455 21.8594 7.39339 21.8843 7.41389C21.9093 7.43439 21.941 7.44509 21.9735 7.44396H22.6927C22.7716 7.44396 22.8167 7.41063 22.8167 7.33287C22.5124 5.77762 21.1604 5 19.5942 5C17.8366 5 16 6.33307 16 8.9992C16 11.632 17.737 12.9984 19.752 12.9984C20.3596 13.0166 20.9617 12.8787 21.4989 12.5983C22.0362 12.3178 22.4903 11.9045 22.8167 11.3987C22.8973 11.2728 22.9366 11.1254 22.9293 10.9766V9.04549C22.9293 8.96773 22.8955 8.9344 22.8167 8.9344L19.7426 8.93255ZM31.4379 5.22218C31.4379 5.14442 31.4041 5.11109 31.3253 5.11109H30.2549C30.2166 5.10731 30.1781 5.11616 30.1455 5.13627C30.1129 5.15637 30.0879 5.18659 30.0746 5.22218L27.8888 10.1656L25.7029 5.22218C25.6896 5.18659 25.6647 5.15637 25.632 5.13627C25.5994 5.11616 25.5609 5.10731 25.5227 5.11109H24.4523C24.3734 5.11109 24.3396 5.14442 24.3396 5.22218V12.7762C24.3396 12.854 24.3734 12.8873 24.4523 12.8873H25.1734C25.2522 12.8873 25.286 12.854 25.286 12.7762V6.56635L27.4925 11.4876C27.5036 11.5171 27.5236 11.5424 27.5498 11.5603C27.576 11.5782 27.6071 11.5877 27.639 11.5876H28.1385C28.1704 11.5877 28.2015 11.5782 28.2277 11.5603C28.2539 11.5424 28.2739 11.5171 28.285 11.4876L30.4915 6.56635V12.7762C30.4915 12.854 30.5253 12.8873 30.6042 12.8873H31.3253C31.4041 12.8873 31.4379 12.854 31.4379 12.7762V5.22218ZM33.8942 5.22218C33.8153 5.1222 33.8153 5.11109 33.7364 5.11109H32.8689C32.79 5.11109 32.7562 5.16663 32.79 5.22218L35.1786 8.78628L32.497 12.7762C32.4632 12.8318 32.497 12.8873 32.5759 12.8873H33.421C33.4998 12.8873 33.5224 12.8762 33.6012 12.7762L35.7439 9.60093L37.8828 12.7762C37.9616 12.8762 37.9842 12.8873 38.063 12.8873H38.9081C38.9869 12.8873 39.0208 12.8318 38.9869 12.7762L36.3072 8.78813L38.6959 5.22403C38.7297 5.16849 38.6959 5.11294 38.617 5.11294H37.7476C37.6687 5.11294 37.6687 5.12405 37.5898 5.22403L35.7439 7.96607L33.8942 5.22218Z" fill="white"/>
<defs>
<linearGradient id="paint0_linear_4327_6530" x1="7.432" y1="4.234" x2="3.50108" y2="13.9577" gradientUnits="userSpaceOnUse">
<stop stop-color="#03D1CF" stop-opacity="0.988"/>
<stop offset="1" stop-color="#4E09F8"/>
</linearGradient>
</defs>
</svg>
