<svg width="15" height="15" viewBox="0 0 15 15" fill="none" xmlns="http://www.w3.org/2000/svg">
<path d="M5.00019 4.25V2.75703C5.00019 2.33891 5.33994 2 5.74794 2H10.2524C10.6654 2 11.0002 2.33249 11.0002 2.75703V4.25H13.6278C13.8334 4.25 14.0001 4.42394 14.0001 4.625C14.0001 4.83209 13.8304 5 13.6278 5H13.1265L11.7883 13.2511C11.7268 13.6647 11.3979 14 11.0629 14H4.93715C4.59789 14 4.27329 13.6643 4.21184 13.2511L2.87356 5H2.37232C2.16666 5 2 4.82606 2 4.625C2 4.41791 2.16967 4.25 2.37232 4.25H5.00019ZM4.9539 13.1409C4.96437 13.2117 5.00153 13.2501 4.93733 13.2501H11.0631C10.9971 13.2501 11.0363 13.2097 11.0481 13.1311L12.3668 5.00006H3.63361L4.9539 13.1409ZM5.75019 4.25H10.2502V2.75703C10.2502 2.75226 10.2508 2.7505 10.2514 2.75H5.74793C5.75379 2.75 5.75019 2.7536 5.75019 2.75703L5.75019 4.25ZM6.50019 7.61814C6.50019 7.41482 6.67413 7.24992 6.87519 7.24992C7.08228 7.24992 7.25019 7.42084 7.25019 7.61814V11.3816C7.25019 11.585 7.07625 11.7499 6.87519 11.7499C6.6681 11.7499 6.50019 11.5789 6.50019 11.3816V7.61814ZM8.75019 7.61814C8.75019 7.41482 8.92413 7.24992 9.12519 7.24992C9.33228 7.24992 9.50019 7.42084 9.50019 7.61814V11.3816C9.50019 11.585 9.32625 11.7499 9.12519 11.7499C8.9181 11.7499 8.75019 11.5789 8.75019 11.3816V7.61814Z" fill="#6988FF"/>
</svg>
