<svg width="20" height="20" viewBox="0 0 20 20" fill="none" xmlns="http://www.w3.org/2000/svg">
<path d="M10 10.9C12.1298 10.9 14.0667 11.5246 15.4916 12.4039C16.2027 12.8449 16.8107 13.3624 17.2498 13.9249C17.6818 14.4793 18 15.1417 18 15.85C18 16.6105 17.6347 17.2099 17.1084 17.6374C16.6107 18.0424 15.9538 18.3106 15.256 18.4978C13.8533 18.8731 11.9813 19 10 19C8.01867 19 6.14667 18.874 4.744 18.4978C4.04622 18.3106 3.38933 18.0424 2.89156 17.6374C2.36444 17.209 2 16.6105 2 15.85C2 15.1417 2.31822 14.4793 2.75022 13.9249C3.18933 13.3624 3.79644 12.8449 4.50844 12.4039C5.93333 11.5246 7.87111 10.9 10 10.9ZM10 1C11.1787 1 12.3092 1.47411 13.1427 2.31802C13.9762 3.16193 14.4444 4.30653 14.4444 5.5C14.4444 6.69347 13.9762 7.83807 13.1427 8.68198C12.3092 9.52589 11.1787 10 10 10C8.82126 10 7.6908 9.52589 6.8573 8.68198C6.02381 7.83807 5.55556 6.69347 5.55556 5.5C5.55556 4.30653 6.02381 3.16193 6.8573 2.31802C7.6908 1.47411 8.82126 1 10 1Z" fill="#6988FF"/>
</svg>
