<svg width="30" height="30" viewBox="0 0 30 30" fill="none" xmlns="http://www.w3.org/2000/svg">
<g clip-path="url(#clip0_2603_1472)">
<circle cx="15" cy="15" r="15" fill="#233059"/>
<path d="M16 20C17.0534 19.8103 18 19.1699 18 17.989C18 16.9684 17.256 16.4791 16 16V20Z" fill="#6988FF"/>
<path d="M12 12.0108C12 13.0315 12.744 13.5209 14 14V10C12.9466 10.1895 12 10.8308 12 12.0108Z" fill="#6988FF"/>
<path d="M15 0C6.72888 0 0 6.72888 0 15C0 23.2711 6.72888 30 15 30C23.2711 30 30 23.2711 30 15C30 6.72888 23.2711 0 15 0ZM19.5001 18.0003C19.5001 20.077 17.7151 21.2719 15.7501 21.5149V22.5003H14.2502V21.5142C13.4064 21.4137 12.6272 21.1483 12.0062 20.7342C11.0346 20.086 10.4999 19.1154 10.4999 18.0003H11.9999C11.9999 19.1718 13.0648 19.8086 14.2499 19.9969V15.5561C12.4596 15.0002 10.4999 14.2104 10.4999 12.0001C10.4999 9.92328 12.2849 8.72845 14.2499 8.48538V7.5H15.7498V8.48538C17.7148 8.72771 19.4998 9.92303 19.4998 12.0001H17.9999C17.9999 11.3851 17.7179 10.8856 17.1622 10.5149C16.7835 10.262 16.2885 10.0905 15.7498 10.0041V14.4449C17.5403 15.0002 19.5001 15.7899 19.5001 18.0003Z" fill="#6988FF"/>
</g>
<defs>
<clipPath id="clip0_2603_1472">
<rect width="30" height="30" fill="white"/>
</clipPath>
</defs>
</svg>
