<svg width="21" height="21" viewBox="0 0 21 21" fill="none" xmlns="http://www.w3.org/2000/svg">
<path d="M15.8749 6.73715C16.0092 6.88116 16.0353 7.03994 15.9535 7.21349L9.92807 19.73C9.83096 19.91 9.67481 20 9.45964 20C9.43012 20 9.37823 19.9926 9.30397 19.9778C9.17734 19.9418 9.08261 19.8735 9.01977 19.7729C8.95693 19.6723 8.94027 19.5643 8.96978 19.4489L11.1677 10.7085L6.6376 11.8011C6.60809 11.8085 6.56334 11.8121 6.50335 11.8121C6.36911 11.8121 6.2539 11.7725 6.15774 11.6931C6.02349 11.5851 5.97494 11.4443 6.01207 11.2707L8.25427 2.3462C8.28379 2.24558 8.3433 2.16249 8.43279 2.09695C8.52229 2.03141 8.62655 1.9991 8.74556 2.00002H12.4059C12.5468 2.00002 12.6659 2.04525 12.763 2.13572C12.8601 2.22619 12.9086 2.33235 12.9086 2.45421C12.9086 2.51144 12.8901 2.57652 12.8529 2.64945L10.9449 7.65799L15.3636 6.59729C15.4227 6.58252 15.4674 6.57514 15.4979 6.57514C15.6388 6.57514 15.7654 6.62914 15.8778 6.73715H15.8749Z" fill="#6988FF"/>
</svg>
