<svg width="40" height="17" viewBox="0 0 40 17" fill="none" xmlns="http://www.w3.org/2000/svg">
<path d="M14.633 12C14.14 12 13.6922 11.8783 13.2894 11.635C12.8927 11.3917 12.5771 11.0361 12.3426 10.5682C12.1142 10.094 12 9.52005 12 8.84626C12 8.1787 12.1172 7.60784 12.3517 7.13369C12.5861 6.6533 12.9047 6.28832 13.3075 6.03877C13.7102 5.78298 14.1671 5.65508 14.6781 5.65508C15.0688 5.65508 15.3994 5.73619 15.6699 5.8984C15.9464 6.05437 16.1719 6.22906 16.3462 6.42246L15.7691 7.09626C15.6369 6.94652 15.4836 6.82799 15.3092 6.74064C15.1409 6.64706 14.9305 6.60027 14.6781 6.60027C14.3655 6.60027 14.0889 6.69073 13.8485 6.87166C13.608 7.04635 13.4187 7.29902 13.2804 7.62968C13.1482 7.96034 13.082 8.35651 13.082 8.81818C13.082 9.27986 13.1422 9.67914 13.2624 10.016C13.3886 10.3529 13.572 10.6119 13.8124 10.7928C14.0529 10.9675 14.3474 11.0548 14.6961 11.0548C14.8524 11.0548 15.0027 11.033 15.1469 10.9893C15.2912 10.9394 15.4054 10.8708 15.4896 10.7834V9.4639H14.4707V8.57487H16.4364V11.2701C16.244 11.4697 15.9885 11.6413 15.6699 11.7848C15.3573 11.9283 15.0117 12 14.633 12Z" fill="white"/>
<path d="M19.0929 12C18.8043 12 18.5488 11.9439 18.3264 11.8316C18.104 11.713 17.9297 11.5539 17.8034 11.3543C17.6772 11.1546 17.6141 10.9207 17.6141 10.6524C17.6141 10.1408 17.8485 9.75089 18.3174 9.48262C18.7923 9.20811 19.5768 9.0303 20.6708 8.9492C20.6588 8.78075 20.6137 8.6279 20.5356 8.49064C20.4635 8.35339 20.3522 8.24733 20.202 8.17246C20.0517 8.09135 19.8563 8.0508 19.6159 8.0508C19.4475 8.0508 19.2822 8.07264 19.1199 8.11631C18.9576 8.15998 18.7953 8.21925 18.633 8.29412C18.4767 8.36898 18.3204 8.45009 18.1641 8.53743L17.7854 7.81684C17.9657 7.70455 18.1641 7.6016 18.3805 7.50802C18.5969 7.4082 18.8254 7.33021 19.0658 7.27406C19.3063 7.21168 19.5527 7.18048 19.8052 7.18048C20.22 7.18048 20.5656 7.25847 20.8422 7.41444C21.1247 7.56417 21.3381 7.78877 21.4824 8.08824C21.6327 8.38146 21.7078 8.7402 21.7078 9.16444V11.8877H20.8602L20.7791 11.3168H20.752C20.5176 11.504 20.2561 11.6662 19.9675 11.8035C19.685 11.9345 19.3934 12 19.0929 12ZM19.4085 11.1578C19.6309 11.1578 19.8443 11.1078 20.0487 11.008C20.2591 10.902 20.4665 10.7647 20.6708 10.5963V9.62299C20.1418 9.66043 19.7271 9.72282 19.4265 9.81016C19.1259 9.89127 18.9155 9.99733 18.7953 10.1283C18.6751 10.2594 18.615 10.406 18.615 10.5682C18.615 10.7054 18.651 10.8177 18.7232 10.9051C18.7953 10.9924 18.8885 11.0579 19.0027 11.1016C19.1229 11.139 19.2582 11.1578 19.4085 11.1578Z" fill="white"/>
<path d="M25.0586 11.8877V8.14439H23.138V7.29278H26.0956V11.8877H25.0586ZM25.5004 6.45053C25.29 6.45053 25.1127 6.38503 24.9684 6.25401C24.8302 6.12299 24.7611 5.94831 24.7611 5.72995C24.7611 5.51159 24.8302 5.3369 24.9684 5.20588C25.1127 5.06863 25.29 5 25.5004 5C25.7169 5 25.8942 5.06863 26.0324 5.20588C26.1707 5.3369 26.2398 5.51159 26.2398 5.72995C26.2398 5.94831 26.1707 6.12299 26.0324 6.25401C25.8942 6.38503 25.7169 6.45053 25.5004 6.45053Z" fill="white"/>
<path d="M28.5266 11.8877V7.29278H29.3833L29.4644 7.98529H29.5005C29.7109 7.7607 29.9423 7.57041 30.1948 7.41444C30.4533 7.25847 30.7538 7.18048 31.0965 7.18048C31.6075 7.18048 31.9832 7.34269 32.2236 7.66711C32.4641 7.99153 32.5843 8.45009 32.5843 9.04278V11.8877H31.5383V9.18316C31.5383 8.81506 31.4752 8.54367 31.349 8.36898C31.2227 8.1943 31.0093 8.10695 30.7088 8.10695C30.4923 8.10695 30.3 8.15998 30.1317 8.26604C29.9634 8.3721 29.777 8.53431 29.5726 8.75267V11.8877H28.5266Z" fill="white"/>
<path d="M35.9261 12C35.5113 12 35.1146 11.9314 34.7358 11.7941C34.3571 11.6506 34.0295 11.4822 33.753 11.2888L34.2038 10.6056C34.4683 10.7865 34.7539 10.93 35.0605 11.0361C35.367 11.1359 35.7007 11.1858 36.0613 11.1858C36.3679 11.1858 36.5933 11.1328 36.7376 11.0267C36.8879 10.9144 36.963 10.7834 36.963 10.6337C36.963 10.5588 36.945 10.4902 36.9089 10.4278C36.8789 10.3654 36.8218 10.3093 36.7376 10.2594C36.6535 10.2032 36.5302 10.1502 36.3679 10.1003C36.2056 10.0504 35.9952 9.99733 35.7367 9.94118C35.1476 9.81016 34.7148 9.63235 34.4383 9.40775C34.1618 9.18316 34.0235 8.89929 34.0235 8.55615C34.0235 8.15062 34.1918 7.81996 34.5284 7.56417C34.8711 7.30838 35.352 7.18048 35.9712 7.18048C36.3379 7.18048 36.6805 7.24287 36.9991 7.36765C37.3237 7.49242 37.5972 7.6328 37.8197 7.78877L37.3418 8.45321C37.1314 8.30348 36.8999 8.19118 36.6474 8.11631C36.395 8.03521 36.1395 7.99465 35.881 7.99465C35.6826 7.99465 35.5233 8.01649 35.4031 8.06016C35.2889 8.10383 35.2017 8.16622 35.1416 8.24733C35.0875 8.32219 35.0605 8.40642 35.0605 8.5C35.0605 8.66221 35.1506 8.78387 35.331 8.86497C35.5113 8.94608 35.8059 9.03342 36.2146 9.12701C36.6895 9.23307 37.0562 9.35472 37.3147 9.49198C37.5732 9.62299 37.7505 9.77585 37.8467 9.95054C37.9489 10.119 38 10.328 38 10.5775C38 10.8396 37.9188 11.0798 37.7565 11.2981C37.6002 11.5102 37.3688 11.6818 37.0622 11.8128C36.7557 11.9376 36.3769 12 35.9261 12Z" fill="white"/>
<g clip-path="url(#clip0_4327_6548)">
<path opacity="0.99" d="M6 8C5.97246 7.83207 5.87844 7.68143 5.73822 7.58055C4.96002 6.91361 3.11209 6.8683 1 7.50967L3.6178 6.03637C5.505 5.77958 5.94883 6.92988 6 8Z" fill="url(#paint0_linear_4327_6548)"/>
<path d="M6 7.64482C5.8852 7.54986 5.74743 7.49421 5.60396 7.48485C5.46048 7.4755 5.31768 7.51285 5.19346 7.59222L1.66563 9.82842C1.54039 9.91075 1.40149 9.9649 1.257 9.9877C1.11252 10.0105 0.965351 10.0015 0.824062 9.96127C0.682773 9.92102 0.550189 9.8503 0.434031 9.75323C0.317872 9.65617 0.220461 9.53469 0.147468 9.39589C0.0744754 9.25708 0.0273607 9.10371 0.00886751 8.94472C-0.00962573 8.78572 0.000872026 8.62428 0.0397495 8.46978C0.078627 8.31528 0.145107 8.17083 0.235319 8.04481C0.325531 7.9188 0.437671 7.81376 0.565211 7.7358L0.844847 7.5581C3.14279 6.77337 5.15332 6.82881 6 7.64482Z" fill="url(#paint1_linear_4327_6548)"/>
<path opacity="0.32" d="M6 8C5.97246 7.83207 5.87844 7.68143 5.73822 7.58055C4.96002 6.91361 3.11209 6.8683 1 7.50967L3.6178 6.03637C5.505 5.77958 5.94883 6.92988 6 8Z" fill="url(#paint2_linear_4327_6548)"/>
<path opacity="0.32" d="M6 7.64482C5.8852 7.54986 5.74743 7.49421 5.60396 7.48485C5.46048 7.4755 5.31768 7.51285 5.19346 7.59222L1.66563 9.82842C1.54039 9.91075 1.40149 9.9649 1.257 9.9877C1.11252 10.0105 0.965351 10.0015 0.824062 9.96127C0.682773 9.92102 0.550189 9.8503 0.434031 9.75323C0.317872 9.65617 0.220461 9.53469 0.147468 9.39589C0.0744754 9.25708 0.0273607 9.10371 0.00886751 8.94472C-0.00962573 8.78572 0.000872026 8.62428 0.0397495 8.46978C0.078627 8.31528 0.145107 8.17083 0.235319 8.04481C0.325531 7.9188 0.437671 7.81376 0.565211 7.7358L0.844847 7.5581C3.14279 6.77337 5.15332 6.82881 6 7.64482Z" fill="url(#paint3_linear_4327_6548)"/>
<path d="M7.99997 5.45396L7.96241 11.9274C7.96171 12.0691 7.93147 12.2094 7.87343 12.34C7.81539 12.4707 7.73069 12.5892 7.62417 12.6888C7.51765 12.7885 7.39141 12.8672 7.25268 12.9206C7.11395 12.974 6.96545 13.001 6.81569 13C6.51358 12.9983 6.22452 12.8832 6.01202 12.6799C5.79952 12.4767 5.68096 12.2019 5.68239 11.916L5.7025 7.94307C5.7033 7.90053 5.69971 7.85801 5.69177 7.81613C5.63276 6.65091 5.1325 5.3943 3 5.67482L5.71055 4.19354C5.94331 4.06635 6.20743 3.99959 6.4762 4C6.74497 4.00041 7.00886 4.06799 7.24118 4.19589C7.4735 4.3238 7.66602 4.50749 7.79926 4.7284C7.9325 4.94931 8.00173 5.1996 7.99997 5.45396Z" fill="url(#paint4_linear_4327_6548)"/>
<path d="M2.07588 11.1905C2.48671 11.5976 3.0271 11.8778 3.62158 11.992C3.66549 12.0019 3.7113 12.0026 3.75557 11.9941C3.79983 11.9856 3.84141 11.9681 3.87716 11.9429C3.91291 11.9177 3.94192 11.8854 3.96201 11.8486C3.9821 11.8117 3.99274 11.7712 3.99314 11.73C3.99314 11.3475 3.99314 10.7082 4 10.2664C3.99908 10.2201 3.98511 10.1747 3.95943 10.1347C3.93375 10.0946 3.89721 10.0612 3.8533 10.0376C3.80939 10.0141 3.75957 10.0012 3.7086 10.0001C3.65762 9.999 3.6072 10.0098 3.56213 10.0315L2.15134 10.7737C2.11256 10.7937 2.0792 10.8213 2.05369 10.8545C2.02819 10.8877 2.0112 10.9257 2.00396 10.9657C1.99672 11.0057 1.99943 11.0466 2.01187 11.0855C2.02432 11.1245 2.04619 11.1603 2.07588 11.1905Z" fill="url(#paint5_linear_4327_6548)"/>
</g>
<defs>
<linearGradient id="paint0_linear_4327_6548" x1="4.01642" y1="5.72033" x2="3.57615" y2="7.53897" gradientUnits="userSpaceOnUse">
<stop offset="0.08" stop-color="#2C7AA8"/>
<stop offset="1" stop-color="#5FFEAE"/>
</linearGradient>
<linearGradient id="paint1_linear_4327_6548" x1="3.96616" y1="5.48823" x2="1.34272" y2="11.4063" gradientUnits="userSpaceOnUse">
<stop offset="0.11" stop-color="#267DAF"/>
<stop offset="1" stop-color="#5FFEAE"/>
</linearGradient>
<linearGradient id="paint2_linear_4327_6548" x1="4.75535" y1="5.61343" x2="3.83831" y2="7.25429" gradientUnits="userSpaceOnUse">
<stop offset="0.04"/>
<stop offset="0.96" stop-color="#0E0E0E" stop-opacity="0"/>
</linearGradient>
<linearGradient id="paint3_linear_4327_6548" x1="3.05864" y1="6.8345" x2="2.93848" y2="9.48631" gradientUnits="userSpaceOnUse">
<stop offset="0.05"/>
<stop offset="0.9" stop-color="#0E0E0E" stop-opacity="0"/>
</linearGradient>
<linearGradient id="paint4_linear_4327_6548" x1="5.2009" y1="4.29889" x2="7.02524" y2="12.3045" gradientUnits="userSpaceOnUse">
<stop offset="0.08" stop-color="#4DFC8D"/>
<stop offset="1" stop-color="#1FC3F1"/>
</linearGradient>
<linearGradient id="paint5_linear_4327_6548" x1="-0.800584" y1="8.48677" x2="5.50161" y2="12.8934" gradientUnits="userSpaceOnUse">
<stop offset="0.07" stop-color="#3EFE99"/>
<stop offset="1" stop-color="#2AABF0"/>
</linearGradient>
<clipPath id="clip0_4327_6548">
<rect width="8" height="9" fill="white" transform="translate(0 4)"/>
</clipPath>
</defs>
</svg>
