<svg width="30" height="41" viewBox="0 0 30 41" fill="none" xmlns="http://www.w3.org/2000/svg">
<g filter="url(#filter0_b_3231_2927)">
<circle cx="15" cy="26" r="15" fill="#20224E"/>
<circle cx="15" cy="26" r="14.5" stroke="#6988FF"/>
</g>
<path d="M14.5 26C14.5 26.2761 14.7239 26.5 15 26.5C15.2761 26.5 15.5 26.2761 15.5 26L14.5 26ZM15.3536 0.646446C15.1583 0.451185 14.8417 0.451185 14.6464 0.646446L11.4645 3.82843C11.2692 4.02369 11.2692 4.34027 11.4645 4.53553C11.6597 4.7308 11.9763 4.7308 12.1716 4.53553L15 1.70711L17.8284 4.53553C18.0237 4.7308 18.3403 4.7308 18.5355 4.53553C18.7308 4.34027 18.7308 4.02369 18.5355 3.82843L15.3536 0.646446ZM15.5 26L15.5 1L14.5 1L14.5 26L15.5 26Z" fill="#6988FF"/>
<defs>
<filter id="filter0_b_3231_2927" x="-10" y="1" width="50" height="50" filterUnits="userSpaceOnUse" color-interpolation-filters="sRGB">
<feFlood flood-opacity="0" result="BackgroundImageFix"/>
<feGaussianBlur in="BackgroundImageFix" stdDeviation="5"/>
<feComposite in2="SourceAlpha" operator="in" result="effect1_backgroundBlur_3231_2927"/>
<feBlend mode="normal" in="SourceGraphic" in2="effect1_backgroundBlur_3231_2927" result="shape"/>
</filter>
</defs>
</svg>
