<svg width="21" height="20" viewBox="0 0 21 20" fill="none" xmlns="http://www.w3.org/2000/svg">
<g opacity="0.8" clip-path="url(#clip0_2401_751)">
<path fill-rule="evenodd" clip-rule="evenodd" d="M10.5 6.10352e-05C16.023 6.10352e-05 20.5 4.47711 20.5 10.0001C20.5 15.5226 16.023 20.0001 10.5 20.0001C4.97705 20.0001 0.5 15.5226 0.5 10.0001C0.5 4.47711 4.97705 6.10352e-05 10.5 6.10352e-05Z" fill="#2775CA"/>
<path fill-rule="evenodd" clip-rule="evenodd" d="M8.62543 16.9527C8.62543 17.1879 8.44123 17.3216 8.21373 17.2505C5.19021 16.286 2.99805 13.4509 2.99805 10.1057C2.99805 6.76055 5.19021 3.92532 8.21373 2.96078C8.44123 2.89021 8.62543 3.02339 8.62543 3.25862V3.8393C8.62543 3.99589 8.50407 4.18021 8.35487 4.23123C5.96271 5.10964 4.24907 7.40771 4.24907 10.1017C4.24907 12.7957 5.96271 15.0942 8.35487 15.9721C8.50407 16.0271 8.62543 16.2074 8.62543 16.3645V16.9527Z" fill="white"/>
<path fill-rule="evenodd" clip-rule="evenodd" d="M11.1235 14.7919C11.1235 14.9646 10.9824 15.1057 10.8099 15.1057H10.1862C10.0137 15.1057 9.87261 14.9646 9.87261 14.7919V13.8038C8.50784 13.6196 7.84136 12.8547 7.66091 11.8156C7.62943 11.6389 7.77057 11.4782 7.95102 11.4782H8.66477C8.81375 11.4782 8.93931 11.5842 8.97068 11.733C9.10409 12.3527 9.46091 12.8272 10.5549 12.8272C11.3627 12.8272 11.9355 12.3762 11.9355 11.702C11.9355 11.0272 11.5981 10.7724 10.4137 10.5762C8.66477 10.341 7.83738 9.81141 7.83738 8.43891C7.83738 7.38016 8.6375 6.55675 9.87659 6.38016V5.41152C9.87659 5.23891 10.0178 5.09766 10.1902 5.09766H10.8139C10.9864 5.09766 11.1275 5.23891 11.1275 5.41152V6.40766C12.1353 6.58834 12.7745 7.1605 12.9825 8.10947C13.0216 8.29016 12.8805 8.45845 12.6962 8.45845H12.0373C11.8961 8.45845 11.7785 8.36425 11.7355 8.22709C11.559 7.62345 11.1275 7.3647 10.3784 7.3647C9.55102 7.3647 9.12352 7.76459 9.12352 8.32527C9.12352 8.91743 9.36682 9.21527 10.6375 9.39993C12.3549 9.63516 13.2414 10.1253 13.2414 11.5883C13.2414 12.698 12.4177 13.5961 11.1275 13.8038V14.7919H11.1235Z" fill="white"/>
<path fill-rule="evenodd" clip-rule="evenodd" d="M12.7863 17.2506C12.5591 17.3216 12.3746 17.188 12.3746 16.9527V16.3725C12.3746 16.1999 12.4805 16.0392 12.6452 15.9801C15.0374 15.1017 16.751 12.8037 16.751 10.1097C16.751 7.4157 15.0374 5.11763 12.6452 4.23922C12.4962 4.18422 12.3746 4.00399 12.3746 3.84684V3.26661C12.3746 3.03138 12.5591 2.89422 12.7863 2.96831C15.8099 3.93343 18.002 6.76854 18.002 10.1137C17.9983 13.4508 15.8099 16.2821 12.7863 17.2506Z" fill="white"/>
</g>
<defs>
<clipPath id="clip0_2401_751">
<rect width="20" height="20" fill="white" transform="translate(0.5)"/>
</clipPath>
</defs>
</svg>
