<svg width="21" height="21" viewBox="0 0 21 21" fill="none" xmlns="http://www.w3.org/2000/svg">
<g clip-path="url(#clip0_2517_2035)">
<circle cx="10.5" cy="10.5" r="4.5" fill="#181A3C"/>
<path d="M11.578 0.500002C11.872 0.500002 12.135 0.683002 12.234 0.957002L12.94 2.914C13.193 2.977 13.41 3.04 13.594 3.106C13.795 3.178 14.054 3.287 14.374 3.436L16.018 2.566C16.1522 2.49491 16.3058 2.46925 16.4558 2.49287C16.6058 2.51649 16.7442 2.58811 16.85 2.697L18.296 4.192C18.488 4.391 18.542 4.682 18.434 4.936L17.663 6.743C17.791 6.978 17.893 7.179 17.971 7.347C18.055 7.53 18.159 7.782 18.283 8.107L20.08 8.877C20.35 8.992 20.517 9.262 20.499 9.551L20.367 11.626C20.358 11.7608 20.3096 11.89 20.2278 11.9975C20.146 12.1051 20.0345 12.1863 19.907 12.231L18.205 12.836C18.156 13.071 18.105 13.272 18.051 13.442C17.9639 13.7045 17.8645 13.9628 17.753 14.216L18.608 16.106C18.6683 16.2388 18.6846 16.3874 18.6544 16.5301C18.6241 16.6728 18.549 16.8021 18.44 16.899L16.814 18.351C16.7069 18.4462 16.5733 18.5064 16.431 18.5236C16.2888 18.5408 16.1447 18.514 16.018 18.447L14.342 17.559C14.0798 17.6978 13.8093 17.8204 13.532 17.926L12.8 18.2L12.15 20C12.1018 20.1318 12.0149 20.246 11.9007 20.3276C11.7865 20.4091 11.6503 20.4542 11.51 20.457L9.61 20.5C9.46596 20.5038 9.3243 20.4628 9.20449 20.3828C9.08468 20.3027 8.99263 20.1875 8.941 20.053L8.175 18.026C7.91365 17.9367 7.65488 17.84 7.399 17.736C7.18972 17.6454 6.9836 17.5477 6.781 17.443L4.881 18.255C4.75581 18.3084 4.61779 18.3243 4.48374 18.3007C4.3497 18.2771 4.22541 18.215 4.126 18.122L2.72 16.803C2.61532 16.7052 2.54403 16.577 2.51622 16.4365C2.4884 16.296 2.50547 16.1503 2.565 16.02L3.382 14.24C3.27334 14.0292 3.17261 13.8144 3.08 13.596C2.9719 13.3287 2.87186 13.0583 2.78 12.785L0.990001 12.24C0.844502 12.196 0.717596 12.1052 0.628991 11.9817C0.540386 11.8582 0.495042 11.7089 0.500001 11.557L0.570001 9.636C0.574984 9.51066 0.614138 9.38907 0.683229 9.28438C0.752321 9.17968 0.84872 9.09587 0.962001 9.042L2.84 8.14C2.927 7.821 3.003 7.573 3.07 7.392C3.16434 7.15025 3.26911 6.91269 3.384 6.68L2.57 4.96C2.50823 4.82938 2.48947 4.68254 2.51642 4.54059C2.54337 4.39864 2.61465 4.26889 2.72 4.17L4.124 2.844C4.22242 2.75117 4.34557 2.68876 4.47863 2.66428C4.61169 2.6398 4.74898 2.65429 4.874 2.706L6.772 3.49C6.982 3.35 7.172 3.237 7.344 3.146C7.549 3.037 7.823 2.923 8.168 2.8L8.828 0.959002C8.87679 0.82427 8.96599 0.707883 9.08339 0.625733C9.2008 0.543583 9.34071 0.499674 9.484 0.500002H11.578ZM10.524 7.519C8.857 7.519 7.506 8.854 7.506 10.502C7.506 12.15 8.857 13.486 10.524 13.486C12.19 13.486 13.541 12.15 13.541 10.502C13.541 8.854 12.191 7.519 10.524 7.519Z" fill="#6988FF"/>
</g>
<defs>
<clipPath id="clip0_2517_2035">
<rect width="20" height="20" fill="white" transform="translate(0.5 0.5)"/>
</clipPath>
</defs>
</svg>
