<svg width="20" height="21" viewBox="0 0 20 21" fill="none" xmlns="http://www.w3.org/2000/svg">
<path d="M19.7044 4.91588C19.6115 4.8129 19.5009 4.73116 19.3791 4.67538C19.2573 4.6196 19.1267 4.59088 18.9948 4.59088C18.8628 4.59088 18.7322 4.6196 18.6104 4.67538C18.4886 4.73116 18.3781 4.8129 18.2852 4.91588L11.9988 11.8379L7.71133 7.11333C7.61842 7.01035 7.50788 6.92861 7.38609 6.87283C7.2643 6.81705 7.13367 6.78833 7.00174 6.78833C6.8698 6.78833 6.73917 6.81705 6.61738 6.87283C6.4956 6.92861 6.38506 7.01035 6.29215 7.11333L0.295627 13.7057C0.201953 13.8078 0.127602 13.9293 0.0768624 14.0632C0.0261232 14.1971 0 14.3407 0 14.4858C0 14.6308 0.0261232 14.7744 0.0768624 14.9083C0.127602 15.0422 0.201953 15.1637 0.295627 15.2659C0.388536 15.3689 0.499073 15.4506 0.620862 15.5064C0.74265 15.5622 0.87328 15.5909 1.00522 15.5909C1.13715 15.5909 1.26778 15.5622 1.38957 15.5064C1.51136 15.4506 1.62189 15.3689 1.7148 15.2659L7.00174 9.44263L11.2893 14.1672C11.3822 14.2701 11.4927 14.3519 11.6145 14.4077C11.7363 14.4634 11.8669 14.4922 11.9988 14.4922C12.1308 14.4922 12.2614 14.4634 12.3832 14.4077C12.505 14.3519 12.6155 14.2701 12.7084 14.1672L19.7044 6.47607C19.798 6.37393 19.8724 6.25241 19.9231 6.11852C19.9739 5.98463 20 5.84102 20 5.69598C20 5.55093 19.9739 5.40732 19.9231 5.27343C19.8724 5.13954 19.798 5.01802 19.7044 4.91588Z" fill="#6988FF"/>
</svg>
