<svg width="10" height="10" viewBox="0 0 10 10" fill="none" xmlns="http://www.w3.org/2000/svg">
<g clip-path="url(#clip0_1619_291)">
<path d="M5 9.375C3.83968 9.375 2.72688 8.91406 1.90641 8.09359C1.08594 7.27312 0.625 6.16032 0.625 5C0.625 3.83968 1.08594 2.72688 1.90641 1.90641C2.72688 1.08594 3.83968 0.625 5 0.625C6.16032 0.625 7.27312 1.08594 8.09359 1.90641C8.91406 2.72688 9.375 3.83968 9.375 5C9.375 6.16032 8.91406 7.27312 8.09359 8.09359C7.27312 8.91406 6.16032 9.375 5 9.375ZM5 10C6.32608 10 7.59785 9.47322 8.53553 8.53553C9.47322 7.59785 10 6.32608 10 5C10 3.67392 9.47322 2.40215 8.53553 1.46447C7.59785 0.526784 6.32608 0 5 0C3.67392 0 2.40215 0.526784 1.46447 1.46447C0.526784 2.40215 0 3.67392 0 5C0 6.32608 0.526784 7.59785 1.46447 8.53553C2.40215 9.47322 3.67392 10 5 10Z" fill="#384263"/>
<path d="M3.00016 3.52807C2.99915 3.54966 3.00302 3.57121 3.01154 3.59139C3.02006 3.61157 3.03304 3.62996 3.04969 3.64542C3.06634 3.66089 3.0863 3.6731 3.10835 3.68131C3.1304 3.68953 3.15407 3.69357 3.17791 3.69318H3.78641C3.88819 3.69318 3.96932 3.61765 3.9826 3.52607C4.04898 3.08757 4.38089 2.76805 4.97242 2.76805C5.47839 2.76805 5.94159 2.99733 5.94159 3.5488C5.94159 3.97326 5.66574 4.16845 5.22983 4.46524C4.73345 4.79211 4.34032 5.1738 4.36835 5.79345L4.37056 5.9385C4.37134 5.98236 4.3911 6.02418 4.4256 6.05494C4.4601 6.08571 4.50656 6.10295 4.55495 6.10294H5.15312C5.20203 6.10294 5.24893 6.08533 5.28351 6.054C5.31809 6.02266 5.33752 5.98015 5.33752 5.93583V5.86564C5.33752 5.3857 5.53887 5.24599 6.08246 4.87233C6.53164 4.56283 7 4.21925 7 3.49799C7 2.48797 6.05886 2 5.02847 2C4.09397 2 3.07023 2.39438 3.00016 3.52807ZM4.14855 7.38035C4.14855 7.73663 4.46202 8 4.8935 8C5.34268 8 5.65172 7.73663 5.65172 7.38035C5.65172 7.01136 5.34194 6.75201 4.89276 6.75201C4.46202 6.75201 4.14855 7.01136 4.14855 7.38035Z" fill="#384263"/>
</g>
<defs>
<clipPath id="clip0_1619_291">
<rect width="10" height="10" fill="white"/>
</clipPath>
</defs>
</svg>
