<svg width="25" height="26" viewBox="0 0 25 26" fill="none" xmlns="http://www.w3.org/2000/svg">
<g clip-path="url(#clip0_2603_1967)">
<circle cx="12.5" cy="13" r="12.5" fill="white" fill-opacity="0.05"/>
<path d="M20.3847 5.74667L19.6982 6.4331C21.3362 8.22432 22.2445 10.5637 22.2445 12.9909C22.2445 15.4181 21.3362 17.7574 19.6982 19.5486L20.3847 20.235C22.2063 18.2592 23.2176 15.6702 23.2176 12.9828C23.2176 10.2955 22.2063 7.70649 20.3847 5.73065V5.74667Z" fill="#5A5564"/>
<path d="M5.94855 5.80615C7.73976 4.1682 10.0791 3.25987 12.5063 3.25987C14.9335 3.25987 17.2728 4.1682 19.064 5.80615L19.7505 5.11971C17.7747 3.29814 15.1857 2.28682 12.4983 2.28682C9.8109 2.28682 7.22193 3.29814 5.24609 5.11971L5.94855 5.80615Z" fill="#5A5564"/>
<path d="M5.30644 19.5555C3.67043 17.7647 2.7633 15.4267 2.7633 13.0011C2.7633 10.5755 3.67043 8.23764 5.30644 6.44683L4.62 5.76039C2.79843 7.73623 1.78711 10.3252 1.78711 13.0126C1.78711 15.7 2.79843 18.2889 4.62 20.2648L5.30644 19.5555Z" fill="#5A5564"/>
<path d="M19.0558 20.1893C17.2646 21.8272 14.9253 22.7355 12.4981 22.7355C10.0709 22.7355 7.73156 21.8272 5.94034 20.1893L5.25391 20.8757C7.22974 22.6973 9.81872 23.7086 12.5061 23.7086C15.1935 23.7086 17.7825 22.6973 19.7583 20.8757L19.0558 20.1893Z" fill="#5A5564"/>
<path d="M16.8341 10.7096C16.6968 9.27722 15.4612 8.79672 13.8985 8.65028V6.67792H12.6903V8.61367C12.3723 8.61367 12.0474 8.61367 11.7247 8.61367V6.67792H10.5258V8.66401H8.0752V9.95679C8.0752 9.95679 8.96756 9.94078 8.95383 9.95679C9.11473 9.93909 9.27622 9.98454 9.40427 10.0836C9.53232 10.1826 9.61693 10.3275 9.64027 10.4876V15.9242C9.63683 15.9807 9.6221 16.0359 9.59695 16.0866C9.57179 16.1373 9.53673 16.1825 9.49383 16.2194C9.45173 16.257 9.40247 16.2857 9.34899 16.3038C9.29551 16.3219 9.23893 16.329 9.18265 16.3246C9.19866 16.3384 8.30401 16.3246 8.30401 16.3246L8.0752 17.7684H10.5029V19.7866H11.711V17.7982H12.6766V19.7774H13.887V17.7822C15.928 17.6586 17.3512 17.1552 17.5297 15.2446C17.6739 13.707 16.9508 13.0206 15.7953 12.7437C16.4978 12.3982 16.9325 11.7575 16.8341 10.7096ZM15.1409 15.0067C15.1409 16.5077 12.5691 16.3361 11.7499 16.3361V13.6727C12.5691 13.675 15.1409 13.4393 15.1409 15.0067ZM14.5803 11.2542C14.5803 12.627 12.4341 12.46 11.7522 12.46V10.0392C12.4341 10.0392 14.5803 9.82408 14.5803 11.2542Z" fill="#F09242"/>
<path d="M12.4977 25.5C10.0256 25.4996 7.60921 24.7661 5.55395 23.3924C3.49869 22.0187 1.89689 20.0665 0.951074 17.7825C0.00526186 15.4985 -0.242087 12.9854 0.240301 10.5608C0.722689 8.13627 1.91315 5.90919 3.66117 4.16117C5.40919 2.41315 7.63627 1.22269 10.0608 0.740301C12.4854 0.257913 14.9985 0.505262 17.2825 1.45107C19.5665 2.39689 21.5187 3.99869 22.8924 6.05395C24.2661 8.10921 24.9996 10.5256 25 12.9977C25.0003 14.6396 24.6771 16.2655 24.0489 17.7825C23.4207 19.2995 22.4998 20.6778 21.3388 21.8388C20.1778 22.9998 18.7995 23.9207 17.2825 24.5489C15.7655 25.1771 14.1396 25.5003 12.4977 25.5ZM12.4977 1.47474C10.2202 1.47655 7.9943 2.15352 6.10141 3.42007C4.20852 4.68663 2.7336 6.48592 1.86307 8.59052C0.992541 10.6951 0.765477 13.0106 1.21058 15.2442C1.65568 17.4778 2.75297 19.5293 4.36375 21.1395C5.97453 22.7496 8.0265 23.8461 10.2603 24.2903C12.4941 24.7345 14.8095 24.5066 16.9137 23.6352C19.018 22.7638 20.8167 21.2882 22.0825 19.3948C23.3483 17.5014 24.0244 15.2753 24.0253 12.9977C24.0259 11.4839 23.7281 9.9849 23.1489 8.5863C22.5698 7.18769 21.7206 5.91697 20.65 4.84678C19.5794 3.7766 18.3083 2.92794 16.9095 2.34934C15.5107 1.77074 14.0115 1.47354 12.4977 1.47474Z" fill="#282138"/>
</g>
<defs>
<clipPath id="clip0_2603_1967">
<rect width="25" height="25" fill="white" transform="translate(0 0.5)"/>
</clipPath>
</defs>
</svg>
