<svg width="381" height="117" viewBox="0 0 381 117" fill="none" xmlns="http://www.w3.org/2000/svg">
<line x1="33.5" y1="2" x2="33.5" y2="117" stroke="#20224E"/>
<line x1="29" y1="98.5" x2="38" y2="98.5" stroke="#20224E"/>
<line x1="29" y1="14.5" x2="38" y2="14.5" stroke="#20224E"/>
<line x1="41.5" y1="14.5" x2="195.5" y2="14.5" stroke="#46956A" stroke-linecap="round" stroke-dasharray="2 2"/>
<line x1="381" y1="58.5" x2="33" y2="58.5" stroke="#20224E"/>
<path d="M1.01424 99.768V99.084H3.45324V99.768H1.01424ZM5.38072 102.9L5.58772 101.982C5.36572 101.916 5.14972 101.826 4.93972 101.712C4.73572 101.598 4.53172 101.454 4.32772 101.28L4.68772 100.569C4.87972 100.725 5.06572 100.854 5.24572 100.956C5.42572 101.052 5.60272 101.13 5.77672 101.19L6.20872 99.282L6.01972 99.246C5.48572 99.144 5.09872 98.961 4.85872 98.697C4.62472 98.433 4.50772 98.112 4.50772 97.734C4.50772 97.398 4.58272 97.092 4.73272 96.816C4.88272 96.54 5.11372 96.318 5.42572 96.15C5.73772 95.982 6.13072 95.898 6.60472 95.898C6.67072 95.898 6.73372 95.901 6.79372 95.907C6.85972 95.907 6.92572 95.91 6.99172 95.916L7.18072 95.088H7.72072L7.50472 96.015C7.69672 96.063 7.88272 96.135 8.06272 96.231C8.24872 96.327 8.42872 96.444 8.60272 96.582L8.23372 97.284C8.07772 97.176 7.92472 97.083 7.77472 97.005C7.63072 96.921 7.48072 96.852 7.32472 96.798L6.92872 98.535L7.26172 98.598C7.78972 98.694 8.17372 98.895 8.41372 99.201C8.65972 99.501 8.78272 99.837 8.78272 100.209C8.78272 100.773 8.58472 101.229 8.18872 101.577C7.79872 101.919 7.23472 102.09 6.49672 102.09C6.42472 102.09 6.35572 102.087 6.28972 102.081C6.22972 102.075 6.16972 102.069 6.10972 102.063L5.92072 102.9H5.38072ZM6.28972 101.298C6.32572 101.304 6.35872 101.307 6.38872 101.307C6.42472 101.307 6.46072 101.307 6.49672 101.307C6.93472 101.307 7.27072 101.22 7.50472 101.046C7.73872 100.866 7.85572 100.617 7.85572 100.299C7.85572 100.077 7.78372 99.891 7.63972 99.741C7.49572 99.585 7.28572 99.483 7.00972 99.435L6.73072 99.381L6.28972 101.298ZM6.40672 98.436L6.81172 96.69C6.78172 96.684 6.75172 96.681 6.72172 96.681C6.69172 96.681 6.65872 96.681 6.62272 96.681C6.22672 96.681 5.92672 96.765 5.72272 96.933C5.52472 97.101 5.42572 97.329 5.42572 97.617C5.42572 97.839 5.49472 98.013 5.63272 98.139C5.77672 98.259 5.98372 98.346 6.25372 98.4L6.40672 98.436ZM11.7869 102.09C11.4689 102.09 11.1839 102.06 10.9319 102C10.6859 101.946 10.4609 101.859 10.2569 101.739C10.0529 101.613 9.85189 101.46 9.65389 101.28L10.0049 100.641C10.3049 100.893 10.5899 101.073 10.8599 101.181C11.1359 101.289 11.4149 101.343 11.6969 101.343C12.1349 101.343 12.4769 101.232 12.7229 101.01C12.9689 100.782 13.0919 100.47 13.0919 100.074C13.0919 99.678 12.9689 99.369 12.7229 99.147C12.4769 98.919 12.1349 98.805 11.6969 98.805C11.4029 98.805 11.1539 98.865 10.9499 98.985C10.7519 99.099 10.6139 99.267 10.5359 99.489L9.76189 99.345L10.3739 95.898H13.5689V96.636H11.0579L10.7249 98.445C10.8689 98.331 11.0399 98.247 11.2379 98.193C11.4359 98.133 11.6459 98.103 11.8679 98.103C12.3239 98.103 12.7109 98.187 13.0289 98.355C13.3469 98.517 13.5899 98.745 13.7579 99.039C13.9319 99.333 14.0189 99.672 14.0189 100.056C14.0189 100.44 13.9289 100.785 13.7489 101.091C13.5689 101.397 13.3109 101.64 12.9749 101.82C12.6449 102 12.2489 102.09 11.7869 102.09ZM17.3402 102.09C16.8122 102.09 16.3652 101.958 15.9992 101.694C15.6332 101.424 15.3572 101.058 15.1712 100.596C14.9852 100.128 14.8922 99.594 14.8922 98.994C14.8922 98.394 14.9852 97.863 15.1712 97.401C15.3572 96.933 15.6332 96.567 15.9992 96.303C16.3652 96.033 16.8122 95.898 17.3402 95.898C17.8742 95.898 18.3212 96.033 18.6812 96.303C19.0472 96.567 19.3232 96.933 19.5092 97.401C19.7012 97.863 19.7972 98.394 19.7972 98.994C19.7972 99.594 19.7012 100.128 19.5092 100.596C19.3232 101.058 19.0472 101.424 18.6812 101.694C18.3212 101.958 17.8742 102.09 17.3402 102.09ZM17.3402 101.343C17.6402 101.343 17.9042 101.259 18.1322 101.091C18.3662 100.917 18.5462 100.656 18.6722 100.308C18.8042 99.96 18.8702 99.522 18.8702 98.994C18.8702 98.46 18.8042 98.019 18.6722 97.671C18.5462 97.323 18.3662 97.065 18.1322 96.897C17.9042 96.723 17.6402 96.636 17.3402 96.636C17.0462 96.636 16.7822 96.723 16.5482 96.897C16.3202 97.071 16.1402 97.332 16.0082 97.68C15.8762 98.022 15.8102 98.46 15.8102 98.994C15.8102 99.522 15.8762 99.96 16.0082 100.308C16.1402 100.656 16.3202 100.917 16.5482 101.091C16.7822 101.259 17.0462 101.343 17.3402 101.343ZM23.1146 102.09C22.5866 102.09 22.1396 101.958 21.7736 101.694C21.4076 101.424 21.1316 101.058 20.9456 100.596C20.7596 100.128 20.6666 99.594 20.6666 98.994C20.6666 98.394 20.7596 97.863 20.9456 97.401C21.1316 96.933 21.4076 96.567 21.7736 96.303C22.1396 96.033 22.5866 95.898 23.1146 95.898C23.6486 95.898 24.0956 96.033 24.4556 96.303C24.8216 96.567 25.0976 96.933 25.2836 97.401C25.4756 97.863 25.5716 98.394 25.5716 98.994C25.5716 99.594 25.4756 100.128 25.2836 100.596C25.0976 101.058 24.8216 101.424 24.4556 101.694C24.0956 101.958 23.6486 102.09 23.1146 102.09ZM23.1146 101.343C23.4146 101.343 23.6786 101.259 23.9066 101.091C24.1406 100.917 24.3206 100.656 24.4466 100.308C24.5786 99.96 24.6446 99.522 24.6446 98.994C24.6446 98.46 24.5786 98.019 24.4466 97.671C24.3206 97.323 24.1406 97.065 23.9066 96.897C23.6786 96.723 23.4146 96.636 23.1146 96.636C22.8206 96.636 22.5566 96.723 22.3226 96.897C22.0946 97.071 21.9146 97.332 21.7826 97.68C21.6506 98.022 21.5846 98.46 21.5846 98.994C21.5846 99.522 21.6506 99.96 21.7826 100.308C21.9146 100.656 22.0946 100.917 22.3226 101.091C22.5566 101.259 22.8206 101.343 23.1146 101.343Z" fill="#747FA6"/>
<path d="M5.38072 18.9L5.58772 17.982C5.36572 17.916 5.14972 17.826 4.93972 17.712C4.73572 17.598 4.53172 17.454 4.32772 17.28L4.68772 16.569C4.87972 16.725 5.06572 16.854 5.24572 16.956C5.42572 17.052 5.60272 17.13 5.77672 17.19L6.20872 15.282L6.01972 15.246C5.48572 15.144 5.09872 14.961 4.85872 14.697C4.62472 14.433 4.50772 14.112 4.50772 13.734C4.50772 13.398 4.58272 13.092 4.73272 12.816C4.88272 12.54 5.11372 12.318 5.42572 12.15C5.73772 11.982 6.13072 11.898 6.60472 11.898C6.67072 11.898 6.73372 11.901 6.79372 11.907C6.85972 11.907 6.92572 11.91 6.99172 11.916L7.18072 11.088H7.72072L7.50472 12.015C7.69672 12.063 7.88272 12.135 8.06272 12.231C8.24872 12.327 8.42872 12.444 8.60272 12.582L8.23372 13.284C8.07772 13.176 7.92472 13.083 7.77472 13.005C7.63072 12.921 7.48072 12.852 7.32472 12.798L6.92872 14.535L7.26172 14.598C7.78972 14.694 8.17372 14.895 8.41372 15.201C8.65972 15.501 8.78272 15.837 8.78272 16.209C8.78272 16.773 8.58472 17.229 8.18872 17.577C7.79872 17.919 7.23472 18.09 6.49672 18.09C6.42472 18.09 6.35572 18.087 6.28972 18.081C6.22972 18.075 6.16972 18.069 6.10972 18.063L5.92072 18.9H5.38072ZM6.28972 17.298C6.32572 17.304 6.35872 17.307 6.38872 17.307C6.42472 17.307 6.46072 17.307 6.49672 17.307C6.93472 17.307 7.27072 17.22 7.50472 17.046C7.73872 16.866 7.85572 16.617 7.85572 16.299C7.85572 16.077 7.78372 15.891 7.63972 15.741C7.49572 15.585 7.28572 15.483 7.00972 15.435L6.73072 15.381L6.28972 17.298ZM6.40672 14.436L6.81172 12.69C6.78172 12.684 6.75172 12.681 6.72172 12.681C6.69172 12.681 6.65872 12.681 6.62272 12.681C6.22672 12.681 5.92672 12.765 5.72272 12.933C5.52472 13.101 5.42572 13.329 5.42572 13.617C5.42572 13.839 5.49472 14.013 5.63272 14.139C5.77672 14.259 5.98372 14.346 6.25372 14.4L6.40672 14.436ZM11.7869 18.09C11.4689 18.09 11.1839 18.06 10.9319 18C10.6859 17.946 10.4609 17.859 10.2569 17.739C10.0529 17.613 9.85189 17.46 9.65389 17.28L10.0049 16.641C10.3049 16.893 10.5899 17.073 10.8599 17.181C11.1359 17.289 11.4149 17.343 11.6969 17.343C12.1349 17.343 12.4769 17.232 12.7229 17.01C12.9689 16.782 13.0919 16.47 13.0919 16.074C13.0919 15.678 12.9689 15.369 12.7229 15.147C12.4769 14.919 12.1349 14.805 11.6969 14.805C11.4029 14.805 11.1539 14.865 10.9499 14.985C10.7519 15.099 10.6139 15.267 10.5359 15.489L9.76189 15.345L10.3739 11.898H13.5689V12.636H11.0579L10.7249 14.445C10.8689 14.331 11.0399 14.247 11.2379 14.193C11.4359 14.133 11.6459 14.103 11.8679 14.103C12.3239 14.103 12.7109 14.187 13.0289 14.355C13.3469 14.517 13.5899 14.745 13.7579 15.039C13.9319 15.333 14.0189 15.672 14.0189 16.056C14.0189 16.44 13.9289 16.785 13.7489 17.091C13.5689 17.397 13.3109 17.64 12.9749 17.82C12.6449 18 12.2489 18.09 11.7869 18.09ZM17.3402 18.09C16.8122 18.09 16.3652 17.958 15.9992 17.694C15.6332 17.424 15.3572 17.058 15.1712 16.596C14.9852 16.128 14.8922 15.594 14.8922 14.994C14.8922 14.394 14.9852 13.863 15.1712 13.401C15.3572 12.933 15.6332 12.567 15.9992 12.303C16.3652 12.033 16.8122 11.898 17.3402 11.898C17.8742 11.898 18.3212 12.033 18.6812 12.303C19.0472 12.567 19.3232 12.933 19.5092 13.401C19.7012 13.863 19.7972 14.394 19.7972 14.994C19.7972 15.594 19.7012 16.128 19.5092 16.596C19.3232 17.058 19.0472 17.424 18.6812 17.694C18.3212 17.958 17.8742 18.09 17.3402 18.09ZM17.3402 17.343C17.6402 17.343 17.9042 17.259 18.1322 17.091C18.3662 16.917 18.5462 16.656 18.6722 16.308C18.8042 15.96 18.8702 15.522 18.8702 14.994C18.8702 14.46 18.8042 14.019 18.6722 13.671C18.5462 13.323 18.3662 13.065 18.1322 12.897C17.9042 12.723 17.6402 12.636 17.3402 12.636C17.0462 12.636 16.7822 12.723 16.5482 12.897C16.3202 13.071 16.1402 13.332 16.0082 13.68C15.8762 14.022 15.8102 14.46 15.8102 14.994C15.8102 15.522 15.8762 15.96 16.0082 16.308C16.1402 16.656 16.3202 16.917 16.5482 17.091C16.7822 17.259 17.0462 17.343 17.3402 17.343ZM23.1146 18.09C22.5866 18.09 22.1396 17.958 21.7736 17.694C21.4076 17.424 21.1316 17.058 20.9456 16.596C20.7596 16.128 20.6666 15.594 20.6666 14.994C20.6666 14.394 20.7596 13.863 20.9456 13.401C21.1316 12.933 21.4076 12.567 21.7736 12.303C22.1396 12.033 22.5866 11.898 23.1146 11.898C23.6486 11.898 24.0956 12.033 24.4556 12.303C24.8216 12.567 25.0976 12.933 25.2836 13.401C25.4756 13.863 25.5716 14.394 25.5716 14.994C25.5716 15.594 25.4756 16.128 25.2836 16.596C25.0976 17.058 24.8216 17.424 24.4556 17.694C24.0956 17.958 23.6486 18.09 23.1146 18.09ZM23.1146 17.343C23.4146 17.343 23.6786 17.259 23.9066 17.091C24.1406 16.917 24.3206 16.656 24.4466 16.308C24.5786 15.96 24.6446 15.522 24.6446 14.994C24.6446 14.46 24.5786 14.019 24.4466 13.671C24.3206 13.323 24.1406 13.065 23.9066 12.897C23.6786 12.723 23.4146 12.636 23.1146 12.636C22.8206 12.636 22.5566 12.723 22.3226 12.897C22.0946 13.071 21.9146 13.332 21.7826 13.68C21.6506 14.022 21.5846 14.46 21.5846 14.994C21.5846 15.522 21.6506 15.96 21.7826 16.308C21.9146 16.656 22.0946 16.917 22.3226 17.091C22.5566 17.259 22.8206 17.343 23.1146 17.343Z" fill="#747FA6"/>
<line x1="113.5" y1="54" x2="113.5" y2="64" stroke="#20224E"/>
<path d="M106.688 74.9L106.895 73.982C106.673 73.916 106.457 73.826 106.247 73.712C106.043 73.598 105.839 73.454 105.635 73.28L105.995 72.569C106.187 72.725 106.373 72.854 106.553 72.956C106.733 73.052 106.91 73.13 107.084 73.19L107.516 71.282L107.327 71.246C106.793 71.144 106.406 70.961 106.166 70.697C105.932 70.433 105.815 70.112 105.815 69.734C105.815 69.398 105.89 69.092 106.04 68.816C106.19 68.54 106.421 68.318 106.733 68.15C107.045 67.982 107.438 67.898 107.912 67.898C107.978 67.898 108.041 67.901 108.101 67.907C108.167 67.907 108.233 67.91 108.299 67.916L108.488 67.088H109.028L108.812 68.015C109.004 68.063 109.19 68.135 109.37 68.231C109.556 68.327 109.736 68.444 109.91 68.582L109.541 69.284C109.385 69.176 109.232 69.083 109.082 69.005C108.938 68.921 108.788 68.852 108.632 68.798L108.236 70.535L108.569 70.598C109.097 70.694 109.481 70.895 109.721 71.201C109.967 71.501 110.09 71.837 110.09 72.209C110.09 72.773 109.892 73.229 109.496 73.577C109.106 73.919 108.542 74.09 107.804 74.09C107.732 74.09 107.663 74.087 107.597 74.081C107.537 74.075 107.477 74.069 107.417 74.063L107.228 74.9H106.688ZM107.597 73.298C107.633 73.304 107.666 73.307 107.696 73.307C107.732 73.307 107.768 73.307 107.804 73.307C108.242 73.307 108.578 73.22 108.812 73.046C109.046 72.866 109.163 72.617 109.163 72.299C109.163 72.077 109.091 71.891 108.947 71.741C108.803 71.585 108.593 71.483 108.317 71.435L108.038 71.381L107.597 73.298ZM107.714 70.436L108.119 68.69C108.089 68.684 108.059 68.681 108.029 68.681C107.999 68.681 107.966 68.681 107.93 68.681C107.534 68.681 107.234 68.765 107.03 68.933C106.832 69.101 106.733 69.329 106.733 69.617C106.733 69.839 106.802 70.013 106.94 70.139C107.084 70.259 107.291 70.346 107.561 70.4L107.714 70.436ZM112.987 74.09C112.603 74.09 112.252 74.021 111.934 73.883C111.622 73.739 111.352 73.538 111.124 73.28L111.466 72.686C111.7 72.908 111.937 73.073 112.177 73.181C112.417 73.289 112.66 73.343 112.906 73.343C113.224 73.343 113.512 73.271 113.77 73.127C114.034 72.977 114.244 72.743 114.4 72.425C114.562 72.107 114.652 71.693 114.67 71.183C114.52 71.399 114.31 71.57 114.04 71.696C113.776 71.822 113.464 71.885 113.104 71.885C112.654 71.885 112.267 71.801 111.943 71.633C111.625 71.465 111.382 71.234 111.214 70.94C111.046 70.646 110.962 70.307 110.962 69.923C110.962 69.539 111.052 69.194 111.232 68.888C111.412 68.582 111.667 68.342 111.997 68.168C112.333 67.988 112.729 67.898 113.185 67.898C113.683 67.898 114.109 67.997 114.463 68.195C114.823 68.393 115.102 68.693 115.3 69.095C115.498 69.497 115.597 70.01 115.597 70.634C115.597 71.324 115.501 71.93 115.309 72.452C115.117 72.968 114.829 73.37 114.445 73.658C114.061 73.946 113.575 74.09 112.987 74.09ZM113.275 71.183C113.713 71.183 114.055 71.072 114.301 70.85C114.547 70.622 114.67 70.31 114.67 69.914C114.61 69.536 114.469 69.23 114.247 68.996C114.025 68.756 113.701 68.636 113.275 68.636C112.843 68.636 112.501 68.75 112.249 68.978C112.003 69.206 111.88 69.515 111.88 69.905C111.88 70.307 112.003 70.622 112.249 70.85C112.501 71.072 112.843 71.183 113.275 71.183ZM118.92 74.09C118.392 74.09 117.945 73.958 117.579 73.694C117.213 73.424 116.937 73.058 116.751 72.596C116.565 72.128 116.472 71.594 116.472 70.994C116.472 70.394 116.565 69.863 116.751 69.401C116.937 68.933 117.213 68.567 117.579 68.303C117.945 68.033 118.392 67.898 118.92 67.898C119.454 67.898 119.901 68.033 120.261 68.303C120.627 68.567 120.903 68.933 121.089 69.401C121.281 69.863 121.377 70.394 121.377 70.994C121.377 71.594 121.281 72.128 121.089 72.596C120.903 73.058 120.627 73.424 120.261 73.694C119.901 73.958 119.454 74.09 118.92 74.09ZM118.92 73.343C119.22 73.343 119.484 73.259 119.712 73.091C119.946 72.917 120.126 72.656 120.252 72.308C120.384 71.96 120.45 71.522 120.45 70.994C120.45 70.46 120.384 70.019 120.252 69.671C120.126 69.323 119.946 69.065 119.712 68.897C119.484 68.723 119.22 68.636 118.92 68.636C118.626 68.636 118.362 68.723 118.128 68.897C117.9 69.071 117.72 69.332 117.588 69.68C117.456 70.022 117.39 70.46 117.39 70.994C117.39 71.522 117.456 71.96 117.588 72.308C117.72 72.656 117.9 72.917 118.128 73.091C118.362 73.259 118.626 73.343 118.92 73.343Z" fill="#747FA6"/>
<line x1="204.5" y1="54" x2="204.5" y2="64" stroke="#20224E"/>
<path d="M194.799 74.9L195.006 73.982C194.784 73.916 194.568 73.826 194.358 73.712C194.154 73.598 193.95 73.454 193.746 73.28L194.106 72.569C194.298 72.725 194.484 72.854 194.664 72.956C194.844 73.052 195.021 73.13 195.195 73.19L195.627 71.282L195.438 71.246C194.904 71.144 194.517 70.961 194.277 70.697C194.043 70.433 193.926 70.112 193.926 69.734C193.926 69.398 194.001 69.092 194.151 68.816C194.301 68.54 194.532 68.318 194.844 68.15C195.156 67.982 195.549 67.898 196.023 67.898C196.089 67.898 196.152 67.901 196.212 67.907C196.278 67.907 196.344 67.91 196.41 67.916L196.599 67.088H197.139L196.923 68.015C197.115 68.063 197.301 68.135 197.481 68.231C197.667 68.327 197.847 68.444 198.021 68.582L197.652 69.284C197.496 69.176 197.343 69.083 197.193 69.005C197.049 68.921 196.899 68.852 196.743 68.798L196.347 70.535L196.68 70.598C197.208 70.694 197.592 70.895 197.832 71.201C198.078 71.501 198.201 71.837 198.201 72.209C198.201 72.773 198.003 73.229 197.607 73.577C197.217 73.919 196.653 74.09 195.915 74.09C195.843 74.09 195.774 74.087 195.708 74.081C195.648 74.075 195.588 74.069 195.528 74.063L195.339 74.9H194.799ZM195.708 73.298C195.744 73.304 195.777 73.307 195.807 73.307C195.843 73.307 195.879 73.307 195.915 73.307C196.353 73.307 196.689 73.22 196.923 73.046C197.157 72.866 197.274 72.617 197.274 72.299C197.274 72.077 197.202 71.891 197.058 71.741C196.914 71.585 196.704 71.483 196.428 71.435L196.149 71.381L195.708 73.298ZM195.825 70.436L196.23 68.69C196.2 68.684 196.17 68.681 196.14 68.681C196.11 68.681 196.077 68.681 196.041 68.681C195.645 68.681 195.345 68.765 195.141 68.933C194.943 69.101 194.844 69.329 194.844 69.617C194.844 69.839 194.913 70.013 195.051 70.139C195.195 70.259 195.402 70.346 195.672 70.4L195.825 70.436ZM200.539 74V68.96L199.243 69.671L198.892 68.978L200.773 67.988H201.439V74H200.539ZM205.035 74.09C204.507 74.09 204.06 73.958 203.694 73.694C203.328 73.424 203.052 73.058 202.866 72.596C202.68 72.128 202.587 71.594 202.587 70.994C202.587 70.394 202.68 69.863 202.866 69.401C203.052 68.933 203.328 68.567 203.694 68.303C204.06 68.033 204.507 67.898 205.035 67.898C205.569 67.898 206.016 68.033 206.376 68.303C206.742 68.567 207.018 68.933 207.204 69.401C207.396 69.863 207.492 70.394 207.492 70.994C207.492 71.594 207.396 72.128 207.204 72.596C207.018 73.058 206.742 73.424 206.376 73.694C206.016 73.958 205.569 74.09 205.035 74.09ZM205.035 73.343C205.335 73.343 205.599 73.259 205.827 73.091C206.061 72.917 206.241 72.656 206.367 72.308C206.499 71.96 206.565 71.522 206.565 70.994C206.565 70.46 206.499 70.019 206.367 69.671C206.241 69.323 206.061 69.065 205.827 68.897C205.599 68.723 205.335 68.636 205.035 68.636C204.741 68.636 204.477 68.723 204.243 68.897C204.015 69.071 203.835 69.332 203.703 69.68C203.571 70.022 203.505 70.46 203.505 70.994C203.505 71.522 203.571 71.96 203.703 72.308C203.835 72.656 204.015 72.917 204.243 73.091C204.477 73.259 204.741 73.343 205.035 73.343ZM210.81 74.09C210.282 74.09 209.835 73.958 209.469 73.694C209.103 73.424 208.827 73.058 208.641 72.596C208.455 72.128 208.362 71.594 208.362 70.994C208.362 70.394 208.455 69.863 208.641 69.401C208.827 68.933 209.103 68.567 209.469 68.303C209.835 68.033 210.282 67.898 210.81 67.898C211.344 67.898 211.791 68.033 212.151 68.303C212.517 68.567 212.793 68.933 212.979 69.401C213.171 69.863 213.267 70.394 213.267 70.994C213.267 71.594 213.171 72.128 212.979 72.596C212.793 73.058 212.517 73.424 212.151 73.694C211.791 73.958 211.344 74.09 210.81 74.09ZM210.81 73.343C211.11 73.343 211.374 73.259 211.602 73.091C211.836 72.917 212.016 72.656 212.142 72.308C212.274 71.96 212.34 71.522 212.34 70.994C212.34 70.46 212.274 70.019 212.142 69.671C212.016 69.323 211.836 69.065 211.602 68.897C211.374 68.723 211.11 68.636 210.81 68.636C210.516 68.636 210.252 68.723 210.018 68.897C209.79 69.071 209.61 69.332 209.478 69.68C209.346 70.022 209.28 70.46 209.28 70.994C209.28 71.522 209.346 71.96 209.478 72.308C209.61 72.656 209.79 72.917 210.018 73.091C210.252 73.259 210.516 73.343 210.81 73.343Z" fill="#747FA6"/>
<line x1="298.5" y1="54" x2="298.5" y2="64" stroke="#20224E"/>
<path d="M289.928 74.9L290.135 73.982C289.913 73.916 289.697 73.826 289.487 73.712C289.283 73.598 289.079 73.454 288.875 73.28L289.235 72.569C289.427 72.725 289.613 72.854 289.793 72.956C289.973 73.052 290.15 73.13 290.324 73.19L290.756 71.282L290.567 71.246C290.033 71.144 289.646 70.961 289.406 70.697C289.172 70.433 289.055 70.112 289.055 69.734C289.055 69.398 289.13 69.092 289.28 68.816C289.43 68.54 289.661 68.318 289.973 68.15C290.285 67.982 290.678 67.898 291.152 67.898C291.218 67.898 291.281 67.901 291.341 67.907C291.407 67.907 291.473 67.91 291.539 67.916L291.728 67.088H292.268L292.052 68.015C292.244 68.063 292.43 68.135 292.61 68.231C292.796 68.327 292.976 68.444 293.15 68.582L292.781 69.284C292.625 69.176 292.472 69.083 292.322 69.005C292.178 68.921 292.028 68.852 291.872 68.798L291.476 70.535L291.809 70.598C292.337 70.694 292.721 70.895 292.961 71.201C293.207 71.501 293.33 71.837 293.33 72.209C293.33 72.773 293.132 73.229 292.736 73.577C292.346 73.919 291.782 74.09 291.044 74.09C290.972 74.09 290.903 74.087 290.837 74.081C290.777 74.075 290.717 74.069 290.657 74.063L290.468 74.9H289.928ZM290.837 73.298C290.873 73.304 290.906 73.307 290.936 73.307C290.972 73.307 291.008 73.307 291.044 73.307C291.482 73.307 291.818 73.22 292.052 73.046C292.286 72.866 292.403 72.617 292.403 72.299C292.403 72.077 292.331 71.891 292.187 71.741C292.043 71.585 291.833 71.483 291.557 71.435L291.278 71.381L290.837 73.298ZM290.954 70.436L291.359 68.69C291.329 68.684 291.299 68.681 291.269 68.681C291.239 68.681 291.206 68.681 291.17 68.681C290.774 68.681 290.474 68.765 290.27 68.933C290.072 69.101 289.973 69.329 289.973 69.617C289.973 69.839 290.042 70.013 290.18 70.139C290.324 70.259 290.531 70.346 290.801 70.4L290.954 70.436ZM295.668 74V68.96L294.372 69.671L294.021 68.978L295.902 67.988H296.568V74H295.668ZM299.184 74V68.96L297.888 69.671L297.537 68.978L299.418 67.988H300.084V74H299.184ZM303.681 74.09C303.153 74.09 302.706 73.958 302.34 73.694C301.974 73.424 301.698 73.058 301.512 72.596C301.326 72.128 301.233 71.594 301.233 70.994C301.233 70.394 301.326 69.863 301.512 69.401C301.698 68.933 301.974 68.567 302.34 68.303C302.706 68.033 303.153 67.898 303.681 67.898C304.215 67.898 304.662 68.033 305.022 68.303C305.388 68.567 305.664 68.933 305.85 69.401C306.042 69.863 306.138 70.394 306.138 70.994C306.138 71.594 306.042 72.128 305.85 72.596C305.664 73.058 305.388 73.424 305.022 73.694C304.662 73.958 304.215 74.09 303.681 74.09ZM303.681 73.343C303.981 73.343 304.245 73.259 304.473 73.091C304.707 72.917 304.887 72.656 305.013 72.308C305.145 71.96 305.211 71.522 305.211 70.994C305.211 70.46 305.145 70.019 305.013 69.671C304.887 69.323 304.707 69.065 304.473 68.897C304.245 68.723 303.981 68.636 303.681 68.636C303.387 68.636 303.123 68.723 302.889 68.897C302.661 69.071 302.481 69.332 302.349 69.68C302.217 70.022 302.151 70.46 302.151 70.994C302.151 71.522 302.217 71.96 302.349 72.308C302.481 72.656 302.661 72.917 302.889 73.091C303.123 73.259 303.387 73.343 303.681 73.343Z" fill="#747FA6"/>
<path d="M187.963 93V86.988H189.385L191.32 91.884L193.264 86.988H194.686V93H193.777V87.879L191.716 93H190.924L188.863 87.879V93H187.963ZM197.415 93.09C197.103 93.09 196.827 93.042 196.587 92.946C196.353 92.844 196.17 92.7 196.038 92.514C195.906 92.322 195.84 92.091 195.84 91.821C195.84 91.551 195.906 91.329 196.038 91.155C196.17 90.975 196.356 90.834 196.596 90.732C196.836 90.624 197.109 90.552 197.415 90.516L198.909 90.336C198.873 90.018 198.753 89.784 198.549 89.634C198.345 89.484 198.093 89.409 197.793 89.409C197.589 89.409 197.376 89.451 197.154 89.535C196.938 89.613 196.707 89.739 196.461 89.913L196.146 89.274C196.38 89.088 196.638 88.944 196.92 88.842C197.208 88.734 197.505 88.68 197.811 88.68C198.453 88.68 198.939 88.827 199.269 89.121C199.605 89.409 199.773 89.844 199.773 90.426V93H198.954V92.388C198.798 92.622 198.588 92.799 198.324 92.919C198.066 93.033 197.763 93.09 197.415 93.09ZM197.613 92.37C197.895 92.37 198.132 92.316 198.324 92.208C198.522 92.094 198.669 91.944 198.765 91.758C198.867 91.572 198.918 91.377 198.918 91.173V90.984L197.658 91.146C197.346 91.188 197.109 91.257 196.947 91.353C196.785 91.443 196.704 91.59 196.704 91.794C196.704 91.98 196.785 92.124 196.947 92.226C197.109 92.322 197.331 92.37 197.613 92.37ZM200.247 93L201.867 90.813L200.337 88.77H201.318L202.407 90.291L203.505 88.77H204.486L202.956 90.813L204.576 93H203.595L202.407 91.389L201.228 93H200.247ZM207.686 93V86.988H208.586V92.199H211.403V93H207.686ZM214.27 93.09C213.838 93.09 213.454 93 213.118 92.82C212.782 92.634 212.521 92.376 212.335 92.046C212.149 91.716 212.056 91.329 212.056 90.885C212.056 90.441 212.149 90.054 212.335 89.724C212.521 89.394 212.782 89.139 213.118 88.959C213.454 88.773 213.838 88.68 214.27 88.68C214.708 88.68 215.092 88.773 215.422 88.959C215.758 89.139 216.019 89.394 216.205 89.724C216.397 90.054 216.493 90.441 216.493 90.885C216.493 91.329 216.397 91.716 216.205 92.046C216.019 92.376 215.758 92.634 215.422 92.82C215.092 93 214.708 93.09 214.27 93.09ZM214.27 92.343C214.54 92.343 214.777 92.286 214.981 92.172C215.185 92.052 215.341 91.884 215.449 91.668C215.563 91.446 215.62 91.185 215.62 90.885C215.62 90.585 215.563 90.327 215.449 90.111C215.341 89.889 215.185 89.718 214.981 89.598C214.777 89.478 214.54 89.418 214.27 89.418C214 89.418 213.763 89.478 213.559 89.598C213.361 89.718 213.205 89.889 213.091 90.111C212.977 90.327 212.92 90.585 212.92 90.885C212.92 91.185 212.977 91.446 213.091 91.668C213.205 91.884 213.361 92.052 213.559 92.172C213.763 92.286 214 92.343 214.27 92.343ZM219.093 93.09C218.769 93.09 218.466 93.042 218.184 92.946C217.902 92.844 217.629 92.7 217.365 92.514L217.716 91.848C217.98 92.022 218.223 92.154 218.445 92.244C218.673 92.334 218.895 92.379 219.111 92.379C219.417 92.379 219.645 92.334 219.795 92.244C219.951 92.148 220.029 92.007 220.029 91.821C220.029 91.665 219.981 91.551 219.885 91.479C219.795 91.401 219.633 91.341 219.399 91.299L218.679 91.164C218.289 91.092 217.995 90.963 217.797 90.777C217.599 90.585 217.5 90.339 217.5 90.039C217.5 89.793 217.56 89.568 217.68 89.364C217.806 89.154 217.992 88.989 218.238 88.869C218.484 88.743 218.793 88.68 219.165 88.68C219.471 88.68 219.759 88.725 220.029 88.815C220.305 88.905 220.551 89.028 220.767 89.184L220.425 89.823C220.239 89.697 220.041 89.595 219.831 89.517C219.627 89.433 219.417 89.391 219.201 89.391C218.943 89.391 218.739 89.436 218.589 89.526C218.439 89.61 218.364 89.748 218.364 89.94C218.364 90.06 218.409 90.156 218.499 90.228C218.589 90.3 218.742 90.354 218.958 90.39L219.669 90.525C220.065 90.603 220.368 90.735 220.578 90.921C220.794 91.107 220.902 91.377 220.902 91.731C220.902 92.127 220.749 92.454 220.443 92.712C220.137 92.964 219.687 93.09 219.093 93.09ZM223.505 93.09C223.181 93.09 222.878 93.042 222.596 92.946C222.314 92.844 222.041 92.7 221.777 92.514L222.128 91.848C222.392 92.022 222.635 92.154 222.857 92.244C223.085 92.334 223.307 92.379 223.523 92.379C223.829 92.379 224.057 92.334 224.207 92.244C224.363 92.148 224.441 92.007 224.441 91.821C224.441 91.665 224.393 91.551 224.297 91.479C224.207 91.401 224.045 91.341 223.811 91.299L223.091 91.164C222.701 91.092 222.407 90.963 222.209 90.777C222.011 90.585 221.912 90.339 221.912 90.039C221.912 89.793 221.972 89.568 222.092 89.364C222.218 89.154 222.404 88.989 222.65 88.869C222.896 88.743 223.205 88.68 223.577 88.68C223.883 88.68 224.171 88.725 224.441 88.815C224.717 88.905 224.963 89.028 225.179 89.184L224.837 89.823C224.651 89.697 224.453 89.595 224.243 89.517C224.039 89.433 223.829 89.391 223.613 89.391C223.355 89.391 223.151 89.436 223.001 89.526C222.851 89.61 222.776 89.748 222.776 89.94C222.776 90.06 222.821 90.156 222.911 90.228C223.001 90.3 223.154 90.354 223.37 90.39L224.081 90.525C224.477 90.603 224.78 90.735 224.99 90.921C225.206 91.107 225.314 91.377 225.314 91.731C225.314 92.127 225.161 92.454 224.855 92.712C224.549 92.964 224.099 93.09 223.505 93.09Z" fill="#C75E4B"/>
<path d="M97.8052 9V2.988H99.2272L101.162 7.884L103.106 2.988H104.528V9H103.619V3.879L101.558 9H100.766L98.7052 3.879V9H97.8052ZM107.258 9.09C106.946 9.09 106.67 9.042 106.43 8.946C106.196 8.844 106.013 8.7 105.881 8.514C105.749 8.322 105.683 8.091 105.683 7.821C105.683 7.551 105.749 7.329 105.881 7.155C106.013 6.975 106.199 6.834 106.439 6.732C106.679 6.624 106.952 6.552 107.258 6.516L108.752 6.336C108.716 6.018 108.596 5.784 108.392 5.634C108.188 5.484 107.936 5.409 107.636 5.409C107.432 5.409 107.219 5.451 106.997 5.535C106.781 5.613 106.55 5.739 106.304 5.913L105.989 5.274C106.223 5.088 106.481 4.944 106.763 4.842C107.051 4.734 107.348 4.68 107.654 4.68C108.296 4.68 108.782 4.827 109.112 5.121C109.448 5.409 109.616 5.844 109.616 6.426V9H108.797V8.388C108.641 8.622 108.431 8.799 108.167 8.919C107.909 9.033 107.606 9.09 107.258 9.09ZM107.456 8.37C107.738 8.37 107.975 8.316 108.167 8.208C108.365 8.094 108.512 7.944 108.608 7.758C108.71 7.572 108.761 7.377 108.761 7.173V6.984L107.501 7.146C107.189 7.188 106.952 7.257 106.79 7.353C106.628 7.443 106.547 7.59 106.547 7.794C106.547 7.98 106.628 8.124 106.79 8.226C106.952 8.322 107.174 8.37 107.456 8.37ZM110.09 9L111.71 6.813L110.18 4.77H111.161L112.25 6.291L113.348 4.77H114.329L112.799 6.813L114.419 9H113.438L112.25 7.389L111.071 9H110.09ZM117.528 9V2.988H119.922C120.66 2.988 121.215 3.144 121.587 3.456C121.959 3.768 122.145 4.242 122.145 4.878C122.145 5.514 121.959 5.988 121.587 6.3C121.215 6.606 120.66 6.759 119.922 6.759H118.428V9H117.528ZM118.428 6.003H119.751C120.231 6.003 120.597 5.919 120.849 5.751C121.101 5.583 121.227 5.292 121.227 4.878C121.227 4.458 121.104 4.164 120.858 3.996C120.618 3.828 120.249 3.744 119.751 3.744H118.428V6.003ZM123.258 9V4.77H124.077V5.508C124.185 5.244 124.341 5.046 124.545 4.914C124.755 4.782 124.989 4.716 125.247 4.716C125.331 4.716 125.406 4.722 125.472 4.734C125.544 4.74 125.601 4.752 125.643 4.77V5.571C125.559 5.553 125.475 5.541 125.391 5.535C125.313 5.523 125.235 5.517 125.157 5.517C124.857 5.517 124.605 5.643 124.401 5.895C124.203 6.141 124.104 6.495 124.104 6.957V9H123.258ZM128.305 9.09C127.873 9.09 127.489 9 127.153 8.82C126.817 8.634 126.556 8.376 126.37 8.046C126.184 7.716 126.091 7.329 126.091 6.885C126.091 6.441 126.184 6.054 126.37 5.724C126.556 5.394 126.817 5.139 127.153 4.959C127.489 4.773 127.873 4.68 128.305 4.68C128.743 4.68 129.127 4.773 129.457 4.959C129.793 5.139 130.054 5.394 130.24 5.724C130.432 6.054 130.528 6.441 130.528 6.885C130.528 7.329 130.432 7.716 130.24 8.046C130.054 8.376 129.793 8.634 129.457 8.82C129.127 9 128.743 9.09 128.305 9.09ZM128.305 8.343C128.575 8.343 128.812 8.286 129.016 8.172C129.22 8.052 129.376 7.884 129.484 7.668C129.598 7.446 129.655 7.185 129.655 6.885C129.655 6.585 129.598 6.327 129.484 6.111C129.376 5.889 129.22 5.718 129.016 5.598C128.812 5.478 128.575 5.418 128.305 5.418C128.035 5.418 127.798 5.478 127.594 5.598C127.396 5.718 127.24 5.889 127.126 6.111C127.012 6.327 126.955 6.585 126.955 6.885C126.955 7.185 127.012 7.446 127.126 7.668C127.24 7.884 127.396 8.052 127.594 8.172C127.798 8.286 128.035 8.343 128.305 8.343ZM132.101 9V5.49H131.174V4.77H132.101V4.212C132.101 3.774 132.206 3.453 132.416 3.249C132.632 3.039 132.962 2.934 133.406 2.934C133.52 2.934 133.637 2.94 133.757 2.952C133.877 2.964 133.973 2.982 134.045 3.006V3.69C133.991 3.678 133.916 3.669 133.82 3.663C133.73 3.657 133.649 3.654 133.577 3.654C133.361 3.654 133.202 3.708 133.1 3.816C132.998 3.918 132.947 4.071 132.947 4.275V4.77H134.045V5.49H132.947V9H132.101ZM134.938 9V4.77H135.784V9H134.938ZM135.361 3.897C135.205 3.897 135.079 3.852 134.983 3.762C134.893 3.672 134.848 3.555 134.848 3.411C134.848 3.267 134.893 3.15 134.983 3.06C135.079 2.97 135.205 2.925 135.361 2.925C135.511 2.925 135.634 2.97 135.73 3.06C135.826 3.15 135.874 3.267 135.874 3.411C135.874 3.555 135.826 3.672 135.73 3.762C135.634 3.852 135.511 3.897 135.361 3.897ZM138.908 9.054C138.464 9.054 138.134 8.952 137.918 8.748C137.708 8.538 137.603 8.214 137.603 7.776V5.49H136.676V4.77H137.603V3.564H138.449V4.77H139.547V5.49H138.449V7.704C138.449 7.914 138.5 8.07 138.602 8.172C138.704 8.274 138.863 8.325 139.079 8.325C139.151 8.325 139.232 8.322 139.322 8.316C139.418 8.31 139.493 8.301 139.547 8.289V8.973C139.475 8.997 139.379 9.015 139.259 9.027C139.139 9.045 139.022 9.054 138.908 9.054Z" fill="#46956A"/>
<path d="M262.968 51.0658C263.074 50.9771 263.232 50.9909 263.32 51.0966C263.409 51.2024 263.395 51.3601 263.29 51.4488L262.968 51.0658ZM256.979 56.6487C256.841 56.6366 256.739 56.5154 256.752 56.3778L256.948 54.1364C256.96 53.9989 257.081 53.8971 257.218 53.9091C257.356 53.9212 257.458 54.0424 257.446 54.18L257.271 56.1724L259.264 56.3467C259.401 56.3587 259.503 56.48 259.491 56.6175C259.479 56.7551 259.358 56.8568 259.22 56.8448L256.979 56.6487ZM263.29 51.4488L257.161 56.5911L256.84 56.2081L262.968 51.0658L263.29 51.4488Z" fill="#747FA6"/>
<path d="M264.947 50V43.988H267.728C268.202 43.988 268.595 44.042 268.907 44.15C269.225 44.252 269.465 44.417 269.627 44.645C269.789 44.873 269.87 45.173 269.87 45.545C269.87 45.899 269.795 46.187 269.645 46.409C269.501 46.631 269.258 46.793 268.916 46.895C269.318 46.991 269.606 47.159 269.78 47.399C269.96 47.639 270.05 47.954 270.05 48.344C270.05 48.938 269.858 49.364 269.474 49.622C269.096 49.874 268.514 50 267.728 50H264.947ZM265.847 49.235H267.602C267.98 49.235 268.28 49.202 268.502 49.136C268.724 49.07 268.883 48.965 268.979 48.821C269.075 48.677 269.123 48.488 269.123 48.254C269.123 48.014 269.075 47.822 268.979 47.678C268.883 47.534 268.724 47.429 268.502 47.363C268.28 47.297 267.98 47.264 267.602 47.264H265.847V49.235ZM265.847 46.535H267.602C268.1 46.535 268.448 46.469 268.646 46.337C268.844 46.205 268.943 45.974 268.943 45.644C268.943 45.308 268.844 45.074 268.646 44.942C268.448 44.81 268.1 44.744 267.602 44.744H265.847V46.535ZM271.16 50V45.77H271.979V46.508C272.087 46.244 272.243 46.046 272.447 45.914C272.657 45.782 272.891 45.716 273.149 45.716C273.233 45.716 273.308 45.722 273.374 45.734C273.446 45.74 273.503 45.752 273.545 45.77V46.571C273.461 46.553 273.377 46.541 273.293 46.535C273.215 46.523 273.137 46.517 273.059 46.517C272.759 46.517 272.507 46.643 272.303 46.895C272.105 47.141 272.006 47.495 272.006 47.957V50H271.16ZM276.244 50.09C275.818 50.09 275.434 50.006 275.092 49.838C274.756 49.664 274.489 49.415 274.291 49.091C274.093 48.761 273.994 48.359 273.994 47.885C273.994 47.435 274.087 47.045 274.273 46.715C274.465 46.385 274.72 46.13 275.038 45.95C275.362 45.77 275.722 45.68 276.118 45.68C276.538 45.68 276.898 45.761 277.198 45.923C277.504 46.079 277.741 46.295 277.909 46.571C278.077 46.847 278.161 47.159 278.161 47.507C278.161 47.609 278.146 47.72 278.116 47.84C278.092 47.96 278.056 48.056 278.008 48.128H274.858C274.888 48.392 274.966 48.617 275.092 48.803C275.218 48.989 275.386 49.13 275.596 49.226C275.806 49.316 276.049 49.361 276.325 49.361C276.601 49.361 276.844 49.319 277.054 49.235C277.27 49.151 277.477 49.031 277.675 48.875L277.981 49.505C277.747 49.697 277.483 49.844 277.189 49.946C276.901 50.042 276.586 50.09 276.244 50.09ZM274.858 47.471H277.279C277.285 47.459 277.288 47.447 277.288 47.435C277.288 47.417 277.288 47.399 277.288 47.381C277.288 47.183 277.246 47.012 277.162 46.868C277.078 46.718 276.952 46.601 276.784 46.517C276.616 46.433 276.403 46.391 276.145 46.391C275.941 46.391 275.749 46.436 275.569 46.526C275.395 46.61 275.245 46.733 275.119 46.895C274.999 47.051 274.912 47.243 274.858 47.471ZM280.605 50.09C280.293 50.09 280.017 50.042 279.777 49.946C279.543 49.844 279.36 49.7 279.228 49.514C279.096 49.322 279.03 49.091 279.03 48.821C279.03 48.551 279.096 48.329 279.228 48.155C279.36 47.975 279.546 47.834 279.786 47.732C280.026 47.624 280.299 47.552 280.605 47.516L282.099 47.336C282.063 47.018 281.943 46.784 281.739 46.634C281.535 46.484 281.283 46.409 280.983 46.409C280.779 46.409 280.566 46.451 280.344 46.535C280.128 46.613 279.897 46.739 279.651 46.913L279.336 46.274C279.57 46.088 279.828 45.944 280.11 45.842C280.398 45.734 280.695 45.68 281.001 45.68C281.643 45.68 282.129 45.827 282.459 46.121C282.795 46.409 282.963 46.844 282.963 47.426V50H282.144V49.388C281.988 49.622 281.778 49.799 281.514 49.919C281.256 50.033 280.953 50.09 280.605 50.09ZM280.803 49.37C281.085 49.37 281.322 49.316 281.514 49.208C281.712 49.094 281.859 48.944 281.955 48.758C282.057 48.572 282.108 48.377 282.108 48.173V47.984L280.848 48.146C280.536 48.188 280.299 48.257 280.137 48.353C279.975 48.443 279.894 48.59 279.894 48.794C279.894 48.98 279.975 49.124 280.137 49.226C280.299 49.322 280.521 49.37 280.803 49.37ZM284.3 50V43.988H285.146V47.759L287.144 45.77H288.179L286.415 47.498L288.269 50H287.234L285.821 48.083L285.146 48.74V50H284.3ZM288.206 47.768V47.084H290.645V47.768H288.206ZM291.789 50V43.988H295.956V44.762H292.689V46.535H295.686V47.273H292.689V49.226H295.956V50H291.789ZM298.348 50L296.656 45.77H297.565L298.816 49.118L300.067 45.77H300.985L299.284 50H298.348ZM303.525 50.09C303.099 50.09 302.715 50.006 302.373 49.838C302.037 49.664 301.77 49.415 301.572 49.091C301.374 48.761 301.275 48.359 301.275 47.885C301.275 47.435 301.368 47.045 301.554 46.715C301.746 46.385 302.001 46.13 302.319 45.95C302.643 45.77 303.003 45.68 303.399 45.68C303.819 45.68 304.179 45.761 304.479 45.923C304.785 46.079 305.022 46.295 305.19 46.571C305.358 46.847 305.442 47.159 305.442 47.507C305.442 47.609 305.427 47.72 305.397 47.84C305.373 47.96 305.337 48.056 305.289 48.128H302.139C302.169 48.392 302.247 48.617 302.373 48.803C302.499 48.989 302.667 49.13 302.877 49.226C303.087 49.316 303.33 49.361 303.606 49.361C303.882 49.361 304.125 49.319 304.335 49.235C304.551 49.151 304.758 49.031 304.956 48.875L305.262 49.505C305.028 49.697 304.764 49.844 304.47 49.946C304.182 50.042 303.867 50.09 303.525 50.09ZM302.139 47.471H304.56C304.566 47.459 304.569 47.447 304.569 47.435C304.569 47.417 304.569 47.399 304.569 47.381C304.569 47.183 304.527 47.012 304.443 46.868C304.359 46.718 304.233 46.601 304.065 46.517C303.897 46.433 303.684 46.391 303.426 46.391C303.222 46.391 303.03 46.436 302.85 46.526C302.676 46.61 302.526 46.733 302.4 46.895C302.28 47.051 302.193 47.243 302.139 47.471ZM306.545 50V45.77H307.364V46.4C307.49 46.178 307.67 46.004 307.904 45.878C308.144 45.746 308.435 45.68 308.777 45.68C309.263 45.68 309.644 45.818 309.92 46.094C310.196 46.37 310.334 46.802 310.334 47.39V50H309.479V47.498C309.479 47.12 309.401 46.847 309.245 46.679C309.095 46.505 308.864 46.418 308.552 46.418C308.186 46.418 307.901 46.544 307.697 46.796C307.493 47.048 307.391 47.393 307.391 47.831V50H306.545ZM314.668 50.9L314.875 49.982C314.653 49.916 314.437 49.826 314.227 49.712C314.023 49.598 313.819 49.454 313.615 49.28L313.975 48.569C314.167 48.725 314.353 48.854 314.533 48.956C314.713 49.052 314.89 49.13 315.064 49.19L315.496 47.282L315.307 47.246C314.773 47.144 314.386 46.961 314.146 46.697C313.912 46.433 313.795 46.112 313.795 45.734C313.795 45.398 313.87 45.092 314.02 44.816C314.17 44.54 314.401 44.318 314.713 44.15C315.025 43.982 315.418 43.898 315.892 43.898C315.958 43.898 316.021 43.901 316.081 43.907C316.147 43.907 316.213 43.91 316.279 43.916L316.468 43.088H317.008L316.792 44.015C316.984 44.063 317.17 44.135 317.35 44.231C317.536 44.327 317.716 44.444 317.89 44.582L317.521 45.284C317.365 45.176 317.212 45.083 317.062 45.005C316.918 44.921 316.768 44.852 316.612 44.798L316.216 46.535L316.549 46.598C317.077 46.694 317.461 46.895 317.701 47.201C317.947 47.501 318.07 47.837 318.07 48.209C318.07 48.773 317.872 49.229 317.476 49.577C317.086 49.919 316.522 50.09 315.784 50.09C315.712 50.09 315.643 50.087 315.577 50.081C315.517 50.075 315.457 50.069 315.397 50.063L315.208 50.9H314.668ZM315.577 49.298C315.613 49.304 315.646 49.307 315.676 49.307C315.712 49.307 315.748 49.307 315.784 49.307C316.222 49.307 316.558 49.22 316.792 49.046C317.026 48.866 317.143 48.617 317.143 48.299C317.143 48.077 317.071 47.891 316.927 47.741C316.783 47.585 316.573 47.483 316.297 47.435L316.018 47.381L315.577 49.298ZM315.694 46.436L316.099 44.69C316.069 44.684 316.039 44.681 316.009 44.681C315.979 44.681 315.946 44.681 315.91 44.681C315.514 44.681 315.214 44.765 315.01 44.933C314.812 45.101 314.713 45.329 314.713 45.617C314.713 45.839 314.782 46.013 314.92 46.139C315.064 46.259 315.271 46.346 315.541 46.4L315.694 46.436ZM320.408 50V44.96L319.112 45.671L318.761 44.978L320.642 43.988H321.308V50H320.408ZM324.905 50.09C324.377 50.09 323.93 49.958 323.564 49.694C323.198 49.424 322.922 49.058 322.736 48.596C322.55 48.128 322.457 47.594 322.457 46.994C322.457 46.394 322.55 45.863 322.736 45.401C322.922 44.933 323.198 44.567 323.564 44.303C323.93 44.033 324.377 43.898 324.905 43.898C325.439 43.898 325.886 44.033 326.246 44.303C326.612 44.567 326.888 44.933 327.074 45.401C327.266 45.863 327.362 46.394 327.362 46.994C327.362 47.594 327.266 48.128 327.074 48.596C326.888 49.058 326.612 49.424 326.246 49.694C325.886 49.958 325.439 50.09 324.905 50.09ZM324.905 49.343C325.205 49.343 325.469 49.259 325.697 49.091C325.931 48.917 326.111 48.656 326.237 48.308C326.369 47.96 326.435 47.522 326.435 46.994C326.435 46.46 326.369 46.019 326.237 45.671C326.111 45.323 325.931 45.065 325.697 44.897C325.469 44.723 325.205 44.636 324.905 44.636C324.611 44.636 324.347 44.723 324.113 44.897C323.885 45.071 323.705 45.332 323.573 45.68C323.441 46.022 323.375 46.46 323.375 46.994C323.375 47.522 323.441 47.96 323.573 48.308C323.705 48.656 323.885 48.917 324.113 49.091C324.347 49.259 324.611 49.343 324.905 49.343ZM330.364 50.09C330.046 50.09 329.761 50.06 329.509 50C329.263 49.946 329.038 49.859 328.834 49.739C328.63 49.613 328.429 49.46 328.231 49.28L328.582 48.641C328.882 48.893 329.167 49.073 329.437 49.181C329.713 49.289 329.992 49.343 330.274 49.343C330.712 49.343 331.054 49.232 331.3 49.01C331.546 48.782 331.669 48.47 331.669 48.074C331.669 47.678 331.546 47.369 331.3 47.147C331.054 46.919 330.712 46.805 330.274 46.805C329.98 46.805 329.731 46.865 329.527 46.985C329.329 47.099 329.191 47.267 329.113 47.489L328.339 47.345L328.951 43.898H332.146V44.636H329.635L329.302 46.445C329.446 46.331 329.617 46.247 329.815 46.193C330.013 46.133 330.223 46.103 330.445 46.103C330.901 46.103 331.288 46.187 331.606 46.355C331.924 46.517 332.167 46.745 332.335 47.039C332.509 47.333 332.596 47.672 332.596 48.056C332.596 48.44 332.506 48.785 332.326 49.091C332.146 49.397 331.888 49.64 331.552 49.82C331.222 50 330.826 50.09 330.364 50.09Z" fill="#747FA6"/>
<line x1="117.5" y1="98.5" x2="295.5" y2="98.5" stroke="#C75E4B" stroke-linecap="round" stroke-dasharray="2 2"/>
<path opacity="0.05" d="M204 14.5L158 58H252.5L204 14.5Z" fill="#46956A"/>
<path opacity="0.05" d="M80 59V99H113.772L156.5 59H80Z" fill="#C75E4B"/>
<path opacity="0.05" d="M334 98.5H299.5L253.5 59H334V98.5Z" fill="#C75E4B"/>
<path d="M79.5 98.5L84.5 101.387V95.6133L79.5 98.5ZM114 98.5V99H114.195L114.338 98.868L114 98.5ZM157.5 58.5L157.838 58.8681L157.844 58.8632L157.5 58.5ZM204 14.5L204.334 14.128L203.991 13.82L203.656 14.1368L204 14.5ZM253 58.5L252.666 58.8721L252.674 58.8791L253 58.5ZM299.5 98.5L299.174 98.8791L299.315 99H299.5V98.5ZM334.5 98.5L329.5 95.6133V101.387L334.5 98.5ZM84 99H114V98H84V99ZM114.338 98.868L157.838 58.868L157.162 58.132L113.662 98.132L114.338 98.868ZM157.844 58.8632L204.344 14.8632L203.656 14.1368L157.156 58.1368L157.844 58.8632ZM203.666 14.872L252.666 58.872L253.334 58.128L204.334 14.128L203.666 14.872ZM252.674 58.8791L299.174 98.8791L299.826 98.1209L253.326 58.1209L252.674 58.8791ZM299.5 99H330V98H299.5V99Z" fill="#C75E4B"/>
<path d="M157.5 58.5L204 14.5L253 58.5" stroke="#46956A"/>
<path d="M148.161 50.8085C148.055 50.7197 147.897 50.7335 147.808 50.8393C147.72 50.9451 147.734 51.1028 147.839 51.1915L148.161 50.8085ZM154.15 56.3913C154.288 56.3793 154.389 56.2581 154.377 56.1205L154.181 53.8791C154.169 53.7415 154.048 53.6398 153.91 53.6518C153.773 53.6638 153.671 53.7851 153.683 53.9227L153.858 55.915L151.865 56.0894C151.728 56.1014 151.626 56.2226 151.638 56.3602C151.65 56.4977 151.771 56.5995 151.909 56.5875L154.15 56.3913ZM147.839 51.1915L153.968 56.3338L154.289 55.9508L148.161 50.8085L147.839 51.1915Z" fill="#747FA6"/>
<path d="M81.6983 50V43.988H84.4793C84.9533 43.988 85.3463 44.042 85.6583 44.15C85.9763 44.252 86.2163 44.417 86.3783 44.645C86.5403 44.873 86.6213 45.173 86.6213 45.545C86.6213 45.899 86.5463 46.187 86.3963 46.409C86.2523 46.631 86.0093 46.793 85.6673 46.895C86.0693 46.991 86.3573 47.159 86.5313 47.399C86.7113 47.639 86.8013 47.954 86.8013 48.344C86.8013 48.938 86.6093 49.364 86.2253 49.622C85.8473 49.874 85.2653 50 84.4793 50H81.6983ZM82.5983 49.235H84.3533C84.7313 49.235 85.0313 49.202 85.2533 49.136C85.4753 49.07 85.6343 48.965 85.7303 48.821C85.8263 48.677 85.8743 48.488 85.8743 48.254C85.8743 48.014 85.8263 47.822 85.7303 47.678C85.6343 47.534 85.4753 47.429 85.2533 47.363C85.0313 47.297 84.7313 47.264 84.3533 47.264H82.5983V49.235ZM82.5983 46.535H84.3533C84.8513 46.535 85.1993 46.469 85.3973 46.337C85.5953 46.205 85.6943 45.974 85.6943 45.644C85.6943 45.308 85.5953 45.074 85.3973 44.942C85.1993 44.81 84.8513 44.744 84.3533 44.744H82.5983V46.535ZM87.9113 50V45.77H88.7303V46.508C88.8383 46.244 88.9943 46.046 89.1983 45.914C89.4083 45.782 89.6423 45.716 89.9003 45.716C89.9843 45.716 90.0593 45.722 90.1253 45.734C90.1973 45.74 90.2543 45.752 90.2963 45.77V46.571C90.2123 46.553 90.1283 46.541 90.0443 46.535C89.9663 46.523 89.8883 46.517 89.8103 46.517C89.5103 46.517 89.2583 46.643 89.0543 46.895C88.8563 47.141 88.7573 47.495 88.7573 47.957V50H87.9113ZM92.9947 50.09C92.5687 50.09 92.1847 50.006 91.8427 49.838C91.5067 49.664 91.2397 49.415 91.0417 49.091C90.8437 48.761 90.7447 48.359 90.7447 47.885C90.7447 47.435 90.8377 47.045 91.0237 46.715C91.2157 46.385 91.4707 46.13 91.7887 45.95C92.1127 45.77 92.4727 45.68 92.8687 45.68C93.2887 45.68 93.6487 45.761 93.9487 45.923C94.2547 46.079 94.4917 46.295 94.6597 46.571C94.8277 46.847 94.9117 47.159 94.9117 47.507C94.9117 47.609 94.8967 47.72 94.8667 47.84C94.8427 47.96 94.8067 48.056 94.7587 48.128H91.6087C91.6387 48.392 91.7167 48.617 91.8427 48.803C91.9687 48.989 92.1367 49.13 92.3467 49.226C92.5567 49.316 92.7997 49.361 93.0757 49.361C93.3517 49.361 93.5947 49.319 93.8047 49.235C94.0207 49.151 94.2277 49.031 94.4257 48.875L94.7317 49.505C94.4977 49.697 94.2337 49.844 93.9397 49.946C93.6517 50.042 93.3367 50.09 92.9947 50.09ZM91.6087 47.471H94.0297C94.0357 47.459 94.0387 47.447 94.0387 47.435C94.0387 47.417 94.0387 47.399 94.0387 47.381C94.0387 47.183 93.9967 47.012 93.9127 46.868C93.8287 46.718 93.7027 46.601 93.5347 46.517C93.3667 46.433 93.1537 46.391 92.8957 46.391C92.6917 46.391 92.4997 46.436 92.3197 46.526C92.1457 46.61 91.9957 46.733 91.8697 46.895C91.7497 47.051 91.6627 47.243 91.6087 47.471ZM97.3558 50.09C97.0438 50.09 96.7678 50.042 96.5278 49.946C96.2938 49.844 96.1108 49.7 95.9788 49.514C95.8468 49.322 95.7808 49.091 95.7808 48.821C95.7808 48.551 95.8468 48.329 95.9788 48.155C96.1108 47.975 96.2968 47.834 96.5368 47.732C96.7768 47.624 97.0498 47.552 97.3558 47.516L98.8498 47.336C98.8138 47.018 98.6938 46.784 98.4898 46.634C98.2858 46.484 98.0338 46.409 97.7338 46.409C97.5298 46.409 97.3168 46.451 97.0948 46.535C96.8788 46.613 96.6478 46.739 96.4018 46.913L96.0868 46.274C96.3208 46.088 96.5788 45.944 96.8608 45.842C97.1488 45.734 97.4458 45.68 97.7518 45.68C98.3938 45.68 98.8798 45.827 99.2098 46.121C99.5458 46.409 99.7138 46.844 99.7138 47.426V50H98.8948V49.388C98.7388 49.622 98.5288 49.799 98.2648 49.919C98.0068 50.033 97.7038 50.09 97.3558 50.09ZM97.5538 49.37C97.8358 49.37 98.0728 49.316 98.2648 49.208C98.4628 49.094 98.6098 48.944 98.7058 48.758C98.8078 48.572 98.8588 48.377 98.8588 48.173V47.984L97.5988 48.146C97.2868 48.188 97.0498 48.257 96.8878 48.353C96.7258 48.443 96.6448 48.59 96.6448 48.794C96.6448 48.98 96.7258 49.124 96.8878 49.226C97.0498 49.322 97.2718 49.37 97.5538 49.37ZM101.051 50V43.988H101.897V47.759L103.895 45.77H104.93L103.166 47.498L105.02 50H103.985L102.572 48.083L101.897 48.74V50H101.051ZM104.957 47.768V47.084H107.396V47.768H104.957ZM108.54 50V43.988H112.707V44.762H109.44V46.535H112.437V47.273H109.44V49.226H112.707V50H108.54ZM115.099 50L113.407 45.77H114.316L115.567 49.118L116.818 45.77H117.736L116.035 50H115.099ZM120.276 50.09C119.85 50.09 119.466 50.006 119.124 49.838C118.788 49.664 118.521 49.415 118.323 49.091C118.125 48.761 118.026 48.359 118.026 47.885C118.026 47.435 118.119 47.045 118.305 46.715C118.497 46.385 118.752 46.13 119.07 45.95C119.394 45.77 119.754 45.68 120.15 45.68C120.57 45.68 120.93 45.761 121.23 45.923C121.536 46.079 121.773 46.295 121.941 46.571C122.109 46.847 122.193 47.159 122.193 47.507C122.193 47.609 122.178 47.72 122.148 47.84C122.124 47.96 122.088 48.056 122.04 48.128H118.89C118.92 48.392 118.998 48.617 119.124 48.803C119.25 48.989 119.418 49.13 119.628 49.226C119.838 49.316 120.081 49.361 120.357 49.361C120.633 49.361 120.876 49.319 121.086 49.235C121.302 49.151 121.509 49.031 121.707 48.875L122.013 49.505C121.779 49.697 121.515 49.844 121.221 49.946C120.933 50.042 120.618 50.09 120.276 50.09ZM118.89 47.471H121.311C121.317 47.459 121.32 47.447 121.32 47.435C121.32 47.417 121.32 47.399 121.32 47.381C121.32 47.183 121.278 47.012 121.194 46.868C121.11 46.718 120.984 46.601 120.816 46.517C120.648 46.433 120.435 46.391 120.177 46.391C119.973 46.391 119.781 46.436 119.601 46.526C119.427 46.61 119.277 46.733 119.151 46.895C119.031 47.051 118.944 47.243 118.89 47.471ZM123.296 50V45.77H124.115V46.4C124.241 46.178 124.421 46.004 124.655 45.878C124.895 45.746 125.186 45.68 125.528 45.68C126.014 45.68 126.395 45.818 126.671 46.094C126.947 46.37 127.085 46.802 127.085 47.39V50H126.23V47.498C126.23 47.12 126.152 46.847 125.996 46.679C125.846 46.505 125.615 46.418 125.303 46.418C124.937 46.418 124.652 46.544 124.448 46.796C124.244 47.048 124.142 47.393 124.142 47.831V50H123.296ZM131.419 50.9L131.626 49.982C131.404 49.916 131.188 49.826 130.978 49.712C130.774 49.598 130.57 49.454 130.366 49.28L130.726 48.569C130.918 48.725 131.104 48.854 131.284 48.956C131.464 49.052 131.641 49.13 131.815 49.19L132.247 47.282L132.058 47.246C131.524 47.144 131.137 46.961 130.897 46.697C130.663 46.433 130.546 46.112 130.546 45.734C130.546 45.398 130.621 45.092 130.771 44.816C130.921 44.54 131.152 44.318 131.464 44.15C131.776 43.982 132.169 43.898 132.643 43.898C132.709 43.898 132.772 43.901 132.832 43.907C132.898 43.907 132.964 43.91 133.03 43.916L133.219 43.088H133.759L133.543 44.015C133.735 44.063 133.921 44.135 134.101 44.231C134.287 44.327 134.467 44.444 134.641 44.582L134.272 45.284C134.116 45.176 133.963 45.083 133.813 45.005C133.669 44.921 133.519 44.852 133.363 44.798L132.967 46.535L133.3 46.598C133.828 46.694 134.212 46.895 134.452 47.201C134.698 47.501 134.821 47.837 134.821 48.209C134.821 48.773 134.623 49.229 134.227 49.577C133.837 49.919 133.273 50.09 132.535 50.09C132.463 50.09 132.394 50.087 132.328 50.081C132.268 50.075 132.208 50.069 132.148 50.063L131.959 50.9H131.419ZM132.328 49.298C132.364 49.304 132.397 49.307 132.427 49.307C132.463 49.307 132.499 49.307 132.535 49.307C132.973 49.307 133.309 49.22 133.543 49.046C133.777 48.866 133.894 48.617 133.894 48.299C133.894 48.077 133.822 47.891 133.678 47.741C133.534 47.585 133.324 47.483 133.048 47.435L132.769 47.381L132.328 49.298ZM132.445 46.436L132.85 44.69C132.82 44.684 132.79 44.681 132.76 44.681C132.73 44.681 132.697 44.681 132.661 44.681C132.265 44.681 131.965 44.765 131.761 44.933C131.563 45.101 131.464 45.329 131.464 45.617C131.464 45.839 131.533 46.013 131.671 46.139C131.815 46.259 132.022 46.346 132.292 46.4L132.445 46.436ZM137.717 50.09C137.333 50.09 136.982 50.021 136.664 49.883C136.352 49.739 136.082 49.538 135.854 49.28L136.196 48.686C136.43 48.908 136.667 49.073 136.907 49.181C137.147 49.289 137.39 49.343 137.636 49.343C137.954 49.343 138.242 49.271 138.5 49.127C138.764 48.977 138.974 48.743 139.13 48.425C139.292 48.107 139.382 47.693 139.4 47.183C139.25 47.399 139.04 47.57 138.77 47.696C138.506 47.822 138.194 47.885 137.834 47.885C137.384 47.885 136.997 47.801 136.673 47.633C136.355 47.465 136.112 47.234 135.944 46.94C135.776 46.646 135.692 46.307 135.692 45.923C135.692 45.539 135.782 45.194 135.962 44.888C136.142 44.582 136.397 44.342 136.727 44.168C137.063 43.988 137.459 43.898 137.915 43.898C138.413 43.898 138.839 43.997 139.193 44.195C139.553 44.393 139.832 44.693 140.03 45.095C140.228 45.497 140.327 46.01 140.327 46.634C140.327 47.324 140.231 47.93 140.039 48.452C139.847 48.968 139.559 49.37 139.175 49.658C138.791 49.946 138.305 50.09 137.717 50.09ZM138.005 47.183C138.443 47.183 138.785 47.072 139.031 46.85C139.277 46.622 139.4 46.31 139.4 45.914C139.34 45.536 139.199 45.23 138.977 44.996C138.755 44.756 138.431 44.636 138.005 44.636C137.573 44.636 137.231 44.75 136.979 44.978C136.733 45.206 136.61 45.515 136.61 45.905C136.61 46.307 136.733 46.622 136.979 46.85C137.231 47.072 137.573 47.183 138.005 47.183ZM143.336 50.09C143.018 50.09 142.733 50.06 142.481 50C142.235 49.946 142.01 49.859 141.806 49.739C141.602 49.613 141.401 49.46 141.203 49.28L141.554 48.641C141.854 48.893 142.139 49.073 142.409 49.181C142.685 49.289 142.964 49.343 143.246 49.343C143.684 49.343 144.026 49.232 144.272 49.01C144.518 48.782 144.641 48.47 144.641 48.074C144.641 47.678 144.518 47.369 144.272 47.147C144.026 46.919 143.684 46.805 143.246 46.805C142.952 46.805 142.703 46.865 142.499 46.985C142.301 47.099 142.163 47.267 142.085 47.489L141.311 47.345L141.923 43.898H145.118V44.636H142.607L142.274 46.445C142.418 46.331 142.589 46.247 142.787 46.193C142.985 46.133 143.195 46.103 143.417 46.103C143.873 46.103 144.26 46.187 144.578 46.355C144.896 46.517 145.139 46.745 145.307 47.039C145.481 47.333 145.568 47.672 145.568 48.056C145.568 48.44 145.478 48.785 145.298 49.091C145.118 49.397 144.86 49.64 144.524 49.82C144.194 50 143.798 50.09 143.336 50.09Z" fill="#747FA6"/>
</svg>
