<svg width="381" height="115" viewBox="0 0 381 115" fill="none" xmlns="http://www.w3.org/2000/svg">
<line x1="33.5" y1="2.18558e-08" x2="33.5" y2="115" stroke="#20224E"/>
<line x1="29" y1="88.5" x2="38" y2="88.5" stroke="#20224E"/>
<line x1="29" y1="27.5" x2="38" y2="27.5" stroke="#20224E"/>
<line x1="73.5" y1="27.5" x2="160.5" y2="27.5" stroke="#46956A" stroke-linecap="round" stroke-dasharray="2 2"/>
<line x1="381" y1="58.5" x2="34" y2="58.5" stroke="#20224E"/>
<path d="M1.08455 89.768V89.084H3.52355V89.768H1.08455ZM5.45103 92.9L5.65803 91.982C5.43603 91.916 5.22003 91.826 5.01003 91.712C4.80603 91.598 4.60203 91.454 4.39803 91.28L4.75803 90.569C4.95003 90.725 5.13603 90.854 5.31603 90.956C5.49603 91.052 5.67303 91.13 5.84703 91.19L6.27903 89.282L6.09003 89.246C5.55603 89.144 5.16903 88.961 4.92903 88.697C4.69503 88.433 4.57803 88.112 4.57803 87.734C4.57803 87.398 4.65303 87.092 4.80303 86.816C4.95303 86.54 5.18403 86.318 5.49603 86.15C5.80803 85.982 6.20103 85.898 6.67503 85.898C6.74103 85.898 6.80403 85.901 6.86403 85.907C6.93003 85.907 6.99603 85.91 7.06203 85.916L7.25103 85.088H7.79103L7.57503 86.015C7.76703 86.063 7.95303 86.135 8.13303 86.231C8.31903 86.327 8.49903 86.444 8.67303 86.582L8.30403 87.284C8.14803 87.176 7.99503 87.083 7.84503 87.005C7.70103 86.921 7.55103 86.852 7.39503 86.798L6.99903 88.535L7.33203 88.598C7.86003 88.694 8.24403 88.895 8.48403 89.201C8.73003 89.501 8.85303 89.837 8.85303 90.209C8.85303 90.773 8.65503 91.229 8.25903 91.577C7.86903 91.919 7.30503 92.09 6.56703 92.09C6.49503 92.09 6.42603 92.087 6.36003 92.081C6.30003 92.075 6.24003 92.069 6.18003 92.063L5.99103 92.9H5.45103ZM6.36003 91.298C6.39603 91.304 6.42903 91.307 6.45903 91.307C6.49503 91.307 6.53103 91.307 6.56703 91.307C7.00503 91.307 7.34103 91.22 7.57503 91.046C7.80903 90.866 7.92603 90.617 7.92603 90.299C7.92603 90.077 7.85403 89.891 7.71003 89.741C7.56603 89.585 7.35603 89.483 7.08003 89.435L6.80103 89.381L6.36003 91.298ZM6.47703 88.436L6.88203 86.69C6.85203 86.684 6.82203 86.681 6.79203 86.681C6.76203 86.681 6.72903 86.681 6.69303 86.681C6.29703 86.681 5.99703 86.765 5.79303 86.933C5.59503 87.101 5.49603 87.329 5.49603 87.617C5.49603 87.839 5.56503 88.013 5.70303 88.139C5.84703 88.259 6.05403 88.346 6.32403 88.4L6.47703 88.436ZM11.7852 92.09C11.3772 92.09 11.0052 92.027 10.6692 91.901C10.3392 91.769 10.0242 91.562 9.7242 91.28L10.0662 90.623C10.3662 90.875 10.6602 91.058 10.9482 91.172C11.2422 91.286 11.5212 91.343 11.7852 91.343C12.1752 91.343 12.4902 91.25 12.7302 91.064C12.9702 90.872 13.0902 90.617 13.0902 90.299C13.0902 89.975 12.9702 89.72 12.7302 89.534C12.4902 89.348 12.1752 89.255 11.7852 89.255H11.0472V88.544H11.7852C12.1392 88.544 12.4302 88.466 12.6582 88.31C12.8862 88.148 13.0002 87.911 13.0002 87.599C13.0002 87.287 12.8862 87.05 12.6582 86.888C12.4302 86.72 12.1392 86.636 11.7852 86.636C11.5272 86.636 11.2662 86.693 11.0022 86.807C10.7382 86.921 10.4562 87.104 10.1562 87.356L9.8142 86.708C10.1142 86.426 10.4232 86.222 10.7412 86.096C11.0592 85.964 11.4072 85.898 11.7852 85.898C12.2112 85.898 12.5832 85.97 12.9012 86.114C13.2252 86.252 13.4772 86.444 13.6572 86.69C13.8372 86.936 13.9272 87.218 13.9272 87.536C13.9272 87.86 13.8252 88.142 13.6212 88.382C13.4172 88.616 13.1382 88.79 12.7842 88.904C13.1742 89.018 13.4772 89.201 13.6932 89.453C13.9092 89.705 14.0172 90.008 14.0172 90.362C14.0172 90.692 13.9242 90.989 13.7382 91.253C13.5582 91.511 13.3002 91.715 12.9642 91.865C12.6342 92.015 12.2412 92.09 11.7852 92.09ZM17.3402 92.09C16.8122 92.09 16.3652 91.958 15.9992 91.694C15.6332 91.424 15.3572 91.058 15.1712 90.596C14.9852 90.128 14.8922 89.594 14.8922 88.994C14.8922 88.394 14.9852 87.863 15.1712 87.401C15.3572 86.933 15.6332 86.567 15.9992 86.303C16.3652 86.033 16.8122 85.898 17.3402 85.898C17.8742 85.898 18.3212 86.033 18.6812 86.303C19.0472 86.567 19.3232 86.933 19.5092 87.401C19.7012 87.863 19.7972 88.394 19.7972 88.994C19.7972 89.594 19.7012 90.128 19.5092 90.596C19.3232 91.058 19.0472 91.424 18.6812 91.694C18.3212 91.958 17.8742 92.09 17.3402 92.09ZM17.3402 91.343C17.6402 91.343 17.9042 91.259 18.1322 91.091C18.3662 90.917 18.5462 90.656 18.6722 90.308C18.8042 89.96 18.8702 89.522 18.8702 88.994C18.8702 88.46 18.8042 88.019 18.6722 87.671C18.5462 87.323 18.3662 87.065 18.1322 86.897C17.9042 86.723 17.6402 86.636 17.3402 86.636C17.0462 86.636 16.7822 86.723 16.5482 86.897C16.3202 87.071 16.1402 87.332 16.0082 87.68C15.8762 88.022 15.8102 88.46 15.8102 88.994C15.8102 89.522 15.8762 89.96 16.0082 90.308C16.1402 90.656 16.3202 90.917 16.5482 91.091C16.7822 91.259 17.0462 91.343 17.3402 91.343ZM23.1146 92.09C22.5866 92.09 22.1396 91.958 21.7736 91.694C21.4076 91.424 21.1316 91.058 20.9456 90.596C20.7596 90.128 20.6666 89.594 20.6666 88.994C20.6666 88.394 20.7596 87.863 20.9456 87.401C21.1316 86.933 21.4076 86.567 21.7736 86.303C22.1396 86.033 22.5866 85.898 23.1146 85.898C23.6486 85.898 24.0956 86.033 24.4556 86.303C24.8216 86.567 25.0976 86.933 25.2836 87.401C25.4756 87.863 25.5716 88.394 25.5716 88.994C25.5716 89.594 25.4756 90.128 25.2836 90.596C25.0976 91.058 24.8216 91.424 24.4556 91.694C24.0956 91.958 23.6486 92.09 23.1146 92.09ZM23.1146 91.343C23.4146 91.343 23.6786 91.259 23.9066 91.091C24.1406 90.917 24.3206 90.656 24.4466 90.308C24.5786 89.96 24.6446 89.522 24.6446 88.994C24.6446 88.46 24.5786 88.019 24.4466 87.671C24.3206 87.323 24.1406 87.065 23.9066 86.897C23.6786 86.723 23.4146 86.636 23.1146 86.636C22.8206 86.636 22.5566 86.723 22.3226 86.897C22.0946 87.071 21.9146 87.332 21.7826 87.68C21.6506 88.022 21.5846 88.46 21.5846 88.994C21.5846 89.522 21.6506 89.96 21.7826 90.308C21.9146 90.656 22.0946 90.917 22.3226 91.091C22.5566 91.259 22.8206 91.343 23.1146 91.343Z" fill="#747FA6"/>
<path d="M5.6356 31.9L5.8426 30.982C5.6206 30.916 5.4046 30.826 5.1946 30.712C4.9906 30.598 4.7866 30.454 4.5826 30.28L4.9426 29.569C5.1346 29.725 5.3206 29.854 5.5006 29.956C5.6806 30.052 5.8576 30.13 6.0316 30.19L6.4636 28.282L6.2746 28.246C5.7406 28.144 5.3536 27.961 5.1136 27.697C4.8796 27.433 4.7626 27.112 4.7626 26.734C4.7626 26.398 4.8376 26.092 4.9876 25.816C5.1376 25.54 5.3686 25.318 5.6806 25.15C5.9926 24.982 6.3856 24.898 6.8596 24.898C6.9256 24.898 6.9886 24.901 7.0486 24.907C7.1146 24.907 7.1806 24.91 7.2466 24.916L7.4356 24.088H7.9756L7.7596 25.015C7.9516 25.063 8.1376 25.135 8.3176 25.231C8.5036 25.327 8.6836 25.444 8.8576 25.582L8.4886 26.284C8.3326 26.176 8.1796 26.083 8.0296 26.005C7.8856 25.921 7.7356 25.852 7.5796 25.798L7.1836 27.535L7.5166 27.598C8.0446 27.694 8.4286 27.895 8.6686 28.201C8.9146 28.501 9.0376 28.837 9.0376 29.209C9.0376 29.773 8.8396 30.229 8.4436 30.577C8.0536 30.919 7.4896 31.09 6.7516 31.09C6.6796 31.09 6.6106 31.087 6.5446 31.081C6.4846 31.075 6.4246 31.069 6.3646 31.063L6.1756 31.9H5.6356ZM6.5446 30.298C6.5806 30.304 6.6136 30.307 6.6436 30.307C6.6796 30.307 6.7156 30.307 6.7516 30.307C7.1896 30.307 7.5256 30.22 7.7596 30.046C7.9936 29.866 8.1106 29.617 8.1106 29.299C8.1106 29.077 8.0386 28.891 7.8946 28.741C7.7506 28.585 7.5406 28.483 7.2646 28.435L6.9856 28.381L6.5446 30.298ZM6.6616 27.436L7.0666 25.69C7.0366 25.684 7.0066 25.681 6.9766 25.681C6.9466 25.681 6.9136 25.681 6.8776 25.681C6.4816 25.681 6.1816 25.765 5.9776 25.933C5.7796 26.101 5.6806 26.329 5.6806 26.617C5.6806 26.839 5.7496 27.013 5.8876 27.139C6.0316 27.259 6.2386 27.346 6.5086 27.4L6.6616 27.436ZM9.90877 31V30.253L12.4738 27.85C12.6598 27.67 12.7948 27.493 12.8788 27.319C12.9628 27.145 13.0048 26.977 13.0048 26.815C13.0048 26.575 12.9538 26.368 12.8518 26.194C12.7498 26.02 12.6088 25.885 12.4288 25.789C12.2548 25.687 12.0448 25.636 11.7988 25.636C11.5528 25.636 11.3098 25.696 11.0698 25.816C10.8358 25.936 10.5628 26.116 10.2508 26.356L9.90877 25.708C10.2208 25.426 10.5328 25.222 10.8448 25.096C11.1568 24.964 11.4868 24.898 11.8348 24.898C12.2428 24.898 12.6028 24.976 12.9148 25.132C13.2328 25.282 13.4818 25.501 13.6618 25.789C13.8418 26.077 13.9318 26.419 13.9318 26.815C13.9318 27.067 13.8628 27.322 13.7248 27.58C13.5868 27.832 13.3498 28.111 13.0138 28.417L11.0608 30.253H14.0218V31H9.90877ZM17.3402 31.09C16.8122 31.09 16.3652 30.958 15.9992 30.694C15.6332 30.424 15.3572 30.058 15.1712 29.596C14.9852 29.128 14.8922 28.594 14.8922 27.994C14.8922 27.394 14.9852 26.863 15.1712 26.401C15.3572 25.933 15.6332 25.567 15.9992 25.303C16.3652 25.033 16.8122 24.898 17.3402 24.898C17.8742 24.898 18.3212 25.033 18.6812 25.303C19.0472 25.567 19.3232 25.933 19.5092 26.401C19.7012 26.863 19.7972 27.394 19.7972 27.994C19.7972 28.594 19.7012 29.128 19.5092 29.596C19.3232 30.058 19.0472 30.424 18.6812 30.694C18.3212 30.958 17.8742 31.09 17.3402 31.09ZM17.3402 30.343C17.6402 30.343 17.9042 30.259 18.1322 30.091C18.3662 29.917 18.5462 29.656 18.6722 29.308C18.8042 28.96 18.8702 28.522 18.8702 27.994C18.8702 27.46 18.8042 27.019 18.6722 26.671C18.5462 26.323 18.3662 26.065 18.1322 25.897C17.9042 25.723 17.6402 25.636 17.3402 25.636C17.0462 25.636 16.7822 25.723 16.5482 25.897C16.3202 26.071 16.1402 26.332 16.0082 26.68C15.8762 27.022 15.8102 27.46 15.8102 27.994C15.8102 28.522 15.8762 28.96 16.0082 29.308C16.1402 29.656 16.3202 29.917 16.5482 30.091C16.7822 30.259 17.0462 30.343 17.3402 30.343ZM23.1146 31.09C22.5866 31.09 22.1396 30.958 21.7736 30.694C21.4076 30.424 21.1316 30.058 20.9456 29.596C20.7596 29.128 20.6666 28.594 20.6666 27.994C20.6666 27.394 20.7596 26.863 20.9456 26.401C21.1316 25.933 21.4076 25.567 21.7736 25.303C22.1396 25.033 22.5866 24.898 23.1146 24.898C23.6486 24.898 24.0956 25.033 24.4556 25.303C24.8216 25.567 25.0976 25.933 25.2836 26.401C25.4756 26.863 25.5716 27.394 25.5716 27.994C25.5716 28.594 25.4756 29.128 25.2836 29.596C25.0976 30.058 24.8216 30.424 24.4556 30.694C24.0956 30.958 23.6486 31.09 23.1146 31.09ZM23.1146 30.343C23.4146 30.343 23.6786 30.259 23.9066 30.091C24.1406 29.917 24.3206 29.656 24.4466 29.308C24.5786 28.96 24.6446 28.522 24.6446 27.994C24.6446 27.46 24.5786 27.019 24.4466 26.671C24.3206 26.323 24.1406 26.065 23.9066 25.897C23.6786 25.723 23.4146 25.636 23.1146 25.636C22.8206 25.636 22.5566 25.723 22.3226 25.897C22.0946 26.071 21.9146 26.332 21.7826 26.68C21.6506 27.022 21.5846 27.46 21.5846 27.994C21.5846 28.522 21.6506 28.96 21.7826 29.308C21.9146 29.656 22.0946 29.917 22.3226 30.091C22.5566 30.259 22.8206 30.343 23.1146 30.343Z" fill="#747FA6"/>
<path d="M91 88.5L96 91.3868V85.6132L91 88.5ZM117 88.5V89H117.247L117.397 88.8042L117 88.5ZM140 58.5L139.608 58.1899L139.603 58.1958L140 58.5ZM164.5 27.5V27H164.258L164.108 27.19L164.5 27.5ZM266 27.5L266.392 27.19L266.242 27H266V27.5ZM290.5 58.5L290.108 58.8101L290.113 58.8163L290.5 58.5ZM315 88.5L314.613 88.8163L314.763 89H315V88.5ZM340.5 88.5L335.5 85.6132V91.3868L340.5 88.5ZM95.5 89H117V88H95.5V89ZM117.397 88.8042L140.397 58.8042L139.603 58.1958L116.603 88.1958L117.397 88.8042ZM140.392 58.81L164.892 27.81L164.108 27.19L139.608 58.19L140.392 58.81ZM164.5 28H266V27H164.5V28ZM265.608 27.81L290.108 58.81L290.892 58.19L266.392 27.19L265.608 27.81ZM290.113 58.8163L314.613 88.8163L315.387 88.1837L290.887 58.1837L290.113 58.8163ZM315 89H336V88H315V89Z" fill="#C75E4B"/>
<path d="M140 58.5L164.5 27.5H266L290.5 58.5" stroke="#46956A"/>
<path opacity="0.05" d="M164.5 27.5L140.5 58H290L266 27.5H164.5Z" fill="#46956A"/>
<path opacity="0.05" d="M315 88.5L291 59H340V88.5H315Z" fill="#C75E4B"/>
<path opacity="0.05" d="M91 59V88.5H117L139.75 59H91Z" fill="#C75E4B"/>
<path d="M196.963 83V76.988H198.385L200.32 81.884L202.264 76.988H203.686V83H202.777V77.879L200.716 83H199.924L197.863 77.879V83H196.963ZM206.415 83.09C206.103 83.09 205.827 83.042 205.587 82.946C205.353 82.844 205.17 82.7 205.038 82.514C204.906 82.322 204.84 82.091 204.84 81.821C204.84 81.551 204.906 81.329 205.038 81.155C205.17 80.975 205.356 80.834 205.596 80.732C205.836 80.624 206.109 80.552 206.415 80.516L207.909 80.336C207.873 80.018 207.753 79.784 207.549 79.634C207.345 79.484 207.093 79.409 206.793 79.409C206.589 79.409 206.376 79.451 206.154 79.535C205.938 79.613 205.707 79.739 205.461 79.913L205.146 79.274C205.38 79.088 205.638 78.944 205.92 78.842C206.208 78.734 206.505 78.68 206.811 78.68C207.453 78.68 207.939 78.827 208.269 79.121C208.605 79.409 208.773 79.844 208.773 80.426V83H207.954V82.388C207.798 82.622 207.588 82.799 207.324 82.919C207.066 83.033 206.763 83.09 206.415 83.09ZM206.613 82.37C206.895 82.37 207.132 82.316 207.324 82.208C207.522 82.094 207.669 81.944 207.765 81.758C207.867 81.572 207.918 81.377 207.918 81.173V80.984L206.658 81.146C206.346 81.188 206.109 81.257 205.947 81.353C205.785 81.443 205.704 81.59 205.704 81.794C205.704 81.98 205.785 82.124 205.947 82.226C206.109 82.322 206.331 82.37 206.613 82.37ZM209.247 83L210.867 80.813L209.337 78.77H210.318L211.407 80.291L212.505 78.77H213.486L211.956 80.813L213.576 83H212.595L211.407 81.389L210.228 83H209.247ZM216.686 83V76.988H217.586V82.199H220.403V83H216.686ZM223.27 83.09C222.838 83.09 222.454 83 222.118 82.82C221.782 82.634 221.521 82.376 221.335 82.046C221.149 81.716 221.056 81.329 221.056 80.885C221.056 80.441 221.149 80.054 221.335 79.724C221.521 79.394 221.782 79.139 222.118 78.959C222.454 78.773 222.838 78.68 223.27 78.68C223.708 78.68 224.092 78.773 224.422 78.959C224.758 79.139 225.019 79.394 225.205 79.724C225.397 80.054 225.493 80.441 225.493 80.885C225.493 81.329 225.397 81.716 225.205 82.046C225.019 82.376 224.758 82.634 224.422 82.82C224.092 83 223.708 83.09 223.27 83.09ZM223.27 82.343C223.54 82.343 223.777 82.286 223.981 82.172C224.185 82.052 224.341 81.884 224.449 81.668C224.563 81.446 224.62 81.185 224.62 80.885C224.62 80.585 224.563 80.327 224.449 80.111C224.341 79.889 224.185 79.718 223.981 79.598C223.777 79.478 223.54 79.418 223.27 79.418C223 79.418 222.763 79.478 222.559 79.598C222.361 79.718 222.205 79.889 222.091 80.111C221.977 80.327 221.92 80.585 221.92 80.885C221.92 81.185 221.977 81.446 222.091 81.668C222.205 81.884 222.361 82.052 222.559 82.172C222.763 82.286 223 82.343 223.27 82.343ZM228.093 83.09C227.769 83.09 227.466 83.042 227.184 82.946C226.902 82.844 226.629 82.7 226.365 82.514L226.716 81.848C226.98 82.022 227.223 82.154 227.445 82.244C227.673 82.334 227.895 82.379 228.111 82.379C228.417 82.379 228.645 82.334 228.795 82.244C228.951 82.148 229.029 82.007 229.029 81.821C229.029 81.665 228.981 81.551 228.885 81.479C228.795 81.401 228.633 81.341 228.399 81.299L227.679 81.164C227.289 81.092 226.995 80.963 226.797 80.777C226.599 80.585 226.5 80.339 226.5 80.039C226.5 79.793 226.56 79.568 226.68 79.364C226.806 79.154 226.992 78.989 227.238 78.869C227.484 78.743 227.793 78.68 228.165 78.68C228.471 78.68 228.759 78.725 229.029 78.815C229.305 78.905 229.551 79.028 229.767 79.184L229.425 79.823C229.239 79.697 229.041 79.595 228.831 79.517C228.627 79.433 228.417 79.391 228.201 79.391C227.943 79.391 227.739 79.436 227.589 79.526C227.439 79.61 227.364 79.748 227.364 79.94C227.364 80.06 227.409 80.156 227.499 80.228C227.589 80.3 227.742 80.354 227.958 80.39L228.669 80.525C229.065 80.603 229.368 80.735 229.578 80.921C229.794 81.107 229.902 81.377 229.902 81.731C229.902 82.127 229.749 82.454 229.443 82.712C229.137 82.964 228.687 83.09 228.093 83.09ZM232.505 83.09C232.181 83.09 231.878 83.042 231.596 82.946C231.314 82.844 231.041 82.7 230.777 82.514L231.128 81.848C231.392 82.022 231.635 82.154 231.857 82.244C232.085 82.334 232.307 82.379 232.523 82.379C232.829 82.379 233.057 82.334 233.207 82.244C233.363 82.148 233.441 82.007 233.441 81.821C233.441 81.665 233.393 81.551 233.297 81.479C233.207 81.401 233.045 81.341 232.811 81.299L232.091 81.164C231.701 81.092 231.407 80.963 231.209 80.777C231.011 80.585 230.912 80.339 230.912 80.039C230.912 79.793 230.972 79.568 231.092 79.364C231.218 79.154 231.404 78.989 231.65 78.869C231.896 78.743 232.205 78.68 232.577 78.68C232.883 78.68 233.171 78.725 233.441 78.815C233.717 78.905 233.963 79.028 234.179 79.184L233.837 79.823C233.651 79.697 233.453 79.595 233.243 79.517C233.039 79.433 232.829 79.391 232.613 79.391C232.355 79.391 232.151 79.436 232.001 79.526C231.851 79.61 231.776 79.748 231.776 79.94C231.776 80.06 231.821 80.156 231.911 80.228C232.001 80.3 232.154 80.354 232.37 80.39L233.081 80.525C233.477 80.603 233.78 80.735 233.99 80.921C234.206 81.107 234.314 81.377 234.314 81.731C234.314 82.127 234.161 82.454 233.855 82.712C233.549 82.964 233.099 83.09 232.505 83.09Z" fill="#C75E4B"/>
<path d="M97.8052 22V15.988H99.2272L101.162 20.884L103.106 15.988H104.528V22H103.619V16.879L101.558 22H100.766L98.7052 16.879V22H97.8052ZM107.258 22.09C106.946 22.09 106.67 22.042 106.43 21.946C106.196 21.844 106.013 21.7 105.881 21.514C105.749 21.322 105.683 21.091 105.683 20.821C105.683 20.551 105.749 20.329 105.881 20.155C106.013 19.975 106.199 19.834 106.439 19.732C106.679 19.624 106.952 19.552 107.258 19.516L108.752 19.336C108.716 19.018 108.596 18.784 108.392 18.634C108.188 18.484 107.936 18.409 107.636 18.409C107.432 18.409 107.219 18.451 106.997 18.535C106.781 18.613 106.55 18.739 106.304 18.913L105.989 18.274C106.223 18.088 106.481 17.944 106.763 17.842C107.051 17.734 107.348 17.68 107.654 17.68C108.296 17.68 108.782 17.827 109.112 18.121C109.448 18.409 109.616 18.844 109.616 19.426V22H108.797V21.388C108.641 21.622 108.431 21.799 108.167 21.919C107.909 22.033 107.606 22.09 107.258 22.09ZM107.456 21.37C107.738 21.37 107.975 21.316 108.167 21.208C108.365 21.094 108.512 20.944 108.608 20.758C108.71 20.572 108.761 20.377 108.761 20.173V19.984L107.501 20.146C107.189 20.188 106.952 20.257 106.79 20.353C106.628 20.443 106.547 20.59 106.547 20.794C106.547 20.98 106.628 21.124 106.79 21.226C106.952 21.322 107.174 21.37 107.456 21.37ZM110.09 22L111.71 19.813L110.18 17.77H111.161L112.25 19.291L113.348 17.77H114.329L112.799 19.813L114.419 22H113.438L112.25 20.389L111.071 22H110.09ZM117.528 22V15.988H119.922C120.66 15.988 121.215 16.144 121.587 16.456C121.959 16.768 122.145 17.242 122.145 17.878C122.145 18.514 121.959 18.988 121.587 19.3C121.215 19.606 120.66 19.759 119.922 19.759H118.428V22H117.528ZM118.428 19.003H119.751C120.231 19.003 120.597 18.919 120.849 18.751C121.101 18.583 121.227 18.292 121.227 17.878C121.227 17.458 121.104 17.164 120.858 16.996C120.618 16.828 120.249 16.744 119.751 16.744H118.428V19.003ZM123.258 22V17.77H124.077V18.508C124.185 18.244 124.341 18.046 124.545 17.914C124.755 17.782 124.989 17.716 125.247 17.716C125.331 17.716 125.406 17.722 125.472 17.734C125.544 17.74 125.601 17.752 125.643 17.77V18.571C125.559 18.553 125.475 18.541 125.391 18.535C125.313 18.523 125.235 18.517 125.157 18.517C124.857 18.517 124.605 18.643 124.401 18.895C124.203 19.141 124.104 19.495 124.104 19.957V22H123.258ZM128.305 22.09C127.873 22.09 127.489 22 127.153 21.82C126.817 21.634 126.556 21.376 126.37 21.046C126.184 20.716 126.091 20.329 126.091 19.885C126.091 19.441 126.184 19.054 126.37 18.724C126.556 18.394 126.817 18.139 127.153 17.959C127.489 17.773 127.873 17.68 128.305 17.68C128.743 17.68 129.127 17.773 129.457 17.959C129.793 18.139 130.054 18.394 130.24 18.724C130.432 19.054 130.528 19.441 130.528 19.885C130.528 20.329 130.432 20.716 130.24 21.046C130.054 21.376 129.793 21.634 129.457 21.82C129.127 22 128.743 22.09 128.305 22.09ZM128.305 21.343C128.575 21.343 128.812 21.286 129.016 21.172C129.22 21.052 129.376 20.884 129.484 20.668C129.598 20.446 129.655 20.185 129.655 19.885C129.655 19.585 129.598 19.327 129.484 19.111C129.376 18.889 129.22 18.718 129.016 18.598C128.812 18.478 128.575 18.418 128.305 18.418C128.035 18.418 127.798 18.478 127.594 18.598C127.396 18.718 127.24 18.889 127.126 19.111C127.012 19.327 126.955 19.585 126.955 19.885C126.955 20.185 127.012 20.446 127.126 20.668C127.24 20.884 127.396 21.052 127.594 21.172C127.798 21.286 128.035 21.343 128.305 21.343ZM132.101 22V18.49H131.174V17.77H132.101V17.212C132.101 16.774 132.206 16.453 132.416 16.249C132.632 16.039 132.962 15.934 133.406 15.934C133.52 15.934 133.637 15.94 133.757 15.952C133.877 15.964 133.973 15.982 134.045 16.006V16.69C133.991 16.678 133.916 16.669 133.82 16.663C133.73 16.657 133.649 16.654 133.577 16.654C133.361 16.654 133.202 16.708 133.1 16.816C132.998 16.918 132.947 17.071 132.947 17.275V17.77H134.045V18.49H132.947V22H132.101ZM134.938 22V17.77H135.784V22H134.938ZM135.361 16.897C135.205 16.897 135.079 16.852 134.983 16.762C134.893 16.672 134.848 16.555 134.848 16.411C134.848 16.267 134.893 16.15 134.983 16.06C135.079 15.97 135.205 15.925 135.361 15.925C135.511 15.925 135.634 15.97 135.73 16.06C135.826 16.15 135.874 16.267 135.874 16.411C135.874 16.555 135.826 16.672 135.73 16.762C135.634 16.852 135.511 16.897 135.361 16.897ZM138.908 22.054C138.464 22.054 138.134 21.952 137.918 21.748C137.708 21.538 137.603 21.214 137.603 20.776V18.49H136.676V17.77H137.603V16.564H138.449V17.77H139.547V18.49H138.449V20.704C138.449 20.914 138.5 21.07 138.602 21.172C138.704 21.274 138.863 21.325 139.079 21.325C139.151 21.325 139.232 21.322 139.322 21.316C139.418 21.31 139.493 21.301 139.547 21.289V21.973C139.475 21.997 139.379 22.015 139.259 22.027C139.139 22.045 139.022 22.054 138.908 22.054Z" fill="#46956A"/>
<path d="M292.968 44.0658C293.074 43.9771 293.232 43.9909 293.32 44.0966C293.409 44.2024 293.395 44.3601 293.29 44.4488L292.968 44.0658ZM286.979 49.6487C286.841 49.6366 286.739 49.5154 286.752 49.3778L286.948 47.1364C286.96 46.9989 287.081 46.8971 287.218 46.9091C287.356 46.9212 287.458 47.0424 287.446 47.18L287.271 49.1724L289.264 49.3467C289.401 49.3587 289.503 49.48 289.491 49.6175C289.479 49.7551 289.358 49.8568 289.22 49.8448L286.979 49.6487ZM293.29 44.4488L287.161 49.5911L286.84 49.2081L292.968 44.0658L293.29 44.4488Z" fill="#747FA6"/>
<path d="M296.711 43V36.988H299.492C299.966 36.988 300.359 37.042 300.671 37.15C300.989 37.252 301.229 37.417 301.391 37.645C301.553 37.873 301.634 38.173 301.634 38.545C301.634 38.899 301.559 39.187 301.409 39.409C301.265 39.631 301.022 39.793 300.68 39.895C301.082 39.991 301.37 40.159 301.544 40.399C301.724 40.639 301.814 40.954 301.814 41.344C301.814 41.938 301.622 42.364 301.238 42.622C300.86 42.874 300.278 43 299.492 43H296.711ZM297.611 42.235H299.366C299.744 42.235 300.044 42.202 300.266 42.136C300.488 42.07 300.647 41.965 300.743 41.821C300.839 41.677 300.887 41.488 300.887 41.254C300.887 41.014 300.839 40.822 300.743 40.678C300.647 40.534 300.488 40.429 300.266 40.363C300.044 40.297 299.744 40.264 299.366 40.264H297.611V42.235ZM297.611 39.535H299.366C299.864 39.535 300.212 39.469 300.41 39.337C300.608 39.205 300.707 38.974 300.707 38.644C300.707 38.308 300.608 38.074 300.41 37.942C300.212 37.81 299.864 37.744 299.366 37.744H297.611V39.535ZM302.924 43V38.77H303.743V39.508C303.851 39.244 304.007 39.046 304.211 38.914C304.421 38.782 304.655 38.716 304.913 38.716C304.997 38.716 305.072 38.722 305.138 38.734C305.21 38.74 305.267 38.752 305.309 38.77V39.571C305.225 39.553 305.141 39.541 305.057 39.535C304.979 39.523 304.901 39.517 304.823 39.517C304.523 39.517 304.271 39.643 304.067 39.895C303.869 40.141 303.77 40.495 303.77 40.957V43H302.924ZM308.007 43.09C307.581 43.09 307.197 43.006 306.855 42.838C306.519 42.664 306.252 42.415 306.054 42.091C305.856 41.761 305.757 41.359 305.757 40.885C305.757 40.435 305.85 40.045 306.036 39.715C306.228 39.385 306.483 39.13 306.801 38.95C307.125 38.77 307.485 38.68 307.881 38.68C308.301 38.68 308.661 38.761 308.961 38.923C309.267 39.079 309.504 39.295 309.672 39.571C309.84 39.847 309.924 40.159 309.924 40.507C309.924 40.609 309.909 40.72 309.879 40.84C309.855 40.96 309.819 41.056 309.771 41.128H306.621C306.651 41.392 306.729 41.617 306.855 41.803C306.981 41.989 307.149 42.13 307.359 42.226C307.569 42.316 307.812 42.361 308.088 42.361C308.364 42.361 308.607 42.319 308.817 42.235C309.033 42.151 309.24 42.031 309.438 41.875L309.744 42.505C309.51 42.697 309.246 42.844 308.952 42.946C308.664 43.042 308.349 43.09 308.007 43.09ZM306.621 40.471H309.042C309.048 40.459 309.051 40.447 309.051 40.435C309.051 40.417 309.051 40.399 309.051 40.381C309.051 40.183 309.009 40.012 308.925 39.868C308.841 39.718 308.715 39.601 308.547 39.517C308.379 39.433 308.166 39.391 307.908 39.391C307.704 39.391 307.512 39.436 307.332 39.526C307.158 39.61 307.008 39.733 306.882 39.895C306.762 40.051 306.675 40.243 306.621 40.471ZM312.369 43.09C312.057 43.09 311.781 43.042 311.541 42.946C311.307 42.844 311.124 42.7 310.992 42.514C310.86 42.322 310.794 42.091 310.794 41.821C310.794 41.551 310.86 41.329 310.992 41.155C311.124 40.975 311.31 40.834 311.55 40.732C311.79 40.624 312.063 40.552 312.369 40.516L313.863 40.336C313.827 40.018 313.707 39.784 313.503 39.634C313.299 39.484 313.047 39.409 312.747 39.409C312.543 39.409 312.33 39.451 312.108 39.535C311.892 39.613 311.661 39.739 311.415 39.913L311.1 39.274C311.334 39.088 311.592 38.944 311.874 38.842C312.162 38.734 312.459 38.68 312.765 38.68C313.407 38.68 313.893 38.827 314.223 39.121C314.559 39.409 314.727 39.844 314.727 40.426V43H313.908V42.388C313.752 42.622 313.542 42.799 313.278 42.919C313.02 43.033 312.717 43.09 312.369 43.09ZM312.567 42.37C312.849 42.37 313.086 42.316 313.278 42.208C313.476 42.094 313.623 41.944 313.719 41.758C313.821 41.572 313.872 41.377 313.872 41.173V40.984L312.612 41.146C312.3 41.188 312.063 41.257 311.901 41.353C311.739 41.443 311.658 41.59 311.658 41.794C311.658 41.98 311.739 42.124 311.901 42.226C312.063 42.322 312.285 42.37 312.567 42.37ZM316.064 43V36.988H316.91V40.759L318.908 38.77H319.943L318.179 40.498L320.033 43H318.998L317.585 41.083L316.91 41.74V43H316.064ZM319.969 40.768V40.084H322.408V40.768H319.969ZM323.553 43V36.988H327.72V37.762H324.453V39.535H327.45V40.273H324.453V42.226H327.72V43H323.553ZM330.111 43L328.419 38.77H329.328L330.579 42.118L331.83 38.77H332.748L331.047 43H330.111ZM335.289 43.09C334.863 43.09 334.479 43.006 334.137 42.838C333.801 42.664 333.534 42.415 333.336 42.091C333.138 41.761 333.039 41.359 333.039 40.885C333.039 40.435 333.132 40.045 333.318 39.715C333.51 39.385 333.765 39.13 334.083 38.95C334.407 38.77 334.767 38.68 335.163 38.68C335.583 38.68 335.943 38.761 336.243 38.923C336.549 39.079 336.786 39.295 336.954 39.571C337.122 39.847 337.206 40.159 337.206 40.507C337.206 40.609 337.191 40.72 337.161 40.84C337.137 40.96 337.101 41.056 337.053 41.128H333.903C333.933 41.392 334.011 41.617 334.137 41.803C334.263 41.989 334.431 42.13 334.641 42.226C334.851 42.316 335.094 42.361 335.37 42.361C335.646 42.361 335.889 42.319 336.099 42.235C336.315 42.151 336.522 42.031 336.72 41.875L337.026 42.505C336.792 42.697 336.528 42.844 336.234 42.946C335.946 43.042 335.631 43.09 335.289 43.09ZM333.903 40.471H336.324C336.33 40.459 336.333 40.447 336.333 40.435C336.333 40.417 336.333 40.399 336.333 40.381C336.333 40.183 336.291 40.012 336.207 39.868C336.123 39.718 335.997 39.601 335.829 39.517C335.661 39.433 335.448 39.391 335.19 39.391C334.986 39.391 334.794 39.436 334.614 39.526C334.44 39.61 334.29 39.733 334.164 39.895C334.044 40.051 333.957 40.243 333.903 40.471ZM338.309 43V38.77H339.128V39.4C339.254 39.178 339.434 39.004 339.668 38.878C339.908 38.746 340.199 38.68 340.541 38.68C341.027 38.68 341.408 38.818 341.684 39.094C341.96 39.37 342.098 39.802 342.098 40.39V43H341.243V40.498C341.243 40.12 341.165 39.847 341.009 39.679C340.859 39.505 340.628 39.418 340.316 39.418C339.95 39.418 339.665 39.544 339.461 39.796C339.257 40.048 339.155 40.393 339.155 40.831V43H338.309ZM346.432 43.9L346.639 42.982C346.417 42.916 346.201 42.826 345.991 42.712C345.787 42.598 345.583 42.454 345.379 42.28L345.739 41.569C345.931 41.725 346.117 41.854 346.297 41.956C346.477 42.052 346.654 42.13 346.828 42.19L347.26 40.282L347.071 40.246C346.537 40.144 346.15 39.961 345.91 39.697C345.676 39.433 345.559 39.112 345.559 38.734C345.559 38.398 345.634 38.092 345.784 37.816C345.934 37.54 346.165 37.318 346.477 37.15C346.789 36.982 347.182 36.898 347.656 36.898C347.722 36.898 347.785 36.901 347.845 36.907C347.911 36.907 347.977 36.91 348.043 36.916L348.232 36.088H348.772L348.556 37.015C348.748 37.063 348.934 37.135 349.114 37.231C349.3 37.327 349.48 37.444 349.654 37.582L349.285 38.284C349.129 38.176 348.976 38.083 348.826 38.005C348.682 37.921 348.532 37.852 348.376 37.798L347.98 39.535L348.313 39.598C348.841 39.694 349.225 39.895 349.465 40.201C349.711 40.501 349.834 40.837 349.834 41.209C349.834 41.773 349.636 42.229 349.24 42.577C348.85 42.919 348.286 43.09 347.548 43.09C347.476 43.09 347.407 43.087 347.341 43.081C347.281 43.075 347.221 43.069 347.161 43.063L346.972 43.9H346.432ZM347.341 42.298C347.377 42.304 347.41 42.307 347.44 42.307C347.476 42.307 347.512 42.307 347.548 42.307C347.986 42.307 348.322 42.22 348.556 42.046C348.79 41.866 348.907 41.617 348.907 41.299C348.907 41.077 348.835 40.891 348.691 40.741C348.547 40.585 348.337 40.483 348.061 40.435L347.782 40.381L347.341 42.298ZM347.458 39.436L347.863 37.69C347.833 37.684 347.803 37.681 347.773 37.681C347.743 37.681 347.71 37.681 347.674 37.681C347.278 37.681 346.978 37.765 346.774 37.933C346.576 38.101 346.477 38.329 346.477 38.617C346.477 38.839 346.546 39.013 346.684 39.139C346.828 39.259 347.035 39.346 347.305 39.4L347.458 39.436ZM352.172 43V37.96L350.876 38.671L350.525 37.978L352.406 36.988H353.072V43H352.172ZM356.668 43.09C356.14 43.09 355.693 42.958 355.327 42.694C354.961 42.424 354.685 42.058 354.499 41.596C354.313 41.128 354.22 40.594 354.22 39.994C354.22 39.394 354.313 38.863 354.499 38.401C354.685 37.933 354.961 37.567 355.327 37.303C355.693 37.033 356.14 36.898 356.668 36.898C357.202 36.898 357.649 37.033 358.009 37.303C358.375 37.567 358.651 37.933 358.837 38.401C359.029 38.863 359.125 39.394 359.125 39.994C359.125 40.594 359.029 41.128 358.837 41.596C358.651 42.058 358.375 42.424 358.009 42.694C357.649 42.958 357.202 43.09 356.668 43.09ZM356.668 42.343C356.968 42.343 357.232 42.259 357.46 42.091C357.694 41.917 357.874 41.656 358 41.308C358.132 40.96 358.198 40.522 358.198 39.994C358.198 39.46 358.132 39.019 358 38.671C357.874 38.323 357.694 38.065 357.46 37.897C357.232 37.723 356.968 37.636 356.668 37.636C356.374 37.636 356.11 37.723 355.876 37.897C355.648 38.071 355.468 38.332 355.336 38.68C355.204 39.022 355.138 39.46 355.138 39.994C355.138 40.522 355.204 40.96 355.336 41.308C355.468 41.656 355.648 41.917 355.876 42.091C356.11 42.259 356.374 42.343 356.668 42.343ZM360.616 43L363.046 37.726H359.815V36.988H363.928V37.636L361.489 43H360.616Z" fill="#747FA6"/>
<line x1="121.5" y1="88.5" x2="311.5" y2="88.5" stroke="#C75E4B" stroke-linecap="round" stroke-dasharray="2 2"/>
<path d="M137.161 41.8085C137.055 41.7197 136.897 41.7335 136.808 41.8393C136.72 41.9451 136.734 42.1028 136.839 42.1915L137.161 41.8085ZM143.15 47.3913C143.288 47.3793 143.389 47.2581 143.377 47.1205L143.181 44.8791C143.169 44.7415 143.048 44.6398 142.91 44.6518C142.773 44.6638 142.671 44.7851 142.683 44.9227L142.858 46.915L140.865 47.0894C140.728 47.1014 140.626 47.2226 140.638 47.3602C140.65 47.4977 140.771 47.5995 140.909 47.5875L143.15 47.3913ZM136.839 42.1915L142.968 47.3338L143.289 46.9508L137.161 41.8085L136.839 42.1915Z" fill="#747FA6"/>
<path d="M71.3135 43V36.988H74.0945C74.5685 36.988 74.9615 37.042 75.2735 37.15C75.5915 37.252 75.8315 37.417 75.9935 37.645C76.1555 37.873 76.2365 38.173 76.2365 38.545C76.2365 38.899 76.1615 39.187 76.0115 39.409C75.8675 39.631 75.6245 39.793 75.2825 39.895C75.6845 39.991 75.9725 40.159 76.1465 40.399C76.3265 40.639 76.4165 40.954 76.4165 41.344C76.4165 41.938 76.2245 42.364 75.8405 42.622C75.4625 42.874 74.8805 43 74.0945 43H71.3135ZM72.2135 42.235H73.9685C74.3465 42.235 74.6465 42.202 74.8685 42.136C75.0905 42.07 75.2495 41.965 75.3455 41.821C75.4415 41.677 75.4895 41.488 75.4895 41.254C75.4895 41.014 75.4415 40.822 75.3455 40.678C75.2495 40.534 75.0905 40.429 74.8685 40.363C74.6465 40.297 74.3465 40.264 73.9685 40.264H72.2135V42.235ZM72.2135 39.535H73.9685C74.4665 39.535 74.8145 39.469 75.0125 39.337C75.2105 39.205 75.3095 38.974 75.3095 38.644C75.3095 38.308 75.2105 38.074 75.0125 37.942C74.8145 37.81 74.4665 37.744 73.9685 37.744H72.2135V39.535ZM77.5266 43V38.77H78.3456V39.508C78.4536 39.244 78.6096 39.046 78.8136 38.914C79.0236 38.782 79.2576 38.716 79.5156 38.716C79.5996 38.716 79.6746 38.722 79.7406 38.734C79.8126 38.74 79.8696 38.752 79.9116 38.77V39.571C79.8276 39.553 79.7436 39.541 79.6596 39.535C79.5816 39.523 79.5036 39.517 79.4256 39.517C79.1256 39.517 78.8736 39.643 78.6696 39.895C78.4716 40.141 78.3726 40.495 78.3726 40.957V43H77.5266ZM82.6099 43.09C82.1839 43.09 81.7999 43.006 81.4579 42.838C81.1219 42.664 80.8549 42.415 80.6569 42.091C80.4589 41.761 80.3599 41.359 80.3599 40.885C80.3599 40.435 80.4529 40.045 80.6389 39.715C80.8309 39.385 81.0859 39.13 81.4039 38.95C81.7279 38.77 82.0879 38.68 82.4839 38.68C82.9039 38.68 83.2639 38.761 83.5639 38.923C83.8699 39.079 84.1069 39.295 84.2749 39.571C84.4429 39.847 84.5269 40.159 84.5269 40.507C84.5269 40.609 84.5119 40.72 84.4819 40.84C84.4579 40.96 84.4219 41.056 84.3739 41.128H81.2239C81.2539 41.392 81.3319 41.617 81.4579 41.803C81.5839 41.989 81.7519 42.13 81.9619 42.226C82.1719 42.316 82.4149 42.361 82.6909 42.361C82.9669 42.361 83.2099 42.319 83.4199 42.235C83.6359 42.151 83.8429 42.031 84.0409 41.875L84.3469 42.505C84.1129 42.697 83.8489 42.844 83.5549 42.946C83.2669 43.042 82.9519 43.09 82.6099 43.09ZM81.2239 40.471H83.6449C83.6509 40.459 83.6539 40.447 83.6539 40.435C83.6539 40.417 83.6539 40.399 83.6539 40.381C83.6539 40.183 83.6119 40.012 83.5279 39.868C83.4439 39.718 83.3179 39.601 83.1499 39.517C82.9819 39.433 82.7689 39.391 82.5109 39.391C82.3069 39.391 82.1149 39.436 81.9349 39.526C81.7609 39.61 81.6109 39.733 81.4849 39.895C81.3649 40.051 81.2779 40.243 81.2239 40.471ZM86.9711 43.09C86.6591 43.09 86.3831 43.042 86.1431 42.946C85.9091 42.844 85.7261 42.7 85.5941 42.514C85.4621 42.322 85.3961 42.091 85.3961 41.821C85.3961 41.551 85.4621 41.329 85.5941 41.155C85.7261 40.975 85.9121 40.834 86.1521 40.732C86.3921 40.624 86.6651 40.552 86.9711 40.516L88.4651 40.336C88.4291 40.018 88.3091 39.784 88.1051 39.634C87.9011 39.484 87.6491 39.409 87.3491 39.409C87.1451 39.409 86.9321 39.451 86.7101 39.535C86.4941 39.613 86.2631 39.739 86.0171 39.913L85.7021 39.274C85.9361 39.088 86.1941 38.944 86.4761 38.842C86.7641 38.734 87.0611 38.68 87.3671 38.68C88.0091 38.68 88.4951 38.827 88.8251 39.121C89.1611 39.409 89.3291 39.844 89.3291 40.426V43H88.5101V42.388C88.3541 42.622 88.1441 42.799 87.8801 42.919C87.6221 43.033 87.3191 43.09 86.9711 43.09ZM87.1691 42.37C87.4511 42.37 87.6881 42.316 87.8801 42.208C88.0781 42.094 88.2251 41.944 88.3211 41.758C88.4231 41.572 88.4741 41.377 88.4741 41.173V40.984L87.2141 41.146C86.9021 41.188 86.6651 41.257 86.5031 41.353C86.3411 41.443 86.2601 41.59 86.2601 41.794C86.2601 41.98 86.3411 42.124 86.5031 42.226C86.6651 42.322 86.8871 42.37 87.1691 42.37ZM90.6662 43V36.988H91.5122V40.759L93.5102 38.77H94.5452L92.7812 40.498L94.6352 43H93.6002L92.1872 41.083L91.5122 41.74V43H90.6662ZM94.5719 40.768V40.084H97.0109V40.768H94.5719ZM98.1553 43V36.988H102.322V37.762H99.0553V39.535H102.052V40.273H99.0553V42.226H102.322V43H98.1553ZM104.714 43L103.022 38.77H103.931L105.182 42.118L106.433 38.77H107.351L105.65 43H104.714ZM109.891 43.09C109.465 43.09 109.081 43.006 108.739 42.838C108.403 42.664 108.136 42.415 107.938 42.091C107.74 41.761 107.641 41.359 107.641 40.885C107.641 40.435 107.734 40.045 107.92 39.715C108.112 39.385 108.367 39.13 108.685 38.95C109.009 38.77 109.369 38.68 109.765 38.68C110.185 38.68 110.545 38.761 110.845 38.923C111.151 39.079 111.388 39.295 111.556 39.571C111.724 39.847 111.808 40.159 111.808 40.507C111.808 40.609 111.793 40.72 111.763 40.84C111.739 40.96 111.703 41.056 111.655 41.128H108.505C108.535 41.392 108.613 41.617 108.739 41.803C108.865 41.989 109.033 42.13 109.243 42.226C109.453 42.316 109.696 42.361 109.972 42.361C110.248 42.361 110.491 42.319 110.701 42.235C110.917 42.151 111.124 42.031 111.322 41.875L111.628 42.505C111.394 42.697 111.13 42.844 110.836 42.946C110.548 43.042 110.233 43.09 109.891 43.09ZM108.505 40.471H110.926C110.932 40.459 110.935 40.447 110.935 40.435C110.935 40.417 110.935 40.399 110.935 40.381C110.935 40.183 110.893 40.012 110.809 39.868C110.725 39.718 110.599 39.601 110.431 39.517C110.263 39.433 110.05 39.391 109.792 39.391C109.588 39.391 109.396 39.436 109.216 39.526C109.042 39.61 108.892 39.733 108.766 39.895C108.646 40.051 108.559 40.243 108.505 40.471ZM112.911 43V38.77H113.73V39.4C113.856 39.178 114.036 39.004 114.27 38.878C114.51 38.746 114.801 38.68 115.143 38.68C115.629 38.68 116.01 38.818 116.286 39.094C116.562 39.37 116.7 39.802 116.7 40.39V43H115.845V40.498C115.845 40.12 115.767 39.847 115.611 39.679C115.461 39.505 115.23 39.418 114.918 39.418C114.552 39.418 114.267 39.544 114.063 39.796C113.859 40.048 113.757 40.393 113.757 40.831V43H112.911ZM121.034 43.9L121.241 42.982C121.019 42.916 120.803 42.826 120.593 42.712C120.389 42.598 120.185 42.454 119.981 42.28L120.341 41.569C120.533 41.725 120.719 41.854 120.899 41.956C121.079 42.052 121.256 42.13 121.43 42.19L121.862 40.282L121.673 40.246C121.139 40.144 120.752 39.961 120.512 39.697C120.278 39.433 120.161 39.112 120.161 38.734C120.161 38.398 120.236 38.092 120.386 37.816C120.536 37.54 120.767 37.318 121.079 37.15C121.391 36.982 121.784 36.898 122.258 36.898C122.324 36.898 122.387 36.901 122.447 36.907C122.513 36.907 122.579 36.91 122.645 36.916L122.834 36.088H123.374L123.158 37.015C123.35 37.063 123.536 37.135 123.716 37.231C123.902 37.327 124.082 37.444 124.256 37.582L123.887 38.284C123.731 38.176 123.578 38.083 123.428 38.005C123.284 37.921 123.134 37.852 122.978 37.798L122.582 39.535L122.915 39.598C123.443 39.694 123.827 39.895 124.067 40.201C124.313 40.501 124.436 40.837 124.436 41.209C124.436 41.773 124.238 42.229 123.842 42.577C123.452 42.919 122.888 43.09 122.15 43.09C122.078 43.09 122.009 43.087 121.943 43.081C121.883 43.075 121.823 43.069 121.763 43.063L121.574 43.9H121.034ZM121.943 42.298C121.979 42.304 122.012 42.307 122.042 42.307C122.078 42.307 122.114 42.307 122.15 42.307C122.588 42.307 122.924 42.22 123.158 42.046C123.392 41.866 123.509 41.617 123.509 41.299C123.509 41.077 123.437 40.891 123.293 40.741C123.149 40.585 122.939 40.483 122.663 40.435L122.384 40.381L121.943 42.298ZM122.06 39.436L122.465 37.69C122.435 37.684 122.405 37.681 122.375 37.681C122.345 37.681 122.312 37.681 122.276 37.681C121.88 37.681 121.58 37.765 121.376 37.933C121.178 38.101 121.079 38.329 121.079 38.617C121.079 38.839 121.148 39.013 121.286 39.139C121.43 39.259 121.637 39.346 121.907 39.4L122.06 39.436ZM127.332 43.09C126.948 43.09 126.597 43.021 126.279 42.883C125.967 42.739 125.697 42.538 125.469 42.28L125.811 41.686C126.045 41.908 126.282 42.073 126.522 42.181C126.762 42.289 127.005 42.343 127.251 42.343C127.569 42.343 127.857 42.271 128.115 42.127C128.379 41.977 128.589 41.743 128.745 41.425C128.907 41.107 128.997 40.693 129.015 40.183C128.865 40.399 128.655 40.57 128.385 40.696C128.121 40.822 127.809 40.885 127.449 40.885C126.999 40.885 126.612 40.801 126.288 40.633C125.97 40.465 125.727 40.234 125.559 39.94C125.391 39.646 125.307 39.307 125.307 38.923C125.307 38.539 125.397 38.194 125.577 37.888C125.757 37.582 126.012 37.342 126.342 37.168C126.678 36.988 127.074 36.898 127.53 36.898C128.028 36.898 128.454 36.997 128.808 37.195C129.168 37.393 129.447 37.693 129.645 38.095C129.843 38.497 129.942 39.01 129.942 39.634C129.942 40.324 129.846 40.93 129.654 41.452C129.462 41.968 129.174 42.37 128.79 42.658C128.406 42.946 127.92 43.09 127.332 43.09ZM127.62 40.183C128.058 40.183 128.4 40.072 128.646 39.85C128.892 39.622 129.015 39.31 129.015 38.914C128.955 38.536 128.814 38.23 128.592 37.996C128.37 37.756 128.046 37.636 127.62 37.636C127.188 37.636 126.846 37.75 126.594 37.978C126.348 38.206 126.225 38.515 126.225 38.905C126.225 39.307 126.348 39.622 126.594 39.85C126.846 40.072 127.188 40.183 127.62 40.183ZM132.334 43.09C131.926 43.09 131.554 43.027 131.218 42.901C130.888 42.769 130.573 42.562 130.273 42.28L130.615 41.623C130.915 41.875 131.209 42.058 131.497 42.172C131.791 42.286 132.07 42.343 132.334 42.343C132.724 42.343 133.039 42.25 133.279 42.064C133.519 41.872 133.639 41.617 133.639 41.299C133.639 40.975 133.519 40.72 133.279 40.534C133.039 40.348 132.724 40.255 132.334 40.255H131.596V39.544H132.334C132.688 39.544 132.979 39.466 133.207 39.31C133.435 39.148 133.549 38.911 133.549 38.599C133.549 38.287 133.435 38.05 133.207 37.888C132.979 37.72 132.688 37.636 132.334 37.636C132.076 37.636 131.815 37.693 131.551 37.807C131.287 37.921 131.005 38.104 130.705 38.356L130.363 37.708C130.663 37.426 130.972 37.222 131.29 37.096C131.608 36.964 131.956 36.898 132.334 36.898C132.76 36.898 133.132 36.97 133.45 37.114C133.774 37.252 134.026 37.444 134.206 37.69C134.386 37.936 134.476 38.218 134.476 38.536C134.476 38.86 134.374 39.142 134.17 39.382C133.966 39.616 133.687 39.79 133.333 39.904C133.723 40.018 134.026 40.201 134.242 40.453C134.458 40.705 134.566 41.008 134.566 41.362C134.566 41.692 134.473 41.989 134.287 42.253C134.107 42.511 133.849 42.715 133.513 42.865C133.183 43.015 132.79 43.09 132.334 43.09Z" fill="#747FA6"/>
<line x1="117.5" y1="54" x2="117.5" y2="63" stroke="#20224E"/>
<path d="M109.688 73.9L109.895 72.982C109.673 72.916 109.457 72.826 109.247 72.712C109.043 72.598 108.839 72.454 108.635 72.28L108.995 71.569C109.187 71.725 109.373 71.854 109.553 71.956C109.733 72.052 109.91 72.13 110.084 72.19L110.516 70.282L110.327 70.246C109.793 70.144 109.406 69.961 109.166 69.697C108.932 69.433 108.815 69.112 108.815 68.734C108.815 68.398 108.89 68.092 109.04 67.816C109.19 67.54 109.421 67.318 109.733 67.15C110.045 66.982 110.438 66.898 110.912 66.898C110.978 66.898 111.041 66.901 111.101 66.907C111.167 66.907 111.233 66.91 111.299 66.916L111.488 66.088H112.028L111.812 67.015C112.004 67.063 112.19 67.135 112.37 67.231C112.556 67.327 112.736 67.444 112.91 67.582L112.541 68.284C112.385 68.176 112.232 68.083 112.082 68.005C111.938 67.921 111.788 67.852 111.632 67.798L111.236 69.535L111.569 69.598C112.097 69.694 112.481 69.895 112.721 70.201C112.967 70.501 113.09 70.837 113.09 71.209C113.09 71.773 112.892 72.229 112.496 72.577C112.106 72.919 111.542 73.09 110.804 73.09C110.732 73.09 110.663 73.087 110.597 73.081C110.537 73.075 110.477 73.069 110.417 73.063L110.228 73.9H109.688ZM110.597 72.298C110.633 72.304 110.666 72.307 110.696 72.307C110.732 72.307 110.768 72.307 110.804 72.307C111.242 72.307 111.578 72.22 111.812 72.046C112.046 71.866 112.163 71.617 112.163 71.299C112.163 71.077 112.091 70.891 111.947 70.741C111.803 70.585 111.593 70.483 111.317 70.435L111.038 70.381L110.597 72.298ZM110.714 69.436L111.119 67.69C111.089 67.684 111.059 67.681 111.029 67.681C110.999 67.681 110.966 67.681 110.93 67.681C110.534 67.681 110.234 67.765 110.03 67.933C109.832 68.101 109.733 68.329 109.733 68.617C109.733 68.839 109.802 69.013 109.94 69.139C110.084 69.259 110.291 69.346 110.561 69.4L110.714 69.436ZM115.987 73.09C115.603 73.09 115.252 73.021 114.934 72.883C114.622 72.739 114.352 72.538 114.124 72.28L114.466 71.686C114.7 71.908 114.937 72.073 115.177 72.181C115.417 72.289 115.66 72.343 115.906 72.343C116.224 72.343 116.512 72.271 116.77 72.127C117.034 71.977 117.244 71.743 117.4 71.425C117.562 71.107 117.652 70.693 117.67 70.183C117.52 70.399 117.31 70.57 117.04 70.696C116.776 70.822 116.464 70.885 116.104 70.885C115.654 70.885 115.267 70.801 114.943 70.633C114.625 70.465 114.382 70.234 114.214 69.94C114.046 69.646 113.962 69.307 113.962 68.923C113.962 68.539 114.052 68.194 114.232 67.888C114.412 67.582 114.667 67.342 114.997 67.168C115.333 66.988 115.729 66.898 116.185 66.898C116.683 66.898 117.109 66.997 117.463 67.195C117.823 67.393 118.102 67.693 118.3 68.095C118.498 68.497 118.597 69.01 118.597 69.634C118.597 70.324 118.501 70.93 118.309 71.452C118.117 71.968 117.829 72.37 117.445 72.658C117.061 72.946 116.575 73.09 115.987 73.09ZM116.275 70.183C116.713 70.183 117.055 70.072 117.301 69.85C117.547 69.622 117.67 69.31 117.67 68.914C117.61 68.536 117.469 68.23 117.247 67.996C117.025 67.756 116.701 67.636 116.275 67.636C115.843 67.636 115.501 67.75 115.249 67.978C115.003 68.206 114.88 68.515 114.88 68.905C114.88 69.307 115.003 69.622 115.249 69.85C115.501 70.072 115.843 70.183 116.275 70.183ZM121.92 73.09C121.392 73.09 120.945 72.958 120.579 72.694C120.213 72.424 119.937 72.058 119.751 71.596C119.565 71.128 119.472 70.594 119.472 69.994C119.472 69.394 119.565 68.863 119.751 68.401C119.937 67.933 120.213 67.567 120.579 67.303C120.945 67.033 121.392 66.898 121.92 66.898C122.454 66.898 122.901 67.033 123.261 67.303C123.627 67.567 123.903 67.933 124.089 68.401C124.281 68.863 124.377 69.394 124.377 69.994C124.377 70.594 124.281 71.128 124.089 71.596C123.903 72.058 123.627 72.424 123.261 72.694C122.901 72.958 122.454 73.09 121.92 73.09ZM121.92 72.343C122.22 72.343 122.484 72.259 122.712 72.091C122.946 71.917 123.126 71.656 123.252 71.308C123.384 70.96 123.45 70.522 123.45 69.994C123.45 69.46 123.384 69.019 123.252 68.671C123.126 68.323 122.946 68.065 122.712 67.897C122.484 67.723 122.22 67.636 121.92 67.636C121.626 67.636 121.362 67.723 121.128 67.897C120.9 68.071 120.72 68.332 120.588 68.68C120.456 69.022 120.39 69.46 120.39 69.994C120.39 70.522 120.456 70.96 120.588 71.308C120.72 71.656 120.9 71.917 121.128 72.091C121.362 72.259 121.626 72.343 121.92 72.343Z" fill="#747FA6"/>
<line x1="165.5" y1="54" x2="165.5" y2="63" stroke="#20224E"/>
<path d="M157.956 73.9L158.163 72.982C157.941 72.916 157.725 72.826 157.515 72.712C157.311 72.598 157.107 72.454 156.903 72.28L157.263 71.569C157.455 71.725 157.641 71.854 157.821 71.956C158.001 72.052 158.178 72.13 158.352 72.19L158.784 70.282L158.595 70.246C158.061 70.144 157.674 69.961 157.434 69.697C157.2 69.433 157.083 69.112 157.083 68.734C157.083 68.398 157.158 68.092 157.308 67.816C157.458 67.54 157.689 67.318 158.001 67.15C158.313 66.982 158.706 66.898 159.18 66.898C159.246 66.898 159.309 66.901 159.369 66.907C159.435 66.907 159.501 66.91 159.567 66.916L159.756 66.088H160.296L160.08 67.015C160.272 67.063 160.458 67.135 160.638 67.231C160.824 67.327 161.004 67.444 161.178 67.582L160.809 68.284C160.653 68.176 160.5 68.083 160.35 68.005C160.206 67.921 160.056 67.852 159.9 67.798L159.504 69.535L159.837 69.598C160.365 69.694 160.749 69.895 160.989 70.201C161.235 70.501 161.358 70.837 161.358 71.209C161.358 71.773 161.16 72.229 160.764 72.577C160.374 72.919 159.81 73.09 159.072 73.09C159 73.09 158.931 73.087 158.865 73.081C158.805 73.075 158.745 73.069 158.685 73.063L158.496 73.9H157.956ZM158.865 72.298C158.901 72.304 158.934 72.307 158.964 72.307C159 72.307 159.036 72.307 159.072 72.307C159.51 72.307 159.846 72.22 160.08 72.046C160.314 71.866 160.431 71.617 160.431 71.299C160.431 71.077 160.359 70.891 160.215 70.741C160.071 70.585 159.861 70.483 159.585 70.435L159.306 70.381L158.865 72.298ZM158.982 69.436L159.387 67.69C159.357 67.684 159.327 67.681 159.297 67.681C159.267 67.681 159.234 67.681 159.198 67.681C158.802 67.681 158.502 67.765 158.298 67.933C158.1 68.101 158.001 68.329 158.001 68.617C158.001 68.839 158.07 69.013 158.208 69.139C158.352 69.259 158.559 69.346 158.829 69.4L158.982 69.436ZM164.255 73.09C163.871 73.09 163.52 73.021 163.202 72.883C162.89 72.739 162.62 72.538 162.392 72.28L162.734 71.686C162.968 71.908 163.205 72.073 163.445 72.181C163.685 72.289 163.928 72.343 164.174 72.343C164.492 72.343 164.78 72.271 165.038 72.127C165.302 71.977 165.512 71.743 165.668 71.425C165.83 71.107 165.92 70.693 165.938 70.183C165.788 70.399 165.578 70.57 165.308 70.696C165.044 70.822 164.732 70.885 164.372 70.885C163.922 70.885 163.535 70.801 163.211 70.633C162.893 70.465 162.65 70.234 162.482 69.94C162.314 69.646 162.23 69.307 162.23 68.923C162.23 68.539 162.32 68.194 162.5 67.888C162.68 67.582 162.935 67.342 163.265 67.168C163.601 66.988 163.997 66.898 164.453 66.898C164.951 66.898 165.377 66.997 165.731 67.195C166.091 67.393 166.37 67.693 166.568 68.095C166.766 68.497 166.865 69.01 166.865 69.634C166.865 70.324 166.769 70.93 166.577 71.452C166.385 71.968 166.097 72.37 165.713 72.658C165.329 72.946 164.843 73.09 164.255 73.09ZM164.543 70.183C164.981 70.183 165.323 70.072 165.569 69.85C165.815 69.622 165.938 69.31 165.938 68.914C165.878 68.536 165.737 68.23 165.515 67.996C165.293 67.756 164.969 67.636 164.543 67.636C164.111 67.636 163.769 67.75 163.517 67.978C163.271 68.206 163.148 68.515 163.148 68.905C163.148 69.307 163.271 69.622 163.517 69.85C163.769 70.072 164.111 70.183 164.543 70.183ZM169.873 73.09C169.555 73.09 169.27 73.06 169.018 73C168.772 72.946 168.547 72.859 168.343 72.739C168.139 72.613 167.938 72.46 167.74 72.28L168.091 71.641C168.391 71.893 168.676 72.073 168.946 72.181C169.222 72.289 169.501 72.343 169.783 72.343C170.221 72.343 170.563 72.232 170.809 72.01C171.055 71.782 171.178 71.47 171.178 71.074C171.178 70.678 171.055 70.369 170.809 70.147C170.563 69.919 170.221 69.805 169.783 69.805C169.489 69.805 169.24 69.865 169.036 69.985C168.838 70.099 168.7 70.267 168.622 70.489L167.848 70.345L168.46 66.898H171.655V67.636H169.144L168.811 69.445C168.955 69.331 169.126 69.247 169.324 69.193C169.522 69.133 169.732 69.103 169.954 69.103C170.41 69.103 170.797 69.187 171.115 69.355C171.433 69.517 171.676 69.745 171.844 70.039C172.018 70.333 172.105 70.672 172.105 71.056C172.105 71.44 172.015 71.785 171.835 72.091C171.655 72.397 171.397 72.64 171.061 72.82C170.731 73 170.335 73.09 169.873 73.09Z" fill="#747FA6"/>
<line x1="214.5" y1="54" x2="214.5" y2="63" stroke="#20224E"/>
<path d="M205.799 73.9L206.006 72.982C205.784 72.916 205.568 72.826 205.358 72.712C205.154 72.598 204.95 72.454 204.746 72.28L205.106 71.569C205.298 71.725 205.484 71.854 205.664 71.956C205.844 72.052 206.021 72.13 206.195 72.19L206.627 70.282L206.438 70.246C205.904 70.144 205.517 69.961 205.277 69.697C205.043 69.433 204.926 69.112 204.926 68.734C204.926 68.398 205.001 68.092 205.151 67.816C205.301 67.54 205.532 67.318 205.844 67.15C206.156 66.982 206.549 66.898 207.023 66.898C207.089 66.898 207.152 66.901 207.212 66.907C207.278 66.907 207.344 66.91 207.41 66.916L207.599 66.088H208.139L207.923 67.015C208.115 67.063 208.301 67.135 208.481 67.231C208.667 67.327 208.847 67.444 209.021 67.582L208.652 68.284C208.496 68.176 208.343 68.083 208.193 68.005C208.049 67.921 207.899 67.852 207.743 67.798L207.347 69.535L207.68 69.598C208.208 69.694 208.592 69.895 208.832 70.201C209.078 70.501 209.201 70.837 209.201 71.209C209.201 71.773 209.003 72.229 208.607 72.577C208.217 72.919 207.653 73.09 206.915 73.09C206.843 73.09 206.774 73.087 206.708 73.081C206.648 73.075 206.588 73.069 206.528 73.063L206.339 73.9H205.799ZM206.708 72.298C206.744 72.304 206.777 72.307 206.807 72.307C206.843 72.307 206.879 72.307 206.915 72.307C207.353 72.307 207.689 72.22 207.923 72.046C208.157 71.866 208.274 71.617 208.274 71.299C208.274 71.077 208.202 70.891 208.058 70.741C207.914 70.585 207.704 70.483 207.428 70.435L207.149 70.381L206.708 72.298ZM206.825 69.436L207.23 67.69C207.2 67.684 207.17 67.681 207.14 67.681C207.11 67.681 207.077 67.681 207.041 67.681C206.645 67.681 206.345 67.765 206.141 67.933C205.943 68.101 205.844 68.329 205.844 68.617C205.844 68.839 205.913 69.013 206.051 69.139C206.195 69.259 206.402 69.346 206.672 69.4L206.825 69.436ZM211.539 73V67.96L210.243 68.671L209.892 67.978L211.773 66.988H212.439V73H211.539ZM216.035 73.09C215.507 73.09 215.06 72.958 214.694 72.694C214.328 72.424 214.052 72.058 213.866 71.596C213.68 71.128 213.587 70.594 213.587 69.994C213.587 69.394 213.68 68.863 213.866 68.401C214.052 67.933 214.328 67.567 214.694 67.303C215.06 67.033 215.507 66.898 216.035 66.898C216.569 66.898 217.016 67.033 217.376 67.303C217.742 67.567 218.018 67.933 218.204 68.401C218.396 68.863 218.492 69.394 218.492 69.994C218.492 70.594 218.396 71.128 218.204 71.596C218.018 72.058 217.742 72.424 217.376 72.694C217.016 72.958 216.569 73.09 216.035 73.09ZM216.035 72.343C216.335 72.343 216.599 72.259 216.827 72.091C217.061 71.917 217.241 71.656 217.367 71.308C217.499 70.96 217.565 70.522 217.565 69.994C217.565 69.46 217.499 69.019 217.367 68.671C217.241 68.323 217.061 68.065 216.827 67.897C216.599 67.723 216.335 67.636 216.035 67.636C215.741 67.636 215.477 67.723 215.243 67.897C215.015 68.071 214.835 68.332 214.703 68.68C214.571 69.022 214.505 69.46 214.505 69.994C214.505 70.522 214.571 70.96 214.703 71.308C214.835 71.656 215.015 71.917 215.243 72.091C215.477 72.259 215.741 72.343 216.035 72.343ZM221.81 73.09C221.282 73.09 220.835 72.958 220.469 72.694C220.103 72.424 219.827 72.058 219.641 71.596C219.455 71.128 219.362 70.594 219.362 69.994C219.362 69.394 219.455 68.863 219.641 68.401C219.827 67.933 220.103 67.567 220.469 67.303C220.835 67.033 221.282 66.898 221.81 66.898C222.344 66.898 222.791 67.033 223.151 67.303C223.517 67.567 223.793 67.933 223.979 68.401C224.171 68.863 224.267 69.394 224.267 69.994C224.267 70.594 224.171 71.128 223.979 71.596C223.793 72.058 223.517 72.424 223.151 72.694C222.791 72.958 222.344 73.09 221.81 73.09ZM221.81 72.343C222.11 72.343 222.374 72.259 222.602 72.091C222.836 71.917 223.016 71.656 223.142 71.308C223.274 70.96 223.34 70.522 223.34 69.994C223.34 69.46 223.274 69.019 223.142 68.671C223.016 68.323 222.836 68.065 222.602 67.897C222.374 67.723 222.11 67.636 221.81 67.636C221.516 67.636 221.252 67.723 221.018 67.897C220.79 68.071 220.61 68.332 220.478 68.68C220.346 69.022 220.28 69.46 220.28 69.994C220.28 70.522 220.346 70.96 220.478 71.308C220.61 71.656 220.79 71.917 221.018 72.091C221.252 72.259 221.516 72.343 221.81 72.343Z" fill="#747FA6"/>
<line x1="265.5" y1="54" x2="265.5" y2="63" stroke="#20224E"/>
<path d="M256.567 73.9L256.774 72.982C256.552 72.916 256.336 72.826 256.126 72.712C255.922 72.598 255.718 72.454 255.514 72.28L255.874 71.569C256.066 71.725 256.252 71.854 256.432 71.956C256.612 72.052 256.789 72.13 256.963 72.19L257.395 70.282L257.206 70.246C256.672 70.144 256.285 69.961 256.045 69.697C255.811 69.433 255.694 69.112 255.694 68.734C255.694 68.398 255.769 68.092 255.919 67.816C256.069 67.54 256.3 67.318 256.612 67.15C256.924 66.982 257.317 66.898 257.791 66.898C257.857 66.898 257.92 66.901 257.98 66.907C258.046 66.907 258.112 66.91 258.178 66.916L258.367 66.088H258.907L258.691 67.015C258.883 67.063 259.069 67.135 259.249 67.231C259.435 67.327 259.615 67.444 259.789 67.582L259.42 68.284C259.264 68.176 259.111 68.083 258.961 68.005C258.817 67.921 258.667 67.852 258.511 67.798L258.115 69.535L258.448 69.598C258.976 69.694 259.36 69.895 259.6 70.201C259.846 70.501 259.969 70.837 259.969 71.209C259.969 71.773 259.771 72.229 259.375 72.577C258.985 72.919 258.421 73.09 257.683 73.09C257.611 73.09 257.542 73.087 257.476 73.081C257.416 73.075 257.356 73.069 257.296 73.063L257.107 73.9H256.567ZM257.476 72.298C257.512 72.304 257.545 72.307 257.575 72.307C257.611 72.307 257.647 72.307 257.683 72.307C258.121 72.307 258.457 72.22 258.691 72.046C258.925 71.866 259.042 71.617 259.042 71.299C259.042 71.077 258.97 70.891 258.826 70.741C258.682 70.585 258.472 70.483 258.196 70.435L257.917 70.381L257.476 72.298ZM257.593 69.436L257.998 67.69C257.968 67.684 257.938 67.681 257.908 67.681C257.878 67.681 257.845 67.681 257.809 67.681C257.413 67.681 257.113 67.765 256.909 67.933C256.711 68.101 256.612 68.329 256.612 68.617C256.612 68.839 256.681 69.013 256.819 69.139C256.963 69.259 257.17 69.346 257.44 69.4L257.593 69.436ZM262.307 73V67.96L261.011 68.671L260.66 67.978L262.541 66.988H263.207V73H262.307ZM266.804 73.09C266.276 73.09 265.829 72.958 265.463 72.694C265.097 72.424 264.821 72.058 264.635 71.596C264.449 71.128 264.356 70.594 264.356 69.994C264.356 69.394 264.449 68.863 264.635 68.401C264.821 67.933 265.097 67.567 265.463 67.303C265.829 67.033 266.276 66.898 266.804 66.898C267.338 66.898 267.785 67.033 268.145 67.303C268.511 67.567 268.787 67.933 268.973 68.401C269.165 68.863 269.261 69.394 269.261 69.994C269.261 70.594 269.165 71.128 268.973 71.596C268.787 72.058 268.511 72.424 268.145 72.694C267.785 72.958 267.338 73.09 266.804 73.09ZM266.804 72.343C267.104 72.343 267.368 72.259 267.596 72.091C267.83 71.917 268.01 71.656 268.136 71.308C268.268 70.96 268.334 70.522 268.334 69.994C268.334 69.46 268.268 69.019 268.136 68.671C268.01 68.323 267.83 68.065 267.596 67.897C267.368 67.723 267.104 67.636 266.804 67.636C266.51 67.636 266.246 67.723 266.012 67.897C265.784 68.071 265.604 68.332 265.472 68.68C265.34 69.022 265.274 69.46 265.274 69.994C265.274 70.522 265.34 70.96 265.472 71.308C265.604 71.656 265.784 71.917 266.012 72.091C266.246 72.259 266.51 72.343 266.804 72.343ZM272.263 73.09C271.945 73.09 271.66 73.06 271.408 73C271.162 72.946 270.937 72.859 270.733 72.739C270.529 72.613 270.328 72.46 270.13 72.28L270.481 71.641C270.781 71.893 271.066 72.073 271.336 72.181C271.612 72.289 271.891 72.343 272.173 72.343C272.611 72.343 272.953 72.232 273.199 72.01C273.445 71.782 273.568 71.47 273.568 71.074C273.568 70.678 273.445 70.369 273.199 70.147C272.953 69.919 272.611 69.805 272.173 69.805C271.879 69.805 271.63 69.865 271.426 69.985C271.228 70.099 271.09 70.267 271.012 70.489L270.238 70.345L270.85 66.898H274.045V67.636H271.534L271.201 69.445C271.345 69.331 271.516 69.247 271.714 69.193C271.912 69.133 272.122 69.103 272.344 69.103C272.8 69.103 273.187 69.187 273.505 69.355C273.823 69.517 274.066 69.745 274.234 70.039C274.408 70.333 274.495 70.672 274.495 71.056C274.495 71.44 274.405 71.785 274.225 72.091C274.045 72.397 273.787 72.64 273.451 72.82C273.121 73 272.725 73.09 272.263 73.09Z" fill="#747FA6"/>
<line x1="314.5" y1="54" x2="314.5" y2="63" stroke="#20224E"/>
<path d="M306.696 73.9L306.903 72.982C306.681 72.916 306.465 72.826 306.255 72.712C306.051 72.598 305.847 72.454 305.643 72.28L306.003 71.569C306.195 71.725 306.381 71.854 306.561 71.956C306.741 72.052 306.918 72.13 307.092 72.19L307.524 70.282L307.335 70.246C306.801 70.144 306.414 69.961 306.174 69.697C305.94 69.433 305.823 69.112 305.823 68.734C305.823 68.398 305.898 68.092 306.048 67.816C306.198 67.54 306.429 67.318 306.741 67.15C307.053 66.982 307.446 66.898 307.92 66.898C307.986 66.898 308.049 66.901 308.109 66.907C308.175 66.907 308.241 66.91 308.307 66.916L308.496 66.088H309.036L308.82 67.015C309.012 67.063 309.198 67.135 309.378 67.231C309.564 67.327 309.744 67.444 309.918 67.582L309.549 68.284C309.393 68.176 309.24 68.083 309.09 68.005C308.946 67.921 308.796 67.852 308.64 67.798L308.244 69.535L308.577 69.598C309.105 69.694 309.489 69.895 309.729 70.201C309.975 70.501 310.098 70.837 310.098 71.209C310.098 71.773 309.9 72.229 309.504 72.577C309.114 72.919 308.55 73.09 307.812 73.09C307.74 73.09 307.671 73.087 307.605 73.081C307.545 73.075 307.485 73.069 307.425 73.063L307.236 73.9H306.696ZM307.605 72.298C307.641 72.304 307.674 72.307 307.704 72.307C307.74 72.307 307.776 72.307 307.812 72.307C308.25 72.307 308.586 72.22 308.82 72.046C309.054 71.866 309.171 71.617 309.171 71.299C309.171 71.077 309.099 70.891 308.955 70.741C308.811 70.585 308.601 70.483 308.325 70.435L308.046 70.381L307.605 72.298ZM307.722 69.436L308.127 67.69C308.097 67.684 308.067 67.681 308.037 67.681C308.007 67.681 307.974 67.681 307.938 67.681C307.542 67.681 307.242 67.765 307.038 67.933C306.84 68.101 306.741 68.329 306.741 68.617C306.741 68.839 306.81 69.013 306.948 69.139C307.092 69.259 307.299 69.346 307.569 69.4L307.722 69.436ZM312.436 73V67.96L311.14 68.671L310.789 67.978L312.67 66.988H313.336V73H312.436ZM315.952 73V67.96L314.656 68.671L314.305 67.978L316.186 66.988H316.852V73H315.952ZM320.134 73.09C319.816 73.09 319.531 73.06 319.279 73C319.033 72.946 318.808 72.859 318.604 72.739C318.4 72.613 318.199 72.46 318.001 72.28L318.352 71.641C318.652 71.893 318.937 72.073 319.207 72.181C319.483 72.289 319.762 72.343 320.044 72.343C320.482 72.343 320.824 72.232 321.07 72.01C321.316 71.782 321.439 71.47 321.439 71.074C321.439 70.678 321.316 70.369 321.07 70.147C320.824 69.919 320.482 69.805 320.044 69.805C319.75 69.805 319.501 69.865 319.297 69.985C319.099 70.099 318.961 70.267 318.883 70.489L318.109 70.345L318.721 66.898H321.916V67.636H319.405L319.072 69.445C319.216 69.331 319.387 69.247 319.585 69.193C319.783 69.133 319.993 69.103 320.215 69.103C320.671 69.103 321.058 69.187 321.376 69.355C321.694 69.517 321.937 69.745 322.105 70.039C322.279 70.333 322.366 70.672 322.366 71.056C322.366 71.44 322.276 71.785 322.096 72.091C321.916 72.397 321.658 72.64 321.322 72.82C320.992 73 320.596 73.09 320.134 73.09Z" fill="#747FA6"/>
</svg>
