<svg width="20" height="20" viewBox="0 0 20 20" fill="none" xmlns="http://www.w3.org/2000/svg">
<path d="M10 2C7.93225 2 6.25 3.68225 6.25 5.75V7.25H5.5C4.67275 7.25 4 7.92275 4 8.75V15.5C4 16.3273 4.67275 17 5.5 17H14.5C15.3273 17 16 16.3273 16 15.5V8.75C16 7.92275 15.3273 7.25 14.5 7.25H13.75V5.75C13.75 3.68225 12.0677 2 10 2ZM7.75 5.75C7.75 4.5095 8.7595 3.5 10 3.5C11.2405 3.5 12.25 4.5095 12.25 5.75V7.25H7.75V5.75ZM14.5015 15.5H10.75V13.7915C11.1962 13.5312 11.5 13.0527 11.5 12.5C11.5 11.6727 10.8273 11 10 11C9.17275 11 8.5 11.6727 8.5 12.5C8.5 13.052 8.80375 13.5312 9.25 13.7915V15.5H5.5V8.75H14.5L14.5015 15.5Z" fill="#747FA6"/>
</svg>
