<svg xmlns="http://www.w3.org/2000/svg" width="21" height="21" fill="none"><g clip-path="url(#a)"><path d="M13.833 6.791a1.104 1.104 0 0 1-1.11-1.1c0-.608.496-1.1 1.11-1.1h5.556c.614 0 1.111.492 1.111 1.1v5.5c0 .609-.497 1.1-1.111 1.1a1.104 1.104 0 0 1-1.111-1.1V8.348l-5.882 5.82c-.434.43-1.136.43-1.57 0l-3.69-3.62-4.74 4.72c-.433.43-1.137.43-1.57 0a1.09 1.09 0 0 1 0-1.553l5.556-5.5a1.116 1.116 0 0 1 1.57 0l3.66 3.62 5.093-5.075-2.872.031Z" fill="#384263"/></g><defs><clipPath id="a"><path fill="#fff" transform="translate(.5 .5)" d="M0 0h20v20H0z"/></clipPath></defs></svg>