<svg width="381" height="116" viewBox="0 0 381 116" fill="none" xmlns="http://www.w3.org/2000/svg">
<path d="M58.963 104V97.988H60.385L62.32 102.884L64.264 97.988H65.686V104H64.777V98.879L62.716 104H61.924L59.863 98.879V104H58.963ZM68.4154 104.09C68.1034 104.09 67.8274 104.042 67.5874 103.946C67.3534 103.844 67.1704 103.7 67.0384 103.514C66.9064 103.322 66.8404 103.091 66.8404 102.821C66.8404 102.551 66.9064 102.329 67.0384 102.155C67.1704 101.975 67.3564 101.834 67.5964 101.732C67.8364 101.624 68.1094 101.552 68.4154 101.516L69.9094 101.336C69.8734 101.018 69.7534 100.784 69.5494 100.634C69.3454 100.484 69.0934 100.409 68.7934 100.409C68.5894 100.409 68.3764 100.451 68.1544 100.535C67.9384 100.613 67.7074 100.739 67.4614 100.913L67.1464 100.274C67.3804 100.088 67.6384 99.944 67.9204 99.842C68.2084 99.734 68.5054 99.68 68.8114 99.68C69.4534 99.68 69.9394 99.827 70.2694 100.121C70.6054 100.409 70.7734 100.844 70.7734 101.426V104H69.9544V103.388C69.7984 103.622 69.5884 103.799 69.3244 103.919C69.0664 104.033 68.7634 104.09 68.4154 104.09ZM68.6134 103.37C68.8954 103.37 69.1324 103.316 69.3244 103.208C69.5224 103.094 69.6694 102.944 69.7654 102.758C69.8674 102.572 69.9184 102.377 69.9184 102.173V101.984L68.6584 102.146C68.3464 102.188 68.1094 102.257 67.9474 102.353C67.7854 102.443 67.7044 102.59 67.7044 102.794C67.7044 102.98 67.7854 103.124 67.9474 103.226C68.1094 103.322 68.3314 103.37 68.6134 103.37ZM71.2475 104L72.8675 101.813L71.3375 99.77H72.3185L73.4075 101.291L74.5055 99.77H75.4865L73.9565 101.813L75.5765 104H74.5955L73.4075 102.389L72.2285 104H71.2475ZM78.6856 104V97.988H79.5856V103.199H82.4026V104H78.6856ZM85.2702 104.09C84.8382 104.09 84.4542 104 84.1182 103.82C83.7822 103.634 83.5212 103.376 83.3352 103.046C83.1492 102.716 83.0562 102.329 83.0562 101.885C83.0562 101.441 83.1492 101.054 83.3352 100.724C83.5212 100.394 83.7822 100.139 84.1182 99.959C84.4542 99.773 84.8382 99.68 85.2702 99.68C85.7082 99.68 86.0922 99.773 86.4222 99.959C86.7582 100.139 87.0192 100.394 87.2052 100.724C87.3972 101.054 87.4932 101.441 87.4932 101.885C87.4932 102.329 87.3972 102.716 87.2052 103.046C87.0192 103.376 86.7582 103.634 86.4222 103.82C86.0922 104 85.7082 104.09 85.2702 104.09ZM85.2702 103.343C85.5402 103.343 85.7772 103.286 85.9812 103.172C86.1852 103.052 86.3412 102.884 86.4492 102.668C86.5632 102.446 86.6202 102.185 86.6202 101.885C86.6202 101.585 86.5632 101.327 86.4492 101.111C86.3412 100.889 86.1852 100.718 85.9812 100.598C85.7772 100.478 85.5402 100.418 85.2702 100.418C85.0002 100.418 84.7632 100.478 84.5592 100.598C84.3612 100.718 84.2052 100.889 84.0912 101.111C83.9772 101.327 83.9202 101.585 83.9202 101.885C83.9202 102.185 83.9772 102.446 84.0912 102.668C84.2052 102.884 84.3612 103.052 84.5592 103.172C84.7632 103.286 85.0002 103.343 85.2702 103.343ZM90.0928 104.09C89.7688 104.09 89.4658 104.042 89.1838 103.946C88.9018 103.844 88.6288 103.7 88.3648 103.514L88.7158 102.848C88.9798 103.022 89.2228 103.154 89.4448 103.244C89.6728 103.334 89.8948 103.379 90.1108 103.379C90.4168 103.379 90.6448 103.334 90.7948 103.244C90.9508 103.148 91.0288 103.007 91.0288 102.821C91.0288 102.665 90.9808 102.551 90.8848 102.479C90.7948 102.401 90.6328 102.341 90.3988 102.299L89.6788 102.164C89.2888 102.092 88.9948 101.963 88.7968 101.777C88.5988 101.585 88.4998 101.339 88.4998 101.039C88.4998 100.793 88.5598 100.568 88.6798 100.364C88.8058 100.154 88.9918 99.989 89.2378 99.869C89.4838 99.743 89.7928 99.68 90.1648 99.68C90.4708 99.68 90.7588 99.725 91.0288 99.815C91.3048 99.905 91.5508 100.028 91.7668 100.184L91.4248 100.823C91.2388 100.697 91.0408 100.595 90.8308 100.517C90.6268 100.433 90.4168 100.391 90.2008 100.391C89.9428 100.391 89.7388 100.436 89.5888 100.526C89.4388 100.61 89.3638 100.748 89.3638 100.94C89.3638 101.06 89.4088 101.156 89.4988 101.228C89.5888 101.3 89.7418 101.354 89.9578 101.39L90.6688 101.525C91.0648 101.603 91.3678 101.735 91.5778 101.921C91.7938 102.107 91.9018 102.377 91.9018 102.731C91.9018 103.127 91.7488 103.454 91.4428 103.712C91.1368 103.964 90.6868 104.09 90.0928 104.09ZM94.5049 104.09C94.1809 104.09 93.8779 104.042 93.5959 103.946C93.3139 103.844 93.0409 103.7 92.7769 103.514L93.1279 102.848C93.3919 103.022 93.6349 103.154 93.8569 103.244C94.0849 103.334 94.3069 103.379 94.5229 103.379C94.8289 103.379 95.0569 103.334 95.2069 103.244C95.3629 103.148 95.4409 103.007 95.4409 102.821C95.4409 102.665 95.3929 102.551 95.2969 102.479C95.2069 102.401 95.0449 102.341 94.8109 102.299L94.0909 102.164C93.7009 102.092 93.4069 101.963 93.2089 101.777C93.0109 101.585 92.9119 101.339 92.9119 101.039C92.9119 100.793 92.9719 100.568 93.0919 100.364C93.2179 100.154 93.4039 99.989 93.6499 99.869C93.8959 99.743 94.2049 99.68 94.5769 99.68C94.8829 99.68 95.1709 99.725 95.4409 99.815C95.7169 99.905 95.9629 100.028 96.1789 100.184L95.8369 100.823C95.6509 100.697 95.4529 100.595 95.2429 100.517C95.0389 100.433 94.8289 100.391 94.6129 100.391C94.3549 100.391 94.1509 100.436 94.0009 100.526C93.8509 100.61 93.7759 100.748 93.7759 100.94C93.7759 101.06 93.8209 101.156 93.9109 101.228C94.0009 101.3 94.1539 101.354 94.3699 101.39L95.0809 101.525C95.4769 101.603 95.7799 101.735 95.9899 101.921C96.2059 102.107 96.3139 102.377 96.3139 102.731C96.3139 103.127 96.1609 103.454 95.8549 103.712C95.5489 103.964 95.0989 104.09 94.5049 104.09Z" fill="#C75E4B"/>
<line x1="33.5" y1="0.5" x2="33.5" y2="115.5" stroke="#20224E"/>
<line x1="29" y1="108.5" x2="38" y2="108.5" stroke="#20224E"/>
<line x1="381" y1="57.5" x2="33" y2="57.5" stroke="#20224E"/>
<path d="M0.727621 109.268V108.584H3.16662V109.268H0.727621ZM5.0941 112.4L5.3011 111.482C5.0791 111.416 4.8631 111.326 4.6531 111.212C4.4491 111.098 4.2451 110.954 4.0411 110.78L4.4011 110.069C4.5931 110.225 4.7791 110.354 4.9591 110.456C5.1391 110.552 5.3161 110.63 5.4901 110.69L5.9221 108.782L5.7331 108.746C5.1991 108.644 4.8121 108.461 4.5721 108.197C4.3381 107.933 4.2211 107.612 4.2211 107.234C4.2211 106.898 4.2961 106.592 4.4461 106.316C4.5961 106.04 4.8271 105.818 5.1391 105.65C5.4511 105.482 5.8441 105.398 6.3181 105.398C6.3841 105.398 6.4471 105.401 6.5071 105.407C6.5731 105.407 6.6391 105.41 6.7051 105.416L6.8941 104.588H7.4341L7.2181 105.515C7.4101 105.563 7.5961 105.635 7.7761 105.731C7.9621 105.827 8.1421 105.944 8.3161 106.082L7.9471 106.784C7.7911 106.676 7.6381 106.583 7.4881 106.505C7.3441 106.421 7.1941 106.352 7.0381 106.298L6.6421 108.035L6.9751 108.098C7.5031 108.194 7.8871 108.395 8.1271 108.701C8.3731 109.001 8.4961 109.337 8.4961 109.709C8.4961 110.273 8.2981 110.729 7.9021 111.077C7.5121 111.419 6.9481 111.59 6.2101 111.59C6.1381 111.59 6.0691 111.587 6.0031 111.581C5.9431 111.575 5.8831 111.569 5.8231 111.563L5.6341 112.4H5.0941ZM6.0031 110.798C6.0391 110.804 6.0721 110.807 6.1021 110.807C6.1381 110.807 6.1741 110.807 6.2101 110.807C6.6481 110.807 6.9841 110.72 7.2181 110.546C7.4521 110.366 7.5691 110.117 7.5691 109.799C7.5691 109.577 7.4971 109.391 7.3531 109.241C7.2091 109.085 6.9991 108.983 6.7231 108.935L6.4441 108.881L6.0031 110.798ZM6.1201 107.936L6.5251 106.19C6.4951 106.184 6.4651 106.181 6.4351 106.181C6.4051 106.181 6.3721 106.181 6.3361 106.181C5.9401 106.181 5.6401 106.265 5.4361 106.433C5.2381 106.601 5.1391 106.829 5.1391 107.117C5.1391 107.339 5.2081 107.513 5.3461 107.639C5.4901 107.759 5.6971 107.846 5.9671 107.9L6.1201 107.936ZM11.5003 111.59C11.1823 111.59 10.8973 111.56 10.6453 111.5C10.3993 111.446 10.1743 111.359 9.97027 111.239C9.76627 111.113 9.56527 110.96 9.36727 110.78L9.71827 110.141C10.0183 110.393 10.3033 110.573 10.5733 110.681C10.8493 110.789 11.1283 110.843 11.4103 110.843C11.8483 110.843 12.1903 110.732 12.4363 110.51C12.6823 110.282 12.8053 109.97 12.8053 109.574C12.8053 109.178 12.6823 108.869 12.4363 108.647C12.1903 108.419 11.8483 108.305 11.4103 108.305C11.1163 108.305 10.8673 108.365 10.6633 108.485C10.4653 108.599 10.3273 108.767 10.2493 108.989L9.47527 108.845L10.0873 105.398H13.2823V106.136H10.7713L10.4383 107.945C10.5823 107.831 10.7533 107.747 10.9513 107.693C11.1493 107.633 11.3593 107.603 11.5813 107.603C12.0373 107.603 12.4243 107.687 12.7423 107.855C13.0603 108.017 13.3033 108.245 13.4713 108.539C13.6453 108.833 13.7323 109.172 13.7323 109.556C13.7323 109.94 13.6423 110.285 13.4623 110.591C13.2823 110.897 13.0243 111.14 12.6883 111.32C12.3583 111.5 11.9623 111.59 11.5003 111.59ZM17.0536 111.59C16.5256 111.59 16.0786 111.458 15.7126 111.194C15.3466 110.924 15.0706 110.558 14.8846 110.096C14.6986 109.628 14.6056 109.094 14.6056 108.494C14.6056 107.894 14.6986 107.363 14.8846 106.901C15.0706 106.433 15.3466 106.067 15.7126 105.803C16.0786 105.533 16.5256 105.398 17.0536 105.398C17.5876 105.398 18.0346 105.533 18.3946 105.803C18.7606 106.067 19.0366 106.433 19.2226 106.901C19.4146 107.363 19.5106 107.894 19.5106 108.494C19.5106 109.094 19.4146 109.628 19.2226 110.096C19.0366 110.558 18.7606 110.924 18.3946 111.194C18.0346 111.458 17.5876 111.59 17.0536 111.59ZM17.0536 110.843C17.3536 110.843 17.6176 110.759 17.8456 110.591C18.0796 110.417 18.2596 110.156 18.3856 109.808C18.5176 109.46 18.5836 109.022 18.5836 108.494C18.5836 107.96 18.5176 107.519 18.3856 107.171C18.2596 106.823 18.0796 106.565 17.8456 106.397C17.6176 106.223 17.3536 106.136 17.0536 106.136C16.7596 106.136 16.4956 106.223 16.2616 106.397C16.0336 106.571 15.8536 106.832 15.7216 107.18C15.5896 107.522 15.5236 107.96 15.5236 108.494C15.5236 109.022 15.5896 109.46 15.7216 109.808C15.8536 110.156 16.0336 110.417 16.2616 110.591C16.4956 110.759 16.7596 110.843 17.0536 110.843ZM22.828 111.59C22.3 111.59 21.853 111.458 21.487 111.194C21.121 110.924 20.845 110.558 20.659 110.096C20.473 109.628 20.38 109.094 20.38 108.494C20.38 107.894 20.473 107.363 20.659 106.901C20.845 106.433 21.121 106.067 21.487 105.803C21.853 105.533 22.3 105.398 22.828 105.398C23.362 105.398 23.809 105.533 24.169 105.803C24.535 106.067 24.811 106.433 24.997 106.901C25.189 107.363 25.285 107.894 25.285 108.494C25.285 109.094 25.189 109.628 24.997 110.096C24.811 110.558 24.535 110.924 24.169 111.194C23.809 111.458 23.362 111.59 22.828 111.59ZM22.828 110.843C23.128 110.843 23.392 110.759 23.62 110.591C23.854 110.417 24.034 110.156 24.16 109.808C24.292 109.46 24.358 109.022 24.358 108.494C24.358 107.96 24.292 107.519 24.16 107.171C24.034 106.823 23.854 106.565 23.62 106.397C23.392 106.223 23.128 106.136 22.828 106.136C22.534 106.136 22.27 106.223 22.036 106.397C21.808 106.571 21.628 106.832 21.496 107.18C21.364 107.522 21.298 107.96 21.298 108.494C21.298 109.022 21.364 109.46 21.496 109.808C21.628 110.156 21.808 110.417 22.036 110.591C22.27 110.759 22.534 110.843 22.828 110.843Z" fill="#747FA6"/>
<path d="M276.711 9V2.988H278.133L280.068 7.884L282.012 2.988H283.434V9H282.525V3.879L280.464 9H279.672L277.611 3.879V9H276.711ZM286.163 9.09C285.851 9.09 285.575 9.042 285.335 8.946C285.101 8.844 284.918 8.7 284.786 8.514C284.654 8.322 284.588 8.091 284.588 7.821C284.588 7.551 284.654 7.329 284.786 7.155C284.918 6.975 285.104 6.834 285.344 6.732C285.584 6.624 285.857 6.552 286.163 6.516L287.657 6.336C287.621 6.018 287.501 5.784 287.297 5.634C287.093 5.484 286.841 5.409 286.541 5.409C286.337 5.409 286.124 5.451 285.902 5.535C285.686 5.613 285.455 5.739 285.209 5.913L284.894 5.274C285.128 5.088 285.386 4.944 285.668 4.842C285.956 4.734 286.253 4.68 286.559 4.68C287.201 4.68 287.687 4.827 288.017 5.121C288.353 5.409 288.521 5.844 288.521 6.426V9H287.702V8.388C287.546 8.622 287.336 8.799 287.072 8.919C286.814 9.033 286.511 9.09 286.163 9.09ZM286.361 8.37C286.643 8.37 286.88 8.316 287.072 8.208C287.27 8.094 287.417 7.944 287.513 7.758C287.615 7.572 287.666 7.377 287.666 7.173V6.984L286.406 7.146C286.094 7.188 285.857 7.257 285.695 7.353C285.533 7.443 285.452 7.59 285.452 7.794C285.452 7.98 285.533 8.124 285.695 8.226C285.857 8.322 286.079 8.37 286.361 8.37ZM288.996 9L290.616 6.813L289.086 4.77H290.067L291.156 6.291L292.254 4.77H293.235L291.705 6.813L293.325 9H292.344L291.156 7.389L289.977 9H288.996ZM296.434 9V2.988H298.828C299.566 2.988 300.121 3.144 300.493 3.456C300.865 3.768 301.051 4.242 301.051 4.878C301.051 5.514 300.865 5.988 300.493 6.3C300.121 6.606 299.566 6.759 298.828 6.759H297.334V9H296.434ZM297.334 6.003H298.657C299.137 6.003 299.503 5.919 299.755 5.751C300.007 5.583 300.133 5.292 300.133 4.878C300.133 4.458 300.01 4.164 299.764 3.996C299.524 3.828 299.155 3.744 298.657 3.744H297.334V6.003ZM302.163 9V4.77H302.982V5.508C303.09 5.244 303.246 5.046 303.45 4.914C303.66 4.782 303.894 4.716 304.152 4.716C304.236 4.716 304.311 4.722 304.377 4.734C304.449 4.74 304.506 4.752 304.548 4.77V5.571C304.464 5.553 304.38 5.541 304.296 5.535C304.218 5.523 304.14 5.517 304.062 5.517C303.762 5.517 303.51 5.643 303.306 5.895C303.108 6.141 303.009 6.495 303.009 6.957V9H302.163ZM307.211 9.09C306.779 9.09 306.395 9 306.059 8.82C305.723 8.634 305.462 8.376 305.276 8.046C305.09 7.716 304.997 7.329 304.997 6.885C304.997 6.441 305.09 6.054 305.276 5.724C305.462 5.394 305.723 5.139 306.059 4.959C306.395 4.773 306.779 4.68 307.211 4.68C307.649 4.68 308.033 4.773 308.363 4.959C308.699 5.139 308.96 5.394 309.146 5.724C309.338 6.054 309.434 6.441 309.434 6.885C309.434 7.329 309.338 7.716 309.146 8.046C308.96 8.376 308.699 8.634 308.363 8.82C308.033 9 307.649 9.09 307.211 9.09ZM307.211 8.343C307.481 8.343 307.718 8.286 307.922 8.172C308.126 8.052 308.282 7.884 308.39 7.668C308.504 7.446 308.561 7.185 308.561 6.885C308.561 6.585 308.504 6.327 308.39 6.111C308.282 5.889 308.126 5.718 307.922 5.598C307.718 5.478 307.481 5.418 307.211 5.418C306.941 5.418 306.704 5.478 306.5 5.598C306.302 5.718 306.146 5.889 306.032 6.111C305.918 6.327 305.861 6.585 305.861 6.885C305.861 7.185 305.918 7.446 306.032 7.668C306.146 7.884 306.302 8.052 306.5 8.172C306.704 8.286 306.941 8.343 307.211 8.343ZM311.007 9V5.49H310.08V4.77H311.007V4.212C311.007 3.774 311.112 3.453 311.322 3.249C311.538 3.039 311.868 2.934 312.312 2.934C312.426 2.934 312.543 2.94 312.663 2.952C312.783 2.964 312.879 2.982 312.951 3.006V3.69C312.897 3.678 312.822 3.669 312.726 3.663C312.636 3.657 312.555 3.654 312.483 3.654C312.267 3.654 312.108 3.708 312.006 3.816C311.904 3.918 311.853 4.071 311.853 4.275V4.77H312.951V5.49H311.853V9H311.007ZM313.844 9V4.77H314.69V9H313.844ZM314.267 3.897C314.111 3.897 313.985 3.852 313.889 3.762C313.799 3.672 313.754 3.555 313.754 3.411C313.754 3.267 313.799 3.15 313.889 3.06C313.985 2.97 314.111 2.925 314.267 2.925C314.417 2.925 314.54 2.97 314.636 3.06C314.732 3.15 314.78 3.267 314.78 3.411C314.78 3.555 314.732 3.672 314.636 3.762C314.54 3.852 314.417 3.897 314.267 3.897ZM317.814 9.054C317.37 9.054 317.04 8.952 316.824 8.748C316.614 8.538 316.509 8.214 316.509 7.776V5.49H315.582V4.77H316.509V3.564H317.355V4.77H318.453V5.49H317.355V7.704C317.355 7.914 317.406 8.07 317.508 8.172C317.61 8.274 317.769 8.325 317.985 8.325C318.057 8.325 318.138 8.322 318.228 8.316C318.324 8.31 318.399 8.301 318.453 8.289V8.973C318.381 8.997 318.285 9.015 318.165 9.027C318.045 9.045 317.928 9.054 317.814 9.054ZM324.222 9.09C323.442 9.09 322.824 8.883 322.368 8.469C321.918 8.055 321.693 7.416 321.693 6.552V2.988H322.593V6.552C322.593 6.954 322.656 7.284 322.782 7.542C322.914 7.8 323.1 7.989 323.34 8.109C323.586 8.229 323.88 8.289 324.222 8.289C324.564 8.289 324.855 8.229 325.095 8.109C325.341 7.989 325.527 7.8 325.653 7.542C325.785 7.284 325.851 6.954 325.851 6.552V2.988H326.76V6.552C326.76 7.416 326.532 8.055 326.076 8.469C325.626 8.883 325.008 9.09 324.222 9.09ZM328.135 9V4.77H328.954V5.4C329.08 5.178 329.26 5.004 329.494 4.878C329.734 4.746 330.025 4.68 330.367 4.68C330.853 4.68 331.234 4.818 331.51 5.094C331.786 5.37 331.924 5.802 331.924 6.39V9H331.069V6.498C331.069 6.12 330.991 5.847 330.835 5.679C330.685 5.505 330.454 5.418 330.142 5.418C329.776 5.418 329.491 5.544 329.287 5.796C329.083 6.048 328.981 6.393 328.981 6.831V9H328.135ZM333.268 9V2.988H334.114V9H333.268ZM335.465 9V4.77H336.311V9H335.465ZM335.888 3.897C335.732 3.897 335.606 3.852 335.51 3.762C335.42 3.672 335.375 3.555 335.375 3.411C335.375 3.267 335.42 3.15 335.51 3.06C335.606 2.97 335.732 2.925 335.888 2.925C336.038 2.925 336.161 2.97 336.257 3.06C336.353 3.15 336.401 3.267 336.401 3.411C336.401 3.555 336.353 3.672 336.257 3.762C336.161 3.852 336.038 3.897 335.888 3.897ZM337.662 9V4.77H338.481V5.328C338.601 5.124 338.766 4.965 338.976 4.851C339.186 4.737 339.441 4.68 339.741 4.68C340.047 4.68 340.305 4.746 340.515 4.878C340.731 5.004 340.893 5.181 341.001 5.409C341.133 5.169 341.319 4.989 341.559 4.869C341.805 4.743 342.09 4.68 342.414 4.68C342.888 4.68 343.263 4.818 343.539 5.094C343.815 5.37 343.953 5.802 343.953 6.39V9H343.098V6.498C343.098 6.12 343.023 5.847 342.873 5.679C342.729 5.505 342.516 5.418 342.234 5.418C341.904 5.418 341.652 5.544 341.478 5.796C341.31 6.048 341.226 6.393 341.226 6.831V9H340.371V6.498C340.371 6.12 340.296 5.847 340.146 5.679C340.002 5.505 339.792 5.418 339.516 5.418C339.186 5.418 338.934 5.544 338.76 5.796C338.592 6.048 338.508 6.393 338.508 6.831V9H337.662ZM345.291 9V4.77H346.137V9H345.291ZM345.714 3.897C345.558 3.897 345.432 3.852 345.336 3.762C345.246 3.672 345.201 3.555 345.201 3.411C345.201 3.267 345.246 3.15 345.336 3.06C345.432 2.97 345.558 2.925 345.714 2.925C345.864 2.925 345.987 2.97 346.083 3.06C346.179 3.15 346.227 3.267 346.227 3.411C346.227 3.555 346.179 3.672 346.083 3.762C345.987 3.852 345.864 3.897 345.714 3.897ZM349.261 9.054C348.817 9.054 348.487 8.952 348.271 8.748C348.061 8.538 347.956 8.214 347.956 7.776V5.49H347.029V4.77H347.956V3.564H348.802V4.77H349.9V5.49H348.802V7.704C348.802 7.914 348.853 8.07 348.955 8.172C349.057 8.274 349.216 8.325 349.432 8.325C349.504 8.325 349.585 8.322 349.675 8.316C349.771 8.31 349.846 8.301 349.9 8.289V8.973C349.828 8.997 349.732 9.015 349.612 9.027C349.492 9.045 349.375 9.054 349.261 9.054ZM352.95 9.09C352.524 9.09 352.14 9.006 351.798 8.838C351.462 8.664 351.195 8.415 350.997 8.091C350.799 7.761 350.7 7.359 350.7 6.885C350.7 6.435 350.793 6.045 350.979 5.715C351.171 5.385 351.426 5.13 351.744 4.95C352.068 4.77 352.428 4.68 352.824 4.68C353.244 4.68 353.604 4.761 353.904 4.923C354.21 5.079 354.447 5.295 354.615 5.571C354.783 5.847 354.867 6.159 354.867 6.507C354.867 6.609 354.852 6.72 354.822 6.84C354.798 6.96 354.762 7.056 354.714 7.128H351.564C351.594 7.392 351.672 7.617 351.798 7.803C351.924 7.989 352.092 8.13 352.302 8.226C352.512 8.316 352.755 8.361 353.031 8.361C353.307 8.361 353.55 8.319 353.76 8.235C353.976 8.151 354.183 8.031 354.381 7.875L354.687 8.505C354.453 8.697 354.189 8.844 353.895 8.946C353.607 9.042 353.292 9.09 352.95 9.09ZM351.564 6.471H353.985C353.991 6.459 353.994 6.447 353.994 6.435C353.994 6.417 353.994 6.399 353.994 6.381C353.994 6.183 353.952 6.012 353.868 5.868C353.784 5.718 353.658 5.601 353.49 5.517C353.322 5.433 353.109 5.391 352.851 5.391C352.647 5.391 352.455 5.436 352.275 5.526C352.101 5.61 351.951 5.733 351.825 5.895C351.705 6.051 351.618 6.243 351.564 6.471ZM357.761 9.09C357.377 9.09 357.032 9 356.726 8.82C356.42 8.64 356.177 8.385 355.997 8.055C355.823 7.725 355.736 7.335 355.736 6.885C355.736 6.429 355.823 6.036 355.997 5.706C356.177 5.376 356.42 5.124 356.726 4.95C357.032 4.77 357.377 4.68 357.761 4.68C358.097 4.68 358.391 4.746 358.643 4.878C358.895 5.004 359.09 5.172 359.228 5.382V2.988H360.083V9H359.264V8.325C359.132 8.553 358.937 8.739 358.679 8.883C358.421 9.021 358.115 9.09 357.761 9.09ZM357.941 8.343C358.199 8.343 358.427 8.286 358.625 8.172C358.823 8.052 358.979 7.884 359.093 7.668C359.207 7.446 359.264 7.185 359.264 6.885C359.264 6.585 359.207 6.327 359.093 6.111C358.979 5.889 358.823 5.718 358.625 5.598C358.427 5.478 358.199 5.418 357.941 5.418C357.683 5.418 357.452 5.478 357.248 5.598C357.05 5.718 356.894 5.889 356.78 6.111C356.666 6.327 356.609 6.585 356.609 6.885C356.609 7.185 356.666 7.446 356.78 7.668C356.894 7.884 357.05 8.052 357.248 8.172C357.446 8.286 357.677 8.343 357.941 8.343Z" fill="#46956A"/>
<path d="M147.711 45V38.988H150.492C150.966 38.988 151.359 39.042 151.671 39.15C151.989 39.252 152.229 39.417 152.391 39.645C152.553 39.873 152.634 40.173 152.634 40.545C152.634 40.899 152.559 41.187 152.409 41.409C152.265 41.631 152.022 41.793 151.68 41.895C152.082 41.991 152.37 42.159 152.544 42.399C152.724 42.639 152.814 42.954 152.814 43.344C152.814 43.938 152.622 44.364 152.238 44.622C151.86 44.874 151.278 45 150.492 45H147.711ZM148.611 44.235H150.366C150.744 44.235 151.044 44.202 151.266 44.136C151.488 44.07 151.647 43.965 151.743 43.821C151.839 43.677 151.887 43.488 151.887 43.254C151.887 43.014 151.839 42.822 151.743 42.678C151.647 42.534 151.488 42.429 151.266 42.363C151.044 42.297 150.744 42.264 150.366 42.264H148.611V44.235ZM148.611 41.535H150.366C150.864 41.535 151.212 41.469 151.41 41.337C151.608 41.205 151.707 40.974 151.707 40.644C151.707 40.308 151.608 40.074 151.41 39.942C151.212 39.81 150.864 39.744 150.366 39.744H148.611V41.535ZM153.924 45V40.77H154.743V41.508C154.851 41.244 155.007 41.046 155.211 40.914C155.421 40.782 155.655 40.716 155.913 40.716C155.997 40.716 156.072 40.722 156.138 40.734C156.21 40.74 156.267 40.752 156.309 40.77V41.571C156.225 41.553 156.141 41.541 156.057 41.535C155.979 41.523 155.901 41.517 155.823 41.517C155.523 41.517 155.271 41.643 155.067 41.895C154.869 42.141 154.77 42.495 154.77 42.957V45H153.924ZM159.007 45.09C158.581 45.09 158.197 45.006 157.855 44.838C157.519 44.664 157.252 44.415 157.054 44.091C156.856 43.761 156.757 43.359 156.757 42.885C156.757 42.435 156.85 42.045 157.036 41.715C157.228 41.385 157.483 41.13 157.801 40.95C158.125 40.77 158.485 40.68 158.881 40.68C159.301 40.68 159.661 40.761 159.961 40.923C160.267 41.079 160.504 41.295 160.672 41.571C160.84 41.847 160.924 42.159 160.924 42.507C160.924 42.609 160.909 42.72 160.879 42.84C160.855 42.96 160.819 43.056 160.771 43.128H157.621C157.651 43.392 157.729 43.617 157.855 43.803C157.981 43.989 158.149 44.13 158.359 44.226C158.569 44.316 158.812 44.361 159.088 44.361C159.364 44.361 159.607 44.319 159.817 44.235C160.033 44.151 160.24 44.031 160.438 43.875L160.744 44.505C160.51 44.697 160.246 44.844 159.952 44.946C159.664 45.042 159.349 45.09 159.007 45.09ZM157.621 42.471H160.042C160.048 42.459 160.051 42.447 160.051 42.435C160.051 42.417 160.051 42.399 160.051 42.381C160.051 42.183 160.009 42.012 159.925 41.868C159.841 41.718 159.715 41.601 159.547 41.517C159.379 41.433 159.166 41.391 158.908 41.391C158.704 41.391 158.512 41.436 158.332 41.526C158.158 41.61 158.008 41.733 157.882 41.895C157.762 42.051 157.675 42.243 157.621 42.471ZM163.369 45.09C163.057 45.09 162.781 45.042 162.541 44.946C162.307 44.844 162.124 44.7 161.992 44.514C161.86 44.322 161.794 44.091 161.794 43.821C161.794 43.551 161.86 43.329 161.992 43.155C162.124 42.975 162.31 42.834 162.55 42.732C162.79 42.624 163.063 42.552 163.369 42.516L164.863 42.336C164.827 42.018 164.707 41.784 164.503 41.634C164.299 41.484 164.047 41.409 163.747 41.409C163.543 41.409 163.33 41.451 163.108 41.535C162.892 41.613 162.661 41.739 162.415 41.913L162.1 41.274C162.334 41.088 162.592 40.944 162.874 40.842C163.162 40.734 163.459 40.68 163.765 40.68C164.407 40.68 164.893 40.827 165.223 41.121C165.559 41.409 165.727 41.844 165.727 42.426V45H164.908V44.388C164.752 44.622 164.542 44.799 164.278 44.919C164.02 45.033 163.717 45.09 163.369 45.09ZM163.567 44.37C163.849 44.37 164.086 44.316 164.278 44.208C164.476 44.094 164.623 43.944 164.719 43.758C164.821 43.572 164.872 43.377 164.872 43.173V42.984L163.612 43.146C163.3 43.188 163.063 43.257 162.901 43.353C162.739 43.443 162.658 43.59 162.658 43.794C162.658 43.98 162.739 44.124 162.901 44.226C163.063 44.322 163.285 44.37 163.567 44.37ZM167.064 45V38.988H167.91V42.759L169.908 40.77H170.943L169.179 42.498L171.033 45H169.998L168.585 43.083L167.91 43.74V45H167.064ZM170.969 42.768V42.084H173.408V42.768H170.969ZM174.553 45V38.988H178.72V39.762H175.453V41.535H178.45V42.273H175.453V44.226H178.72V45H174.553ZM181.111 45L179.419 40.77H180.328L181.579 44.118L182.83 40.77H183.748L182.047 45H181.111ZM186.289 45.09C185.863 45.09 185.479 45.006 185.137 44.838C184.801 44.664 184.534 44.415 184.336 44.091C184.138 43.761 184.039 43.359 184.039 42.885C184.039 42.435 184.132 42.045 184.318 41.715C184.51 41.385 184.765 41.13 185.083 40.95C185.407 40.77 185.767 40.68 186.163 40.68C186.583 40.68 186.943 40.761 187.243 40.923C187.549 41.079 187.786 41.295 187.954 41.571C188.122 41.847 188.206 42.159 188.206 42.507C188.206 42.609 188.191 42.72 188.161 42.84C188.137 42.96 188.101 43.056 188.053 43.128H184.903C184.933 43.392 185.011 43.617 185.137 43.803C185.263 43.989 185.431 44.13 185.641 44.226C185.851 44.316 186.094 44.361 186.37 44.361C186.646 44.361 186.889 44.319 187.099 44.235C187.315 44.151 187.522 44.031 187.72 43.875L188.026 44.505C187.792 44.697 187.528 44.844 187.234 44.946C186.946 45.042 186.631 45.09 186.289 45.09ZM184.903 42.471H187.324C187.33 42.459 187.333 42.447 187.333 42.435C187.333 42.417 187.333 42.399 187.333 42.381C187.333 42.183 187.291 42.012 187.207 41.868C187.123 41.718 186.997 41.601 186.829 41.517C186.661 41.433 186.448 41.391 186.19 41.391C185.986 41.391 185.794 41.436 185.614 41.526C185.44 41.61 185.29 41.733 185.164 41.895C185.044 42.051 184.957 42.243 184.903 42.471ZM189.309 45V40.77H190.128V41.4C190.254 41.178 190.434 41.004 190.668 40.878C190.908 40.746 191.199 40.68 191.541 40.68C192.027 40.68 192.408 40.818 192.684 41.094C192.96 41.37 193.098 41.802 193.098 42.39V45H192.243V42.498C192.243 42.12 192.165 41.847 192.009 41.679C191.859 41.505 191.628 41.418 191.316 41.418C190.95 41.418 190.665 41.544 190.461 41.796C190.257 42.048 190.155 42.393 190.155 42.831V45H189.309ZM197.432 45.9L197.639 44.982C197.417 44.916 197.201 44.826 196.991 44.712C196.787 44.598 196.583 44.454 196.379 44.28L196.739 43.569C196.931 43.725 197.117 43.854 197.297 43.956C197.477 44.052 197.654 44.13 197.828 44.19L198.26 42.282L198.071 42.246C197.537 42.144 197.15 41.961 196.91 41.697C196.676 41.433 196.559 41.112 196.559 40.734C196.559 40.398 196.634 40.092 196.784 39.816C196.934 39.54 197.165 39.318 197.477 39.15C197.789 38.982 198.182 38.898 198.656 38.898C198.722 38.898 198.785 38.901 198.845 38.907C198.911 38.907 198.977 38.91 199.043 38.916L199.232 38.088H199.772L199.556 39.015C199.748 39.063 199.934 39.135 200.114 39.231C200.3 39.327 200.48 39.444 200.654 39.582L200.285 40.284C200.129 40.176 199.976 40.083 199.826 40.005C199.682 39.921 199.532 39.852 199.376 39.798L198.98 41.535L199.313 41.598C199.841 41.694 200.225 41.895 200.465 42.201C200.711 42.501 200.834 42.837 200.834 43.209C200.834 43.773 200.636 44.229 200.24 44.577C199.85 44.919 199.286 45.09 198.548 45.09C198.476 45.09 198.407 45.087 198.341 45.081C198.281 45.075 198.221 45.069 198.161 45.063L197.972 45.9H197.432ZM198.341 44.298C198.377 44.304 198.41 44.307 198.44 44.307C198.476 44.307 198.512 44.307 198.548 44.307C198.986 44.307 199.322 44.22 199.556 44.046C199.79 43.866 199.907 43.617 199.907 43.299C199.907 43.077 199.835 42.891 199.691 42.741C199.547 42.585 199.337 42.483 199.061 42.435L198.782 42.381L198.341 44.298ZM198.458 41.436L198.863 39.69C198.833 39.684 198.803 39.681 198.773 39.681C198.743 39.681 198.71 39.681 198.674 39.681C198.278 39.681 197.978 39.765 197.774 39.933C197.576 40.101 197.477 40.329 197.477 40.617C197.477 40.839 197.546 41.013 197.684 41.139C197.828 41.259 198.035 41.346 198.305 41.4L198.458 41.436ZM203.172 45V39.96L201.876 40.671L201.525 39.978L203.406 38.988H204.072V45H203.172ZM207.668 45.09C207.14 45.09 206.693 44.958 206.327 44.694C205.961 44.424 205.685 44.058 205.499 43.596C205.313 43.128 205.22 42.594 205.22 41.994C205.22 41.394 205.313 40.863 205.499 40.401C205.685 39.933 205.961 39.567 206.327 39.303C206.693 39.033 207.14 38.898 207.668 38.898C208.202 38.898 208.649 39.033 209.009 39.303C209.375 39.567 209.651 39.933 209.837 40.401C210.029 40.863 210.125 41.394 210.125 41.994C210.125 42.594 210.029 43.128 209.837 43.596C209.651 44.058 209.375 44.424 209.009 44.694C208.649 44.958 208.202 45.09 207.668 45.09ZM207.668 44.343C207.968 44.343 208.232 44.259 208.46 44.091C208.694 43.917 208.874 43.656 209 43.308C209.132 42.96 209.198 42.522 209.198 41.994C209.198 41.46 209.132 41.019 209 40.671C208.874 40.323 208.694 40.065 208.46 39.897C208.232 39.723 207.968 39.636 207.668 39.636C207.374 39.636 207.11 39.723 206.876 39.897C206.648 40.071 206.468 40.332 206.336 40.68C206.204 41.022 206.138 41.46 206.138 41.994C206.138 42.522 206.204 42.96 206.336 43.308C206.468 43.656 206.648 43.917 206.876 44.091C207.11 44.259 207.374 44.343 207.668 44.343ZM213.128 45.09C212.81 45.09 212.525 45.06 212.273 45C212.027 44.946 211.802 44.859 211.598 44.739C211.394 44.613 211.193 44.46 210.995 44.28L211.346 43.641C211.646 43.893 211.931 44.073 212.201 44.181C212.477 44.289 212.756 44.343 213.038 44.343C213.476 44.343 213.818 44.232 214.064 44.01C214.31 43.782 214.433 43.47 214.433 43.074C214.433 42.678 214.31 42.369 214.064 42.147C213.818 41.919 213.476 41.805 213.038 41.805C212.744 41.805 212.495 41.865 212.291 41.985C212.093 42.099 211.955 42.267 211.877 42.489L211.103 42.345L211.715 38.898H214.91V39.636H212.399L212.066 41.445C212.21 41.331 212.381 41.247 212.579 41.193C212.777 41.133 212.987 41.103 213.209 41.103C213.665 41.103 214.052 41.187 214.37 41.355C214.688 41.517 214.931 41.745 215.099 42.039C215.273 42.333 215.36 42.672 215.36 43.056C215.36 43.44 215.27 43.785 215.09 44.091C214.91 44.397 214.652 44.64 214.316 44.82C213.986 45 213.59 45.09 213.128 45.09Z" fill="#747FA6"/>
<path d="M216.177 47.8232C216.079 47.7256 215.921 47.7256 215.823 47.8232C215.726 47.9209 215.726 48.0791 215.823 48.1768L216.177 47.8232ZM221.657 53.9069C221.795 53.9069 221.907 53.7949 221.907 53.6569L221.907 51.4069C221.907 51.2688 221.795 51.1569 221.657 51.1569C221.519 51.1569 221.407 51.2688 221.407 51.4069L221.407 53.4069L219.407 53.4069C219.269 53.4069 219.157 53.5188 219.157 53.6569C219.157 53.7949 219.269 53.9069 219.407 53.9069L221.657 53.9069ZM215.823 48.1768L221.48 53.8336L221.834 53.4801L216.177 47.8232L215.823 48.1768Z" fill="#747FA6"/>
<line x1="41.5" y1="108.5" x2="113.5" y2="108.5" stroke="#C75E4B" stroke-linecap="round" stroke-dasharray="2 2"/>
<path opacity="0.05" d="M186 108H116V58H224.5L186 108Z" fill="#C75E4B"/>
<path opacity="0.05" d="M271 0L225.5 57H271V0Z" fill="#46956A"/>
<path d="M118 108L123 110.887V105.113L118 108ZM185.899 108V108.5H186.144L186.294 108.306L185.899 108ZM225.281 57.235L224.89 56.9229L224.886 56.9286L225.281 57.235ZM271 0L265.624 2.10496L270.135 5.70832L271 0ZM122.5 108.5H185.899V107.5H122.5V108.5ZM186.294 108.306L225.676 57.5415L224.886 56.9286L185.504 107.694L186.294 108.306ZM225.672 57.5471L268.582 3.82804L267.801 3.20392L224.89 56.923L225.672 57.5471Z" fill="#C75E4B"/>
<path d="M271 0L265.624 2.10496L270.135 5.70832L271 0ZM225.672 57.5471L268.582 3.82804L267.801 3.20392L224.891 56.923L225.672 57.5471Z" fill="#46956A"/>
<line x1="115.5" y1="53" x2="115.5" y2="62" stroke="#20224E"/>
<path d="M108.688 73.9L108.895 72.982C108.673 72.916 108.457 72.826 108.247 72.712C108.043 72.598 107.839 72.454 107.635 72.28L107.995 71.569C108.187 71.725 108.373 71.854 108.553 71.956C108.733 72.052 108.91 72.13 109.084 72.19L109.516 70.282L109.327 70.246C108.793 70.144 108.406 69.961 108.166 69.697C107.932 69.433 107.815 69.112 107.815 68.734C107.815 68.398 107.89 68.092 108.04 67.816C108.19 67.54 108.421 67.318 108.733 67.15C109.045 66.982 109.438 66.898 109.912 66.898C109.978 66.898 110.041 66.901 110.101 66.907C110.167 66.907 110.233 66.91 110.299 66.916L110.488 66.088H111.028L110.812 67.015C111.004 67.063 111.19 67.135 111.37 67.231C111.556 67.327 111.736 67.444 111.91 67.582L111.541 68.284C111.385 68.176 111.232 68.083 111.082 68.005C110.938 67.921 110.788 67.852 110.632 67.798L110.236 69.535L110.569 69.598C111.097 69.694 111.481 69.895 111.721 70.201C111.967 70.501 112.09 70.837 112.09 71.209C112.09 71.773 111.892 72.229 111.496 72.577C111.106 72.919 110.542 73.09 109.804 73.09C109.732 73.09 109.663 73.087 109.597 73.081C109.537 73.075 109.477 73.069 109.417 73.063L109.228 73.9H108.688ZM109.597 72.298C109.633 72.304 109.666 72.307 109.696 72.307C109.732 72.307 109.768 72.307 109.804 72.307C110.242 72.307 110.578 72.22 110.812 72.046C111.046 71.866 111.163 71.617 111.163 71.299C111.163 71.077 111.091 70.891 110.947 70.741C110.803 70.585 110.593 70.483 110.317 70.435L110.038 70.381L109.597 72.298ZM109.714 69.436L110.119 67.69C110.089 67.684 110.059 67.681 110.029 67.681C109.999 67.681 109.966 67.681 109.93 67.681C109.534 67.681 109.234 67.765 109.03 67.933C108.832 68.101 108.733 68.329 108.733 68.617C108.733 68.839 108.802 69.013 108.94 69.139C109.084 69.259 109.291 69.346 109.561 69.4L109.714 69.436ZM114.987 73.09C114.603 73.09 114.252 73.021 113.934 72.883C113.622 72.739 113.352 72.538 113.124 72.28L113.466 71.686C113.7 71.908 113.937 72.073 114.177 72.181C114.417 72.289 114.66 72.343 114.906 72.343C115.224 72.343 115.512 72.271 115.77 72.127C116.034 71.977 116.244 71.743 116.4 71.425C116.562 71.107 116.652 70.693 116.67 70.183C116.52 70.399 116.31 70.57 116.04 70.696C115.776 70.822 115.464 70.885 115.104 70.885C114.654 70.885 114.267 70.801 113.943 70.633C113.625 70.465 113.382 70.234 113.214 69.94C113.046 69.646 112.962 69.307 112.962 68.923C112.962 68.539 113.052 68.194 113.232 67.888C113.412 67.582 113.667 67.342 113.997 67.168C114.333 66.988 114.729 66.898 115.185 66.898C115.683 66.898 116.109 66.997 116.463 67.195C116.823 67.393 117.102 67.693 117.3 68.095C117.498 68.497 117.597 69.01 117.597 69.634C117.597 70.324 117.501 70.93 117.309 71.452C117.117 71.968 116.829 72.37 116.445 72.658C116.061 72.946 115.575 73.09 114.987 73.09ZM115.275 70.183C115.713 70.183 116.055 70.072 116.301 69.85C116.547 69.622 116.67 69.31 116.67 68.914C116.61 68.536 116.469 68.23 116.247 67.996C116.025 67.756 115.701 67.636 115.275 67.636C114.843 67.636 114.501 67.75 114.249 67.978C114.003 68.206 113.88 68.515 113.88 68.905C113.88 69.307 114.003 69.622 114.249 69.85C114.501 70.072 114.843 70.183 115.275 70.183ZM120.92 73.09C120.392 73.09 119.945 72.958 119.579 72.694C119.213 72.424 118.937 72.058 118.751 71.596C118.565 71.128 118.472 70.594 118.472 69.994C118.472 69.394 118.565 68.863 118.751 68.401C118.937 67.933 119.213 67.567 119.579 67.303C119.945 67.033 120.392 66.898 120.92 66.898C121.454 66.898 121.901 67.033 122.261 67.303C122.627 67.567 122.903 67.933 123.089 68.401C123.281 68.863 123.377 69.394 123.377 69.994C123.377 70.594 123.281 71.128 123.089 71.596C122.903 72.058 122.627 72.424 122.261 72.694C121.901 72.958 121.454 73.09 120.92 73.09ZM120.92 72.343C121.22 72.343 121.484 72.259 121.712 72.091C121.946 71.917 122.126 71.656 122.252 71.308C122.384 70.96 122.45 70.522 122.45 69.994C122.45 69.46 122.384 69.019 122.252 68.671C122.126 68.323 121.946 68.065 121.712 67.897C121.484 67.723 121.22 67.636 120.92 67.636C120.626 67.636 120.362 67.723 120.128 67.897C119.9 68.071 119.72 68.332 119.588 68.68C119.456 69.022 119.39 69.46 119.39 69.994C119.39 70.522 119.456 70.96 119.588 71.308C119.72 71.656 119.9 71.917 120.128 72.091C120.362 72.259 120.626 72.343 120.92 72.343Z" fill="#747FA6"/>
<line x1="193.5" y1="53" x2="193.5" y2="62" stroke="#20224E"/>
<path d="M183.799 73.9L184.006 72.982C183.784 72.916 183.568 72.826 183.358 72.712C183.154 72.598 182.95 72.454 182.746 72.28L183.106 71.569C183.298 71.725 183.484 71.854 183.664 71.956C183.844 72.052 184.021 72.13 184.195 72.19L184.627 70.282L184.438 70.246C183.904 70.144 183.517 69.961 183.277 69.697C183.043 69.433 182.926 69.112 182.926 68.734C182.926 68.398 183.001 68.092 183.151 67.816C183.301 67.54 183.532 67.318 183.844 67.15C184.156 66.982 184.549 66.898 185.023 66.898C185.089 66.898 185.152 66.901 185.212 66.907C185.278 66.907 185.344 66.91 185.41 66.916L185.599 66.088H186.139L185.923 67.015C186.115 67.063 186.301 67.135 186.481 67.231C186.667 67.327 186.847 67.444 187.021 67.582L186.652 68.284C186.496 68.176 186.343 68.083 186.193 68.005C186.049 67.921 185.899 67.852 185.743 67.798L185.347 69.535L185.68 69.598C186.208 69.694 186.592 69.895 186.832 70.201C187.078 70.501 187.201 70.837 187.201 71.209C187.201 71.773 187.003 72.229 186.607 72.577C186.217 72.919 185.653 73.09 184.915 73.09C184.843 73.09 184.774 73.087 184.708 73.081C184.648 73.075 184.588 73.069 184.528 73.063L184.339 73.9H183.799ZM184.708 72.298C184.744 72.304 184.777 72.307 184.807 72.307C184.843 72.307 184.879 72.307 184.915 72.307C185.353 72.307 185.689 72.22 185.923 72.046C186.157 71.866 186.274 71.617 186.274 71.299C186.274 71.077 186.202 70.891 186.058 70.741C185.914 70.585 185.704 70.483 185.428 70.435L185.149 70.381L184.708 72.298ZM184.825 69.436L185.23 67.69C185.2 67.684 185.17 67.681 185.14 67.681C185.11 67.681 185.077 67.681 185.041 67.681C184.645 67.681 184.345 67.765 184.141 67.933C183.943 68.101 183.844 68.329 183.844 68.617C183.844 68.839 183.913 69.013 184.051 69.139C184.195 69.259 184.402 69.346 184.672 69.4L184.825 69.436ZM189.539 73V67.96L188.243 68.671L187.892 67.978L189.773 66.988H190.439V73H189.539ZM194.035 73.09C193.507 73.09 193.06 72.958 192.694 72.694C192.328 72.424 192.052 72.058 191.866 71.596C191.68 71.128 191.587 70.594 191.587 69.994C191.587 69.394 191.68 68.863 191.866 68.401C192.052 67.933 192.328 67.567 192.694 67.303C193.06 67.033 193.507 66.898 194.035 66.898C194.569 66.898 195.016 67.033 195.376 67.303C195.742 67.567 196.018 67.933 196.204 68.401C196.396 68.863 196.492 69.394 196.492 69.994C196.492 70.594 196.396 71.128 196.204 71.596C196.018 72.058 195.742 72.424 195.376 72.694C195.016 72.958 194.569 73.09 194.035 73.09ZM194.035 72.343C194.335 72.343 194.599 72.259 194.827 72.091C195.061 71.917 195.241 71.656 195.367 71.308C195.499 70.96 195.565 70.522 195.565 69.994C195.565 69.46 195.499 69.019 195.367 68.671C195.241 68.323 195.061 68.065 194.827 67.897C194.599 67.723 194.335 67.636 194.035 67.636C193.741 67.636 193.477 67.723 193.243 67.897C193.015 68.071 192.835 68.332 192.703 68.68C192.571 69.022 192.505 69.46 192.505 69.994C192.505 70.522 192.571 70.96 192.703 71.308C192.835 71.656 193.015 71.917 193.243 72.091C193.477 72.259 193.741 72.343 194.035 72.343ZM199.81 73.09C199.282 73.09 198.835 72.958 198.469 72.694C198.103 72.424 197.827 72.058 197.641 71.596C197.455 71.128 197.362 70.594 197.362 69.994C197.362 69.394 197.455 68.863 197.641 68.401C197.827 67.933 198.103 67.567 198.469 67.303C198.835 67.033 199.282 66.898 199.81 66.898C200.344 66.898 200.791 67.033 201.151 67.303C201.517 67.567 201.793 67.933 201.979 68.401C202.171 68.863 202.267 69.394 202.267 69.994C202.267 70.594 202.171 71.128 201.979 71.596C201.793 72.058 201.517 72.424 201.151 72.694C200.791 72.958 200.344 73.09 199.81 73.09ZM199.81 72.343C200.11 72.343 200.374 72.259 200.602 72.091C200.836 71.917 201.016 71.656 201.142 71.308C201.274 70.96 201.34 70.522 201.34 69.994C201.34 69.46 201.274 69.019 201.142 68.671C201.016 68.323 200.836 68.065 200.602 67.897C200.374 67.723 200.11 67.636 199.81 67.636C199.516 67.636 199.252 67.723 199.018 67.897C198.79 68.071 198.61 68.332 198.478 68.68C198.346 69.022 198.28 69.46 198.28 69.994C198.28 70.522 198.346 70.96 198.478 71.308C198.61 71.656 198.79 71.917 199.018 72.091C199.252 72.259 199.516 72.343 199.81 72.343Z" fill="#747FA6"/>
<line x1="271.5" y1="53" x2="271.5" y2="62" stroke="#20224E"/>
<path d="M262.928 73.9L263.135 72.982C262.913 72.916 262.697 72.826 262.487 72.712C262.283 72.598 262.079 72.454 261.875 72.28L262.235 71.569C262.427 71.725 262.613 71.854 262.793 71.956C262.973 72.052 263.15 72.13 263.324 72.19L263.756 70.282L263.567 70.246C263.033 70.144 262.646 69.961 262.406 69.697C262.172 69.433 262.055 69.112 262.055 68.734C262.055 68.398 262.13 68.092 262.28 67.816C262.43 67.54 262.661 67.318 262.973 67.15C263.285 66.982 263.678 66.898 264.152 66.898C264.218 66.898 264.281 66.901 264.341 66.907C264.407 66.907 264.473 66.91 264.539 66.916L264.728 66.088H265.268L265.052 67.015C265.244 67.063 265.43 67.135 265.61 67.231C265.796 67.327 265.976 67.444 266.15 67.582L265.781 68.284C265.625 68.176 265.472 68.083 265.322 68.005C265.178 67.921 265.028 67.852 264.872 67.798L264.476 69.535L264.809 69.598C265.337 69.694 265.721 69.895 265.961 70.201C266.207 70.501 266.33 70.837 266.33 71.209C266.33 71.773 266.132 72.229 265.736 72.577C265.346 72.919 264.782 73.09 264.044 73.09C263.972 73.09 263.903 73.087 263.837 73.081C263.777 73.075 263.717 73.069 263.657 73.063L263.468 73.9H262.928ZM263.837 72.298C263.873 72.304 263.906 72.307 263.936 72.307C263.972 72.307 264.008 72.307 264.044 72.307C264.482 72.307 264.818 72.22 265.052 72.046C265.286 71.866 265.403 71.617 265.403 71.299C265.403 71.077 265.331 70.891 265.187 70.741C265.043 70.585 264.833 70.483 264.557 70.435L264.278 70.381L263.837 72.298ZM263.954 69.436L264.359 67.69C264.329 67.684 264.299 67.681 264.269 67.681C264.239 67.681 264.206 67.681 264.17 67.681C263.774 67.681 263.474 67.765 263.27 67.933C263.072 68.101 262.973 68.329 262.973 68.617C262.973 68.839 263.042 69.013 263.18 69.139C263.324 69.259 263.531 69.346 263.801 69.4L263.954 69.436ZM268.668 73V67.96L267.372 68.671L267.021 67.978L268.902 66.988H269.568V73H268.668ZM272.184 73V67.96L270.888 68.671L270.537 67.978L272.418 66.988H273.084V73H272.184ZM276.681 73.09C276.153 73.09 275.706 72.958 275.34 72.694C274.974 72.424 274.698 72.058 274.512 71.596C274.326 71.128 274.233 70.594 274.233 69.994C274.233 69.394 274.326 68.863 274.512 68.401C274.698 67.933 274.974 67.567 275.34 67.303C275.706 67.033 276.153 66.898 276.681 66.898C277.215 66.898 277.662 67.033 278.022 67.303C278.388 67.567 278.664 67.933 278.85 68.401C279.042 68.863 279.138 69.394 279.138 69.994C279.138 70.594 279.042 71.128 278.85 71.596C278.664 72.058 278.388 72.424 278.022 72.694C277.662 72.958 277.215 73.09 276.681 73.09ZM276.681 72.343C276.981 72.343 277.245 72.259 277.473 72.091C277.707 71.917 277.887 71.656 278.013 71.308C278.145 70.96 278.211 70.522 278.211 69.994C278.211 69.46 278.145 69.019 278.013 68.671C277.887 68.323 277.707 68.065 277.473 67.897C277.245 67.723 276.981 67.636 276.681 67.636C276.387 67.636 276.123 67.723 275.889 67.897C275.661 68.071 275.481 68.332 275.349 68.68C275.217 69.022 275.151 69.46 275.151 69.994C275.151 70.522 275.217 70.96 275.349 71.308C275.481 71.656 275.661 71.917 275.889 72.091C276.123 72.259 276.387 72.343 276.681 72.343Z" fill="#747FA6"/>
</svg>
