<svg width="381" height="115" viewBox="0 0 381 115" fill="none" xmlns="http://www.w3.org/2000/svg">
<path d="M303.711 16V9.988H305.133L307.068 14.884L309.012 9.988H310.434V16H309.525V10.879L307.464 16H306.672L304.611 10.879V16H303.711ZM313.163 16.09C312.851 16.09 312.575 16.042 312.335 15.946C312.101 15.844 311.918 15.7 311.786 15.514C311.654 15.322 311.588 15.091 311.588 14.821C311.588 14.551 311.654 14.329 311.786 14.155C311.918 13.975 312.104 13.834 312.344 13.732C312.584 13.624 312.857 13.552 313.163 13.516L314.657 13.336C314.621 13.018 314.501 12.784 314.297 12.634C314.093 12.484 313.841 12.409 313.541 12.409C313.337 12.409 313.124 12.451 312.902 12.535C312.686 12.613 312.455 12.739 312.209 12.913L311.894 12.274C312.128 12.088 312.386 11.944 312.668 11.842C312.956 11.734 313.253 11.68 313.559 11.68C314.201 11.68 314.687 11.827 315.017 12.121C315.353 12.409 315.521 12.844 315.521 13.426V16H314.702V15.388C314.546 15.622 314.336 15.799 314.072 15.919C313.814 16.033 313.511 16.09 313.163 16.09ZM313.361 15.37C313.643 15.37 313.88 15.316 314.072 15.208C314.27 15.094 314.417 14.944 314.513 14.758C314.615 14.572 314.666 14.377 314.666 14.173V13.984L313.406 14.146C313.094 14.188 312.857 14.257 312.695 14.353C312.533 14.443 312.452 14.59 312.452 14.794C312.452 14.98 312.533 15.124 312.695 15.226C312.857 15.322 313.079 15.37 313.361 15.37ZM315.996 16L317.616 13.813L316.086 11.77H317.067L318.156 13.291L319.254 11.77H320.235L318.705 13.813L320.325 16H319.344L318.156 14.389L316.977 16H315.996ZM323.434 16V9.988H325.828C326.566 9.988 327.121 10.144 327.493 10.456C327.865 10.768 328.051 11.242 328.051 11.878C328.051 12.514 327.865 12.988 327.493 13.3C327.121 13.606 326.566 13.759 325.828 13.759H324.334V16H323.434ZM324.334 13.003H325.657C326.137 13.003 326.503 12.919 326.755 12.751C327.007 12.583 327.133 12.292 327.133 11.878C327.133 11.458 327.01 11.164 326.764 10.996C326.524 10.828 326.155 10.744 325.657 10.744H324.334V13.003ZM329.163 16V11.77H329.982V12.508C330.09 12.244 330.246 12.046 330.45 11.914C330.66 11.782 330.894 11.716 331.152 11.716C331.236 11.716 331.311 11.722 331.377 11.734C331.449 11.74 331.506 11.752 331.548 11.77V12.571C331.464 12.553 331.38 12.541 331.296 12.535C331.218 12.523 331.14 12.517 331.062 12.517C330.762 12.517 330.51 12.643 330.306 12.895C330.108 13.141 330.009 13.495 330.009 13.957V16H329.163ZM334.211 16.09C333.779 16.09 333.395 16 333.059 15.82C332.723 15.634 332.462 15.376 332.276 15.046C332.09 14.716 331.997 14.329 331.997 13.885C331.997 13.441 332.09 13.054 332.276 12.724C332.462 12.394 332.723 12.139 333.059 11.959C333.395 11.773 333.779 11.68 334.211 11.68C334.649 11.68 335.033 11.773 335.363 11.959C335.699 12.139 335.96 12.394 336.146 12.724C336.338 13.054 336.434 13.441 336.434 13.885C336.434 14.329 336.338 14.716 336.146 15.046C335.96 15.376 335.699 15.634 335.363 15.82C335.033 16 334.649 16.09 334.211 16.09ZM334.211 15.343C334.481 15.343 334.718 15.286 334.922 15.172C335.126 15.052 335.282 14.884 335.39 14.668C335.504 14.446 335.561 14.185 335.561 13.885C335.561 13.585 335.504 13.327 335.39 13.111C335.282 12.889 335.126 12.718 334.922 12.598C334.718 12.478 334.481 12.418 334.211 12.418C333.941 12.418 333.704 12.478 333.5 12.598C333.302 12.718 333.146 12.889 333.032 13.111C332.918 13.327 332.861 13.585 332.861 13.885C332.861 14.185 332.918 14.446 333.032 14.668C333.146 14.884 333.302 15.052 333.5 15.172C333.704 15.286 333.941 15.343 334.211 15.343ZM338.007 16V12.49H337.08V11.77H338.007V11.212C338.007 10.774 338.112 10.453 338.322 10.249C338.538 10.039 338.868 9.934 339.312 9.934C339.426 9.934 339.543 9.94 339.663 9.952C339.783 9.964 339.879 9.982 339.951 10.006V10.69C339.897 10.678 339.822 10.669 339.726 10.663C339.636 10.657 339.555 10.654 339.483 10.654C339.267 10.654 339.108 10.708 339.006 10.816C338.904 10.918 338.853 11.071 338.853 11.275V11.77H339.951V12.49H338.853V16H338.007ZM340.844 16V11.77H341.69V16H340.844ZM341.267 10.897C341.111 10.897 340.985 10.852 340.889 10.762C340.799 10.672 340.754 10.555 340.754 10.411C340.754 10.267 340.799 10.15 340.889 10.06C340.985 9.97 341.111 9.925 341.267 9.925C341.417 9.925 341.54 9.97 341.636 10.06C341.732 10.15 341.78 10.267 341.78 10.411C341.78 10.555 341.732 10.672 341.636 10.762C341.54 10.852 341.417 10.897 341.267 10.897ZM344.814 16.054C344.37 16.054 344.04 15.952 343.824 15.748C343.614 15.538 343.509 15.214 343.509 14.776V12.49H342.582V11.77H343.509V10.564H344.355V11.77H345.453V12.49H344.355V14.704C344.355 14.914 344.406 15.07 344.508 15.172C344.61 15.274 344.769 15.325 344.985 15.325C345.057 15.325 345.138 15.322 345.228 15.316C345.324 15.31 345.399 15.301 345.453 15.289V15.973C345.381 15.997 345.285 16.015 345.165 16.027C345.045 16.045 344.928 16.054 344.814 16.054ZM306.24 27.09C305.46 27.09 304.842 26.883 304.386 26.469C303.936 26.055 303.711 25.416 303.711 24.552V20.988H304.611V24.552C304.611 24.954 304.674 25.284 304.8 25.542C304.932 25.8 305.118 25.989 305.358 26.109C305.604 26.229 305.898 26.289 306.24 26.289C306.582 26.289 306.873 26.229 307.113 26.109C307.359 25.989 307.545 25.8 307.671 25.542C307.803 25.284 307.869 24.954 307.869 24.552V20.988H308.778V24.552C308.778 25.416 308.55 26.055 308.094 26.469C307.644 26.883 307.026 27.09 306.24 27.09ZM310.153 27V22.77H310.972V23.4C311.098 23.178 311.278 23.004 311.512 22.878C311.752 22.746 312.043 22.68 312.385 22.68C312.871 22.68 313.252 22.818 313.528 23.094C313.804 23.37 313.942 23.802 313.942 24.39V27H313.087V24.498C313.087 24.12 313.009 23.847 312.853 23.679C312.703 23.505 312.472 23.418 312.16 23.418C311.794 23.418 311.509 23.544 311.305 23.796C311.101 24.048 310.999 24.393 310.999 24.831V27H310.153ZM315.285 27V20.988H316.131V27H315.285ZM317.483 27V22.77H318.329V27H317.483ZM317.906 21.897C317.75 21.897 317.624 21.852 317.528 21.762C317.438 21.672 317.393 21.555 317.393 21.411C317.393 21.267 317.438 21.15 317.528 21.06C317.624 20.97 317.75 20.925 317.906 20.925C318.056 20.925 318.179 20.97 318.275 21.06C318.371 21.15 318.419 21.267 318.419 21.411C318.419 21.555 318.371 21.672 318.275 21.762C318.179 21.852 318.056 21.897 317.906 21.897ZM319.68 27V22.77H320.499V23.328C320.619 23.124 320.784 22.965 320.994 22.851C321.204 22.737 321.459 22.68 321.759 22.68C322.065 22.68 322.323 22.746 322.533 22.878C322.749 23.004 322.911 23.181 323.019 23.409C323.151 23.169 323.337 22.989 323.577 22.869C323.823 22.743 324.108 22.68 324.432 22.68C324.906 22.68 325.281 22.818 325.557 23.094C325.833 23.37 325.971 23.802 325.971 24.39V27H325.116V24.498C325.116 24.12 325.041 23.847 324.891 23.679C324.747 23.505 324.534 23.418 324.252 23.418C323.922 23.418 323.67 23.544 323.496 23.796C323.328 24.048 323.244 24.393 323.244 24.831V27H322.389V24.498C322.389 24.12 322.314 23.847 322.164 23.679C322.02 23.505 321.81 23.418 321.534 23.418C321.204 23.418 320.952 23.544 320.778 23.796C320.61 24.048 320.526 24.393 320.526 24.831V27H319.68ZM327.309 27V22.77H328.155V27H327.309ZM327.732 21.897C327.576 21.897 327.45 21.852 327.354 21.762C327.264 21.672 327.219 21.555 327.219 21.411C327.219 21.267 327.264 21.15 327.354 21.06C327.45 20.97 327.576 20.925 327.732 20.925C327.882 20.925 328.005 20.97 328.101 21.06C328.197 21.15 328.245 21.267 328.245 21.411C328.245 21.555 328.197 21.672 328.101 21.762C328.005 21.852 327.882 21.897 327.732 21.897ZM331.279 27.054C330.835 27.054 330.505 26.952 330.289 26.748C330.079 26.538 329.974 26.214 329.974 25.776V23.49H329.047V22.77H329.974V21.564H330.82V22.77H331.918V23.49H330.82V25.704C330.82 25.914 330.871 26.07 330.973 26.172C331.075 26.274 331.234 26.325 331.45 26.325C331.522 26.325 331.603 26.322 331.693 26.316C331.789 26.31 331.864 26.301 331.918 26.289V26.973C331.846 26.997 331.75 27.015 331.63 27.027C331.51 27.045 331.393 27.054 331.279 27.054ZM334.967 27.09C334.541 27.09 334.157 27.006 333.815 26.838C333.479 26.664 333.212 26.415 333.014 26.091C332.816 25.761 332.717 25.359 332.717 24.885C332.717 24.435 332.81 24.045 332.996 23.715C333.188 23.385 333.443 23.13 333.761 22.95C334.085 22.77 334.445 22.68 334.841 22.68C335.261 22.68 335.621 22.761 335.921 22.923C336.227 23.079 336.464 23.295 336.632 23.571C336.8 23.847 336.884 24.159 336.884 24.507C336.884 24.609 336.869 24.72 336.839 24.84C336.815 24.96 336.779 25.056 336.731 25.128H333.581C333.611 25.392 333.689 25.617 333.815 25.803C333.941 25.989 334.109 26.13 334.319 26.226C334.529 26.316 334.772 26.361 335.048 26.361C335.324 26.361 335.567 26.319 335.777 26.235C335.993 26.151 336.2 26.031 336.398 25.875L336.704 26.505C336.47 26.697 336.206 26.844 335.912 26.946C335.624 27.042 335.309 27.09 334.967 27.09ZM333.581 24.471H336.002C336.008 24.459 336.011 24.447 336.011 24.435C336.011 24.417 336.011 24.399 336.011 24.381C336.011 24.183 335.969 24.012 335.885 23.868C335.801 23.718 335.675 23.601 335.507 23.517C335.339 23.433 335.126 23.391 334.868 23.391C334.664 23.391 334.472 23.436 334.292 23.526C334.118 23.61 333.968 23.733 333.842 23.895C333.722 24.051 333.635 24.243 333.581 24.471ZM339.779 27.09C339.395 27.09 339.05 27 338.744 26.82C338.438 26.64 338.195 26.385 338.015 26.055C337.841 25.725 337.754 25.335 337.754 24.885C337.754 24.429 337.841 24.036 338.015 23.706C338.195 23.376 338.438 23.124 338.744 22.95C339.05 22.77 339.395 22.68 339.779 22.68C340.115 22.68 340.409 22.746 340.661 22.878C340.913 23.004 341.108 23.172 341.246 23.382V20.988H342.101V27H341.282V26.325C341.15 26.553 340.955 26.739 340.697 26.883C340.439 27.021 340.133 27.09 339.779 27.09ZM339.958 26.343C340.217 26.343 340.445 26.286 340.643 26.172C340.841 26.052 340.997 25.884 341.111 25.668C341.225 25.446 341.282 25.185 341.282 24.885C341.282 24.585 341.225 24.327 341.111 24.111C340.997 23.889 340.841 23.718 340.643 23.598C340.445 23.478 340.217 23.418 339.958 23.418C339.701 23.418 339.47 23.478 339.266 23.598C339.068 23.718 338.912 23.889 338.798 24.111C338.684 24.327 338.627 24.585 338.627 24.885C338.627 25.185 338.684 25.446 338.798 25.668C338.912 25.884 339.068 26.052 339.266 26.172C339.464 26.286 339.694 26.343 339.958 26.343Z" fill="#46956A"/>
<line x1="39.5" y1="-2.18557e-08" x2="39.5" y2="115" stroke="#20224E"/>
<line x1="35" y1="102.5" x2="44" y2="102.5" stroke="#20224E"/>
<line x1="381" y1="58.5" x2="40" y2="58.5" stroke="#20224E"/>
<path d="M0.642172 102.768V102.084H3.08117V102.768H0.642172ZM5.00865 105.9L5.21565 104.982C4.99365 104.916 4.77765 104.826 4.56765 104.712C4.36365 104.598 4.15965 104.454 3.95565 104.28L4.31565 103.569C4.50765 103.725 4.69365 103.854 4.87365 103.956C5.05365 104.052 5.23065 104.13 5.40465 104.19L5.83665 102.282L5.64765 102.246C5.11365 102.144 4.72665 101.961 4.48665 101.697C4.25265 101.433 4.13565 101.112 4.13565 100.734C4.13565 100.398 4.21065 100.092 4.36065 99.816C4.51065 99.54 4.74165 99.318 5.05365 99.15C5.36565 98.982 5.75865 98.898 6.23265 98.898C6.29865 98.898 6.36165 98.901 6.42165 98.907C6.48765 98.907 6.55365 98.91 6.61965 98.916L6.80865 98.088H7.34865L7.13265 99.015C7.32465 99.063 7.51065 99.135 7.69065 99.231C7.87665 99.327 8.05665 99.444 8.23065 99.582L7.86165 100.284C7.70565 100.176 7.55265 100.083 7.40265 100.005C7.25865 99.921 7.10865 99.852 6.95265 99.798L6.55665 101.535L6.88965 101.598C7.41765 101.694 7.80165 101.895 8.04165 102.201C8.28765 102.501 8.41065 102.837 8.41065 103.209C8.41065 103.773 8.21265 104.229 7.81665 104.577C7.42665 104.919 6.86265 105.09 6.12465 105.09C6.05265 105.09 5.98365 105.087 5.91765 105.081C5.85765 105.075 5.79765 105.069 5.73765 105.063L5.54865 105.9H5.00865ZM5.91765 104.298C5.95365 104.304 5.98665 104.307 6.01665 104.307C6.05265 104.307 6.08865 104.307 6.12465 104.307C6.56265 104.307 6.89865 104.22 7.13265 104.046C7.36665 103.866 7.48365 103.617 7.48365 103.299C7.48365 103.077 7.41165 102.891 7.26765 102.741C7.12365 102.585 6.91365 102.483 6.63765 102.435L6.35865 102.381L5.91765 104.298ZM6.03465 101.436L6.43965 99.69C6.40965 99.684 6.37965 99.681 6.34965 99.681C6.31965 99.681 6.28665 99.681 6.25065 99.681C5.85465 99.681 5.55465 99.765 5.35065 99.933C5.15265 100.101 5.05365 100.329 5.05365 100.617C5.05365 100.839 5.12265 101.013 5.26065 101.139C5.40465 101.259 5.61165 101.346 5.88165 101.4L6.03465 101.436ZM10.7488 105V99.96L9.45282 100.671L9.10182 99.978L10.9828 98.988H11.6488V105H10.7488ZM13.2204 106.386L12.7704 106.17C12.8844 105.966 12.9714 105.756 13.0314 105.54C13.0974 105.33 13.1304 105.108 13.1304 104.874V104.145H13.9134V104.874C13.9134 105.234 13.8564 105.531 13.7424 105.765C13.6344 105.999 13.4604 106.206 13.2204 106.386ZM17.5658 105.09C17.0378 105.09 16.5908 104.958 16.2248 104.694C15.8588 104.424 15.5828 104.058 15.3968 103.596C15.2108 103.128 15.1178 102.594 15.1178 101.994C15.1178 101.394 15.2108 100.863 15.3968 100.401C15.5828 99.933 15.8588 99.567 16.2248 99.303C16.5908 99.033 17.0378 98.898 17.5658 98.898C18.0998 98.898 18.5468 99.033 18.9068 99.303C19.2728 99.567 19.5488 99.933 19.7348 100.401C19.9268 100.863 20.0228 101.394 20.0228 101.994C20.0228 102.594 19.9268 103.128 19.7348 103.596C19.5488 104.058 19.2728 104.424 18.9068 104.694C18.5468 104.958 18.0998 105.09 17.5658 105.09ZM17.5658 104.343C17.8658 104.343 18.1298 104.259 18.3578 104.091C18.5918 103.917 18.7718 103.656 18.8978 103.308C19.0298 102.96 19.0958 102.522 19.0958 101.994C19.0958 101.46 19.0298 101.019 18.8978 100.671C18.7718 100.323 18.5918 100.065 18.3578 99.897C18.1298 99.723 17.8658 99.636 17.5658 99.636C17.2718 99.636 17.0078 99.723 16.7738 99.897C16.5458 100.071 16.3658 100.332 16.2338 100.68C16.1018 101.022 16.0358 101.46 16.0358 101.994C16.0358 102.522 16.1018 102.96 16.2338 103.308C16.3658 103.656 16.5458 103.917 16.7738 104.091C17.0078 104.259 17.2718 104.343 17.5658 104.343ZM23.3402 105.09C22.8122 105.09 22.3652 104.958 21.9992 104.694C21.6332 104.424 21.3572 104.058 21.1712 103.596C20.9852 103.128 20.8922 102.594 20.8922 101.994C20.8922 101.394 20.9852 100.863 21.1712 100.401C21.3572 99.933 21.6332 99.567 21.9992 99.303C22.3652 99.033 22.8122 98.898 23.3402 98.898C23.8742 98.898 24.3212 99.033 24.6812 99.303C25.0472 99.567 25.3232 99.933 25.5092 100.401C25.7012 100.863 25.7972 101.394 25.7972 101.994C25.7972 102.594 25.7012 103.128 25.5092 103.596C25.3232 104.058 25.0472 104.424 24.6812 104.694C24.3212 104.958 23.8742 105.09 23.3402 105.09ZM23.3402 104.343C23.6402 104.343 23.9042 104.259 24.1322 104.091C24.3662 103.917 24.5462 103.656 24.6722 103.308C24.8042 102.96 24.8702 102.522 24.8702 101.994C24.8702 101.46 24.8042 101.019 24.6722 100.671C24.5462 100.323 24.3662 100.065 24.1322 99.897C23.9042 99.723 23.6402 99.636 23.3402 99.636C23.0462 99.636 22.7822 99.723 22.5482 99.897C22.3202 100.071 22.1402 100.332 22.0082 100.68C21.8762 101.022 21.8102 101.46 21.8102 101.994C21.8102 102.522 21.8762 102.96 22.0082 103.308C22.1402 103.656 22.3202 103.917 22.5482 104.091C22.7822 104.259 23.0462 104.343 23.3402 104.343ZM29.1146 105.09C28.5866 105.09 28.1396 104.958 27.7736 104.694C27.4076 104.424 27.1316 104.058 26.9456 103.596C26.7596 103.128 26.6666 102.594 26.6666 101.994C26.6666 101.394 26.7596 100.863 26.9456 100.401C27.1316 99.933 27.4076 99.567 27.7736 99.303C28.1396 99.033 28.5866 98.898 29.1146 98.898C29.6486 98.898 30.0956 99.033 30.4556 99.303C30.8216 99.567 31.0976 99.933 31.2836 100.401C31.4756 100.863 31.5716 101.394 31.5716 101.994C31.5716 102.594 31.4756 103.128 31.2836 103.596C31.0976 104.058 30.8216 104.424 30.4556 104.694C30.0956 104.958 29.6486 105.09 29.1146 105.09ZM29.1146 104.343C29.4146 104.343 29.6786 104.259 29.9066 104.091C30.1406 103.917 30.3206 103.656 30.4466 103.308C30.5786 102.96 30.6446 102.522 30.6446 101.994C30.6446 101.46 30.5786 101.019 30.4466 100.671C30.3206 100.323 30.1406 100.065 29.9066 99.897C29.6786 99.723 29.4146 99.636 29.1146 99.636C28.8206 99.636 28.5566 99.723 28.3226 99.897C28.0946 100.071 27.9146 100.332 27.7826 100.68C27.6506 101.022 27.5846 101.46 27.5846 101.994C27.5846 102.522 27.6506 102.96 27.7826 103.308C27.9146 103.656 28.0946 103.917 28.3226 104.091C28.5566 104.259 28.8206 104.343 29.1146 104.343Z" fill="#747FA6"/>
<line x1="122.5" y1="54" x2="122.5" y2="63" stroke="#20224E"/>
<path d="M115.688 74.9L115.895 73.982C115.673 73.916 115.457 73.826 115.247 73.712C115.043 73.598 114.839 73.454 114.635 73.28L114.995 72.569C115.187 72.725 115.373 72.854 115.553 72.956C115.733 73.052 115.91 73.13 116.084 73.19L116.516 71.282L116.327 71.246C115.793 71.144 115.406 70.961 115.166 70.697C114.932 70.433 114.815 70.112 114.815 69.734C114.815 69.398 114.89 69.092 115.04 68.816C115.19 68.54 115.421 68.318 115.733 68.15C116.045 67.982 116.438 67.898 116.912 67.898C116.978 67.898 117.041 67.901 117.101 67.907C117.167 67.907 117.233 67.91 117.299 67.916L117.488 67.088H118.028L117.812 68.015C118.004 68.063 118.19 68.135 118.37 68.231C118.556 68.327 118.736 68.444 118.91 68.582L118.541 69.284C118.385 69.176 118.232 69.083 118.082 69.005C117.938 68.921 117.788 68.852 117.632 68.798L117.236 70.535L117.569 70.598C118.097 70.694 118.481 70.895 118.721 71.201C118.967 71.501 119.09 71.837 119.09 72.209C119.09 72.773 118.892 73.229 118.496 73.577C118.106 73.919 117.542 74.09 116.804 74.09C116.732 74.09 116.663 74.087 116.597 74.081C116.537 74.075 116.477 74.069 116.417 74.063L116.228 74.9H115.688ZM116.597 73.298C116.633 73.304 116.666 73.307 116.696 73.307C116.732 73.307 116.768 73.307 116.804 73.307C117.242 73.307 117.578 73.22 117.812 73.046C118.046 72.866 118.163 72.617 118.163 72.299C118.163 72.077 118.091 71.891 117.947 71.741C117.803 71.585 117.593 71.483 117.317 71.435L117.038 71.381L116.597 73.298ZM116.714 70.436L117.119 68.69C117.089 68.684 117.059 68.681 117.029 68.681C116.999 68.681 116.966 68.681 116.93 68.681C116.534 68.681 116.234 68.765 116.03 68.933C115.832 69.101 115.733 69.329 115.733 69.617C115.733 69.839 115.802 70.013 115.94 70.139C116.084 70.259 116.291 70.346 116.561 70.4L116.714 70.436ZM122.275 74.09C121.789 74.09 121.372 74.015 121.024 73.865C120.676 73.715 120.412 73.511 120.232 73.253C120.052 72.995 119.962 72.698 119.962 72.362C119.962 72.026 120.058 71.729 120.25 71.471C120.442 71.207 120.745 71.018 121.159 70.904C120.781 70.784 120.502 70.604 120.322 70.364C120.142 70.124 120.052 69.848 120.052 69.536C120.052 69.218 120.139 68.936 120.313 68.69C120.493 68.444 120.748 68.252 121.078 68.114C121.414 67.97 121.813 67.898 122.275 67.898C122.743 67.898 123.142 67.97 123.472 68.114C123.808 68.252 124.063 68.444 124.237 68.69C124.417 68.936 124.507 69.218 124.507 69.536C124.507 69.848 124.414 70.124 124.228 70.364C124.042 70.604 123.763 70.784 123.391 70.904C123.805 71.018 124.108 71.207 124.3 71.471C124.498 71.729 124.597 72.026 124.597 72.362C124.597 72.698 124.504 72.995 124.318 73.253C124.138 73.511 123.877 73.715 123.535 73.865C123.193 74.015 122.773 74.09 122.275 74.09ZM122.275 73.361C122.725 73.361 123.07 73.262 123.31 73.064C123.55 72.866 123.67 72.614 123.67 72.308C123.67 71.99 123.55 71.735 123.31 71.543C123.07 71.351 122.725 71.255 122.275 71.255C121.825 71.255 121.48 71.351 121.24 71.543C121 71.735 120.88 71.99 120.88 72.308C120.88 72.614 121 72.866 121.24 73.064C121.48 73.262 121.825 73.361 122.275 73.361ZM122.275 70.553C122.689 70.553 123.01 70.469 123.238 70.301C123.466 70.133 123.58 69.896 123.58 69.59C123.58 69.284 123.466 69.047 123.238 68.879C123.01 68.711 122.689 68.627 122.275 68.627C121.867 68.627 121.546 68.711 121.312 68.879C121.084 69.047 120.97 69.284 120.97 69.59C120.97 69.89 121.084 70.127 121.312 70.301C121.546 70.469 121.867 70.553 122.275 70.553ZM127.92 74.09C127.392 74.09 126.945 73.958 126.579 73.694C126.213 73.424 125.937 73.058 125.751 72.596C125.565 72.128 125.472 71.594 125.472 70.994C125.472 70.394 125.565 69.863 125.751 69.401C125.937 68.933 126.213 68.567 126.579 68.303C126.945 68.033 127.392 67.898 127.92 67.898C128.454 67.898 128.901 68.033 129.261 68.303C129.627 68.567 129.903 68.933 130.089 69.401C130.281 69.863 130.377 70.394 130.377 70.994C130.377 71.594 130.281 72.128 130.089 72.596C129.903 73.058 129.627 73.424 129.261 73.694C128.901 73.958 128.454 74.09 127.92 74.09ZM127.92 73.343C128.22 73.343 128.484 73.259 128.712 73.091C128.946 72.917 129.126 72.656 129.252 72.308C129.384 71.96 129.45 71.522 129.45 70.994C129.45 70.46 129.384 70.019 129.252 69.671C129.126 69.323 128.946 69.065 128.712 68.897C128.484 68.723 128.22 68.636 127.92 68.636C127.626 68.636 127.362 68.723 127.128 68.897C126.9 69.071 126.72 69.332 126.588 69.68C126.456 70.022 126.39 70.46 126.39 70.994C126.39 71.522 126.456 71.96 126.588 72.308C126.72 72.656 126.9 72.917 127.128 73.091C127.362 73.259 127.626 73.343 127.92 73.343Z" fill="#747FA6"/>
<line x1="209.5" y1="54" x2="209.5" y2="63" stroke="#20224E"/>
<path d="M199.799 74.9L200.006 73.982C199.784 73.916 199.568 73.826 199.358 73.712C199.154 73.598 198.95 73.454 198.746 73.28L199.106 72.569C199.298 72.725 199.484 72.854 199.664 72.956C199.844 73.052 200.021 73.13 200.195 73.19L200.627 71.282L200.438 71.246C199.904 71.144 199.517 70.961 199.277 70.697C199.043 70.433 198.926 70.112 198.926 69.734C198.926 69.398 199.001 69.092 199.151 68.816C199.301 68.54 199.532 68.318 199.844 68.15C200.156 67.982 200.549 67.898 201.023 67.898C201.089 67.898 201.152 67.901 201.212 67.907C201.278 67.907 201.344 67.91 201.41 67.916L201.599 67.088H202.139L201.923 68.015C202.115 68.063 202.301 68.135 202.481 68.231C202.667 68.327 202.847 68.444 203.021 68.582L202.652 69.284C202.496 69.176 202.343 69.083 202.193 69.005C202.049 68.921 201.899 68.852 201.743 68.798L201.347 70.535L201.68 70.598C202.208 70.694 202.592 70.895 202.832 71.201C203.078 71.501 203.201 71.837 203.201 72.209C203.201 72.773 203.003 73.229 202.607 73.577C202.217 73.919 201.653 74.09 200.915 74.09C200.843 74.09 200.774 74.087 200.708 74.081C200.648 74.075 200.588 74.069 200.528 74.063L200.339 74.9H199.799ZM200.708 73.298C200.744 73.304 200.777 73.307 200.807 73.307C200.843 73.307 200.879 73.307 200.915 73.307C201.353 73.307 201.689 73.22 201.923 73.046C202.157 72.866 202.274 72.617 202.274 72.299C202.274 72.077 202.202 71.891 202.058 71.741C201.914 71.585 201.704 71.483 201.428 71.435L201.149 71.381L200.708 73.298ZM200.825 70.436L201.23 68.69C201.2 68.684 201.17 68.681 201.14 68.681C201.11 68.681 201.077 68.681 201.041 68.681C200.645 68.681 200.345 68.765 200.141 68.933C199.943 69.101 199.844 69.329 199.844 69.617C199.844 69.839 199.913 70.013 200.051 70.139C200.195 70.259 200.402 70.346 200.672 70.4L200.825 70.436ZM205.539 74V68.96L204.243 69.671L203.892 68.978L205.773 67.988H206.439V74H205.539ZM210.035 74.09C209.507 74.09 209.06 73.958 208.694 73.694C208.328 73.424 208.052 73.058 207.866 72.596C207.68 72.128 207.587 71.594 207.587 70.994C207.587 70.394 207.68 69.863 207.866 69.401C208.052 68.933 208.328 68.567 208.694 68.303C209.06 68.033 209.507 67.898 210.035 67.898C210.569 67.898 211.016 68.033 211.376 68.303C211.742 68.567 212.018 68.933 212.204 69.401C212.396 69.863 212.492 70.394 212.492 70.994C212.492 71.594 212.396 72.128 212.204 72.596C212.018 73.058 211.742 73.424 211.376 73.694C211.016 73.958 210.569 74.09 210.035 74.09ZM210.035 73.343C210.335 73.343 210.599 73.259 210.827 73.091C211.061 72.917 211.241 72.656 211.367 72.308C211.499 71.96 211.565 71.522 211.565 70.994C211.565 70.46 211.499 70.019 211.367 69.671C211.241 69.323 211.061 69.065 210.827 68.897C210.599 68.723 210.335 68.636 210.035 68.636C209.741 68.636 209.477 68.723 209.243 68.897C209.015 69.071 208.835 69.332 208.703 69.68C208.571 70.022 208.505 70.46 208.505 70.994C208.505 71.522 208.571 71.96 208.703 72.308C208.835 72.656 209.015 72.917 209.243 73.091C209.477 73.259 209.741 73.343 210.035 73.343ZM215.81 74.09C215.282 74.09 214.835 73.958 214.469 73.694C214.103 73.424 213.827 73.058 213.641 72.596C213.455 72.128 213.362 71.594 213.362 70.994C213.362 70.394 213.455 69.863 213.641 69.401C213.827 68.933 214.103 68.567 214.469 68.303C214.835 68.033 215.282 67.898 215.81 67.898C216.344 67.898 216.791 68.033 217.151 68.303C217.517 68.567 217.793 68.933 217.979 69.401C218.171 69.863 218.267 70.394 218.267 70.994C218.267 71.594 218.171 72.128 217.979 72.596C217.793 73.058 217.517 73.424 217.151 73.694C216.791 73.958 216.344 74.09 215.81 74.09ZM215.81 73.343C216.11 73.343 216.374 73.259 216.602 73.091C216.836 72.917 217.016 72.656 217.142 72.308C217.274 71.96 217.34 71.522 217.34 70.994C217.34 70.46 217.274 70.019 217.142 69.671C217.016 69.323 216.836 69.065 216.602 68.897C216.374 68.723 216.11 68.636 215.81 68.636C215.516 68.636 215.252 68.723 215.018 68.897C214.79 69.071 214.61 69.332 214.478 69.68C214.346 70.022 214.28 70.46 214.28 70.994C214.28 71.522 214.346 71.96 214.478 72.308C214.61 72.656 214.79 72.917 215.018 73.091C215.252 73.259 215.516 73.343 215.81 73.343Z" fill="#747FA6"/>
<line x1="297.5" y1="54" x2="297.5" y2="63" stroke="#20224E"/>
<path d="M288.694 74.9L288.901 73.982C288.679 73.916 288.463 73.826 288.253 73.712C288.049 73.598 287.845 73.454 287.641 73.28L288.001 72.569C288.193 72.725 288.379 72.854 288.559 72.956C288.739 73.052 288.916 73.13 289.09 73.19L289.522 71.282L289.333 71.246C288.799 71.144 288.412 70.961 288.172 70.697C287.938 70.433 287.821 70.112 287.821 69.734C287.821 69.398 287.896 69.092 288.046 68.816C288.196 68.54 288.427 68.318 288.739 68.15C289.051 67.982 289.444 67.898 289.918 67.898C289.984 67.898 290.047 67.901 290.107 67.907C290.173 67.907 290.239 67.91 290.305 67.916L290.494 67.088H291.034L290.818 68.015C291.01 68.063 291.196 68.135 291.376 68.231C291.562 68.327 291.742 68.444 291.916 68.582L291.547 69.284C291.391 69.176 291.238 69.083 291.088 69.005C290.944 68.921 290.794 68.852 290.638 68.798L290.242 70.535L290.575 70.598C291.103 70.694 291.487 70.895 291.727 71.201C291.973 71.501 292.096 71.837 292.096 72.209C292.096 72.773 291.898 73.229 291.502 73.577C291.112 73.919 290.548 74.09 289.81 74.09C289.738 74.09 289.669 74.087 289.603 74.081C289.543 74.075 289.483 74.069 289.423 74.063L289.234 74.9H288.694ZM289.603 73.298C289.639 73.304 289.672 73.307 289.702 73.307C289.738 73.307 289.774 73.307 289.81 73.307C290.248 73.307 290.584 73.22 290.818 73.046C291.052 72.866 291.169 72.617 291.169 72.299C291.169 72.077 291.097 71.891 290.953 71.741C290.809 71.585 290.599 71.483 290.323 71.435L290.044 71.381L289.603 73.298ZM289.72 70.436L290.125 68.69C290.095 68.684 290.065 68.681 290.035 68.681C290.005 68.681 289.972 68.681 289.936 68.681C289.54 68.681 289.24 68.765 289.036 68.933C288.838 69.101 288.739 69.329 288.739 69.617C288.739 69.839 288.808 70.013 288.946 70.139C289.09 70.259 289.297 70.346 289.567 70.4L289.72 70.436ZM294.434 74V68.96L293.138 69.671L292.787 68.978L294.668 67.988H295.334V74H294.434ZM296.483 74V73.253L299.048 70.85C299.234 70.67 299.369 70.493 299.453 70.319C299.537 70.145 299.579 69.977 299.579 69.815C299.579 69.575 299.528 69.368 299.426 69.194C299.324 69.02 299.183 68.885 299.003 68.789C298.829 68.687 298.619 68.636 298.373 68.636C298.127 68.636 297.884 68.696 297.644 68.816C297.41 68.936 297.137 69.116 296.825 69.356L296.483 68.708C296.795 68.426 297.107 68.222 297.419 68.096C297.731 67.964 298.061 67.898 298.409 67.898C298.817 67.898 299.177 67.976 299.489 68.132C299.807 68.282 300.056 68.501 300.236 68.789C300.416 69.077 300.506 69.419 300.506 69.815C300.506 70.067 300.437 70.322 300.299 70.58C300.161 70.832 299.924 71.111 299.588 71.417L297.635 73.253H300.596V74H296.483ZM303.914 74.09C303.386 74.09 302.939 73.958 302.573 73.694C302.207 73.424 301.931 73.058 301.745 72.596C301.559 72.128 301.466 71.594 301.466 70.994C301.466 70.394 301.559 69.863 301.745 69.401C301.931 68.933 302.207 68.567 302.573 68.303C302.939 68.033 303.386 67.898 303.914 67.898C304.448 67.898 304.895 68.033 305.255 68.303C305.621 68.567 305.897 68.933 306.083 69.401C306.275 69.863 306.371 70.394 306.371 70.994C306.371 71.594 306.275 72.128 306.083 72.596C305.897 73.058 305.621 73.424 305.255 73.694C304.895 73.958 304.448 74.09 303.914 74.09ZM303.914 73.343C304.214 73.343 304.478 73.259 304.706 73.091C304.94 72.917 305.12 72.656 305.246 72.308C305.378 71.96 305.444 71.522 305.444 70.994C305.444 70.46 305.378 70.019 305.246 69.671C305.12 69.323 304.94 69.065 304.706 68.897C304.478 68.723 304.214 68.636 303.914 68.636C303.62 68.636 303.356 68.723 303.122 68.897C302.894 69.071 302.714 69.332 302.582 69.68C302.45 70.022 302.384 70.46 302.384 70.994C302.384 71.522 302.45 71.96 302.582 72.308C302.714 72.656 302.894 72.917 303.122 73.091C303.356 73.259 303.62 73.343 303.914 73.343Z" fill="#747FA6"/>
<path d="M107.963 97V90.988H109.385L111.32 95.884L113.264 90.988H114.686V97H113.777V91.879L111.716 97H110.924L108.863 91.879V97H107.963ZM117.415 97.09C117.103 97.09 116.827 97.042 116.587 96.946C116.353 96.844 116.17 96.7 116.038 96.514C115.906 96.322 115.84 96.091 115.84 95.821C115.84 95.551 115.906 95.329 116.038 95.155C116.17 94.975 116.356 94.834 116.596 94.732C116.836 94.624 117.109 94.552 117.415 94.516L118.909 94.336C118.873 94.018 118.753 93.784 118.549 93.634C118.345 93.484 118.093 93.409 117.793 93.409C117.589 93.409 117.376 93.451 117.154 93.535C116.938 93.613 116.707 93.739 116.461 93.913L116.146 93.274C116.38 93.088 116.638 92.944 116.92 92.842C117.208 92.734 117.505 92.68 117.811 92.68C118.453 92.68 118.939 92.827 119.269 93.121C119.605 93.409 119.773 93.844 119.773 94.426V97H118.954V96.388C118.798 96.622 118.588 96.799 118.324 96.919C118.066 97.033 117.763 97.09 117.415 97.09ZM117.613 96.37C117.895 96.37 118.132 96.316 118.324 96.208C118.522 96.094 118.669 95.944 118.765 95.758C118.867 95.572 118.918 95.377 118.918 95.173V94.984L117.658 95.146C117.346 95.188 117.109 95.257 116.947 95.353C116.785 95.443 116.704 95.59 116.704 95.794C116.704 95.98 116.785 96.124 116.947 96.226C117.109 96.322 117.331 96.37 117.613 96.37ZM120.247 97L121.867 94.813L120.337 92.77H121.318L122.407 94.291L123.505 92.77H124.486L122.956 94.813L124.576 97H123.595L122.407 95.389L121.228 97H120.247ZM127.686 97V90.988H128.586V96.199H131.403V97H127.686ZM134.27 97.09C133.838 97.09 133.454 97 133.118 96.82C132.782 96.634 132.521 96.376 132.335 96.046C132.149 95.716 132.056 95.329 132.056 94.885C132.056 94.441 132.149 94.054 132.335 93.724C132.521 93.394 132.782 93.139 133.118 92.959C133.454 92.773 133.838 92.68 134.27 92.68C134.708 92.68 135.092 92.773 135.422 92.959C135.758 93.139 136.019 93.394 136.205 93.724C136.397 94.054 136.493 94.441 136.493 94.885C136.493 95.329 136.397 95.716 136.205 96.046C136.019 96.376 135.758 96.634 135.422 96.82C135.092 97 134.708 97.09 134.27 97.09ZM134.27 96.343C134.54 96.343 134.777 96.286 134.981 96.172C135.185 96.052 135.341 95.884 135.449 95.668C135.563 95.446 135.62 95.185 135.62 94.885C135.62 94.585 135.563 94.327 135.449 94.111C135.341 93.889 135.185 93.718 134.981 93.598C134.777 93.478 134.54 93.418 134.27 93.418C134 93.418 133.763 93.478 133.559 93.598C133.361 93.718 133.205 93.889 133.091 94.111C132.977 94.327 132.92 94.585 132.92 94.885C132.92 95.185 132.977 95.446 133.091 95.668C133.205 95.884 133.361 96.052 133.559 96.172C133.763 96.286 134 96.343 134.27 96.343ZM139.093 97.09C138.769 97.09 138.466 97.042 138.184 96.946C137.902 96.844 137.629 96.7 137.365 96.514L137.716 95.848C137.98 96.022 138.223 96.154 138.445 96.244C138.673 96.334 138.895 96.379 139.111 96.379C139.417 96.379 139.645 96.334 139.795 96.244C139.951 96.148 140.029 96.007 140.029 95.821C140.029 95.665 139.981 95.551 139.885 95.479C139.795 95.401 139.633 95.341 139.399 95.299L138.679 95.164C138.289 95.092 137.995 94.963 137.797 94.777C137.599 94.585 137.5 94.339 137.5 94.039C137.5 93.793 137.56 93.568 137.68 93.364C137.806 93.154 137.992 92.989 138.238 92.869C138.484 92.743 138.793 92.68 139.165 92.68C139.471 92.68 139.759 92.725 140.029 92.815C140.305 92.905 140.551 93.028 140.767 93.184L140.425 93.823C140.239 93.697 140.041 93.595 139.831 93.517C139.627 93.433 139.417 93.391 139.201 93.391C138.943 93.391 138.739 93.436 138.589 93.526C138.439 93.61 138.364 93.748 138.364 93.94C138.364 94.06 138.409 94.156 138.499 94.228C138.589 94.3 138.742 94.354 138.958 94.39L139.669 94.525C140.065 94.603 140.368 94.735 140.578 94.921C140.794 95.107 140.902 95.377 140.902 95.731C140.902 96.127 140.749 96.454 140.443 96.712C140.137 96.964 139.687 97.09 139.093 97.09ZM143.505 97.09C143.181 97.09 142.878 97.042 142.596 96.946C142.314 96.844 142.041 96.7 141.777 96.514L142.128 95.848C142.392 96.022 142.635 96.154 142.857 96.244C143.085 96.334 143.307 96.379 143.523 96.379C143.829 96.379 144.057 96.334 144.207 96.244C144.363 96.148 144.441 96.007 144.441 95.821C144.441 95.665 144.393 95.551 144.297 95.479C144.207 95.401 144.045 95.341 143.811 95.299L143.091 95.164C142.701 95.092 142.407 94.963 142.209 94.777C142.011 94.585 141.912 94.339 141.912 94.039C141.912 93.793 141.972 93.568 142.092 93.364C142.218 93.154 142.404 92.989 142.65 92.869C142.896 92.743 143.205 92.68 143.577 92.68C143.883 92.68 144.171 92.725 144.441 92.815C144.717 92.905 144.963 93.028 145.179 93.184L144.837 93.823C144.651 93.697 144.453 93.595 144.243 93.517C144.039 93.433 143.829 93.391 143.613 93.391C143.355 93.391 143.151 93.436 143.001 93.526C142.851 93.61 142.776 93.748 142.776 93.94C142.776 94.06 142.821 94.156 142.911 94.228C143.001 94.3 143.154 94.354 143.37 94.39L144.081 94.525C144.477 94.603 144.78 94.735 144.99 94.921C145.206 95.107 145.314 95.377 145.314 95.731C145.314 96.127 145.161 96.454 144.855 96.712C144.549 96.964 144.099 97.09 143.505 97.09Z" fill="#C75E4B"/>
<path d="M274.968 49.8085C275.074 49.7197 275.232 49.7335 275.32 49.8393C275.409 49.9451 275.395 50.1028 275.29 50.1915L274.968 49.8085ZM268.979 55.3913C268.841 55.3793 268.739 55.2581 268.752 55.1205L268.948 52.8791C268.96 52.7415 269.081 52.6398 269.218 52.6518C269.356 52.6638 269.458 52.7851 269.446 52.9227L269.271 54.915L271.264 55.0894C271.401 55.1014 271.503 55.2226 271.491 55.3602C271.479 55.4977 271.358 55.5995 271.22 55.5874L268.979 55.3913ZM275.29 50.1915L269.161 55.3338L268.84 54.9508L274.968 49.8085L275.29 50.1915Z" fill="#747FA6"/>
<path d="M277.711 50V43.988H280.492C280.966 43.988 281.359 44.042 281.671 44.15C281.989 44.252 282.229 44.417 282.391 44.645C282.553 44.873 282.634 45.173 282.634 45.545C282.634 45.899 282.559 46.187 282.409 46.409C282.265 46.631 282.022 46.793 281.68 46.895C282.082 46.991 282.37 47.159 282.544 47.399C282.724 47.639 282.814 47.954 282.814 48.344C282.814 48.938 282.622 49.364 282.238 49.622C281.86 49.874 281.278 50 280.492 50H277.711ZM278.611 49.235H280.366C280.744 49.235 281.044 49.202 281.266 49.136C281.488 49.07 281.647 48.965 281.743 48.821C281.839 48.677 281.887 48.488 281.887 48.254C281.887 48.014 281.839 47.822 281.743 47.678C281.647 47.534 281.488 47.429 281.266 47.363C281.044 47.297 280.744 47.264 280.366 47.264H278.611V49.235ZM278.611 46.535H280.366C280.864 46.535 281.212 46.469 281.41 46.337C281.608 46.205 281.707 45.974 281.707 45.644C281.707 45.308 281.608 45.074 281.41 44.942C281.212 44.81 280.864 44.744 280.366 44.744H278.611V46.535ZM283.924 50V45.77H284.743V46.508C284.851 46.244 285.007 46.046 285.211 45.914C285.421 45.782 285.655 45.716 285.913 45.716C285.997 45.716 286.072 45.722 286.138 45.734C286.21 45.74 286.267 45.752 286.309 45.77V46.571C286.225 46.553 286.141 46.541 286.057 46.535C285.979 46.523 285.901 46.517 285.823 46.517C285.523 46.517 285.271 46.643 285.067 46.895C284.869 47.141 284.77 47.495 284.77 47.957V50H283.924ZM289.007 50.09C288.581 50.09 288.197 50.006 287.855 49.838C287.519 49.664 287.252 49.415 287.054 49.091C286.856 48.761 286.757 48.359 286.757 47.885C286.757 47.435 286.85 47.045 287.036 46.715C287.228 46.385 287.483 46.13 287.801 45.95C288.125 45.77 288.485 45.68 288.881 45.68C289.301 45.68 289.661 45.761 289.961 45.923C290.267 46.079 290.504 46.295 290.672 46.571C290.84 46.847 290.924 47.159 290.924 47.507C290.924 47.609 290.909 47.72 290.879 47.84C290.855 47.96 290.819 48.056 290.771 48.128H287.621C287.651 48.392 287.729 48.617 287.855 48.803C287.981 48.989 288.149 49.13 288.359 49.226C288.569 49.316 288.812 49.361 289.088 49.361C289.364 49.361 289.607 49.319 289.817 49.235C290.033 49.151 290.24 49.031 290.438 48.875L290.744 49.505C290.51 49.697 290.246 49.844 289.952 49.946C289.664 50.042 289.349 50.09 289.007 50.09ZM287.621 47.471H290.042C290.048 47.459 290.051 47.447 290.051 47.435C290.051 47.417 290.051 47.399 290.051 47.381C290.051 47.183 290.009 47.012 289.925 46.868C289.841 46.718 289.715 46.601 289.547 46.517C289.379 46.433 289.166 46.391 288.908 46.391C288.704 46.391 288.512 46.436 288.332 46.526C288.158 46.61 288.008 46.733 287.882 46.895C287.762 47.051 287.675 47.243 287.621 47.471ZM293.369 50.09C293.057 50.09 292.781 50.042 292.541 49.946C292.307 49.844 292.124 49.7 291.992 49.514C291.86 49.322 291.794 49.091 291.794 48.821C291.794 48.551 291.86 48.329 291.992 48.155C292.124 47.975 292.31 47.834 292.55 47.732C292.79 47.624 293.063 47.552 293.369 47.516L294.863 47.336C294.827 47.018 294.707 46.784 294.503 46.634C294.299 46.484 294.047 46.409 293.747 46.409C293.543 46.409 293.33 46.451 293.108 46.535C292.892 46.613 292.661 46.739 292.415 46.913L292.1 46.274C292.334 46.088 292.592 45.944 292.874 45.842C293.162 45.734 293.459 45.68 293.765 45.68C294.407 45.68 294.893 45.827 295.223 46.121C295.559 46.409 295.727 46.844 295.727 47.426V50H294.908V49.388C294.752 49.622 294.542 49.799 294.278 49.919C294.02 50.033 293.717 50.09 293.369 50.09ZM293.567 49.37C293.849 49.37 294.086 49.316 294.278 49.208C294.476 49.094 294.623 48.944 294.719 48.758C294.821 48.572 294.872 48.377 294.872 48.173V47.984L293.612 48.146C293.3 48.188 293.063 48.257 292.901 48.353C292.739 48.443 292.658 48.59 292.658 48.794C292.658 48.98 292.739 49.124 292.901 49.226C293.063 49.322 293.285 49.37 293.567 49.37ZM297.064 50V43.988H297.91V47.759L299.908 45.77H300.943L299.179 47.498L301.033 50H299.998L298.585 48.083L297.91 48.74V50H297.064ZM300.969 47.768V47.084H303.408V47.768H300.969ZM304.553 50V43.988H308.72V44.762H305.453V46.535H308.45V47.273H305.453V49.226H308.72V50H304.553ZM311.111 50L309.419 45.77H310.328L311.579 49.118L312.83 45.77H313.748L312.047 50H311.111ZM316.289 50.09C315.863 50.09 315.479 50.006 315.137 49.838C314.801 49.664 314.534 49.415 314.336 49.091C314.138 48.761 314.039 48.359 314.039 47.885C314.039 47.435 314.132 47.045 314.318 46.715C314.51 46.385 314.765 46.13 315.083 45.95C315.407 45.77 315.767 45.68 316.163 45.68C316.583 45.68 316.943 45.761 317.243 45.923C317.549 46.079 317.786 46.295 317.954 46.571C318.122 46.847 318.206 47.159 318.206 47.507C318.206 47.609 318.191 47.72 318.161 47.84C318.137 47.96 318.101 48.056 318.053 48.128H314.903C314.933 48.392 315.011 48.617 315.137 48.803C315.263 48.989 315.431 49.13 315.641 49.226C315.851 49.316 316.094 49.361 316.37 49.361C316.646 49.361 316.889 49.319 317.099 49.235C317.315 49.151 317.522 49.031 317.72 48.875L318.026 49.505C317.792 49.697 317.528 49.844 317.234 49.946C316.946 50.042 316.631 50.09 316.289 50.09ZM314.903 47.471H317.324C317.33 47.459 317.333 47.447 317.333 47.435C317.333 47.417 317.333 47.399 317.333 47.381C317.333 47.183 317.291 47.012 317.207 46.868C317.123 46.718 316.997 46.601 316.829 46.517C316.661 46.433 316.448 46.391 316.19 46.391C315.986 46.391 315.794 46.436 315.614 46.526C315.44 46.61 315.29 46.733 315.164 46.895C315.044 47.051 314.957 47.243 314.903 47.471ZM319.309 50V45.77H320.128V46.4C320.254 46.178 320.434 46.004 320.668 45.878C320.908 45.746 321.199 45.68 321.541 45.68C322.027 45.68 322.408 45.818 322.684 46.094C322.96 46.37 323.098 46.802 323.098 47.39V50H322.243V47.498C322.243 47.12 322.165 46.847 322.009 46.679C321.859 46.505 321.628 46.418 321.316 46.418C320.95 46.418 320.665 46.544 320.461 46.796C320.257 47.048 320.155 47.393 320.155 47.831V50H319.309ZM327.432 50.9L327.639 49.982C327.417 49.916 327.201 49.826 326.991 49.712C326.787 49.598 326.583 49.454 326.379 49.28L326.739 48.569C326.931 48.725 327.117 48.854 327.297 48.956C327.477 49.052 327.654 49.13 327.828 49.19L328.26 47.282L328.071 47.246C327.537 47.144 327.15 46.961 326.91 46.697C326.676 46.433 326.559 46.112 326.559 45.734C326.559 45.398 326.634 45.092 326.784 44.816C326.934 44.54 327.165 44.318 327.477 44.15C327.789 43.982 328.182 43.898 328.656 43.898C328.722 43.898 328.785 43.901 328.845 43.907C328.911 43.907 328.977 43.91 329.043 43.916L329.232 43.088H329.772L329.556 44.015C329.748 44.063 329.934 44.135 330.114 44.231C330.3 44.327 330.48 44.444 330.654 44.582L330.285 45.284C330.129 45.176 329.976 45.083 329.826 45.005C329.682 44.921 329.532 44.852 329.376 44.798L328.98 46.535L329.313 46.598C329.841 46.694 330.225 46.895 330.465 47.201C330.711 47.501 330.834 47.837 330.834 48.209C330.834 48.773 330.636 49.229 330.24 49.577C329.85 49.919 329.286 50.09 328.548 50.09C328.476 50.09 328.407 50.087 328.341 50.081C328.281 50.075 328.221 50.069 328.161 50.063L327.972 50.9H327.432ZM328.341 49.298C328.377 49.304 328.41 49.307 328.44 49.307C328.476 49.307 328.512 49.307 328.548 49.307C328.986 49.307 329.322 49.22 329.556 49.046C329.79 48.866 329.907 48.617 329.907 48.299C329.907 48.077 329.835 47.891 329.691 47.741C329.547 47.585 329.337 47.483 329.061 47.435L328.782 47.381L328.341 49.298ZM328.458 46.436L328.863 44.69C328.833 44.684 328.803 44.681 328.773 44.681C328.743 44.681 328.71 44.681 328.674 44.681C328.278 44.681 327.978 44.765 327.774 44.933C327.576 45.101 327.477 45.329 327.477 45.617C327.477 45.839 327.546 46.013 327.684 46.139C327.828 46.259 328.035 46.346 328.305 46.4L328.458 46.436ZM333.172 50V44.96L331.876 45.671L331.525 44.978L333.406 43.988H334.072V50H333.172ZM336.687 50V44.96L335.391 45.671L335.04 44.978L336.921 43.988H337.587V50H336.687ZM341.184 50.09C340.656 50.09 340.209 49.958 339.843 49.694C339.477 49.424 339.201 49.058 339.015 48.596C338.829 48.128 338.736 47.594 338.736 46.994C338.736 46.394 338.829 45.863 339.015 45.401C339.201 44.933 339.477 44.567 339.843 44.303C340.209 44.033 340.656 43.898 341.184 43.898C341.718 43.898 342.165 44.033 342.525 44.303C342.891 44.567 343.167 44.933 343.353 45.401C343.545 45.863 343.641 46.394 343.641 46.994C343.641 47.594 343.545 48.128 343.353 48.596C343.167 49.058 342.891 49.424 342.525 49.694C342.165 49.958 341.718 50.09 341.184 50.09ZM341.184 49.343C341.484 49.343 341.748 49.259 341.976 49.091C342.21 48.917 342.39 48.656 342.516 48.308C342.648 47.96 342.714 47.522 342.714 46.994C342.714 46.46 342.648 46.019 342.516 45.671C342.39 45.323 342.21 45.065 341.976 44.897C341.748 44.723 341.484 44.636 341.184 44.636C340.89 44.636 340.626 44.723 340.392 44.897C340.164 45.071 339.984 45.332 339.852 45.68C339.72 46.022 339.654 46.46 339.654 46.994C339.654 47.522 339.72 47.96 339.852 48.308C339.984 48.656 340.164 48.917 340.392 49.091C340.626 49.259 340.89 49.343 341.184 49.343Z" fill="#747FA6"/>
<line x1="47.5" y1="102.5" x2="204.5" y2="102.5" stroke="#C75E4B" stroke-linecap="round" stroke-dasharray="2 2"/>
<path d="M142.161 49.8085C142.055 49.7197 141.897 49.7335 141.808 49.8393C141.72 49.9451 141.734 50.1028 141.839 50.1915L142.161 49.8085ZM148.15 55.3913C148.288 55.3793 148.389 55.2581 148.377 55.1205L148.181 52.8791C148.169 52.7415 148.048 52.6398 147.91 52.6518C147.773 52.6638 147.671 52.7851 147.683 52.9227L147.858 54.915L145.865 55.0894C145.728 55.1014 145.626 55.2226 145.638 55.3602C145.65 55.4977 145.771 55.5995 145.909 55.5875L148.15 55.3913ZM141.839 50.1915L147.968 55.3338L148.289 54.9508L142.161 49.8085L141.839 50.1915Z" fill="#747FA6"/>
<path d="M75.711 51V44.988H78.492C78.966 44.988 79.359 45.042 79.671 45.15C79.989 45.252 80.229 45.417 80.391 45.645C80.553 45.873 80.634 46.173 80.634 46.545C80.634 46.899 80.559 47.187 80.409 47.409C80.265 47.631 80.022 47.793 79.68 47.895C80.082 47.991 80.37 48.159 80.544 48.399C80.724 48.639 80.814 48.954 80.814 49.344C80.814 49.938 80.622 50.364 80.238 50.622C79.86 50.874 79.278 51 78.492 51H75.711ZM76.611 50.235H78.366C78.744 50.235 79.044 50.202 79.266 50.136C79.488 50.07 79.647 49.965 79.743 49.821C79.839 49.677 79.887 49.488 79.887 49.254C79.887 49.014 79.839 48.822 79.743 48.678C79.647 48.534 79.488 48.429 79.266 48.363C79.044 48.297 78.744 48.264 78.366 48.264H76.611V50.235ZM76.611 47.535H78.366C78.864 47.535 79.212 47.469 79.41 47.337C79.608 47.205 79.707 46.974 79.707 46.644C79.707 46.308 79.608 46.074 79.41 45.942C79.212 45.81 78.864 45.744 78.366 45.744H76.611V47.535ZM81.924 51V46.77H82.743V47.508C82.851 47.244 83.007 47.046 83.211 46.914C83.421 46.782 83.655 46.716 83.913 46.716C83.997 46.716 84.072 46.722 84.138 46.734C84.21 46.74 84.267 46.752 84.309 46.77V47.571C84.225 47.553 84.141 47.541 84.057 47.535C83.979 47.523 83.901 47.517 83.823 47.517C83.523 47.517 83.271 47.643 83.067 47.895C82.869 48.141 82.77 48.495 82.77 48.957V51H81.924ZM87.0074 51.09C86.5814 51.09 86.1974 51.006 85.8554 50.838C85.5194 50.664 85.2524 50.415 85.0544 50.091C84.8564 49.761 84.7574 49.359 84.7574 48.885C84.7574 48.435 84.8504 48.045 85.0364 47.715C85.2284 47.385 85.4834 47.13 85.8014 46.95C86.1254 46.77 86.4854 46.68 86.8814 46.68C87.3014 46.68 87.6614 46.761 87.9614 46.923C88.2674 47.079 88.5044 47.295 88.6724 47.571C88.8404 47.847 88.9244 48.159 88.9244 48.507C88.9244 48.609 88.9094 48.72 88.8794 48.84C88.8554 48.96 88.8194 49.056 88.7714 49.128H85.6214C85.6514 49.392 85.7294 49.617 85.8554 49.803C85.9814 49.989 86.1494 50.13 86.3594 50.226C86.5694 50.316 86.8124 50.361 87.0884 50.361C87.3644 50.361 87.6074 50.319 87.8174 50.235C88.0334 50.151 88.2404 50.031 88.4384 49.875L88.7444 50.505C88.5104 50.697 88.2464 50.844 87.9524 50.946C87.6644 51.042 87.3494 51.09 87.0074 51.09ZM85.6214 48.471H88.0424C88.0484 48.459 88.0514 48.447 88.0514 48.435C88.0514 48.417 88.0514 48.399 88.0514 48.381C88.0514 48.183 88.0094 48.012 87.9254 47.868C87.8414 47.718 87.7154 47.601 87.5474 47.517C87.3794 47.433 87.1664 47.391 86.9084 47.391C86.7044 47.391 86.5124 47.436 86.3324 47.526C86.1584 47.61 86.0084 47.733 85.8824 47.895C85.7624 48.051 85.6754 48.243 85.6214 48.471ZM91.3685 51.09C91.0565 51.09 90.7805 51.042 90.5405 50.946C90.3065 50.844 90.1235 50.7 89.9915 50.514C89.8595 50.322 89.7935 50.091 89.7935 49.821C89.7935 49.551 89.8595 49.329 89.9915 49.155C90.1235 48.975 90.3095 48.834 90.5495 48.732C90.7895 48.624 91.0625 48.552 91.3685 48.516L92.8625 48.336C92.8265 48.018 92.7065 47.784 92.5025 47.634C92.2985 47.484 92.0465 47.409 91.7465 47.409C91.5425 47.409 91.3295 47.451 91.1075 47.535C90.8915 47.613 90.6605 47.739 90.4145 47.913L90.0995 47.274C90.3335 47.088 90.5915 46.944 90.8735 46.842C91.1615 46.734 91.4585 46.68 91.7645 46.68C92.4065 46.68 92.8925 46.827 93.2225 47.121C93.5585 47.409 93.7265 47.844 93.7265 48.426V51H92.9075V50.388C92.7515 50.622 92.5415 50.799 92.2775 50.919C92.0195 51.033 91.7165 51.09 91.3685 51.09ZM91.5665 50.37C91.8485 50.37 92.0855 50.316 92.2775 50.208C92.4755 50.094 92.6225 49.944 92.7185 49.758C92.8205 49.572 92.8715 49.377 92.8715 49.173V48.984L91.6115 49.146C91.2995 49.188 91.0625 49.257 90.9005 49.353C90.7385 49.443 90.6575 49.59 90.6575 49.794C90.6575 49.98 90.7385 50.124 90.9005 50.226C91.0625 50.322 91.2845 50.37 91.5665 50.37ZM95.0637 51V44.988H95.9097V48.759L97.9077 46.77H98.9427L97.1787 48.498L99.0327 51H97.9977L96.5847 49.083L95.9097 49.74V51H95.0637ZM98.9693 48.768V48.084H101.408V48.768H98.9693ZM102.553 51V44.988H106.72V45.762H103.453V47.535H106.45V48.273H103.453V50.226H106.72V51H102.553ZM109.111 51L107.419 46.77H108.328L109.579 50.118L110.83 46.77H111.748L110.047 51H109.111ZM114.289 51.09C113.863 51.09 113.479 51.006 113.137 50.838C112.801 50.664 112.534 50.415 112.336 50.091C112.138 49.761 112.039 49.359 112.039 48.885C112.039 48.435 112.132 48.045 112.318 47.715C112.51 47.385 112.765 47.13 113.083 46.95C113.407 46.77 113.767 46.68 114.163 46.68C114.583 46.68 114.943 46.761 115.243 46.923C115.549 47.079 115.786 47.295 115.954 47.571C116.122 47.847 116.206 48.159 116.206 48.507C116.206 48.609 116.191 48.72 116.161 48.84C116.137 48.96 116.101 49.056 116.053 49.128H112.903C112.933 49.392 113.011 49.617 113.137 49.803C113.263 49.989 113.431 50.13 113.641 50.226C113.851 50.316 114.094 50.361 114.37 50.361C114.646 50.361 114.889 50.319 115.099 50.235C115.315 50.151 115.522 50.031 115.72 49.875L116.026 50.505C115.792 50.697 115.528 50.844 115.234 50.946C114.946 51.042 114.631 51.09 114.289 51.09ZM112.903 48.471H115.324C115.33 48.459 115.333 48.447 115.333 48.435C115.333 48.417 115.333 48.399 115.333 48.381C115.333 48.183 115.291 48.012 115.207 47.868C115.123 47.718 114.997 47.601 114.829 47.517C114.661 47.433 114.448 47.391 114.19 47.391C113.986 47.391 113.794 47.436 113.614 47.526C113.44 47.61 113.29 47.733 113.164 47.895C113.044 48.051 112.957 48.243 112.903 48.471ZM117.309 51V46.77H118.128V47.4C118.254 47.178 118.434 47.004 118.668 46.878C118.908 46.746 119.199 46.68 119.541 46.68C120.027 46.68 120.408 46.818 120.684 47.094C120.96 47.37 121.098 47.802 121.098 48.39V51H120.243V48.498C120.243 48.12 120.165 47.847 120.009 47.679C119.859 47.505 119.628 47.418 119.316 47.418C118.95 47.418 118.665 47.544 118.461 47.796C118.257 48.048 118.155 48.393 118.155 48.831V51H117.309ZM125.432 51.9L125.639 50.982C125.417 50.916 125.201 50.826 124.991 50.712C124.787 50.598 124.583 50.454 124.379 50.28L124.739 49.569C124.931 49.725 125.117 49.854 125.297 49.956C125.477 50.052 125.654 50.13 125.828 50.19L126.26 48.282L126.071 48.246C125.537 48.144 125.15 47.961 124.91 47.697C124.676 47.433 124.559 47.112 124.559 46.734C124.559 46.398 124.634 46.092 124.784 45.816C124.934 45.54 125.165 45.318 125.477 45.15C125.789 44.982 126.182 44.898 126.656 44.898C126.722 44.898 126.785 44.901 126.845 44.907C126.911 44.907 126.977 44.91 127.043 44.916L127.232 44.088H127.772L127.556 45.015C127.748 45.063 127.934 45.135 128.114 45.231C128.3 45.327 128.48 45.444 128.654 45.582L128.285 46.284C128.129 46.176 127.976 46.083 127.826 46.005C127.682 45.921 127.532 45.852 127.376 45.798L126.98 47.535L127.313 47.598C127.841 47.694 128.225 47.895 128.465 48.201C128.711 48.501 128.834 48.837 128.834 49.209C128.834 49.773 128.636 50.229 128.24 50.577C127.85 50.919 127.286 51.09 126.548 51.09C126.476 51.09 126.407 51.087 126.341 51.081C126.281 51.075 126.221 51.069 126.161 51.063L125.972 51.9H125.432ZM126.341 50.298C126.377 50.304 126.41 50.307 126.44 50.307C126.476 50.307 126.512 50.307 126.548 50.307C126.986 50.307 127.322 50.22 127.556 50.046C127.79 49.866 127.907 49.617 127.907 49.299C127.907 49.077 127.835 48.891 127.691 48.741C127.547 48.585 127.337 48.483 127.061 48.435L126.782 48.381L126.341 50.298ZM126.458 47.436L126.863 45.69C126.833 45.684 126.803 45.681 126.773 45.681C126.743 45.681 126.71 45.681 126.674 45.681C126.278 45.681 125.978 45.765 125.774 45.933C125.576 46.101 125.477 46.329 125.477 46.617C125.477 46.839 125.546 47.013 125.684 47.139C125.828 47.259 126.035 47.346 126.305 47.4L126.458 47.436ZM131.73 51.09C131.346 51.09 130.995 51.021 130.677 50.883C130.365 50.739 130.095 50.538 129.867 50.28L130.209 49.686C130.443 49.908 130.68 50.073 130.92 50.181C131.16 50.289 131.403 50.343 131.649 50.343C131.967 50.343 132.255 50.271 132.513 50.127C132.777 49.977 132.987 49.743 133.143 49.425C133.305 49.107 133.395 48.693 133.413 48.183C133.263 48.399 133.053 48.57 132.783 48.696C132.519 48.822 132.207 48.885 131.847 48.885C131.397 48.885 131.01 48.801 130.686 48.633C130.368 48.465 130.125 48.234 129.957 47.94C129.789 47.646 129.705 47.307 129.705 46.923C129.705 46.539 129.795 46.194 129.975 45.888C130.155 45.582 130.41 45.342 130.74 45.168C131.076 44.988 131.472 44.898 131.928 44.898C132.426 44.898 132.852 44.997 133.206 45.195C133.566 45.393 133.845 45.693 134.043 46.095C134.241 46.497 134.34 47.01 134.34 47.634C134.34 48.324 134.244 48.93 134.052 49.452C133.86 49.968 133.572 50.37 133.188 50.658C132.804 50.946 132.318 51.09 131.73 51.09ZM132.018 48.183C132.456 48.183 132.798 48.072 133.044 47.85C133.29 47.622 133.413 47.31 133.413 46.914C133.353 46.536 133.212 46.23 132.99 45.996C132.768 45.756 132.444 45.636 132.018 45.636C131.586 45.636 131.244 45.75 130.992 45.978C130.746 46.206 130.623 46.515 130.623 46.905C130.623 47.307 130.746 47.622 130.992 47.85C131.244 48.072 131.586 48.183 132.018 48.183ZM137.663 51.09C137.135 51.09 136.688 50.958 136.322 50.694C135.956 50.424 135.68 50.058 135.494 49.596C135.308 49.128 135.215 48.594 135.215 47.994C135.215 47.394 135.308 46.863 135.494 46.401C135.68 45.933 135.956 45.567 136.322 45.303C136.688 45.033 137.135 44.898 137.663 44.898C138.197 44.898 138.644 45.033 139.004 45.303C139.37 45.567 139.646 45.933 139.832 46.401C140.024 46.863 140.12 47.394 140.12 47.994C140.12 48.594 140.024 49.128 139.832 49.596C139.646 50.058 139.37 50.424 139.004 50.694C138.644 50.958 138.197 51.09 137.663 51.09ZM137.663 50.343C137.963 50.343 138.227 50.259 138.455 50.091C138.689 49.917 138.869 49.656 138.995 49.308C139.127 48.96 139.193 48.522 139.193 47.994C139.193 47.46 139.127 47.019 138.995 46.671C138.869 46.323 138.689 46.065 138.455 45.897C138.227 45.723 137.963 45.636 137.663 45.636C137.369 45.636 137.105 45.723 136.871 45.897C136.643 46.071 136.463 46.332 136.331 46.68C136.199 47.022 136.133 47.46 136.133 47.994C136.133 48.522 136.199 48.96 136.331 49.308C136.463 49.656 136.643 49.917 136.871 50.091C137.105 50.259 137.369 50.343 137.663 50.343Z" fill="#747FA6"/>
<path opacity="0.05" d="M255 59H166L210.5 104L255 59Z" fill="#C75E4B"/>
<path opacity="0.05" d="M298 58.25V16L256 58.25H298Z" fill="#46956A"/>
<path d="M122.5 15.5L123.994 21.0768L128.077 16.9943L122.5 15.5ZM165.5 58.5L165.146 58.8536L165.15 58.8575L165.5 58.5ZM210.5 102.5L210.15 102.858L210.5 103.199L210.85 102.858L210.5 102.5ZM255.5 58.5L255.85 58.8575L255.854 58.8536L255.5 58.5ZM298.5 15.5L292.923 16.9943L297.006 21.0768L298.5 15.5ZM125.328 19.0355L165.146 58.8536L165.854 58.1464L126.036 18.3284L125.328 19.0355ZM165.15 58.8575L210.15 102.858L210.85 102.142L165.85 58.1425L165.15 58.8575ZM210.85 102.858L255.85 58.8575L255.15 58.1425L210.15 102.142L210.85 102.858ZM255.854 58.8536L295.672 19.0355L294.964 18.3284L255.146 58.1464L255.854 58.8536Z" fill="#C75E4B"/>
<path opacity="0.05" d="M123 58V16L165 58H123Z" fill="#46956A"/>
<path d="M298.5 15.5L292.923 16.9943L297.006 21.0768L298.5 15.5ZM255.854 58.8536L295.672 19.0355L294.964 18.3284L255.146 58.1464L255.854 58.8536Z" fill="#46956A"/>
<path d="M122.5 15.5L123.994 21.0768L128.077 16.9943L122.5 15.5ZM125.328 19.0355L165.146 58.8536L165.854 58.1464L126.036 18.3284L125.328 19.0355Z" fill="#46956A"/>
</svg>
