<svg width="382" height="115" viewBox="0 0 382 115" fill="none" xmlns="http://www.w3.org/2000/svg">
<path opacity="0.05" d="M151 98.5L124 58H277.75L247 98.5H151Z" fill="#C75E4B"/>
<path opacity="0.05" d="M103 28L123.5 58H103V28Z" fill="#46956A"/>
<path opacity="0.05" d="M301 58V27L278 58H301Z" fill="#46956A"/>
<path d="M302.711 9V2.988H304.133L306.068 7.884L308.012 2.988H309.434V9H308.525V3.879L306.464 9H305.672L303.611 3.879V9H302.711ZM312.163 9.09C311.851 9.09 311.575 9.042 311.335 8.946C311.101 8.844 310.918 8.7 310.786 8.514C310.654 8.322 310.588 8.091 310.588 7.821C310.588 7.551 310.654 7.329 310.786 7.155C310.918 6.975 311.104 6.834 311.344 6.732C311.584 6.624 311.857 6.552 312.163 6.516L313.657 6.336C313.621 6.018 313.501 5.784 313.297 5.634C313.093 5.484 312.841 5.409 312.541 5.409C312.337 5.409 312.124 5.451 311.902 5.535C311.686 5.613 311.455 5.739 311.209 5.913L310.894 5.274C311.128 5.088 311.386 4.944 311.668 4.842C311.956 4.734 312.253 4.68 312.559 4.68C313.201 4.68 313.687 4.827 314.017 5.121C314.353 5.409 314.521 5.844 314.521 6.426V9H313.702V8.388C313.546 8.622 313.336 8.799 313.072 8.919C312.814 9.033 312.511 9.09 312.163 9.09ZM312.361 8.37C312.643 8.37 312.88 8.316 313.072 8.208C313.27 8.094 313.417 7.944 313.513 7.758C313.615 7.572 313.666 7.377 313.666 7.173V6.984L312.406 7.146C312.094 7.188 311.857 7.257 311.695 7.353C311.533 7.443 311.452 7.59 311.452 7.794C311.452 7.98 311.533 8.124 311.695 8.226C311.857 8.322 312.079 8.37 312.361 8.37ZM314.996 9L316.616 6.813L315.086 4.77H316.067L317.156 6.291L318.254 4.77H319.235L317.705 6.813L319.325 9H318.344L317.156 7.389L315.977 9H314.996ZM322.434 9V2.988H324.828C325.566 2.988 326.121 3.144 326.493 3.456C326.865 3.768 327.051 4.242 327.051 4.878C327.051 5.514 326.865 5.988 326.493 6.3C326.121 6.606 325.566 6.759 324.828 6.759H323.334V9H322.434ZM323.334 6.003H324.657C325.137 6.003 325.503 5.919 325.755 5.751C326.007 5.583 326.133 5.292 326.133 4.878C326.133 4.458 326.01 4.164 325.764 3.996C325.524 3.828 325.155 3.744 324.657 3.744H323.334V6.003ZM328.163 9V4.77H328.982V5.508C329.09 5.244 329.246 5.046 329.45 4.914C329.66 4.782 329.894 4.716 330.152 4.716C330.236 4.716 330.311 4.722 330.377 4.734C330.449 4.74 330.506 4.752 330.548 4.77V5.571C330.464 5.553 330.38 5.541 330.296 5.535C330.218 5.523 330.14 5.517 330.062 5.517C329.762 5.517 329.51 5.643 329.306 5.895C329.108 6.141 329.009 6.495 329.009 6.957V9H328.163ZM333.211 9.09C332.779 9.09 332.395 9 332.059 8.82C331.723 8.634 331.462 8.376 331.276 8.046C331.09 7.716 330.997 7.329 330.997 6.885C330.997 6.441 331.09 6.054 331.276 5.724C331.462 5.394 331.723 5.139 332.059 4.959C332.395 4.773 332.779 4.68 333.211 4.68C333.649 4.68 334.033 4.773 334.363 4.959C334.699 5.139 334.96 5.394 335.146 5.724C335.338 6.054 335.434 6.441 335.434 6.885C335.434 7.329 335.338 7.716 335.146 8.046C334.96 8.376 334.699 8.634 334.363 8.82C334.033 9 333.649 9.09 333.211 9.09ZM333.211 8.343C333.481 8.343 333.718 8.286 333.922 8.172C334.126 8.052 334.282 7.884 334.39 7.668C334.504 7.446 334.561 7.185 334.561 6.885C334.561 6.585 334.504 6.327 334.39 6.111C334.282 5.889 334.126 5.718 333.922 5.598C333.718 5.478 333.481 5.418 333.211 5.418C332.941 5.418 332.704 5.478 332.5 5.598C332.302 5.718 332.146 5.889 332.032 6.111C331.918 6.327 331.861 6.585 331.861 6.885C331.861 7.185 331.918 7.446 332.032 7.668C332.146 7.884 332.302 8.052 332.5 8.172C332.704 8.286 332.941 8.343 333.211 8.343ZM337.007 9V5.49H336.08V4.77H337.007V4.212C337.007 3.774 337.112 3.453 337.322 3.249C337.538 3.039 337.868 2.934 338.312 2.934C338.426 2.934 338.543 2.94 338.663 2.952C338.783 2.964 338.879 2.982 338.951 3.006V3.69C338.897 3.678 338.822 3.669 338.726 3.663C338.636 3.657 338.555 3.654 338.483 3.654C338.267 3.654 338.108 3.708 338.006 3.816C337.904 3.918 337.853 4.071 337.853 4.275V4.77H338.951V5.49H337.853V9H337.007ZM339.844 9V4.77H340.69V9H339.844ZM340.267 3.897C340.111 3.897 339.985 3.852 339.889 3.762C339.799 3.672 339.754 3.555 339.754 3.411C339.754 3.267 339.799 3.15 339.889 3.06C339.985 2.97 340.111 2.925 340.267 2.925C340.417 2.925 340.54 2.97 340.636 3.06C340.732 3.15 340.78 3.267 340.78 3.411C340.78 3.555 340.732 3.672 340.636 3.762C340.54 3.852 340.417 3.897 340.267 3.897ZM343.814 9.054C343.37 9.054 343.04 8.952 342.824 8.748C342.614 8.538 342.509 8.214 342.509 7.776V5.49H341.582V4.77H342.509V3.564H343.355V4.77H344.453V5.49H343.355V7.704C343.355 7.914 343.406 8.07 343.508 8.172C343.61 8.274 343.769 8.325 343.985 8.325C344.057 8.325 344.138 8.322 344.228 8.316C344.324 8.31 344.399 8.301 344.453 8.289V8.973C344.381 8.997 344.285 9.015 344.165 9.027C344.045 9.045 343.928 9.054 343.814 9.054ZM305.24 20.09C304.46 20.09 303.842 19.883 303.386 19.469C302.936 19.055 302.711 18.416 302.711 17.552V13.988H303.611V17.552C303.611 17.954 303.674 18.284 303.8 18.542C303.932 18.8 304.118 18.989 304.358 19.109C304.604 19.229 304.898 19.289 305.24 19.289C305.582 19.289 305.873 19.229 306.113 19.109C306.359 18.989 306.545 18.8 306.671 18.542C306.803 18.284 306.869 17.954 306.869 17.552V13.988H307.778V17.552C307.778 18.416 307.55 19.055 307.094 19.469C306.644 19.883 306.026 20.09 305.24 20.09ZM309.153 20V15.77H309.972V16.4C310.098 16.178 310.278 16.004 310.512 15.878C310.752 15.746 311.043 15.68 311.385 15.68C311.871 15.68 312.252 15.818 312.528 16.094C312.804 16.37 312.942 16.802 312.942 17.39V20H312.087V17.498C312.087 17.12 312.009 16.847 311.853 16.679C311.703 16.505 311.472 16.418 311.16 16.418C310.794 16.418 310.509 16.544 310.305 16.796C310.101 17.048 309.999 17.393 309.999 17.831V20H309.153ZM314.285 20V13.988H315.131V20H314.285ZM316.483 20V15.77H317.329V20H316.483ZM316.906 14.897C316.75 14.897 316.624 14.852 316.528 14.762C316.438 14.672 316.393 14.555 316.393 14.411C316.393 14.267 316.438 14.15 316.528 14.06C316.624 13.97 316.75 13.925 316.906 13.925C317.056 13.925 317.179 13.97 317.275 14.06C317.371 14.15 317.419 14.267 317.419 14.411C317.419 14.555 317.371 14.672 317.275 14.762C317.179 14.852 317.056 14.897 316.906 14.897ZM318.68 20V15.77H319.499V16.328C319.619 16.124 319.784 15.965 319.994 15.851C320.204 15.737 320.459 15.68 320.759 15.68C321.065 15.68 321.323 15.746 321.533 15.878C321.749 16.004 321.911 16.181 322.019 16.409C322.151 16.169 322.337 15.989 322.577 15.869C322.823 15.743 323.108 15.68 323.432 15.68C323.906 15.68 324.281 15.818 324.557 16.094C324.833 16.37 324.971 16.802 324.971 17.39V20H324.116V17.498C324.116 17.12 324.041 16.847 323.891 16.679C323.747 16.505 323.534 16.418 323.252 16.418C322.922 16.418 322.67 16.544 322.496 16.796C322.328 17.048 322.244 17.393 322.244 17.831V20H321.389V17.498C321.389 17.12 321.314 16.847 321.164 16.679C321.02 16.505 320.81 16.418 320.534 16.418C320.204 16.418 319.952 16.544 319.778 16.796C319.61 17.048 319.526 17.393 319.526 17.831V20H318.68ZM326.309 20V15.77H327.155V20H326.309ZM326.732 14.897C326.576 14.897 326.45 14.852 326.354 14.762C326.264 14.672 326.219 14.555 326.219 14.411C326.219 14.267 326.264 14.15 326.354 14.06C326.45 13.97 326.576 13.925 326.732 13.925C326.882 13.925 327.005 13.97 327.101 14.06C327.197 14.15 327.245 14.267 327.245 14.411C327.245 14.555 327.197 14.672 327.101 14.762C327.005 14.852 326.882 14.897 326.732 14.897ZM330.279 20.054C329.835 20.054 329.505 19.952 329.289 19.748C329.079 19.538 328.974 19.214 328.974 18.776V16.49H328.047V15.77H328.974V14.564H329.82V15.77H330.918V16.49H329.82V18.704C329.82 18.914 329.871 19.07 329.973 19.172C330.075 19.274 330.234 19.325 330.45 19.325C330.522 19.325 330.603 19.322 330.693 19.316C330.789 19.31 330.864 19.301 330.918 19.289V19.973C330.846 19.997 330.75 20.015 330.63 20.027C330.51 20.045 330.393 20.054 330.279 20.054ZM333.967 20.09C333.541 20.09 333.157 20.006 332.815 19.838C332.479 19.664 332.212 19.415 332.014 19.091C331.816 18.761 331.717 18.359 331.717 17.885C331.717 17.435 331.81 17.045 331.996 16.715C332.188 16.385 332.443 16.13 332.761 15.95C333.085 15.77 333.445 15.68 333.841 15.68C334.261 15.68 334.621 15.761 334.921 15.923C335.227 16.079 335.464 16.295 335.632 16.571C335.8 16.847 335.884 17.159 335.884 17.507C335.884 17.609 335.869 17.72 335.839 17.84C335.815 17.96 335.779 18.056 335.731 18.128H332.581C332.611 18.392 332.689 18.617 332.815 18.803C332.941 18.989 333.109 19.13 333.319 19.226C333.529 19.316 333.772 19.361 334.048 19.361C334.324 19.361 334.567 19.319 334.777 19.235C334.993 19.151 335.2 19.031 335.398 18.875L335.704 19.505C335.47 19.697 335.206 19.844 334.912 19.946C334.624 20.042 334.309 20.09 333.967 20.09ZM332.581 17.471H335.002C335.008 17.459 335.011 17.447 335.011 17.435C335.011 17.417 335.011 17.399 335.011 17.381C335.011 17.183 334.969 17.012 334.885 16.868C334.801 16.718 334.675 16.601 334.507 16.517C334.339 16.433 334.126 16.391 333.868 16.391C333.664 16.391 333.472 16.436 333.292 16.526C333.118 16.61 332.968 16.733 332.842 16.895C332.722 17.051 332.635 17.243 332.581 17.471ZM338.779 20.09C338.395 20.09 338.05 20 337.744 19.82C337.438 19.64 337.195 19.385 337.015 19.055C336.841 18.725 336.754 18.335 336.754 17.885C336.754 17.429 336.841 17.036 337.015 16.706C337.195 16.376 337.438 16.124 337.744 15.95C338.05 15.77 338.395 15.68 338.779 15.68C339.115 15.68 339.409 15.746 339.661 15.878C339.913 16.004 340.108 16.172 340.246 16.382V13.988H341.101V20H340.282V19.325C340.15 19.553 339.955 19.739 339.697 19.883C339.439 20.021 339.133 20.09 338.779 20.09ZM338.958 19.343C339.217 19.343 339.445 19.286 339.643 19.172C339.841 19.052 339.997 18.884 340.111 18.668C340.225 18.446 340.282 18.185 340.282 17.885C340.282 17.585 340.225 17.327 340.111 17.111C339.997 16.889 339.841 16.718 339.643 16.598C339.445 16.478 339.217 16.418 338.958 16.418C338.701 16.418 338.47 16.478 338.266 16.598C338.068 16.718 337.912 16.889 337.798 17.111C337.684 17.327 337.627 17.585 337.627 17.885C337.627 18.185 337.684 18.446 337.798 18.668C337.912 18.884 338.068 19.052 338.266 19.172C338.464 19.286 338.694 19.343 338.958 19.343Z" fill="#46956A"/>
<line x1="33.5" y1="-2.18557e-08" x2="33.5" y2="115" stroke="#20224E"/>
<line x1="29" y1="98.5" x2="38" y2="98.5" stroke="#20224E"/>
<line x1="382" y1="57.5" x2="34" y2="57.5" stroke="#20224E"/>
<path d="M1.01424 99.768V99.084H3.45324V99.768H1.01424ZM5.38072 102.9L5.58772 101.982C5.36572 101.916 5.14972 101.826 4.93972 101.712C4.73572 101.598 4.53172 101.454 4.32772 101.28L4.68772 100.569C4.87972 100.725 5.06572 100.854 5.24572 100.956C5.42572 101.052 5.60272 101.13 5.77672 101.19L6.20872 99.282L6.01972 99.246C5.48572 99.144 5.09872 98.961 4.85872 98.697C4.62472 98.433 4.50772 98.112 4.50772 97.734C4.50772 97.398 4.58272 97.092 4.73272 96.816C4.88272 96.54 5.11372 96.318 5.42572 96.15C5.73772 95.982 6.13072 95.898 6.60472 95.898C6.67072 95.898 6.73372 95.901 6.79372 95.907C6.85972 95.907 6.92572 95.91 6.99172 95.916L7.18072 95.088H7.72072L7.50472 96.015C7.69672 96.063 7.88272 96.135 8.06272 96.231C8.24872 96.327 8.42872 96.444 8.60272 96.582L8.23372 97.284C8.07772 97.176 7.92472 97.083 7.77472 97.005C7.63072 96.921 7.48072 96.852 7.32472 96.798L6.92872 98.535L7.26172 98.598C7.78972 98.694 8.17372 98.895 8.41372 99.201C8.65972 99.501 8.78272 99.837 8.78272 100.209C8.78272 100.773 8.58472 101.229 8.18872 101.577C7.79872 101.919 7.23472 102.09 6.49672 102.09C6.42472 102.09 6.35572 102.087 6.28972 102.081C6.22972 102.075 6.16972 102.069 6.10972 102.063L5.92072 102.9H5.38072ZM6.28972 101.298C6.32572 101.304 6.35872 101.307 6.38872 101.307C6.42472 101.307 6.46072 101.307 6.49672 101.307C6.93472 101.307 7.27072 101.22 7.50472 101.046C7.73872 100.866 7.85572 100.617 7.85572 100.299C7.85572 100.077 7.78372 99.891 7.63972 99.741C7.49572 99.585 7.28572 99.483 7.00972 99.435L6.73072 99.381L6.28972 101.298ZM6.40672 98.436L6.81172 96.69C6.78172 96.684 6.75172 96.681 6.72172 96.681C6.69172 96.681 6.65872 96.681 6.62272 96.681C6.22672 96.681 5.92672 96.765 5.72272 96.933C5.52472 97.101 5.42572 97.329 5.42572 97.617C5.42572 97.839 5.49472 98.013 5.63272 98.139C5.77672 98.259 5.98372 98.346 6.25372 98.4L6.40672 98.436ZM11.7869 102.09C11.4689 102.09 11.1839 102.06 10.9319 102C10.6859 101.946 10.4609 101.859 10.2569 101.739C10.0529 101.613 9.85189 101.46 9.65389 101.28L10.0049 100.641C10.3049 100.893 10.5899 101.073 10.8599 101.181C11.1359 101.289 11.4149 101.343 11.6969 101.343C12.1349 101.343 12.4769 101.232 12.7229 101.01C12.9689 100.782 13.0919 100.47 13.0919 100.074C13.0919 99.678 12.9689 99.369 12.7229 99.147C12.4769 98.919 12.1349 98.805 11.6969 98.805C11.4029 98.805 11.1539 98.865 10.9499 98.985C10.7519 99.099 10.6139 99.267 10.5359 99.489L9.76189 99.345L10.3739 95.898H13.5689V96.636H11.0579L10.7249 98.445C10.8689 98.331 11.0399 98.247 11.2379 98.193C11.4359 98.133 11.6459 98.103 11.8679 98.103C12.3239 98.103 12.7109 98.187 13.0289 98.355C13.3469 98.517 13.5899 98.745 13.7579 99.039C13.9319 99.333 14.0189 99.672 14.0189 100.056C14.0189 100.44 13.9289 100.785 13.7489 101.091C13.5689 101.397 13.3109 101.64 12.9749 101.82C12.6449 102 12.2489 102.09 11.7869 102.09ZM17.3402 102.09C16.8122 102.09 16.3652 101.958 15.9992 101.694C15.6332 101.424 15.3572 101.058 15.1712 100.596C14.9852 100.128 14.8922 99.594 14.8922 98.994C14.8922 98.394 14.9852 97.863 15.1712 97.401C15.3572 96.933 15.6332 96.567 15.9992 96.303C16.3652 96.033 16.8122 95.898 17.3402 95.898C17.8742 95.898 18.3212 96.033 18.6812 96.303C19.0472 96.567 19.3232 96.933 19.5092 97.401C19.7012 97.863 19.7972 98.394 19.7972 98.994C19.7972 99.594 19.7012 100.128 19.5092 100.596C19.3232 101.058 19.0472 101.424 18.6812 101.694C18.3212 101.958 17.8742 102.09 17.3402 102.09ZM17.3402 101.343C17.6402 101.343 17.9042 101.259 18.1322 101.091C18.3662 100.917 18.5462 100.656 18.6722 100.308C18.8042 99.96 18.8702 99.522 18.8702 98.994C18.8702 98.46 18.8042 98.019 18.6722 97.671C18.5462 97.323 18.3662 97.065 18.1322 96.897C17.9042 96.723 17.6402 96.636 17.3402 96.636C17.0462 96.636 16.7822 96.723 16.5482 96.897C16.3202 97.071 16.1402 97.332 16.0082 97.68C15.8762 98.022 15.8102 98.46 15.8102 98.994C15.8102 99.522 15.8762 99.96 16.0082 100.308C16.1402 100.656 16.3202 100.917 16.5482 101.091C16.7822 101.259 17.0462 101.343 17.3402 101.343ZM23.1146 102.09C22.5866 102.09 22.1396 101.958 21.7736 101.694C21.4076 101.424 21.1316 101.058 20.9456 100.596C20.7596 100.128 20.6666 99.594 20.6666 98.994C20.6666 98.394 20.7596 97.863 20.9456 97.401C21.1316 96.933 21.4076 96.567 21.7736 96.303C22.1396 96.033 22.5866 95.898 23.1146 95.898C23.6486 95.898 24.0956 96.033 24.4556 96.303C24.8216 96.567 25.0976 96.933 25.2836 97.401C25.4756 97.863 25.5716 98.394 25.5716 98.994C25.5716 99.594 25.4756 100.128 25.2836 100.596C25.0976 101.058 24.8216 101.424 24.4556 101.694C24.0956 101.958 23.6486 102.09 23.1146 102.09ZM23.1146 101.343C23.4146 101.343 23.6786 101.259 23.9066 101.091C24.1406 100.917 24.3206 100.656 24.4466 100.308C24.5786 99.96 24.6446 99.522 24.6446 98.994C24.6446 98.46 24.5786 98.019 24.4466 97.671C24.3206 97.323 24.1406 97.065 23.9066 96.897C23.6786 96.723 23.4146 96.636 23.1146 96.636C22.8206 96.636 22.5566 96.723 22.3226 96.897C22.0946 97.071 21.9146 97.332 21.7826 97.68C21.6506 98.022 21.5846 98.46 21.5846 98.994C21.5846 99.522 21.6506 99.96 21.7826 100.308C21.9146 100.656 22.0946 100.917 22.3226 101.091C22.5566 101.259 22.8206 101.343 23.1146 101.343Z" fill="#747FA6"/>
<line x1="102.5" y1="53" x2="102.5" y2="62" stroke="#20224E"/>
<path d="M95.9564 73.9L96.1634 72.982C95.9414 72.916 95.7254 72.826 95.5154 72.712C95.3114 72.598 95.1074 72.454 94.9034 72.28L95.2634 71.569C95.4554 71.725 95.6414 71.854 95.8214 71.956C96.0014 72.052 96.1784 72.13 96.3524 72.19L96.7844 70.282L96.5954 70.246C96.0614 70.144 95.6744 69.961 95.4344 69.697C95.2004 69.433 95.0834 69.112 95.0834 68.734C95.0834 68.398 95.1584 68.092 95.3084 67.816C95.4584 67.54 95.6894 67.318 96.0014 67.15C96.3134 66.982 96.7064 66.898 97.1804 66.898C97.2464 66.898 97.3094 66.901 97.3694 66.907C97.4354 66.907 97.5014 66.91 97.5674 66.916L97.7564 66.088H98.2964L98.0804 67.015C98.2724 67.063 98.4584 67.135 98.6384 67.231C98.8244 67.327 99.0044 67.444 99.1784 67.582L98.8094 68.284C98.6534 68.176 98.5004 68.083 98.3504 68.005C98.2064 67.921 98.0564 67.852 97.9004 67.798L97.5044 69.535L97.8374 69.598C98.3654 69.694 98.7494 69.895 98.9894 70.201C99.2354 70.501 99.3584 70.837 99.3584 71.209C99.3584 71.773 99.1604 72.229 98.7644 72.577C98.3744 72.919 97.8104 73.09 97.0724 73.09C97.0004 73.09 96.9314 73.087 96.8654 73.081C96.8054 73.075 96.7454 73.069 96.6854 73.063L96.4964 73.9H95.9564ZM96.8654 72.298C96.9014 72.304 96.9344 72.307 96.9644 72.307C97.0004 72.307 97.0364 72.307 97.0724 72.307C97.5104 72.307 97.8464 72.22 98.0804 72.046C98.3144 71.866 98.4314 71.617 98.4314 71.299C98.4314 71.077 98.3594 70.891 98.2154 70.741C98.0714 70.585 97.8614 70.483 97.5854 70.435L97.3064 70.381L96.8654 72.298ZM96.9824 69.436L97.3874 67.69C97.3574 67.684 97.3274 67.681 97.2974 67.681C97.2674 67.681 97.2344 67.681 97.1984 67.681C96.8024 67.681 96.5024 67.765 96.2984 67.933C96.1004 68.101 96.0014 68.329 96.0014 68.617C96.0014 68.839 96.0704 69.013 96.2084 69.139C96.3524 69.259 96.5594 69.346 96.8294 69.4L96.9824 69.436ZM102.543 73.09C102.057 73.09 101.64 73.015 101.292 72.865C100.944 72.715 100.68 72.511 100.5 72.253C100.32 71.995 100.23 71.698 100.23 71.362C100.23 71.026 100.326 70.729 100.518 70.471C100.71 70.207 101.013 70.018 101.427 69.904C101.049 69.784 100.77 69.604 100.59 69.364C100.41 69.124 100.32 68.848 100.32 68.536C100.32 68.218 100.407 67.936 100.581 67.69C100.761 67.444 101.016 67.252 101.346 67.114C101.682 66.97 102.081 66.898 102.543 66.898C103.011 66.898 103.41 66.97 103.74 67.114C104.076 67.252 104.331 67.444 104.505 67.69C104.685 67.936 104.775 68.218 104.775 68.536C104.775 68.848 104.682 69.124 104.496 69.364C104.31 69.604 104.031 69.784 103.659 69.904C104.073 70.018 104.376 70.207 104.568 70.471C104.766 70.729 104.865 71.026 104.865 71.362C104.865 71.698 104.772 71.995 104.586 72.253C104.406 72.511 104.145 72.715 103.803 72.865C103.461 73.015 103.041 73.09 102.543 73.09ZM102.543 72.361C102.993 72.361 103.338 72.262 103.578 72.064C103.818 71.866 103.938 71.614 103.938 71.308C103.938 70.99 103.818 70.735 103.578 70.543C103.338 70.351 102.993 70.255 102.543 70.255C102.093 70.255 101.748 70.351 101.508 70.543C101.268 70.735 101.148 70.99 101.148 71.308C101.148 71.614 101.268 71.866 101.508 72.064C101.748 72.262 102.093 72.361 102.543 72.361ZM102.543 69.553C102.957 69.553 103.278 69.469 103.506 69.301C103.734 69.133 103.848 68.896 103.848 68.59C103.848 68.284 103.734 68.047 103.506 67.879C103.278 67.711 102.957 67.627 102.543 67.627C102.135 67.627 101.814 67.711 101.58 67.879C101.352 68.047 101.238 68.284 101.238 68.59C101.238 68.89 101.352 69.127 101.58 69.301C101.814 69.469 102.135 69.553 102.543 69.553ZM107.873 73.09C107.555 73.09 107.27 73.06 107.018 73C106.772 72.946 106.547 72.859 106.343 72.739C106.139 72.613 105.938 72.46 105.74 72.28L106.091 71.641C106.391 71.893 106.676 72.073 106.946 72.181C107.222 72.289 107.501 72.343 107.783 72.343C108.221 72.343 108.563 72.232 108.809 72.01C109.055 71.782 109.178 71.47 109.178 71.074C109.178 70.678 109.055 70.369 108.809 70.147C108.563 69.919 108.221 69.805 107.783 69.805C107.489 69.805 107.24 69.865 107.036 69.985C106.838 70.099 106.7 70.267 106.622 70.489L105.848 70.345L106.46 66.898H109.655V67.636H107.144L106.811 69.445C106.955 69.331 107.126 69.247 107.324 69.193C107.522 69.133 107.732 69.103 107.954 69.103C108.41 69.103 108.797 69.187 109.115 69.355C109.433 69.517 109.676 69.745 109.844 70.039C110.018 70.333 110.105 70.672 110.105 71.056C110.105 71.44 110.015 71.785 109.835 72.091C109.655 72.397 109.397 72.64 109.061 72.82C108.731 73 108.335 73.09 107.873 73.09Z" fill="#747FA6"/>
<line x1="150.5" y1="53" x2="150.5" y2="62" stroke="#20224E"/>
<path d="M142.956 73.9L143.163 72.982C142.941 72.916 142.725 72.826 142.515 72.712C142.311 72.598 142.107 72.454 141.903 72.28L142.263 71.569C142.455 71.725 142.641 71.854 142.821 71.956C143.001 72.052 143.178 72.13 143.352 72.19L143.784 70.282L143.595 70.246C143.061 70.144 142.674 69.961 142.434 69.697C142.2 69.433 142.083 69.112 142.083 68.734C142.083 68.398 142.158 68.092 142.308 67.816C142.458 67.54 142.689 67.318 143.001 67.15C143.313 66.982 143.706 66.898 144.18 66.898C144.246 66.898 144.309 66.901 144.369 66.907C144.435 66.907 144.501 66.91 144.567 66.916L144.756 66.088H145.296L145.08 67.015C145.272 67.063 145.458 67.135 145.638 67.231C145.824 67.327 146.004 67.444 146.178 67.582L145.809 68.284C145.653 68.176 145.5 68.083 145.35 68.005C145.206 67.921 145.056 67.852 144.9 67.798L144.504 69.535L144.837 69.598C145.365 69.694 145.749 69.895 145.989 70.201C146.235 70.501 146.358 70.837 146.358 71.209C146.358 71.773 146.16 72.229 145.764 72.577C145.374 72.919 144.81 73.09 144.072 73.09C144 73.09 143.931 73.087 143.865 73.081C143.805 73.075 143.745 73.069 143.685 73.063L143.496 73.9H142.956ZM143.865 72.298C143.901 72.304 143.934 72.307 143.964 72.307C144 72.307 144.036 72.307 144.072 72.307C144.51 72.307 144.846 72.22 145.08 72.046C145.314 71.866 145.431 71.617 145.431 71.299C145.431 71.077 145.359 70.891 145.215 70.741C145.071 70.585 144.861 70.483 144.585 70.435L144.306 70.381L143.865 72.298ZM143.982 69.436L144.387 67.69C144.357 67.684 144.327 67.681 144.297 67.681C144.267 67.681 144.234 67.681 144.198 67.681C143.802 67.681 143.502 67.765 143.298 67.933C143.1 68.101 143.001 68.329 143.001 68.617C143.001 68.839 143.07 69.013 143.208 69.139C143.352 69.259 143.559 69.346 143.829 69.4L143.982 69.436ZM149.255 73.09C148.871 73.09 148.52 73.021 148.202 72.883C147.89 72.739 147.62 72.538 147.392 72.28L147.734 71.686C147.968 71.908 148.205 72.073 148.445 72.181C148.685 72.289 148.928 72.343 149.174 72.343C149.492 72.343 149.78 72.271 150.038 72.127C150.302 71.977 150.512 71.743 150.668 71.425C150.83 71.107 150.92 70.693 150.938 70.183C150.788 70.399 150.578 70.57 150.308 70.696C150.044 70.822 149.732 70.885 149.372 70.885C148.922 70.885 148.535 70.801 148.211 70.633C147.893 70.465 147.65 70.234 147.482 69.94C147.314 69.646 147.23 69.307 147.23 68.923C147.23 68.539 147.32 68.194 147.5 67.888C147.68 67.582 147.935 67.342 148.265 67.168C148.601 66.988 148.997 66.898 149.453 66.898C149.951 66.898 150.377 66.997 150.731 67.195C151.091 67.393 151.37 67.693 151.568 68.095C151.766 68.497 151.865 69.01 151.865 69.634C151.865 70.324 151.769 70.93 151.577 71.452C151.385 71.968 151.097 72.37 150.713 72.658C150.329 72.946 149.843 73.09 149.255 73.09ZM149.543 70.183C149.981 70.183 150.323 70.072 150.569 69.85C150.815 69.622 150.938 69.31 150.938 68.914C150.878 68.536 150.737 68.23 150.515 67.996C150.293 67.756 149.969 67.636 149.543 67.636C149.111 67.636 148.769 67.75 148.517 67.978C148.271 68.206 148.148 68.515 148.148 68.905C148.148 69.307 148.271 69.622 148.517 69.85C148.769 70.072 149.111 70.183 149.543 70.183ZM154.873 73.09C154.555 73.09 154.27 73.06 154.018 73C153.772 72.946 153.547 72.859 153.343 72.739C153.139 72.613 152.938 72.46 152.74 72.28L153.091 71.641C153.391 71.893 153.676 72.073 153.946 72.181C154.222 72.289 154.501 72.343 154.783 72.343C155.221 72.343 155.563 72.232 155.809 72.01C156.055 71.782 156.178 71.47 156.178 71.074C156.178 70.678 156.055 70.369 155.809 70.147C155.563 69.919 155.221 69.805 154.783 69.805C154.489 69.805 154.24 69.865 154.036 69.985C153.838 70.099 153.7 70.267 153.622 70.489L152.848 70.345L153.46 66.898H156.655V67.636H154.144L153.811 69.445C153.955 69.331 154.126 69.247 154.324 69.193C154.522 69.133 154.732 69.103 154.954 69.103C155.41 69.103 155.797 69.187 156.115 69.355C156.433 69.517 156.676 69.745 156.844 70.039C157.018 70.333 157.105 70.672 157.105 71.056C157.105 71.44 157.015 71.785 156.835 72.091C156.655 72.397 156.397 72.64 156.061 72.82C155.731 73 155.335 73.09 154.873 73.09Z" fill="#747FA6"/>
<path d="M75.963 93V86.988H77.385L79.32 91.884L81.264 86.988H82.686V93H81.777V87.879L79.716 93H78.924L76.863 87.879V93H75.963ZM85.4154 93.09C85.1034 93.09 84.8274 93.042 84.5874 92.946C84.3534 92.844 84.1704 92.7 84.0384 92.514C83.9064 92.322 83.8404 92.091 83.8404 91.821C83.8404 91.551 83.9064 91.329 84.0384 91.155C84.1704 90.975 84.3564 90.834 84.5964 90.732C84.8364 90.624 85.1094 90.552 85.4154 90.516L86.9094 90.336C86.8734 90.018 86.7534 89.784 86.5494 89.634C86.3454 89.484 86.0934 89.409 85.7934 89.409C85.5894 89.409 85.3764 89.451 85.1544 89.535C84.9384 89.613 84.7074 89.739 84.4614 89.913L84.1464 89.274C84.3804 89.088 84.6384 88.944 84.9204 88.842C85.2084 88.734 85.5054 88.68 85.8114 88.68C86.4534 88.68 86.9394 88.827 87.2694 89.121C87.6054 89.409 87.7734 89.844 87.7734 90.426V93H86.9544V92.388C86.7984 92.622 86.5884 92.799 86.3244 92.919C86.0664 93.033 85.7634 93.09 85.4154 93.09ZM85.6134 92.37C85.8954 92.37 86.1324 92.316 86.3244 92.208C86.5224 92.094 86.6694 91.944 86.7654 91.758C86.8674 91.572 86.9184 91.377 86.9184 91.173V90.984L85.6584 91.146C85.3464 91.188 85.1094 91.257 84.9474 91.353C84.7854 91.443 84.7044 91.59 84.7044 91.794C84.7044 91.98 84.7854 92.124 84.9474 92.226C85.1094 92.322 85.3314 92.37 85.6134 92.37ZM88.2475 93L89.8675 90.813L88.3375 88.77H89.3185L90.4075 90.291L91.5055 88.77H92.4865L90.9565 90.813L92.5765 93H91.5955L90.4075 91.389L89.2285 93H88.2475ZM95.6856 93V86.988H96.5856V92.199H99.4026V93H95.6856ZM102.27 93.09C101.838 93.09 101.454 93 101.118 92.82C100.782 92.634 100.521 92.376 100.335 92.046C100.149 91.716 100.056 91.329 100.056 90.885C100.056 90.441 100.149 90.054 100.335 89.724C100.521 89.394 100.782 89.139 101.118 88.959C101.454 88.773 101.838 88.68 102.27 88.68C102.708 88.68 103.092 88.773 103.422 88.959C103.758 89.139 104.019 89.394 104.205 89.724C104.397 90.054 104.493 90.441 104.493 90.885C104.493 91.329 104.397 91.716 104.205 92.046C104.019 92.376 103.758 92.634 103.422 92.82C103.092 93 102.708 93.09 102.27 93.09ZM102.27 92.343C102.54 92.343 102.777 92.286 102.981 92.172C103.185 92.052 103.341 91.884 103.449 91.668C103.563 91.446 103.62 91.185 103.62 90.885C103.62 90.585 103.563 90.327 103.449 90.111C103.341 89.889 103.185 89.718 102.981 89.598C102.777 89.478 102.54 89.418 102.27 89.418C102 89.418 101.763 89.478 101.559 89.598C101.361 89.718 101.205 89.889 101.091 90.111C100.977 90.327 100.92 90.585 100.92 90.885C100.92 91.185 100.977 91.446 101.091 91.668C101.205 91.884 101.361 92.052 101.559 92.172C101.763 92.286 102 92.343 102.27 92.343ZM107.093 93.09C106.769 93.09 106.466 93.042 106.184 92.946C105.902 92.844 105.629 92.7 105.365 92.514L105.716 91.848C105.98 92.022 106.223 92.154 106.445 92.244C106.673 92.334 106.895 92.379 107.111 92.379C107.417 92.379 107.645 92.334 107.795 92.244C107.951 92.148 108.029 92.007 108.029 91.821C108.029 91.665 107.981 91.551 107.885 91.479C107.795 91.401 107.633 91.341 107.399 91.299L106.679 91.164C106.289 91.092 105.995 90.963 105.797 90.777C105.599 90.585 105.5 90.339 105.5 90.039C105.5 89.793 105.56 89.568 105.68 89.364C105.806 89.154 105.992 88.989 106.238 88.869C106.484 88.743 106.793 88.68 107.165 88.68C107.471 88.68 107.759 88.725 108.029 88.815C108.305 88.905 108.551 89.028 108.767 89.184L108.425 89.823C108.239 89.697 108.041 89.595 107.831 89.517C107.627 89.433 107.417 89.391 107.201 89.391C106.943 89.391 106.739 89.436 106.589 89.526C106.439 89.61 106.364 89.748 106.364 89.94C106.364 90.06 106.409 90.156 106.499 90.228C106.589 90.3 106.742 90.354 106.958 90.39L107.669 90.525C108.065 90.603 108.368 90.735 108.578 90.921C108.794 91.107 108.902 91.377 108.902 91.731C108.902 92.127 108.749 92.454 108.443 92.712C108.137 92.964 107.687 93.09 107.093 93.09ZM111.505 93.09C111.181 93.09 110.878 93.042 110.596 92.946C110.314 92.844 110.041 92.7 109.777 92.514L110.128 91.848C110.392 92.022 110.635 92.154 110.857 92.244C111.085 92.334 111.307 92.379 111.523 92.379C111.829 92.379 112.057 92.334 112.207 92.244C112.363 92.148 112.441 92.007 112.441 91.821C112.441 91.665 112.393 91.551 112.297 91.479C112.207 91.401 112.045 91.341 111.811 91.299L111.091 91.164C110.701 91.092 110.407 90.963 110.209 90.777C110.011 90.585 109.912 90.339 109.912 90.039C109.912 89.793 109.972 89.568 110.092 89.364C110.218 89.154 110.404 88.989 110.65 88.869C110.896 88.743 111.205 88.68 111.577 88.68C111.883 88.68 112.171 88.725 112.441 88.815C112.717 88.905 112.963 89.028 113.179 89.184L112.837 89.823C112.651 89.697 112.453 89.595 112.243 89.517C112.039 89.433 111.829 89.391 111.613 89.391C111.355 89.391 111.151 89.436 111.001 89.526C110.851 89.61 110.776 89.748 110.776 89.94C110.776 90.06 110.821 90.156 110.911 90.228C111.001 90.3 111.154 90.354 111.37 90.39L112.081 90.525C112.477 90.603 112.78 90.735 112.99 90.921C113.206 91.107 113.314 91.377 113.314 91.731C113.314 92.127 113.161 92.454 112.855 92.712C112.549 92.964 112.099 93.09 111.505 93.09Z" fill="#C75E4B"/>
<line x1="199.5" y1="53" x2="199.5" y2="62" stroke="#20224E"/>
<path d="M189.799 73.9L190.006 72.982C189.784 72.916 189.568 72.826 189.358 72.712C189.154 72.598 188.95 72.454 188.746 72.28L189.106 71.569C189.298 71.725 189.484 71.854 189.664 71.956C189.844 72.052 190.021 72.13 190.195 72.19L190.627 70.282L190.438 70.246C189.904 70.144 189.517 69.961 189.277 69.697C189.043 69.433 188.926 69.112 188.926 68.734C188.926 68.398 189.001 68.092 189.151 67.816C189.301 67.54 189.532 67.318 189.844 67.15C190.156 66.982 190.549 66.898 191.023 66.898C191.089 66.898 191.152 66.901 191.212 66.907C191.278 66.907 191.344 66.91 191.41 66.916L191.599 66.088H192.139L191.923 67.015C192.115 67.063 192.301 67.135 192.481 67.231C192.667 67.327 192.847 67.444 193.021 67.582L192.652 68.284C192.496 68.176 192.343 68.083 192.193 68.005C192.049 67.921 191.899 67.852 191.743 67.798L191.347 69.535L191.68 69.598C192.208 69.694 192.592 69.895 192.832 70.201C193.078 70.501 193.201 70.837 193.201 71.209C193.201 71.773 193.003 72.229 192.607 72.577C192.217 72.919 191.653 73.09 190.915 73.09C190.843 73.09 190.774 73.087 190.708 73.081C190.648 73.075 190.588 73.069 190.528 73.063L190.339 73.9H189.799ZM190.708 72.298C190.744 72.304 190.777 72.307 190.807 72.307C190.843 72.307 190.879 72.307 190.915 72.307C191.353 72.307 191.689 72.22 191.923 72.046C192.157 71.866 192.274 71.617 192.274 71.299C192.274 71.077 192.202 70.891 192.058 70.741C191.914 70.585 191.704 70.483 191.428 70.435L191.149 70.381L190.708 72.298ZM190.825 69.436L191.23 67.69C191.2 67.684 191.17 67.681 191.14 67.681C191.11 67.681 191.077 67.681 191.041 67.681C190.645 67.681 190.345 67.765 190.141 67.933C189.943 68.101 189.844 68.329 189.844 68.617C189.844 68.839 189.913 69.013 190.051 69.139C190.195 69.259 190.402 69.346 190.672 69.4L190.825 69.436ZM195.539 73V67.96L194.243 68.671L193.892 67.978L195.773 66.988H196.439V73H195.539ZM200.035 73.09C199.507 73.09 199.06 72.958 198.694 72.694C198.328 72.424 198.052 72.058 197.866 71.596C197.68 71.128 197.587 70.594 197.587 69.994C197.587 69.394 197.68 68.863 197.866 68.401C198.052 67.933 198.328 67.567 198.694 67.303C199.06 67.033 199.507 66.898 200.035 66.898C200.569 66.898 201.016 67.033 201.376 67.303C201.742 67.567 202.018 67.933 202.204 68.401C202.396 68.863 202.492 69.394 202.492 69.994C202.492 70.594 202.396 71.128 202.204 71.596C202.018 72.058 201.742 72.424 201.376 72.694C201.016 72.958 200.569 73.09 200.035 73.09ZM200.035 72.343C200.335 72.343 200.599 72.259 200.827 72.091C201.061 71.917 201.241 71.656 201.367 71.308C201.499 70.96 201.565 70.522 201.565 69.994C201.565 69.46 201.499 69.019 201.367 68.671C201.241 68.323 201.061 68.065 200.827 67.897C200.599 67.723 200.335 67.636 200.035 67.636C199.741 67.636 199.477 67.723 199.243 67.897C199.015 68.071 198.835 68.332 198.703 68.68C198.571 69.022 198.505 69.46 198.505 69.994C198.505 70.522 198.571 70.96 198.703 71.308C198.835 71.656 199.015 71.917 199.243 72.091C199.477 72.259 199.741 72.343 200.035 72.343ZM205.81 73.09C205.282 73.09 204.835 72.958 204.469 72.694C204.103 72.424 203.827 72.058 203.641 71.596C203.455 71.128 203.362 70.594 203.362 69.994C203.362 69.394 203.455 68.863 203.641 68.401C203.827 67.933 204.103 67.567 204.469 67.303C204.835 67.033 205.282 66.898 205.81 66.898C206.344 66.898 206.791 67.033 207.151 67.303C207.517 67.567 207.793 67.933 207.979 68.401C208.171 68.863 208.267 69.394 208.267 69.994C208.267 70.594 208.171 71.128 207.979 71.596C207.793 72.058 207.517 72.424 207.151 72.694C206.791 72.958 206.344 73.09 205.81 73.09ZM205.81 72.343C206.11 72.343 206.374 72.259 206.602 72.091C206.836 71.917 207.016 71.656 207.142 71.308C207.274 70.96 207.34 70.522 207.34 69.994C207.34 69.46 207.274 69.019 207.142 68.671C207.016 68.323 206.836 68.065 206.602 67.897C206.374 67.723 206.11 67.636 205.81 67.636C205.516 67.636 205.252 67.723 205.018 67.897C204.79 68.071 204.61 68.332 204.478 68.68C204.346 69.022 204.28 69.46 204.28 69.994C204.28 70.522 204.346 70.96 204.478 71.308C204.61 71.656 204.79 71.917 205.018 72.091C205.252 72.259 205.516 72.343 205.81 72.343Z" fill="#747FA6"/>
<line x1="250.5" y1="53" x2="250.5" y2="63" stroke="#20224E"/>
<path d="M240.567 73.9L240.774 72.982C240.552 72.916 240.336 72.826 240.126 72.712C239.922 72.598 239.718 72.454 239.514 72.28L239.874 71.569C240.066 71.725 240.252 71.854 240.432 71.956C240.612 72.052 240.789 72.13 240.963 72.19L241.395 70.282L241.206 70.246C240.672 70.144 240.285 69.961 240.045 69.697C239.811 69.433 239.694 69.112 239.694 68.734C239.694 68.398 239.769 68.092 239.919 67.816C240.069 67.54 240.3 67.318 240.612 67.15C240.924 66.982 241.317 66.898 241.791 66.898C241.857 66.898 241.92 66.901 241.98 66.907C242.046 66.907 242.112 66.91 242.178 66.916L242.367 66.088H242.907L242.691 67.015C242.883 67.063 243.069 67.135 243.249 67.231C243.435 67.327 243.615 67.444 243.789 67.582L243.42 68.284C243.264 68.176 243.111 68.083 242.961 68.005C242.817 67.921 242.667 67.852 242.511 67.798L242.115 69.535L242.448 69.598C242.976 69.694 243.36 69.895 243.6 70.201C243.846 70.501 243.969 70.837 243.969 71.209C243.969 71.773 243.771 72.229 243.375 72.577C242.985 72.919 242.421 73.09 241.683 73.09C241.611 73.09 241.542 73.087 241.476 73.081C241.416 73.075 241.356 73.069 241.296 73.063L241.107 73.9H240.567ZM241.476 72.298C241.512 72.304 241.545 72.307 241.575 72.307C241.611 72.307 241.647 72.307 241.683 72.307C242.121 72.307 242.457 72.22 242.691 72.046C242.925 71.866 243.042 71.617 243.042 71.299C243.042 71.077 242.97 70.891 242.826 70.741C242.682 70.585 242.472 70.483 242.196 70.435L241.917 70.381L241.476 72.298ZM241.593 69.436L241.998 67.69C241.968 67.684 241.938 67.681 241.908 67.681C241.878 67.681 241.845 67.681 241.809 67.681C241.413 67.681 241.113 67.765 240.909 67.933C240.711 68.101 240.612 68.329 240.612 68.617C240.612 68.839 240.681 69.013 240.819 69.139C240.963 69.259 241.17 69.346 241.44 69.4L241.593 69.436ZM246.307 73V67.96L245.011 68.671L244.66 67.978L246.541 66.988H247.207V73H246.307ZM250.804 73.09C250.276 73.09 249.829 72.958 249.463 72.694C249.097 72.424 248.821 72.058 248.635 71.596C248.449 71.128 248.356 70.594 248.356 69.994C248.356 69.394 248.449 68.863 248.635 68.401C248.821 67.933 249.097 67.567 249.463 67.303C249.829 67.033 250.276 66.898 250.804 66.898C251.338 66.898 251.785 67.033 252.145 67.303C252.511 67.567 252.787 67.933 252.973 68.401C253.165 68.863 253.261 69.394 253.261 69.994C253.261 70.594 253.165 71.128 252.973 71.596C252.787 72.058 252.511 72.424 252.145 72.694C251.785 72.958 251.338 73.09 250.804 73.09ZM250.804 72.343C251.104 72.343 251.368 72.259 251.596 72.091C251.83 71.917 252.01 71.656 252.136 71.308C252.268 70.96 252.334 70.522 252.334 69.994C252.334 69.46 252.268 69.019 252.136 68.671C252.01 68.323 251.83 68.065 251.596 67.897C251.368 67.723 251.104 67.636 250.804 67.636C250.51 67.636 250.246 67.723 250.012 67.897C249.784 68.071 249.604 68.332 249.472 68.68C249.34 69.022 249.274 69.46 249.274 69.994C249.274 70.522 249.34 70.96 249.472 71.308C249.604 71.656 249.784 71.917 250.012 72.091C250.246 72.259 250.51 72.343 250.804 72.343ZM256.263 73.09C255.945 73.09 255.66 73.06 255.408 73C255.162 72.946 254.937 72.859 254.733 72.739C254.529 72.613 254.328 72.46 254.13 72.28L254.481 71.641C254.781 71.893 255.066 72.073 255.336 72.181C255.612 72.289 255.891 72.343 256.173 72.343C256.611 72.343 256.953 72.232 257.199 72.01C257.445 71.782 257.568 71.47 257.568 71.074C257.568 70.678 257.445 70.369 257.199 70.147C256.953 69.919 256.611 69.805 256.173 69.805C255.879 69.805 255.63 69.865 255.426 69.985C255.228 70.099 255.09 70.267 255.012 70.489L254.238 70.345L254.85 66.898H258.045V67.636H255.534L255.201 69.445C255.345 69.331 255.516 69.247 255.714 69.193C255.912 69.133 256.122 69.103 256.344 69.103C256.8 69.103 257.187 69.187 257.505 69.355C257.823 69.517 258.066 69.745 258.234 70.039C258.408 70.333 258.495 70.672 258.495 71.056C258.495 71.44 258.405 71.785 258.225 72.091C258.045 72.397 257.787 72.64 257.451 72.82C257.121 73 256.725 73.09 256.263 73.09Z" fill="#747FA6"/>
<line x1="301.5" y1="53" x2="301.5" y2="63" stroke="#20224E"/>
<path d="M292.696 73.9L292.903 72.982C292.681 72.916 292.465 72.826 292.255 72.712C292.051 72.598 291.847 72.454 291.643 72.28L292.003 71.569C292.195 71.725 292.381 71.854 292.561 71.956C292.741 72.052 292.918 72.13 293.092 72.19L293.524 70.282L293.335 70.246C292.801 70.144 292.414 69.961 292.174 69.697C291.94 69.433 291.823 69.112 291.823 68.734C291.823 68.398 291.898 68.092 292.048 67.816C292.198 67.54 292.429 67.318 292.741 67.15C293.053 66.982 293.446 66.898 293.92 66.898C293.986 66.898 294.049 66.901 294.109 66.907C294.175 66.907 294.241 66.91 294.307 66.916L294.496 66.088H295.036L294.82 67.015C295.012 67.063 295.198 67.135 295.378 67.231C295.564 67.327 295.744 67.444 295.918 67.582L295.549 68.284C295.393 68.176 295.24 68.083 295.09 68.005C294.946 67.921 294.796 67.852 294.64 67.798L294.244 69.535L294.577 69.598C295.105 69.694 295.489 69.895 295.729 70.201C295.975 70.501 296.098 70.837 296.098 71.209C296.098 71.773 295.9 72.229 295.504 72.577C295.114 72.919 294.55 73.09 293.812 73.09C293.74 73.09 293.671 73.087 293.605 73.081C293.545 73.075 293.485 73.069 293.425 73.063L293.236 73.9H292.696ZM293.605 72.298C293.641 72.304 293.674 72.307 293.704 72.307C293.74 72.307 293.776 72.307 293.812 72.307C294.25 72.307 294.586 72.22 294.82 72.046C295.054 71.866 295.171 71.617 295.171 71.299C295.171 71.077 295.099 70.891 294.955 70.741C294.811 70.585 294.601 70.483 294.325 70.435L294.046 70.381L293.605 72.298ZM293.722 69.436L294.127 67.69C294.097 67.684 294.067 67.681 294.037 67.681C294.007 67.681 293.974 67.681 293.938 67.681C293.542 67.681 293.242 67.765 293.038 67.933C292.84 68.101 292.741 68.329 292.741 68.617C292.741 68.839 292.81 69.013 292.948 69.139C293.092 69.259 293.299 69.346 293.569 69.4L293.722 69.436ZM298.436 73V67.96L297.14 68.671L296.789 67.978L298.67 66.988H299.336V73H298.436ZM301.952 73V67.96L300.656 68.671L300.305 67.978L302.186 66.988H302.852V73H301.952ZM306.134 73.09C305.816 73.09 305.531 73.06 305.279 73C305.033 72.946 304.808 72.859 304.604 72.739C304.4 72.613 304.199 72.46 304.001 72.28L304.352 71.641C304.652 71.893 304.937 72.073 305.207 72.181C305.483 72.289 305.762 72.343 306.044 72.343C306.482 72.343 306.824 72.232 307.07 72.01C307.316 71.782 307.439 71.47 307.439 71.074C307.439 70.678 307.316 70.369 307.07 70.147C306.824 69.919 306.482 69.805 306.044 69.805C305.75 69.805 305.501 69.865 305.297 69.985C305.099 70.099 304.961 70.267 304.883 70.489L304.109 70.345L304.721 66.898H307.916V67.636H305.405L305.072 69.445C305.216 69.331 305.387 69.247 305.585 69.193C305.783 69.133 305.993 69.103 306.215 69.103C306.671 69.103 307.058 69.187 307.376 69.355C307.694 69.517 307.937 69.745 308.105 70.039C308.279 70.333 308.366 70.672 308.366 71.056C308.366 71.44 308.276 71.785 308.096 72.091C307.916 72.397 307.658 72.64 307.322 72.82C306.992 73 306.596 73.09 306.134 73.09Z" fill="#747FA6"/>
<path d="M291.968 49.0658C292.074 48.9771 292.232 48.9909 292.32 49.0966C292.409 49.2024 292.395 49.3601 292.29 49.4488L291.968 49.0658ZM285.979 54.6487C285.841 54.6366 285.739 54.5154 285.752 54.3778L285.948 52.1364C285.96 51.9989 286.081 51.8971 286.218 51.9091C286.356 51.9212 286.458 52.0424 286.446 52.18L286.271 54.1724L288.264 54.3467C288.401 54.3587 288.503 54.48 288.491 54.6175C288.479 54.7551 288.358 54.8568 288.22 54.8448L285.979 54.6487ZM292.29 49.4488L286.161 54.5911L285.84 54.2081L291.968 49.0658L292.29 49.4488Z" fill="#747FA6"/>
<path d="M294.947 48V41.988H297.728C298.202 41.988 298.595 42.042 298.907 42.15C299.225 42.252 299.465 42.417 299.627 42.645C299.789 42.873 299.87 43.173 299.87 43.545C299.87 43.899 299.795 44.187 299.645 44.409C299.501 44.631 299.258 44.793 298.916 44.895C299.318 44.991 299.606 45.159 299.78 45.399C299.96 45.639 300.05 45.954 300.05 46.344C300.05 46.938 299.858 47.364 299.474 47.622C299.096 47.874 298.514 48 297.728 48H294.947ZM295.847 47.235H297.602C297.98 47.235 298.28 47.202 298.502 47.136C298.724 47.07 298.883 46.965 298.979 46.821C299.075 46.677 299.123 46.488 299.123 46.254C299.123 46.014 299.075 45.822 298.979 45.678C298.883 45.534 298.724 45.429 298.502 45.363C298.28 45.297 297.98 45.264 297.602 45.264H295.847V47.235ZM295.847 44.535H297.602C298.1 44.535 298.448 44.469 298.646 44.337C298.844 44.205 298.943 43.974 298.943 43.644C298.943 43.308 298.844 43.074 298.646 42.942C298.448 42.81 298.1 42.744 297.602 42.744H295.847V44.535ZM301.16 48V43.77H301.979V44.508C302.087 44.244 302.243 44.046 302.447 43.914C302.657 43.782 302.891 43.716 303.149 43.716C303.233 43.716 303.308 43.722 303.374 43.734C303.446 43.74 303.503 43.752 303.545 43.77V44.571C303.461 44.553 303.377 44.541 303.293 44.535C303.215 44.523 303.137 44.517 303.059 44.517C302.759 44.517 302.507 44.643 302.303 44.895C302.105 45.141 302.006 45.495 302.006 45.957V48H301.16ZM306.244 48.09C305.818 48.09 305.434 48.006 305.092 47.838C304.756 47.664 304.489 47.415 304.291 47.091C304.093 46.761 303.994 46.359 303.994 45.885C303.994 45.435 304.087 45.045 304.273 44.715C304.465 44.385 304.72 44.13 305.038 43.95C305.362 43.77 305.722 43.68 306.118 43.68C306.538 43.68 306.898 43.761 307.198 43.923C307.504 44.079 307.741 44.295 307.909 44.571C308.077 44.847 308.161 45.159 308.161 45.507C308.161 45.609 308.146 45.72 308.116 45.84C308.092 45.96 308.056 46.056 308.008 46.128H304.858C304.888 46.392 304.966 46.617 305.092 46.803C305.218 46.989 305.386 47.13 305.596 47.226C305.806 47.316 306.049 47.361 306.325 47.361C306.601 47.361 306.844 47.319 307.054 47.235C307.27 47.151 307.477 47.031 307.675 46.875L307.981 47.505C307.747 47.697 307.483 47.844 307.189 47.946C306.901 48.042 306.586 48.09 306.244 48.09ZM304.858 45.471H307.279C307.285 45.459 307.288 45.447 307.288 45.435C307.288 45.417 307.288 45.399 307.288 45.381C307.288 45.183 307.246 45.012 307.162 44.868C307.078 44.718 306.952 44.601 306.784 44.517C306.616 44.433 306.403 44.391 306.145 44.391C305.941 44.391 305.749 44.436 305.569 44.526C305.395 44.61 305.245 44.733 305.119 44.895C304.999 45.051 304.912 45.243 304.858 45.471ZM310.605 48.09C310.293 48.09 310.017 48.042 309.777 47.946C309.543 47.844 309.36 47.7 309.228 47.514C309.096 47.322 309.03 47.091 309.03 46.821C309.03 46.551 309.096 46.329 309.228 46.155C309.36 45.975 309.546 45.834 309.786 45.732C310.026 45.624 310.299 45.552 310.605 45.516L312.099 45.336C312.063 45.018 311.943 44.784 311.739 44.634C311.535 44.484 311.283 44.409 310.983 44.409C310.779 44.409 310.566 44.451 310.344 44.535C310.128 44.613 309.897 44.739 309.651 44.913L309.336 44.274C309.57 44.088 309.828 43.944 310.11 43.842C310.398 43.734 310.695 43.68 311.001 43.68C311.643 43.68 312.129 43.827 312.459 44.121C312.795 44.409 312.963 44.844 312.963 45.426V48H312.144V47.388C311.988 47.622 311.778 47.799 311.514 47.919C311.256 48.033 310.953 48.09 310.605 48.09ZM310.803 47.37C311.085 47.37 311.322 47.316 311.514 47.208C311.712 47.094 311.859 46.944 311.955 46.758C312.057 46.572 312.108 46.377 312.108 46.173V45.984L310.848 46.146C310.536 46.188 310.299 46.257 310.137 46.353C309.975 46.443 309.894 46.59 309.894 46.794C309.894 46.98 309.975 47.124 310.137 47.226C310.299 47.322 310.521 47.37 310.803 47.37ZM314.3 48V41.988H315.146V45.759L317.144 43.77H318.179L316.415 45.498L318.269 48H317.234L315.821 46.083L315.146 46.74V48H314.3ZM318.206 45.768V45.084H320.645V45.768H318.206ZM321.789 48V41.988H325.956V42.762H322.689V44.535H325.686V45.273H322.689V47.226H325.956V48H321.789ZM328.348 48L326.656 43.77H327.565L328.816 47.118L330.067 43.77H330.985L329.284 48H328.348ZM333.525 48.09C333.099 48.09 332.715 48.006 332.373 47.838C332.037 47.664 331.77 47.415 331.572 47.091C331.374 46.761 331.275 46.359 331.275 45.885C331.275 45.435 331.368 45.045 331.554 44.715C331.746 44.385 332.001 44.13 332.319 43.95C332.643 43.77 333.003 43.68 333.399 43.68C333.819 43.68 334.179 43.761 334.479 43.923C334.785 44.079 335.022 44.295 335.19 44.571C335.358 44.847 335.442 45.159 335.442 45.507C335.442 45.609 335.427 45.72 335.397 45.84C335.373 45.96 335.337 46.056 335.289 46.128H332.139C332.169 46.392 332.247 46.617 332.373 46.803C332.499 46.989 332.667 47.13 332.877 47.226C333.087 47.316 333.33 47.361 333.606 47.361C333.882 47.361 334.125 47.319 334.335 47.235C334.551 47.151 334.758 47.031 334.956 46.875L335.262 47.505C335.028 47.697 334.764 47.844 334.47 47.946C334.182 48.042 333.867 48.09 333.525 48.09ZM332.139 45.471H334.56C334.566 45.459 334.569 45.447 334.569 45.435C334.569 45.417 334.569 45.399 334.569 45.381C334.569 45.183 334.527 45.012 334.443 44.868C334.359 44.718 334.233 44.601 334.065 44.517C333.897 44.433 333.684 44.391 333.426 44.391C333.222 44.391 333.03 44.436 332.85 44.526C332.676 44.61 332.526 44.733 332.4 44.895C332.28 45.051 332.193 45.243 332.139 45.471ZM336.545 48V43.77H337.364V44.4C337.49 44.178 337.67 44.004 337.904 43.878C338.144 43.746 338.435 43.68 338.777 43.68C339.263 43.68 339.644 43.818 339.92 44.094C340.196 44.37 340.334 44.802 340.334 45.39V48H339.479V45.498C339.479 45.12 339.401 44.847 339.245 44.679C339.095 44.505 338.864 44.418 338.552 44.418C338.186 44.418 337.901 44.544 337.697 44.796C337.493 45.048 337.391 45.393 337.391 45.831V48H336.545ZM344.668 48.9L344.875 47.982C344.653 47.916 344.437 47.826 344.227 47.712C344.023 47.598 343.819 47.454 343.615 47.28L343.975 46.569C344.167 46.725 344.353 46.854 344.533 46.956C344.713 47.052 344.89 47.13 345.064 47.19L345.496 45.282L345.307 45.246C344.773 45.144 344.386 44.961 344.146 44.697C343.912 44.433 343.795 44.112 343.795 43.734C343.795 43.398 343.87 43.092 344.02 42.816C344.17 42.54 344.401 42.318 344.713 42.15C345.025 41.982 345.418 41.898 345.892 41.898C345.958 41.898 346.021 41.901 346.081 41.907C346.147 41.907 346.213 41.91 346.279 41.916L346.468 41.088H347.008L346.792 42.015C346.984 42.063 347.17 42.135 347.35 42.231C347.536 42.327 347.716 42.444 347.89 42.582L347.521 43.284C347.365 43.176 347.212 43.083 347.062 43.005C346.918 42.921 346.768 42.852 346.612 42.798L346.216 44.535L346.549 44.598C347.077 44.694 347.461 44.895 347.701 45.201C347.947 45.501 348.07 45.837 348.07 46.209C348.07 46.773 347.872 47.229 347.476 47.577C347.086 47.919 346.522 48.09 345.784 48.09C345.712 48.09 345.643 48.087 345.577 48.081C345.517 48.075 345.457 48.069 345.397 48.063L345.208 48.9H344.668ZM345.577 47.298C345.613 47.304 345.646 47.307 345.676 47.307C345.712 47.307 345.748 47.307 345.784 47.307C346.222 47.307 346.558 47.22 346.792 47.046C347.026 46.866 347.143 46.617 347.143 46.299C347.143 46.077 347.071 45.891 346.927 45.741C346.783 45.585 346.573 45.483 346.297 45.435L346.018 45.381L345.577 47.298ZM345.694 44.436L346.099 42.69C346.069 42.684 346.039 42.681 346.009 42.681C345.979 42.681 345.946 42.681 345.91 42.681C345.514 42.681 345.214 42.765 345.01 42.933C344.812 43.101 344.713 43.329 344.713 43.617C344.713 43.839 344.782 44.013 344.92 44.139C345.064 44.259 345.271 44.346 345.541 44.4L345.694 44.436ZM350.408 48V42.96L349.112 43.671L348.761 42.978L350.642 41.988H351.308V48H350.408ZM353.924 48V42.96L352.628 43.671L352.277 42.978L354.158 41.988H354.824V48H353.924ZM358.42 48.09C357.892 48.09 357.445 47.958 357.079 47.694C356.713 47.424 356.437 47.058 356.251 46.596C356.065 46.128 355.972 45.594 355.972 44.994C355.972 44.394 356.065 43.863 356.251 43.401C356.437 42.933 356.713 42.567 357.079 42.303C357.445 42.033 357.892 41.898 358.42 41.898C358.954 41.898 359.401 42.033 359.761 42.303C360.127 42.567 360.403 42.933 360.589 43.401C360.781 43.863 360.877 44.394 360.877 44.994C360.877 45.594 360.781 46.128 360.589 46.596C360.403 47.058 360.127 47.424 359.761 47.694C359.401 47.958 358.954 48.09 358.42 48.09ZM358.42 47.343C358.72 47.343 358.984 47.259 359.212 47.091C359.446 46.917 359.626 46.656 359.752 46.308C359.884 45.96 359.95 45.522 359.95 44.994C359.95 44.46 359.884 44.019 359.752 43.671C359.626 43.323 359.446 43.065 359.212 42.897C358.984 42.723 358.72 42.636 358.42 42.636C358.126 42.636 357.862 42.723 357.628 42.897C357.4 43.071 357.22 43.332 357.088 43.68C356.956 44.022 356.89 44.46 356.89 44.994C356.89 45.522 356.956 45.96 357.088 46.308C357.22 46.656 357.4 46.917 357.628 47.091C357.862 47.259 358.126 47.343 358.42 47.343Z" fill="#747FA6"/>
<line x1="41.5" y1="98.5" x2="146.5" y2="98.5" stroke="#C75E4B" stroke-linecap="round" stroke-dasharray="2 2"/>
<path d="M102 25.5L102.392 31.2602L107.185 28.0403L102 25.5ZM123.5 57.5L123.915 57.2215L123.915 57.2212L123.5 57.5ZM151 98.5L150.585 98.7785L150.733 99H151V98.5ZM247 98.5V99H247.246L247.396 98.8046L247 98.5ZM278.5 57.5L278.896 57.8046L278.901 57.7989L278.905 57.793L278.5 57.5ZM302 25L296.731 27.3603L301.41 30.7432L302 25ZM104.095 29.5141L123.085 57.7788L123.915 57.2212L104.925 28.9564L104.095 29.5141ZM123.085 57.7785L150.585 98.7785L151.415 98.2215L123.915 57.2215L123.085 57.7785ZM151 99H247V98H151V99ZM247.396 98.8046L278.896 57.8046L278.104 57.1954L246.604 98.1954L247.396 98.8046ZM278.905 57.793L299.768 28.9395L298.958 28.3536L278.095 57.207L278.905 57.793Z" fill="#C75E4B"/>
<path d="M302 25L296.731 27.3603L301.41 30.7432L302 25ZM278.905 57.793L299.768 28.9395L298.958 28.3536L278.095 57.207L278.905 57.793Z" fill="#46956A"/>
<path d="M102 25.5L102.392 31.2602L107.185 28.0403L102 25.5ZM104.095 29.5141L123.085 57.7788L123.915 57.2212L104.925 28.9564L104.095 29.5141Z" fill="#46956A"/>
<path d="M110.161 47.8085C110.055 47.7197 109.897 47.7335 109.808 47.8393C109.72 47.9451 109.734 48.1028 109.839 48.1915L110.161 47.8085ZM116.15 53.3913C116.288 53.3793 116.389 53.2581 116.377 53.1205L116.181 50.8791C116.169 50.7415 116.048 50.6398 115.91 50.6518C115.773 50.6638 115.671 50.7851 115.683 50.9227L115.858 52.915L113.865 53.0894C113.728 53.1014 113.626 53.2226 113.638 53.3602C113.65 53.4977 113.771 53.5995 113.909 53.5875L116.15 53.3913ZM109.839 48.1915L115.968 53.3338L116.289 52.9508L110.161 47.8085L109.839 48.1915Z" fill="#747FA6"/>
<path d="M43.711 48V41.988H46.492C46.966 41.988 47.359 42.042 47.671 42.15C47.989 42.252 48.229 42.417 48.391 42.645C48.553 42.873 48.634 43.173 48.634 43.545C48.634 43.899 48.559 44.187 48.409 44.409C48.265 44.631 48.022 44.793 47.68 44.895C48.082 44.991 48.37 45.159 48.544 45.399C48.724 45.639 48.814 45.954 48.814 46.344C48.814 46.938 48.622 47.364 48.238 47.622C47.86 47.874 47.278 48 46.492 48H43.711ZM44.611 47.235H46.366C46.744 47.235 47.044 47.202 47.266 47.136C47.488 47.07 47.647 46.965 47.743 46.821C47.839 46.677 47.887 46.488 47.887 46.254C47.887 46.014 47.839 45.822 47.743 45.678C47.647 45.534 47.488 45.429 47.266 45.363C47.044 45.297 46.744 45.264 46.366 45.264H44.611V47.235ZM44.611 44.535H46.366C46.864 44.535 47.212 44.469 47.41 44.337C47.608 44.205 47.707 43.974 47.707 43.644C47.707 43.308 47.608 43.074 47.41 42.942C47.212 42.81 46.864 42.744 46.366 42.744H44.611V44.535ZM49.924 48V43.77H50.743V44.508C50.851 44.244 51.007 44.046 51.211 43.914C51.421 43.782 51.655 43.716 51.913 43.716C51.997 43.716 52.072 43.722 52.138 43.734C52.21 43.74 52.267 43.752 52.309 43.77V44.571C52.225 44.553 52.141 44.541 52.057 44.535C51.979 44.523 51.901 44.517 51.823 44.517C51.523 44.517 51.271 44.643 51.067 44.895C50.869 45.141 50.77 45.495 50.77 45.957V48H49.924ZM55.0074 48.09C54.5814 48.09 54.1974 48.006 53.8554 47.838C53.5194 47.664 53.2524 47.415 53.0544 47.091C52.8564 46.761 52.7574 46.359 52.7574 45.885C52.7574 45.435 52.8504 45.045 53.0364 44.715C53.2284 44.385 53.4834 44.13 53.8014 43.95C54.1254 43.77 54.4854 43.68 54.8814 43.68C55.3014 43.68 55.6614 43.761 55.9614 43.923C56.2674 44.079 56.5044 44.295 56.6724 44.571C56.8404 44.847 56.9244 45.159 56.9244 45.507C56.9244 45.609 56.9094 45.72 56.8794 45.84C56.8554 45.96 56.8194 46.056 56.7714 46.128H53.6214C53.6514 46.392 53.7294 46.617 53.8554 46.803C53.9814 46.989 54.1494 47.13 54.3594 47.226C54.5694 47.316 54.8124 47.361 55.0884 47.361C55.3644 47.361 55.6074 47.319 55.8174 47.235C56.0334 47.151 56.2404 47.031 56.4384 46.875L56.7444 47.505C56.5104 47.697 56.2464 47.844 55.9524 47.946C55.6644 48.042 55.3494 48.09 55.0074 48.09ZM53.6214 45.471H56.0424C56.0484 45.459 56.0514 45.447 56.0514 45.435C56.0514 45.417 56.0514 45.399 56.0514 45.381C56.0514 45.183 56.0094 45.012 55.9254 44.868C55.8414 44.718 55.7154 44.601 55.5474 44.517C55.3794 44.433 55.1664 44.391 54.9084 44.391C54.7044 44.391 54.5124 44.436 54.3324 44.526C54.1584 44.61 54.0084 44.733 53.8824 44.895C53.7624 45.051 53.6754 45.243 53.6214 45.471ZM59.3685 48.09C59.0565 48.09 58.7805 48.042 58.5405 47.946C58.3065 47.844 58.1235 47.7 57.9915 47.514C57.8595 47.322 57.7935 47.091 57.7935 46.821C57.7935 46.551 57.8595 46.329 57.9915 46.155C58.1235 45.975 58.3095 45.834 58.5495 45.732C58.7895 45.624 59.0625 45.552 59.3685 45.516L60.8625 45.336C60.8265 45.018 60.7065 44.784 60.5025 44.634C60.2985 44.484 60.0465 44.409 59.7465 44.409C59.5425 44.409 59.3295 44.451 59.1075 44.535C58.8915 44.613 58.6605 44.739 58.4145 44.913L58.0995 44.274C58.3335 44.088 58.5915 43.944 58.8735 43.842C59.1615 43.734 59.4585 43.68 59.7645 43.68C60.4065 43.68 60.8925 43.827 61.2225 44.121C61.5585 44.409 61.7265 44.844 61.7265 45.426V48H60.9075V47.388C60.7515 47.622 60.5415 47.799 60.2775 47.919C60.0195 48.033 59.7165 48.09 59.3685 48.09ZM59.5665 47.37C59.8485 47.37 60.0855 47.316 60.2775 47.208C60.4755 47.094 60.6225 46.944 60.7185 46.758C60.8205 46.572 60.8715 46.377 60.8715 46.173V45.984L59.6115 46.146C59.2995 46.188 59.0625 46.257 58.9005 46.353C58.7385 46.443 58.6575 46.59 58.6575 46.794C58.6575 46.98 58.7385 47.124 58.9005 47.226C59.0625 47.322 59.2845 47.37 59.5665 47.37ZM63.0637 48V41.988H63.9097V45.759L65.9077 43.77H66.9427L65.1787 45.498L67.0327 48H65.9977L64.5847 46.083L63.9097 46.74V48H63.0637ZM66.9693 45.768V45.084H69.4083V45.768H66.9693ZM70.5528 48V41.988H74.7198V42.762H71.4528V44.535H74.4498V45.273H71.4528V47.226H74.7198V48H70.5528ZM77.1113 48L75.4193 43.77H76.3283L77.5793 47.118L78.8303 43.77H79.7483L78.0473 48H77.1113ZM82.2887 48.09C81.8627 48.09 81.4787 48.006 81.1367 47.838C80.8007 47.664 80.5337 47.415 80.3357 47.091C80.1377 46.761 80.0387 46.359 80.0387 45.885C80.0387 45.435 80.1317 45.045 80.3177 44.715C80.5097 44.385 80.7647 44.13 81.0827 43.95C81.4067 43.77 81.7667 43.68 82.1627 43.68C82.5827 43.68 82.9427 43.761 83.2427 43.923C83.5487 44.079 83.7857 44.295 83.9537 44.571C84.1217 44.847 84.2057 45.159 84.2057 45.507C84.2057 45.609 84.1907 45.72 84.1607 45.84C84.1367 45.96 84.1007 46.056 84.0527 46.128H80.9027C80.9327 46.392 81.0107 46.617 81.1367 46.803C81.2627 46.989 81.4307 47.13 81.6407 47.226C81.8507 47.316 82.0937 47.361 82.3697 47.361C82.6457 47.361 82.8887 47.319 83.0987 47.235C83.3147 47.151 83.5217 47.031 83.7197 46.875L84.0257 47.505C83.7917 47.697 83.5277 47.844 83.2337 47.946C82.9457 48.042 82.6307 48.09 82.2887 48.09ZM80.9027 45.471H83.3237C83.3297 45.459 83.3327 45.447 83.3327 45.435C83.3327 45.417 83.3327 45.399 83.3327 45.381C83.3327 45.183 83.2907 45.012 83.2067 44.868C83.1227 44.718 82.9967 44.601 82.8287 44.517C82.6607 44.433 82.4477 44.391 82.1897 44.391C81.9857 44.391 81.7937 44.436 81.6137 44.526C81.4397 44.61 81.2897 44.733 81.1637 44.895C81.0437 45.051 80.9567 45.243 80.9027 45.471ZM85.3088 48V43.77H86.1278V44.4C86.2538 44.178 86.4338 44.004 86.6678 43.878C86.9078 43.746 87.1988 43.68 87.5408 43.68C88.0268 43.68 88.4078 43.818 88.6838 44.094C88.9598 44.37 89.0978 44.802 89.0978 45.39V48H88.2428V45.498C88.2428 45.12 88.1648 44.847 88.0088 44.679C87.8588 44.505 87.6278 44.418 87.3158 44.418C86.9498 44.418 86.6648 44.544 86.4608 44.796C86.2568 45.048 86.1548 45.393 86.1548 45.831V48H85.3088ZM93.4315 48.9L93.6385 47.982C93.4165 47.916 93.2005 47.826 92.9905 47.712C92.7865 47.598 92.5825 47.454 92.3785 47.28L92.7385 46.569C92.9305 46.725 93.1165 46.854 93.2965 46.956C93.4765 47.052 93.6535 47.13 93.8275 47.19L94.2595 45.282L94.0705 45.246C93.5365 45.144 93.1495 44.961 92.9095 44.697C92.6755 44.433 92.5585 44.112 92.5585 43.734C92.5585 43.398 92.6335 43.092 92.7835 42.816C92.9335 42.54 93.1645 42.318 93.4765 42.15C93.7885 41.982 94.1815 41.898 94.6555 41.898C94.7215 41.898 94.7845 41.901 94.8445 41.907C94.9105 41.907 94.9765 41.91 95.0425 41.916L95.2315 41.088H95.7715L95.5555 42.015C95.7475 42.063 95.9335 42.135 96.1135 42.231C96.2995 42.327 96.4795 42.444 96.6535 42.582L96.2845 43.284C96.1285 43.176 95.9755 43.083 95.8255 43.005C95.6815 42.921 95.5315 42.852 95.3755 42.798L94.9795 44.535L95.3125 44.598C95.8405 44.694 96.2245 44.895 96.4645 45.201C96.7105 45.501 96.8335 45.837 96.8335 46.209C96.8335 46.773 96.6355 47.229 96.2395 47.577C95.8495 47.919 95.2855 48.09 94.5475 48.09C94.4755 48.09 94.4065 48.087 94.3405 48.081C94.2805 48.075 94.2205 48.069 94.1605 48.063L93.9715 48.9H93.4315ZM94.3405 47.298C94.3765 47.304 94.4095 47.307 94.4395 47.307C94.4755 47.307 94.5115 47.307 94.5475 47.307C94.9855 47.307 95.3215 47.22 95.5555 47.046C95.7895 46.866 95.9065 46.617 95.9065 46.299C95.9065 46.077 95.8345 45.891 95.6905 45.741C95.5465 45.585 95.3365 45.483 95.0605 45.435L94.7815 45.381L94.3405 47.298ZM94.4575 44.436L94.8625 42.69C94.8325 42.684 94.8025 42.681 94.7725 42.681C94.7425 42.681 94.7095 42.681 94.6735 42.681C94.2775 42.681 93.9775 42.765 93.7735 42.933C93.5755 43.101 93.4765 43.329 93.4765 43.617C93.4765 43.839 93.5455 44.013 93.6835 44.139C93.8275 44.259 94.0345 44.346 94.3045 44.4L94.4575 44.436ZM99.7297 48.09C99.3457 48.09 98.9947 48.021 98.6767 47.883C98.3647 47.739 98.0947 47.538 97.8667 47.28L98.2087 46.686C98.4427 46.908 98.6797 47.073 98.9197 47.181C99.1597 47.289 99.4027 47.343 99.6487 47.343C99.9667 47.343 100.255 47.271 100.513 47.127C100.777 46.977 100.987 46.743 101.143 46.425C101.305 46.107 101.395 45.693 101.413 45.183C101.263 45.399 101.053 45.57 100.783 45.696C100.519 45.822 100.207 45.885 99.8467 45.885C99.3967 45.885 99.0097 45.801 98.6857 45.633C98.3677 45.465 98.1247 45.234 97.9567 44.94C97.7887 44.646 97.7047 44.307 97.7047 43.923C97.7047 43.539 97.7947 43.194 97.9747 42.888C98.1547 42.582 98.4097 42.342 98.7397 42.168C99.0757 41.988 99.4717 41.898 99.9277 41.898C100.426 41.898 100.852 41.997 101.206 42.195C101.566 42.393 101.845 42.693 102.043 43.095C102.241 43.497 102.34 44.01 102.34 44.634C102.34 45.324 102.244 45.93 102.052 46.452C101.86 46.968 101.572 47.37 101.188 47.658C100.804 47.946 100.318 48.09 99.7297 48.09ZM100.018 45.183C100.456 45.183 100.798 45.072 101.044 44.85C101.29 44.622 101.413 44.31 101.413 43.914C101.353 43.536 101.212 43.23 100.99 42.996C100.768 42.756 100.444 42.636 100.018 42.636C99.5857 42.636 99.2437 42.75 98.9917 42.978C98.7457 43.206 98.6227 43.515 98.6227 43.905C98.6227 44.307 98.7457 44.622 98.9917 44.85C99.2437 45.072 99.5857 45.183 100.018 45.183ZM105.663 48.09C105.135 48.09 104.688 47.958 104.322 47.694C103.956 47.424 103.68 47.058 103.494 46.596C103.308 46.128 103.215 45.594 103.215 44.994C103.215 44.394 103.308 43.863 103.494 43.401C103.68 42.933 103.956 42.567 104.322 42.303C104.688 42.033 105.135 41.898 105.663 41.898C106.197 41.898 106.644 42.033 107.004 42.303C107.37 42.567 107.646 42.933 107.832 43.401C108.024 43.863 108.12 44.394 108.12 44.994C108.12 45.594 108.024 46.128 107.832 46.596C107.646 47.058 107.37 47.424 107.004 47.694C106.644 47.958 106.197 48.09 105.663 48.09ZM105.663 47.343C105.963 47.343 106.227 47.259 106.455 47.091C106.689 46.917 106.869 46.656 106.995 46.308C107.127 45.96 107.193 45.522 107.193 44.994C107.193 44.46 107.127 44.019 106.995 43.671C106.869 43.323 106.689 43.065 106.455 42.897C106.227 42.723 105.963 42.636 105.663 42.636C105.369 42.636 105.105 42.723 104.871 42.897C104.643 43.071 104.463 43.332 104.331 43.68C104.199 44.022 104.133 44.46 104.133 44.994C104.133 45.522 104.199 45.96 104.331 46.308C104.463 46.656 104.643 46.917 104.871 47.091C105.105 47.259 105.369 47.343 105.663 47.343Z" fill="#747FA6"/>
</svg>
