<svg width="21" height="21" viewBox="0 0 21 21" fill="none" xmlns="http://www.w3.org/2000/svg">
<g clip-path="url(#clip0_839_515)">
<path d="M13.8333 6.79108C13.2188 6.79108 12.7222 6.29948 12.7222 5.691C12.7222 5.08251 13.2188 4.59091 13.8333 4.59091H19.3889C20.0035 4.59091 20.5 5.08251 20.5 5.691V11.1914C20.5 11.7999 20.0035 12.2915 19.3889 12.2915C18.7743 12.2915 18.2778 11.7999 18.2778 11.1914V8.34839L12.3958 14.1685C11.9618 14.5983 11.2604 14.5983 10.8264 14.1685L7.13542 10.5486L2.39687 15.2686C1.96285 15.6983 1.25938 15.6983 0.825417 15.2686C0.391528 14.8389 0.391528 14.1445 0.825417 13.7147L6.38194 8.21432C6.81597 7.7846 7.51736 7.7846 7.95139 8.21432L11.6111 11.8343L16.7049 6.76014L13.8333 6.79108Z" fill="#6988FF"/>
</g>
<defs>
<clipPath id="clip0_839_515">
<rect width="20" height="20" fill="white" transform="translate(0.5 0.5)"/>
</clipPath>
</defs>
</svg>
