<svg width="381" height="115" viewBox="0 0 381 115" fill="none" xmlns="http://www.w3.org/2000/svg">
<path opacity="0.05" d="M209.5 106.5L161 58L307 106.5H209.5Z" fill="#C75E4B"/>
<path opacity="0.05" d="M107 57V4L160 57H107Z" fill="#46956A"/>
<line x1="33.5" y1="2.18558e-08" x2="33.5" y2="115" stroke="#20224E"/>
<line x1="29" y1="106.5" x2="38" y2="106.5" stroke="#20224E"/>
<line x1="381" y1="57.5" x2="33" y2="57.5" stroke="#20224E"/>
<path d="M0.727621 106.768V106.084H3.16662V106.768H0.727621ZM5.0941 109.9L5.3011 108.982C5.0791 108.916 4.8631 108.826 4.6531 108.712C4.4491 108.598 4.2451 108.454 4.0411 108.28L4.4011 107.569C4.5931 107.725 4.7791 107.854 4.9591 107.956C5.1391 108.052 5.3161 108.13 5.4901 108.19L5.9221 106.282L5.7331 106.246C5.1991 106.144 4.8121 105.961 4.5721 105.697C4.3381 105.433 4.2211 105.112 4.2211 104.734C4.2211 104.398 4.2961 104.092 4.4461 103.816C4.5961 103.54 4.8271 103.318 5.1391 103.15C5.4511 102.982 5.8441 102.898 6.3181 102.898C6.3841 102.898 6.4471 102.901 6.5071 102.907C6.5731 102.907 6.6391 102.91 6.7051 102.916L6.8941 102.088H7.4341L7.2181 103.015C7.4101 103.063 7.5961 103.135 7.7761 103.231C7.9621 103.327 8.1421 103.444 8.3161 103.582L7.9471 104.284C7.7911 104.176 7.6381 104.083 7.4881 104.005C7.3441 103.921 7.1941 103.852 7.0381 103.798L6.6421 105.535L6.9751 105.598C7.5031 105.694 7.8871 105.895 8.1271 106.201C8.3731 106.501 8.4961 106.837 8.4961 107.209C8.4961 107.773 8.2981 108.229 7.9021 108.577C7.5121 108.919 6.9481 109.09 6.2101 109.09C6.1381 109.09 6.0691 109.087 6.0031 109.081C5.9431 109.075 5.8831 109.069 5.8231 109.063L5.6341 109.9H5.0941ZM6.0031 108.298C6.0391 108.304 6.0721 108.307 6.1021 108.307C6.1381 108.307 6.1741 108.307 6.2101 108.307C6.6481 108.307 6.9841 108.22 7.2181 108.046C7.4521 107.866 7.5691 107.617 7.5691 107.299C7.5691 107.077 7.4971 106.891 7.3531 106.741C7.2091 106.585 6.9991 106.483 6.7231 106.435L6.4441 106.381L6.0031 108.298ZM6.1201 105.436L6.5251 103.69C6.4951 103.684 6.4651 103.681 6.4351 103.681C6.4051 103.681 6.3721 103.681 6.3361 103.681C5.9401 103.681 5.6401 103.765 5.4361 103.933C5.2381 104.101 5.1391 104.329 5.1391 104.617C5.1391 104.839 5.2081 105.013 5.3461 105.139C5.4901 105.259 5.6971 105.346 5.9671 105.4L6.1201 105.436ZM11.5003 109.09C11.1823 109.09 10.8973 109.06 10.6453 109C10.3993 108.946 10.1743 108.859 9.97027 108.739C9.76627 108.613 9.56527 108.46 9.36727 108.28L9.71827 107.641C10.0183 107.893 10.3033 108.073 10.5733 108.181C10.8493 108.289 11.1283 108.343 11.4103 108.343C11.8483 108.343 12.1903 108.232 12.4363 108.01C12.6823 107.782 12.8053 107.47 12.8053 107.074C12.8053 106.678 12.6823 106.369 12.4363 106.147C12.1903 105.919 11.8483 105.805 11.4103 105.805C11.1163 105.805 10.8673 105.865 10.6633 105.985C10.4653 106.099 10.3273 106.267 10.2493 106.489L9.47527 106.345L10.0873 102.898H13.2823V103.636H10.7713L10.4383 105.445C10.5823 105.331 10.7533 105.247 10.9513 105.193C11.1493 105.133 11.3593 105.103 11.5813 105.103C12.0373 105.103 12.4243 105.187 12.7423 105.355C13.0603 105.517 13.3033 105.745 13.4713 106.039C13.6453 106.333 13.7323 106.672 13.7323 107.056C13.7323 107.44 13.6423 107.785 13.4623 108.091C13.2823 108.397 13.0243 108.64 12.6883 108.82C12.3583 109 11.9623 109.09 11.5003 109.09ZM17.0536 109.09C16.5256 109.09 16.0786 108.958 15.7126 108.694C15.3466 108.424 15.0706 108.058 14.8846 107.596C14.6986 107.128 14.6056 106.594 14.6056 105.994C14.6056 105.394 14.6986 104.863 14.8846 104.401C15.0706 103.933 15.3466 103.567 15.7126 103.303C16.0786 103.033 16.5256 102.898 17.0536 102.898C17.5876 102.898 18.0346 103.033 18.3946 103.303C18.7606 103.567 19.0366 103.933 19.2226 104.401C19.4146 104.863 19.5106 105.394 19.5106 105.994C19.5106 106.594 19.4146 107.128 19.2226 107.596C19.0366 108.058 18.7606 108.424 18.3946 108.694C18.0346 108.958 17.5876 109.09 17.0536 109.09ZM17.0536 108.343C17.3536 108.343 17.6176 108.259 17.8456 108.091C18.0796 107.917 18.2596 107.656 18.3856 107.308C18.5176 106.96 18.5836 106.522 18.5836 105.994C18.5836 105.46 18.5176 105.019 18.3856 104.671C18.2596 104.323 18.0796 104.065 17.8456 103.897C17.6176 103.723 17.3536 103.636 17.0536 103.636C16.7596 103.636 16.4956 103.723 16.2616 103.897C16.0336 104.071 15.8536 104.332 15.7216 104.68C15.5896 105.022 15.5236 105.46 15.5236 105.994C15.5236 106.522 15.5896 106.96 15.7216 107.308C15.8536 107.656 16.0336 107.917 16.2616 108.091C16.4956 108.259 16.7596 108.343 17.0536 108.343ZM22.828 109.09C22.3 109.09 21.853 108.958 21.487 108.694C21.121 108.424 20.845 108.058 20.659 107.596C20.473 107.128 20.38 106.594 20.38 105.994C20.38 105.394 20.473 104.863 20.659 104.401C20.845 103.933 21.121 103.567 21.487 103.303C21.853 103.033 22.3 102.898 22.828 102.898C23.362 102.898 23.809 103.033 24.169 103.303C24.535 103.567 24.811 103.933 24.997 104.401C25.189 104.863 25.285 105.394 25.285 105.994C25.285 106.594 25.189 107.128 24.997 107.596C24.811 108.058 24.535 108.424 24.169 108.694C23.809 108.958 23.362 109.09 22.828 109.09ZM22.828 108.343C23.128 108.343 23.392 108.259 23.62 108.091C23.854 107.917 24.034 107.656 24.16 107.308C24.292 106.96 24.358 106.522 24.358 105.994C24.358 105.46 24.292 105.019 24.16 104.671C24.034 104.323 23.854 104.065 23.62 103.897C23.392 103.723 23.128 103.636 22.828 103.636C22.534 103.636 22.27 103.723 22.036 103.897C21.808 104.071 21.628 104.332 21.496 104.68C21.364 105.022 21.298 105.46 21.298 105.994C21.298 106.522 21.364 106.96 21.496 107.308C21.628 107.656 21.808 107.917 22.036 108.091C22.27 108.259 22.534 108.343 22.828 108.343Z" fill="#747FA6"/>
<line x1="107.5" y1="53" x2="107.5" y2="62" stroke="#20224E"/>
<path d="M100.688 73.9L100.895 72.982C100.673 72.916 100.457 72.826 100.247 72.712C100.043 72.598 99.8393 72.454 99.6353 72.28L99.9953 71.569C100.187 71.725 100.373 71.854 100.553 71.956C100.733 72.052 100.91 72.13 101.084 72.19L101.516 70.282L101.327 70.246C100.793 70.144 100.406 69.961 100.166 69.697C99.9323 69.433 99.8153 69.112 99.8153 68.734C99.8153 68.398 99.8903 68.092 100.04 67.816C100.19 67.54 100.421 67.318 100.733 67.15C101.045 66.982 101.438 66.898 101.912 66.898C101.978 66.898 102.041 66.901 102.101 66.907C102.167 66.907 102.233 66.91 102.299 66.916L102.488 66.088H103.028L102.812 67.015C103.004 67.063 103.19 67.135 103.37 67.231C103.556 67.327 103.736 67.444 103.91 67.582L103.541 68.284C103.385 68.176 103.232 68.083 103.082 68.005C102.938 67.921 102.788 67.852 102.632 67.798L102.236 69.535L102.569 69.598C103.097 69.694 103.481 69.895 103.721 70.201C103.967 70.501 104.09 70.837 104.09 71.209C104.09 71.773 103.892 72.229 103.496 72.577C103.106 72.919 102.542 73.09 101.804 73.09C101.732 73.09 101.663 73.087 101.597 73.081C101.537 73.075 101.477 73.069 101.417 73.063L101.228 73.9H100.688ZM101.597 72.298C101.633 72.304 101.666 72.307 101.696 72.307C101.732 72.307 101.768 72.307 101.804 72.307C102.242 72.307 102.578 72.22 102.812 72.046C103.046 71.866 103.163 71.617 103.163 71.299C103.163 71.077 103.091 70.891 102.947 70.741C102.803 70.585 102.593 70.483 102.317 70.435L102.038 70.381L101.597 72.298ZM101.714 69.436L102.119 67.69C102.089 67.684 102.059 67.681 102.029 67.681C101.999 67.681 101.966 67.681 101.93 67.681C101.534 67.681 101.234 67.765 101.03 67.933C100.832 68.101 100.733 68.329 100.733 68.617C100.733 68.839 100.802 69.013 100.94 69.139C101.084 69.259 101.291 69.346 101.561 69.4L101.714 69.436ZM106.987 73.09C106.603 73.09 106.252 73.021 105.934 72.883C105.622 72.739 105.352 72.538 105.124 72.28L105.466 71.686C105.7 71.908 105.937 72.073 106.177 72.181C106.417 72.289 106.66 72.343 106.906 72.343C107.224 72.343 107.512 72.271 107.77 72.127C108.034 71.977 108.244 71.743 108.4 71.425C108.562 71.107 108.652 70.693 108.67 70.183C108.52 70.399 108.31 70.57 108.04 70.696C107.776 70.822 107.464 70.885 107.104 70.885C106.654 70.885 106.267 70.801 105.943 70.633C105.625 70.465 105.382 70.234 105.214 69.94C105.046 69.646 104.962 69.307 104.962 68.923C104.962 68.539 105.052 68.194 105.232 67.888C105.412 67.582 105.667 67.342 105.997 67.168C106.333 66.988 106.729 66.898 107.185 66.898C107.683 66.898 108.109 66.997 108.463 67.195C108.823 67.393 109.102 67.693 109.3 68.095C109.498 68.497 109.597 69.01 109.597 69.634C109.597 70.324 109.501 70.93 109.309 71.452C109.117 71.968 108.829 72.37 108.445 72.658C108.061 72.946 107.575 73.09 106.987 73.09ZM107.275 70.183C107.713 70.183 108.055 70.072 108.301 69.85C108.547 69.622 108.67 69.31 108.67 68.914C108.61 68.536 108.469 68.23 108.247 67.996C108.025 67.756 107.701 67.636 107.275 67.636C106.843 67.636 106.501 67.75 106.249 67.978C106.003 68.206 105.88 68.515 105.88 68.905C105.88 69.307 106.003 69.622 106.249 69.85C106.501 70.072 106.843 70.183 107.275 70.183ZM112.92 73.09C112.392 73.09 111.945 72.958 111.579 72.694C111.213 72.424 110.937 72.058 110.751 71.596C110.565 71.128 110.472 70.594 110.472 69.994C110.472 69.394 110.565 68.863 110.751 68.401C110.937 67.933 111.213 67.567 111.579 67.303C111.945 67.033 112.392 66.898 112.92 66.898C113.454 66.898 113.901 67.033 114.261 67.303C114.627 67.567 114.903 67.933 115.089 68.401C115.281 68.863 115.377 69.394 115.377 69.994C115.377 70.594 115.281 71.128 115.089 71.596C114.903 72.058 114.627 72.424 114.261 72.694C113.901 72.958 113.454 73.09 112.92 73.09ZM112.92 72.343C113.22 72.343 113.484 72.259 113.712 72.091C113.946 71.917 114.126 71.656 114.252 71.308C114.384 70.96 114.45 70.522 114.45 69.994C114.45 69.46 114.384 69.019 114.252 68.671C114.126 68.323 113.946 68.065 113.712 67.897C113.484 67.723 113.22 67.636 112.92 67.636C112.626 67.636 112.362 67.723 112.128 67.897C111.9 68.071 111.72 68.332 111.588 68.68C111.456 69.022 111.39 69.46 111.39 69.994C111.39 70.522 111.456 70.96 111.588 71.308C111.72 71.656 111.9 71.917 112.128 72.091C112.362 72.259 112.626 72.343 112.92 72.343Z" fill="#747FA6"/>
<line x1="209.5" y1="53" x2="209.5" y2="62" stroke="#20224E"/>
<path d="M199.799 73.9L200.006 72.982C199.784 72.916 199.568 72.826 199.358 72.712C199.154 72.598 198.95 72.454 198.746 72.28L199.106 71.569C199.298 71.725 199.484 71.854 199.664 71.956C199.844 72.052 200.021 72.13 200.195 72.19L200.627 70.282L200.438 70.246C199.904 70.144 199.517 69.961 199.277 69.697C199.043 69.433 198.926 69.112 198.926 68.734C198.926 68.398 199.001 68.092 199.151 67.816C199.301 67.54 199.532 67.318 199.844 67.15C200.156 66.982 200.549 66.898 201.023 66.898C201.089 66.898 201.152 66.901 201.212 66.907C201.278 66.907 201.344 66.91 201.41 66.916L201.599 66.088H202.139L201.923 67.015C202.115 67.063 202.301 67.135 202.481 67.231C202.667 67.327 202.847 67.444 203.021 67.582L202.652 68.284C202.496 68.176 202.343 68.083 202.193 68.005C202.049 67.921 201.899 67.852 201.743 67.798L201.347 69.535L201.68 69.598C202.208 69.694 202.592 69.895 202.832 70.201C203.078 70.501 203.201 70.837 203.201 71.209C203.201 71.773 203.003 72.229 202.607 72.577C202.217 72.919 201.653 73.09 200.915 73.09C200.843 73.09 200.774 73.087 200.708 73.081C200.648 73.075 200.588 73.069 200.528 73.063L200.339 73.9H199.799ZM200.708 72.298C200.744 72.304 200.777 72.307 200.807 72.307C200.843 72.307 200.879 72.307 200.915 72.307C201.353 72.307 201.689 72.22 201.923 72.046C202.157 71.866 202.274 71.617 202.274 71.299C202.274 71.077 202.202 70.891 202.058 70.741C201.914 70.585 201.704 70.483 201.428 70.435L201.149 70.381L200.708 72.298ZM200.825 69.436L201.23 67.69C201.2 67.684 201.17 67.681 201.14 67.681C201.11 67.681 201.077 67.681 201.041 67.681C200.645 67.681 200.345 67.765 200.141 67.933C199.943 68.101 199.844 68.329 199.844 68.617C199.844 68.839 199.913 69.013 200.051 69.139C200.195 69.259 200.402 69.346 200.672 69.4L200.825 69.436ZM205.539 73V67.96L204.243 68.671L203.892 67.978L205.773 66.988H206.439V73H205.539ZM210.035 73.09C209.507 73.09 209.06 72.958 208.694 72.694C208.328 72.424 208.052 72.058 207.866 71.596C207.68 71.128 207.587 70.594 207.587 69.994C207.587 69.394 207.68 68.863 207.866 68.401C208.052 67.933 208.328 67.567 208.694 67.303C209.06 67.033 209.507 66.898 210.035 66.898C210.569 66.898 211.016 67.033 211.376 67.303C211.742 67.567 212.018 67.933 212.204 68.401C212.396 68.863 212.492 69.394 212.492 69.994C212.492 70.594 212.396 71.128 212.204 71.596C212.018 72.058 211.742 72.424 211.376 72.694C211.016 72.958 210.569 73.09 210.035 73.09ZM210.035 72.343C210.335 72.343 210.599 72.259 210.827 72.091C211.061 71.917 211.241 71.656 211.367 71.308C211.499 70.96 211.565 70.522 211.565 69.994C211.565 69.46 211.499 69.019 211.367 68.671C211.241 68.323 211.061 68.065 210.827 67.897C210.599 67.723 210.335 67.636 210.035 67.636C209.741 67.636 209.477 67.723 209.243 67.897C209.015 68.071 208.835 68.332 208.703 68.68C208.571 69.022 208.505 69.46 208.505 69.994C208.505 70.522 208.571 70.96 208.703 71.308C208.835 71.656 209.015 71.917 209.243 72.091C209.477 72.259 209.741 72.343 210.035 72.343ZM215.81 73.09C215.282 73.09 214.835 72.958 214.469 72.694C214.103 72.424 213.827 72.058 213.641 71.596C213.455 71.128 213.362 70.594 213.362 69.994C213.362 69.394 213.455 68.863 213.641 68.401C213.827 67.933 214.103 67.567 214.469 67.303C214.835 67.033 215.282 66.898 215.81 66.898C216.344 66.898 216.791 67.033 217.151 67.303C217.517 67.567 217.793 67.933 217.979 68.401C218.171 68.863 218.267 69.394 218.267 69.994C218.267 70.594 218.171 71.128 217.979 71.596C217.793 72.058 217.517 72.424 217.151 72.694C216.791 72.958 216.344 73.09 215.81 73.09ZM215.81 72.343C216.11 72.343 216.374 72.259 216.602 72.091C216.836 71.917 217.016 71.656 217.142 71.308C217.274 70.96 217.34 70.522 217.34 69.994C217.34 69.46 217.274 69.019 217.142 68.671C217.016 68.323 216.836 68.065 216.602 67.897C216.374 67.723 216.11 67.636 215.81 67.636C215.516 67.636 215.252 67.723 215.018 67.897C214.79 68.071 214.61 68.332 214.478 68.68C214.346 69.022 214.28 69.46 214.28 69.994C214.28 70.522 214.346 70.96 214.478 71.308C214.61 71.656 214.79 71.917 215.018 72.091C215.252 72.259 215.516 72.343 215.81 72.343Z" fill="#747FA6"/>
<path d="M120.711 10V3.988H122.133L124.068 8.884L126.012 3.988H127.434V10H126.525V4.879L124.464 10H123.672L121.611 4.879V10H120.711ZM130.163 10.09C129.851 10.09 129.575 10.042 129.335 9.946C129.101 9.844 128.918 9.7 128.786 9.514C128.654 9.322 128.588 9.091 128.588 8.821C128.588 8.551 128.654 8.329 128.786 8.155C128.918 7.975 129.104 7.834 129.344 7.732C129.584 7.624 129.857 7.552 130.163 7.516L131.657 7.336C131.621 7.018 131.501 6.784 131.297 6.634C131.093 6.484 130.841 6.409 130.541 6.409C130.337 6.409 130.124 6.451 129.902 6.535C129.686 6.613 129.455 6.739 129.209 6.913L128.894 6.274C129.128 6.088 129.386 5.944 129.668 5.842C129.956 5.734 130.253 5.68 130.559 5.68C131.201 5.68 131.687 5.827 132.017 6.121C132.353 6.409 132.521 6.844 132.521 7.426V10H131.702V9.388C131.546 9.622 131.336 9.799 131.072 9.919C130.814 10.033 130.511 10.09 130.163 10.09ZM130.361 9.37C130.643 9.37 130.88 9.316 131.072 9.208C131.27 9.094 131.417 8.944 131.513 8.758C131.615 8.572 131.666 8.377 131.666 8.173V7.984L130.406 8.146C130.094 8.188 129.857 8.257 129.695 8.353C129.533 8.443 129.452 8.59 129.452 8.794C129.452 8.98 129.533 9.124 129.695 9.226C129.857 9.322 130.079 9.37 130.361 9.37ZM132.996 10L134.616 7.813L133.086 5.77H134.067L135.156 7.291L136.254 5.77H137.235L135.705 7.813L137.325 10H136.344L135.156 8.389L133.977 10H132.996ZM140.434 10V3.988H142.828C143.566 3.988 144.121 4.144 144.493 4.456C144.865 4.768 145.051 5.242 145.051 5.878C145.051 6.514 144.865 6.988 144.493 7.3C144.121 7.606 143.566 7.759 142.828 7.759H141.334V10H140.434ZM141.334 7.003H142.657C143.137 7.003 143.503 6.919 143.755 6.751C144.007 6.583 144.133 6.292 144.133 5.878C144.133 5.458 144.01 5.164 143.764 4.996C143.524 4.828 143.155 4.744 142.657 4.744H141.334V7.003ZM146.163 10V5.77H146.982V6.508C147.09 6.244 147.246 6.046 147.45 5.914C147.66 5.782 147.894 5.716 148.152 5.716C148.236 5.716 148.311 5.722 148.377 5.734C148.449 5.74 148.506 5.752 148.548 5.77V6.571C148.464 6.553 148.38 6.541 148.296 6.535C148.218 6.523 148.14 6.517 148.062 6.517C147.762 6.517 147.51 6.643 147.306 6.895C147.108 7.141 147.009 7.495 147.009 7.957V10H146.163ZM151.211 10.09C150.779 10.09 150.395 10 150.059 9.82C149.723 9.634 149.462 9.376 149.276 9.046C149.09 8.716 148.997 8.329 148.997 7.885C148.997 7.441 149.09 7.054 149.276 6.724C149.462 6.394 149.723 6.139 150.059 5.959C150.395 5.773 150.779 5.68 151.211 5.68C151.649 5.68 152.033 5.773 152.363 5.959C152.699 6.139 152.96 6.394 153.146 6.724C153.338 7.054 153.434 7.441 153.434 7.885C153.434 8.329 153.338 8.716 153.146 9.046C152.96 9.376 152.699 9.634 152.363 9.82C152.033 10 151.649 10.09 151.211 10.09ZM151.211 9.343C151.481 9.343 151.718 9.286 151.922 9.172C152.126 9.052 152.282 8.884 152.39 8.668C152.504 8.446 152.561 8.185 152.561 7.885C152.561 7.585 152.504 7.327 152.39 7.111C152.282 6.889 152.126 6.718 151.922 6.598C151.718 6.478 151.481 6.418 151.211 6.418C150.941 6.418 150.704 6.478 150.5 6.598C150.302 6.718 150.146 6.889 150.032 7.111C149.918 7.327 149.861 7.585 149.861 7.885C149.861 8.185 149.918 8.446 150.032 8.668C150.146 8.884 150.302 9.052 150.5 9.172C150.704 9.286 150.941 9.343 151.211 9.343ZM155.007 10V6.49H154.08V5.77H155.007V5.212C155.007 4.774 155.112 4.453 155.322 4.249C155.538 4.039 155.868 3.934 156.312 3.934C156.426 3.934 156.543 3.94 156.663 3.952C156.783 3.964 156.879 3.982 156.951 4.006V4.69C156.897 4.678 156.822 4.669 156.726 4.663C156.636 4.657 156.555 4.654 156.483 4.654C156.267 4.654 156.108 4.708 156.006 4.816C155.904 4.918 155.853 5.071 155.853 5.275V5.77H156.951V6.49H155.853V10H155.007ZM157.844 10V5.77H158.69V10H157.844ZM158.267 4.897C158.111 4.897 157.985 4.852 157.889 4.762C157.799 4.672 157.754 4.555 157.754 4.411C157.754 4.267 157.799 4.15 157.889 4.06C157.985 3.97 158.111 3.925 158.267 3.925C158.417 3.925 158.54 3.97 158.636 4.06C158.732 4.15 158.78 4.267 158.78 4.411C158.78 4.555 158.732 4.672 158.636 4.762C158.54 4.852 158.417 4.897 158.267 4.897ZM161.814 10.054C161.37 10.054 161.04 9.952 160.824 9.748C160.614 9.538 160.509 9.214 160.509 8.776V6.49H159.582V5.77H160.509V4.564H161.355V5.77H162.453V6.49H161.355V8.704C161.355 8.914 161.406 9.07 161.508 9.172C161.61 9.274 161.769 9.325 161.985 9.325C162.057 9.325 162.138 9.322 162.228 9.316C162.324 9.31 162.399 9.301 162.453 9.289V9.973C162.381 9.997 162.285 10.015 162.165 10.027C162.045 10.045 161.928 10.054 161.814 10.054Z" fill="#46956A"/>
<line x1="311.5" y1="53" x2="311.5" y2="62" stroke="#20224E"/>
<path d="M302.928 73.9L303.135 72.982C302.913 72.916 302.697 72.826 302.487 72.712C302.283 72.598 302.079 72.454 301.875 72.28L302.235 71.569C302.427 71.725 302.613 71.854 302.793 71.956C302.973 72.052 303.15 72.13 303.324 72.19L303.756 70.282L303.567 70.246C303.033 70.144 302.646 69.961 302.406 69.697C302.172 69.433 302.055 69.112 302.055 68.734C302.055 68.398 302.13 68.092 302.28 67.816C302.43 67.54 302.661 67.318 302.973 67.15C303.285 66.982 303.678 66.898 304.152 66.898C304.218 66.898 304.281 66.901 304.341 66.907C304.407 66.907 304.473 66.91 304.539 66.916L304.728 66.088H305.268L305.052 67.015C305.244 67.063 305.43 67.135 305.61 67.231C305.796 67.327 305.976 67.444 306.15 67.582L305.781 68.284C305.625 68.176 305.472 68.083 305.322 68.005C305.178 67.921 305.028 67.852 304.872 67.798L304.476 69.535L304.809 69.598C305.337 69.694 305.721 69.895 305.961 70.201C306.207 70.501 306.33 70.837 306.33 71.209C306.33 71.773 306.132 72.229 305.736 72.577C305.346 72.919 304.782 73.09 304.044 73.09C303.972 73.09 303.903 73.087 303.837 73.081C303.777 73.075 303.717 73.069 303.657 73.063L303.468 73.9H302.928ZM303.837 72.298C303.873 72.304 303.906 72.307 303.936 72.307C303.972 72.307 304.008 72.307 304.044 72.307C304.482 72.307 304.818 72.22 305.052 72.046C305.286 71.866 305.403 71.617 305.403 71.299C305.403 71.077 305.331 70.891 305.187 70.741C305.043 70.585 304.833 70.483 304.557 70.435L304.278 70.381L303.837 72.298ZM303.954 69.436L304.359 67.69C304.329 67.684 304.299 67.681 304.269 67.681C304.239 67.681 304.206 67.681 304.17 67.681C303.774 67.681 303.474 67.765 303.27 67.933C303.072 68.101 302.973 68.329 302.973 68.617C302.973 68.839 303.042 69.013 303.18 69.139C303.324 69.259 303.531 69.346 303.801 69.4L303.954 69.436ZM308.668 73V67.96L307.372 68.671L307.021 67.978L308.902 66.988H309.568V73H308.668ZM312.184 73V67.96L310.888 68.671L310.537 67.978L312.418 66.988H313.084V73H312.184ZM316.681 73.09C316.153 73.09 315.706 72.958 315.34 72.694C314.974 72.424 314.698 72.058 314.512 71.596C314.326 71.128 314.233 70.594 314.233 69.994C314.233 69.394 314.326 68.863 314.512 68.401C314.698 67.933 314.974 67.567 315.34 67.303C315.706 67.033 316.153 66.898 316.681 66.898C317.215 66.898 317.662 67.033 318.022 67.303C318.388 67.567 318.664 67.933 318.85 68.401C319.042 68.863 319.138 69.394 319.138 69.994C319.138 70.594 319.042 71.128 318.85 71.596C318.664 72.058 318.388 72.424 318.022 72.694C317.662 72.958 317.215 73.09 316.681 73.09ZM316.681 72.343C316.981 72.343 317.245 72.259 317.473 72.091C317.707 71.917 317.887 71.656 318.013 71.308C318.145 70.96 318.211 70.522 318.211 69.994C318.211 69.46 318.145 69.019 318.013 68.671C317.887 68.323 317.707 68.065 317.473 67.897C317.245 67.723 316.981 67.636 316.681 67.636C316.387 67.636 316.123 67.723 315.889 67.897C315.661 68.071 315.481 68.332 315.349 68.68C315.217 69.022 315.151 69.46 315.151 69.994C315.151 70.522 315.217 70.96 315.349 71.308C315.481 71.656 315.661 71.917 315.889 72.091C316.123 72.259 316.387 72.343 316.681 72.343Z" fill="#747FA6"/>
<path d="M163.713 42V35.988H166.494C166.968 35.988 167.361 36.042 167.673 36.15C167.991 36.252 168.231 36.417 168.393 36.645C168.555 36.873 168.636 37.173 168.636 37.545C168.636 37.899 168.561 38.187 168.411 38.409C168.267 38.631 168.024 38.793 167.682 38.895C168.084 38.991 168.372 39.159 168.546 39.399C168.726 39.639 168.816 39.954 168.816 40.344C168.816 40.938 168.624 41.364 168.24 41.622C167.862 41.874 167.28 42 166.494 42H163.713ZM164.613 41.235H166.368C166.746 41.235 167.046 41.202 167.268 41.136C167.49 41.07 167.649 40.965 167.745 40.821C167.841 40.677 167.889 40.488 167.889 40.254C167.889 40.014 167.841 39.822 167.745 39.678C167.649 39.534 167.49 39.429 167.268 39.363C167.046 39.297 166.746 39.264 166.368 39.264H164.613V41.235ZM164.613 38.535H166.368C166.866 38.535 167.214 38.469 167.412 38.337C167.61 38.205 167.709 37.974 167.709 37.644C167.709 37.308 167.61 37.074 167.412 36.942C167.214 36.81 166.866 36.744 166.368 36.744H164.613V38.535ZM169.926 42V37.77H170.745V38.508C170.853 38.244 171.009 38.046 171.213 37.914C171.423 37.782 171.657 37.716 171.915 37.716C171.999 37.716 172.074 37.722 172.14 37.734C172.212 37.74 172.269 37.752 172.311 37.77V38.571C172.227 38.553 172.143 38.541 172.059 38.535C171.981 38.523 171.903 38.517 171.825 38.517C171.525 38.517 171.273 38.643 171.069 38.895C170.871 39.141 170.772 39.495 170.772 39.957V42H169.926ZM175.009 42.09C174.583 42.09 174.199 42.006 173.857 41.838C173.521 41.664 173.254 41.415 173.056 41.091C172.858 40.761 172.759 40.359 172.759 39.885C172.759 39.435 172.852 39.045 173.038 38.715C173.23 38.385 173.485 38.13 173.803 37.95C174.127 37.77 174.487 37.68 174.883 37.68C175.303 37.68 175.663 37.761 175.963 37.923C176.269 38.079 176.506 38.295 176.674 38.571C176.842 38.847 176.926 39.159 176.926 39.507C176.926 39.609 176.911 39.72 176.881 39.84C176.857 39.96 176.821 40.056 176.773 40.128H173.623C173.653 40.392 173.731 40.617 173.857 40.803C173.983 40.989 174.151 41.13 174.361 41.226C174.571 41.316 174.814 41.361 175.09 41.361C175.366 41.361 175.609 41.319 175.819 41.235C176.035 41.151 176.242 41.031 176.44 40.875L176.746 41.505C176.512 41.697 176.248 41.844 175.954 41.946C175.666 42.042 175.351 42.09 175.009 42.09ZM173.623 39.471H176.044C176.05 39.459 176.053 39.447 176.053 39.435C176.053 39.417 176.053 39.399 176.053 39.381C176.053 39.183 176.011 39.012 175.927 38.868C175.843 38.718 175.717 38.601 175.549 38.517C175.381 38.433 175.168 38.391 174.91 38.391C174.706 38.391 174.514 38.436 174.334 38.526C174.16 38.61 174.01 38.733 173.884 38.895C173.764 39.051 173.677 39.243 173.623 39.471ZM179.37 42.09C179.058 42.09 178.782 42.042 178.542 41.946C178.308 41.844 178.125 41.7 177.993 41.514C177.861 41.322 177.795 41.091 177.795 40.821C177.795 40.551 177.861 40.329 177.993 40.155C178.125 39.975 178.311 39.834 178.551 39.732C178.791 39.624 179.064 39.552 179.37 39.516L180.864 39.336C180.828 39.018 180.708 38.784 180.504 38.634C180.3 38.484 180.048 38.409 179.748 38.409C179.544 38.409 179.331 38.451 179.109 38.535C178.893 38.613 178.662 38.739 178.416 38.913L178.101 38.274C178.335 38.088 178.593 37.944 178.875 37.842C179.163 37.734 179.46 37.68 179.766 37.68C180.408 37.68 180.894 37.827 181.224 38.121C181.56 38.409 181.728 38.844 181.728 39.426V42H180.909V41.388C180.753 41.622 180.543 41.799 180.279 41.919C180.021 42.033 179.718 42.09 179.37 42.09ZM179.568 41.37C179.85 41.37 180.087 41.316 180.279 41.208C180.477 41.094 180.624 40.944 180.72 40.758C180.822 40.572 180.873 40.377 180.873 40.173V39.984L179.613 40.146C179.301 40.188 179.064 40.257 178.902 40.353C178.74 40.443 178.659 40.59 178.659 40.794C178.659 40.98 178.74 41.124 178.902 41.226C179.064 41.322 179.286 41.37 179.568 41.37ZM183.066 42V35.988H183.912V39.759L185.91 37.77H186.945L185.181 39.498L187.035 42H186L184.587 40.083L183.912 40.74V42H183.066ZM186.971 39.768V39.084H189.41V39.768H186.971ZM190.555 42V35.988H194.722V36.762H191.455V38.535H194.452V39.273H191.455V41.226H194.722V42H190.555ZM197.113 42L195.421 37.77H196.33L197.581 41.118L198.832 37.77H199.75L198.049 42H197.113ZM202.291 42.09C201.865 42.09 201.481 42.006 201.139 41.838C200.803 41.664 200.536 41.415 200.338 41.091C200.14 40.761 200.041 40.359 200.041 39.885C200.041 39.435 200.134 39.045 200.32 38.715C200.512 38.385 200.767 38.13 201.085 37.95C201.409 37.77 201.769 37.68 202.165 37.68C202.585 37.68 202.945 37.761 203.245 37.923C203.551 38.079 203.788 38.295 203.956 38.571C204.124 38.847 204.208 39.159 204.208 39.507C204.208 39.609 204.193 39.72 204.163 39.84C204.139 39.96 204.103 40.056 204.055 40.128H200.905C200.935 40.392 201.013 40.617 201.139 40.803C201.265 40.989 201.433 41.13 201.643 41.226C201.853 41.316 202.096 41.361 202.372 41.361C202.648 41.361 202.891 41.319 203.101 41.235C203.317 41.151 203.524 41.031 203.722 40.875L204.028 41.505C203.794 41.697 203.53 41.844 203.236 41.946C202.948 42.042 202.633 42.09 202.291 42.09ZM200.905 39.471H203.326C203.332 39.459 203.335 39.447 203.335 39.435C203.335 39.417 203.335 39.399 203.335 39.381C203.335 39.183 203.293 39.012 203.209 38.868C203.125 38.718 202.999 38.601 202.831 38.517C202.663 38.433 202.45 38.391 202.192 38.391C201.988 38.391 201.796 38.436 201.616 38.526C201.442 38.61 201.292 38.733 201.166 38.895C201.046 39.051 200.959 39.243 200.905 39.471ZM205.311 42V37.77H206.13V38.4C206.256 38.178 206.436 38.004 206.67 37.878C206.91 37.746 207.201 37.68 207.543 37.68C208.029 37.68 208.41 37.818 208.686 38.094C208.962 38.37 209.1 38.802 209.1 39.39V42H208.245V39.498C208.245 39.12 208.167 38.847 208.011 38.679C207.861 38.505 207.63 38.418 207.318 38.418C206.952 38.418 206.667 38.544 206.463 38.796C206.259 39.048 206.157 39.393 206.157 39.831V42H205.311ZM213.433 42.9L213.64 41.982C213.418 41.916 213.202 41.826 212.992 41.712C212.788 41.598 212.584 41.454 212.38 41.28L212.74 40.569C212.932 40.725 213.118 40.854 213.298 40.956C213.478 41.052 213.655 41.13 213.829 41.19L214.261 39.282L214.072 39.246C213.538 39.144 213.151 38.961 212.911 38.697C212.677 38.433 212.56 38.112 212.56 37.734C212.56 37.398 212.635 37.092 212.785 36.816C212.935 36.54 213.166 36.318 213.478 36.15C213.79 35.982 214.183 35.898 214.657 35.898C214.723 35.898 214.786 35.901 214.846 35.907C214.912 35.907 214.978 35.91 215.044 35.916L215.233 35.088H215.773L215.557 36.015C215.749 36.063 215.935 36.135 216.115 36.231C216.301 36.327 216.481 36.444 216.655 36.582L216.286 37.284C216.13 37.176 215.977 37.083 215.827 37.005C215.683 36.921 215.533 36.852 215.377 36.798L214.981 38.535L215.314 38.598C215.842 38.694 216.226 38.895 216.466 39.201C216.712 39.501 216.835 39.837 216.835 40.209C216.835 40.773 216.637 41.229 216.241 41.577C215.851 41.919 215.287 42.09 214.549 42.09C214.477 42.09 214.408 42.087 214.342 42.081C214.282 42.075 214.222 42.069 214.162 42.063L213.973 42.9H213.433ZM214.342 41.298C214.378 41.304 214.411 41.307 214.441 41.307C214.477 41.307 214.513 41.307 214.549 41.307C214.987 41.307 215.323 41.22 215.557 41.046C215.791 40.866 215.908 40.617 215.908 40.299C215.908 40.077 215.836 39.891 215.692 39.741C215.548 39.585 215.338 39.483 215.062 39.435L214.783 39.381L214.342 41.298ZM214.459 38.436L214.864 36.69C214.834 36.684 214.804 36.681 214.774 36.681C214.744 36.681 214.711 36.681 214.675 36.681C214.279 36.681 213.979 36.765 213.775 36.933C213.577 37.101 213.478 37.329 213.478 37.617C213.478 37.839 213.547 38.013 213.685 38.139C213.829 38.259 214.036 38.346 214.306 38.4L214.459 38.436ZM219.732 42.09C219.348 42.09 218.997 42.021 218.679 41.883C218.367 41.739 218.097 41.538 217.869 41.28L218.211 40.686C218.445 40.908 218.682 41.073 218.922 41.181C219.162 41.289 219.405 41.343 219.651 41.343C219.969 41.343 220.257 41.271 220.515 41.127C220.779 40.977 220.989 40.743 221.145 40.425C221.307 40.107 221.397 39.693 221.415 39.183C221.265 39.399 221.055 39.57 220.785 39.696C220.521 39.822 220.209 39.885 219.849 39.885C219.399 39.885 219.012 39.801 218.688 39.633C218.37 39.465 218.127 39.234 217.959 38.94C217.791 38.646 217.707 38.307 217.707 37.923C217.707 37.539 217.797 37.194 217.977 36.888C218.157 36.582 218.412 36.342 218.742 36.168C219.078 35.988 219.474 35.898 219.93 35.898C220.428 35.898 220.854 35.997 221.208 36.195C221.568 36.393 221.847 36.693 222.045 37.095C222.243 37.497 222.342 38.01 222.342 38.634C222.342 39.324 222.246 39.93 222.054 40.452C221.862 40.968 221.574 41.37 221.19 41.658C220.806 41.946 220.32 42.09 219.732 42.09ZM220.02 39.183C220.458 39.183 220.8 39.072 221.046 38.85C221.292 38.622 221.415 38.31 221.415 37.914C221.355 37.536 221.214 37.23 220.992 36.996C220.77 36.756 220.446 36.636 220.02 36.636C219.588 36.636 219.246 36.75 218.994 36.978C218.748 37.206 218.625 37.515 218.625 37.905C218.625 38.307 218.748 38.622 218.994 38.85C219.246 39.072 219.588 39.183 220.02 39.183ZM225.35 42.09C225.032 42.09 224.747 42.06 224.495 42C224.249 41.946 224.024 41.859 223.82 41.739C223.616 41.613 223.415 41.46 223.217 41.28L223.568 40.641C223.868 40.893 224.153 41.073 224.423 41.181C224.699 41.289 224.978 41.343 225.26 41.343C225.698 41.343 226.04 41.232 226.286 41.01C226.532 40.782 226.655 40.47 226.655 40.074C226.655 39.678 226.532 39.369 226.286 39.147C226.04 38.919 225.698 38.805 225.26 38.805C224.966 38.805 224.717 38.865 224.513 38.985C224.315 39.099 224.177 39.267 224.099 39.489L223.325 39.345L223.937 35.898H227.132V36.636H224.621L224.288 38.445C224.432 38.331 224.603 38.247 224.801 38.193C224.999 38.133 225.209 38.103 225.431 38.103C225.887 38.103 226.274 38.187 226.592 38.355C226.91 38.517 227.153 38.745 227.321 39.039C227.495 39.333 227.582 39.672 227.582 40.056C227.582 40.44 227.492 40.785 227.312 41.091C227.132 41.397 226.874 41.64 226.538 41.82C226.208 42 225.812 42.09 225.35 42.09Z" fill="#747FA6"/>
<path d="M162.479 43.8232C162.577 43.7256 162.735 43.7256 162.833 43.8232C162.931 43.9209 162.931 44.0791 162.833 44.1768L162.479 43.8232ZM156.999 49.9069C156.861 49.9069 156.749 49.7949 156.749 49.6569L156.749 47.4069C156.749 47.2688 156.861 47.1569 156.999 47.1569C157.137 47.1569 157.249 47.2688 157.249 47.4069L157.249 49.4069L159.249 49.4069C159.387 49.4069 159.499 49.5188 159.499 49.6569C159.499 49.7949 159.387 49.9069 159.249 49.9069L156.999 49.9069ZM162.833 44.1768L157.176 49.8336L156.823 49.4801L162.479 43.8232L162.833 44.1768Z" fill="#747FA6"/>
<line x1="41.5" y1="106.5" x2="203.5" y2="106.5" stroke="#C75E4B" stroke-linecap="round" stroke-dasharray="2 2"/>
<path d="M107 4L108.494 9.57678L112.577 5.49429L107 4ZM209.5 106.5L209.146 106.854L209.293 107H209.5V106.5ZM311.5 106.5L306.5 103.613V109.387L311.5 106.5ZM109.828 7.53553L156.146 53.8536L156.854 53.1464L110.536 6.82843L109.828 7.53553ZM156.146 53.8536L209.146 106.854L209.854 106.146L156.854 53.1464L156.146 53.8536ZM209.5 107H307V106H209.5V107Z" fill="#C75E4B"/>
<path d="M107 4L108.494 9.57678L112.577 5.49429L107 4ZM109.828 7.53553L160.146 57.8536L160.854 57.1464L110.536 6.82843L109.828 7.53553Z" fill="#46956A"/>
</svg>
