<svg width="382" height="115" viewBox="0 0 382 115" fill="none" xmlns="http://www.w3.org/2000/svg">
<line x1="33.5" y1="-2.18557e-08" x2="33.5" y2="115" stroke="#20224E"/>
<line x1="29" y1="98.5" x2="38" y2="98.5" stroke="#20224E"/>
<line x1="29" y1="20.5078" x2="38" y2="20.5078" stroke="#20224E"/>
<line x1="382" y1="57.5" x2="34" y2="57.5" stroke="#20224E"/>
<path opacity="0.05" d="M103 58.0078L103 99.0078L128 58.0078L103 58.0078Z" fill="#C75E4B"/>
<path opacity="0.05" d="M301 58.0078L301 99.0078L276 58.0078L301 58.0078Z" fill="#C75E4B"/>
<path d="M1.01424 99.768V99.084H3.45324V99.768H1.01424ZM5.38072 102.9L5.58772 101.982C5.36572 101.916 5.14972 101.826 4.93972 101.712C4.73572 101.598 4.53172 101.454 4.32772 101.28L4.68772 100.569C4.87972 100.725 5.06572 100.854 5.24572 100.956C5.42572 101.052 5.60272 101.13 5.77672 101.19L6.20872 99.282L6.01972 99.246C5.48572 99.144 5.09872 98.961 4.85872 98.697C4.62472 98.433 4.50772 98.112 4.50772 97.734C4.50772 97.398 4.58272 97.092 4.73272 96.816C4.88272 96.54 5.11372 96.318 5.42572 96.15C5.73772 95.982 6.13072 95.898 6.60472 95.898C6.67072 95.898 6.73372 95.901 6.79372 95.907C6.85972 95.907 6.92572 95.91 6.99172 95.916L7.18072 95.088H7.72072L7.50472 96.015C7.69672 96.063 7.88272 96.135 8.06272 96.231C8.24872 96.327 8.42872 96.444 8.60272 96.582L8.23372 97.284C8.07772 97.176 7.92472 97.083 7.77472 97.005C7.63072 96.921 7.48072 96.852 7.32472 96.798L6.92872 98.535L7.26172 98.598C7.78972 98.694 8.17372 98.895 8.41372 99.201C8.65972 99.501 8.78272 99.837 8.78272 100.209C8.78272 100.773 8.58472 101.229 8.18872 101.577C7.79872 101.919 7.23472 102.09 6.49672 102.09C6.42472 102.09 6.35572 102.087 6.28972 102.081C6.22972 102.075 6.16972 102.069 6.10972 102.063L5.92072 102.9H5.38072ZM6.28972 101.298C6.32572 101.304 6.35872 101.307 6.38872 101.307C6.42472 101.307 6.46072 101.307 6.49672 101.307C6.93472 101.307 7.27072 101.22 7.50472 101.046C7.73872 100.866 7.85572 100.617 7.85572 100.299C7.85572 100.077 7.78372 99.891 7.63972 99.741C7.49572 99.585 7.28572 99.483 7.00972 99.435L6.73072 99.381L6.28972 101.298ZM6.40672 98.436L6.81172 96.69C6.78172 96.684 6.75172 96.681 6.72172 96.681C6.69172 96.681 6.65872 96.681 6.62272 96.681C6.22672 96.681 5.92672 96.765 5.72272 96.933C5.52472 97.101 5.42572 97.329 5.42572 97.617C5.42572 97.839 5.49472 98.013 5.63272 98.139C5.77672 98.259 5.98372 98.346 6.25372 98.4L6.40672 98.436ZM11.7869 102.09C11.4689 102.09 11.1839 102.06 10.9319 102C10.6859 101.946 10.4609 101.859 10.2569 101.739C10.0529 101.613 9.85189 101.46 9.65389 101.28L10.0049 100.641C10.3049 100.893 10.5899 101.073 10.8599 101.181C11.1359 101.289 11.4149 101.343 11.6969 101.343C12.1349 101.343 12.4769 101.232 12.7229 101.01C12.9689 100.782 13.0919 100.47 13.0919 100.074C13.0919 99.678 12.9689 99.369 12.7229 99.147C12.4769 98.919 12.1349 98.805 11.6969 98.805C11.4029 98.805 11.1539 98.865 10.9499 98.985C10.7519 99.099 10.6139 99.267 10.5359 99.489L9.76189 99.345L10.3739 95.898H13.5689V96.636H11.0579L10.7249 98.445C10.8689 98.331 11.0399 98.247 11.2379 98.193C11.4359 98.133 11.6459 98.103 11.8679 98.103C12.3239 98.103 12.7109 98.187 13.0289 98.355C13.3469 98.517 13.5899 98.745 13.7579 99.039C13.9319 99.333 14.0189 99.672 14.0189 100.056C14.0189 100.44 13.9289 100.785 13.7489 101.091C13.5689 101.397 13.3109 101.64 12.9749 101.82C12.6449 102 12.2489 102.09 11.7869 102.09ZM17.3402 102.09C16.8122 102.09 16.3652 101.958 15.9992 101.694C15.6332 101.424 15.3572 101.058 15.1712 100.596C14.9852 100.128 14.8922 99.594 14.8922 98.994C14.8922 98.394 14.9852 97.863 15.1712 97.401C15.3572 96.933 15.6332 96.567 15.9992 96.303C16.3652 96.033 16.8122 95.898 17.3402 95.898C17.8742 95.898 18.3212 96.033 18.6812 96.303C19.0472 96.567 19.3232 96.933 19.5092 97.401C19.7012 97.863 19.7972 98.394 19.7972 98.994C19.7972 99.594 19.7012 100.128 19.5092 100.596C19.3232 101.058 19.0472 101.424 18.6812 101.694C18.3212 101.958 17.8742 102.09 17.3402 102.09ZM17.3402 101.343C17.6402 101.343 17.9042 101.259 18.1322 101.091C18.3662 100.917 18.5462 100.656 18.6722 100.308C18.8042 99.96 18.8702 99.522 18.8702 98.994C18.8702 98.46 18.8042 98.019 18.6722 97.671C18.5462 97.323 18.3662 97.065 18.1322 96.897C17.9042 96.723 17.6402 96.636 17.3402 96.636C17.0462 96.636 16.7822 96.723 16.5482 96.897C16.3202 97.071 16.1402 97.332 16.0082 97.68C15.8762 98.022 15.8102 98.46 15.8102 98.994C15.8102 99.522 15.8762 99.96 16.0082 100.308C16.1402 100.656 16.3202 100.917 16.5482 101.091C16.7822 101.259 17.0462 101.343 17.3402 101.343ZM23.1146 102.09C22.5866 102.09 22.1396 101.958 21.7736 101.694C21.4076 101.424 21.1316 101.058 20.9456 100.596C20.7596 100.128 20.6666 99.594 20.6666 98.994C20.6666 98.394 20.7596 97.863 20.9456 97.401C21.1316 96.933 21.4076 96.567 21.7736 96.303C22.1396 96.033 22.5866 95.898 23.1146 95.898C23.6486 95.898 24.0956 96.033 24.4556 96.303C24.8216 96.567 25.0976 96.933 25.2836 97.401C25.4756 97.863 25.5716 98.394 25.5716 98.994C25.5716 99.594 25.4756 100.128 25.2836 100.596C25.0976 101.058 24.8216 101.424 24.4556 101.694C24.0956 101.958 23.6486 102.09 23.1146 102.09ZM23.1146 101.343C23.4146 101.343 23.6786 101.259 23.9066 101.091C24.1406 100.917 24.3206 100.656 24.4466 100.308C24.5786 99.96 24.6446 99.522 24.6446 98.994C24.6446 98.46 24.5786 98.019 24.4466 97.671C24.3206 97.323 24.1406 97.065 23.9066 96.897C23.6786 96.723 23.4146 96.636 23.1146 96.636C22.8206 96.636 22.5566 96.723 22.3226 96.897C22.0946 97.071 21.9146 97.332 21.7826 97.68C21.6506 98.022 21.5846 98.46 21.5846 98.994C21.5846 99.522 21.6506 99.96 21.7826 100.308C21.9146 100.656 22.0946 100.917 22.3226 101.091C22.5566 101.259 22.8206 101.343 23.1146 101.343Z" fill="#747FA6"/>
<path d="M1.01424 21.7758V21.0918H3.45324V21.7758H1.01424ZM5.38072 24.9078L5.58772 23.9898C5.36572 23.9238 5.14972 23.8338 4.93972 23.7198C4.73572 23.6058 4.53172 23.4618 4.32772 23.2878L4.68772 22.5768C4.87972 22.7328 5.06572 22.8618 5.24572 22.9638C5.42572 23.0598 5.60272 23.1378 5.77672 23.1978L6.20872 21.2898L6.01972 21.2538C5.48572 21.1518 5.09872 20.9688 4.85872 20.7048C4.62472 20.4408 4.50772 20.1198 4.50772 19.7418C4.50772 19.4058 4.58272 19.0998 4.73272 18.8238C4.88272 18.5478 5.11372 18.3258 5.42572 18.1578C5.73772 17.9898 6.13072 17.9058 6.60472 17.9058C6.67072 17.9058 6.73372 17.9088 6.79372 17.9148C6.85972 17.9148 6.92572 17.9178 6.99172 17.9238L7.18072 17.0958H7.72072L7.50472 18.0228C7.69672 18.0708 7.88272 18.1428 8.06272 18.2388C8.24872 18.3348 8.42872 18.4518 8.60272 18.5898L8.23372 19.2918C8.07772 19.1838 7.92472 19.0908 7.77472 19.0128C7.63072 18.9288 7.48072 18.8598 7.32472 18.8058L6.92872 20.5428L7.26172 20.6058C7.78972 20.7018 8.17372 20.9028 8.41372 21.2088C8.65972 21.5088 8.78272 21.8448 8.78272 22.2168C8.78272 22.7808 8.58472 23.2368 8.18872 23.5848C7.79872 23.9268 7.23472 24.0978 6.49672 24.0978C6.42472 24.0978 6.35572 24.0948 6.28972 24.0888C6.22972 24.0828 6.16972 24.0768 6.10972 24.0708L5.92072 24.9078H5.38072ZM6.28972 23.3058C6.32572 23.3118 6.35872 23.3148 6.38872 23.3148C6.42472 23.3148 6.46072 23.3148 6.49672 23.3148C6.93472 23.3148 7.27072 23.2278 7.50472 23.0538C7.73872 22.8738 7.85572 22.6248 7.85572 22.3068C7.85572 22.0848 7.78372 21.8988 7.63972 21.7488C7.49572 21.5928 7.28572 21.4908 7.00972 21.4428L6.73072 21.3888L6.28972 23.3058ZM6.40672 20.4438L6.81172 18.6978C6.78172 18.6918 6.75172 18.6888 6.72172 18.6888C6.69172 18.6888 6.65872 18.6888 6.62272 18.6888C6.22672 18.6888 5.92672 18.7728 5.72272 18.9408C5.52472 19.1088 5.42572 19.3368 5.42572 19.6248C5.42572 19.8468 5.49472 20.0208 5.63272 20.1468C5.77672 20.2668 5.98372 20.3538 6.25372 20.4078L6.40672 20.4438ZM11.7869 24.0978C11.4689 24.0978 11.1839 24.0678 10.9319 24.0078C10.6859 23.9538 10.4609 23.8668 10.2569 23.7468C10.0529 23.6208 9.85189 23.4678 9.65389 23.2878L10.0049 22.6488C10.3049 22.9008 10.5899 23.0808 10.8599 23.1888C11.1359 23.2968 11.4149 23.3508 11.6969 23.3508C12.1349 23.3508 12.4769 23.2398 12.7229 23.0178C12.9689 22.7898 13.0919 22.4778 13.0919 22.0818C13.0919 21.6858 12.9689 21.3768 12.7229 21.1548C12.4769 20.9268 12.1349 20.8128 11.6969 20.8128C11.4029 20.8128 11.1539 20.8728 10.9499 20.9928C10.7519 21.1068 10.6139 21.2748 10.5359 21.4968L9.76189 21.3528L10.3739 17.9058H13.5689V18.6438H11.0579L10.7249 20.4528C10.8689 20.3388 11.0399 20.2548 11.2379 20.2008C11.4359 20.1408 11.6459 20.1108 11.8679 20.1108C12.3239 20.1108 12.7109 20.1948 13.0289 20.3628C13.3469 20.5248 13.5899 20.7528 13.7579 21.0468C13.9319 21.3408 14.0189 21.6798 14.0189 22.0638C14.0189 22.4478 13.9289 22.7928 13.7489 23.0988C13.5689 23.4048 13.3109 23.6478 12.9749 23.8278C12.6449 24.0078 12.2489 24.0978 11.7869 24.0978ZM17.3402 24.0978C16.8122 24.0978 16.3652 23.9658 15.9992 23.7018C15.6332 23.4318 15.3572 23.0658 15.1712 22.6038C14.9852 22.1358 14.8922 21.6018 14.8922 21.0018C14.8922 20.4018 14.9852 19.8708 15.1712 19.4088C15.3572 18.9408 15.6332 18.5748 15.9992 18.3108C16.3652 18.0408 16.8122 17.9058 17.3402 17.9058C17.8742 17.9058 18.3212 18.0408 18.6812 18.3108C19.0472 18.5748 19.3232 18.9408 19.5092 19.4088C19.7012 19.8708 19.7972 20.4018 19.7972 21.0018C19.7972 21.6018 19.7012 22.1358 19.5092 22.6038C19.3232 23.0658 19.0472 23.4318 18.6812 23.7018C18.3212 23.9658 17.8742 24.0978 17.3402 24.0978ZM17.3402 23.3508C17.6402 23.3508 17.9042 23.2668 18.1322 23.0988C18.3662 22.9248 18.5462 22.6638 18.6722 22.3158C18.8042 21.9678 18.8702 21.5298 18.8702 21.0018C18.8702 20.4678 18.8042 20.0268 18.6722 19.6788C18.5462 19.3308 18.3662 19.0728 18.1322 18.9048C17.9042 18.7308 17.6402 18.6438 17.3402 18.6438C17.0462 18.6438 16.7822 18.7308 16.5482 18.9048C16.3202 19.0788 16.1402 19.3398 16.0082 19.6878C15.8762 20.0298 15.8102 20.4678 15.8102 21.0018C15.8102 21.5298 15.8762 21.9678 16.0082 22.3158C16.1402 22.6638 16.3202 22.9248 16.5482 23.0988C16.7822 23.2668 17.0462 23.3508 17.3402 23.3508ZM23.1146 24.0978C22.5866 24.0978 22.1396 23.9658 21.7736 23.7018C21.4076 23.4318 21.1316 23.0658 20.9456 22.6038C20.7596 22.1358 20.6666 21.6018 20.6666 21.0018C20.6666 20.4018 20.7596 19.8708 20.9456 19.4088C21.1316 18.9408 21.4076 18.5748 21.7736 18.3108C22.1396 18.0408 22.5866 17.9058 23.1146 17.9058C23.6486 17.9058 24.0956 18.0408 24.4556 18.3108C24.8216 18.5748 25.0976 18.9408 25.2836 19.4088C25.4756 19.8708 25.5716 20.4018 25.5716 21.0018C25.5716 21.6018 25.4756 22.1358 25.2836 22.6038C25.0976 23.0658 24.8216 23.4318 24.4556 23.7018C24.0956 23.9658 23.6486 24.0978 23.1146 24.0978ZM23.1146 23.3508C23.4146 23.3508 23.6786 23.2668 23.9066 23.0988C24.1406 22.9248 24.3206 22.6638 24.4466 22.3158C24.5786 21.9678 24.6446 21.5298 24.6446 21.0018C24.6446 20.4678 24.5786 20.0268 24.4466 19.6788C24.3206 19.3308 24.1406 19.0728 23.9066 18.9048C23.6786 18.7308 23.4146 18.6438 23.1146 18.6438C22.8206 18.6438 22.5566 18.7308 22.3226 18.9048C22.0946 19.0788 21.9146 19.3398 21.7826 19.6878C21.6506 20.0298 21.5846 20.4678 21.5846 21.0018C21.5846 21.5298 21.6506 21.9678 21.7826 22.3158C21.9146 22.6638 22.0946 22.9248 22.3226 23.0988C22.5566 23.2668 22.8206 23.3508 23.1146 23.3508Z" fill="#747FA6"/>
<path d="M301 98.4671L300.758 92.6987L295.883 95.7929L301 98.4671ZM275 57.5078L275.422 57.2399L275.418 57.2338L275.414 57.2279L275 57.5078ZM250 20.5078L250.414 20.2279L250.266 20.0078L250 20.0078L250 20.5078ZM150 20.5078L150 20.0078L149.716 20.0078L149.57 20.2523L150 20.5078ZM128 57.5078L128.428 57.7658L128.43 57.7634L128 57.5078ZM103 99.0078L108.053 96.2145L103.107 93.2353L103 99.0078ZM299.01 94.4L275.422 57.2399L274.578 57.7758L298.166 94.9359L299.01 94.4ZM275.414 57.2279L250.414 20.2279L249.586 20.7877L274.586 57.7877L275.414 57.2279ZM250 20.0078L150 20.0078L150 21.0078L250 21.0078L250 20.0078ZM149.57 20.2523L127.57 57.2523L128.43 57.7634L150.43 20.7633L149.57 20.2523ZM127.572 57.2498L104.894 94.8952L105.75 95.4112L128.428 57.7658L127.572 57.2498Z" fill="#46956A"/>
<path d="M103 99.0078L108.053 96.2145L103.107 93.2353L103 99.0078ZM127.572 57.2498L104.894 94.8952L105.75 95.4112L128.428 57.7658L127.572 57.2498Z" fill="#C75E4B"/>
<path d="M301 98.4668L300.758 92.6984L295.883 95.7925L301 98.4668ZM299.01 94.3996L275.422 57.2395L274.578 57.7754L298.166 94.9356L299.01 94.3996Z" fill="#C75E4B"/>
<path opacity="0.05" d="M250 20.0078L275 57.0078L128.5 57.0078L150 20.0078L250 20.0078Z" fill="#46956A"/>
<path d="M309.383 99.0978C308.603 99.0978 307.985 98.8908 307.529 98.4768C307.079 98.0628 306.854 97.4238 306.854 96.5598V92.9958H307.754V96.5598C307.754 96.9618 307.817 97.2918 307.943 97.5498C308.075 97.8078 308.261 97.9968 308.501 98.1168C308.747 98.2368 309.041 98.2968 309.383 98.2968C309.725 98.2968 310.016 98.2368 310.256 98.1168C310.502 97.9968 310.688 97.8078 310.814 97.5498C310.946 97.2918 311.012 96.9618 311.012 96.5598V92.9958H311.921V96.5598C311.921 97.4238 311.693 98.0628 311.237 98.4768C310.787 98.8908 310.169 99.0978 309.383 99.0978ZM313.295 99.0078V94.7778H314.114V95.4078C314.24 95.1858 314.42 95.0118 314.654 94.8858C314.894 94.7538 315.185 94.6878 315.527 94.6878C316.013 94.6878 316.394 94.8258 316.67 95.1018C316.946 95.3778 317.084 95.8098 317.084 96.3978V99.0078H316.229V96.5058C316.229 96.1278 316.151 95.8548 315.995 95.6868C315.845 95.5128 315.614 95.4258 315.302 95.4258C314.936 95.4258 314.651 95.5518 314.447 95.8038C314.243 96.0558 314.141 96.4008 314.141 96.8388V99.0078H313.295ZM318.428 99.0078V92.9958H319.274V99.0078H318.428ZM320.625 99.0078V94.7778H321.471V99.0078H320.625ZM321.048 93.9048C320.892 93.9048 320.766 93.8598 320.67 93.7698C320.58 93.6798 320.535 93.5628 320.535 93.4188C320.535 93.2748 320.58 93.1578 320.67 93.0678C320.766 92.9778 320.892 92.9328 321.048 92.9328C321.198 92.9328 321.321 92.9778 321.417 93.0678C321.513 93.1578 321.561 93.2748 321.561 93.4188C321.561 93.5628 321.513 93.6798 321.417 93.7698C321.321 93.8598 321.198 93.9048 321.048 93.9048ZM322.822 99.0078V94.7778H323.641V95.3358C323.761 95.1318 323.926 94.9728 324.136 94.8588C324.346 94.7448 324.601 94.6878 324.901 94.6878C325.207 94.6878 325.465 94.7538 325.675 94.8858C325.891 95.0118 326.053 95.1888 326.161 95.4168C326.293 95.1768 326.479 94.9968 326.719 94.8768C326.965 94.7508 327.25 94.6878 327.574 94.6878C328.048 94.6878 328.423 94.8258 328.699 95.1018C328.975 95.3778 329.113 95.8098 329.113 96.3978V99.0078H328.258V96.5058C328.258 96.1278 328.183 95.8548 328.033 95.6868C327.889 95.5128 327.676 95.4258 327.394 95.4258C327.064 95.4258 326.812 95.5518 326.638 95.8038C326.47 96.0558 326.386 96.4008 326.386 96.8388V99.0078H325.531V96.5058C325.531 96.1278 325.456 95.8548 325.306 95.6868C325.162 95.5128 324.952 95.4258 324.676 95.4258C324.346 95.4258 324.094 95.5518 323.92 95.8038C323.752 96.0558 323.668 96.4008 323.668 96.8388V99.0078H322.822ZM330.451 99.0078V94.7778H331.297V99.0078H330.451ZM330.874 93.9048C330.718 93.9048 330.592 93.8598 330.496 93.7698C330.406 93.6798 330.361 93.5628 330.361 93.4188C330.361 93.2748 330.406 93.1578 330.496 93.0678C330.592 92.9778 330.718 92.9328 330.874 92.9328C331.024 92.9328 331.147 92.9778 331.243 93.0678C331.339 93.1578 331.387 93.2748 331.387 93.4188C331.387 93.5628 331.339 93.6798 331.243 93.7698C331.147 93.8598 331.024 93.9048 330.874 93.9048ZM334.422 99.0618C333.978 99.0618 333.648 98.9598 333.432 98.7558C333.222 98.5458 333.117 98.2218 333.117 97.7838V95.4978H332.19V94.7778H333.117V93.5718H333.963V94.7778H335.061V95.4978H333.963V97.7118C333.963 97.9218 334.014 98.0778 334.116 98.1798C334.218 98.2818 334.377 98.3328 334.593 98.3328C334.665 98.3328 334.746 98.3298 334.836 98.3238C334.932 98.3178 335.007 98.3088 335.061 98.2968V98.9808C334.989 99.0048 334.893 99.0228 334.773 99.0348C334.653 99.0528 334.536 99.0618 334.422 99.0618ZM338.11 99.0978C337.684 99.0978 337.3 99.0138 336.958 98.8458C336.622 98.6718 336.355 98.4228 336.157 98.0988C335.959 97.7688 335.86 97.3668 335.86 96.8928C335.86 96.4428 335.953 96.0528 336.139 95.7228C336.331 95.3928 336.586 95.1378 336.904 94.9578C337.228 94.7778 337.588 94.6878 337.984 94.6878C338.404 94.6878 338.764 94.7688 339.064 94.9308C339.37 95.0868 339.607 95.3028 339.775 95.5788C339.943 95.8548 340.027 96.1668 340.027 96.5148C340.027 96.6168 340.012 96.7278 339.982 96.8478C339.958 96.9678 339.922 97.0638 339.874 97.1358H336.724C336.754 97.3998 336.832 97.6248 336.958 97.8108C337.084 97.9968 337.252 98.1378 337.462 98.2338C337.672 98.3238 337.915 98.3688 338.191 98.3688C338.467 98.3688 338.71 98.3268 338.92 98.2428C339.136 98.1588 339.343 98.0388 339.541 97.8828L339.847 98.5128C339.613 98.7048 339.349 98.8518 339.055 98.9538C338.767 99.0498 338.452 99.0978 338.11 99.0978ZM336.724 96.4788H339.145C339.151 96.4668 339.154 96.4548 339.154 96.4428C339.154 96.4248 339.154 96.4068 339.154 96.3888C339.154 96.1908 339.112 96.0198 339.028 95.8758C338.944 95.7258 338.818 95.6088 338.65 95.5248C338.482 95.4408 338.269 95.3988 338.011 95.3988C337.807 95.3988 337.615 95.4438 337.435 95.5338C337.261 95.6178 337.111 95.7408 336.985 95.9028C336.865 96.0588 336.778 96.2508 336.724 96.4788ZM342.921 99.0978C342.537 99.0978 342.192 99.0078 341.886 98.8278C341.58 98.6478 341.337 98.3928 341.157 98.0628C340.983 97.7328 340.896 97.3428 340.896 96.8928C340.896 96.4368 340.983 96.0438 341.157 95.7138C341.337 95.3838 341.58 95.1318 341.886 94.9578C342.192 94.7778 342.537 94.6878 342.921 94.6878C343.257 94.6878 343.551 94.7538 343.803 94.8858C344.055 95.0118 344.25 95.1798 344.388 95.3898V92.9958H345.243V99.0078H344.424V98.3328C344.292 98.5608 344.097 98.7468 343.839 98.8908C343.581 99.0288 343.275 99.0978 342.921 99.0978ZM343.101 98.3508C343.359 98.3508 343.587 98.2938 343.785 98.1798C343.983 98.0598 344.139 97.8918 344.253 97.6758C344.367 97.4538 344.424 97.1928 344.424 96.8928C344.424 96.5928 344.367 96.3348 344.253 96.1188C344.139 95.8968 343.983 95.7258 343.785 95.6058C343.587 95.4858 343.359 95.4258 343.101 95.4258C342.843 95.4258 342.612 95.4858 342.408 95.6058C342.21 95.7258 342.054 95.8968 341.94 96.1188C341.826 96.3348 341.769 96.5928 341.769 96.8928C341.769 97.1928 341.826 97.4538 341.94 97.6758C342.054 97.8918 342.21 98.0598 342.408 98.1798C342.606 98.2938 342.837 98.3508 343.101 98.3508ZM348.795 99.0078V92.9958H349.695V98.2068H352.512V99.0078H348.795ZM355.38 99.0978C354.948 99.0978 354.564 99.0078 354.228 98.8278C353.892 98.6418 353.631 98.3838 353.445 98.0538C353.259 97.7238 353.166 97.3368 353.166 96.8928C353.166 96.4488 353.259 96.0618 353.445 95.7318C353.631 95.4018 353.892 95.1468 354.228 94.9668C354.564 94.7808 354.948 94.6878 355.38 94.6878C355.818 94.6878 356.202 94.7808 356.532 94.9668C356.868 95.1468 357.129 95.4018 357.315 95.7318C357.507 96.0618 357.603 96.4488 357.603 96.8928C357.603 97.3368 357.507 97.7238 357.315 98.0538C357.129 98.3838 356.868 98.6418 356.532 98.8278C356.202 99.0078 355.818 99.0978 355.38 99.0978ZM355.38 98.3508C355.65 98.3508 355.887 98.2938 356.091 98.1798C356.295 98.0598 356.451 97.8918 356.559 97.6758C356.673 97.4538 356.73 97.1928 356.73 96.8928C356.73 96.5928 356.673 96.3348 356.559 96.1188C356.451 95.8968 356.295 95.7258 356.091 95.6058C355.887 95.4858 355.65 95.4258 355.38 95.4258C355.11 95.4258 354.873 95.4858 354.669 95.6058C354.471 95.7258 354.315 95.8968 354.201 96.1188C354.087 96.3348 354.03 96.5928 354.03 96.8928C354.03 97.1928 354.087 97.4538 354.201 97.6758C354.315 97.8918 354.471 98.0598 354.669 98.1798C354.873 98.2938 355.11 98.3508 355.38 98.3508ZM360.202 99.0978C359.878 99.0978 359.575 99.0498 359.293 98.9538C359.011 98.8518 358.738 98.7078 358.474 98.5218L358.825 97.8558C359.089 98.0298 359.332 98.1618 359.554 98.2518C359.782 98.3418 360.004 98.3868 360.22 98.3868C360.526 98.3868 360.754 98.3418 360.904 98.2518C361.06 98.1558 361.138 98.0148 361.138 97.8288C361.138 97.6728 361.09 97.5588 360.994 97.4868C360.904 97.4088 360.742 97.3488 360.508 97.3068L359.788 97.1718C359.398 97.0998 359.104 96.9708 358.906 96.7848C358.708 96.5928 358.609 96.3468 358.609 96.0468C358.609 95.8008 358.669 95.5758 358.789 95.3718C358.915 95.1618 359.101 94.9968 359.347 94.8768C359.593 94.7508 359.902 94.6878 360.274 94.6878C360.58 94.6878 360.868 94.7328 361.138 94.8228C361.414 94.9128 361.66 95.0358 361.876 95.1918L361.534 95.8308C361.348 95.7048 361.15 95.6028 360.94 95.5248C360.736 95.4408 360.526 95.3988 360.31 95.3988C360.052 95.3988 359.848 95.4438 359.698 95.5338C359.548 95.6178 359.473 95.7558 359.473 95.9478C359.473 96.0678 359.518 96.1638 359.608 96.2358C359.698 96.3078 359.851 96.3618 360.067 96.3978L360.778 96.5328C361.174 96.6108 361.477 96.7428 361.687 96.9288C361.903 97.1148 362.011 97.3848 362.011 97.7388C362.011 98.1348 361.858 98.4618 361.552 98.7198C361.246 98.9718 360.796 99.0978 360.202 99.0978ZM364.614 99.0978C364.29 99.0978 363.987 99.0498 363.705 98.9538C363.423 98.8518 363.15 98.7078 362.886 98.5218L363.237 97.8558C363.501 98.0298 363.744 98.1618 363.966 98.2518C364.194 98.3418 364.416 98.3868 364.632 98.3868C364.938 98.3868 365.166 98.3418 365.316 98.2518C365.472 98.1558 365.55 98.0148 365.55 97.8288C365.55 97.6728 365.502 97.5588 365.406 97.4868C365.316 97.4088 365.154 97.3488 364.92 97.3068L364.2 97.1718C363.81 97.0998 363.516 96.9708 363.318 96.7848C363.12 96.5928 363.021 96.3468 363.021 96.0468C363.021 95.8008 363.081 95.5758 363.201 95.3718C363.327 95.1618 363.513 94.9968 363.759 94.8768C364.005 94.7508 364.314 94.6878 364.686 94.6878C364.992 94.6878 365.28 94.7328 365.55 94.8228C365.826 94.9128 366.072 95.0358 366.288 95.1918L365.946 95.8308C365.76 95.7048 365.562 95.6028 365.352 95.5248C365.148 95.4408 364.938 95.3988 364.722 95.3988C364.464 95.3988 364.26 95.4438 364.11 95.5338C363.96 95.6178 363.885 95.7558 363.885 95.9478C363.885 96.0678 363.93 96.1638 364.02 96.2358C364.11 96.3078 364.263 96.3618 364.479 96.3978L365.19 96.5328C365.586 96.6108 365.889 96.7428 366.099 96.9288C366.315 97.1148 366.423 97.3848 366.423 97.7388C366.423 98.1348 366.27 98.4618 365.964 98.7198C365.658 98.9718 365.208 99.0978 364.614 99.0978Z" fill="#C75E4B"/>
<path d="M283.968 49.0663C284.074 48.9776 284.232 48.9913 284.32 49.0971C284.409 49.2029 284.395 49.3606 284.29 49.4493L283.968 49.0663ZM277.979 54.6492C277.841 54.6371 277.739 54.5159 277.752 54.3783L277.948 52.1369C277.96 51.9993 278.081 51.8976 278.218 51.9096C278.356 51.9217 278.458 52.0429 278.446 52.1805L278.271 54.1729L280.264 54.3472C280.401 54.3592 280.503 54.4805 280.491 54.618C280.479 54.7555 280.358 54.8573 280.22 54.8453L277.979 54.6492ZM284.29 49.4493L278.161 54.5916L277.84 54.2086L283.968 49.0663L284.29 49.4493Z" fill="#747FA6"/>
<path d="M286.947 48V41.988H289.728C290.202 41.988 290.595 42.042 290.907 42.15C291.225 42.252 291.465 42.417 291.627 42.645C291.789 42.873 291.87 43.173 291.87 43.545C291.87 43.899 291.795 44.187 291.645 44.409C291.501 44.631 291.258 44.793 290.916 44.895C291.318 44.991 291.606 45.159 291.78 45.399C291.96 45.639 292.05 45.954 292.05 46.344C292.05 46.938 291.858 47.364 291.474 47.622C291.096 47.874 290.514 48 289.728 48H286.947ZM287.847 47.235H289.602C289.98 47.235 290.28 47.202 290.502 47.136C290.724 47.07 290.883 46.965 290.979 46.821C291.075 46.677 291.123 46.488 291.123 46.254C291.123 46.014 291.075 45.822 290.979 45.678C290.883 45.534 290.724 45.429 290.502 45.363C290.28 45.297 289.98 45.264 289.602 45.264H287.847V47.235ZM287.847 44.535H289.602C290.1 44.535 290.448 44.469 290.646 44.337C290.844 44.205 290.943 43.974 290.943 43.644C290.943 43.308 290.844 43.074 290.646 42.942C290.448 42.81 290.1 42.744 289.602 42.744H287.847V44.535ZM293.16 48V43.77H293.979V44.508C294.087 44.244 294.243 44.046 294.447 43.914C294.657 43.782 294.891 43.716 295.149 43.716C295.233 43.716 295.308 43.722 295.374 43.734C295.446 43.74 295.503 43.752 295.545 43.77V44.571C295.461 44.553 295.377 44.541 295.293 44.535C295.215 44.523 295.137 44.517 295.059 44.517C294.759 44.517 294.507 44.643 294.303 44.895C294.105 45.141 294.006 45.495 294.006 45.957V48H293.16ZM298.244 48.09C297.818 48.09 297.434 48.006 297.092 47.838C296.756 47.664 296.489 47.415 296.291 47.091C296.093 46.761 295.994 46.359 295.994 45.885C295.994 45.435 296.087 45.045 296.273 44.715C296.465 44.385 296.72 44.13 297.038 43.95C297.362 43.77 297.722 43.68 298.118 43.68C298.538 43.68 298.898 43.761 299.198 43.923C299.504 44.079 299.741 44.295 299.909 44.571C300.077 44.847 300.161 45.159 300.161 45.507C300.161 45.609 300.146 45.72 300.116 45.84C300.092 45.96 300.056 46.056 300.008 46.128H296.858C296.888 46.392 296.966 46.617 297.092 46.803C297.218 46.989 297.386 47.13 297.596 47.226C297.806 47.316 298.049 47.361 298.325 47.361C298.601 47.361 298.844 47.319 299.054 47.235C299.27 47.151 299.477 47.031 299.675 46.875L299.981 47.505C299.747 47.697 299.483 47.844 299.189 47.946C298.901 48.042 298.586 48.09 298.244 48.09ZM296.858 45.471H299.279C299.285 45.459 299.288 45.447 299.288 45.435C299.288 45.417 299.288 45.399 299.288 45.381C299.288 45.183 299.246 45.012 299.162 44.868C299.078 44.718 298.952 44.601 298.784 44.517C298.616 44.433 298.403 44.391 298.145 44.391C297.941 44.391 297.749 44.436 297.569 44.526C297.395 44.61 297.245 44.733 297.119 44.895C296.999 45.051 296.912 45.243 296.858 45.471ZM302.605 48.09C302.293 48.09 302.017 48.042 301.777 47.946C301.543 47.844 301.36 47.7 301.228 47.514C301.096 47.322 301.03 47.091 301.03 46.821C301.03 46.551 301.096 46.329 301.228 46.155C301.36 45.975 301.546 45.834 301.786 45.732C302.026 45.624 302.299 45.552 302.605 45.516L304.099 45.336C304.063 45.018 303.943 44.784 303.739 44.634C303.535 44.484 303.283 44.409 302.983 44.409C302.779 44.409 302.566 44.451 302.344 44.535C302.128 44.613 301.897 44.739 301.651 44.913L301.336 44.274C301.57 44.088 301.828 43.944 302.11 43.842C302.398 43.734 302.695 43.68 303.001 43.68C303.643 43.68 304.129 43.827 304.459 44.121C304.795 44.409 304.963 44.844 304.963 45.426V48H304.144V47.388C303.988 47.622 303.778 47.799 303.514 47.919C303.256 48.033 302.953 48.09 302.605 48.09ZM302.803 47.37C303.085 47.37 303.322 47.316 303.514 47.208C303.712 47.094 303.859 46.944 303.955 46.758C304.057 46.572 304.108 46.377 304.108 46.173V45.984L302.848 46.146C302.536 46.188 302.299 46.257 302.137 46.353C301.975 46.443 301.894 46.59 301.894 46.794C301.894 46.98 301.975 47.124 302.137 47.226C302.299 47.322 302.521 47.37 302.803 47.37ZM306.3 48V41.988H307.146V45.759L309.144 43.77H310.179L308.415 45.498L310.269 48H309.234L307.821 46.083L307.146 46.74V48H306.3ZM310.206 45.768V45.084H312.645V45.768H310.206ZM313.789 48V41.988H317.956V42.762H314.689V44.535H317.686V45.273H314.689V47.226H317.956V48H313.789ZM320.348 48L318.656 43.77H319.565L320.816 47.118L322.067 43.77H322.985L321.284 48H320.348ZM325.525 48.09C325.099 48.09 324.715 48.006 324.373 47.838C324.037 47.664 323.77 47.415 323.572 47.091C323.374 46.761 323.275 46.359 323.275 45.885C323.275 45.435 323.368 45.045 323.554 44.715C323.746 44.385 324.001 44.13 324.319 43.95C324.643 43.77 325.003 43.68 325.399 43.68C325.819 43.68 326.179 43.761 326.479 43.923C326.785 44.079 327.022 44.295 327.19 44.571C327.358 44.847 327.442 45.159 327.442 45.507C327.442 45.609 327.427 45.72 327.397 45.84C327.373 45.96 327.337 46.056 327.289 46.128H324.139C324.169 46.392 324.247 46.617 324.373 46.803C324.499 46.989 324.667 47.13 324.877 47.226C325.087 47.316 325.33 47.361 325.606 47.361C325.882 47.361 326.125 47.319 326.335 47.235C326.551 47.151 326.758 47.031 326.956 46.875L327.262 47.505C327.028 47.697 326.764 47.844 326.47 47.946C326.182 48.042 325.867 48.09 325.525 48.09ZM324.139 45.471H326.56C326.566 45.459 326.569 45.447 326.569 45.435C326.569 45.417 326.569 45.399 326.569 45.381C326.569 45.183 326.527 45.012 326.443 44.868C326.359 44.718 326.233 44.601 326.065 44.517C325.897 44.433 325.684 44.391 325.426 44.391C325.222 44.391 325.03 44.436 324.85 44.526C324.676 44.61 324.526 44.733 324.4 44.895C324.28 45.051 324.193 45.243 324.139 45.471ZM328.545 48V43.77H329.364V44.4C329.49 44.178 329.67 44.004 329.904 43.878C330.144 43.746 330.435 43.68 330.777 43.68C331.263 43.68 331.644 43.818 331.92 44.094C332.196 44.37 332.334 44.802 332.334 45.39V48H331.479V45.498C331.479 45.12 331.401 44.847 331.245 44.679C331.095 44.505 330.864 44.418 330.552 44.418C330.186 44.418 329.901 44.544 329.697 44.796C329.493 45.048 329.391 45.393 329.391 45.831V48H328.545ZM336.668 48.9L336.875 47.982C336.653 47.916 336.437 47.826 336.227 47.712C336.023 47.598 335.819 47.454 335.615 47.28L335.975 46.569C336.167 46.725 336.353 46.854 336.533 46.956C336.713 47.052 336.89 47.13 337.064 47.19L337.496 45.282L337.307 45.246C336.773 45.144 336.386 44.961 336.146 44.697C335.912 44.433 335.795 44.112 335.795 43.734C335.795 43.398 335.87 43.092 336.02 42.816C336.17 42.54 336.401 42.318 336.713 42.15C337.025 41.982 337.418 41.898 337.892 41.898C337.958 41.898 338.021 41.901 338.081 41.907C338.147 41.907 338.213 41.91 338.279 41.916L338.468 41.088H339.008L338.792 42.015C338.984 42.063 339.17 42.135 339.35 42.231C339.536 42.327 339.716 42.444 339.89 42.582L339.521 43.284C339.365 43.176 339.212 43.083 339.062 43.005C338.918 42.921 338.768 42.852 338.612 42.798L338.216 44.535L338.549 44.598C339.077 44.694 339.461 44.895 339.701 45.201C339.947 45.501 340.07 45.837 340.07 46.209C340.07 46.773 339.872 47.229 339.476 47.577C339.086 47.919 338.522 48.09 337.784 48.09C337.712 48.09 337.643 48.087 337.577 48.081C337.517 48.075 337.457 48.069 337.397 48.063L337.208 48.9H336.668ZM337.577 47.298C337.613 47.304 337.646 47.307 337.676 47.307C337.712 47.307 337.748 47.307 337.784 47.307C338.222 47.307 338.558 47.22 338.792 47.046C339.026 46.866 339.143 46.617 339.143 46.299C339.143 46.077 339.071 45.891 338.927 45.741C338.783 45.585 338.573 45.483 338.297 45.435L338.018 45.381L337.577 47.298ZM337.694 44.436L338.099 42.69C338.069 42.684 338.039 42.681 338.009 42.681C337.979 42.681 337.946 42.681 337.91 42.681C337.514 42.681 337.214 42.765 337.01 42.933C336.812 43.101 336.713 43.329 336.713 43.617C336.713 43.839 336.782 44.013 336.92 44.139C337.064 44.259 337.271 44.346 337.541 44.4L337.694 44.436ZM342.408 48V42.96L341.112 43.671L340.761 42.978L342.642 41.988H343.308V48H342.408ZM345.924 48V42.96L344.628 43.671L344.277 42.978L346.158 41.988H346.824V48H345.924ZM350.42 48.09C349.892 48.09 349.445 47.958 349.079 47.694C348.713 47.424 348.437 47.058 348.251 46.596C348.065 46.128 347.972 45.594 347.972 44.994C347.972 44.394 348.065 43.863 348.251 43.401C348.437 42.933 348.713 42.567 349.079 42.303C349.445 42.033 349.892 41.898 350.42 41.898C350.954 41.898 351.401 42.033 351.761 42.303C352.127 42.567 352.403 42.933 352.589 43.401C352.781 43.863 352.877 44.394 352.877 44.994C352.877 45.594 352.781 46.128 352.589 46.596C352.403 47.058 352.127 47.424 351.761 47.694C351.401 47.958 350.954 48.09 350.42 48.09ZM350.42 47.343C350.72 47.343 350.984 47.259 351.212 47.091C351.446 46.917 351.626 46.656 351.752 46.308C351.884 45.96 351.95 45.522 351.95 44.994C351.95 44.46 351.884 44.019 351.752 43.671C351.626 43.323 351.446 43.065 351.212 42.897C350.984 42.723 350.72 42.636 350.42 42.636C350.126 42.636 349.862 42.723 349.628 42.897C349.4 43.071 349.22 43.332 349.088 43.68C348.956 44.022 348.89 44.46 348.89 44.994C348.89 45.522 348.956 45.96 349.088 46.308C349.22 46.656 349.4 46.917 349.628 47.091C349.862 47.259 350.126 47.343 350.42 47.343Z" fill="#747FA6"/>
<path d="M119.161 47.8085C119.055 47.7197 118.897 47.7335 118.808 47.8393C118.72 47.9451 118.734 48.1028 118.839 48.1915L119.161 47.8085ZM125.15 53.3913C125.288 53.3793 125.389 53.2581 125.377 53.1205L125.181 50.8791C125.169 50.7415 125.048 50.6398 124.91 50.6518C124.773 50.6638 124.671 50.7851 124.683 50.9227L124.858 52.915L122.865 53.0894C122.728 53.1014 122.626 53.2226 122.638 53.3602C122.65 53.4977 122.771 53.5995 122.909 53.5875L125.15 53.3913ZM118.839 48.1915L124.968 53.3338L125.289 52.9508L119.161 47.8085L118.839 48.1915Z" fill="#747FA6"/>
<path d="M52.711 48V41.988H55.492C55.966 41.988 56.359 42.042 56.671 42.15C56.989 42.252 57.229 42.417 57.391 42.645C57.553 42.873 57.634 43.173 57.634 43.545C57.634 43.899 57.559 44.187 57.409 44.409C57.265 44.631 57.022 44.793 56.68 44.895C57.082 44.991 57.37 45.159 57.544 45.399C57.724 45.639 57.814 45.954 57.814 46.344C57.814 46.938 57.622 47.364 57.238 47.622C56.86 47.874 56.278 48 55.492 48H52.711ZM53.611 47.235H55.366C55.744 47.235 56.044 47.202 56.266 47.136C56.488 47.07 56.647 46.965 56.743 46.821C56.839 46.677 56.887 46.488 56.887 46.254C56.887 46.014 56.839 45.822 56.743 45.678C56.647 45.534 56.488 45.429 56.266 45.363C56.044 45.297 55.744 45.264 55.366 45.264H53.611V47.235ZM53.611 44.535H55.366C55.864 44.535 56.212 44.469 56.41 44.337C56.608 44.205 56.707 43.974 56.707 43.644C56.707 43.308 56.608 43.074 56.41 42.942C56.212 42.81 55.864 42.744 55.366 42.744H53.611V44.535ZM58.924 48V43.77H59.743V44.508C59.851 44.244 60.007 44.046 60.211 43.914C60.421 43.782 60.655 43.716 60.913 43.716C60.997 43.716 61.072 43.722 61.138 43.734C61.21 43.74 61.267 43.752 61.309 43.77V44.571C61.225 44.553 61.141 44.541 61.057 44.535C60.979 44.523 60.901 44.517 60.823 44.517C60.523 44.517 60.271 44.643 60.067 44.895C59.869 45.141 59.77 45.495 59.77 45.957V48H58.924ZM64.0074 48.09C63.5814 48.09 63.1974 48.006 62.8554 47.838C62.5194 47.664 62.2524 47.415 62.0544 47.091C61.8564 46.761 61.7574 46.359 61.7574 45.885C61.7574 45.435 61.8504 45.045 62.0364 44.715C62.2284 44.385 62.4834 44.13 62.8014 43.95C63.1254 43.77 63.4854 43.68 63.8814 43.68C64.3014 43.68 64.6614 43.761 64.9614 43.923C65.2674 44.079 65.5044 44.295 65.6724 44.571C65.8404 44.847 65.9244 45.159 65.9244 45.507C65.9244 45.609 65.9094 45.72 65.8794 45.84C65.8554 45.96 65.8194 46.056 65.7714 46.128H62.6214C62.6514 46.392 62.7294 46.617 62.8554 46.803C62.9814 46.989 63.1494 47.13 63.3594 47.226C63.5694 47.316 63.8124 47.361 64.0884 47.361C64.3644 47.361 64.6074 47.319 64.8174 47.235C65.0334 47.151 65.2404 47.031 65.4384 46.875L65.7444 47.505C65.5104 47.697 65.2464 47.844 64.9524 47.946C64.6644 48.042 64.3494 48.09 64.0074 48.09ZM62.6214 45.471H65.0424C65.0484 45.459 65.0514 45.447 65.0514 45.435C65.0514 45.417 65.0514 45.399 65.0514 45.381C65.0514 45.183 65.0094 45.012 64.9254 44.868C64.8414 44.718 64.7154 44.601 64.5474 44.517C64.3794 44.433 64.1664 44.391 63.9084 44.391C63.7044 44.391 63.5124 44.436 63.3324 44.526C63.1584 44.61 63.0084 44.733 62.8824 44.895C62.7624 45.051 62.6754 45.243 62.6214 45.471ZM68.3685 48.09C68.0565 48.09 67.7805 48.042 67.5405 47.946C67.3065 47.844 67.1235 47.7 66.9915 47.514C66.8595 47.322 66.7935 47.091 66.7935 46.821C66.7935 46.551 66.8595 46.329 66.9915 46.155C67.1235 45.975 67.3095 45.834 67.5495 45.732C67.7895 45.624 68.0625 45.552 68.3685 45.516L69.8625 45.336C69.8265 45.018 69.7065 44.784 69.5025 44.634C69.2985 44.484 69.0465 44.409 68.7465 44.409C68.5425 44.409 68.3295 44.451 68.1075 44.535C67.8915 44.613 67.6605 44.739 67.4145 44.913L67.0995 44.274C67.3335 44.088 67.5915 43.944 67.8735 43.842C68.1615 43.734 68.4585 43.68 68.7645 43.68C69.4065 43.68 69.8925 43.827 70.2225 44.121C70.5585 44.409 70.7265 44.844 70.7265 45.426V48H69.9075V47.388C69.7515 47.622 69.5415 47.799 69.2775 47.919C69.0195 48.033 68.7165 48.09 68.3685 48.09ZM68.5665 47.37C68.8485 47.37 69.0855 47.316 69.2775 47.208C69.4755 47.094 69.6225 46.944 69.7185 46.758C69.8205 46.572 69.8715 46.377 69.8715 46.173V45.984L68.6115 46.146C68.2995 46.188 68.0625 46.257 67.9005 46.353C67.7385 46.443 67.6575 46.59 67.6575 46.794C67.6575 46.98 67.7385 47.124 67.9005 47.226C68.0625 47.322 68.2845 47.37 68.5665 47.37ZM72.0637 48V41.988H72.9097V45.759L74.9077 43.77H75.9427L74.1787 45.498L76.0327 48H74.9977L73.5847 46.083L72.9097 46.74V48H72.0637ZM75.9693 45.768V45.084H78.4083V45.768H75.9693ZM79.5528 48V41.988H83.7198V42.762H80.4528V44.535H83.4498V45.273H80.4528V47.226H83.7198V48H79.5528ZM86.1113 48L84.4193 43.77H85.3283L86.5793 47.118L87.8303 43.77H88.7483L87.0473 48H86.1113ZM91.2887 48.09C90.8627 48.09 90.4787 48.006 90.1367 47.838C89.8007 47.664 89.5337 47.415 89.3357 47.091C89.1377 46.761 89.0387 46.359 89.0387 45.885C89.0387 45.435 89.1317 45.045 89.3177 44.715C89.5097 44.385 89.7647 44.13 90.0827 43.95C90.4067 43.77 90.7667 43.68 91.1627 43.68C91.5827 43.68 91.9427 43.761 92.2427 43.923C92.5487 44.079 92.7857 44.295 92.9537 44.571C93.1217 44.847 93.2057 45.159 93.2057 45.507C93.2057 45.609 93.1907 45.72 93.1607 45.84C93.1367 45.96 93.1007 46.056 93.0527 46.128H89.9027C89.9327 46.392 90.0107 46.617 90.1367 46.803C90.2627 46.989 90.4307 47.13 90.6407 47.226C90.8507 47.316 91.0937 47.361 91.3697 47.361C91.6457 47.361 91.8887 47.319 92.0987 47.235C92.3147 47.151 92.5217 47.031 92.7197 46.875L93.0257 47.505C92.7917 47.697 92.5277 47.844 92.2337 47.946C91.9457 48.042 91.6307 48.09 91.2887 48.09ZM89.9027 45.471H92.3237C92.3297 45.459 92.3327 45.447 92.3327 45.435C92.3327 45.417 92.3327 45.399 92.3327 45.381C92.3327 45.183 92.2907 45.012 92.2067 44.868C92.1227 44.718 91.9967 44.601 91.8287 44.517C91.6607 44.433 91.4477 44.391 91.1897 44.391C90.9857 44.391 90.7937 44.436 90.6137 44.526C90.4397 44.61 90.2897 44.733 90.1637 44.895C90.0437 45.051 89.9567 45.243 89.9027 45.471ZM94.3088 48V43.77H95.1278V44.4C95.2538 44.178 95.4338 44.004 95.6678 43.878C95.9078 43.746 96.1988 43.68 96.5408 43.68C97.0268 43.68 97.4078 43.818 97.6838 44.094C97.9598 44.37 98.0978 44.802 98.0978 45.39V48H97.2428V45.498C97.2428 45.12 97.1648 44.847 97.0088 44.679C96.8588 44.505 96.6278 44.418 96.3158 44.418C95.9498 44.418 95.6648 44.544 95.4608 44.796C95.2568 45.048 95.1548 45.393 95.1548 45.831V48H94.3088ZM102.432 48.9L102.639 47.982C102.417 47.916 102.201 47.826 101.991 47.712C101.787 47.598 101.583 47.454 101.379 47.28L101.739 46.569C101.931 46.725 102.117 46.854 102.297 46.956C102.477 47.052 102.654 47.13 102.828 47.19L103.26 45.282L103.071 45.246C102.537 45.144 102.15 44.961 101.91 44.697C101.676 44.433 101.559 44.112 101.559 43.734C101.559 43.398 101.634 43.092 101.784 42.816C101.934 42.54 102.165 42.318 102.477 42.15C102.789 41.982 103.182 41.898 103.656 41.898C103.722 41.898 103.785 41.901 103.845 41.907C103.911 41.907 103.977 41.91 104.043 41.916L104.232 41.088H104.772L104.556 42.015C104.748 42.063 104.934 42.135 105.114 42.231C105.3 42.327 105.48 42.444 105.654 42.582L105.285 43.284C105.129 43.176 104.976 43.083 104.826 43.005C104.682 42.921 104.532 42.852 104.376 42.798L103.98 44.535L104.313 44.598C104.841 44.694 105.225 44.895 105.465 45.201C105.711 45.501 105.834 45.837 105.834 46.209C105.834 46.773 105.636 47.229 105.24 47.577C104.85 47.919 104.286 48.09 103.548 48.09C103.476 48.09 103.407 48.087 103.341 48.081C103.281 48.075 103.221 48.069 103.161 48.063L102.972 48.9H102.432ZM103.341 47.298C103.377 47.304 103.41 47.307 103.44 47.307C103.476 47.307 103.512 47.307 103.548 47.307C103.986 47.307 104.322 47.22 104.556 47.046C104.79 46.866 104.907 46.617 104.907 46.299C104.907 46.077 104.835 45.891 104.691 45.741C104.547 45.585 104.337 45.483 104.061 45.435L103.782 45.381L103.341 47.298ZM103.458 44.436L103.863 42.69C103.833 42.684 103.803 42.681 103.773 42.681C103.743 42.681 103.71 42.681 103.674 42.681C103.278 42.681 102.978 42.765 102.774 42.933C102.576 43.101 102.477 43.329 102.477 43.617C102.477 43.839 102.546 44.013 102.684 44.139C102.828 44.259 103.035 44.346 103.305 44.4L103.458 44.436ZM108.73 48.09C108.346 48.09 107.995 48.021 107.677 47.883C107.365 47.739 107.095 47.538 106.867 47.28L107.209 46.686C107.443 46.908 107.68 47.073 107.92 47.181C108.16 47.289 108.403 47.343 108.649 47.343C108.967 47.343 109.255 47.271 109.513 47.127C109.777 46.977 109.987 46.743 110.143 46.425C110.305 46.107 110.395 45.693 110.413 45.183C110.263 45.399 110.053 45.57 109.783 45.696C109.519 45.822 109.207 45.885 108.847 45.885C108.397 45.885 108.01 45.801 107.686 45.633C107.368 45.465 107.125 45.234 106.957 44.94C106.789 44.646 106.705 44.307 106.705 43.923C106.705 43.539 106.795 43.194 106.975 42.888C107.155 42.582 107.41 42.342 107.74 42.168C108.076 41.988 108.472 41.898 108.928 41.898C109.426 41.898 109.852 41.997 110.206 42.195C110.566 42.393 110.845 42.693 111.043 43.095C111.241 43.497 111.34 44.01 111.34 44.634C111.34 45.324 111.244 45.93 111.052 46.452C110.86 46.968 110.572 47.37 110.188 47.658C109.804 47.946 109.318 48.09 108.73 48.09ZM109.018 45.183C109.456 45.183 109.798 45.072 110.044 44.85C110.29 44.622 110.413 44.31 110.413 43.914C110.353 43.536 110.212 43.23 109.99 42.996C109.768 42.756 109.444 42.636 109.018 42.636C108.586 42.636 108.244 42.75 107.992 42.978C107.746 43.206 107.623 43.515 107.623 43.905C107.623 44.307 107.746 44.622 107.992 44.85C108.244 45.072 108.586 45.183 109.018 45.183ZM114.663 48.09C114.135 48.09 113.688 47.958 113.322 47.694C112.956 47.424 112.68 47.058 112.494 46.596C112.308 46.128 112.215 45.594 112.215 44.994C112.215 44.394 112.308 43.863 112.494 43.401C112.68 42.933 112.956 42.567 113.322 42.303C113.688 42.033 114.135 41.898 114.663 41.898C115.197 41.898 115.644 42.033 116.004 42.303C116.37 42.567 116.646 42.933 116.832 43.401C117.024 43.863 117.12 44.394 117.12 44.994C117.12 45.594 117.024 46.128 116.832 46.596C116.646 47.058 116.37 47.424 116.004 47.694C115.644 47.958 115.197 48.09 114.663 48.09ZM114.663 47.343C114.963 47.343 115.227 47.259 115.455 47.091C115.689 46.917 115.869 46.656 115.995 46.308C116.127 45.96 116.193 45.522 116.193 44.994C116.193 44.46 116.127 44.019 115.995 43.671C115.869 43.323 115.689 43.065 115.455 42.897C115.227 42.723 114.963 42.636 114.663 42.636C114.369 42.636 114.105 42.723 113.871 42.897C113.643 43.071 113.463 43.332 113.331 43.68C113.199 44.022 113.133 44.46 113.133 44.994C113.133 45.522 113.199 45.96 113.331 46.308C113.463 46.656 113.643 46.917 113.871 47.091C114.105 47.259 114.369 47.343 114.663 47.343Z" fill="#747FA6"/>
<line x1="102.5" y1="53" x2="102.5" y2="62" stroke="#20224E"/>
<path d="M95.9564 73.9L96.1634 72.982C95.9414 72.916 95.7254 72.826 95.5154 72.712C95.3114 72.598 95.1074 72.454 94.9034 72.28L95.2634 71.569C95.4554 71.725 95.6414 71.854 95.8214 71.956C96.0014 72.052 96.1784 72.13 96.3524 72.19L96.7844 70.282L96.5954 70.246C96.0614 70.144 95.6744 69.961 95.4344 69.697C95.2004 69.433 95.0834 69.112 95.0834 68.734C95.0834 68.398 95.1584 68.092 95.3084 67.816C95.4584 67.54 95.6894 67.318 96.0014 67.15C96.3134 66.982 96.7064 66.898 97.1804 66.898C97.2464 66.898 97.3094 66.901 97.3694 66.907C97.4354 66.907 97.5014 66.91 97.5674 66.916L97.7564 66.088H98.2964L98.0804 67.015C98.2724 67.063 98.4584 67.135 98.6384 67.231C98.8244 67.327 99.0044 67.444 99.1784 67.582L98.8094 68.284C98.6534 68.176 98.5004 68.083 98.3504 68.005C98.2064 67.921 98.0564 67.852 97.9004 67.798L97.5044 69.535L97.8374 69.598C98.3654 69.694 98.7494 69.895 98.9894 70.201C99.2354 70.501 99.3584 70.837 99.3584 71.209C99.3584 71.773 99.1604 72.229 98.7644 72.577C98.3744 72.919 97.8104 73.09 97.0724 73.09C97.0004 73.09 96.9314 73.087 96.8654 73.081C96.8054 73.075 96.7454 73.069 96.6854 73.063L96.4964 73.9H95.9564ZM96.8654 72.298C96.9014 72.304 96.9344 72.307 96.9644 72.307C97.0004 72.307 97.0364 72.307 97.0724 72.307C97.5104 72.307 97.8464 72.22 98.0804 72.046C98.3144 71.866 98.4314 71.617 98.4314 71.299C98.4314 71.077 98.3594 70.891 98.2154 70.741C98.0714 70.585 97.8614 70.483 97.5854 70.435L97.3064 70.381L96.8654 72.298ZM96.9824 69.436L97.3874 67.69C97.3574 67.684 97.3274 67.681 97.2974 67.681C97.2674 67.681 97.2344 67.681 97.1984 67.681C96.8024 67.681 96.5024 67.765 96.2984 67.933C96.1004 68.101 96.0014 68.329 96.0014 68.617C96.0014 68.839 96.0704 69.013 96.2084 69.139C96.3524 69.259 96.5594 69.346 96.8294 69.4L96.9824 69.436ZM102.543 73.09C102.057 73.09 101.64 73.015 101.292 72.865C100.944 72.715 100.68 72.511 100.5 72.253C100.32 71.995 100.23 71.698 100.23 71.362C100.23 71.026 100.326 70.729 100.518 70.471C100.71 70.207 101.013 70.018 101.427 69.904C101.049 69.784 100.77 69.604 100.59 69.364C100.41 69.124 100.32 68.848 100.32 68.536C100.32 68.218 100.407 67.936 100.581 67.69C100.761 67.444 101.016 67.252 101.346 67.114C101.682 66.97 102.081 66.898 102.543 66.898C103.011 66.898 103.41 66.97 103.74 67.114C104.076 67.252 104.331 67.444 104.505 67.69C104.685 67.936 104.775 68.218 104.775 68.536C104.775 68.848 104.682 69.124 104.496 69.364C104.31 69.604 104.031 69.784 103.659 69.904C104.073 70.018 104.376 70.207 104.568 70.471C104.766 70.729 104.865 71.026 104.865 71.362C104.865 71.698 104.772 71.995 104.586 72.253C104.406 72.511 104.145 72.715 103.803 72.865C103.461 73.015 103.041 73.09 102.543 73.09ZM102.543 72.361C102.993 72.361 103.338 72.262 103.578 72.064C103.818 71.866 103.938 71.614 103.938 71.308C103.938 70.99 103.818 70.735 103.578 70.543C103.338 70.351 102.993 70.255 102.543 70.255C102.093 70.255 101.748 70.351 101.508 70.543C101.268 70.735 101.148 70.99 101.148 71.308C101.148 71.614 101.268 71.866 101.508 72.064C101.748 72.262 102.093 72.361 102.543 72.361ZM102.543 69.553C102.957 69.553 103.278 69.469 103.506 69.301C103.734 69.133 103.848 68.896 103.848 68.59C103.848 68.284 103.734 68.047 103.506 67.879C103.278 67.711 102.957 67.627 102.543 67.627C102.135 67.627 101.814 67.711 101.58 67.879C101.352 68.047 101.238 68.284 101.238 68.59C101.238 68.89 101.352 69.127 101.58 69.301C101.814 69.469 102.135 69.553 102.543 69.553ZM107.873 73.09C107.555 73.09 107.27 73.06 107.018 73C106.772 72.946 106.547 72.859 106.343 72.739C106.139 72.613 105.938 72.46 105.74 72.28L106.091 71.641C106.391 71.893 106.676 72.073 106.946 72.181C107.222 72.289 107.501 72.343 107.783 72.343C108.221 72.343 108.563 72.232 108.809 72.01C109.055 71.782 109.178 71.47 109.178 71.074C109.178 70.678 109.055 70.369 108.809 70.147C108.563 69.919 108.221 69.805 107.783 69.805C107.489 69.805 107.24 69.865 107.036 69.985C106.838 70.099 106.7 70.267 106.622 70.489L105.848 70.345L106.46 66.898H109.655V67.636H107.144L106.811 69.445C106.955 69.331 107.126 69.247 107.324 69.193C107.522 69.133 107.732 69.103 107.954 69.103C108.41 69.103 108.797 69.187 109.115 69.355C109.433 69.517 109.676 69.745 109.844 70.039C110.018 70.333 110.105 70.672 110.105 71.056C110.105 71.44 110.015 71.785 109.835 72.091C109.655 72.397 109.397 72.64 109.061 72.82C108.731 73 108.335 73.09 107.873 73.09Z" fill="#747FA6"/>
<line x1="150.5" y1="53" x2="150.5" y2="62" stroke="#20224E"/>
<path d="M142.956 73.9L143.163 72.982C142.941 72.916 142.725 72.826 142.515 72.712C142.311 72.598 142.107 72.454 141.903 72.28L142.263 71.569C142.455 71.725 142.641 71.854 142.821 71.956C143.001 72.052 143.178 72.13 143.352 72.19L143.784 70.282L143.595 70.246C143.061 70.144 142.674 69.961 142.434 69.697C142.2 69.433 142.083 69.112 142.083 68.734C142.083 68.398 142.158 68.092 142.308 67.816C142.458 67.54 142.689 67.318 143.001 67.15C143.313 66.982 143.706 66.898 144.18 66.898C144.246 66.898 144.309 66.901 144.369 66.907C144.435 66.907 144.501 66.91 144.567 66.916L144.756 66.088H145.296L145.08 67.015C145.272 67.063 145.458 67.135 145.638 67.231C145.824 67.327 146.004 67.444 146.178 67.582L145.809 68.284C145.653 68.176 145.5 68.083 145.35 68.005C145.206 67.921 145.056 67.852 144.9 67.798L144.504 69.535L144.837 69.598C145.365 69.694 145.749 69.895 145.989 70.201C146.235 70.501 146.358 70.837 146.358 71.209C146.358 71.773 146.16 72.229 145.764 72.577C145.374 72.919 144.81 73.09 144.072 73.09C144 73.09 143.931 73.087 143.865 73.081C143.805 73.075 143.745 73.069 143.685 73.063L143.496 73.9H142.956ZM143.865 72.298C143.901 72.304 143.934 72.307 143.964 72.307C144 72.307 144.036 72.307 144.072 72.307C144.51 72.307 144.846 72.22 145.08 72.046C145.314 71.866 145.431 71.617 145.431 71.299C145.431 71.077 145.359 70.891 145.215 70.741C145.071 70.585 144.861 70.483 144.585 70.435L144.306 70.381L143.865 72.298ZM143.982 69.436L144.387 67.69C144.357 67.684 144.327 67.681 144.297 67.681C144.267 67.681 144.234 67.681 144.198 67.681C143.802 67.681 143.502 67.765 143.298 67.933C143.1 68.101 143.001 68.329 143.001 68.617C143.001 68.839 143.07 69.013 143.208 69.139C143.352 69.259 143.559 69.346 143.829 69.4L143.982 69.436ZM149.255 73.09C148.871 73.09 148.52 73.021 148.202 72.883C147.89 72.739 147.62 72.538 147.392 72.28L147.734 71.686C147.968 71.908 148.205 72.073 148.445 72.181C148.685 72.289 148.928 72.343 149.174 72.343C149.492 72.343 149.78 72.271 150.038 72.127C150.302 71.977 150.512 71.743 150.668 71.425C150.83 71.107 150.92 70.693 150.938 70.183C150.788 70.399 150.578 70.57 150.308 70.696C150.044 70.822 149.732 70.885 149.372 70.885C148.922 70.885 148.535 70.801 148.211 70.633C147.893 70.465 147.65 70.234 147.482 69.94C147.314 69.646 147.23 69.307 147.23 68.923C147.23 68.539 147.32 68.194 147.5 67.888C147.68 67.582 147.935 67.342 148.265 67.168C148.601 66.988 148.997 66.898 149.453 66.898C149.951 66.898 150.377 66.997 150.731 67.195C151.091 67.393 151.37 67.693 151.568 68.095C151.766 68.497 151.865 69.01 151.865 69.634C151.865 70.324 151.769 70.93 151.577 71.452C151.385 71.968 151.097 72.37 150.713 72.658C150.329 72.946 149.843 73.09 149.255 73.09ZM149.543 70.183C149.981 70.183 150.323 70.072 150.569 69.85C150.815 69.622 150.938 69.31 150.938 68.914C150.878 68.536 150.737 68.23 150.515 67.996C150.293 67.756 149.969 67.636 149.543 67.636C149.111 67.636 148.769 67.75 148.517 67.978C148.271 68.206 148.148 68.515 148.148 68.905C148.148 69.307 148.271 69.622 148.517 69.85C148.769 70.072 149.111 70.183 149.543 70.183ZM154.873 73.09C154.555 73.09 154.27 73.06 154.018 73C153.772 72.946 153.547 72.859 153.343 72.739C153.139 72.613 152.938 72.46 152.74 72.28L153.091 71.641C153.391 71.893 153.676 72.073 153.946 72.181C154.222 72.289 154.501 72.343 154.783 72.343C155.221 72.343 155.563 72.232 155.809 72.01C156.055 71.782 156.178 71.47 156.178 71.074C156.178 70.678 156.055 70.369 155.809 70.147C155.563 69.919 155.221 69.805 154.783 69.805C154.489 69.805 154.24 69.865 154.036 69.985C153.838 70.099 153.7 70.267 153.622 70.489L152.848 70.345L153.46 66.898H156.655V67.636H154.144L153.811 69.445C153.955 69.331 154.126 69.247 154.324 69.193C154.522 69.133 154.732 69.103 154.954 69.103C155.41 69.103 155.797 69.187 156.115 69.355C156.433 69.517 156.676 69.745 156.844 70.039C157.018 70.333 157.105 70.672 157.105 71.056C157.105 71.44 157.015 71.785 156.835 72.091C156.655 72.397 156.397 72.64 156.061 72.82C155.731 73 155.335 73.09 154.873 73.09Z" fill="#747FA6"/>
<line x1="199.5" y1="53" x2="199.5" y2="62" stroke="#20224E"/>
<path d="M189.799 73.9L190.006 72.982C189.784 72.916 189.568 72.826 189.358 72.712C189.154 72.598 188.95 72.454 188.746 72.28L189.106 71.569C189.298 71.725 189.484 71.854 189.664 71.956C189.844 72.052 190.021 72.13 190.195 72.19L190.627 70.282L190.438 70.246C189.904 70.144 189.517 69.961 189.277 69.697C189.043 69.433 188.926 69.112 188.926 68.734C188.926 68.398 189.001 68.092 189.151 67.816C189.301 67.54 189.532 67.318 189.844 67.15C190.156 66.982 190.549 66.898 191.023 66.898C191.089 66.898 191.152 66.901 191.212 66.907C191.278 66.907 191.344 66.91 191.41 66.916L191.599 66.088H192.139L191.923 67.015C192.115 67.063 192.301 67.135 192.481 67.231C192.667 67.327 192.847 67.444 193.021 67.582L192.652 68.284C192.496 68.176 192.343 68.083 192.193 68.005C192.049 67.921 191.899 67.852 191.743 67.798L191.347 69.535L191.68 69.598C192.208 69.694 192.592 69.895 192.832 70.201C193.078 70.501 193.201 70.837 193.201 71.209C193.201 71.773 193.003 72.229 192.607 72.577C192.217 72.919 191.653 73.09 190.915 73.09C190.843 73.09 190.774 73.087 190.708 73.081C190.648 73.075 190.588 73.069 190.528 73.063L190.339 73.9H189.799ZM190.708 72.298C190.744 72.304 190.777 72.307 190.807 72.307C190.843 72.307 190.879 72.307 190.915 72.307C191.353 72.307 191.689 72.22 191.923 72.046C192.157 71.866 192.274 71.617 192.274 71.299C192.274 71.077 192.202 70.891 192.058 70.741C191.914 70.585 191.704 70.483 191.428 70.435L191.149 70.381L190.708 72.298ZM190.825 69.436L191.23 67.69C191.2 67.684 191.17 67.681 191.14 67.681C191.11 67.681 191.077 67.681 191.041 67.681C190.645 67.681 190.345 67.765 190.141 67.933C189.943 68.101 189.844 68.329 189.844 68.617C189.844 68.839 189.913 69.013 190.051 69.139C190.195 69.259 190.402 69.346 190.672 69.4L190.825 69.436ZM195.539 73V67.96L194.243 68.671L193.892 67.978L195.773 66.988H196.439V73H195.539ZM200.035 73.09C199.507 73.09 199.06 72.958 198.694 72.694C198.328 72.424 198.052 72.058 197.866 71.596C197.68 71.128 197.587 70.594 197.587 69.994C197.587 69.394 197.68 68.863 197.866 68.401C198.052 67.933 198.328 67.567 198.694 67.303C199.06 67.033 199.507 66.898 200.035 66.898C200.569 66.898 201.016 67.033 201.376 67.303C201.742 67.567 202.018 67.933 202.204 68.401C202.396 68.863 202.492 69.394 202.492 69.994C202.492 70.594 202.396 71.128 202.204 71.596C202.018 72.058 201.742 72.424 201.376 72.694C201.016 72.958 200.569 73.09 200.035 73.09ZM200.035 72.343C200.335 72.343 200.599 72.259 200.827 72.091C201.061 71.917 201.241 71.656 201.367 71.308C201.499 70.96 201.565 70.522 201.565 69.994C201.565 69.46 201.499 69.019 201.367 68.671C201.241 68.323 201.061 68.065 200.827 67.897C200.599 67.723 200.335 67.636 200.035 67.636C199.741 67.636 199.477 67.723 199.243 67.897C199.015 68.071 198.835 68.332 198.703 68.68C198.571 69.022 198.505 69.46 198.505 69.994C198.505 70.522 198.571 70.96 198.703 71.308C198.835 71.656 199.015 71.917 199.243 72.091C199.477 72.259 199.741 72.343 200.035 72.343ZM205.81 73.09C205.282 73.09 204.835 72.958 204.469 72.694C204.103 72.424 203.827 72.058 203.641 71.596C203.455 71.128 203.362 70.594 203.362 69.994C203.362 69.394 203.455 68.863 203.641 68.401C203.827 67.933 204.103 67.567 204.469 67.303C204.835 67.033 205.282 66.898 205.81 66.898C206.344 66.898 206.791 67.033 207.151 67.303C207.517 67.567 207.793 67.933 207.979 68.401C208.171 68.863 208.267 69.394 208.267 69.994C208.267 70.594 208.171 71.128 207.979 71.596C207.793 72.058 207.517 72.424 207.151 72.694C206.791 72.958 206.344 73.09 205.81 73.09ZM205.81 72.343C206.11 72.343 206.374 72.259 206.602 72.091C206.836 71.917 207.016 71.656 207.142 71.308C207.274 70.96 207.34 70.522 207.34 69.994C207.34 69.46 207.274 69.019 207.142 68.671C207.016 68.323 206.836 68.065 206.602 67.897C206.374 67.723 206.11 67.636 205.81 67.636C205.516 67.636 205.252 67.723 205.018 67.897C204.79 68.071 204.61 68.332 204.478 68.68C204.346 69.022 204.28 69.46 204.28 69.994C204.28 70.522 204.346 70.96 204.478 71.308C204.61 71.656 204.79 71.917 205.018 72.091C205.252 72.259 205.516 72.343 205.81 72.343Z" fill="#747FA6"/>
<line x1="250.5" y1="53" x2="250.5" y2="63" stroke="#20224E"/>
<path d="M240.567 73.9L240.774 72.982C240.552 72.916 240.336 72.826 240.126 72.712C239.922 72.598 239.718 72.454 239.514 72.28L239.874 71.569C240.066 71.725 240.252 71.854 240.432 71.956C240.612 72.052 240.789 72.13 240.963 72.19L241.395 70.282L241.206 70.246C240.672 70.144 240.285 69.961 240.045 69.697C239.811 69.433 239.694 69.112 239.694 68.734C239.694 68.398 239.769 68.092 239.919 67.816C240.069 67.54 240.3 67.318 240.612 67.15C240.924 66.982 241.317 66.898 241.791 66.898C241.857 66.898 241.92 66.901 241.98 66.907C242.046 66.907 242.112 66.91 242.178 66.916L242.367 66.088H242.907L242.691 67.015C242.883 67.063 243.069 67.135 243.249 67.231C243.435 67.327 243.615 67.444 243.789 67.582L243.42 68.284C243.264 68.176 243.111 68.083 242.961 68.005C242.817 67.921 242.667 67.852 242.511 67.798L242.115 69.535L242.448 69.598C242.976 69.694 243.36 69.895 243.6 70.201C243.846 70.501 243.969 70.837 243.969 71.209C243.969 71.773 243.771 72.229 243.375 72.577C242.985 72.919 242.421 73.09 241.683 73.09C241.611 73.09 241.542 73.087 241.476 73.081C241.416 73.075 241.356 73.069 241.296 73.063L241.107 73.9H240.567ZM241.476 72.298C241.512 72.304 241.545 72.307 241.575 72.307C241.611 72.307 241.647 72.307 241.683 72.307C242.121 72.307 242.457 72.22 242.691 72.046C242.925 71.866 243.042 71.617 243.042 71.299C243.042 71.077 242.97 70.891 242.826 70.741C242.682 70.585 242.472 70.483 242.196 70.435L241.917 70.381L241.476 72.298ZM241.593 69.436L241.998 67.69C241.968 67.684 241.938 67.681 241.908 67.681C241.878 67.681 241.845 67.681 241.809 67.681C241.413 67.681 241.113 67.765 240.909 67.933C240.711 68.101 240.612 68.329 240.612 68.617C240.612 68.839 240.681 69.013 240.819 69.139C240.963 69.259 241.17 69.346 241.44 69.4L241.593 69.436ZM246.307 73V67.96L245.011 68.671L244.66 67.978L246.541 66.988H247.207V73H246.307ZM250.804 73.09C250.276 73.09 249.829 72.958 249.463 72.694C249.097 72.424 248.821 72.058 248.635 71.596C248.449 71.128 248.356 70.594 248.356 69.994C248.356 69.394 248.449 68.863 248.635 68.401C248.821 67.933 249.097 67.567 249.463 67.303C249.829 67.033 250.276 66.898 250.804 66.898C251.338 66.898 251.785 67.033 252.145 67.303C252.511 67.567 252.787 67.933 252.973 68.401C253.165 68.863 253.261 69.394 253.261 69.994C253.261 70.594 253.165 71.128 252.973 71.596C252.787 72.058 252.511 72.424 252.145 72.694C251.785 72.958 251.338 73.09 250.804 73.09ZM250.804 72.343C251.104 72.343 251.368 72.259 251.596 72.091C251.83 71.917 252.01 71.656 252.136 71.308C252.268 70.96 252.334 70.522 252.334 69.994C252.334 69.46 252.268 69.019 252.136 68.671C252.01 68.323 251.83 68.065 251.596 67.897C251.368 67.723 251.104 67.636 250.804 67.636C250.51 67.636 250.246 67.723 250.012 67.897C249.784 68.071 249.604 68.332 249.472 68.68C249.34 69.022 249.274 69.46 249.274 69.994C249.274 70.522 249.34 70.96 249.472 71.308C249.604 71.656 249.784 71.917 250.012 72.091C250.246 72.259 250.51 72.343 250.804 72.343ZM256.263 73.09C255.945 73.09 255.66 73.06 255.408 73C255.162 72.946 254.937 72.859 254.733 72.739C254.529 72.613 254.328 72.46 254.13 72.28L254.481 71.641C254.781 71.893 255.066 72.073 255.336 72.181C255.612 72.289 255.891 72.343 256.173 72.343C256.611 72.343 256.953 72.232 257.199 72.01C257.445 71.782 257.568 71.47 257.568 71.074C257.568 70.678 257.445 70.369 257.199 70.147C256.953 69.919 256.611 69.805 256.173 69.805C255.879 69.805 255.63 69.865 255.426 69.985C255.228 70.099 255.09 70.267 255.012 70.489L254.238 70.345L254.85 66.898H258.045V67.636H255.534L255.201 69.445C255.345 69.331 255.516 69.247 255.714 69.193C255.912 69.133 256.122 69.103 256.344 69.103C256.8 69.103 257.187 69.187 257.505 69.355C257.823 69.517 258.066 69.745 258.234 70.039C258.408 70.333 258.495 70.672 258.495 71.056C258.495 71.44 258.405 71.785 258.225 72.091C258.045 72.397 257.787 72.64 257.451 72.82C257.121 73 256.725 73.09 256.263 73.09Z" fill="#747FA6"/>
<line x1="301.5" y1="53" x2="301.5" y2="63" stroke="#20224E"/>
<path d="M292.696 73.9L292.903 72.982C292.681 72.916 292.465 72.826 292.255 72.712C292.051 72.598 291.847 72.454 291.643 72.28L292.003 71.569C292.195 71.725 292.381 71.854 292.561 71.956C292.741 72.052 292.918 72.13 293.092 72.19L293.524 70.282L293.335 70.246C292.801 70.144 292.414 69.961 292.174 69.697C291.94 69.433 291.823 69.112 291.823 68.734C291.823 68.398 291.898 68.092 292.048 67.816C292.198 67.54 292.429 67.318 292.741 67.15C293.053 66.982 293.446 66.898 293.92 66.898C293.986 66.898 294.049 66.901 294.109 66.907C294.175 66.907 294.241 66.91 294.307 66.916L294.496 66.088H295.036L294.82 67.015C295.012 67.063 295.198 67.135 295.378 67.231C295.564 67.327 295.744 67.444 295.918 67.582L295.549 68.284C295.393 68.176 295.24 68.083 295.09 68.005C294.946 67.921 294.796 67.852 294.64 67.798L294.244 69.535L294.577 69.598C295.105 69.694 295.489 69.895 295.729 70.201C295.975 70.501 296.098 70.837 296.098 71.209C296.098 71.773 295.9 72.229 295.504 72.577C295.114 72.919 294.55 73.09 293.812 73.09C293.74 73.09 293.671 73.087 293.605 73.081C293.545 73.075 293.485 73.069 293.425 73.063L293.236 73.9H292.696ZM293.605 72.298C293.641 72.304 293.674 72.307 293.704 72.307C293.74 72.307 293.776 72.307 293.812 72.307C294.25 72.307 294.586 72.22 294.82 72.046C295.054 71.866 295.171 71.617 295.171 71.299C295.171 71.077 295.099 70.891 294.955 70.741C294.811 70.585 294.601 70.483 294.325 70.435L294.046 70.381L293.605 72.298ZM293.722 69.436L294.127 67.69C294.097 67.684 294.067 67.681 294.037 67.681C294.007 67.681 293.974 67.681 293.938 67.681C293.542 67.681 293.242 67.765 293.038 67.933C292.84 68.101 292.741 68.329 292.741 68.617C292.741 68.839 292.81 69.013 292.948 69.139C293.092 69.259 293.299 69.346 293.569 69.4L293.722 69.436ZM298.436 73V67.96L297.14 68.671L296.789 67.978L298.67 66.988H299.336V73H298.436ZM301.952 73V67.96L300.656 68.671L300.305 67.978L302.186 66.988H302.852V73H301.952ZM306.134 73.09C305.816 73.09 305.531 73.06 305.279 73C305.033 72.946 304.808 72.859 304.604 72.739C304.4 72.613 304.199 72.46 304.001 72.28L304.352 71.641C304.652 71.893 304.937 72.073 305.207 72.181C305.483 72.289 305.762 72.343 306.044 72.343C306.482 72.343 306.824 72.232 307.07 72.01C307.316 71.782 307.439 71.47 307.439 71.074C307.439 70.678 307.316 70.369 307.07 70.147C306.824 69.919 306.482 69.805 306.044 69.805C305.75 69.805 305.501 69.865 305.297 69.985C305.099 70.099 304.961 70.267 304.883 70.489L304.109 70.345L304.721 66.898H307.916V67.636H305.405L305.072 69.445C305.216 69.331 305.387 69.247 305.585 69.193C305.783 69.133 305.993 69.103 306.215 69.103C306.671 69.103 307.058 69.187 307.376 69.355C307.694 69.517 307.937 69.745 308.105 70.039C308.279 70.333 308.366 70.672 308.366 71.056C308.366 71.44 308.276 71.785 308.096 72.091C307.916 72.397 307.658 72.64 307.322 72.82C306.992 73 306.596 73.09 306.134 73.09Z" fill="#747FA6"/>
<line x1="41.5" y1="20.5078" x2="145.5" y2="20.5078" stroke="#46956A" stroke-linecap="round" stroke-dasharray="2 2"/>
<path d="M72.8052 15.0078V8.99581H74.2272L76.1622 13.8918L78.1062 8.99581H79.5282V15.0078H78.6192V9.88681L76.5582 15.0078H75.7662L73.7052 9.88681V15.0078H72.8052ZM82.2577 15.0978C81.9457 15.0978 81.6697 15.0498 81.4297 14.9538C81.1957 14.8518 81.0127 14.7078 80.8807 14.5218C80.7487 14.3298 80.6827 14.0988 80.6827 13.8288C80.6827 13.5588 80.7487 13.3368 80.8807 13.1628C81.0127 12.9828 81.1987 12.8418 81.4387 12.7398C81.6787 12.6318 81.9517 12.5598 82.2577 12.5238L83.7517 12.3438C83.7157 12.0258 83.5957 11.7918 83.3917 11.6418C83.1877 11.4918 82.9357 11.4168 82.6357 11.4168C82.4317 11.4168 82.2187 11.4588 81.9967 11.5428C81.7807 11.6208 81.5497 11.7468 81.3037 11.9208L80.9887 11.2818C81.2227 11.0958 81.4807 10.9518 81.7627 10.8498C82.0507 10.7418 82.3477 10.6878 82.6537 10.6878C83.2957 10.6878 83.7817 10.8348 84.1117 11.1288C84.4477 11.4168 84.6157 11.8518 84.6157 12.4338V15.0078H83.7967V14.3958C83.6407 14.6298 83.4307 14.8068 83.1667 14.9268C82.9087 15.0408 82.6057 15.0978 82.2577 15.0978ZM82.4557 14.3778C82.7377 14.3778 82.9747 14.3238 83.1667 14.2158C83.3647 14.1018 83.5117 13.9518 83.6077 13.7658C83.7097 13.5798 83.7607 13.3848 83.7607 13.1808V12.9918L82.5007 13.1538C82.1887 13.1958 81.9517 13.2648 81.7897 13.3608C81.6277 13.4508 81.5467 13.5978 81.5467 13.8018C81.5467 13.9878 81.6277 14.1318 81.7897 14.2338C81.9517 14.3298 82.1737 14.3778 82.4557 14.3778ZM85.0897 15.0078L86.7097 12.8208L85.1797 10.7778H86.1607L87.2497 12.2988L88.3477 10.7778H89.3287L87.7987 12.8208L89.4187 15.0078H88.4377L87.2497 13.3968L86.0707 15.0078H85.0897ZM92.5279 15.0078V8.99581H94.9219C95.6599 8.99581 96.2149 9.15181 96.5869 9.46381C96.9589 9.77581 97.1449 10.2498 97.1449 10.8858C97.1449 11.5218 96.9589 11.9958 96.5869 12.3078C96.2149 12.6138 95.6599 12.7668 94.9219 12.7668H93.4279V15.0078H92.5279ZM93.4279 12.0108H94.7509C95.2309 12.0108 95.5969 11.9268 95.8489 11.7588C96.1009 11.5908 96.2269 11.2998 96.2269 10.8858C96.2269 10.4658 96.1039 10.1718 95.8579 10.0038C95.6179 9.83581 95.2489 9.75181 94.7509 9.75181H93.4279V12.0108ZM98.2575 15.0078V10.7778H99.0765V11.5158C99.1845 11.2518 99.3405 11.0538 99.5445 10.9218C99.7545 10.7898 99.9885 10.7238 100.247 10.7238C100.331 10.7238 100.406 10.7298 100.472 10.7418C100.544 10.7478 100.601 10.7598 100.643 10.7778V11.5788C100.559 11.5608 100.475 11.5488 100.391 11.5428C100.313 11.5308 100.235 11.5248 100.157 11.5248C99.8565 11.5248 99.6045 11.6508 99.4005 11.9028C99.2025 12.1488 99.1035 12.5028 99.1035 12.9648V15.0078H98.2575ZM103.305 15.0978C102.873 15.0978 102.489 15.0078 102.153 14.8278C101.817 14.6418 101.556 14.3838 101.37 14.0538C101.184 13.7238 101.091 13.3368 101.091 12.8928C101.091 12.4488 101.184 12.0618 101.37 11.7318C101.556 11.4018 101.817 11.1468 102.153 10.9668C102.489 10.7808 102.873 10.6878 103.305 10.6878C103.743 10.6878 104.127 10.7808 104.457 10.9668C104.793 11.1468 105.054 11.4018 105.24 11.7318C105.432 12.0618 105.528 12.4488 105.528 12.8928C105.528 13.3368 105.432 13.7238 105.24 14.0538C105.054 14.3838 104.793 14.6418 104.457 14.8278C104.127 15.0078 103.743 15.0978 103.305 15.0978ZM103.305 14.3508C103.575 14.3508 103.812 14.2938 104.016 14.1798C104.22 14.0598 104.376 13.8918 104.484 13.6758C104.598 13.4538 104.655 13.1928 104.655 12.8928C104.655 12.5928 104.598 12.3348 104.484 12.1188C104.376 11.8968 104.22 11.7258 104.016 11.6058C103.812 11.4858 103.575 11.4258 103.305 11.4258C103.035 11.4258 102.798 11.4858 102.594 11.6058C102.396 11.7258 102.24 11.8968 102.126 12.1188C102.012 12.3348 101.955 12.5928 101.955 12.8928C101.955 13.1928 102.012 13.4538 102.126 13.6758C102.24 13.8918 102.396 14.0598 102.594 14.1798C102.798 14.2938 103.035 14.3508 103.305 14.3508ZM107.101 15.0078V11.4978H106.174V10.7778H107.101V10.2198C107.101 9.78181 107.206 9.46081 107.416 9.25681C107.632 9.04681 107.962 8.94181 108.406 8.94181C108.52 8.94181 108.637 8.94781 108.757 8.95981C108.877 8.97181 108.973 8.98981 109.045 9.01381V9.69781C108.991 9.68581 108.916 9.67681 108.82 9.67081C108.73 9.66481 108.649 9.66181 108.577 9.66181C108.361 9.66181 108.202 9.71581 108.1 9.82381C107.998 9.92581 107.947 10.0788 107.947 10.2828V10.7778H109.045V11.4978H107.947V15.0078H107.101ZM109.938 15.0078V10.7778H110.784V15.0078H109.938ZM110.361 9.90481C110.205 9.90481 110.079 9.85981 109.983 9.76981C109.893 9.67981 109.848 9.56281 109.848 9.41881C109.848 9.27481 109.893 9.15781 109.983 9.06781C110.079 8.97781 110.205 8.93281 110.361 8.93281C110.511 8.93281 110.634 8.97781 110.73 9.06781C110.826 9.15781 110.874 9.27481 110.874 9.41881C110.874 9.56281 110.826 9.67981 110.73 9.76981C110.634 9.85981 110.511 9.90481 110.361 9.90481ZM113.908 15.0618C113.464 15.0618 113.134 14.9598 112.918 14.7558C112.708 14.5458 112.603 14.2218 112.603 13.7838V11.4978H111.676V10.7778H112.603V9.57181H113.449V10.7778H114.547V11.4978H113.449V13.7118C113.449 13.9218 113.5 14.0778 113.602 14.1798C113.704 14.2818 113.863 14.3328 114.079 14.3328C114.151 14.3328 114.232 14.3298 114.322 14.3238C114.418 14.3178 114.493 14.3088 114.547 14.2968V14.9808C114.475 15.0048 114.379 15.0228 114.259 15.0348C114.139 15.0528 114.022 15.0618 113.908 15.0618Z" fill="#46956A"/>
</svg>
