<svg width="381" height="116" viewBox="0 0 381 116" fill="none" xmlns="http://www.w3.org/2000/svg">
<line x1="39.5" y1="1" x2="39.5" y2="116" stroke="#20224E"/>
<line x1="35" y1="103.5" x2="44" y2="103.5" stroke="#20224E"/>
<line x1="35" y1="15.4971" x2="44" y2="15.4971" stroke="#20224E"/>
<line x1="381" y1="59.5" x2="40" y2="59.5" stroke="#20224E"/>
<path d="M0.642172 103.768V103.084H3.08117V103.768H0.642172ZM5.00865 106.9L5.21565 105.982C4.99365 105.916 4.77765 105.826 4.56765 105.712C4.36365 105.598 4.15965 105.454 3.95565 105.28L4.31565 104.569C4.50765 104.725 4.69365 104.854 4.87365 104.956C5.05365 105.052 5.23065 105.13 5.40465 105.19L5.83665 103.282L5.64765 103.246C5.11365 103.144 4.72665 102.961 4.48665 102.697C4.25265 102.433 4.13565 102.112 4.13565 101.734C4.13565 101.398 4.21065 101.092 4.36065 100.816C4.51065 100.54 4.74165 100.318 5.05365 100.15C5.36565 99.982 5.75865 99.898 6.23265 99.898C6.29865 99.898 6.36165 99.901 6.42165 99.907C6.48765 99.907 6.55365 99.91 6.61965 99.916L6.80865 99.088H7.34865L7.13265 100.015C7.32465 100.063 7.51065 100.135 7.69065 100.231C7.87665 100.327 8.05665 100.444 8.23065 100.582L7.86165 101.284C7.70565 101.176 7.55265 101.083 7.40265 101.005C7.25865 100.921 7.10865 100.852 6.95265 100.798L6.55665 102.535L6.88965 102.598C7.41765 102.694 7.80165 102.895 8.04165 103.201C8.28765 103.501 8.41065 103.837 8.41065 104.209C8.41065 104.773 8.21265 105.229 7.81665 105.577C7.42665 105.919 6.86265 106.09 6.12465 106.09C6.05265 106.09 5.98365 106.087 5.91765 106.081C5.85765 106.075 5.79765 106.069 5.73765 106.063L5.54865 106.9H5.00865ZM5.91765 105.298C5.95365 105.304 5.98665 105.307 6.01665 105.307C6.05265 105.307 6.08865 105.307 6.12465 105.307C6.56265 105.307 6.89865 105.22 7.13265 105.046C7.36665 104.866 7.48365 104.617 7.48365 104.299C7.48365 104.077 7.41165 103.891 7.26765 103.741C7.12365 103.585 6.91365 103.483 6.63765 103.435L6.35865 103.381L5.91765 105.298ZM6.03465 102.436L6.43965 100.69C6.40965 100.684 6.37965 100.681 6.34965 100.681C6.31965 100.681 6.28665 100.681 6.25065 100.681C5.85465 100.681 5.55465 100.765 5.35065 100.933C5.15265 101.101 5.05365 101.329 5.05365 101.617C5.05365 101.839 5.12265 102.013 5.26065 102.139C5.40465 102.259 5.61165 102.346 5.88165 102.4L6.03465 102.436ZM10.7488 106V100.96L9.45282 101.671L9.10182 100.978L10.9828 99.988H11.6488V106H10.7488ZM13.2204 107.386L12.7704 107.17C12.8844 106.966 12.9714 106.756 13.0314 106.54C13.0974 106.33 13.1304 106.108 13.1304 105.874V105.145H13.9134V105.874C13.9134 106.234 13.8564 106.531 13.7424 106.765C13.6344 106.999 13.4604 107.206 13.2204 107.386ZM17.5658 106.09C17.0378 106.09 16.5908 105.958 16.2248 105.694C15.8588 105.424 15.5828 105.058 15.3968 104.596C15.2108 104.128 15.1178 103.594 15.1178 102.994C15.1178 102.394 15.2108 101.863 15.3968 101.401C15.5828 100.933 15.8588 100.567 16.2248 100.303C16.5908 100.033 17.0378 99.898 17.5658 99.898C18.0998 99.898 18.5468 100.033 18.9068 100.303C19.2728 100.567 19.5488 100.933 19.7348 101.401C19.9268 101.863 20.0228 102.394 20.0228 102.994C20.0228 103.594 19.9268 104.128 19.7348 104.596C19.5488 105.058 19.2728 105.424 18.9068 105.694C18.5468 105.958 18.0998 106.09 17.5658 106.09ZM17.5658 105.343C17.8658 105.343 18.1298 105.259 18.3578 105.091C18.5918 104.917 18.7718 104.656 18.8978 104.308C19.0298 103.96 19.0958 103.522 19.0958 102.994C19.0958 102.46 19.0298 102.019 18.8978 101.671C18.7718 101.323 18.5918 101.065 18.3578 100.897C18.1298 100.723 17.8658 100.636 17.5658 100.636C17.2718 100.636 17.0078 100.723 16.7738 100.897C16.5458 101.071 16.3658 101.332 16.2338 101.68C16.1018 102.022 16.0358 102.46 16.0358 102.994C16.0358 103.522 16.1018 103.96 16.2338 104.308C16.3658 104.656 16.5458 104.917 16.7738 105.091C17.0078 105.259 17.2718 105.343 17.5658 105.343ZM23.3402 106.09C22.8122 106.09 22.3652 105.958 21.9992 105.694C21.6332 105.424 21.3572 105.058 21.1712 104.596C20.9852 104.128 20.8922 103.594 20.8922 102.994C20.8922 102.394 20.9852 101.863 21.1712 101.401C21.3572 100.933 21.6332 100.567 21.9992 100.303C22.3652 100.033 22.8122 99.898 23.3402 99.898C23.8742 99.898 24.3212 100.033 24.6812 100.303C25.0472 100.567 25.3232 100.933 25.5092 101.401C25.7012 101.863 25.7972 102.394 25.7972 102.994C25.7972 103.594 25.7012 104.128 25.5092 104.596C25.3232 105.058 25.0472 105.424 24.6812 105.694C24.3212 105.958 23.8742 106.09 23.3402 106.09ZM23.3402 105.343C23.6402 105.343 23.9042 105.259 24.1322 105.091C24.3662 104.917 24.5462 104.656 24.6722 104.308C24.8042 103.96 24.8702 103.522 24.8702 102.994C24.8702 102.46 24.8042 102.019 24.6722 101.671C24.5462 101.323 24.3662 101.065 24.1322 100.897C23.9042 100.723 23.6402 100.636 23.3402 100.636C23.0462 100.636 22.7822 100.723 22.5482 100.897C22.3202 101.071 22.1402 101.332 22.0082 101.68C21.8762 102.022 21.8102 102.46 21.8102 102.994C21.8102 103.522 21.8762 103.96 22.0082 104.308C22.1402 104.656 22.3202 104.917 22.5482 105.091C22.7822 105.259 23.0462 105.343 23.3402 105.343ZM29.1146 106.09C28.5866 106.09 28.1396 105.958 27.7736 105.694C27.4076 105.424 27.1316 105.058 26.9456 104.596C26.7596 104.128 26.6666 103.594 26.6666 102.994C26.6666 102.394 26.7596 101.863 26.9456 101.401C27.1316 100.933 27.4076 100.567 27.7736 100.303C28.1396 100.033 28.5866 99.898 29.1146 99.898C29.6486 99.898 30.0956 100.033 30.4556 100.303C30.8216 100.567 31.0976 100.933 31.2836 101.401C31.4756 101.863 31.5716 102.394 31.5716 102.994C31.5716 103.594 31.4756 104.128 31.2836 104.596C31.0976 105.058 30.8216 105.424 30.4556 105.694C30.0956 105.958 29.6486 106.09 29.1146 106.09ZM29.1146 105.343C29.4146 105.343 29.6786 105.259 29.9066 105.091C30.1406 104.917 30.3206 104.656 30.4466 104.308C30.5786 103.96 30.6446 103.522 30.6446 102.994C30.6446 102.46 30.5786 102.019 30.4466 101.671C30.3206 101.323 30.1406 101.065 29.9066 100.897C29.6786 100.723 29.4146 100.636 29.1146 100.636C28.8206 100.636 28.5566 100.723 28.3226 100.897C28.0946 101.071 27.9146 101.332 27.7826 101.68C27.6506 102.022 27.5846 102.46 27.5846 102.994C27.5846 103.522 27.6506 103.96 27.7826 104.308C27.9146 104.656 28.0946 104.917 28.3226 105.091C28.5566 105.259 28.8206 105.343 29.1146 105.343Z" fill="#747FA6"/>
<path d="M5.00865 18.8971L5.21565 17.9791C4.99365 17.9131 4.77765 17.8231 4.56765 17.7091C4.36365 17.5951 4.15965 17.4511 3.95565 17.2771L4.31565 16.5661C4.50765 16.7221 4.69365 16.8511 4.87365 16.9531C5.05365 17.0491 5.23065 17.1271 5.40465 17.1871L5.83665 15.2791L5.64765 15.2431C5.11365 15.1411 4.72665 14.9581 4.48665 14.6941C4.25265 14.4301 4.13565 14.1091 4.13565 13.7311C4.13565 13.3951 4.21065 13.0891 4.36065 12.8131C4.51065 12.5371 4.74165 12.3151 5.05365 12.1471C5.36565 11.9791 5.75865 11.8951 6.23265 11.8951C6.29865 11.8951 6.36165 11.8981 6.42165 11.9041C6.48765 11.9041 6.55365 11.9071 6.61965 11.9131L6.80865 11.0851H7.34865L7.13265 12.0121C7.32465 12.0601 7.51065 12.1321 7.69065 12.2281C7.87665 12.3241 8.05665 12.4411 8.23065 12.5791L7.86165 13.2811C7.70565 13.1731 7.55265 13.0801 7.40265 13.0021C7.25865 12.9181 7.10865 12.8491 6.95265 12.7951L6.55665 14.5321L6.88965 14.5951C7.41765 14.6911 7.80165 14.8921 8.04165 15.1981C8.28765 15.4981 8.41065 15.8341 8.41065 16.2061C8.41065 16.7701 8.21265 17.2261 7.81665 17.5741C7.42665 17.9161 6.86265 18.0871 6.12465 18.0871C6.05265 18.0871 5.98365 18.0841 5.91765 18.0781C5.85765 18.0721 5.79765 18.0661 5.73765 18.0601L5.54865 18.8971H5.00865ZM5.91765 17.2951C5.95365 17.3011 5.98665 17.3041 6.01665 17.3041C6.05265 17.3041 6.08865 17.3041 6.12465 17.3041C6.56265 17.3041 6.89865 17.2171 7.13265 17.0431C7.36665 16.8631 7.48365 16.6141 7.48365 16.2961C7.48365 16.0741 7.41165 15.8881 7.26765 15.7381C7.12365 15.5821 6.91365 15.4801 6.63765 15.4321L6.35865 15.3781L5.91765 17.2951ZM6.03465 14.4331L6.43965 12.6871C6.40965 12.6811 6.37965 12.6781 6.34965 12.6781C6.31965 12.6781 6.28665 12.6781 6.25065 12.6781C5.85465 12.6781 5.55465 12.7621 5.35065 12.9301C5.15265 13.0981 5.05365 13.3261 5.05365 13.6141C5.05365 13.8361 5.12265 14.0101 5.26065 14.1361C5.40465 14.2561 5.61165 14.3431 5.88165 14.3971L6.03465 14.4331ZM10.7488 17.9971V12.9571L9.45282 13.6681L9.10182 12.9751L10.9828 11.9851H11.6488V17.9971H10.7488ZM13.2204 19.3831L12.7704 19.1671C12.8844 18.9631 12.9714 18.7531 13.0314 18.5371C13.0974 18.3271 13.1304 18.1051 13.1304 17.8711V17.1421H13.9134V17.8711C13.9134 18.2311 13.8564 18.5281 13.7424 18.7621C13.6344 18.9961 13.4604 19.2031 13.2204 19.3831ZM17.5658 18.0871C17.0378 18.0871 16.5908 17.9551 16.2248 17.6911C15.8588 17.4211 15.5828 17.0551 15.3968 16.5931C15.2108 16.1251 15.1178 15.5911 15.1178 14.9911C15.1178 14.3911 15.2108 13.8601 15.3968 13.3981C15.5828 12.9301 15.8588 12.5641 16.2248 12.3001C16.5908 12.0301 17.0378 11.8951 17.5658 11.8951C18.0998 11.8951 18.5468 12.0301 18.9068 12.3001C19.2728 12.5641 19.5488 12.9301 19.7348 13.3981C19.9268 13.8601 20.0228 14.3911 20.0228 14.9911C20.0228 15.5911 19.9268 16.1251 19.7348 16.5931C19.5488 17.0551 19.2728 17.4211 18.9068 17.6911C18.5468 17.9551 18.0998 18.0871 17.5658 18.0871ZM17.5658 17.3401C17.8658 17.3401 18.1298 17.2561 18.3578 17.0881C18.5918 16.9141 18.7718 16.6531 18.8978 16.3051C19.0298 15.9571 19.0958 15.5191 19.0958 14.9911C19.0958 14.4571 19.0298 14.0161 18.8978 13.6681C18.7718 13.3201 18.5918 13.0621 18.3578 12.8941C18.1298 12.7201 17.8658 12.6331 17.5658 12.6331C17.2718 12.6331 17.0078 12.7201 16.7738 12.8941C16.5458 13.0681 16.3658 13.3291 16.2338 13.6771C16.1018 14.0191 16.0358 14.4571 16.0358 14.9911C16.0358 15.5191 16.1018 15.9571 16.2338 16.3051C16.3658 16.6531 16.5458 16.9141 16.7738 17.0881C17.0078 17.2561 17.2718 17.3401 17.5658 17.3401ZM23.3402 18.0871C22.8122 18.0871 22.3652 17.9551 21.9992 17.6911C21.6332 17.4211 21.3572 17.0551 21.1712 16.5931C20.9852 16.1251 20.8922 15.5911 20.8922 14.9911C20.8922 14.3911 20.9852 13.8601 21.1712 13.3981C21.3572 12.9301 21.6332 12.5641 21.9992 12.3001C22.3652 12.0301 22.8122 11.8951 23.3402 11.8951C23.8742 11.8951 24.3212 12.0301 24.6812 12.3001C25.0472 12.5641 25.3232 12.9301 25.5092 13.3981C25.7012 13.8601 25.7972 14.3911 25.7972 14.9911C25.7972 15.5911 25.7012 16.1251 25.5092 16.5931C25.3232 17.0551 25.0472 17.4211 24.6812 17.6911C24.3212 17.9551 23.8742 18.0871 23.3402 18.0871ZM23.3402 17.3401C23.6402 17.3401 23.9042 17.2561 24.1322 17.0881C24.3662 16.9141 24.5462 16.6531 24.6722 16.3051C24.8042 15.9571 24.8702 15.5191 24.8702 14.9911C24.8702 14.4571 24.8042 14.0161 24.6722 13.6681C24.5462 13.3201 24.3662 13.0621 24.1322 12.8941C23.9042 12.7201 23.6402 12.6331 23.3402 12.6331C23.0462 12.6331 22.7822 12.7201 22.5482 12.8941C22.3202 13.0681 22.1402 13.3291 22.0082 13.6771C21.8762 14.0191 21.8102 14.4571 21.8102 14.9911C21.8102 15.5191 21.8762 15.9571 22.0082 16.3051C22.1402 16.6531 22.3202 16.9141 22.5482 17.0881C22.7822 17.2561 23.0462 17.3401 23.3402 17.3401ZM29.1146 18.0871C28.5866 18.0871 28.1396 17.9551 27.7736 17.6911C27.4076 17.4211 27.1316 17.0551 26.9456 16.5931C26.7596 16.1251 26.6666 15.5911 26.6666 14.9911C26.6666 14.3911 26.7596 13.8601 26.9456 13.3981C27.1316 12.9301 27.4076 12.5641 27.7736 12.3001C28.1396 12.0301 28.5866 11.8951 29.1146 11.8951C29.6486 11.8951 30.0956 12.0301 30.4556 12.3001C30.8216 12.5641 31.0976 12.9301 31.2836 13.3981C31.4756 13.8601 31.5716 14.3911 31.5716 14.9911C31.5716 15.5911 31.4756 16.1251 31.2836 16.5931C31.0976 17.0551 30.8216 17.4211 30.4556 17.6911C30.0956 17.9551 29.6486 18.0871 29.1146 18.0871ZM29.1146 17.3401C29.4146 17.3401 29.6786 17.2561 29.9066 17.0881C30.1406 16.9141 30.3206 16.6531 30.4466 16.3051C30.5786 15.9571 30.6446 15.5191 30.6446 14.9911C30.6446 14.4571 30.5786 14.0161 30.4466 13.6681C30.3206 13.3201 30.1406 13.0621 29.9066 12.8941C29.6786 12.7201 29.4146 12.6331 29.1146 12.6331C28.8206 12.6331 28.5566 12.7201 28.3226 12.8941C28.0946 13.0681 27.9146 13.3291 27.7826 13.6771C27.6506 14.0191 27.5846 14.4571 27.5846 14.9911C27.5846 15.5191 27.6506 15.9571 27.7826 16.3051C27.9146 16.6531 28.0946 16.9141 28.3226 17.0881C28.5566 17.2561 28.8206 17.3401 29.1146 17.3401Z" fill="#747FA6"/>
<line x1="122.5" y1="55" x2="122.5" y2="64" stroke="#20224E"/>
<path d="M115.688 75.9L115.895 74.982C115.673 74.916 115.457 74.826 115.247 74.712C115.043 74.598 114.839 74.454 114.635 74.28L114.995 73.569C115.187 73.725 115.373 73.854 115.553 73.956C115.733 74.052 115.91 74.13 116.084 74.19L116.516 72.282L116.327 72.246C115.793 72.144 115.406 71.961 115.166 71.697C114.932 71.433 114.815 71.112 114.815 70.734C114.815 70.398 114.89 70.092 115.04 69.816C115.19 69.54 115.421 69.318 115.733 69.15C116.045 68.982 116.438 68.898 116.912 68.898C116.978 68.898 117.041 68.901 117.101 68.907C117.167 68.907 117.233 68.91 117.299 68.916L117.488 68.088H118.028L117.812 69.015C118.004 69.063 118.19 69.135 118.37 69.231C118.556 69.327 118.736 69.444 118.91 69.582L118.541 70.284C118.385 70.176 118.232 70.083 118.082 70.005C117.938 69.921 117.788 69.852 117.632 69.798L117.236 71.535L117.569 71.598C118.097 71.694 118.481 71.895 118.721 72.201C118.967 72.501 119.09 72.837 119.09 73.209C119.09 73.773 118.892 74.229 118.496 74.577C118.106 74.919 117.542 75.09 116.804 75.09C116.732 75.09 116.663 75.087 116.597 75.081C116.537 75.075 116.477 75.069 116.417 75.063L116.228 75.9H115.688ZM116.597 74.298C116.633 74.304 116.666 74.307 116.696 74.307C116.732 74.307 116.768 74.307 116.804 74.307C117.242 74.307 117.578 74.22 117.812 74.046C118.046 73.866 118.163 73.617 118.163 73.299C118.163 73.077 118.091 72.891 117.947 72.741C117.803 72.585 117.593 72.483 117.317 72.435L117.038 72.381L116.597 74.298ZM116.714 71.436L117.119 69.69C117.089 69.684 117.059 69.681 117.029 69.681C116.999 69.681 116.966 69.681 116.93 69.681C116.534 69.681 116.234 69.765 116.03 69.933C115.832 70.101 115.733 70.329 115.733 70.617C115.733 70.839 115.802 71.013 115.94 71.139C116.084 71.259 116.291 71.346 116.561 71.4L116.714 71.436ZM122.275 75.09C121.789 75.09 121.372 75.015 121.024 74.865C120.676 74.715 120.412 74.511 120.232 74.253C120.052 73.995 119.962 73.698 119.962 73.362C119.962 73.026 120.058 72.729 120.25 72.471C120.442 72.207 120.745 72.018 121.159 71.904C120.781 71.784 120.502 71.604 120.322 71.364C120.142 71.124 120.052 70.848 120.052 70.536C120.052 70.218 120.139 69.936 120.313 69.69C120.493 69.444 120.748 69.252 121.078 69.114C121.414 68.97 121.813 68.898 122.275 68.898C122.743 68.898 123.142 68.97 123.472 69.114C123.808 69.252 124.063 69.444 124.237 69.69C124.417 69.936 124.507 70.218 124.507 70.536C124.507 70.848 124.414 71.124 124.228 71.364C124.042 71.604 123.763 71.784 123.391 71.904C123.805 72.018 124.108 72.207 124.3 72.471C124.498 72.729 124.597 73.026 124.597 73.362C124.597 73.698 124.504 73.995 124.318 74.253C124.138 74.511 123.877 74.715 123.535 74.865C123.193 75.015 122.773 75.09 122.275 75.09ZM122.275 74.361C122.725 74.361 123.07 74.262 123.31 74.064C123.55 73.866 123.67 73.614 123.67 73.308C123.67 72.99 123.55 72.735 123.31 72.543C123.07 72.351 122.725 72.255 122.275 72.255C121.825 72.255 121.48 72.351 121.24 72.543C121 72.735 120.88 72.99 120.88 73.308C120.88 73.614 121 73.866 121.24 74.064C121.48 74.262 121.825 74.361 122.275 74.361ZM122.275 71.553C122.689 71.553 123.01 71.469 123.238 71.301C123.466 71.133 123.58 70.896 123.58 70.59C123.58 70.284 123.466 70.047 123.238 69.879C123.01 69.711 122.689 69.627 122.275 69.627C121.867 69.627 121.546 69.711 121.312 69.879C121.084 70.047 120.97 70.284 120.97 70.59C120.97 70.89 121.084 71.127 121.312 71.301C121.546 71.469 121.867 71.553 122.275 71.553ZM127.92 75.09C127.392 75.09 126.945 74.958 126.579 74.694C126.213 74.424 125.937 74.058 125.751 73.596C125.565 73.128 125.472 72.594 125.472 71.994C125.472 71.394 125.565 70.863 125.751 70.401C125.937 69.933 126.213 69.567 126.579 69.303C126.945 69.033 127.392 68.898 127.92 68.898C128.454 68.898 128.901 69.033 129.261 69.303C129.627 69.567 129.903 69.933 130.089 70.401C130.281 70.863 130.377 71.394 130.377 71.994C130.377 72.594 130.281 73.128 130.089 73.596C129.903 74.058 129.627 74.424 129.261 74.694C128.901 74.958 128.454 75.09 127.92 75.09ZM127.92 74.343C128.22 74.343 128.484 74.259 128.712 74.091C128.946 73.917 129.126 73.656 129.252 73.308C129.384 72.96 129.45 72.522 129.45 71.994C129.45 71.46 129.384 71.019 129.252 70.671C129.126 70.323 128.946 70.065 128.712 69.897C128.484 69.723 128.22 69.636 127.92 69.636C127.626 69.636 127.362 69.723 127.128 69.897C126.9 70.071 126.72 70.332 126.588 70.68C126.456 71.022 126.39 71.46 126.39 71.994C126.39 72.522 126.456 72.96 126.588 73.308C126.72 73.656 126.9 73.917 127.128 74.091C127.362 74.259 127.626 74.343 127.92 74.343Z" fill="#747FA6"/>
<line x1="209.5" y1="55" x2="209.5" y2="64" stroke="#20224E"/>
<path d="M199.799 75.9L200.006 74.982C199.784 74.916 199.568 74.826 199.358 74.712C199.154 74.598 198.95 74.454 198.746 74.28L199.106 73.569C199.298 73.725 199.484 73.854 199.664 73.956C199.844 74.052 200.021 74.13 200.195 74.19L200.627 72.282L200.438 72.246C199.904 72.144 199.517 71.961 199.277 71.697C199.043 71.433 198.926 71.112 198.926 70.734C198.926 70.398 199.001 70.092 199.151 69.816C199.301 69.54 199.532 69.318 199.844 69.15C200.156 68.982 200.549 68.898 201.023 68.898C201.089 68.898 201.152 68.901 201.212 68.907C201.278 68.907 201.344 68.91 201.41 68.916L201.599 68.088H202.139L201.923 69.015C202.115 69.063 202.301 69.135 202.481 69.231C202.667 69.327 202.847 69.444 203.021 69.582L202.652 70.284C202.496 70.176 202.343 70.083 202.193 70.005C202.049 69.921 201.899 69.852 201.743 69.798L201.347 71.535L201.68 71.598C202.208 71.694 202.592 71.895 202.832 72.201C203.078 72.501 203.201 72.837 203.201 73.209C203.201 73.773 203.003 74.229 202.607 74.577C202.217 74.919 201.653 75.09 200.915 75.09C200.843 75.09 200.774 75.087 200.708 75.081C200.648 75.075 200.588 75.069 200.528 75.063L200.339 75.9H199.799ZM200.708 74.298C200.744 74.304 200.777 74.307 200.807 74.307C200.843 74.307 200.879 74.307 200.915 74.307C201.353 74.307 201.689 74.22 201.923 74.046C202.157 73.866 202.274 73.617 202.274 73.299C202.274 73.077 202.202 72.891 202.058 72.741C201.914 72.585 201.704 72.483 201.428 72.435L201.149 72.381L200.708 74.298ZM200.825 71.436L201.23 69.69C201.2 69.684 201.17 69.681 201.14 69.681C201.11 69.681 201.077 69.681 201.041 69.681C200.645 69.681 200.345 69.765 200.141 69.933C199.943 70.101 199.844 70.329 199.844 70.617C199.844 70.839 199.913 71.013 200.051 71.139C200.195 71.259 200.402 71.346 200.672 71.4L200.825 71.436ZM205.539 75V69.96L204.243 70.671L203.892 69.978L205.773 68.988H206.439V75H205.539ZM210.035 75.09C209.507 75.09 209.06 74.958 208.694 74.694C208.328 74.424 208.052 74.058 207.866 73.596C207.68 73.128 207.587 72.594 207.587 71.994C207.587 71.394 207.68 70.863 207.866 70.401C208.052 69.933 208.328 69.567 208.694 69.303C209.06 69.033 209.507 68.898 210.035 68.898C210.569 68.898 211.016 69.033 211.376 69.303C211.742 69.567 212.018 69.933 212.204 70.401C212.396 70.863 212.492 71.394 212.492 71.994C212.492 72.594 212.396 73.128 212.204 73.596C212.018 74.058 211.742 74.424 211.376 74.694C211.016 74.958 210.569 75.09 210.035 75.09ZM210.035 74.343C210.335 74.343 210.599 74.259 210.827 74.091C211.061 73.917 211.241 73.656 211.367 73.308C211.499 72.96 211.565 72.522 211.565 71.994C211.565 71.46 211.499 71.019 211.367 70.671C211.241 70.323 211.061 70.065 210.827 69.897C210.599 69.723 210.335 69.636 210.035 69.636C209.741 69.636 209.477 69.723 209.243 69.897C209.015 70.071 208.835 70.332 208.703 70.68C208.571 71.022 208.505 71.46 208.505 71.994C208.505 72.522 208.571 72.96 208.703 73.308C208.835 73.656 209.015 73.917 209.243 74.091C209.477 74.259 209.741 74.343 210.035 74.343ZM215.81 75.09C215.282 75.09 214.835 74.958 214.469 74.694C214.103 74.424 213.827 74.058 213.641 73.596C213.455 73.128 213.362 72.594 213.362 71.994C213.362 71.394 213.455 70.863 213.641 70.401C213.827 69.933 214.103 69.567 214.469 69.303C214.835 69.033 215.282 68.898 215.81 68.898C216.344 68.898 216.791 69.033 217.151 69.303C217.517 69.567 217.793 69.933 217.979 70.401C218.171 70.863 218.267 71.394 218.267 71.994C218.267 72.594 218.171 73.128 217.979 73.596C217.793 74.058 217.517 74.424 217.151 74.694C216.791 74.958 216.344 75.09 215.81 75.09ZM215.81 74.343C216.11 74.343 216.374 74.259 216.602 74.091C216.836 73.917 217.016 73.656 217.142 73.308C217.274 72.96 217.34 72.522 217.34 71.994C217.34 71.46 217.274 71.019 217.142 70.671C217.016 70.323 216.836 70.065 216.602 69.897C216.374 69.723 216.11 69.636 215.81 69.636C215.516 69.636 215.252 69.723 215.018 69.897C214.79 70.071 214.61 70.332 214.478 70.68C214.346 71.022 214.28 71.46 214.28 71.994C214.28 72.522 214.346 72.96 214.478 73.308C214.61 73.656 214.79 73.917 215.018 74.091C215.252 74.259 215.516 74.343 215.81 74.343Z" fill="#747FA6"/>
<line x1="297.5" y1="55" x2="297.5" y2="64" stroke="#20224E"/>
<path d="M288.694 75.9L288.901 74.982C288.679 74.916 288.463 74.826 288.253 74.712C288.049 74.598 287.845 74.454 287.641 74.28L288.001 73.569C288.193 73.725 288.379 73.854 288.559 73.956C288.739 74.052 288.916 74.13 289.09 74.19L289.522 72.282L289.333 72.246C288.799 72.144 288.412 71.961 288.172 71.697C287.938 71.433 287.821 71.112 287.821 70.734C287.821 70.398 287.896 70.092 288.046 69.816C288.196 69.54 288.427 69.318 288.739 69.15C289.051 68.982 289.444 68.898 289.918 68.898C289.984 68.898 290.047 68.901 290.107 68.907C290.173 68.907 290.239 68.91 290.305 68.916L290.494 68.088H291.034L290.818 69.015C291.01 69.063 291.196 69.135 291.376 69.231C291.562 69.327 291.742 69.444 291.916 69.582L291.547 70.284C291.391 70.176 291.238 70.083 291.088 70.005C290.944 69.921 290.794 69.852 290.638 69.798L290.242 71.535L290.575 71.598C291.103 71.694 291.487 71.895 291.727 72.201C291.973 72.501 292.096 72.837 292.096 73.209C292.096 73.773 291.898 74.229 291.502 74.577C291.112 74.919 290.548 75.09 289.81 75.09C289.738 75.09 289.669 75.087 289.603 75.081C289.543 75.075 289.483 75.069 289.423 75.063L289.234 75.9H288.694ZM289.603 74.298C289.639 74.304 289.672 74.307 289.702 74.307C289.738 74.307 289.774 74.307 289.81 74.307C290.248 74.307 290.584 74.22 290.818 74.046C291.052 73.866 291.169 73.617 291.169 73.299C291.169 73.077 291.097 72.891 290.953 72.741C290.809 72.585 290.599 72.483 290.323 72.435L290.044 72.381L289.603 74.298ZM289.72 71.436L290.125 69.69C290.095 69.684 290.065 69.681 290.035 69.681C290.005 69.681 289.972 69.681 289.936 69.681C289.54 69.681 289.24 69.765 289.036 69.933C288.838 70.101 288.739 70.329 288.739 70.617C288.739 70.839 288.808 71.013 288.946 71.139C289.09 71.259 289.297 71.346 289.567 71.4L289.72 71.436ZM294.434 75V69.96L293.138 70.671L292.787 69.978L294.668 68.988H295.334V75H294.434ZM296.483 75V74.253L299.048 71.85C299.234 71.67 299.369 71.493 299.453 71.319C299.537 71.145 299.579 70.977 299.579 70.815C299.579 70.575 299.528 70.368 299.426 70.194C299.324 70.02 299.183 69.885 299.003 69.789C298.829 69.687 298.619 69.636 298.373 69.636C298.127 69.636 297.884 69.696 297.644 69.816C297.41 69.936 297.137 70.116 296.825 70.356L296.483 69.708C296.795 69.426 297.107 69.222 297.419 69.096C297.731 68.964 298.061 68.898 298.409 68.898C298.817 68.898 299.177 68.976 299.489 69.132C299.807 69.282 300.056 69.501 300.236 69.789C300.416 70.077 300.506 70.419 300.506 70.815C300.506 71.067 300.437 71.322 300.299 71.58C300.161 71.832 299.924 72.111 299.588 72.417L297.635 74.253H300.596V75H296.483ZM303.914 75.09C303.386 75.09 302.939 74.958 302.573 74.694C302.207 74.424 301.931 74.058 301.745 73.596C301.559 73.128 301.466 72.594 301.466 71.994C301.466 71.394 301.559 70.863 301.745 70.401C301.931 69.933 302.207 69.567 302.573 69.303C302.939 69.033 303.386 68.898 303.914 68.898C304.448 68.898 304.895 69.033 305.255 69.303C305.621 69.567 305.897 69.933 306.083 70.401C306.275 70.863 306.371 71.394 306.371 71.994C306.371 72.594 306.275 73.128 306.083 73.596C305.897 74.058 305.621 74.424 305.255 74.694C304.895 74.958 304.448 75.09 303.914 75.09ZM303.914 74.343C304.214 74.343 304.478 74.259 304.706 74.091C304.94 73.917 305.12 73.656 305.246 73.308C305.378 72.96 305.444 72.522 305.444 71.994C305.444 71.46 305.378 71.019 305.246 70.671C305.12 70.323 304.94 70.065 304.706 69.897C304.478 69.723 304.214 69.636 303.914 69.636C303.62 69.636 303.356 69.723 303.122 69.897C302.894 70.071 302.714 70.332 302.582 70.68C302.45 71.022 302.384 71.46 302.384 71.994C302.384 72.522 302.45 72.96 302.582 73.308C302.714 73.656 302.894 73.917 303.122 74.091C303.356 74.259 303.62 74.343 303.914 74.343Z" fill="#747FA6"/>
<path d="M262.968 50.8085C263.074 50.7197 263.232 50.7335 263.32 50.8393C263.409 50.9451 263.395 51.1028 263.29 51.1915L262.968 50.8085ZM256.979 56.3913C256.841 56.3793 256.739 56.2581 256.752 56.1205L256.948 53.8791C256.96 53.7415 257.081 53.6398 257.218 53.6518C257.356 53.6638 257.458 53.7851 257.446 53.9227L257.271 55.915L259.264 56.0894C259.401 56.1014 259.503 56.2226 259.491 56.3602C259.479 56.4977 259.358 56.5995 259.22 56.5874L256.979 56.3913ZM263.29 51.1915L257.161 56.3338L256.84 55.9508L262.968 50.8085L263.29 51.1915Z" fill="#747FA6"/>
<path d="M265.711 51V44.988H268.492C268.966 44.988 269.359 45.042 269.671 45.15C269.989 45.252 270.229 45.417 270.391 45.645C270.553 45.873 270.634 46.173 270.634 46.545C270.634 46.899 270.559 47.187 270.409 47.409C270.265 47.631 270.022 47.793 269.68 47.895C270.082 47.991 270.37 48.159 270.544 48.399C270.724 48.639 270.814 48.954 270.814 49.344C270.814 49.938 270.622 50.364 270.238 50.622C269.86 50.874 269.278 51 268.492 51H265.711ZM266.611 50.235H268.366C268.744 50.235 269.044 50.202 269.266 50.136C269.488 50.07 269.647 49.965 269.743 49.821C269.839 49.677 269.887 49.488 269.887 49.254C269.887 49.014 269.839 48.822 269.743 48.678C269.647 48.534 269.488 48.429 269.266 48.363C269.044 48.297 268.744 48.264 268.366 48.264H266.611V50.235ZM266.611 47.535H268.366C268.864 47.535 269.212 47.469 269.41 47.337C269.608 47.205 269.707 46.974 269.707 46.644C269.707 46.308 269.608 46.074 269.41 45.942C269.212 45.81 268.864 45.744 268.366 45.744H266.611V47.535ZM271.924 51V46.77H272.743V47.508C272.851 47.244 273.007 47.046 273.211 46.914C273.421 46.782 273.655 46.716 273.913 46.716C273.997 46.716 274.072 46.722 274.138 46.734C274.21 46.74 274.267 46.752 274.309 46.77V47.571C274.225 47.553 274.141 47.541 274.057 47.535C273.979 47.523 273.901 47.517 273.823 47.517C273.523 47.517 273.271 47.643 273.067 47.895C272.869 48.141 272.77 48.495 272.77 48.957V51H271.924ZM277.007 51.09C276.581 51.09 276.197 51.006 275.855 50.838C275.519 50.664 275.252 50.415 275.054 50.091C274.856 49.761 274.757 49.359 274.757 48.885C274.757 48.435 274.85 48.045 275.036 47.715C275.228 47.385 275.483 47.13 275.801 46.95C276.125 46.77 276.485 46.68 276.881 46.68C277.301 46.68 277.661 46.761 277.961 46.923C278.267 47.079 278.504 47.295 278.672 47.571C278.84 47.847 278.924 48.159 278.924 48.507C278.924 48.609 278.909 48.72 278.879 48.84C278.855 48.96 278.819 49.056 278.771 49.128H275.621C275.651 49.392 275.729 49.617 275.855 49.803C275.981 49.989 276.149 50.13 276.359 50.226C276.569 50.316 276.812 50.361 277.088 50.361C277.364 50.361 277.607 50.319 277.817 50.235C278.033 50.151 278.24 50.031 278.438 49.875L278.744 50.505C278.51 50.697 278.246 50.844 277.952 50.946C277.664 51.042 277.349 51.09 277.007 51.09ZM275.621 48.471H278.042C278.048 48.459 278.051 48.447 278.051 48.435C278.051 48.417 278.051 48.399 278.051 48.381C278.051 48.183 278.009 48.012 277.925 47.868C277.841 47.718 277.715 47.601 277.547 47.517C277.379 47.433 277.166 47.391 276.908 47.391C276.704 47.391 276.512 47.436 276.332 47.526C276.158 47.61 276.008 47.733 275.882 47.895C275.762 48.051 275.675 48.243 275.621 48.471ZM281.369 51.09C281.057 51.09 280.781 51.042 280.541 50.946C280.307 50.844 280.124 50.7 279.992 50.514C279.86 50.322 279.794 50.091 279.794 49.821C279.794 49.551 279.86 49.329 279.992 49.155C280.124 48.975 280.31 48.834 280.55 48.732C280.79 48.624 281.063 48.552 281.369 48.516L282.863 48.336C282.827 48.018 282.707 47.784 282.503 47.634C282.299 47.484 282.047 47.409 281.747 47.409C281.543 47.409 281.33 47.451 281.108 47.535C280.892 47.613 280.661 47.739 280.415 47.913L280.1 47.274C280.334 47.088 280.592 46.944 280.874 46.842C281.162 46.734 281.459 46.68 281.765 46.68C282.407 46.68 282.893 46.827 283.223 47.121C283.559 47.409 283.727 47.844 283.727 48.426V51H282.908V50.388C282.752 50.622 282.542 50.799 282.278 50.919C282.02 51.033 281.717 51.09 281.369 51.09ZM281.567 50.37C281.849 50.37 282.086 50.316 282.278 50.208C282.476 50.094 282.623 49.944 282.719 49.758C282.821 49.572 282.872 49.377 282.872 49.173V48.984L281.612 49.146C281.3 49.188 281.063 49.257 280.901 49.353C280.739 49.443 280.658 49.59 280.658 49.794C280.658 49.98 280.739 50.124 280.901 50.226C281.063 50.322 281.285 50.37 281.567 50.37ZM285.064 51V44.988H285.91V48.759L287.908 46.77H288.943L287.179 48.498L289.033 51H287.998L286.585 49.083L285.91 49.74V51H285.064ZM288.969 48.768V48.084H291.408V48.768H288.969ZM292.553 51V44.988H296.72V45.762H293.453V47.535H296.45V48.273H293.453V50.226H296.72V51H292.553ZM299.111 51L297.419 46.77H298.328L299.579 50.118L300.83 46.77H301.748L300.047 51H299.111ZM304.289 51.09C303.863 51.09 303.479 51.006 303.137 50.838C302.801 50.664 302.534 50.415 302.336 50.091C302.138 49.761 302.039 49.359 302.039 48.885C302.039 48.435 302.132 48.045 302.318 47.715C302.51 47.385 302.765 47.13 303.083 46.95C303.407 46.77 303.767 46.68 304.163 46.68C304.583 46.68 304.943 46.761 305.243 46.923C305.549 47.079 305.786 47.295 305.954 47.571C306.122 47.847 306.206 48.159 306.206 48.507C306.206 48.609 306.191 48.72 306.161 48.84C306.137 48.96 306.101 49.056 306.053 49.128H302.903C302.933 49.392 303.011 49.617 303.137 49.803C303.263 49.989 303.431 50.13 303.641 50.226C303.851 50.316 304.094 50.361 304.37 50.361C304.646 50.361 304.889 50.319 305.099 50.235C305.315 50.151 305.522 50.031 305.72 49.875L306.026 50.505C305.792 50.697 305.528 50.844 305.234 50.946C304.946 51.042 304.631 51.09 304.289 51.09ZM302.903 48.471H305.324C305.33 48.459 305.333 48.447 305.333 48.435C305.333 48.417 305.333 48.399 305.333 48.381C305.333 48.183 305.291 48.012 305.207 47.868C305.123 47.718 304.997 47.601 304.829 47.517C304.661 47.433 304.448 47.391 304.19 47.391C303.986 47.391 303.794 47.436 303.614 47.526C303.44 47.61 303.29 47.733 303.164 47.895C303.044 48.051 302.957 48.243 302.903 48.471ZM307.309 51V46.77H308.128V47.4C308.254 47.178 308.434 47.004 308.668 46.878C308.908 46.746 309.199 46.68 309.541 46.68C310.027 46.68 310.408 46.818 310.684 47.094C310.96 47.37 311.098 47.802 311.098 48.39V51H310.243V48.498C310.243 48.12 310.165 47.847 310.009 47.679C309.859 47.505 309.628 47.418 309.316 47.418C308.95 47.418 308.665 47.544 308.461 47.796C308.257 48.048 308.155 48.393 308.155 48.831V51H307.309ZM315.432 51.9L315.639 50.982C315.417 50.916 315.201 50.826 314.991 50.712C314.787 50.598 314.583 50.454 314.379 50.28L314.739 49.569C314.931 49.725 315.117 49.854 315.297 49.956C315.477 50.052 315.654 50.13 315.828 50.19L316.26 48.282L316.071 48.246C315.537 48.144 315.15 47.961 314.91 47.697C314.676 47.433 314.559 47.112 314.559 46.734C314.559 46.398 314.634 46.092 314.784 45.816C314.934 45.54 315.165 45.318 315.477 45.15C315.789 44.982 316.182 44.898 316.656 44.898C316.722 44.898 316.785 44.901 316.845 44.907C316.911 44.907 316.977 44.91 317.043 44.916L317.232 44.088H317.772L317.556 45.015C317.748 45.063 317.934 45.135 318.114 45.231C318.3 45.327 318.48 45.444 318.654 45.582L318.285 46.284C318.129 46.176 317.976 46.083 317.826 46.005C317.682 45.921 317.532 45.852 317.376 45.798L316.98 47.535L317.313 47.598C317.841 47.694 318.225 47.895 318.465 48.201C318.711 48.501 318.834 48.837 318.834 49.209C318.834 49.773 318.636 50.229 318.24 50.577C317.85 50.919 317.286 51.09 316.548 51.09C316.476 51.09 316.407 51.087 316.341 51.081C316.281 51.075 316.221 51.069 316.161 51.063L315.972 51.9H315.432ZM316.341 50.298C316.377 50.304 316.41 50.307 316.44 50.307C316.476 50.307 316.512 50.307 316.548 50.307C316.986 50.307 317.322 50.22 317.556 50.046C317.79 49.866 317.907 49.617 317.907 49.299C317.907 49.077 317.835 48.891 317.691 48.741C317.547 48.585 317.337 48.483 317.061 48.435L316.782 48.381L316.341 50.298ZM316.458 47.436L316.863 45.69C316.833 45.684 316.803 45.681 316.773 45.681C316.743 45.681 316.71 45.681 316.674 45.681C316.278 45.681 315.978 45.765 315.774 45.933C315.576 46.101 315.477 46.329 315.477 46.617C315.477 46.839 315.546 47.013 315.684 47.139C315.828 47.259 316.035 47.346 316.305 47.4L316.458 47.436ZM321.172 51V45.96L319.876 46.671L319.525 45.978L321.406 44.988H322.072V51H321.172ZM324.687 51V45.96L323.391 46.671L323.04 45.978L324.921 44.988H325.587V51H324.687ZM329.184 51.09C328.656 51.09 328.209 50.958 327.843 50.694C327.477 50.424 327.201 50.058 327.015 49.596C326.829 49.128 326.736 48.594 326.736 47.994C326.736 47.394 326.829 46.863 327.015 46.401C327.201 45.933 327.477 45.567 327.843 45.303C328.209 45.033 328.656 44.898 329.184 44.898C329.718 44.898 330.165 45.033 330.525 45.303C330.891 45.567 331.167 45.933 331.353 46.401C331.545 46.863 331.641 47.394 331.641 47.994C331.641 48.594 331.545 49.128 331.353 49.596C331.167 50.058 330.891 50.424 330.525 50.694C330.165 50.958 329.718 51.09 329.184 51.09ZM329.184 50.343C329.484 50.343 329.748 50.259 329.976 50.091C330.21 49.917 330.39 49.656 330.516 49.308C330.648 48.96 330.714 48.522 330.714 47.994C330.714 47.46 330.648 47.019 330.516 46.671C330.39 46.323 330.21 46.065 329.976 45.897C329.748 45.723 329.484 45.636 329.184 45.636C328.89 45.636 328.626 45.723 328.392 45.897C328.164 46.071 327.984 46.332 327.852 46.68C327.72 47.022 327.654 47.46 327.654 47.994C327.654 48.522 327.72 48.96 327.852 49.308C327.984 49.656 328.164 49.917 328.392 50.091C328.626 50.259 328.89 50.343 329.184 50.343Z" fill="#747FA6"/>
<path d="M159.161 49.8085C159.055 49.7197 158.897 49.7335 158.808 49.8393C158.72 49.9451 158.734 50.1028 158.839 50.1915L159.161 49.8085ZM165.15 55.3913C165.288 55.3793 165.389 55.2581 165.377 55.1205L165.181 52.8791C165.169 52.7415 165.048 52.6398 164.91 52.6518C164.773 52.6638 164.671 52.7851 164.683 52.9227L164.858 54.915L162.865 55.0894C162.728 55.1014 162.626 55.2226 162.638 55.3602C162.65 55.4977 162.771 55.5995 162.909 55.5875L165.15 55.3913ZM158.839 50.1915L164.968 55.3338L165.289 54.9508L159.161 49.8085L158.839 50.1915Z" fill="#747FA6"/>
<path d="M92.711 51V44.988H95.492C95.966 44.988 96.359 45.042 96.671 45.15C96.989 45.252 97.229 45.417 97.391 45.645C97.553 45.873 97.634 46.173 97.634 46.545C97.634 46.899 97.559 47.187 97.409 47.409C97.265 47.631 97.022 47.793 96.68 47.895C97.082 47.991 97.37 48.159 97.544 48.399C97.724 48.639 97.814 48.954 97.814 49.344C97.814 49.938 97.622 50.364 97.238 50.622C96.86 50.874 96.278 51 95.492 51H92.711ZM93.611 50.235H95.366C95.744 50.235 96.044 50.202 96.266 50.136C96.488 50.07 96.647 49.965 96.743 49.821C96.839 49.677 96.887 49.488 96.887 49.254C96.887 49.014 96.839 48.822 96.743 48.678C96.647 48.534 96.488 48.429 96.266 48.363C96.044 48.297 95.744 48.264 95.366 48.264H93.611V50.235ZM93.611 47.535H95.366C95.864 47.535 96.212 47.469 96.41 47.337C96.608 47.205 96.707 46.974 96.707 46.644C96.707 46.308 96.608 46.074 96.41 45.942C96.212 45.81 95.864 45.744 95.366 45.744H93.611V47.535ZM98.924 51V46.77H99.743V47.508C99.851 47.244 100.007 47.046 100.211 46.914C100.421 46.782 100.655 46.716 100.913 46.716C100.997 46.716 101.072 46.722 101.138 46.734C101.21 46.74 101.267 46.752 101.309 46.77V47.571C101.225 47.553 101.141 47.541 101.057 47.535C100.979 47.523 100.901 47.517 100.823 47.517C100.523 47.517 100.271 47.643 100.067 47.895C99.869 48.141 99.77 48.495 99.77 48.957V51H98.924ZM104.007 51.09C103.581 51.09 103.197 51.006 102.855 50.838C102.519 50.664 102.252 50.415 102.054 50.091C101.856 49.761 101.757 49.359 101.757 48.885C101.757 48.435 101.85 48.045 102.036 47.715C102.228 47.385 102.483 47.13 102.801 46.95C103.125 46.77 103.485 46.68 103.881 46.68C104.301 46.68 104.661 46.761 104.961 46.923C105.267 47.079 105.504 47.295 105.672 47.571C105.84 47.847 105.924 48.159 105.924 48.507C105.924 48.609 105.909 48.72 105.879 48.84C105.855 48.96 105.819 49.056 105.771 49.128H102.621C102.651 49.392 102.729 49.617 102.855 49.803C102.981 49.989 103.149 50.13 103.359 50.226C103.569 50.316 103.812 50.361 104.088 50.361C104.364 50.361 104.607 50.319 104.817 50.235C105.033 50.151 105.24 50.031 105.438 49.875L105.744 50.505C105.51 50.697 105.246 50.844 104.952 50.946C104.664 51.042 104.349 51.09 104.007 51.09ZM102.621 48.471H105.042C105.048 48.459 105.051 48.447 105.051 48.435C105.051 48.417 105.051 48.399 105.051 48.381C105.051 48.183 105.009 48.012 104.925 47.868C104.841 47.718 104.715 47.601 104.547 47.517C104.379 47.433 104.166 47.391 103.908 47.391C103.704 47.391 103.512 47.436 103.332 47.526C103.158 47.61 103.008 47.733 102.882 47.895C102.762 48.051 102.675 48.243 102.621 48.471ZM108.369 51.09C108.057 51.09 107.781 51.042 107.541 50.946C107.307 50.844 107.124 50.7 106.992 50.514C106.86 50.322 106.794 50.091 106.794 49.821C106.794 49.551 106.86 49.329 106.992 49.155C107.124 48.975 107.31 48.834 107.55 48.732C107.79 48.624 108.063 48.552 108.369 48.516L109.863 48.336C109.827 48.018 109.707 47.784 109.503 47.634C109.299 47.484 109.047 47.409 108.747 47.409C108.543 47.409 108.33 47.451 108.108 47.535C107.892 47.613 107.661 47.739 107.415 47.913L107.1 47.274C107.334 47.088 107.592 46.944 107.874 46.842C108.162 46.734 108.459 46.68 108.765 46.68C109.407 46.68 109.893 46.827 110.223 47.121C110.559 47.409 110.727 47.844 110.727 48.426V51H109.908V50.388C109.752 50.622 109.542 50.799 109.278 50.919C109.02 51.033 108.717 51.09 108.369 51.09ZM108.567 50.37C108.849 50.37 109.086 50.316 109.278 50.208C109.476 50.094 109.623 49.944 109.719 49.758C109.821 49.572 109.872 49.377 109.872 49.173V48.984L108.612 49.146C108.3 49.188 108.063 49.257 107.901 49.353C107.739 49.443 107.658 49.59 107.658 49.794C107.658 49.98 107.739 50.124 107.901 50.226C108.063 50.322 108.285 50.37 108.567 50.37ZM112.064 51V44.988H112.91V48.759L114.908 46.77H115.943L114.179 48.498L116.033 51H114.998L113.585 49.083L112.91 49.74V51H112.064ZM115.969 48.768V48.084H118.408V48.768H115.969ZM119.553 51V44.988H123.72V45.762H120.453V47.535H123.45V48.273H120.453V50.226H123.72V51H119.553ZM126.111 51L124.419 46.77H125.328L126.579 50.118L127.83 46.77H128.748L127.047 51H126.111ZM131.289 51.09C130.863 51.09 130.479 51.006 130.137 50.838C129.801 50.664 129.534 50.415 129.336 50.091C129.138 49.761 129.039 49.359 129.039 48.885C129.039 48.435 129.132 48.045 129.318 47.715C129.51 47.385 129.765 47.13 130.083 46.95C130.407 46.77 130.767 46.68 131.163 46.68C131.583 46.68 131.943 46.761 132.243 46.923C132.549 47.079 132.786 47.295 132.954 47.571C133.122 47.847 133.206 48.159 133.206 48.507C133.206 48.609 133.191 48.72 133.161 48.84C133.137 48.96 133.101 49.056 133.053 49.128H129.903C129.933 49.392 130.011 49.617 130.137 49.803C130.263 49.989 130.431 50.13 130.641 50.226C130.851 50.316 131.094 50.361 131.37 50.361C131.646 50.361 131.889 50.319 132.099 50.235C132.315 50.151 132.522 50.031 132.72 49.875L133.026 50.505C132.792 50.697 132.528 50.844 132.234 50.946C131.946 51.042 131.631 51.09 131.289 51.09ZM129.903 48.471H132.324C132.33 48.459 132.333 48.447 132.333 48.435C132.333 48.417 132.333 48.399 132.333 48.381C132.333 48.183 132.291 48.012 132.207 47.868C132.123 47.718 131.997 47.601 131.829 47.517C131.661 47.433 131.448 47.391 131.19 47.391C130.986 47.391 130.794 47.436 130.614 47.526C130.44 47.61 130.29 47.733 130.164 47.895C130.044 48.051 129.957 48.243 129.903 48.471ZM134.309 51V46.77H135.128V47.4C135.254 47.178 135.434 47.004 135.668 46.878C135.908 46.746 136.199 46.68 136.541 46.68C137.027 46.68 137.408 46.818 137.684 47.094C137.96 47.37 138.098 47.802 138.098 48.39V51H137.243V48.498C137.243 48.12 137.165 47.847 137.009 47.679C136.859 47.505 136.628 47.418 136.316 47.418C135.95 47.418 135.665 47.544 135.461 47.796C135.257 48.048 135.155 48.393 135.155 48.831V51H134.309ZM142.432 51.9L142.639 50.982C142.417 50.916 142.201 50.826 141.991 50.712C141.787 50.598 141.583 50.454 141.379 50.28L141.739 49.569C141.931 49.725 142.117 49.854 142.297 49.956C142.477 50.052 142.654 50.13 142.828 50.19L143.26 48.282L143.071 48.246C142.537 48.144 142.15 47.961 141.91 47.697C141.676 47.433 141.559 47.112 141.559 46.734C141.559 46.398 141.634 46.092 141.784 45.816C141.934 45.54 142.165 45.318 142.477 45.15C142.789 44.982 143.182 44.898 143.656 44.898C143.722 44.898 143.785 44.901 143.845 44.907C143.911 44.907 143.977 44.91 144.043 44.916L144.232 44.088H144.772L144.556 45.015C144.748 45.063 144.934 45.135 145.114 45.231C145.3 45.327 145.48 45.444 145.654 45.582L145.285 46.284C145.129 46.176 144.976 46.083 144.826 46.005C144.682 45.921 144.532 45.852 144.376 45.798L143.98 47.535L144.313 47.598C144.841 47.694 145.225 47.895 145.465 48.201C145.711 48.501 145.834 48.837 145.834 49.209C145.834 49.773 145.636 50.229 145.24 50.577C144.85 50.919 144.286 51.09 143.548 51.09C143.476 51.09 143.407 51.087 143.341 51.081C143.281 51.075 143.221 51.069 143.161 51.063L142.972 51.9H142.432ZM143.341 50.298C143.377 50.304 143.41 50.307 143.44 50.307C143.476 50.307 143.512 50.307 143.548 50.307C143.986 50.307 144.322 50.22 144.556 50.046C144.79 49.866 144.907 49.617 144.907 49.299C144.907 49.077 144.835 48.891 144.691 48.741C144.547 48.585 144.337 48.483 144.061 48.435L143.782 48.381L143.341 50.298ZM143.458 47.436L143.863 45.69C143.833 45.684 143.803 45.681 143.773 45.681C143.743 45.681 143.71 45.681 143.674 45.681C143.278 45.681 142.978 45.765 142.774 45.933C142.576 46.101 142.477 46.329 142.477 46.617C142.477 46.839 142.546 47.013 142.684 47.139C142.828 47.259 143.035 47.346 143.305 47.4L143.458 47.436ZM148.73 51.09C148.346 51.09 147.995 51.021 147.677 50.883C147.365 50.739 147.095 50.538 146.867 50.28L147.209 49.686C147.443 49.908 147.68 50.073 147.92 50.181C148.16 50.289 148.403 50.343 148.649 50.343C148.967 50.343 149.255 50.271 149.513 50.127C149.777 49.977 149.987 49.743 150.143 49.425C150.305 49.107 150.395 48.693 150.413 48.183C150.263 48.399 150.053 48.57 149.783 48.696C149.519 48.822 149.207 48.885 148.847 48.885C148.397 48.885 148.01 48.801 147.686 48.633C147.368 48.465 147.125 48.234 146.957 47.94C146.789 47.646 146.705 47.307 146.705 46.923C146.705 46.539 146.795 46.194 146.975 45.888C147.155 45.582 147.41 45.342 147.74 45.168C148.076 44.988 148.472 44.898 148.928 44.898C149.426 44.898 149.852 44.997 150.206 45.195C150.566 45.393 150.845 45.693 151.043 46.095C151.241 46.497 151.34 47.01 151.34 47.634C151.34 48.324 151.244 48.93 151.052 49.452C150.86 49.968 150.572 50.37 150.188 50.658C149.804 50.946 149.318 51.09 148.73 51.09ZM149.018 48.183C149.456 48.183 149.798 48.072 150.044 47.85C150.29 47.622 150.413 47.31 150.413 46.914C150.353 46.536 150.212 46.23 149.99 45.996C149.768 45.756 149.444 45.636 149.018 45.636C148.586 45.636 148.244 45.75 147.992 45.978C147.746 46.206 147.623 46.515 147.623 46.905C147.623 47.307 147.746 47.622 147.992 47.85C148.244 48.072 148.586 48.183 149.018 48.183ZM154.663 51.09C154.135 51.09 153.688 50.958 153.322 50.694C152.956 50.424 152.68 50.058 152.494 49.596C152.308 49.128 152.215 48.594 152.215 47.994C152.215 47.394 152.308 46.863 152.494 46.401C152.68 45.933 152.956 45.567 153.322 45.303C153.688 45.033 154.135 44.898 154.663 44.898C155.197 44.898 155.644 45.033 156.004 45.303C156.37 45.567 156.646 45.933 156.832 46.401C157.024 46.863 157.12 47.394 157.12 47.994C157.12 48.594 157.024 49.128 156.832 49.596C156.646 50.058 156.37 50.424 156.004 50.694C155.644 50.958 155.197 51.09 154.663 51.09ZM154.663 50.343C154.963 50.343 155.227 50.259 155.455 50.091C155.689 49.917 155.869 49.656 155.995 49.308C156.127 48.96 156.193 48.522 156.193 47.994C156.193 47.46 156.127 47.019 155.995 46.671C155.869 46.323 155.689 46.065 155.455 45.897C155.227 45.723 154.963 45.636 154.663 45.636C154.369 45.636 154.105 45.723 153.871 45.897C153.643 46.071 153.463 46.332 153.331 46.68C153.199 47.022 153.133 47.46 153.133 47.994C153.133 48.522 153.199 48.96 153.331 49.308C153.463 49.656 153.643 49.917 153.871 50.091C154.105 50.259 154.369 50.343 154.663 50.343Z" fill="#747FA6"/>
<path opacity="0.05" d="M254 58.9971H167L210.5 16.4971L254 58.9971Z" fill="#46956A"/>
<path opacity="0.05" d="M297 59.9971V102L255 59.9971H297Z" fill="#C75E4B"/>
<path opacity="0.05" d="M123 59.9971V102.997L166 59.9971H123Z" fill="#C75E4B"/>
<path d="M298.5 103.497L297.006 97.9203L292.923 102.003L298.5 103.497ZM255.5 60.4971L255.854 60.1435L255.85 60.1396L255.5 60.4971ZM210.5 16.4971L210.85 16.1396L210.5 15.7978L210.15 16.1396L210.5 16.4971ZM165.5 60.4971L165.15 60.1395L165.146 60.1435L165.5 60.4971ZM122.5 103.497L128.077 102.003L123.994 97.9203L122.5 103.497ZM295.672 99.9615L255.854 60.1435L255.146 60.8506L294.964 100.669L295.672 99.9615ZM255.85 60.1396L210.85 16.1396L210.15 16.8546L255.15 60.8546L255.85 60.1396ZM210.15 16.1396L165.15 60.1396L165.85 60.8546L210.85 16.8546L210.15 16.1396ZM165.146 60.1435L125.328 99.9615L126.036 100.669L165.854 60.8506L165.146 60.1435Z" fill="#46956A"/>
<path d="M122.5 103.497L128.077 102.003L123.994 97.9203L122.5 103.497ZM165.146 60.1435L125.328 99.9615L126.036 100.669L165.854 60.8506L165.146 60.1435Z" fill="#C75E4B"/>
<path d="M298.5 103.497L297.006 97.9203L292.923 102.003L298.5 103.497ZM295.672 99.9615L255.854 60.1435L255.146 60.8506L294.964 100.669L295.672 99.9615Z" fill="#C75E4B"/>
<line x1="47.5" y1="15.4971" x2="205.5" y2="15.4971" stroke="#46956A" stroke-linecap="round" stroke-dasharray="2 2"/>
<path d="M105.805 9.99707V3.98507H107.227L109.162 8.88107L111.106 3.98507H112.528V9.99707H111.619V4.87607L109.558 9.99707H108.766L106.705 4.87607V9.99707H105.805ZM115.258 10.0871C114.946 10.0871 114.67 10.0391 114.43 9.94307C114.196 9.84107 114.013 9.69707 113.881 9.51107C113.749 9.31907 113.683 9.08807 113.683 8.81807C113.683 8.54807 113.749 8.32607 113.881 8.15207C114.013 7.97207 114.199 7.83107 114.439 7.72907C114.679 7.62107 114.952 7.54907 115.258 7.51307L116.752 7.33307C116.716 7.01507 116.596 6.78107 116.392 6.63107C116.188 6.48107 115.936 6.40607 115.636 6.40607C115.432 6.40607 115.219 6.44807 114.997 6.53207C114.781 6.61007 114.55 6.73607 114.304 6.91007L113.989 6.27107C114.223 6.08507 114.481 5.94107 114.763 5.83907C115.051 5.73107 115.348 5.67707 115.654 5.67707C116.296 5.67707 116.782 5.82407 117.112 6.11807C117.448 6.40607 117.616 6.84107 117.616 7.42307V9.99707H116.797V9.38507C116.641 9.61907 116.431 9.79607 116.167 9.91607C115.909 10.0301 115.606 10.0871 115.258 10.0871ZM115.456 9.36707C115.738 9.36707 115.975 9.31307 116.167 9.20507C116.365 9.09107 116.512 8.94107 116.608 8.75507C116.71 8.56907 116.761 8.37407 116.761 8.17007V7.98107L115.501 8.14307C115.189 8.18507 114.952 8.25407 114.79 8.35007C114.628 8.44007 114.547 8.58707 114.547 8.79107C114.547 8.97707 114.628 9.12107 114.79 9.22307C114.952 9.31907 115.174 9.36707 115.456 9.36707ZM118.09 9.99707L119.71 7.81007L118.18 5.76707H119.161L120.25 7.28807L121.348 5.76707H122.329L120.799 7.81007L122.419 9.99707H121.438L120.25 8.38607L119.071 9.99707H118.09ZM125.528 9.99707V3.98507H127.922C128.66 3.98507 129.215 4.14107 129.587 4.45307C129.959 4.76507 130.145 5.23907 130.145 5.87507C130.145 6.51107 129.959 6.98507 129.587 7.29707C129.215 7.60307 128.66 7.75607 127.922 7.75607H126.428V9.99707H125.528ZM126.428 7.00007H127.751C128.231 7.00007 128.597 6.91607 128.849 6.74807C129.101 6.58007 129.227 6.28907 129.227 5.87507C129.227 5.45507 129.104 5.16107 128.858 4.99307C128.618 4.82507 128.249 4.74107 127.751 4.74107H126.428V7.00007ZM131.258 9.99707V5.76707H132.077V6.50507C132.185 6.24107 132.341 6.04307 132.545 5.91107C132.755 5.77907 132.989 5.71307 133.247 5.71307C133.331 5.71307 133.406 5.71907 133.472 5.73107C133.544 5.73707 133.601 5.74907 133.643 5.76707V6.56807C133.559 6.55007 133.475 6.53807 133.391 6.53207C133.313 6.52007 133.235 6.51407 133.157 6.51407C132.857 6.51407 132.605 6.64007 132.401 6.89207C132.203 7.13807 132.104 7.49207 132.104 7.95407V9.99707H131.258ZM136.305 10.0871C135.873 10.0871 135.489 9.99707 135.153 9.81707C134.817 9.63107 134.556 9.37307 134.37 9.04307C134.184 8.71307 134.091 8.32607 134.091 7.88207C134.091 7.43807 134.184 7.05107 134.37 6.72107C134.556 6.39107 134.817 6.13607 135.153 5.95607C135.489 5.77007 135.873 5.67707 136.305 5.67707C136.743 5.67707 137.127 5.77007 137.457 5.95607C137.793 6.13607 138.054 6.39107 138.24 6.72107C138.432 7.05107 138.528 7.43807 138.528 7.88207C138.528 8.32607 138.432 8.71307 138.24 9.04307C138.054 9.37307 137.793 9.63107 137.457 9.81707C137.127 9.99707 136.743 10.0871 136.305 10.0871ZM136.305 9.34007C136.575 9.34007 136.812 9.28307 137.016 9.16907C137.22 9.04907 137.376 8.88107 137.484 8.66507C137.598 8.44307 137.655 8.18207 137.655 7.88207C137.655 7.58207 137.598 7.32407 137.484 7.10807C137.376 6.88607 137.22 6.71507 137.016 6.59507C136.812 6.47507 136.575 6.41507 136.305 6.41507C136.035 6.41507 135.798 6.47507 135.594 6.59507C135.396 6.71507 135.24 6.88607 135.126 7.10807C135.012 7.32407 134.955 7.58207 134.955 7.88207C134.955 8.18207 135.012 8.44307 135.126 8.66507C135.24 8.88107 135.396 9.04907 135.594 9.16907C135.798 9.28307 136.035 9.34007 136.305 9.34007ZM140.101 9.99707V6.48707H139.174V5.76707H140.101V5.20907C140.101 4.77107 140.206 4.45007 140.416 4.24607C140.632 4.03607 140.962 3.93107 141.406 3.93107C141.52 3.93107 141.637 3.93707 141.757 3.94907C141.877 3.96107 141.973 3.97907 142.045 4.00307V4.68707C141.991 4.67507 141.916 4.66607 141.82 4.66007C141.73 4.65407 141.649 4.65107 141.577 4.65107C141.361 4.65107 141.202 4.70507 141.1 4.81307C140.998 4.91507 140.947 5.06807 140.947 5.27207V5.76707H142.045V6.48707H140.947V9.99707H140.101ZM142.938 9.99707V5.76707H143.784V9.99707H142.938ZM143.361 4.89407C143.205 4.89407 143.079 4.84907 142.983 4.75907C142.893 4.66907 142.848 4.55207 142.848 4.40807C142.848 4.26407 142.893 4.14707 142.983 4.05707C143.079 3.96707 143.205 3.92207 143.361 3.92207C143.511 3.92207 143.634 3.96707 143.73 4.05707C143.826 4.14707 143.874 4.26407 143.874 4.40807C143.874 4.55207 143.826 4.66907 143.73 4.75907C143.634 4.84907 143.511 4.89407 143.361 4.89407ZM146.908 10.0511C146.464 10.0511 146.134 9.94907 145.918 9.74507C145.708 9.53507 145.603 9.21107 145.603 8.77307V6.48707H144.676V5.76707H145.603V4.56107H146.449V5.76707H147.547V6.48707H146.449V8.70107C146.449 8.91107 146.5 9.06707 146.602 9.16907C146.704 9.27107 146.863 9.32207 147.079 9.32207C147.151 9.32207 147.232 9.31907 147.322 9.31307C147.418 9.30707 147.493 9.29807 147.547 9.28607V9.97007C147.475 9.99407 147.379 10.0121 147.259 10.0241C147.139 10.0421 147.022 10.0511 146.908 10.0511Z" fill="#46956A"/>
<path d="M307.383 103.087C306.603 103.087 305.985 102.88 305.529 102.466C305.079 102.052 304.854 101.413 304.854 100.549V96.9851H305.754V100.549C305.754 100.951 305.817 101.281 305.943 101.539C306.075 101.797 306.261 101.986 306.501 102.106C306.747 102.226 307.041 102.286 307.383 102.286C307.725 102.286 308.016 102.226 308.256 102.106C308.502 101.986 308.688 101.797 308.814 101.539C308.946 101.281 309.012 100.951 309.012 100.549V96.9851H309.921V100.549C309.921 101.413 309.693 102.052 309.237 102.466C308.787 102.88 308.169 103.087 307.383 103.087ZM311.295 102.997V98.7671H312.114V99.3971C312.24 99.1751 312.42 99.0011 312.654 98.8751C312.894 98.7431 313.185 98.6771 313.527 98.6771C314.013 98.6771 314.394 98.8151 314.67 99.0911C314.946 99.3671 315.084 99.7991 315.084 100.387V102.997H314.229V100.495C314.229 100.117 314.151 99.8441 313.995 99.6761C313.845 99.5021 313.614 99.4151 313.302 99.4151C312.936 99.4151 312.651 99.5411 312.447 99.7931C312.243 100.045 312.141 100.39 312.141 100.828V102.997H311.295ZM316.428 102.997V96.9851H317.274V102.997H316.428ZM318.625 102.997V98.7671H319.471V102.997H318.625ZM319.048 97.8941C318.892 97.8941 318.766 97.8491 318.67 97.7591C318.58 97.6691 318.535 97.5521 318.535 97.4081C318.535 97.2641 318.58 97.1471 318.67 97.0571C318.766 96.9671 318.892 96.9221 319.048 96.9221C319.198 96.9221 319.321 96.9671 319.417 97.0571C319.513 97.1471 319.561 97.2641 319.561 97.4081C319.561 97.5521 319.513 97.6691 319.417 97.7591C319.321 97.8491 319.198 97.8941 319.048 97.8941ZM320.822 102.997V98.7671H321.641V99.3251C321.761 99.1211 321.926 98.9621 322.136 98.8481C322.346 98.7341 322.601 98.6771 322.901 98.6771C323.207 98.6771 323.465 98.7431 323.675 98.8751C323.891 99.0011 324.053 99.1781 324.161 99.4061C324.293 99.1661 324.479 98.9861 324.719 98.8661C324.965 98.7401 325.25 98.6771 325.574 98.6771C326.048 98.6771 326.423 98.8151 326.699 99.0911C326.975 99.3671 327.113 99.7991 327.113 100.387V102.997H326.258V100.495C326.258 100.117 326.183 99.8441 326.033 99.6761C325.889 99.5021 325.676 99.4151 325.394 99.4151C325.064 99.4151 324.812 99.5411 324.638 99.7931C324.47 100.045 324.386 100.39 324.386 100.828V102.997H323.531V100.495C323.531 100.117 323.456 99.8441 323.306 99.6761C323.162 99.5021 322.952 99.4151 322.676 99.4151C322.346 99.4151 322.094 99.5411 321.92 99.7931C321.752 100.045 321.668 100.39 321.668 100.828V102.997H320.822ZM328.451 102.997V98.7671H329.297V102.997H328.451ZM328.874 97.8941C328.718 97.8941 328.592 97.8491 328.496 97.7591C328.406 97.6691 328.361 97.5521 328.361 97.4081C328.361 97.2641 328.406 97.1471 328.496 97.0571C328.592 96.9671 328.718 96.9221 328.874 96.9221C329.024 96.9221 329.147 96.9671 329.243 97.0571C329.339 97.1471 329.387 97.2641 329.387 97.4081C329.387 97.5521 329.339 97.6691 329.243 97.7591C329.147 97.8491 329.024 97.8941 328.874 97.8941ZM332.422 103.051C331.978 103.051 331.648 102.949 331.432 102.745C331.222 102.535 331.117 102.211 331.117 101.773V99.4871H330.19V98.7671H331.117V97.5611H331.963V98.7671H333.061V99.4871H331.963V101.701C331.963 101.911 332.014 102.067 332.116 102.169C332.218 102.271 332.377 102.322 332.593 102.322C332.665 102.322 332.746 102.319 332.836 102.313C332.932 102.307 333.007 102.298 333.061 102.286V102.97C332.989 102.994 332.893 103.012 332.773 103.024C332.653 103.042 332.536 103.051 332.422 103.051ZM336.11 103.087C335.684 103.087 335.3 103.003 334.958 102.835C334.622 102.661 334.355 102.412 334.157 102.088C333.959 101.758 333.86 101.356 333.86 100.882C333.86 100.432 333.953 100.042 334.139 99.7121C334.331 99.3821 334.586 99.1271 334.904 98.9471C335.228 98.7671 335.588 98.6771 335.984 98.6771C336.404 98.6771 336.764 98.7581 337.064 98.9201C337.37 99.0761 337.607 99.2921 337.775 99.5681C337.943 99.8441 338.027 100.156 338.027 100.504C338.027 100.606 338.012 100.717 337.982 100.837C337.958 100.957 337.922 101.053 337.874 101.125H334.724C334.754 101.389 334.832 101.614 334.958 101.8C335.084 101.986 335.252 102.127 335.462 102.223C335.672 102.313 335.915 102.358 336.191 102.358C336.467 102.358 336.71 102.316 336.92 102.232C337.136 102.148 337.343 102.028 337.541 101.872L337.847 102.502C337.613 102.694 337.349 102.841 337.055 102.943C336.767 103.039 336.452 103.087 336.11 103.087ZM334.724 100.468H337.145C337.151 100.456 337.154 100.444 337.154 100.432C337.154 100.414 337.154 100.396 337.154 100.378C337.154 100.18 337.112 100.009 337.028 99.8651C336.944 99.7151 336.818 99.5981 336.65 99.5141C336.482 99.4301 336.269 99.3881 336.011 99.3881C335.807 99.3881 335.615 99.4331 335.435 99.5231C335.261 99.6071 335.111 99.7301 334.985 99.8921C334.865 100.048 334.778 100.24 334.724 100.468ZM340.921 103.087C340.537 103.087 340.192 102.997 339.886 102.817C339.58 102.637 339.337 102.382 339.157 102.052C338.983 101.722 338.896 101.332 338.896 100.882C338.896 100.426 338.983 100.033 339.157 99.7031C339.337 99.3731 339.58 99.1211 339.886 98.9471C340.192 98.7671 340.537 98.6771 340.921 98.6771C341.257 98.6771 341.551 98.7431 341.803 98.8751C342.055 99.0011 342.25 99.1691 342.388 99.3791V96.9851H343.243V102.997H342.424V102.322C342.292 102.55 342.097 102.736 341.839 102.88C341.581 103.018 341.275 103.087 340.921 103.087ZM341.101 102.34C341.359 102.34 341.587 102.283 341.785 102.169C341.983 102.049 342.139 101.881 342.253 101.665C342.367 101.443 342.424 101.182 342.424 100.882C342.424 100.582 342.367 100.324 342.253 100.108C342.139 99.8861 341.983 99.7151 341.785 99.5951C341.587 99.4751 341.359 99.4151 341.101 99.4151C340.843 99.4151 340.612 99.4751 340.408 99.5951C340.21 99.7151 340.054 99.8861 339.94 100.108C339.826 100.324 339.769 100.582 339.769 100.882C339.769 101.182 339.826 101.443 339.94 101.665C340.054 101.881 340.21 102.049 340.408 102.169C340.606 102.283 340.837 102.34 341.101 102.34ZM346.795 102.997V96.9851H347.695V102.196H350.512V102.997H346.795ZM353.38 103.087C352.948 103.087 352.564 102.997 352.228 102.817C351.892 102.631 351.631 102.373 351.445 102.043C351.259 101.713 351.166 101.326 351.166 100.882C351.166 100.438 351.259 100.051 351.445 99.7211C351.631 99.3911 351.892 99.1361 352.228 98.9561C352.564 98.7701 352.948 98.6771 353.38 98.6771C353.818 98.6771 354.202 98.7701 354.532 98.9561C354.868 99.1361 355.129 99.3911 355.315 99.7211C355.507 100.051 355.603 100.438 355.603 100.882C355.603 101.326 355.507 101.713 355.315 102.043C355.129 102.373 354.868 102.631 354.532 102.817C354.202 102.997 353.818 103.087 353.38 103.087ZM353.38 102.34C353.65 102.34 353.887 102.283 354.091 102.169C354.295 102.049 354.451 101.881 354.559 101.665C354.673 101.443 354.73 101.182 354.73 100.882C354.73 100.582 354.673 100.324 354.559 100.108C354.451 99.8861 354.295 99.7151 354.091 99.5951C353.887 99.4751 353.65 99.4151 353.38 99.4151C353.11 99.4151 352.873 99.4751 352.669 99.5951C352.471 99.7151 352.315 99.8861 352.201 100.108C352.087 100.324 352.03 100.582 352.03 100.882C352.03 101.182 352.087 101.443 352.201 101.665C352.315 101.881 352.471 102.049 352.669 102.169C352.873 102.283 353.11 102.34 353.38 102.34ZM358.202 103.087C357.878 103.087 357.575 103.039 357.293 102.943C357.011 102.841 356.738 102.697 356.474 102.511L356.825 101.845C357.089 102.019 357.332 102.151 357.554 102.241C357.782 102.331 358.004 102.376 358.22 102.376C358.526 102.376 358.754 102.331 358.904 102.241C359.06 102.145 359.138 102.004 359.138 101.818C359.138 101.662 359.09 101.548 358.994 101.476C358.904 101.398 358.742 101.338 358.508 101.296L357.788 101.161C357.398 101.089 357.104 100.96 356.906 100.774C356.708 100.582 356.609 100.336 356.609 100.036C356.609 99.7901 356.669 99.5651 356.789 99.3611C356.915 99.1511 357.101 98.9861 357.347 98.8661C357.593 98.7401 357.902 98.6771 358.274 98.6771C358.58 98.6771 358.868 98.7221 359.138 98.8121C359.414 98.9021 359.66 99.0251 359.876 99.1811L359.534 99.8201C359.348 99.6941 359.15 99.5921 358.94 99.5141C358.736 99.4301 358.526 99.3881 358.31 99.3881C358.052 99.3881 357.848 99.4331 357.698 99.5231C357.548 99.6071 357.473 99.7451 357.473 99.9371C357.473 100.057 357.518 100.153 357.608 100.225C357.698 100.297 357.851 100.351 358.067 100.387L358.778 100.522C359.174 100.6 359.477 100.732 359.687 100.918C359.903 101.104 360.011 101.374 360.011 101.728C360.011 102.124 359.858 102.451 359.552 102.709C359.246 102.961 358.796 103.087 358.202 103.087ZM362.614 103.087C362.29 103.087 361.987 103.039 361.705 102.943C361.423 102.841 361.15 102.697 360.886 102.511L361.237 101.845C361.501 102.019 361.744 102.151 361.966 102.241C362.194 102.331 362.416 102.376 362.632 102.376C362.938 102.376 363.166 102.331 363.316 102.241C363.472 102.145 363.55 102.004 363.55 101.818C363.55 101.662 363.502 101.548 363.406 101.476C363.316 101.398 363.154 101.338 362.92 101.296L362.2 101.161C361.81 101.089 361.516 100.96 361.318 100.774C361.12 100.582 361.021 100.336 361.021 100.036C361.021 99.7901 361.081 99.5651 361.201 99.3611C361.327 99.1511 361.513 98.9861 361.759 98.8661C362.005 98.7401 362.314 98.6771 362.686 98.6771C362.992 98.6771 363.28 98.7221 363.55 98.8121C363.826 98.9021 364.072 99.0251 364.288 99.1811L363.946 99.8201C363.76 99.6941 363.562 99.5921 363.352 99.5141C363.148 99.4301 362.938 99.3881 362.722 99.3881C362.464 99.3881 362.26 99.4331 362.11 99.5231C361.96 99.6071 361.885 99.7451 361.885 99.9371C361.885 100.057 361.93 100.153 362.02 100.225C362.11 100.297 362.263 100.351 362.479 100.387L363.19 100.522C363.586 100.6 363.889 100.732 364.099 100.918C364.315 101.104 364.423 101.374 364.423 101.728C364.423 102.124 364.27 102.451 363.964 102.709C363.658 102.961 363.208 103.087 362.614 103.087Z" fill="#C75E4B"/>
</svg>
