<svg xmlns="http://www.w3.org/2000/svg" width="21" height="21" fill="none"><g clip-path="url(#a)"><path d="M14.333 13.8c-.614 0-1.11.491-1.11 1.1 0 .608.496 1.1 1.11 1.1h5.556c.614 0 1.111-.492 1.111-1.1V9.4c0-.609-.497-1.1-1.111-1.1-.615 0-1.111.491-1.111 1.1v2.842l-5.882-5.82a1.116 1.116 0 0 0-1.57 0l-3.69 3.62-4.74-4.72a1.119 1.119 0 0 0-1.57 0 1.09 1.09 0 0 0 0 1.554l5.556 5.5c.434.43 1.135.43 1.57 0l3.66-3.62 5.093 5.075-2.872-.031Z" fill="#6988FF"/></g><defs><clipPath id="a"><path fill="#fff" transform="translate(.5 .5)" d="M0 0h20v20H0z"/></clipPath></defs></svg>