<svg width="381" height="118" viewBox="0 0 381 118" fill="none" xmlns="http://www.w3.org/2000/svg">
<path opacity="0.05" d="M210 15.5L162 60H311V15.5H210Z" fill="#46956A"/>
<path opacity="0.05" d="M108 61V109L161.281 61H108Z" fill="#C75E4B"/>
<line x1="33.5" y1="3" x2="33.5" y2="118" stroke="#20224E"/>
<line x1="29" y1="109.5" x2="38" y2="109.5" stroke="#20224E"/>
<line x1="29" y1="15.5" x2="38" y2="15.5" stroke="#20224E"/>
<line x1="381" y1="60.5" x2="33" y2="60.5" stroke="#20224E"/>
<path d="M0.727621 109.768V109.084H3.16662V109.768H0.727621ZM5.0941 112.9L5.3011 111.982C5.0791 111.916 4.8631 111.826 4.6531 111.712C4.4491 111.598 4.2451 111.454 4.0411 111.28L4.4011 110.569C4.5931 110.725 4.7791 110.854 4.9591 110.956C5.1391 111.052 5.3161 111.13 5.4901 111.19L5.9221 109.282L5.7331 109.246C5.1991 109.144 4.8121 108.961 4.5721 108.697C4.3381 108.433 4.2211 108.112 4.2211 107.734C4.2211 107.398 4.2961 107.092 4.4461 106.816C4.5961 106.54 4.8271 106.318 5.1391 106.15C5.4511 105.982 5.8441 105.898 6.3181 105.898C6.3841 105.898 6.4471 105.901 6.5071 105.907C6.5731 105.907 6.6391 105.91 6.7051 105.916L6.8941 105.088H7.4341L7.2181 106.015C7.4101 106.063 7.5961 106.135 7.7761 106.231C7.9621 106.327 8.1421 106.444 8.3161 106.582L7.9471 107.284C7.7911 107.176 7.6381 107.083 7.4881 107.005C7.3441 106.921 7.1941 106.852 7.0381 106.798L6.6421 108.535L6.9751 108.598C7.5031 108.694 7.8871 108.895 8.1271 109.201C8.3731 109.501 8.4961 109.837 8.4961 110.209C8.4961 110.773 8.2981 111.229 7.9021 111.577C7.5121 111.919 6.9481 112.09 6.2101 112.09C6.1381 112.09 6.0691 112.087 6.0031 112.081C5.9431 112.075 5.8831 112.069 5.8231 112.063L5.6341 112.9H5.0941ZM6.0031 111.298C6.0391 111.304 6.0721 111.307 6.1021 111.307C6.1381 111.307 6.1741 111.307 6.2101 111.307C6.6481 111.307 6.9841 111.22 7.2181 111.046C7.4521 110.866 7.5691 110.617 7.5691 110.299C7.5691 110.077 7.4971 109.891 7.3531 109.741C7.2091 109.585 6.9991 109.483 6.7231 109.435L6.4441 109.381L6.0031 111.298ZM6.1201 108.436L6.5251 106.69C6.4951 106.684 6.4651 106.681 6.4351 106.681C6.4051 106.681 6.3721 106.681 6.3361 106.681C5.9401 106.681 5.6401 106.765 5.4361 106.933C5.2381 107.101 5.1391 107.329 5.1391 107.617C5.1391 107.839 5.2081 108.013 5.3461 108.139C5.4901 108.259 5.6971 108.346 5.9671 108.4L6.1201 108.436ZM11.5003 112.09C11.1823 112.09 10.8973 112.06 10.6453 112C10.3993 111.946 10.1743 111.859 9.97027 111.739C9.76627 111.613 9.56527 111.46 9.36727 111.28L9.71827 110.641C10.0183 110.893 10.3033 111.073 10.5733 111.181C10.8493 111.289 11.1283 111.343 11.4103 111.343C11.8483 111.343 12.1903 111.232 12.4363 111.01C12.6823 110.782 12.8053 110.47 12.8053 110.074C12.8053 109.678 12.6823 109.369 12.4363 109.147C12.1903 108.919 11.8483 108.805 11.4103 108.805C11.1163 108.805 10.8673 108.865 10.6633 108.985C10.4653 109.099 10.3273 109.267 10.2493 109.489L9.47527 109.345L10.0873 105.898H13.2823V106.636H10.7713L10.4383 108.445C10.5823 108.331 10.7533 108.247 10.9513 108.193C11.1493 108.133 11.3593 108.103 11.5813 108.103C12.0373 108.103 12.4243 108.187 12.7423 108.355C13.0603 108.517 13.3033 108.745 13.4713 109.039C13.6453 109.333 13.7323 109.672 13.7323 110.056C13.7323 110.44 13.6423 110.785 13.4623 111.091C13.2823 111.397 13.0243 111.64 12.6883 111.82C12.3583 112 11.9623 112.09 11.5003 112.09ZM17.0536 112.09C16.5256 112.09 16.0786 111.958 15.7126 111.694C15.3466 111.424 15.0706 111.058 14.8846 110.596C14.6986 110.128 14.6056 109.594 14.6056 108.994C14.6056 108.394 14.6986 107.863 14.8846 107.401C15.0706 106.933 15.3466 106.567 15.7126 106.303C16.0786 106.033 16.5256 105.898 17.0536 105.898C17.5876 105.898 18.0346 106.033 18.3946 106.303C18.7606 106.567 19.0366 106.933 19.2226 107.401C19.4146 107.863 19.5106 108.394 19.5106 108.994C19.5106 109.594 19.4146 110.128 19.2226 110.596C19.0366 111.058 18.7606 111.424 18.3946 111.694C18.0346 111.958 17.5876 112.09 17.0536 112.09ZM17.0536 111.343C17.3536 111.343 17.6176 111.259 17.8456 111.091C18.0796 110.917 18.2596 110.656 18.3856 110.308C18.5176 109.96 18.5836 109.522 18.5836 108.994C18.5836 108.46 18.5176 108.019 18.3856 107.671C18.2596 107.323 18.0796 107.065 17.8456 106.897C17.6176 106.723 17.3536 106.636 17.0536 106.636C16.7596 106.636 16.4956 106.723 16.2616 106.897C16.0336 107.071 15.8536 107.332 15.7216 107.68C15.5896 108.022 15.5236 108.46 15.5236 108.994C15.5236 109.522 15.5896 109.96 15.7216 110.308C15.8536 110.656 16.0336 110.917 16.2616 111.091C16.4956 111.259 16.7596 111.343 17.0536 111.343ZM22.828 112.09C22.3 112.09 21.853 111.958 21.487 111.694C21.121 111.424 20.845 111.058 20.659 110.596C20.473 110.128 20.38 109.594 20.38 108.994C20.38 108.394 20.473 107.863 20.659 107.401C20.845 106.933 21.121 106.567 21.487 106.303C21.853 106.033 22.3 105.898 22.828 105.898C23.362 105.898 23.809 106.033 24.169 106.303C24.535 106.567 24.811 106.933 24.997 107.401C25.189 107.863 25.285 108.394 25.285 108.994C25.285 109.594 25.189 110.128 24.997 110.596C24.811 111.058 24.535 111.424 24.169 111.694C23.809 111.958 23.362 112.09 22.828 112.09ZM22.828 111.343C23.128 111.343 23.392 111.259 23.62 111.091C23.854 110.917 24.034 110.656 24.16 110.308C24.292 109.96 24.358 109.522 24.358 108.994C24.358 108.46 24.292 108.019 24.16 107.671C24.034 107.323 23.854 107.065 23.62 106.897C23.392 106.723 23.128 106.636 22.828 106.636C22.534 106.636 22.27 106.723 22.036 106.897C21.808 107.071 21.628 107.332 21.496 107.68C21.364 108.022 21.298 108.46 21.298 108.994C21.298 109.522 21.364 109.96 21.496 110.308C21.628 110.656 21.808 110.917 22.036 111.091C22.27 111.259 22.534 111.343 22.828 111.343Z" fill="#747FA6"/>
<path d="M4.93736 19.9L5.14436 18.982C4.92236 18.916 4.70636 18.826 4.49636 18.712C4.29236 18.598 4.08836 18.454 3.88436 18.28L4.24436 17.569C4.43636 17.725 4.62236 17.854 4.80236 17.956C4.98236 18.052 5.15936 18.13 5.33336 18.19L5.76536 16.282L5.57636 16.246C5.04236 16.144 4.65536 15.961 4.41536 15.697C4.18136 15.433 4.06436 15.112 4.06436 14.734C4.06436 14.398 4.13936 14.092 4.28936 13.816C4.43936 13.54 4.67036 13.318 4.98236 13.15C5.29436 12.982 5.68736 12.898 6.16136 12.898C6.22736 12.898 6.29036 12.901 6.35036 12.907C6.41636 12.907 6.48236 12.91 6.54836 12.916L6.73736 12.088H7.27736L7.06136 13.015C7.25336 13.063 7.43936 13.135 7.61936 13.231C7.80536 13.327 7.98536 13.444 8.15936 13.582L7.79036 14.284C7.63436 14.176 7.48136 14.083 7.33136 14.005C7.18736 13.921 7.03736 13.852 6.88136 13.798L6.48536 15.535L6.81836 15.598C7.34636 15.694 7.73036 15.895 7.97036 16.201C8.21636 16.501 8.33936 16.837 8.33936 17.209C8.33936 17.773 8.14136 18.229 7.74536 18.577C7.35536 18.919 6.79136 19.09 6.05336 19.09C5.98136 19.09 5.91236 19.087 5.84636 19.081C5.78636 19.075 5.72636 19.069 5.66636 19.063L5.47736 19.9H4.93736ZM5.84636 18.298C5.88236 18.304 5.91536 18.307 5.94536 18.307C5.98136 18.307 6.01736 18.307 6.05336 18.307C6.49136 18.307 6.82736 18.22 7.06136 18.046C7.29536 17.866 7.41236 17.617 7.41236 17.299C7.41236 17.077 7.34036 16.891 7.19636 16.741C7.05236 16.585 6.84236 16.483 6.56636 16.435L6.28736 16.381L5.84636 18.298ZM5.96336 15.436L6.36836 13.69C6.33836 13.684 6.30836 13.681 6.27836 13.681C6.24836 13.681 6.21536 13.681 6.17936 13.681C5.78336 13.681 5.48336 13.765 5.27936 13.933C5.08136 14.101 4.98236 14.329 4.98236 14.617C4.98236 14.839 5.05136 15.013 5.18936 15.139C5.33336 15.259 5.54036 15.346 5.81036 15.4L5.96336 15.436ZM11.3435 19.09C11.0255 19.09 10.7405 19.06 10.4885 19C10.2425 18.946 10.0175 18.859 9.81353 18.739C9.60953 18.613 9.40853 18.46 9.21053 18.28L9.56153 17.641C9.86153 17.893 10.1465 18.073 10.4165 18.181C10.6925 18.289 10.9715 18.343 11.2535 18.343C11.6915 18.343 12.0335 18.232 12.2795 18.01C12.5255 17.782 12.6485 17.47 12.6485 17.074C12.6485 16.678 12.5255 16.369 12.2795 16.147C12.0335 15.919 11.6915 15.805 11.2535 15.805C10.9595 15.805 10.7105 15.865 10.5065 15.985C10.3085 16.099 10.1705 16.267 10.0925 16.489L9.31853 16.345L9.93053 12.898H13.1255V13.636H10.6145L10.2815 15.445C10.4255 15.331 10.5965 15.247 10.7945 15.193C10.9925 15.133 11.2025 15.103 11.4245 15.103C11.8805 15.103 12.2675 15.187 12.5855 15.355C12.9035 15.517 13.1465 15.745 13.3145 16.039C13.4885 16.333 13.5755 16.672 13.5755 17.056C13.5755 17.44 13.4855 17.785 13.3055 18.091C13.1255 18.397 12.8675 18.64 12.5315 18.82C12.2015 19 11.8055 19.09 11.3435 19.09ZM16.8968 19.09C16.3688 19.09 15.9218 18.958 15.5558 18.694C15.1898 18.424 14.9138 18.058 14.7278 17.596C14.5418 17.128 14.4488 16.594 14.4488 15.994C14.4488 15.394 14.5418 14.863 14.7278 14.401C14.9138 13.933 15.1898 13.567 15.5558 13.303C15.9218 13.033 16.3688 12.898 16.8968 12.898C17.4308 12.898 17.8778 13.033 18.2378 13.303C18.6038 13.567 18.8798 13.933 19.0658 14.401C19.2578 14.863 19.3538 15.394 19.3538 15.994C19.3538 16.594 19.2578 17.128 19.0658 17.596C18.8798 18.058 18.6038 18.424 18.2378 18.694C17.8778 18.958 17.4308 19.09 16.8968 19.09ZM16.8968 18.343C17.1968 18.343 17.4608 18.259 17.6888 18.091C17.9228 17.917 18.1028 17.656 18.2288 17.308C18.3608 16.96 18.4268 16.522 18.4268 15.994C18.4268 15.46 18.3608 15.019 18.2288 14.671C18.1028 14.323 17.9228 14.065 17.6888 13.897C17.4608 13.723 17.1968 13.636 16.8968 13.636C16.6028 13.636 16.3388 13.723 16.1048 13.897C15.8768 14.071 15.6968 14.332 15.5648 14.68C15.4328 15.022 15.3668 15.46 15.3668 15.994C15.3668 16.522 15.4328 16.96 15.5648 17.308C15.6968 17.656 15.8768 17.917 16.1048 18.091C16.3388 18.259 16.6028 18.343 16.8968 18.343ZM22.6712 19.09C22.1432 19.09 21.6962 18.958 21.3302 18.694C20.9642 18.424 20.6882 18.058 20.5022 17.596C20.3162 17.128 20.2232 16.594 20.2232 15.994C20.2232 15.394 20.3162 14.863 20.5022 14.401C20.6882 13.933 20.9642 13.567 21.3302 13.303C21.6962 13.033 22.1432 12.898 22.6712 12.898C23.2052 12.898 23.6522 13.033 24.0122 13.303C24.3782 13.567 24.6542 13.933 24.8402 14.401C25.0322 14.863 25.1282 15.394 25.1282 15.994C25.1282 16.594 25.0322 17.128 24.8402 17.596C24.6542 18.058 24.3782 18.424 24.0122 18.694C23.6522 18.958 23.2052 19.09 22.6712 19.09ZM22.6712 18.343C22.9712 18.343 23.2352 18.259 23.4632 18.091C23.6972 17.917 23.8772 17.656 24.0032 17.308C24.1352 16.96 24.2012 16.522 24.2012 15.994C24.2012 15.46 24.1352 15.019 24.0032 14.671C23.8772 14.323 23.6972 14.065 23.4632 13.897C23.2352 13.723 22.9712 13.636 22.6712 13.636C22.3772 13.636 22.1132 13.723 21.8792 13.897C21.6512 14.071 21.4712 14.332 21.3392 14.68C21.2072 15.022 21.1412 15.46 21.1412 15.994C21.1412 16.522 21.2072 16.96 21.3392 17.308C21.4712 17.656 21.6512 17.917 21.8792 18.091C22.1132 18.259 22.3772 18.343 22.6712 18.343Z" fill="#747FA6"/>
<line x1="107.5" y1="56" x2="107.5" y2="65" stroke="#20224E"/>
<path d="M100.688 76.9L100.895 75.982C100.673 75.916 100.457 75.826 100.247 75.712C100.043 75.598 99.8393 75.454 99.6353 75.28L99.9953 74.569C100.187 74.725 100.373 74.854 100.553 74.956C100.733 75.052 100.91 75.13 101.084 75.19L101.516 73.282L101.327 73.246C100.793 73.144 100.406 72.961 100.166 72.697C99.9323 72.433 99.8153 72.112 99.8153 71.734C99.8153 71.398 99.8903 71.092 100.04 70.816C100.19 70.54 100.421 70.318 100.733 70.15C101.045 69.982 101.438 69.898 101.912 69.898C101.978 69.898 102.041 69.901 102.101 69.907C102.167 69.907 102.233 69.91 102.299 69.916L102.488 69.088H103.028L102.812 70.015C103.004 70.063 103.19 70.135 103.37 70.231C103.556 70.327 103.736 70.444 103.91 70.582L103.541 71.284C103.385 71.176 103.232 71.083 103.082 71.005C102.938 70.921 102.788 70.852 102.632 70.798L102.236 72.535L102.569 72.598C103.097 72.694 103.481 72.895 103.721 73.201C103.967 73.501 104.09 73.837 104.09 74.209C104.09 74.773 103.892 75.229 103.496 75.577C103.106 75.919 102.542 76.09 101.804 76.09C101.732 76.09 101.663 76.087 101.597 76.081C101.537 76.075 101.477 76.069 101.417 76.063L101.228 76.9H100.688ZM101.597 75.298C101.633 75.304 101.666 75.307 101.696 75.307C101.732 75.307 101.768 75.307 101.804 75.307C102.242 75.307 102.578 75.22 102.812 75.046C103.046 74.866 103.163 74.617 103.163 74.299C103.163 74.077 103.091 73.891 102.947 73.741C102.803 73.585 102.593 73.483 102.317 73.435L102.038 73.381L101.597 75.298ZM101.714 72.436L102.119 70.69C102.089 70.684 102.059 70.681 102.029 70.681C101.999 70.681 101.966 70.681 101.93 70.681C101.534 70.681 101.234 70.765 101.03 70.933C100.832 71.101 100.733 71.329 100.733 71.617C100.733 71.839 100.802 72.013 100.94 72.139C101.084 72.259 101.291 72.346 101.561 72.4L101.714 72.436ZM106.987 76.09C106.603 76.09 106.252 76.021 105.934 75.883C105.622 75.739 105.352 75.538 105.124 75.28L105.466 74.686C105.7 74.908 105.937 75.073 106.177 75.181C106.417 75.289 106.66 75.343 106.906 75.343C107.224 75.343 107.512 75.271 107.77 75.127C108.034 74.977 108.244 74.743 108.4 74.425C108.562 74.107 108.652 73.693 108.67 73.183C108.52 73.399 108.31 73.57 108.04 73.696C107.776 73.822 107.464 73.885 107.104 73.885C106.654 73.885 106.267 73.801 105.943 73.633C105.625 73.465 105.382 73.234 105.214 72.94C105.046 72.646 104.962 72.307 104.962 71.923C104.962 71.539 105.052 71.194 105.232 70.888C105.412 70.582 105.667 70.342 105.997 70.168C106.333 69.988 106.729 69.898 107.185 69.898C107.683 69.898 108.109 69.997 108.463 70.195C108.823 70.393 109.102 70.693 109.3 71.095C109.498 71.497 109.597 72.01 109.597 72.634C109.597 73.324 109.501 73.93 109.309 74.452C109.117 74.968 108.829 75.37 108.445 75.658C108.061 75.946 107.575 76.09 106.987 76.09ZM107.275 73.183C107.713 73.183 108.055 73.072 108.301 72.85C108.547 72.622 108.67 72.31 108.67 71.914C108.61 71.536 108.469 71.23 108.247 70.996C108.025 70.756 107.701 70.636 107.275 70.636C106.843 70.636 106.501 70.75 106.249 70.978C106.003 71.206 105.88 71.515 105.88 71.905C105.88 72.307 106.003 72.622 106.249 72.85C106.501 73.072 106.843 73.183 107.275 73.183ZM112.92 76.09C112.392 76.09 111.945 75.958 111.579 75.694C111.213 75.424 110.937 75.058 110.751 74.596C110.565 74.128 110.472 73.594 110.472 72.994C110.472 72.394 110.565 71.863 110.751 71.401C110.937 70.933 111.213 70.567 111.579 70.303C111.945 70.033 112.392 69.898 112.92 69.898C113.454 69.898 113.901 70.033 114.261 70.303C114.627 70.567 114.903 70.933 115.089 71.401C115.281 71.863 115.377 72.394 115.377 72.994C115.377 73.594 115.281 74.128 115.089 74.596C114.903 75.058 114.627 75.424 114.261 75.694C113.901 75.958 113.454 76.09 112.92 76.09ZM112.92 75.343C113.22 75.343 113.484 75.259 113.712 75.091C113.946 74.917 114.126 74.656 114.252 74.308C114.384 73.96 114.45 73.522 114.45 72.994C114.45 72.46 114.384 72.019 114.252 71.671C114.126 71.323 113.946 71.065 113.712 70.897C113.484 70.723 113.22 70.636 112.92 70.636C112.626 70.636 112.362 70.723 112.128 70.897C111.9 71.071 111.72 71.332 111.588 71.68C111.456 72.022 111.39 72.46 111.39 72.994C111.39 73.522 111.456 73.96 111.588 74.308C111.72 74.656 111.9 74.917 112.128 75.091C112.362 75.259 112.626 75.343 112.92 75.343Z" fill="#747FA6"/>
<line x1="209.5" y1="56" x2="209.5" y2="65" stroke="#20224E"/>
<path d="M199.799 76.9L200.006 75.982C199.784 75.916 199.568 75.826 199.358 75.712C199.154 75.598 198.95 75.454 198.746 75.28L199.106 74.569C199.298 74.725 199.484 74.854 199.664 74.956C199.844 75.052 200.021 75.13 200.195 75.19L200.627 73.282L200.438 73.246C199.904 73.144 199.517 72.961 199.277 72.697C199.043 72.433 198.926 72.112 198.926 71.734C198.926 71.398 199.001 71.092 199.151 70.816C199.301 70.54 199.532 70.318 199.844 70.15C200.156 69.982 200.549 69.898 201.023 69.898C201.089 69.898 201.152 69.901 201.212 69.907C201.278 69.907 201.344 69.91 201.41 69.916L201.599 69.088H202.139L201.923 70.015C202.115 70.063 202.301 70.135 202.481 70.231C202.667 70.327 202.847 70.444 203.021 70.582L202.652 71.284C202.496 71.176 202.343 71.083 202.193 71.005C202.049 70.921 201.899 70.852 201.743 70.798L201.347 72.535L201.68 72.598C202.208 72.694 202.592 72.895 202.832 73.201C203.078 73.501 203.201 73.837 203.201 74.209C203.201 74.773 203.003 75.229 202.607 75.577C202.217 75.919 201.653 76.09 200.915 76.09C200.843 76.09 200.774 76.087 200.708 76.081C200.648 76.075 200.588 76.069 200.528 76.063L200.339 76.9H199.799ZM200.708 75.298C200.744 75.304 200.777 75.307 200.807 75.307C200.843 75.307 200.879 75.307 200.915 75.307C201.353 75.307 201.689 75.22 201.923 75.046C202.157 74.866 202.274 74.617 202.274 74.299C202.274 74.077 202.202 73.891 202.058 73.741C201.914 73.585 201.704 73.483 201.428 73.435L201.149 73.381L200.708 75.298ZM200.825 72.436L201.23 70.69C201.2 70.684 201.17 70.681 201.14 70.681C201.11 70.681 201.077 70.681 201.041 70.681C200.645 70.681 200.345 70.765 200.141 70.933C199.943 71.101 199.844 71.329 199.844 71.617C199.844 71.839 199.913 72.013 200.051 72.139C200.195 72.259 200.402 72.346 200.672 72.4L200.825 72.436ZM205.539 76V70.96L204.243 71.671L203.892 70.978L205.773 69.988H206.439V76H205.539ZM210.035 76.09C209.507 76.09 209.06 75.958 208.694 75.694C208.328 75.424 208.052 75.058 207.866 74.596C207.68 74.128 207.587 73.594 207.587 72.994C207.587 72.394 207.68 71.863 207.866 71.401C208.052 70.933 208.328 70.567 208.694 70.303C209.06 70.033 209.507 69.898 210.035 69.898C210.569 69.898 211.016 70.033 211.376 70.303C211.742 70.567 212.018 70.933 212.204 71.401C212.396 71.863 212.492 72.394 212.492 72.994C212.492 73.594 212.396 74.128 212.204 74.596C212.018 75.058 211.742 75.424 211.376 75.694C211.016 75.958 210.569 76.09 210.035 76.09ZM210.035 75.343C210.335 75.343 210.599 75.259 210.827 75.091C211.061 74.917 211.241 74.656 211.367 74.308C211.499 73.96 211.565 73.522 211.565 72.994C211.565 72.46 211.499 72.019 211.367 71.671C211.241 71.323 211.061 71.065 210.827 70.897C210.599 70.723 210.335 70.636 210.035 70.636C209.741 70.636 209.477 70.723 209.243 70.897C209.015 71.071 208.835 71.332 208.703 71.68C208.571 72.022 208.505 72.46 208.505 72.994C208.505 73.522 208.571 73.96 208.703 74.308C208.835 74.656 209.015 74.917 209.243 75.091C209.477 75.259 209.741 75.343 210.035 75.343ZM215.81 76.09C215.282 76.09 214.835 75.958 214.469 75.694C214.103 75.424 213.827 75.058 213.641 74.596C213.455 74.128 213.362 73.594 213.362 72.994C213.362 72.394 213.455 71.863 213.641 71.401C213.827 70.933 214.103 70.567 214.469 70.303C214.835 70.033 215.282 69.898 215.81 69.898C216.344 69.898 216.791 70.033 217.151 70.303C217.517 70.567 217.793 70.933 217.979 71.401C218.171 71.863 218.267 72.394 218.267 72.994C218.267 73.594 218.171 74.128 217.979 74.596C217.793 75.058 217.517 75.424 217.151 75.694C216.791 75.958 216.344 76.09 215.81 76.09ZM215.81 75.343C216.11 75.343 216.374 75.259 216.602 75.091C216.836 74.917 217.016 74.656 217.142 74.308C217.274 73.96 217.34 73.522 217.34 72.994C217.34 72.46 217.274 72.019 217.142 71.671C217.016 71.323 216.836 71.065 216.602 70.897C216.374 70.723 216.11 70.636 215.81 70.636C215.516 70.636 215.252 70.723 215.018 70.897C214.79 71.071 214.61 71.332 214.478 71.68C214.346 72.022 214.28 72.46 214.28 72.994C214.28 73.522 214.346 73.96 214.478 74.308C214.61 74.656 214.79 74.917 215.018 75.091C215.252 75.259 215.516 75.343 215.81 75.343Z" fill="#747FA6"/>
<line x1="311.5" y1="56" x2="311.5" y2="65" stroke="#20224E"/>
<path d="M302.928 76.9L303.135 75.982C302.913 75.916 302.697 75.826 302.487 75.712C302.283 75.598 302.079 75.454 301.875 75.28L302.235 74.569C302.427 74.725 302.613 74.854 302.793 74.956C302.973 75.052 303.15 75.13 303.324 75.19L303.756 73.282L303.567 73.246C303.033 73.144 302.646 72.961 302.406 72.697C302.172 72.433 302.055 72.112 302.055 71.734C302.055 71.398 302.13 71.092 302.28 70.816C302.43 70.54 302.661 70.318 302.973 70.15C303.285 69.982 303.678 69.898 304.152 69.898C304.218 69.898 304.281 69.901 304.341 69.907C304.407 69.907 304.473 69.91 304.539 69.916L304.728 69.088H305.268L305.052 70.015C305.244 70.063 305.43 70.135 305.61 70.231C305.796 70.327 305.976 70.444 306.15 70.582L305.781 71.284C305.625 71.176 305.472 71.083 305.322 71.005C305.178 70.921 305.028 70.852 304.872 70.798L304.476 72.535L304.809 72.598C305.337 72.694 305.721 72.895 305.961 73.201C306.207 73.501 306.33 73.837 306.33 74.209C306.33 74.773 306.132 75.229 305.736 75.577C305.346 75.919 304.782 76.09 304.044 76.09C303.972 76.09 303.903 76.087 303.837 76.081C303.777 76.075 303.717 76.069 303.657 76.063L303.468 76.9H302.928ZM303.837 75.298C303.873 75.304 303.906 75.307 303.936 75.307C303.972 75.307 304.008 75.307 304.044 75.307C304.482 75.307 304.818 75.22 305.052 75.046C305.286 74.866 305.403 74.617 305.403 74.299C305.403 74.077 305.331 73.891 305.187 73.741C305.043 73.585 304.833 73.483 304.557 73.435L304.278 73.381L303.837 75.298ZM303.954 72.436L304.359 70.69C304.329 70.684 304.299 70.681 304.269 70.681C304.239 70.681 304.206 70.681 304.17 70.681C303.774 70.681 303.474 70.765 303.27 70.933C303.072 71.101 302.973 71.329 302.973 71.617C302.973 71.839 303.042 72.013 303.18 72.139C303.324 72.259 303.531 72.346 303.801 72.4L303.954 72.436ZM308.668 76V70.96L307.372 71.671L307.021 70.978L308.902 69.988H309.568V76H308.668ZM312.184 76V70.96L310.888 71.671L310.537 70.978L312.418 69.988H313.084V76H312.184ZM316.681 76.09C316.153 76.09 315.706 75.958 315.34 75.694C314.974 75.424 314.698 75.058 314.512 74.596C314.326 74.128 314.233 73.594 314.233 72.994C314.233 72.394 314.326 71.863 314.512 71.401C314.698 70.933 314.974 70.567 315.34 70.303C315.706 70.033 316.153 69.898 316.681 69.898C317.215 69.898 317.662 70.033 318.022 70.303C318.388 70.567 318.664 70.933 318.85 71.401C319.042 71.863 319.138 72.394 319.138 72.994C319.138 73.594 319.042 74.128 318.85 74.596C318.664 75.058 318.388 75.424 318.022 75.694C317.662 75.958 317.215 76.09 316.681 76.09ZM316.681 75.343C316.981 75.343 317.245 75.259 317.473 75.091C317.707 74.917 317.887 74.656 318.013 74.308C318.145 73.96 318.211 73.522 318.211 72.994C318.211 72.46 318.145 72.019 318.013 71.671C317.887 71.323 317.707 71.065 317.473 70.897C317.245 70.723 316.981 70.636 316.681 70.636C316.387 70.636 316.123 70.723 315.889 70.897C315.661 71.071 315.481 71.332 315.349 71.68C315.217 72.022 315.151 72.46 315.151 72.994C315.151 73.522 315.217 73.96 315.349 74.308C315.481 74.656 315.661 74.917 315.889 75.091C316.123 75.259 316.387 75.343 316.681 75.343Z" fill="#747FA6"/>
<path d="M190.711 49V42.988H193.492C193.966 42.988 194.359 43.042 194.671 43.15C194.989 43.252 195.229 43.417 195.391 43.645C195.553 43.873 195.634 44.173 195.634 44.545C195.634 44.899 195.559 45.187 195.409 45.409C195.265 45.631 195.022 45.793 194.68 45.895C195.082 45.991 195.37 46.159 195.544 46.399C195.724 46.639 195.814 46.954 195.814 47.344C195.814 47.938 195.622 48.364 195.238 48.622C194.86 48.874 194.278 49 193.492 49H190.711ZM191.611 48.235H193.366C193.744 48.235 194.044 48.202 194.266 48.136C194.488 48.07 194.647 47.965 194.743 47.821C194.839 47.677 194.887 47.488 194.887 47.254C194.887 47.014 194.839 46.822 194.743 46.678C194.647 46.534 194.488 46.429 194.266 46.363C194.044 46.297 193.744 46.264 193.366 46.264H191.611V48.235ZM191.611 45.535H193.366C193.864 45.535 194.212 45.469 194.41 45.337C194.608 45.205 194.707 44.974 194.707 44.644C194.707 44.308 194.608 44.074 194.41 43.942C194.212 43.81 193.864 43.744 193.366 43.744H191.611V45.535ZM196.924 49V44.77H197.743V45.508C197.851 45.244 198.007 45.046 198.211 44.914C198.421 44.782 198.655 44.716 198.913 44.716C198.997 44.716 199.072 44.722 199.138 44.734C199.21 44.74 199.267 44.752 199.309 44.77V45.571C199.225 45.553 199.141 45.541 199.057 45.535C198.979 45.523 198.901 45.517 198.823 45.517C198.523 45.517 198.271 45.643 198.067 45.895C197.869 46.141 197.77 46.495 197.77 46.957V49H196.924ZM202.007 49.09C201.581 49.09 201.197 49.006 200.855 48.838C200.519 48.664 200.252 48.415 200.054 48.091C199.856 47.761 199.757 47.359 199.757 46.885C199.757 46.435 199.85 46.045 200.036 45.715C200.228 45.385 200.483 45.13 200.801 44.95C201.125 44.77 201.485 44.68 201.881 44.68C202.301 44.68 202.661 44.761 202.961 44.923C203.267 45.079 203.504 45.295 203.672 45.571C203.84 45.847 203.924 46.159 203.924 46.507C203.924 46.609 203.909 46.72 203.879 46.84C203.855 46.96 203.819 47.056 203.771 47.128H200.621C200.651 47.392 200.729 47.617 200.855 47.803C200.981 47.989 201.149 48.13 201.359 48.226C201.569 48.316 201.812 48.361 202.088 48.361C202.364 48.361 202.607 48.319 202.817 48.235C203.033 48.151 203.24 48.031 203.438 47.875L203.744 48.505C203.51 48.697 203.246 48.844 202.952 48.946C202.664 49.042 202.349 49.09 202.007 49.09ZM200.621 46.471H203.042C203.048 46.459 203.051 46.447 203.051 46.435C203.051 46.417 203.051 46.399 203.051 46.381C203.051 46.183 203.009 46.012 202.925 45.868C202.841 45.718 202.715 45.601 202.547 45.517C202.379 45.433 202.166 45.391 201.908 45.391C201.704 45.391 201.512 45.436 201.332 45.526C201.158 45.61 201.008 45.733 200.882 45.895C200.762 46.051 200.675 46.243 200.621 46.471ZM206.369 49.09C206.057 49.09 205.781 49.042 205.541 48.946C205.307 48.844 205.124 48.7 204.992 48.514C204.86 48.322 204.794 48.091 204.794 47.821C204.794 47.551 204.86 47.329 204.992 47.155C205.124 46.975 205.31 46.834 205.55 46.732C205.79 46.624 206.063 46.552 206.369 46.516L207.863 46.336C207.827 46.018 207.707 45.784 207.503 45.634C207.299 45.484 207.047 45.409 206.747 45.409C206.543 45.409 206.33 45.451 206.108 45.535C205.892 45.613 205.661 45.739 205.415 45.913L205.1 45.274C205.334 45.088 205.592 44.944 205.874 44.842C206.162 44.734 206.459 44.68 206.765 44.68C207.407 44.68 207.893 44.827 208.223 45.121C208.559 45.409 208.727 45.844 208.727 46.426V49H207.908V48.388C207.752 48.622 207.542 48.799 207.278 48.919C207.02 49.033 206.717 49.09 206.369 49.09ZM206.567 48.37C206.849 48.37 207.086 48.316 207.278 48.208C207.476 48.094 207.623 47.944 207.719 47.758C207.821 47.572 207.872 47.377 207.872 47.173V46.984L206.612 47.146C206.3 47.188 206.063 47.257 205.901 47.353C205.739 47.443 205.658 47.59 205.658 47.794C205.658 47.98 205.739 48.124 205.901 48.226C206.063 48.322 206.285 48.37 206.567 48.37ZM210.064 49V42.988H210.91V46.759L212.908 44.77H213.943L212.179 46.498L214.033 49H212.998L211.585 47.083L210.91 47.74V49H210.064ZM213.969 46.768V46.084H216.408V46.768H213.969ZM217.553 49V42.988H221.72V43.762H218.453V45.535H221.45V46.273H218.453V48.226H221.72V49H217.553ZM224.111 49L222.419 44.77H223.328L224.579 48.118L225.83 44.77H226.748L225.047 49H224.111ZM229.289 49.09C228.863 49.09 228.479 49.006 228.137 48.838C227.801 48.664 227.534 48.415 227.336 48.091C227.138 47.761 227.039 47.359 227.039 46.885C227.039 46.435 227.132 46.045 227.318 45.715C227.51 45.385 227.765 45.13 228.083 44.95C228.407 44.77 228.767 44.68 229.163 44.68C229.583 44.68 229.943 44.761 230.243 44.923C230.549 45.079 230.786 45.295 230.954 45.571C231.122 45.847 231.206 46.159 231.206 46.507C231.206 46.609 231.191 46.72 231.161 46.84C231.137 46.96 231.101 47.056 231.053 47.128H227.903C227.933 47.392 228.011 47.617 228.137 47.803C228.263 47.989 228.431 48.13 228.641 48.226C228.851 48.316 229.094 48.361 229.37 48.361C229.646 48.361 229.889 48.319 230.099 48.235C230.315 48.151 230.522 48.031 230.72 47.875L231.026 48.505C230.792 48.697 230.528 48.844 230.234 48.946C229.946 49.042 229.631 49.09 229.289 49.09ZM227.903 46.471H230.324C230.33 46.459 230.333 46.447 230.333 46.435C230.333 46.417 230.333 46.399 230.333 46.381C230.333 46.183 230.291 46.012 230.207 45.868C230.123 45.718 229.997 45.601 229.829 45.517C229.661 45.433 229.448 45.391 229.19 45.391C228.986 45.391 228.794 45.436 228.614 45.526C228.44 45.61 228.29 45.733 228.164 45.895C228.044 46.051 227.957 46.243 227.903 46.471ZM232.309 49V44.77H233.128V45.4C233.254 45.178 233.434 45.004 233.668 44.878C233.908 44.746 234.199 44.68 234.541 44.68C235.027 44.68 235.408 44.818 235.684 45.094C235.96 45.37 236.098 45.802 236.098 46.39V49H235.243V46.498C235.243 46.12 235.165 45.847 235.009 45.679C234.859 45.505 234.628 45.418 234.316 45.418C233.95 45.418 233.665 45.544 233.461 45.796C233.257 46.048 233.155 46.393 233.155 46.831V49H232.309ZM240.432 49.9L240.639 48.982C240.417 48.916 240.201 48.826 239.991 48.712C239.787 48.598 239.583 48.454 239.379 48.28L239.739 47.569C239.931 47.725 240.117 47.854 240.297 47.956C240.477 48.052 240.654 48.13 240.828 48.19L241.26 46.282L241.071 46.246C240.537 46.144 240.15 45.961 239.91 45.697C239.676 45.433 239.559 45.112 239.559 44.734C239.559 44.398 239.634 44.092 239.784 43.816C239.934 43.54 240.165 43.318 240.477 43.15C240.789 42.982 241.182 42.898 241.656 42.898C241.722 42.898 241.785 42.901 241.845 42.907C241.911 42.907 241.977 42.91 242.043 42.916L242.232 42.088H242.772L242.556 43.015C242.748 43.063 242.934 43.135 243.114 43.231C243.3 43.327 243.48 43.444 243.654 43.582L243.285 44.284C243.129 44.176 242.976 44.083 242.826 44.005C242.682 43.921 242.532 43.852 242.376 43.798L241.98 45.535L242.313 45.598C242.841 45.694 243.225 45.895 243.465 46.201C243.711 46.501 243.834 46.837 243.834 47.209C243.834 47.773 243.636 48.229 243.24 48.577C242.85 48.919 242.286 49.09 241.548 49.09C241.476 49.09 241.407 49.087 241.341 49.081C241.281 49.075 241.221 49.069 241.161 49.063L240.972 49.9H240.432ZM241.341 48.298C241.377 48.304 241.41 48.307 241.44 48.307C241.476 48.307 241.512 48.307 241.548 48.307C241.986 48.307 242.322 48.22 242.556 48.046C242.79 47.866 242.907 47.617 242.907 47.299C242.907 47.077 242.835 46.891 242.691 46.741C242.547 46.585 242.337 46.483 242.061 46.435L241.782 46.381L241.341 48.298ZM241.458 45.436L241.863 43.69C241.833 43.684 241.803 43.681 241.773 43.681C241.743 43.681 241.71 43.681 241.674 43.681C241.278 43.681 240.978 43.765 240.774 43.933C240.576 44.101 240.477 44.329 240.477 44.617C240.477 44.839 240.546 45.013 240.684 45.139C240.828 45.259 241.035 45.346 241.305 45.4L241.458 45.436ZM246.73 49.09C246.346 49.09 245.995 49.021 245.677 48.883C245.365 48.739 245.095 48.538 244.867 48.28L245.209 47.686C245.443 47.908 245.68 48.073 245.92 48.181C246.16 48.289 246.403 48.343 246.649 48.343C246.967 48.343 247.255 48.271 247.513 48.127C247.777 47.977 247.987 47.743 248.143 47.425C248.305 47.107 248.395 46.693 248.413 46.183C248.263 46.399 248.053 46.57 247.783 46.696C247.519 46.822 247.207 46.885 246.847 46.885C246.397 46.885 246.01 46.801 245.686 46.633C245.368 46.465 245.125 46.234 244.957 45.94C244.789 45.646 244.705 45.307 244.705 44.923C244.705 44.539 244.795 44.194 244.975 43.888C245.155 43.582 245.41 43.342 245.74 43.168C246.076 42.988 246.472 42.898 246.928 42.898C247.426 42.898 247.852 42.997 248.206 43.195C248.566 43.393 248.845 43.693 249.043 44.095C249.241 44.497 249.34 45.01 249.34 45.634C249.34 46.324 249.244 46.93 249.052 47.452C248.86 47.968 248.572 48.37 248.188 48.658C247.804 48.946 247.318 49.09 246.73 49.09ZM247.018 46.183C247.456 46.183 247.798 46.072 248.044 45.85C248.29 45.622 248.413 45.31 248.413 44.914C248.353 44.536 248.212 44.23 247.99 43.996C247.768 43.756 247.444 43.636 247.018 43.636C246.586 43.636 246.244 43.75 245.992 43.978C245.746 44.206 245.623 44.515 245.623 44.905C245.623 45.307 245.746 45.622 245.992 45.85C246.244 46.072 246.586 46.183 247.018 46.183ZM252.348 49.09C252.03 49.09 251.745 49.06 251.493 49C251.247 48.946 251.022 48.859 250.818 48.739C250.614 48.613 250.413 48.46 250.215 48.28L250.566 47.641C250.866 47.893 251.151 48.073 251.421 48.181C251.697 48.289 251.976 48.343 252.258 48.343C252.696 48.343 253.038 48.232 253.284 48.01C253.53 47.782 253.653 47.47 253.653 47.074C253.653 46.678 253.53 46.369 253.284 46.147C253.038 45.919 252.696 45.805 252.258 45.805C251.964 45.805 251.715 45.865 251.511 45.985C251.313 46.099 251.175 46.267 251.097 46.489L250.323 46.345L250.935 42.898H254.13V43.636H251.619L251.286 45.445C251.43 45.331 251.601 45.247 251.799 45.193C251.997 45.133 252.207 45.103 252.429 45.103C252.885 45.103 253.272 45.187 253.59 45.355C253.908 45.517 254.151 45.745 254.319 46.039C254.493 46.333 254.58 46.672 254.58 47.056C254.58 47.44 254.49 47.785 254.31 48.091C254.13 48.397 253.872 48.64 253.536 48.82C253.206 49 252.81 49.09 252.348 49.09Z" fill="#747FA6"/>
<path d="M187.479 50.8232C187.577 50.7256 187.735 50.7256 187.833 50.8232C187.931 50.9209 187.931 51.0791 187.833 51.1768L187.479 50.8232ZM181.999 56.9069C181.861 56.9069 181.749 56.7949 181.749 56.6569L181.749 54.4069C181.749 54.2688 181.861 54.1569 181.999 54.1569C182.137 54.1569 182.249 54.2688 182.249 54.4069L182.249 56.4069L184.249 56.4069C184.387 56.4069 184.499 56.5188 184.499 56.6569C184.499 56.7949 184.387 56.9069 184.249 56.9069L181.999 56.9069ZM187.833 51.1768L182.176 56.8336L181.823 56.4801L187.479 50.8232L187.833 51.1768Z" fill="#747FA6"/>
<path d="M107 110L108.785 104.509L112.648 108.801L107 110ZM162 60.5L162.342 60.8648L162.334 60.8716L162 60.5ZM210 15.5L209.658 15.1352L209.802 15H210V15.5ZM311 15.5L306 18.3867V12.6133L311 15.5ZM110.01 106.618L161.666 60.1284L162.334 60.8716L110.679 107.361L110.01 106.618ZM161.658 60.1352L209.658 15.1352L210.342 15.8648L162.342 60.8648L161.658 60.1352ZM210 15H306.5V16H210V15Z" fill="#46956A"/>
<path d="M107 110L108.785 104.509L112.648 108.801L107 110ZM110.01 106.618L161.666 60.1284L162.334 60.8716L110.679 107.361L110.01 106.618Z" fill="#C75E4B"/>
<line x1="41.5" y1="15.4971" x2="204.5" y2="15.4971" stroke="#46956A" stroke-linecap="round" stroke-dasharray="2 2"/>
<path d="M102.805 9.99707V3.98507H104.227L106.162 8.88107L108.106 3.98507H109.528V9.99707H108.619V4.87607L106.558 9.99707H105.766L103.705 4.87607V9.99707H102.805ZM112.258 10.0871C111.946 10.0871 111.67 10.0391 111.43 9.94307C111.196 9.84107 111.013 9.69707 110.881 9.51107C110.749 9.31907 110.683 9.08807 110.683 8.81807C110.683 8.54807 110.749 8.32607 110.881 8.15207C111.013 7.97207 111.199 7.83107 111.439 7.72907C111.679 7.62107 111.952 7.54907 112.258 7.51307L113.752 7.33307C113.716 7.01507 113.596 6.78107 113.392 6.63107C113.188 6.48107 112.936 6.40607 112.636 6.40607C112.432 6.40607 112.219 6.44807 111.997 6.53207C111.781 6.61007 111.55 6.73607 111.304 6.91007L110.989 6.27107C111.223 6.08507 111.481 5.94107 111.763 5.83907C112.051 5.73107 112.348 5.67707 112.654 5.67707C113.296 5.67707 113.782 5.82407 114.112 6.11807C114.448 6.40607 114.616 6.84107 114.616 7.42307V9.99707H113.797V9.38507C113.641 9.61907 113.431 9.79607 113.167 9.91607C112.909 10.0301 112.606 10.0871 112.258 10.0871ZM112.456 9.36707C112.738 9.36707 112.975 9.31307 113.167 9.20507C113.365 9.09107 113.512 8.94107 113.608 8.75507C113.71 8.56907 113.761 8.37407 113.761 8.17007V7.98107L112.501 8.14307C112.189 8.18507 111.952 8.25407 111.79 8.35007C111.628 8.44007 111.547 8.58707 111.547 8.79107C111.547 8.97707 111.628 9.12107 111.79 9.22307C111.952 9.31907 112.174 9.36707 112.456 9.36707ZM115.09 9.99707L116.71 7.81007L115.18 5.76707H116.161L117.25 7.28807L118.348 5.76707H119.329L117.799 7.81007L119.419 9.99707H118.438L117.25 8.38607L116.071 9.99707H115.09ZM122.528 9.99707V3.98507H124.922C125.66 3.98507 126.215 4.14107 126.587 4.45307C126.959 4.76507 127.145 5.23907 127.145 5.87507C127.145 6.51107 126.959 6.98507 126.587 7.29707C126.215 7.60307 125.66 7.75607 124.922 7.75607H123.428V9.99707H122.528ZM123.428 7.00007H124.751C125.231 7.00007 125.597 6.91607 125.849 6.74807C126.101 6.58007 126.227 6.28907 126.227 5.87507C126.227 5.45507 126.104 5.16107 125.858 4.99307C125.618 4.82507 125.249 4.74107 124.751 4.74107H123.428V7.00007ZM128.258 9.99707V5.76707H129.077V6.50507C129.185 6.24107 129.341 6.04307 129.545 5.91107C129.755 5.77907 129.989 5.71307 130.247 5.71307C130.331 5.71307 130.406 5.71907 130.472 5.73107C130.544 5.73707 130.601 5.74907 130.643 5.76707V6.56807C130.559 6.55007 130.475 6.53807 130.391 6.53207C130.313 6.52007 130.235 6.51407 130.157 6.51407C129.857 6.51407 129.605 6.64007 129.401 6.89207C129.203 7.13807 129.104 7.49207 129.104 7.95407V9.99707H128.258ZM133.305 10.0871C132.873 10.0871 132.489 9.99707 132.153 9.81707C131.817 9.63107 131.556 9.37307 131.37 9.04307C131.184 8.71307 131.091 8.32607 131.091 7.88207C131.091 7.43807 131.184 7.05107 131.37 6.72107C131.556 6.39107 131.817 6.13607 132.153 5.95607C132.489 5.77007 132.873 5.67707 133.305 5.67707C133.743 5.67707 134.127 5.77007 134.457 5.95607C134.793 6.13607 135.054 6.39107 135.24 6.72107C135.432 7.05107 135.528 7.43807 135.528 7.88207C135.528 8.32607 135.432 8.71307 135.24 9.04307C135.054 9.37307 134.793 9.63107 134.457 9.81707C134.127 9.99707 133.743 10.0871 133.305 10.0871ZM133.305 9.34007C133.575 9.34007 133.812 9.28307 134.016 9.16907C134.22 9.04907 134.376 8.88107 134.484 8.66507C134.598 8.44307 134.655 8.18207 134.655 7.88207C134.655 7.58207 134.598 7.32407 134.484 7.10807C134.376 6.88607 134.22 6.71507 134.016 6.59507C133.812 6.47507 133.575 6.41507 133.305 6.41507C133.035 6.41507 132.798 6.47507 132.594 6.59507C132.396 6.71507 132.24 6.88607 132.126 7.10807C132.012 7.32407 131.955 7.58207 131.955 7.88207C131.955 8.18207 132.012 8.44307 132.126 8.66507C132.24 8.88107 132.396 9.04907 132.594 9.16907C132.798 9.28307 133.035 9.34007 133.305 9.34007ZM137.101 9.99707V6.48707H136.174V5.76707H137.101V5.20907C137.101 4.77107 137.206 4.45007 137.416 4.24607C137.632 4.03607 137.962 3.93107 138.406 3.93107C138.52 3.93107 138.637 3.93707 138.757 3.94907C138.877 3.96107 138.973 3.97907 139.045 4.00307V4.68707C138.991 4.67507 138.916 4.66607 138.82 4.66007C138.73 4.65407 138.649 4.65107 138.577 4.65107C138.361 4.65107 138.202 4.70507 138.1 4.81307C137.998 4.91507 137.947 5.06807 137.947 5.27207V5.76707H139.045V6.48707H137.947V9.99707H137.101ZM139.938 9.99707V5.76707H140.784V9.99707H139.938ZM140.361 4.89407C140.205 4.89407 140.079 4.84907 139.983 4.75907C139.893 4.66907 139.848 4.55207 139.848 4.40807C139.848 4.26407 139.893 4.14707 139.983 4.05707C140.079 3.96707 140.205 3.92207 140.361 3.92207C140.511 3.92207 140.634 3.96707 140.73 4.05707C140.826 4.14707 140.874 4.26407 140.874 4.40807C140.874 4.55207 140.826 4.66907 140.73 4.75907C140.634 4.84907 140.511 4.89407 140.361 4.89407ZM143.908 10.0511C143.464 10.0511 143.134 9.94907 142.918 9.74507C142.708 9.53507 142.603 9.21107 142.603 8.77307V6.48707H141.676V5.76707H142.603V4.56107H143.449V5.76707H144.547V6.48707H143.449V8.70107C143.449 8.91107 143.5 9.06707 143.602 9.16907C143.704 9.27107 143.863 9.32207 144.079 9.32207C144.151 9.32207 144.232 9.31907 144.322 9.31307C144.418 9.30707 144.493 9.29807 144.547 9.28607V9.97007C144.475 9.99407 144.379 10.0121 144.259 10.0241C144.139 10.0421 144.022 10.0511 143.908 10.0511Z" fill="#46956A"/>
<path d="M124.383 109.09C123.603 109.09 122.985 108.883 122.529 108.469C122.079 108.055 121.854 107.416 121.854 106.552V102.988H122.754V106.552C122.754 106.954 122.817 107.284 122.943 107.542C123.075 107.8 123.261 107.989 123.501 108.109C123.747 108.229 124.041 108.289 124.383 108.289C124.725 108.289 125.016 108.229 125.256 108.109C125.502 107.989 125.688 107.8 125.814 107.542C125.946 107.284 126.012 106.954 126.012 106.552V102.988H126.921V106.552C126.921 107.416 126.693 108.055 126.237 108.469C125.787 108.883 125.169 109.09 124.383 109.09ZM128.295 109V104.77H129.114V105.4C129.24 105.178 129.42 105.004 129.654 104.878C129.894 104.746 130.185 104.68 130.527 104.68C131.013 104.68 131.394 104.818 131.67 105.094C131.946 105.37 132.084 105.802 132.084 106.39V109H131.229V106.498C131.229 106.12 131.151 105.847 130.995 105.679C130.845 105.505 130.614 105.418 130.302 105.418C129.936 105.418 129.651 105.544 129.447 105.796C129.243 106.048 129.141 106.393 129.141 106.831V109H128.295ZM133.428 109V102.988H134.274V109H133.428ZM135.625 109V104.77H136.471V109H135.625ZM136.048 103.897C135.892 103.897 135.766 103.852 135.67 103.762C135.58 103.672 135.535 103.555 135.535 103.411C135.535 103.267 135.58 103.15 135.67 103.06C135.766 102.97 135.892 102.925 136.048 102.925C136.198 102.925 136.321 102.97 136.417 103.06C136.513 103.15 136.561 103.267 136.561 103.411C136.561 103.555 136.513 103.672 136.417 103.762C136.321 103.852 136.198 103.897 136.048 103.897ZM137.822 109V104.77H138.641V105.328C138.761 105.124 138.926 104.965 139.136 104.851C139.346 104.737 139.601 104.68 139.901 104.68C140.207 104.68 140.465 104.746 140.675 104.878C140.891 105.004 141.053 105.181 141.161 105.409C141.293 105.169 141.479 104.989 141.719 104.869C141.965 104.743 142.25 104.68 142.574 104.68C143.048 104.68 143.423 104.818 143.699 105.094C143.975 105.37 144.113 105.802 144.113 106.39V109H143.258V106.498C143.258 106.12 143.183 105.847 143.033 105.679C142.889 105.505 142.676 105.418 142.394 105.418C142.064 105.418 141.812 105.544 141.638 105.796C141.47 106.048 141.386 106.393 141.386 106.831V109H140.531V106.498C140.531 106.12 140.456 105.847 140.306 105.679C140.162 105.505 139.952 105.418 139.676 105.418C139.346 105.418 139.094 105.544 138.92 105.796C138.752 106.048 138.668 106.393 138.668 106.831V109H137.822ZM145.451 109V104.77H146.297V109H145.451ZM145.874 103.897C145.718 103.897 145.592 103.852 145.496 103.762C145.406 103.672 145.361 103.555 145.361 103.411C145.361 103.267 145.406 103.15 145.496 103.06C145.592 102.97 145.718 102.925 145.874 102.925C146.024 102.925 146.147 102.97 146.243 103.06C146.339 103.15 146.387 103.267 146.387 103.411C146.387 103.555 146.339 103.672 146.243 103.762C146.147 103.852 146.024 103.897 145.874 103.897ZM149.422 109.054C148.978 109.054 148.648 108.952 148.432 108.748C148.222 108.538 148.117 108.214 148.117 107.776V105.49H147.19V104.77H148.117V103.564H148.963V104.77H150.061V105.49H148.963V107.704C148.963 107.914 149.014 108.07 149.116 108.172C149.218 108.274 149.377 108.325 149.593 108.325C149.665 108.325 149.746 108.322 149.836 108.316C149.932 108.31 150.007 108.301 150.061 108.289V108.973C149.989 108.997 149.893 109.015 149.773 109.027C149.653 109.045 149.536 109.054 149.422 109.054ZM153.11 109.09C152.684 109.09 152.3 109.006 151.958 108.838C151.622 108.664 151.355 108.415 151.157 108.091C150.959 107.761 150.86 107.359 150.86 106.885C150.86 106.435 150.953 106.045 151.139 105.715C151.331 105.385 151.586 105.13 151.904 104.95C152.228 104.77 152.588 104.68 152.984 104.68C153.404 104.68 153.764 104.761 154.064 104.923C154.37 105.079 154.607 105.295 154.775 105.571C154.943 105.847 155.027 106.159 155.027 106.507C155.027 106.609 155.012 106.72 154.982 106.84C154.958 106.96 154.922 107.056 154.874 107.128H151.724C151.754 107.392 151.832 107.617 151.958 107.803C152.084 107.989 152.252 108.13 152.462 108.226C152.672 108.316 152.915 108.361 153.191 108.361C153.467 108.361 153.71 108.319 153.92 108.235C154.136 108.151 154.343 108.031 154.541 107.875L154.847 108.505C154.613 108.697 154.349 108.844 154.055 108.946C153.767 109.042 153.452 109.09 153.11 109.09ZM151.724 106.471H154.145C154.151 106.459 154.154 106.447 154.154 106.435C154.154 106.417 154.154 106.399 154.154 106.381C154.154 106.183 154.112 106.012 154.028 105.868C153.944 105.718 153.818 105.601 153.65 105.517C153.482 105.433 153.269 105.391 153.011 105.391C152.807 105.391 152.615 105.436 152.435 105.526C152.261 105.61 152.111 105.733 151.985 105.895C151.865 106.051 151.778 106.243 151.724 106.471ZM157.921 109.09C157.537 109.09 157.192 109 156.886 108.82C156.58 108.64 156.337 108.385 156.157 108.055C155.983 107.725 155.896 107.335 155.896 106.885C155.896 106.429 155.983 106.036 156.157 105.706C156.337 105.376 156.58 105.124 156.886 104.95C157.192 104.77 157.537 104.68 157.921 104.68C158.257 104.68 158.551 104.746 158.803 104.878C159.055 105.004 159.25 105.172 159.388 105.382V102.988H160.243V109H159.424V108.325C159.292 108.553 159.097 108.739 158.839 108.883C158.581 109.021 158.275 109.09 157.921 109.09ZM158.101 108.343C158.359 108.343 158.587 108.286 158.785 108.172C158.983 108.052 159.139 107.884 159.253 107.668C159.367 107.446 159.424 107.185 159.424 106.885C159.424 106.585 159.367 106.327 159.253 106.111C159.139 105.889 158.983 105.718 158.785 105.598C158.587 105.478 158.359 105.418 158.101 105.418C157.843 105.418 157.612 105.478 157.408 105.598C157.21 105.718 157.054 105.889 156.94 106.111C156.826 106.327 156.769 106.585 156.769 106.885C156.769 107.185 156.826 107.446 156.94 107.668C157.054 107.884 157.21 108.052 157.408 108.172C157.606 108.286 157.837 108.343 158.101 108.343ZM163.795 109V102.988H164.695V108.199H167.512V109H163.795ZM170.38 109.09C169.948 109.09 169.564 109 169.228 108.82C168.892 108.634 168.631 108.376 168.445 108.046C168.259 107.716 168.166 107.329 168.166 106.885C168.166 106.441 168.259 106.054 168.445 105.724C168.631 105.394 168.892 105.139 169.228 104.959C169.564 104.773 169.948 104.68 170.38 104.68C170.818 104.68 171.202 104.773 171.532 104.959C171.868 105.139 172.129 105.394 172.315 105.724C172.507 106.054 172.603 106.441 172.603 106.885C172.603 107.329 172.507 107.716 172.315 108.046C172.129 108.376 171.868 108.634 171.532 108.82C171.202 109 170.818 109.09 170.38 109.09ZM170.38 108.343C170.65 108.343 170.887 108.286 171.091 108.172C171.295 108.052 171.451 107.884 171.559 107.668C171.673 107.446 171.73 107.185 171.73 106.885C171.73 106.585 171.673 106.327 171.559 106.111C171.451 105.889 171.295 105.718 171.091 105.598C170.887 105.478 170.65 105.418 170.38 105.418C170.11 105.418 169.873 105.478 169.669 105.598C169.471 105.718 169.315 105.889 169.201 106.111C169.087 106.327 169.03 106.585 169.03 106.885C169.03 107.185 169.087 107.446 169.201 107.668C169.315 107.884 169.471 108.052 169.669 108.172C169.873 108.286 170.11 108.343 170.38 108.343ZM175.202 109.09C174.878 109.09 174.575 109.042 174.293 108.946C174.011 108.844 173.738 108.7 173.474 108.514L173.825 107.848C174.089 108.022 174.332 108.154 174.554 108.244C174.782 108.334 175.004 108.379 175.22 108.379C175.526 108.379 175.754 108.334 175.904 108.244C176.06 108.148 176.138 108.007 176.138 107.821C176.138 107.665 176.09 107.551 175.994 107.479C175.904 107.401 175.742 107.341 175.508 107.299L174.788 107.164C174.398 107.092 174.104 106.963 173.906 106.777C173.708 106.585 173.609 106.339 173.609 106.039C173.609 105.793 173.669 105.568 173.789 105.364C173.915 105.154 174.101 104.989 174.347 104.869C174.593 104.743 174.902 104.68 175.274 104.68C175.58 104.68 175.868 104.725 176.138 104.815C176.414 104.905 176.66 105.028 176.876 105.184L176.534 105.823C176.348 105.697 176.15 105.595 175.94 105.517C175.736 105.433 175.526 105.391 175.31 105.391C175.052 105.391 174.848 105.436 174.698 105.526C174.548 105.61 174.473 105.748 174.473 105.94C174.473 106.06 174.518 106.156 174.608 106.228C174.698 106.3 174.851 106.354 175.067 106.39L175.778 106.525C176.174 106.603 176.477 106.735 176.687 106.921C176.903 107.107 177.011 107.377 177.011 107.731C177.011 108.127 176.858 108.454 176.552 108.712C176.246 108.964 175.796 109.09 175.202 109.09ZM179.614 109.09C179.29 109.09 178.987 109.042 178.705 108.946C178.423 108.844 178.15 108.7 177.886 108.514L178.237 107.848C178.501 108.022 178.744 108.154 178.966 108.244C179.194 108.334 179.416 108.379 179.632 108.379C179.938 108.379 180.166 108.334 180.316 108.244C180.472 108.148 180.55 108.007 180.55 107.821C180.55 107.665 180.502 107.551 180.406 107.479C180.316 107.401 180.154 107.341 179.92 107.299L179.2 107.164C178.81 107.092 178.516 106.963 178.318 106.777C178.12 106.585 178.021 106.339 178.021 106.039C178.021 105.793 178.081 105.568 178.201 105.364C178.327 105.154 178.513 104.989 178.759 104.869C179.005 104.743 179.314 104.68 179.686 104.68C179.992 104.68 180.28 104.725 180.55 104.815C180.826 104.905 181.072 105.028 181.288 105.184L180.946 105.823C180.76 105.697 180.562 105.595 180.352 105.517C180.148 105.433 179.938 105.391 179.722 105.391C179.464 105.391 179.26 105.436 179.11 105.526C178.96 105.61 178.885 105.748 178.885 105.94C178.885 106.06 178.93 106.156 179.02 106.228C179.11 106.3 179.263 106.354 179.479 106.39L180.19 106.525C180.586 106.603 180.889 106.735 181.099 106.921C181.315 107.107 181.423 107.377 181.423 107.731C181.423 108.127 181.27 108.454 180.964 108.712C180.658 108.964 180.208 109.09 179.614 109.09Z" fill="#C75E4B"/>
</svg>
