<svg width="21" height="21" viewBox="0 0 21 21" fill="none" xmlns="http://www.w3.org/2000/svg">
<g clip-path="url(#clip0_839_517)">
<path d="M14.3333 13.7998C13.7187 13.7998 13.2222 14.2914 13.2222 14.8999C13.2222 15.5084 13.7188 16 14.3333 16L19.8889 16C20.5035 16 21 15.5084 21 14.8999L21 9.39948C21 8.791 20.5035 8.2994 19.8889 8.2994C19.2743 8.2994 18.7778 8.791 18.7778 9.39948L18.7778 12.2425L12.8958 6.42238C12.4618 5.99265 11.7604 5.99265 11.3264 6.42238L7.63542 10.0423L2.89687 5.32229C2.46285 4.89257 1.75937 4.89257 1.32542 5.32229C0.891527 5.75201 0.891527 6.44644 1.32542 6.87616L6.88194 12.3766C7.31597 12.8063 8.01736 12.8063 8.45139 12.3766L12.1111 8.75662L17.2049 13.8308L14.3333 13.7998Z" fill="#384263"/>
</g>
<defs>
<clipPath id="clip0_839_517">
<rect width="20" height="20" fill="white" transform="translate(0.5 0.5)"/>
</clipPath>
</defs>
</svg>
