<svg width="381" height="118" viewBox="0 0 381 118" fill="none" xmlns="http://www.w3.org/2000/svg">
<path d="M102.963 105V98.988H104.385L106.32 103.884L108.264 98.988H109.686V105H108.777V99.879L106.716 105H105.924L103.863 99.879V105H102.963ZM112.415 105.09C112.103 105.09 111.827 105.042 111.587 104.946C111.353 104.844 111.17 104.7 111.038 104.514C110.906 104.322 110.84 104.091 110.84 103.821C110.84 103.551 110.906 103.329 111.038 103.155C111.17 102.975 111.356 102.834 111.596 102.732C111.836 102.624 112.109 102.552 112.415 102.516L113.909 102.336C113.873 102.018 113.753 101.784 113.549 101.634C113.345 101.484 113.093 101.409 112.793 101.409C112.589 101.409 112.376 101.451 112.154 101.535C111.938 101.613 111.707 101.739 111.461 101.913L111.146 101.274C111.38 101.088 111.638 100.944 111.92 100.842C112.208 100.734 112.505 100.68 112.811 100.68C113.453 100.68 113.939 100.827 114.269 101.121C114.605 101.409 114.773 101.844 114.773 102.426V105H113.954V104.388C113.798 104.622 113.588 104.799 113.324 104.919C113.066 105.033 112.763 105.09 112.415 105.09ZM112.613 104.37C112.895 104.37 113.132 104.316 113.324 104.208C113.522 104.094 113.669 103.944 113.765 103.758C113.867 103.572 113.918 103.377 113.918 103.173V102.984L112.658 103.146C112.346 103.188 112.109 103.257 111.947 103.353C111.785 103.443 111.704 103.59 111.704 103.794C111.704 103.98 111.785 104.124 111.947 104.226C112.109 104.322 112.331 104.37 112.613 104.37ZM115.247 105L116.867 102.813L115.337 100.77H116.318L117.407 102.291L118.505 100.77H119.486L117.956 102.813L119.576 105H118.595L117.407 103.389L116.228 105H115.247ZM122.686 105V98.988H123.586V104.199H126.403V105H122.686ZM129.27 105.09C128.838 105.09 128.454 105 128.118 104.82C127.782 104.634 127.521 104.376 127.335 104.046C127.149 103.716 127.056 103.329 127.056 102.885C127.056 102.441 127.149 102.054 127.335 101.724C127.521 101.394 127.782 101.139 128.118 100.959C128.454 100.773 128.838 100.68 129.27 100.68C129.708 100.68 130.092 100.773 130.422 100.959C130.758 101.139 131.019 101.394 131.205 101.724C131.397 102.054 131.493 102.441 131.493 102.885C131.493 103.329 131.397 103.716 131.205 104.046C131.019 104.376 130.758 104.634 130.422 104.82C130.092 105 129.708 105.09 129.27 105.09ZM129.27 104.343C129.54 104.343 129.777 104.286 129.981 104.172C130.185 104.052 130.341 103.884 130.449 103.668C130.563 103.446 130.62 103.185 130.62 102.885C130.62 102.585 130.563 102.327 130.449 102.111C130.341 101.889 130.185 101.718 129.981 101.598C129.777 101.478 129.54 101.418 129.27 101.418C129 101.418 128.763 101.478 128.559 101.598C128.361 101.718 128.205 101.889 128.091 102.111C127.977 102.327 127.92 102.585 127.92 102.885C127.92 103.185 127.977 103.446 128.091 103.668C128.205 103.884 128.361 104.052 128.559 104.172C128.763 104.286 129 104.343 129.27 104.343ZM134.093 105.09C133.769 105.09 133.466 105.042 133.184 104.946C132.902 104.844 132.629 104.7 132.365 104.514L132.716 103.848C132.98 104.022 133.223 104.154 133.445 104.244C133.673 104.334 133.895 104.379 134.111 104.379C134.417 104.379 134.645 104.334 134.795 104.244C134.951 104.148 135.029 104.007 135.029 103.821C135.029 103.665 134.981 103.551 134.885 103.479C134.795 103.401 134.633 103.341 134.399 103.299L133.679 103.164C133.289 103.092 132.995 102.963 132.797 102.777C132.599 102.585 132.5 102.339 132.5 102.039C132.5 101.793 132.56 101.568 132.68 101.364C132.806 101.154 132.992 100.989 133.238 100.869C133.484 100.743 133.793 100.68 134.165 100.68C134.471 100.68 134.759 100.725 135.029 100.815C135.305 100.905 135.551 101.028 135.767 101.184L135.425 101.823C135.239 101.697 135.041 101.595 134.831 101.517C134.627 101.433 134.417 101.391 134.201 101.391C133.943 101.391 133.739 101.436 133.589 101.526C133.439 101.61 133.364 101.748 133.364 101.94C133.364 102.06 133.409 102.156 133.499 102.228C133.589 102.3 133.742 102.354 133.958 102.39L134.669 102.525C135.065 102.603 135.368 102.735 135.578 102.921C135.794 103.107 135.902 103.377 135.902 103.731C135.902 104.127 135.749 104.454 135.443 104.712C135.137 104.964 134.687 105.09 134.093 105.09ZM138.505 105.09C138.181 105.09 137.878 105.042 137.596 104.946C137.314 104.844 137.041 104.7 136.777 104.514L137.128 103.848C137.392 104.022 137.635 104.154 137.857 104.244C138.085 104.334 138.307 104.379 138.523 104.379C138.829 104.379 139.057 104.334 139.207 104.244C139.363 104.148 139.441 104.007 139.441 103.821C139.441 103.665 139.393 103.551 139.297 103.479C139.207 103.401 139.045 103.341 138.811 103.299L138.091 103.164C137.701 103.092 137.407 102.963 137.209 102.777C137.011 102.585 136.912 102.339 136.912 102.039C136.912 101.793 136.972 101.568 137.092 101.364C137.218 101.154 137.404 100.989 137.65 100.869C137.896 100.743 138.205 100.68 138.577 100.68C138.883 100.68 139.171 100.725 139.441 100.815C139.717 100.905 139.963 101.028 140.179 101.184L139.837 101.823C139.651 101.697 139.453 101.595 139.243 101.517C139.039 101.433 138.829 101.391 138.613 101.391C138.355 101.391 138.151 101.436 138.001 101.526C137.851 101.61 137.776 101.748 137.776 101.94C137.776 102.06 137.821 102.156 137.911 102.228C138.001 102.3 138.154 102.354 138.37 102.39L139.081 102.525C139.477 102.603 139.78 102.735 139.99 102.921C140.206 103.107 140.314 103.377 140.314 103.731C140.314 104.127 140.161 104.454 139.855 104.712C139.549 104.964 139.099 105.09 138.505 105.09Z" fill="#C75E4B"/>
<path opacity="0.05" d="M208 15.5L255.312 60H108V15.5H208Z" fill="#46956A"/>
<path opacity="0.05" d="M311 61V110L256.5 61H311Z" fill="#C75E4B"/>
<line x1="33.5" y1="3" x2="33.5" y2="118" stroke="#20224E"/>
<line x1="29" y1="109.5" x2="38" y2="109.5" stroke="#20224E"/>
<line x1="29" y1="15.5" x2="38" y2="15.5" stroke="#20224E"/>
<line x1="381" y1="60.5" x2="33" y2="60.5" stroke="#20224E"/>
<path d="M0.727621 109.768V109.084H3.16662V109.768H0.727621ZM5.0941 112.9L5.3011 111.982C5.0791 111.916 4.8631 111.826 4.6531 111.712C4.4491 111.598 4.2451 111.454 4.0411 111.28L4.4011 110.569C4.5931 110.725 4.7791 110.854 4.9591 110.956C5.1391 111.052 5.3161 111.13 5.4901 111.19L5.9221 109.282L5.7331 109.246C5.1991 109.144 4.8121 108.961 4.5721 108.697C4.3381 108.433 4.2211 108.112 4.2211 107.734C4.2211 107.398 4.2961 107.092 4.4461 106.816C4.5961 106.54 4.8271 106.318 5.1391 106.15C5.4511 105.982 5.8441 105.898 6.3181 105.898C6.3841 105.898 6.4471 105.901 6.5071 105.907C6.5731 105.907 6.6391 105.91 6.7051 105.916L6.8941 105.088H7.4341L7.2181 106.015C7.4101 106.063 7.5961 106.135 7.7761 106.231C7.9621 106.327 8.1421 106.444 8.3161 106.582L7.9471 107.284C7.7911 107.176 7.6381 107.083 7.4881 107.005C7.3441 106.921 7.1941 106.852 7.0381 106.798L6.6421 108.535L6.9751 108.598C7.5031 108.694 7.8871 108.895 8.1271 109.201C8.3731 109.501 8.4961 109.837 8.4961 110.209C8.4961 110.773 8.2981 111.229 7.9021 111.577C7.5121 111.919 6.9481 112.09 6.2101 112.09C6.1381 112.09 6.0691 112.087 6.0031 112.081C5.9431 112.075 5.8831 112.069 5.8231 112.063L5.6341 112.9H5.0941ZM6.0031 111.298C6.0391 111.304 6.0721 111.307 6.1021 111.307C6.1381 111.307 6.1741 111.307 6.2101 111.307C6.6481 111.307 6.9841 111.22 7.2181 111.046C7.4521 110.866 7.5691 110.617 7.5691 110.299C7.5691 110.077 7.4971 109.891 7.3531 109.741C7.2091 109.585 6.9991 109.483 6.7231 109.435L6.4441 109.381L6.0031 111.298ZM6.1201 108.436L6.5251 106.69C6.4951 106.684 6.4651 106.681 6.4351 106.681C6.4051 106.681 6.3721 106.681 6.3361 106.681C5.9401 106.681 5.6401 106.765 5.4361 106.933C5.2381 107.101 5.1391 107.329 5.1391 107.617C5.1391 107.839 5.2081 108.013 5.3461 108.139C5.4901 108.259 5.6971 108.346 5.9671 108.4L6.1201 108.436ZM11.5003 112.09C11.1823 112.09 10.8973 112.06 10.6453 112C10.3993 111.946 10.1743 111.859 9.97027 111.739C9.76627 111.613 9.56527 111.46 9.36727 111.28L9.71827 110.641C10.0183 110.893 10.3033 111.073 10.5733 111.181C10.8493 111.289 11.1283 111.343 11.4103 111.343C11.8483 111.343 12.1903 111.232 12.4363 111.01C12.6823 110.782 12.8053 110.47 12.8053 110.074C12.8053 109.678 12.6823 109.369 12.4363 109.147C12.1903 108.919 11.8483 108.805 11.4103 108.805C11.1163 108.805 10.8673 108.865 10.6633 108.985C10.4653 109.099 10.3273 109.267 10.2493 109.489L9.47527 109.345L10.0873 105.898H13.2823V106.636H10.7713L10.4383 108.445C10.5823 108.331 10.7533 108.247 10.9513 108.193C11.1493 108.133 11.3593 108.103 11.5813 108.103C12.0373 108.103 12.4243 108.187 12.7423 108.355C13.0603 108.517 13.3033 108.745 13.4713 109.039C13.6453 109.333 13.7323 109.672 13.7323 110.056C13.7323 110.44 13.6423 110.785 13.4623 111.091C13.2823 111.397 13.0243 111.64 12.6883 111.82C12.3583 112 11.9623 112.09 11.5003 112.09ZM17.0536 112.09C16.5256 112.09 16.0786 111.958 15.7126 111.694C15.3466 111.424 15.0706 111.058 14.8846 110.596C14.6986 110.128 14.6056 109.594 14.6056 108.994C14.6056 108.394 14.6986 107.863 14.8846 107.401C15.0706 106.933 15.3466 106.567 15.7126 106.303C16.0786 106.033 16.5256 105.898 17.0536 105.898C17.5876 105.898 18.0346 106.033 18.3946 106.303C18.7606 106.567 19.0366 106.933 19.2226 107.401C19.4146 107.863 19.5106 108.394 19.5106 108.994C19.5106 109.594 19.4146 110.128 19.2226 110.596C19.0366 111.058 18.7606 111.424 18.3946 111.694C18.0346 111.958 17.5876 112.09 17.0536 112.09ZM17.0536 111.343C17.3536 111.343 17.6176 111.259 17.8456 111.091C18.0796 110.917 18.2596 110.656 18.3856 110.308C18.5176 109.96 18.5836 109.522 18.5836 108.994C18.5836 108.46 18.5176 108.019 18.3856 107.671C18.2596 107.323 18.0796 107.065 17.8456 106.897C17.6176 106.723 17.3536 106.636 17.0536 106.636C16.7596 106.636 16.4956 106.723 16.2616 106.897C16.0336 107.071 15.8536 107.332 15.7216 107.68C15.5896 108.022 15.5236 108.46 15.5236 108.994C15.5236 109.522 15.5896 109.96 15.7216 110.308C15.8536 110.656 16.0336 110.917 16.2616 111.091C16.4956 111.259 16.7596 111.343 17.0536 111.343ZM22.828 112.09C22.3 112.09 21.853 111.958 21.487 111.694C21.121 111.424 20.845 111.058 20.659 110.596C20.473 110.128 20.38 109.594 20.38 108.994C20.38 108.394 20.473 107.863 20.659 107.401C20.845 106.933 21.121 106.567 21.487 106.303C21.853 106.033 22.3 105.898 22.828 105.898C23.362 105.898 23.809 106.033 24.169 106.303C24.535 106.567 24.811 106.933 24.997 107.401C25.189 107.863 25.285 108.394 25.285 108.994C25.285 109.594 25.189 110.128 24.997 110.596C24.811 111.058 24.535 111.424 24.169 111.694C23.809 111.958 23.362 112.09 22.828 112.09ZM22.828 111.343C23.128 111.343 23.392 111.259 23.62 111.091C23.854 110.917 24.034 110.656 24.16 110.308C24.292 109.96 24.358 109.522 24.358 108.994C24.358 108.46 24.292 108.019 24.16 107.671C24.034 107.323 23.854 107.065 23.62 106.897C23.392 106.723 23.128 106.636 22.828 106.636C22.534 106.636 22.27 106.723 22.036 106.897C21.808 107.071 21.628 107.332 21.496 107.68C21.364 108.022 21.298 108.46 21.298 108.994C21.298 109.522 21.364 109.96 21.496 110.308C21.628 110.656 21.808 110.917 22.036 111.091C22.27 111.259 22.534 111.343 22.828 111.343Z" fill="#747FA6"/>
<path d="M4.93736 19.9L5.14436 18.982C4.92236 18.916 4.70636 18.826 4.49636 18.712C4.29236 18.598 4.08836 18.454 3.88436 18.28L4.24436 17.569C4.43636 17.725 4.62236 17.854 4.80236 17.956C4.98236 18.052 5.15936 18.13 5.33336 18.19L5.76536 16.282L5.57636 16.246C5.04236 16.144 4.65536 15.961 4.41536 15.697C4.18136 15.433 4.06436 15.112 4.06436 14.734C4.06436 14.398 4.13936 14.092 4.28936 13.816C4.43936 13.54 4.67036 13.318 4.98236 13.15C5.29436 12.982 5.68736 12.898 6.16136 12.898C6.22736 12.898 6.29036 12.901 6.35036 12.907C6.41636 12.907 6.48236 12.91 6.54836 12.916L6.73736 12.088H7.27736L7.06136 13.015C7.25336 13.063 7.43936 13.135 7.61936 13.231C7.80536 13.327 7.98536 13.444 8.15936 13.582L7.79036 14.284C7.63436 14.176 7.48136 14.083 7.33136 14.005C7.18736 13.921 7.03736 13.852 6.88136 13.798L6.48536 15.535L6.81836 15.598C7.34636 15.694 7.73036 15.895 7.97036 16.201C8.21636 16.501 8.33936 16.837 8.33936 17.209C8.33936 17.773 8.14136 18.229 7.74536 18.577C7.35536 18.919 6.79136 19.09 6.05336 19.09C5.98136 19.09 5.91236 19.087 5.84636 19.081C5.78636 19.075 5.72636 19.069 5.66636 19.063L5.47736 19.9H4.93736ZM5.84636 18.298C5.88236 18.304 5.91536 18.307 5.94536 18.307C5.98136 18.307 6.01736 18.307 6.05336 18.307C6.49136 18.307 6.82736 18.22 7.06136 18.046C7.29536 17.866 7.41236 17.617 7.41236 17.299C7.41236 17.077 7.34036 16.891 7.19636 16.741C7.05236 16.585 6.84236 16.483 6.56636 16.435L6.28736 16.381L5.84636 18.298ZM5.96336 15.436L6.36836 13.69C6.33836 13.684 6.30836 13.681 6.27836 13.681C6.24836 13.681 6.21536 13.681 6.17936 13.681C5.78336 13.681 5.48336 13.765 5.27936 13.933C5.08136 14.101 4.98236 14.329 4.98236 14.617C4.98236 14.839 5.05136 15.013 5.18936 15.139C5.33336 15.259 5.54036 15.346 5.81036 15.4L5.96336 15.436ZM11.3435 19.09C11.0255 19.09 10.7405 19.06 10.4885 19C10.2425 18.946 10.0175 18.859 9.81353 18.739C9.60953 18.613 9.40853 18.46 9.21053 18.28L9.56153 17.641C9.86153 17.893 10.1465 18.073 10.4165 18.181C10.6925 18.289 10.9715 18.343 11.2535 18.343C11.6915 18.343 12.0335 18.232 12.2795 18.01C12.5255 17.782 12.6485 17.47 12.6485 17.074C12.6485 16.678 12.5255 16.369 12.2795 16.147C12.0335 15.919 11.6915 15.805 11.2535 15.805C10.9595 15.805 10.7105 15.865 10.5065 15.985C10.3085 16.099 10.1705 16.267 10.0925 16.489L9.31853 16.345L9.93053 12.898H13.1255V13.636H10.6145L10.2815 15.445C10.4255 15.331 10.5965 15.247 10.7945 15.193C10.9925 15.133 11.2025 15.103 11.4245 15.103C11.8805 15.103 12.2675 15.187 12.5855 15.355C12.9035 15.517 13.1465 15.745 13.3145 16.039C13.4885 16.333 13.5755 16.672 13.5755 17.056C13.5755 17.44 13.4855 17.785 13.3055 18.091C13.1255 18.397 12.8675 18.64 12.5315 18.82C12.2015 19 11.8055 19.09 11.3435 19.09ZM16.8968 19.09C16.3688 19.09 15.9218 18.958 15.5558 18.694C15.1898 18.424 14.9138 18.058 14.7278 17.596C14.5418 17.128 14.4488 16.594 14.4488 15.994C14.4488 15.394 14.5418 14.863 14.7278 14.401C14.9138 13.933 15.1898 13.567 15.5558 13.303C15.9218 13.033 16.3688 12.898 16.8968 12.898C17.4308 12.898 17.8778 13.033 18.2378 13.303C18.6038 13.567 18.8798 13.933 19.0658 14.401C19.2578 14.863 19.3538 15.394 19.3538 15.994C19.3538 16.594 19.2578 17.128 19.0658 17.596C18.8798 18.058 18.6038 18.424 18.2378 18.694C17.8778 18.958 17.4308 19.09 16.8968 19.09ZM16.8968 18.343C17.1968 18.343 17.4608 18.259 17.6888 18.091C17.9228 17.917 18.1028 17.656 18.2288 17.308C18.3608 16.96 18.4268 16.522 18.4268 15.994C18.4268 15.46 18.3608 15.019 18.2288 14.671C18.1028 14.323 17.9228 14.065 17.6888 13.897C17.4608 13.723 17.1968 13.636 16.8968 13.636C16.6028 13.636 16.3388 13.723 16.1048 13.897C15.8768 14.071 15.6968 14.332 15.5648 14.68C15.4328 15.022 15.3668 15.46 15.3668 15.994C15.3668 16.522 15.4328 16.96 15.5648 17.308C15.6968 17.656 15.8768 17.917 16.1048 18.091C16.3388 18.259 16.6028 18.343 16.8968 18.343ZM22.6712 19.09C22.1432 19.09 21.6962 18.958 21.3302 18.694C20.9642 18.424 20.6882 18.058 20.5022 17.596C20.3162 17.128 20.2232 16.594 20.2232 15.994C20.2232 15.394 20.3162 14.863 20.5022 14.401C20.6882 13.933 20.9642 13.567 21.3302 13.303C21.6962 13.033 22.1432 12.898 22.6712 12.898C23.2052 12.898 23.6522 13.033 24.0122 13.303C24.3782 13.567 24.6542 13.933 24.8402 14.401C25.0322 14.863 25.1282 15.394 25.1282 15.994C25.1282 16.594 25.0322 17.128 24.8402 17.596C24.6542 18.058 24.3782 18.424 24.0122 18.694C23.6522 18.958 23.2052 19.09 22.6712 19.09ZM22.6712 18.343C22.9712 18.343 23.2352 18.259 23.4632 18.091C23.6972 17.917 23.8772 17.656 24.0032 17.308C24.1352 16.96 24.2012 16.522 24.2012 15.994C24.2012 15.46 24.1352 15.019 24.0032 14.671C23.8772 14.323 23.6972 14.065 23.4632 13.897C23.2352 13.723 22.9712 13.636 22.6712 13.636C22.3772 13.636 22.1132 13.723 21.8792 13.897C21.6512 14.071 21.4712 14.332 21.3392 14.68C21.2072 15.022 21.1412 15.46 21.1412 15.994C21.1412 16.522 21.2072 16.96 21.3392 17.308C21.4712 17.656 21.6512 17.917 21.8792 18.091C22.1132 18.259 22.3772 18.343 22.6712 18.343Z" fill="#747FA6"/>
<line x1="107.5" y1="56" x2="107.5" y2="65" stroke="#20224E"/>
<path d="M100.688 76.9L100.895 75.982C100.673 75.916 100.457 75.826 100.247 75.712C100.043 75.598 99.8393 75.454 99.6353 75.28L99.9953 74.569C100.187 74.725 100.373 74.854 100.553 74.956C100.733 75.052 100.91 75.13 101.084 75.19L101.516 73.282L101.327 73.246C100.793 73.144 100.406 72.961 100.166 72.697C99.9323 72.433 99.8153 72.112 99.8153 71.734C99.8153 71.398 99.8903 71.092 100.04 70.816C100.19 70.54 100.421 70.318 100.733 70.15C101.045 69.982 101.438 69.898 101.912 69.898C101.978 69.898 102.041 69.901 102.101 69.907C102.167 69.907 102.233 69.91 102.299 69.916L102.488 69.088H103.028L102.812 70.015C103.004 70.063 103.19 70.135 103.37 70.231C103.556 70.327 103.736 70.444 103.91 70.582L103.541 71.284C103.385 71.176 103.232 71.083 103.082 71.005C102.938 70.921 102.788 70.852 102.632 70.798L102.236 72.535L102.569 72.598C103.097 72.694 103.481 72.895 103.721 73.201C103.967 73.501 104.09 73.837 104.09 74.209C104.09 74.773 103.892 75.229 103.496 75.577C103.106 75.919 102.542 76.09 101.804 76.09C101.732 76.09 101.663 76.087 101.597 76.081C101.537 76.075 101.477 76.069 101.417 76.063L101.228 76.9H100.688ZM101.597 75.298C101.633 75.304 101.666 75.307 101.696 75.307C101.732 75.307 101.768 75.307 101.804 75.307C102.242 75.307 102.578 75.22 102.812 75.046C103.046 74.866 103.163 74.617 103.163 74.299C103.163 74.077 103.091 73.891 102.947 73.741C102.803 73.585 102.593 73.483 102.317 73.435L102.038 73.381L101.597 75.298ZM101.714 72.436L102.119 70.69C102.089 70.684 102.059 70.681 102.029 70.681C101.999 70.681 101.966 70.681 101.93 70.681C101.534 70.681 101.234 70.765 101.03 70.933C100.832 71.101 100.733 71.329 100.733 71.617C100.733 71.839 100.802 72.013 100.94 72.139C101.084 72.259 101.291 72.346 101.561 72.4L101.714 72.436ZM106.987 76.09C106.603 76.09 106.252 76.021 105.934 75.883C105.622 75.739 105.352 75.538 105.124 75.28L105.466 74.686C105.7 74.908 105.937 75.073 106.177 75.181C106.417 75.289 106.66 75.343 106.906 75.343C107.224 75.343 107.512 75.271 107.77 75.127C108.034 74.977 108.244 74.743 108.4 74.425C108.562 74.107 108.652 73.693 108.67 73.183C108.52 73.399 108.31 73.57 108.04 73.696C107.776 73.822 107.464 73.885 107.104 73.885C106.654 73.885 106.267 73.801 105.943 73.633C105.625 73.465 105.382 73.234 105.214 72.94C105.046 72.646 104.962 72.307 104.962 71.923C104.962 71.539 105.052 71.194 105.232 70.888C105.412 70.582 105.667 70.342 105.997 70.168C106.333 69.988 106.729 69.898 107.185 69.898C107.683 69.898 108.109 69.997 108.463 70.195C108.823 70.393 109.102 70.693 109.3 71.095C109.498 71.497 109.597 72.01 109.597 72.634C109.597 73.324 109.501 73.93 109.309 74.452C109.117 74.968 108.829 75.37 108.445 75.658C108.061 75.946 107.575 76.09 106.987 76.09ZM107.275 73.183C107.713 73.183 108.055 73.072 108.301 72.85C108.547 72.622 108.67 72.31 108.67 71.914C108.61 71.536 108.469 71.23 108.247 70.996C108.025 70.756 107.701 70.636 107.275 70.636C106.843 70.636 106.501 70.75 106.249 70.978C106.003 71.206 105.88 71.515 105.88 71.905C105.88 72.307 106.003 72.622 106.249 72.85C106.501 73.072 106.843 73.183 107.275 73.183ZM112.92 76.09C112.392 76.09 111.945 75.958 111.579 75.694C111.213 75.424 110.937 75.058 110.751 74.596C110.565 74.128 110.472 73.594 110.472 72.994C110.472 72.394 110.565 71.863 110.751 71.401C110.937 70.933 111.213 70.567 111.579 70.303C111.945 70.033 112.392 69.898 112.92 69.898C113.454 69.898 113.901 70.033 114.261 70.303C114.627 70.567 114.903 70.933 115.089 71.401C115.281 71.863 115.377 72.394 115.377 72.994C115.377 73.594 115.281 74.128 115.089 74.596C114.903 75.058 114.627 75.424 114.261 75.694C113.901 75.958 113.454 76.09 112.92 76.09ZM112.92 75.343C113.22 75.343 113.484 75.259 113.712 75.091C113.946 74.917 114.126 74.656 114.252 74.308C114.384 73.96 114.45 73.522 114.45 72.994C114.45 72.46 114.384 72.019 114.252 71.671C114.126 71.323 113.946 71.065 113.712 70.897C113.484 70.723 113.22 70.636 112.92 70.636C112.626 70.636 112.362 70.723 112.128 70.897C111.9 71.071 111.72 71.332 111.588 71.68C111.456 72.022 111.39 72.46 111.39 72.994C111.39 73.522 111.456 73.96 111.588 74.308C111.72 74.656 111.9 74.917 112.128 75.091C112.362 75.259 112.626 75.343 112.92 75.343Z" fill="#747FA6"/>
<line x1="209.5" y1="56" x2="209.5" y2="65" stroke="#20224E"/>
<path d="M199.799 76.9L200.006 75.982C199.784 75.916 199.568 75.826 199.358 75.712C199.154 75.598 198.95 75.454 198.746 75.28L199.106 74.569C199.298 74.725 199.484 74.854 199.664 74.956C199.844 75.052 200.021 75.13 200.195 75.19L200.627 73.282L200.438 73.246C199.904 73.144 199.517 72.961 199.277 72.697C199.043 72.433 198.926 72.112 198.926 71.734C198.926 71.398 199.001 71.092 199.151 70.816C199.301 70.54 199.532 70.318 199.844 70.15C200.156 69.982 200.549 69.898 201.023 69.898C201.089 69.898 201.152 69.901 201.212 69.907C201.278 69.907 201.344 69.91 201.41 69.916L201.599 69.088H202.139L201.923 70.015C202.115 70.063 202.301 70.135 202.481 70.231C202.667 70.327 202.847 70.444 203.021 70.582L202.652 71.284C202.496 71.176 202.343 71.083 202.193 71.005C202.049 70.921 201.899 70.852 201.743 70.798L201.347 72.535L201.68 72.598C202.208 72.694 202.592 72.895 202.832 73.201C203.078 73.501 203.201 73.837 203.201 74.209C203.201 74.773 203.003 75.229 202.607 75.577C202.217 75.919 201.653 76.09 200.915 76.09C200.843 76.09 200.774 76.087 200.708 76.081C200.648 76.075 200.588 76.069 200.528 76.063L200.339 76.9H199.799ZM200.708 75.298C200.744 75.304 200.777 75.307 200.807 75.307C200.843 75.307 200.879 75.307 200.915 75.307C201.353 75.307 201.689 75.22 201.923 75.046C202.157 74.866 202.274 74.617 202.274 74.299C202.274 74.077 202.202 73.891 202.058 73.741C201.914 73.585 201.704 73.483 201.428 73.435L201.149 73.381L200.708 75.298ZM200.825 72.436L201.23 70.69C201.2 70.684 201.17 70.681 201.14 70.681C201.11 70.681 201.077 70.681 201.041 70.681C200.645 70.681 200.345 70.765 200.141 70.933C199.943 71.101 199.844 71.329 199.844 71.617C199.844 71.839 199.913 72.013 200.051 72.139C200.195 72.259 200.402 72.346 200.672 72.4L200.825 72.436ZM205.539 76V70.96L204.243 71.671L203.892 70.978L205.773 69.988H206.439V76H205.539ZM210.035 76.09C209.507 76.09 209.06 75.958 208.694 75.694C208.328 75.424 208.052 75.058 207.866 74.596C207.68 74.128 207.587 73.594 207.587 72.994C207.587 72.394 207.68 71.863 207.866 71.401C208.052 70.933 208.328 70.567 208.694 70.303C209.06 70.033 209.507 69.898 210.035 69.898C210.569 69.898 211.016 70.033 211.376 70.303C211.742 70.567 212.018 70.933 212.204 71.401C212.396 71.863 212.492 72.394 212.492 72.994C212.492 73.594 212.396 74.128 212.204 74.596C212.018 75.058 211.742 75.424 211.376 75.694C211.016 75.958 210.569 76.09 210.035 76.09ZM210.035 75.343C210.335 75.343 210.599 75.259 210.827 75.091C211.061 74.917 211.241 74.656 211.367 74.308C211.499 73.96 211.565 73.522 211.565 72.994C211.565 72.46 211.499 72.019 211.367 71.671C211.241 71.323 211.061 71.065 210.827 70.897C210.599 70.723 210.335 70.636 210.035 70.636C209.741 70.636 209.477 70.723 209.243 70.897C209.015 71.071 208.835 71.332 208.703 71.68C208.571 72.022 208.505 72.46 208.505 72.994C208.505 73.522 208.571 73.96 208.703 74.308C208.835 74.656 209.015 74.917 209.243 75.091C209.477 75.259 209.741 75.343 210.035 75.343ZM215.81 76.09C215.282 76.09 214.835 75.958 214.469 75.694C214.103 75.424 213.827 75.058 213.641 74.596C213.455 74.128 213.362 73.594 213.362 72.994C213.362 72.394 213.455 71.863 213.641 71.401C213.827 70.933 214.103 70.567 214.469 70.303C214.835 70.033 215.282 69.898 215.81 69.898C216.344 69.898 216.791 70.033 217.151 70.303C217.517 70.567 217.793 70.933 217.979 71.401C218.171 71.863 218.267 72.394 218.267 72.994C218.267 73.594 218.171 74.128 217.979 74.596C217.793 75.058 217.517 75.424 217.151 75.694C216.791 75.958 216.344 76.09 215.81 76.09ZM215.81 75.343C216.11 75.343 216.374 75.259 216.602 75.091C216.836 74.917 217.016 74.656 217.142 74.308C217.274 73.96 217.34 73.522 217.34 72.994C217.34 72.46 217.274 72.019 217.142 71.671C217.016 71.323 216.836 71.065 216.602 70.897C216.374 70.723 216.11 70.636 215.81 70.636C215.516 70.636 215.252 70.723 215.018 70.897C214.79 71.071 214.61 71.332 214.478 71.68C214.346 72.022 214.28 72.46 214.28 72.994C214.28 73.522 214.346 73.96 214.478 74.308C214.61 74.656 214.79 74.917 215.018 75.091C215.252 75.259 215.516 75.343 215.81 75.343Z" fill="#747FA6"/>
<line x1="311.5" y1="56" x2="311.5" y2="65" stroke="#20224E"/>
<path d="M302.928 76.9L303.135 75.982C302.913 75.916 302.697 75.826 302.487 75.712C302.283 75.598 302.079 75.454 301.875 75.28L302.235 74.569C302.427 74.725 302.613 74.854 302.793 74.956C302.973 75.052 303.15 75.13 303.324 75.19L303.756 73.282L303.567 73.246C303.033 73.144 302.646 72.961 302.406 72.697C302.172 72.433 302.055 72.112 302.055 71.734C302.055 71.398 302.13 71.092 302.28 70.816C302.43 70.54 302.661 70.318 302.973 70.15C303.285 69.982 303.678 69.898 304.152 69.898C304.218 69.898 304.281 69.901 304.341 69.907C304.407 69.907 304.473 69.91 304.539 69.916L304.728 69.088H305.268L305.052 70.015C305.244 70.063 305.43 70.135 305.61 70.231C305.796 70.327 305.976 70.444 306.15 70.582L305.781 71.284C305.625 71.176 305.472 71.083 305.322 71.005C305.178 70.921 305.028 70.852 304.872 70.798L304.476 72.535L304.809 72.598C305.337 72.694 305.721 72.895 305.961 73.201C306.207 73.501 306.33 73.837 306.33 74.209C306.33 74.773 306.132 75.229 305.736 75.577C305.346 75.919 304.782 76.09 304.044 76.09C303.972 76.09 303.903 76.087 303.837 76.081C303.777 76.075 303.717 76.069 303.657 76.063L303.468 76.9H302.928ZM303.837 75.298C303.873 75.304 303.906 75.307 303.936 75.307C303.972 75.307 304.008 75.307 304.044 75.307C304.482 75.307 304.818 75.22 305.052 75.046C305.286 74.866 305.403 74.617 305.403 74.299C305.403 74.077 305.331 73.891 305.187 73.741C305.043 73.585 304.833 73.483 304.557 73.435L304.278 73.381L303.837 75.298ZM303.954 72.436L304.359 70.69C304.329 70.684 304.299 70.681 304.269 70.681C304.239 70.681 304.206 70.681 304.17 70.681C303.774 70.681 303.474 70.765 303.27 70.933C303.072 71.101 302.973 71.329 302.973 71.617C302.973 71.839 303.042 72.013 303.18 72.139C303.324 72.259 303.531 72.346 303.801 72.4L303.954 72.436ZM308.668 76V70.96L307.372 71.671L307.021 70.978L308.902 69.988H309.568V76H308.668ZM312.184 76V70.96L310.888 71.671L310.537 70.978L312.418 69.988H313.084V76H312.184ZM316.681 76.09C316.153 76.09 315.706 75.958 315.34 75.694C314.974 75.424 314.698 75.058 314.512 74.596C314.326 74.128 314.233 73.594 314.233 72.994C314.233 72.394 314.326 71.863 314.512 71.401C314.698 70.933 314.974 70.567 315.34 70.303C315.706 70.033 316.153 69.898 316.681 69.898C317.215 69.898 317.662 70.033 318.022 70.303C318.388 70.567 318.664 70.933 318.85 71.401C319.042 71.863 319.138 72.394 319.138 72.994C319.138 73.594 319.042 74.128 318.85 74.596C318.664 75.058 318.388 75.424 318.022 75.694C317.662 75.958 317.215 76.09 316.681 76.09ZM316.681 75.343C316.981 75.343 317.245 75.259 317.473 75.091C317.707 74.917 317.887 74.656 318.013 74.308C318.145 73.96 318.211 73.522 318.211 72.994C318.211 72.46 318.145 72.019 318.013 71.671C317.887 71.323 317.707 71.065 317.473 70.897C317.245 70.723 316.981 70.636 316.681 70.636C316.387 70.636 316.123 70.723 315.889 70.897C315.661 71.071 315.481 71.332 315.349 71.68C315.217 72.022 315.151 72.46 315.151 72.994C315.151 73.522 315.217 73.96 315.349 74.308C315.481 74.656 315.661 74.917 315.889 75.091C316.123 75.259 316.387 75.343 316.681 75.343Z" fill="#747FA6"/>
<path d="M264.711 47V40.988H267.492C267.966 40.988 268.359 41.042 268.671 41.15C268.989 41.252 269.229 41.417 269.391 41.645C269.553 41.873 269.634 42.173 269.634 42.545C269.634 42.899 269.559 43.187 269.409 43.409C269.265 43.631 269.022 43.793 268.68 43.895C269.082 43.991 269.37 44.159 269.544 44.399C269.724 44.639 269.814 44.954 269.814 45.344C269.814 45.938 269.622 46.364 269.238 46.622C268.86 46.874 268.278 47 267.492 47H264.711ZM265.611 46.235H267.366C267.744 46.235 268.044 46.202 268.266 46.136C268.488 46.07 268.647 45.965 268.743 45.821C268.839 45.677 268.887 45.488 268.887 45.254C268.887 45.014 268.839 44.822 268.743 44.678C268.647 44.534 268.488 44.429 268.266 44.363C268.044 44.297 267.744 44.264 267.366 44.264H265.611V46.235ZM265.611 43.535H267.366C267.864 43.535 268.212 43.469 268.41 43.337C268.608 43.205 268.707 42.974 268.707 42.644C268.707 42.308 268.608 42.074 268.41 41.942C268.212 41.81 267.864 41.744 267.366 41.744H265.611V43.535ZM270.924 47V42.77H271.743V43.508C271.851 43.244 272.007 43.046 272.211 42.914C272.421 42.782 272.655 42.716 272.913 42.716C272.997 42.716 273.072 42.722 273.138 42.734C273.21 42.74 273.267 42.752 273.309 42.77V43.571C273.225 43.553 273.141 43.541 273.057 43.535C272.979 43.523 272.901 43.517 272.823 43.517C272.523 43.517 272.271 43.643 272.067 43.895C271.869 44.141 271.77 44.495 271.77 44.957V47H270.924ZM276.007 47.09C275.581 47.09 275.197 47.006 274.855 46.838C274.519 46.664 274.252 46.415 274.054 46.091C273.856 45.761 273.757 45.359 273.757 44.885C273.757 44.435 273.85 44.045 274.036 43.715C274.228 43.385 274.483 43.13 274.801 42.95C275.125 42.77 275.485 42.68 275.881 42.68C276.301 42.68 276.661 42.761 276.961 42.923C277.267 43.079 277.504 43.295 277.672 43.571C277.84 43.847 277.924 44.159 277.924 44.507C277.924 44.609 277.909 44.72 277.879 44.84C277.855 44.96 277.819 45.056 277.771 45.128H274.621C274.651 45.392 274.729 45.617 274.855 45.803C274.981 45.989 275.149 46.13 275.359 46.226C275.569 46.316 275.812 46.361 276.088 46.361C276.364 46.361 276.607 46.319 276.817 46.235C277.033 46.151 277.24 46.031 277.438 45.875L277.744 46.505C277.51 46.697 277.246 46.844 276.952 46.946C276.664 47.042 276.349 47.09 276.007 47.09ZM274.621 44.471H277.042C277.048 44.459 277.051 44.447 277.051 44.435C277.051 44.417 277.051 44.399 277.051 44.381C277.051 44.183 277.009 44.012 276.925 43.868C276.841 43.718 276.715 43.601 276.547 43.517C276.379 43.433 276.166 43.391 275.908 43.391C275.704 43.391 275.512 43.436 275.332 43.526C275.158 43.61 275.008 43.733 274.882 43.895C274.762 44.051 274.675 44.243 274.621 44.471ZM280.369 47.09C280.057 47.09 279.781 47.042 279.541 46.946C279.307 46.844 279.124 46.7 278.992 46.514C278.86 46.322 278.794 46.091 278.794 45.821C278.794 45.551 278.86 45.329 278.992 45.155C279.124 44.975 279.31 44.834 279.55 44.732C279.79 44.624 280.063 44.552 280.369 44.516L281.863 44.336C281.827 44.018 281.707 43.784 281.503 43.634C281.299 43.484 281.047 43.409 280.747 43.409C280.543 43.409 280.33 43.451 280.108 43.535C279.892 43.613 279.661 43.739 279.415 43.913L279.1 43.274C279.334 43.088 279.592 42.944 279.874 42.842C280.162 42.734 280.459 42.68 280.765 42.68C281.407 42.68 281.893 42.827 282.223 43.121C282.559 43.409 282.727 43.844 282.727 44.426V47H281.908V46.388C281.752 46.622 281.542 46.799 281.278 46.919C281.02 47.033 280.717 47.09 280.369 47.09ZM280.567 46.37C280.849 46.37 281.086 46.316 281.278 46.208C281.476 46.094 281.623 45.944 281.719 45.758C281.821 45.572 281.872 45.377 281.872 45.173V44.984L280.612 45.146C280.3 45.188 280.063 45.257 279.901 45.353C279.739 45.443 279.658 45.59 279.658 45.794C279.658 45.98 279.739 46.124 279.901 46.226C280.063 46.322 280.285 46.37 280.567 46.37ZM284.064 47V40.988H284.91V44.759L286.908 42.77H287.943L286.179 44.498L288.033 47H286.998L285.585 45.083L284.91 45.74V47H284.064ZM287.969 44.768V44.084H290.408V44.768H287.969ZM291.553 47V40.988H295.72V41.762H292.453V43.535H295.45V44.273H292.453V46.226H295.72V47H291.553ZM298.111 47L296.419 42.77H297.328L298.579 46.118L299.83 42.77H300.748L299.047 47H298.111ZM303.289 47.09C302.863 47.09 302.479 47.006 302.137 46.838C301.801 46.664 301.534 46.415 301.336 46.091C301.138 45.761 301.039 45.359 301.039 44.885C301.039 44.435 301.132 44.045 301.318 43.715C301.51 43.385 301.765 43.13 302.083 42.95C302.407 42.77 302.767 42.68 303.163 42.68C303.583 42.68 303.943 42.761 304.243 42.923C304.549 43.079 304.786 43.295 304.954 43.571C305.122 43.847 305.206 44.159 305.206 44.507C305.206 44.609 305.191 44.72 305.161 44.84C305.137 44.96 305.101 45.056 305.053 45.128H301.903C301.933 45.392 302.011 45.617 302.137 45.803C302.263 45.989 302.431 46.13 302.641 46.226C302.851 46.316 303.094 46.361 303.37 46.361C303.646 46.361 303.889 46.319 304.099 46.235C304.315 46.151 304.522 46.031 304.72 45.875L305.026 46.505C304.792 46.697 304.528 46.844 304.234 46.946C303.946 47.042 303.631 47.09 303.289 47.09ZM301.903 44.471H304.324C304.33 44.459 304.333 44.447 304.333 44.435C304.333 44.417 304.333 44.399 304.333 44.381C304.333 44.183 304.291 44.012 304.207 43.868C304.123 43.718 303.997 43.601 303.829 43.517C303.661 43.433 303.448 43.391 303.19 43.391C302.986 43.391 302.794 43.436 302.614 43.526C302.44 43.61 302.29 43.733 302.164 43.895C302.044 44.051 301.957 44.243 301.903 44.471ZM306.309 47V42.77H307.128V43.4C307.254 43.178 307.434 43.004 307.668 42.878C307.908 42.746 308.199 42.68 308.541 42.68C309.027 42.68 309.408 42.818 309.684 43.094C309.96 43.37 310.098 43.802 310.098 44.39V47H309.243V44.498C309.243 44.12 309.165 43.847 309.009 43.679C308.859 43.505 308.628 43.418 308.316 43.418C307.95 43.418 307.665 43.544 307.461 43.796C307.257 44.048 307.155 44.393 307.155 44.831V47H306.309ZM314.432 47.9L314.639 46.982C314.417 46.916 314.201 46.826 313.991 46.712C313.787 46.598 313.583 46.454 313.379 46.28L313.739 45.569C313.931 45.725 314.117 45.854 314.297 45.956C314.477 46.052 314.654 46.13 314.828 46.19L315.26 44.282L315.071 44.246C314.537 44.144 314.15 43.961 313.91 43.697C313.676 43.433 313.559 43.112 313.559 42.734C313.559 42.398 313.634 42.092 313.784 41.816C313.934 41.54 314.165 41.318 314.477 41.15C314.789 40.982 315.182 40.898 315.656 40.898C315.722 40.898 315.785 40.901 315.845 40.907C315.911 40.907 315.977 40.91 316.043 40.916L316.232 40.088H316.772L316.556 41.015C316.748 41.063 316.934 41.135 317.114 41.231C317.3 41.327 317.48 41.444 317.654 41.582L317.285 42.284C317.129 42.176 316.976 42.083 316.826 42.005C316.682 41.921 316.532 41.852 316.376 41.798L315.98 43.535L316.313 43.598C316.841 43.694 317.225 43.895 317.465 44.201C317.711 44.501 317.834 44.837 317.834 45.209C317.834 45.773 317.636 46.229 317.24 46.577C316.85 46.919 316.286 47.09 315.548 47.09C315.476 47.09 315.407 47.087 315.341 47.081C315.281 47.075 315.221 47.069 315.161 47.063L314.972 47.9H314.432ZM315.341 46.298C315.377 46.304 315.41 46.307 315.44 46.307C315.476 46.307 315.512 46.307 315.548 46.307C315.986 46.307 316.322 46.22 316.556 46.046C316.79 45.866 316.907 45.617 316.907 45.299C316.907 45.077 316.835 44.891 316.691 44.741C316.547 44.585 316.337 44.483 316.061 44.435L315.782 44.381L315.341 46.298ZM315.458 43.436L315.863 41.69C315.833 41.684 315.803 41.681 315.773 41.681C315.743 41.681 315.71 41.681 315.674 41.681C315.278 41.681 314.978 41.765 314.774 41.933C314.576 42.101 314.477 42.329 314.477 42.617C314.477 42.839 314.546 43.013 314.684 43.139C314.828 43.259 315.035 43.346 315.305 43.4L315.458 43.436ZM320.172 47V41.96L318.876 42.671L318.525 41.978L320.406 40.988H321.072V47H320.172ZM324.668 47.09C324.14 47.09 323.693 46.958 323.327 46.694C322.961 46.424 322.685 46.058 322.499 45.596C322.313 45.128 322.22 44.594 322.22 43.994C322.22 43.394 322.313 42.863 322.499 42.401C322.685 41.933 322.961 41.567 323.327 41.303C323.693 41.033 324.14 40.898 324.668 40.898C325.202 40.898 325.649 41.033 326.009 41.303C326.375 41.567 326.651 41.933 326.837 42.401C327.029 42.863 327.125 43.394 327.125 43.994C327.125 44.594 327.029 45.128 326.837 45.596C326.651 46.058 326.375 46.424 326.009 46.694C325.649 46.958 325.202 47.09 324.668 47.09ZM324.668 46.343C324.968 46.343 325.232 46.259 325.46 46.091C325.694 45.917 325.874 45.656 326 45.308C326.132 44.96 326.198 44.522 326.198 43.994C326.198 43.46 326.132 43.019 326 42.671C325.874 42.323 325.694 42.065 325.46 41.897C325.232 41.723 324.968 41.636 324.668 41.636C324.374 41.636 324.11 41.723 323.876 41.897C323.648 42.071 323.468 42.332 323.336 42.68C323.204 43.022 323.138 43.46 323.138 43.994C323.138 44.522 323.204 44.96 323.336 45.308C323.468 45.656 323.648 45.917 323.876 46.091C324.11 46.259 324.374 46.343 324.668 46.343ZM330.128 47.09C329.81 47.09 329.525 47.06 329.273 47C329.027 46.946 328.802 46.859 328.598 46.739C328.394 46.613 328.193 46.46 327.995 46.28L328.346 45.641C328.646 45.893 328.931 46.073 329.201 46.181C329.477 46.289 329.756 46.343 330.038 46.343C330.476 46.343 330.818 46.232 331.064 46.01C331.31 45.782 331.433 45.47 331.433 45.074C331.433 44.678 331.31 44.369 331.064 44.147C330.818 43.919 330.476 43.805 330.038 43.805C329.744 43.805 329.495 43.865 329.291 43.985C329.093 44.099 328.955 44.267 328.877 44.489L328.103 44.345L328.715 40.898H331.91V41.636H329.399L329.066 43.445C329.21 43.331 329.381 43.247 329.579 43.193C329.777 43.133 329.987 43.103 330.209 43.103C330.665 43.103 331.052 43.187 331.37 43.355C331.688 43.517 331.931 43.745 332.099 44.039C332.273 44.333 332.36 44.672 332.36 45.056C332.36 45.44 332.27 45.785 332.09 46.091C331.91 46.397 331.652 46.64 331.316 46.82C330.986 47 330.59 47.09 330.128 47.09Z" fill="#747FA6"/>
<path d="M262.479 49.8232C262.577 49.7256 262.735 49.7256 262.833 49.8232C262.931 49.9209 262.931 50.0791 262.833 50.1768L262.479 49.8232ZM256.999 55.9069C256.861 55.9069 256.749 55.7949 256.749 55.6569L256.749 53.4069C256.749 53.2688 256.861 53.1569 256.999 53.1569C257.137 53.1569 257.249 53.2688 257.249 53.4069L257.249 55.4069L259.249 55.4069C259.387 55.4069 259.499 55.5188 259.499 55.6569C259.499 55.7949 259.387 55.9069 259.249 55.9069L256.999 55.9069ZM262.833 50.1768L257.176 55.8336L256.823 55.4801L262.479 49.8232L262.833 50.1768Z" fill="#747FA6"/>
<path d="M311 110L309.215 104.509L305.352 108.801L311 110ZM256 60.5L255.658 60.8648L255.666 60.8716L256 60.5ZM208 15.5L208.342 15.1352L208.198 15H208V15.5ZM107 15.5L112 18.3867V12.6133L107 15.5ZM307.99 106.618L256.334 60.1284L255.666 60.8716L307.321 107.361L307.99 106.618ZM256.342 60.1352L208.342 15.1352L207.658 15.8648L255.658 60.8648L256.342 60.1352ZM208 15H111.5V16H208V15Z" fill="#46956A"/>
<path d="M311 110L309.215 104.509L305.352 108.801L311 110ZM307.99 106.618L256.334 60.1284L255.666 60.8716L307.321 107.361L307.99 106.618Z" fill="#C75E4B"/>
<path d="M238.383 110.09C237.603 110.09 236.985 109.883 236.529 109.469C236.079 109.055 235.854 108.416 235.854 107.552V103.988H236.754V107.552C236.754 107.954 236.817 108.284 236.943 108.542C237.075 108.8 237.261 108.989 237.501 109.109C237.747 109.229 238.041 109.289 238.383 109.289C238.725 109.289 239.016 109.229 239.256 109.109C239.502 108.989 239.688 108.8 239.814 108.542C239.946 108.284 240.012 107.954 240.012 107.552V103.988H240.921V107.552C240.921 108.416 240.693 109.055 240.237 109.469C239.787 109.883 239.169 110.09 238.383 110.09ZM242.295 110V105.77H243.114V106.4C243.24 106.178 243.42 106.004 243.654 105.878C243.894 105.746 244.185 105.68 244.527 105.68C245.013 105.68 245.394 105.818 245.67 106.094C245.946 106.37 246.084 106.802 246.084 107.39V110H245.229V107.498C245.229 107.12 245.151 106.847 244.995 106.679C244.845 106.505 244.614 106.418 244.302 106.418C243.936 106.418 243.651 106.544 243.447 106.796C243.243 107.048 243.141 107.393 243.141 107.831V110H242.295ZM247.428 110V103.988H248.274V110H247.428ZM249.625 110V105.77H250.471V110H249.625ZM250.048 104.897C249.892 104.897 249.766 104.852 249.67 104.762C249.58 104.672 249.535 104.555 249.535 104.411C249.535 104.267 249.58 104.15 249.67 104.06C249.766 103.97 249.892 103.925 250.048 103.925C250.198 103.925 250.321 103.97 250.417 104.06C250.513 104.15 250.561 104.267 250.561 104.411C250.561 104.555 250.513 104.672 250.417 104.762C250.321 104.852 250.198 104.897 250.048 104.897ZM251.822 110V105.77H252.641V106.328C252.761 106.124 252.926 105.965 253.136 105.851C253.346 105.737 253.601 105.68 253.901 105.68C254.207 105.68 254.465 105.746 254.675 105.878C254.891 106.004 255.053 106.181 255.161 106.409C255.293 106.169 255.479 105.989 255.719 105.869C255.965 105.743 256.25 105.68 256.574 105.68C257.048 105.68 257.423 105.818 257.699 106.094C257.975 106.37 258.113 106.802 258.113 107.39V110H257.258V107.498C257.258 107.12 257.183 106.847 257.033 106.679C256.889 106.505 256.676 106.418 256.394 106.418C256.064 106.418 255.812 106.544 255.638 106.796C255.47 107.048 255.386 107.393 255.386 107.831V110H254.531V107.498C254.531 107.12 254.456 106.847 254.306 106.679C254.162 106.505 253.952 106.418 253.676 106.418C253.346 106.418 253.094 106.544 252.92 106.796C252.752 107.048 252.668 107.393 252.668 107.831V110H251.822ZM259.451 110V105.77H260.297V110H259.451ZM259.874 104.897C259.718 104.897 259.592 104.852 259.496 104.762C259.406 104.672 259.361 104.555 259.361 104.411C259.361 104.267 259.406 104.15 259.496 104.06C259.592 103.97 259.718 103.925 259.874 103.925C260.024 103.925 260.147 103.97 260.243 104.06C260.339 104.15 260.387 104.267 260.387 104.411C260.387 104.555 260.339 104.672 260.243 104.762C260.147 104.852 260.024 104.897 259.874 104.897ZM263.422 110.054C262.978 110.054 262.648 109.952 262.432 109.748C262.222 109.538 262.117 109.214 262.117 108.776V106.49H261.19V105.77H262.117V104.564H262.963V105.77H264.061V106.49H262.963V108.704C262.963 108.914 263.014 109.07 263.116 109.172C263.218 109.274 263.377 109.325 263.593 109.325C263.665 109.325 263.746 109.322 263.836 109.316C263.932 109.31 264.007 109.301 264.061 109.289V109.973C263.989 109.997 263.893 110.015 263.773 110.027C263.653 110.045 263.536 110.054 263.422 110.054ZM267.11 110.09C266.684 110.09 266.3 110.006 265.958 109.838C265.622 109.664 265.355 109.415 265.157 109.091C264.959 108.761 264.86 108.359 264.86 107.885C264.86 107.435 264.953 107.045 265.139 106.715C265.331 106.385 265.586 106.13 265.904 105.95C266.228 105.77 266.588 105.68 266.984 105.68C267.404 105.68 267.764 105.761 268.064 105.923C268.37 106.079 268.607 106.295 268.775 106.571C268.943 106.847 269.027 107.159 269.027 107.507C269.027 107.609 269.012 107.72 268.982 107.84C268.958 107.96 268.922 108.056 268.874 108.128H265.724C265.754 108.392 265.832 108.617 265.958 108.803C266.084 108.989 266.252 109.13 266.462 109.226C266.672 109.316 266.915 109.361 267.191 109.361C267.467 109.361 267.71 109.319 267.92 109.235C268.136 109.151 268.343 109.031 268.541 108.875L268.847 109.505C268.613 109.697 268.349 109.844 268.055 109.946C267.767 110.042 267.452 110.09 267.11 110.09ZM265.724 107.471H268.145C268.151 107.459 268.154 107.447 268.154 107.435C268.154 107.417 268.154 107.399 268.154 107.381C268.154 107.183 268.112 107.012 268.028 106.868C267.944 106.718 267.818 106.601 267.65 106.517C267.482 106.433 267.269 106.391 267.011 106.391C266.807 106.391 266.615 106.436 266.435 106.526C266.261 106.61 266.111 106.733 265.985 106.895C265.865 107.051 265.778 107.243 265.724 107.471ZM271.921 110.09C271.537 110.09 271.192 110 270.886 109.82C270.58 109.64 270.337 109.385 270.157 109.055C269.983 108.725 269.896 108.335 269.896 107.885C269.896 107.429 269.983 107.036 270.157 106.706C270.337 106.376 270.58 106.124 270.886 105.95C271.192 105.77 271.537 105.68 271.921 105.68C272.257 105.68 272.551 105.746 272.803 105.878C273.055 106.004 273.25 106.172 273.388 106.382V103.988H274.243V110H273.424V109.325C273.292 109.553 273.097 109.739 272.839 109.883C272.581 110.021 272.275 110.09 271.921 110.09ZM272.101 109.343C272.359 109.343 272.587 109.286 272.785 109.172C272.983 109.052 273.139 108.884 273.253 108.668C273.367 108.446 273.424 108.185 273.424 107.885C273.424 107.585 273.367 107.327 273.253 107.111C273.139 106.889 272.983 106.718 272.785 106.598C272.587 106.478 272.359 106.418 272.101 106.418C271.843 106.418 271.612 106.478 271.408 106.598C271.21 106.718 271.054 106.889 270.94 107.111C270.826 107.327 270.769 107.585 270.769 107.885C270.769 108.185 270.826 108.446 270.94 108.668C271.054 108.884 271.21 109.052 271.408 109.172C271.606 109.286 271.837 109.343 272.101 109.343ZM277.795 110V103.988H278.695V109.199H281.512V110H277.795ZM284.38 110.09C283.948 110.09 283.564 110 283.228 109.82C282.892 109.634 282.631 109.376 282.445 109.046C282.259 108.716 282.166 108.329 282.166 107.885C282.166 107.441 282.259 107.054 282.445 106.724C282.631 106.394 282.892 106.139 283.228 105.959C283.564 105.773 283.948 105.68 284.38 105.68C284.818 105.68 285.202 105.773 285.532 105.959C285.868 106.139 286.129 106.394 286.315 106.724C286.507 107.054 286.603 107.441 286.603 107.885C286.603 108.329 286.507 108.716 286.315 109.046C286.129 109.376 285.868 109.634 285.532 109.82C285.202 110 284.818 110.09 284.38 110.09ZM284.38 109.343C284.65 109.343 284.887 109.286 285.091 109.172C285.295 109.052 285.451 108.884 285.559 108.668C285.673 108.446 285.73 108.185 285.73 107.885C285.73 107.585 285.673 107.327 285.559 107.111C285.451 106.889 285.295 106.718 285.091 106.598C284.887 106.478 284.65 106.418 284.38 106.418C284.11 106.418 283.873 106.478 283.669 106.598C283.471 106.718 283.315 106.889 283.201 107.111C283.087 107.327 283.03 107.585 283.03 107.885C283.03 108.185 283.087 108.446 283.201 108.668C283.315 108.884 283.471 109.052 283.669 109.172C283.873 109.286 284.11 109.343 284.38 109.343ZM289.202 110.09C288.878 110.09 288.575 110.042 288.293 109.946C288.011 109.844 287.738 109.7 287.474 109.514L287.825 108.848C288.089 109.022 288.332 109.154 288.554 109.244C288.782 109.334 289.004 109.379 289.22 109.379C289.526 109.379 289.754 109.334 289.904 109.244C290.06 109.148 290.138 109.007 290.138 108.821C290.138 108.665 290.09 108.551 289.994 108.479C289.904 108.401 289.742 108.341 289.508 108.299L288.788 108.164C288.398 108.092 288.104 107.963 287.906 107.777C287.708 107.585 287.609 107.339 287.609 107.039C287.609 106.793 287.669 106.568 287.789 106.364C287.915 106.154 288.101 105.989 288.347 105.869C288.593 105.743 288.902 105.68 289.274 105.68C289.58 105.68 289.868 105.725 290.138 105.815C290.414 105.905 290.66 106.028 290.876 106.184L290.534 106.823C290.348 106.697 290.15 106.595 289.94 106.517C289.736 106.433 289.526 106.391 289.31 106.391C289.052 106.391 288.848 106.436 288.698 106.526C288.548 106.61 288.473 106.748 288.473 106.94C288.473 107.06 288.518 107.156 288.608 107.228C288.698 107.3 288.851 107.354 289.067 107.39L289.778 107.525C290.174 107.603 290.477 107.735 290.687 107.921C290.903 108.107 291.011 108.377 291.011 108.731C291.011 109.127 290.858 109.454 290.552 109.712C290.246 109.964 289.796 110.09 289.202 110.09ZM293.614 110.09C293.29 110.09 292.987 110.042 292.705 109.946C292.423 109.844 292.15 109.7 291.886 109.514L292.237 108.848C292.501 109.022 292.744 109.154 292.966 109.244C293.194 109.334 293.416 109.379 293.632 109.379C293.938 109.379 294.166 109.334 294.316 109.244C294.472 109.148 294.55 109.007 294.55 108.821C294.55 108.665 294.502 108.551 294.406 108.479C294.316 108.401 294.154 108.341 293.92 108.299L293.2 108.164C292.81 108.092 292.516 107.963 292.318 107.777C292.12 107.585 292.021 107.339 292.021 107.039C292.021 106.793 292.081 106.568 292.201 106.364C292.327 106.154 292.513 105.989 292.759 105.869C293.005 105.743 293.314 105.68 293.686 105.68C293.992 105.68 294.28 105.725 294.55 105.815C294.826 105.905 295.072 106.028 295.288 106.184L294.946 106.823C294.76 106.697 294.562 106.595 294.352 106.517C294.148 106.433 293.938 106.391 293.722 106.391C293.464 106.391 293.26 106.436 293.11 106.526C292.96 106.61 292.885 106.748 292.885 106.94C292.885 107.06 292.93 107.156 293.02 107.228C293.11 107.3 293.263 107.354 293.479 107.39L294.19 107.525C294.586 107.603 294.889 107.735 295.099 107.921C295.315 108.107 295.423 108.377 295.423 108.731C295.423 109.127 295.27 109.454 294.964 109.712C294.658 109.964 294.208 110.09 293.614 110.09Z" fill="#C75E4B"/>
<line x1="41.5" y1="15.5" x2="103.5" y2="15.5" stroke="#46956A" stroke-linecap="round" stroke-dasharray="2 2"/>
<path d="M51.8052 9.99707V3.98507H53.2272L55.1622 8.88107L57.1062 3.98507H58.5282V9.99707H57.6192V4.87607L55.5582 9.99707H54.7662L52.7052 4.87607V9.99707H51.8052ZM61.2577 10.0871C60.9457 10.0871 60.6697 10.0391 60.4297 9.94307C60.1957 9.84107 60.0127 9.69707 59.8807 9.51107C59.7487 9.31907 59.6827 9.08807 59.6827 8.81807C59.6827 8.54807 59.7487 8.32607 59.8807 8.15207C60.0127 7.97207 60.1987 7.83107 60.4387 7.72907C60.6787 7.62107 60.9517 7.54907 61.2577 7.51307L62.7517 7.33307C62.7157 7.01507 62.5957 6.78107 62.3917 6.63107C62.1877 6.48107 61.9357 6.40607 61.6357 6.40607C61.4317 6.40607 61.2187 6.44807 60.9967 6.53207C60.7807 6.61007 60.5497 6.73607 60.3037 6.91007L59.9887 6.27107C60.2227 6.08507 60.4807 5.94107 60.7627 5.83907C61.0507 5.73107 61.3477 5.67707 61.6537 5.67707C62.2957 5.67707 62.7817 5.82407 63.1117 6.11807C63.4477 6.40607 63.6157 6.84107 63.6157 7.42307V9.99707H62.7967V9.38507C62.6407 9.61907 62.4307 9.79607 62.1667 9.91607C61.9087 10.0301 61.6057 10.0871 61.2577 10.0871ZM61.4557 9.36707C61.7377 9.36707 61.9747 9.31307 62.1667 9.20507C62.3647 9.09107 62.5117 8.94107 62.6077 8.75507C62.7097 8.56907 62.7607 8.37407 62.7607 8.17007V7.98107L61.5007 8.14307C61.1887 8.18507 60.9517 8.25407 60.7897 8.35007C60.6277 8.44007 60.5467 8.58707 60.5467 8.79107C60.5467 8.97707 60.6277 9.12107 60.7897 9.22307C60.9517 9.31907 61.1737 9.36707 61.4557 9.36707ZM64.0897 9.99707L65.7097 7.81007L64.1797 5.76707H65.1607L66.2497 7.28807L67.3477 5.76707H68.3287L66.7987 7.81007L68.4187 9.99707H67.4377L66.2497 8.38607L65.0707 9.99707H64.0897ZM71.5279 9.99707V3.98507H73.9219C74.6599 3.98507 75.2149 4.14107 75.5869 4.45307C75.9589 4.76507 76.1449 5.23907 76.1449 5.87507C76.1449 6.51107 75.9589 6.98507 75.5869 7.29707C75.2149 7.60307 74.6599 7.75607 73.9219 7.75607H72.4279V9.99707H71.5279ZM72.4279 7.00007H73.7509C74.2309 7.00007 74.5969 6.91607 74.8489 6.74807C75.1009 6.58007 75.2269 6.28907 75.2269 5.87507C75.2269 5.45507 75.1039 5.16107 74.8579 4.99307C74.6179 4.82507 74.2489 4.74107 73.7509 4.74107H72.4279V7.00007ZM77.2575 9.99707V5.76707H78.0765V6.50507C78.1845 6.24107 78.3405 6.04307 78.5445 5.91107C78.7545 5.77907 78.9885 5.71307 79.2465 5.71307C79.3305 5.71307 79.4055 5.71907 79.4715 5.73107C79.5435 5.73707 79.6005 5.74907 79.6425 5.76707V6.56807C79.5585 6.55007 79.4745 6.53807 79.3905 6.53207C79.3125 6.52007 79.2345 6.51407 79.1565 6.51407C78.8565 6.51407 78.6045 6.64007 78.4005 6.89207C78.2025 7.13807 78.1035 7.49207 78.1035 7.95407V9.99707H77.2575ZM82.3049 10.0871C81.8729 10.0871 81.4889 9.99707 81.1529 9.81707C80.8169 9.63107 80.5559 9.37307 80.3699 9.04307C80.1839 8.71307 80.0909 8.32607 80.0909 7.88207C80.0909 7.43807 80.1839 7.05107 80.3699 6.72107C80.5559 6.39107 80.8169 6.13607 81.1529 5.95607C81.4889 5.77007 81.8729 5.67707 82.3049 5.67707C82.7429 5.67707 83.1269 5.77007 83.4569 5.95607C83.7929 6.13607 84.0539 6.39107 84.2399 6.72107C84.4319 7.05107 84.5279 7.43807 84.5279 7.88207C84.5279 8.32607 84.4319 8.71307 84.2399 9.04307C84.0539 9.37307 83.7929 9.63107 83.4569 9.81707C83.1269 9.99707 82.7429 10.0871 82.3049 10.0871ZM82.3049 9.34007C82.5749 9.34007 82.8119 9.28307 83.0159 9.16907C83.2199 9.04907 83.3759 8.88107 83.4839 8.66507C83.5979 8.44307 83.6549 8.18207 83.6549 7.88207C83.6549 7.58207 83.5979 7.32407 83.4839 7.10807C83.3759 6.88607 83.2199 6.71507 83.0159 6.59507C82.8119 6.47507 82.5749 6.41507 82.3049 6.41507C82.0349 6.41507 81.7979 6.47507 81.5939 6.59507C81.3959 6.71507 81.2399 6.88607 81.1259 7.10807C81.0119 7.32407 80.9549 7.58207 80.9549 7.88207C80.9549 8.18207 81.0119 8.44307 81.1259 8.66507C81.2399 8.88107 81.3959 9.04907 81.5939 9.16907C81.7979 9.28307 82.0349 9.34007 82.3049 9.34007ZM86.1015 9.99707V6.48707H85.1745V5.76707H86.1015V5.20907C86.1015 4.77107 86.2065 4.45007 86.4165 4.24607C86.6325 4.03607 86.9625 3.93107 87.4065 3.93107C87.5205 3.93107 87.6375 3.93707 87.7575 3.94907C87.8775 3.96107 87.9735 3.97907 88.0455 4.00307V4.68707C87.9915 4.67507 87.9165 4.66607 87.8205 4.66007C87.7305 4.65407 87.6495 4.65107 87.5775 4.65107C87.3615 4.65107 87.2025 4.70507 87.1005 4.81307C86.9985 4.91507 86.9475 5.06807 86.9475 5.27207V5.76707H88.0455V6.48707H86.9475V9.99707H86.1015ZM88.9382 9.99707V5.76707H89.7842V9.99707H88.9382ZM89.3612 4.89407C89.2052 4.89407 89.0792 4.84907 88.9832 4.75907C88.8932 4.66907 88.8482 4.55207 88.8482 4.40807C88.8482 4.26407 88.8932 4.14707 88.9832 4.05707C89.0792 3.96707 89.2052 3.92207 89.3612 3.92207C89.5112 3.92207 89.6342 3.96707 89.7302 4.05707C89.8262 4.14707 89.8742 4.26407 89.8742 4.40807C89.8742 4.55207 89.8262 4.66907 89.7302 4.75907C89.6342 4.84907 89.5112 4.89407 89.3612 4.89407ZM92.9084 10.0511C92.4644 10.0511 92.1344 9.94907 91.9184 9.74507C91.7084 9.53507 91.6034 9.21107 91.6034 8.77307V6.48707H90.6764V5.76707H91.6034V4.56107H92.4494V5.76707H93.5474V6.48707H92.4494V8.70107C92.4494 8.91107 92.5004 9.06707 92.6024 9.16907C92.7044 9.27107 92.8634 9.32207 93.0794 9.32207C93.1514 9.32207 93.2324 9.31907 93.3224 9.31307C93.4184 9.30707 93.4934 9.29807 93.5474 9.28607V9.97007C93.4754 9.99407 93.3794 10.0121 93.2594 10.0241C93.1394 10.0421 93.0224 10.0511 92.9084 10.0511Z" fill="#46956A"/>
</svg>
