<svg width="25" height="25" fill="none" xmlns="http://www.w3.org/2000/svg"><g clip-path="url(#clip0_802_7462)"><path d="M12.5.5c6.628 0 12 5.372 12 12 0 6.627-5.372 12-12 12s-12-5.373-12-12c0-6.628 5.372-12 12-12z" fill="#2775CA" stroke="#20224E"/><path fill-rule="evenodd" clip-rule="evenodd" d="M10.157 21.19c0 .295-.23.462-.515.373a9.379 9.379 0 010-17.862c.285-.088.515.078.515.372V4.8c0 .196-.152.426-.338.49-2.99 1.098-5.133 3.97-5.133 7.338s2.142 6.24 5.133 7.338a.566.566 0 01.338.49v.736z" fill="#fff"/><path fill-rule="evenodd" clip-rule="evenodd" d="M13.28 18.49a.393.393 0 01-.393.392h-.78a.393.393 0 01-.391-.392v-1.235c-1.706-.23-2.54-1.187-2.765-2.485a.364.364 0 01.363-.422h.892c.186 0 .343.132.382.318.167.775.613 1.368 1.98 1.368 1.01 0 1.726-.564 1.726-1.406 0-.844-.421-1.162-1.902-1.408-2.186-.294-3.22-.956-3.22-2.671 0-1.324 1-2.353 2.549-2.574v-1.21c0-.216.176-.393.392-.393h.78c.215 0 .391.177.391.392V8.01c1.26.225 2.06.94 2.32 2.127a.363.363 0 01-.359.436h-.823a.397.397 0 01-.378-.29c-.22-.754-.76-1.077-1.696-1.077-1.034 0-1.569.5-1.569 1.2 0 .74.305 1.113 1.893 1.344 2.147.294 3.255.907 3.255 2.735 0 1.388-1.03 2.51-2.643 2.77v1.235h-.005z" fill="#fff"/><path fill-rule="evenodd" clip-rule="evenodd" d="M15.358 21.563c-.284.089-.515-.078-.515-.372v-.725a.52.52 0 01.338-.49c2.99-1.099 5.133-3.971 5.133-7.339 0-3.367-2.142-6.24-5.133-7.338a.566.566 0 01-.338-.49v-.726c0-.294.23-.465.515-.373 3.78 1.207 6.52 4.75 6.52 8.932-.005 4.172-2.74 7.71-6.52 8.921z" fill="#fff"/></g><defs><clipPath id="clip0_802_7462"><path fill="#fff" d="M0 0h25v25H0z"/></clipPath></defs></svg>